<svg xmlns="http://www.w3.org/2000/svg" xmlns:xlink="http://www.w3.org/1999/xlink" width="1030" height="450" viewBox="0 0 1030 450">
  <defs>
    <linearGradient id="linear-gradient" x1="0.508" y1="0.414" x2="0.5" y2="1" gradientUnits="objectBoundingBox">
      <stop offset="0" stop-color="#f2fbe6"/>
      <stop offset="1" stop-color="#e7ffcb"/>
    </linearGradient>
  </defs>
  <g id="Group_1073122" data-name="Group 1073122" transform="translate(-285 -535)">
    <g id="Group_1073119" data-name="Group 1073119">
      <g id="Group_1072346" data-name="Group 1072346">
        <g id="Group_1073120" data-name="Group 1073120">
          <path id="Path_608309" data-name="Path 608309" d="M0,0H1030V450H0Z" transform="translate(285 535)" fill="url(#linear-gradient)"/>
          <path id="Path_613380" data-name="Path 613380" d="M11,0H303a11,11,0,0,1,11,11V26a11,11,0,0,1-11,11H11A11,11,0,0,1,0,26V11A11,11,0,0,1,11,0Z" transform="translate(643 563)" fill="#304c8e"/>
          <path id="Path_613381" data-name="Path 613381" d="M15.548,13.186H10.866L9.887,16H7.7L12.269,3.914h1.884L18.727,16H16.536Zm-4.092-1.693h3.5L13.207,6.479Zm12.136,3.063a1.824,1.824,0,0,0,1.253-.44,1.5,1.5,0,0,0,.531-1.087h1.9a2.963,2.963,0,0,1-.523,1.565,3.43,3.43,0,0,1-1.328,1.15,3.958,3.958,0,0,1-1.81.423,3.829,3.829,0,0,1-2.988-1.22,4.84,4.84,0,0,1-1.1-3.37v-.208a4.759,4.759,0,0,1,1.1-3.283,3.8,3.8,0,0,1,2.988-1.233,3.69,3.69,0,0,1,2.611.934,3.345,3.345,0,0,1,1.058,2.453h-1.9a1.847,1.847,0,0,0-.527-1.27,1.7,1.7,0,0,0-1.258-.5,1.775,1.775,0,0,0-1.511.71,3.621,3.621,0,0,0-.54,2.154v.324a3.682,3.682,0,0,0,.527,2.179A1.773,1.773,0,0,0,23.592,14.556Zm7.736-9.72V7.019h1.585V8.513H31.328v5.014a1.1,1.1,0,0,0,.2.743.943.943,0,0,0,.726.228,3.107,3.107,0,0,0,.706-.083v1.561a4.968,4.968,0,0,1-1.328.191q-2.324,0-2.324-2.565V8.513H27.833V7.019h1.478V4.835ZM36.6,16H34.582V7.019H36.6ZM34.457,4.686a1.071,1.071,0,0,1,.295-.772,1.113,1.113,0,0,1,.843-.307,1.127,1.127,0,0,1,.847.307,1.062,1.062,0,0,1,.3.772,1.038,1.038,0,0,1-.3.76,1.136,1.136,0,0,1-.847.3,1.122,1.122,0,0,1-.843-.3A1.046,1.046,0,0,1,34.457,4.686Zm7.5,8.757,1.9-6.425h2.083L42.833,16H41.081L37.944,7.019h2.092ZM49.349,16H47.332V7.019h2.017ZM47.207,4.686a1.071,1.071,0,0,1,.295-.772,1.113,1.113,0,0,1,.843-.307,1.127,1.127,0,0,1,.847.307,1.062,1.062,0,0,1,.3.772,1.038,1.038,0,0,1-.3.76,1.136,1.136,0,0,1-.847.3,1.122,1.122,0,0,1-.843-.3A1.046,1.046,0,0,1,47.207,4.686Zm3.959,6.757A5.34,5.34,0,0,1,52.13,8.11a3.085,3.085,0,0,1,2.582-1.258,2.931,2.931,0,0,1,2.308,1V3.25h2.017V16H57.21l-.1-.93a2.973,2.973,0,0,1-2.416,1.1,3.068,3.068,0,0,1-2.552-1.27A5.535,5.535,0,0,1,51.167,11.443Zm2.017.174a3.739,3.739,0,0,0,.527,2.137,1.71,1.71,0,0,0,1.5.768,1.9,1.9,0,0,0,1.81-1.1V9.583A1.876,1.876,0,0,0,55.226,8.5a1.723,1.723,0,0,0-1.511.776A4.163,4.163,0,0,0,53.184,11.617ZM66.507,16a3.113,3.113,0,0,1-.232-.838,3.393,3.393,0,0,1-4.565.232,2.47,2.47,0,0,1-.855-1.909,2.55,2.55,0,0,1,1.067-2.2,5.169,5.169,0,0,1,3.051-.768h1.237V9.924a1.573,1.573,0,0,0-.39-1.116,1.547,1.547,0,0,0-1.187-.419,1.777,1.777,0,0,0-1.129.344,1.066,1.066,0,0,0-.44.876H61.045a2.239,2.239,0,0,1,.49-1.382,3.263,3.263,0,0,1,1.332-1.009,4.68,4.68,0,0,1,1.88-.365,3.769,3.769,0,0,1,2.515.793,2.827,2.827,0,0,1,.963,2.229v4.051a4.591,4.591,0,0,0,.34,1.934V16ZM64.29,14.547a2.294,2.294,0,0,0,1.125-.291,1.941,1.941,0,0,0,.793-.78V11.783H65.12a2.973,2.973,0,0,0-1.685.39,1.264,1.264,0,0,0-.564,1.1,1.179,1.179,0,0,0,.386.926A1.5,1.5,0,0,0,64.29,14.547Zm5.669-3.1a5.34,5.34,0,0,1,.963-3.333A3.085,3.085,0,0,1,73.5,6.853a2.931,2.931,0,0,1,2.308,1V3.25h2.017V16H76l-.1-.93a2.973,2.973,0,0,1-2.416,1.1,3.068,3.068,0,0,1-2.552-1.27A5.535,5.535,0,0,1,69.96,11.443Zm2.017.174a3.739,3.739,0,0,0,.527,2.137,1.71,1.71,0,0,0,1.5.768,1.9,1.9,0,0,0,1.81-1.1V9.583A1.876,1.876,0,0,0,74.019,8.5a1.723,1.723,0,0,0-1.511.776A4.163,4.163,0,0,0,71.977,11.617Zm11.912,4.549a4.173,4.173,0,0,1-3.109-1.208,4.381,4.381,0,0,1-1.191-3.217v-.249a5.389,5.389,0,0,1,.519-2.4,3.949,3.949,0,0,1,1.457-1.648,3.851,3.851,0,0,1,2.092-.589,3.525,3.525,0,0,1,2.835,1.17,4.949,4.949,0,0,1,1,3.312v.813H81.622a2.7,2.7,0,0,0,.743,1.76A2.23,2.23,0,0,0,84,14.556a2.731,2.731,0,0,0,2.258-1.121l1.087,1.038a3.631,3.631,0,0,1-1.44,1.249A4.509,4.509,0,0,1,83.888,16.166Zm-.241-7.695a1.7,1.7,0,0,0-1.341.581,3.012,3.012,0,0,0-.652,1.619H85.5v-.149a2.452,2.452,0,0,0-.54-1.531A1.686,1.686,0,0,0,83.648,8.471ZM94.09,13.56a.914.914,0,0,0-.444-.822,4.723,4.723,0,0,0-1.473-.5,7.574,7.574,0,0,1-1.718-.548,2.293,2.293,0,0,1-1.511-2.117,2.391,2.391,0,0,1,.979-1.942,3.872,3.872,0,0,1,2.49-.78,4.029,4.029,0,0,1,2.6.8,2.529,2.529,0,0,1,.992,2.067H93.99a1.243,1.243,0,0,0-.432-.967,1.654,1.654,0,0,0-1.146-.386,1.787,1.787,0,0,0-1.083.307.968.968,0,0,0-.419.822.818.818,0,0,0,.39.722,5.365,5.365,0,0,0,1.577.519,7.466,7.466,0,0,1,1.864.623,2.639,2.639,0,0,1,1,.867,2.212,2.212,0,0,1,.328,1.229,2.34,2.34,0,0,1-1,1.963,4.283,4.283,0,0,1-2.631.751,4.644,4.644,0,0,1-1.967-.4,3.238,3.238,0,0,1-1.345-1.1,2.594,2.594,0,0,1-.481-1.5H90.6a1.421,1.421,0,0,0,.54,1.1,2.1,2.1,0,0,0,1.32.386,2.04,2.04,0,0,0,1.212-.3A.938.938,0,0,0,94.09,13.56ZM109.928,11.6a5.348,5.348,0,0,1-.946,3.324,3.287,3.287,0,0,1-4.906.27v4.258h-2.017V7.019h1.859l.083.913a2.963,2.963,0,0,1,2.416-1.079,3.062,3.062,0,0,1,2.577,1.224,5.49,5.49,0,0,1,.934,3.4Zm-2.009-.174a3.746,3.746,0,0,0-.535-2.133,1.741,1.741,0,0,0-1.531-.789,1.856,1.856,0,0,0-1.776,1.021V13.51a1.873,1.873,0,0,0,1.793,1.046,1.739,1.739,0,0,0,1.507-.776A4.124,4.124,0,0,0,107.919,11.426ZM117,16a3.113,3.113,0,0,1-.232-.838,3.393,3.393,0,0,1-4.565.232,2.47,2.47,0,0,1-.855-1.909,2.55,2.55,0,0,1,1.067-2.2,5.169,5.169,0,0,1,3.051-.768H116.7V9.924a1.573,1.573,0,0,0-.39-1.116,1.547,1.547,0,0,0-1.187-.419A1.777,1.777,0,0,0,114,8.733a1.066,1.066,0,0,0-.44.876h-2.017a2.239,2.239,0,0,1,.49-1.382,3.263,3.263,0,0,1,1.332-1.009,4.68,4.68,0,0,1,1.88-.365,3.769,3.769,0,0,1,2.515.793,2.827,2.827,0,0,1,.963,2.229v4.051a4.591,4.591,0,0,0,.34,1.934V16Zm-2.216-1.453a2.294,2.294,0,0,0,1.125-.291,1.941,1.941,0,0,0,.793-.78V11.783h-1.087a2.973,2.973,0,0,0-1.685.39,1.264,1.264,0,0,0-.564,1.1,1.179,1.179,0,0,0,.386.926A1.5,1.5,0,0,0,114.784,14.547Zm10.75-5.686a4.991,4.991,0,0,0-.822-.066,1.85,1.85,0,0,0-1.868,1.063V16h-2.017V7.019h1.926l.05,1a2.273,2.273,0,0,1,2.025-1.17,1.888,1.888,0,0,1,.714.116ZM131.925,16a3.113,3.113,0,0,1-.232-.838,3.393,3.393,0,0,1-4.565.232,2.47,2.47,0,0,1-.855-1.909,2.55,2.55,0,0,1,1.067-2.2,5.169,5.169,0,0,1,3.051-.768h1.237V9.924a1.573,1.573,0,0,0-.39-1.116,1.547,1.547,0,0,0-1.187-.419,1.777,1.777,0,0,0-1.129.344,1.066,1.066,0,0,0-.44.876h-2.017a2.239,2.239,0,0,1,.49-1.382,3.263,3.263,0,0,1,1.332-1.009,4.68,4.68,0,0,1,1.88-.365,3.769,3.769,0,0,1,2.515.793,2.827,2.827,0,0,1,.963,2.229v4.051a4.591,4.591,0,0,0,.34,1.934V16Zm-2.216-1.453a2.294,2.294,0,0,0,1.125-.291,1.941,1.941,0,0,0,.793-.78V11.783h-1.087a2.973,2.973,0,0,0-1.685.39,1.264,1.264,0,0,0-.564,1.1,1.179,1.179,0,0,0,.386.926A1.5,1.5,0,0,0,129.709,14.547ZM142.135,16h-2.017V3.25h2.017Zm7.562,0a3.113,3.113,0,0,1-.232-.838,3.393,3.393,0,0,1-4.565.232,2.47,2.47,0,0,1-.855-1.909,2.55,2.55,0,0,1,1.067-2.2,5.169,5.169,0,0,1,3.051-.768H149.4V9.924a1.573,1.573,0,0,0-.39-1.116,1.547,1.547,0,0,0-1.187-.419,1.777,1.777,0,0,0-1.129.344,1.066,1.066,0,0,0-.44.876h-2.017a2.239,2.239,0,0,1,.49-1.382,3.263,3.263,0,0,1,1.332-1.009,4.68,4.68,0,0,1,1.88-.365,3.769,3.769,0,0,1,2.515.793,2.827,2.827,0,0,1,.963,2.229v4.051a4.591,4.591,0,0,0,.34,1.934V16Zm-2.216-1.453a2.294,2.294,0,0,0,1.125-.291,1.941,1.941,0,0,0,.793-.78V11.783h-1.087a2.973,2.973,0,0,0-1.685.39,1.264,1.264,0,0,0-.564,1.1,1.179,1.179,0,0,0,.386.926A1.5,1.5,0,0,0,147.481,14.547Zm9.928-3.1a5.253,5.253,0,0,1,.984-3.341A3.157,3.157,0,0,1,161,6.853a2.958,2.958,0,0,1,2.416,1.071l.091-.9h1.818v8.708a3.619,3.619,0,0,1-1.1,2.789,4.189,4.189,0,0,1-2.968,1.021,4.783,4.783,0,0,1-1.93-.411A3.429,3.429,0,0,1,157.9,18.05l.955-1.212a2.883,2.883,0,0,0,2.291,1.1,2.228,2.228,0,0,0,1.585-.544,2.084,2.084,0,0,0,.581-1.6v-.606a2.97,2.97,0,0,1-2.324.971,3.15,3.15,0,0,1-2.577-1.253A5.423,5.423,0,0,1,157.408,11.443Zm2.009.174a3.616,3.616,0,0,0,.552,2.129,1.775,1.775,0,0,0,1.531.776,1.941,1.941,0,0,0,1.81-1.046V9.525A1.913,1.913,0,0,0,161.517,8.5a1.782,1.782,0,0,0-1.548.789A4.049,4.049,0,0,0,159.417,11.617Zm11.937,4.549a4.173,4.173,0,0,1-3.109-1.208,4.381,4.381,0,0,1-1.191-3.217v-.249a5.389,5.389,0,0,1,.519-2.4,3.949,3.949,0,0,1,1.457-1.648,3.851,3.851,0,0,1,2.092-.589,3.525,3.525,0,0,1,2.835,1.17,4.949,4.949,0,0,1,1,3.312v.813h-5.869a2.7,2.7,0,0,0,.743,1.76,2.23,2.23,0,0,0,1.639.647,2.731,2.731,0,0,0,2.258-1.121l1.087,1.038a3.631,3.631,0,0,1-1.44,1.249A4.509,4.509,0,0,1,171.354,16.166Zm-.241-7.695a1.7,1.7,0,0,0-1.341.581,3.012,3.012,0,0,0-.652,1.619h3.843v-.149a2.452,2.452,0,0,0-.54-1.531A1.686,1.686,0,0,0,171.113,8.471Zm10.442,5.088a.914.914,0,0,0-.444-.822,4.723,4.723,0,0,0-1.473-.5,7.574,7.574,0,0,1-1.718-.548,2.293,2.293,0,0,1-1.511-2.117,2.391,2.391,0,0,1,.979-1.942,3.872,3.872,0,0,1,2.49-.78,4.029,4.029,0,0,1,2.6.8,2.529,2.529,0,0,1,.992,2.067h-2.017a1.243,1.243,0,0,0-.432-.967,1.654,1.654,0,0,0-1.146-.386,1.787,1.787,0,0,0-1.083.307.968.968,0,0,0-.419.822.818.818,0,0,0,.39.722,5.365,5.365,0,0,0,1.577.519,7.466,7.466,0,0,1,1.864.623,2.639,2.639,0,0,1,1,.867,2.212,2.212,0,0,1,.328,1.229,2.34,2.34,0,0,1-1,1.963,4.283,4.283,0,0,1-2.631.751,4.644,4.644,0,0,1-1.967-.4,3.238,3.238,0,0,1-1.345-1.1,2.594,2.594,0,0,1-.481-1.5h1.959a1.421,1.421,0,0,0,.54,1.1,2.1,2.1,0,0,0,1.32.386,2.04,2.04,0,0,0,1.212-.3A.938.938,0,0,0,181.555,13.56Zm6.267-8.724V7.019h1.585V8.513h-1.585v5.014a1.1,1.1,0,0,0,.2.743.943.943,0,0,0,.726.228,3.107,3.107,0,0,0,.706-.083v1.561a4.968,4.968,0,0,1-1.328.191q-2.324,0-2.324-2.565V8.513h-1.478V7.019h1.478V4.835ZM193.094,16h-2.017V7.019h2.017ZM190.952,4.686a1.07,1.07,0,0,1,.295-.772,1.113,1.113,0,0,1,.843-.307,1.127,1.127,0,0,1,.847.307,1.062,1.062,0,0,1,.3.772,1.038,1.038,0,0,1-.3.76,1.136,1.136,0,0,1-.847.3,1.122,1.122,0,0,1-.843-.3A1.046,1.046,0,0,1,190.952,4.686Zm3.959,6.74a5.3,5.3,0,0,1,.523-2.378A3.819,3.819,0,0,1,196.9,7.421a4.14,4.14,0,0,1,2.175-.569,3.923,3.923,0,0,1,2.951,1.17,4.6,4.6,0,0,1,1.224,3.1l.008.473a5.343,5.343,0,0,1-.51,2.374,3.773,3.773,0,0,1-1.461,1.619,4.17,4.17,0,0,1-2.2.573,3.9,3.9,0,0,1-3.042-1.266,4.848,4.848,0,0,1-1.141-3.374Zm2.017.174a3.619,3.619,0,0,0,.573,2.171,1.862,1.862,0,0,0,1.594.784,1.842,1.842,0,0,0,1.59-.8,4,4,0,0,0,.569-2.333,3.572,3.572,0,0,0-.585-2.158,1.973,1.973,0,0,0-3.158-.012A3.922,3.922,0,0,0,196.928,11.6Zm2.706-8.351h2.3l-2.3,2.515-1.619,0Zm7.205,3.769.058,1.038a3.229,3.229,0,0,1,2.615-1.2q2.806,0,2.855,3.212V16h-2.017V10.181a1.85,1.85,0,0,0-.369-1.266,1.554,1.554,0,0,0-1.208-.411,1.944,1.944,0,0,0-1.818,1.1V16h-2.017V7.019Zm11.438,4.424a5.34,5.34,0,0,1,.963-3.333,3.085,3.085,0,0,1,2.582-1.258,2.931,2.931,0,0,1,2.308,1V3.25h2.017V16h-1.826l-.1-.93a2.973,2.973,0,0,1-2.416,1.1,3.068,3.068,0,0,1-2.552-1.27A5.535,5.535,0,0,1,218.278,11.443Zm2.017.174a3.739,3.739,0,0,0,.527,2.137,1.71,1.71,0,0,0,1.5.768,1.9,1.9,0,0,0,1.81-1.1V9.583A1.876,1.876,0,0,0,222.337,8.5a1.723,1.723,0,0,0-1.511.776A4.163,4.163,0,0,0,220.3,11.617Zm11.912,4.549a4.173,4.173,0,0,1-3.109-1.208,4.381,4.381,0,0,1-1.191-3.217v-.249a5.389,5.389,0,0,1,.519-2.4,3.949,3.949,0,0,1,1.457-1.648,3.851,3.851,0,0,1,2.092-.589,3.525,3.525,0,0,1,2.835,1.17,4.949,4.949,0,0,1,1,3.312v.813h-5.869a2.7,2.7,0,0,0,.743,1.76,2.23,2.23,0,0,0,1.639.647,2.731,2.731,0,0,0,2.258-1.121l1.087,1.038a3.631,3.631,0,0,1-1.44,1.249A4.509,4.509,0,0,1,232.207,16.166Zm-.241-7.695a1.7,1.7,0,0,0-1.341.581,3.012,3.012,0,0,0-.652,1.619h3.843v-.149a2.452,2.452,0,0,0-.54-1.531A1.686,1.686,0,0,0,231.966,8.471ZM239.52,16H237.5V3.25h2.017Zm11.131-7.139a4.991,4.991,0,0,0-.822-.066,1.85,1.85,0,0,0-1.868,1.063V16h-2.017V7.019h1.926l.05,1a2.273,2.273,0,0,1,2.025-1.17,1.888,1.888,0,0,1,.714.116ZM254.071,16h-2.017V7.019h2.017ZM251.929,4.686a1.07,1.07,0,0,1,.295-.772,1.113,1.113,0,0,1,.843-.307,1.127,1.127,0,0,1,.847.307,1.062,1.062,0,0,1,.3.772,1.038,1.038,0,0,1-.3.76,1.136,1.136,0,0,1-.847.3,1.122,1.122,0,0,1-.843-.3A1.046,1.046,0,0,1,251.929,4.686Zm8.292,11.48a4.173,4.173,0,0,1-3.109-1.208,4.381,4.381,0,0,1-1.191-3.217v-.249a5.389,5.389,0,0,1,.519-2.4A3.949,3.949,0,0,1,257.9,7.442a3.851,3.851,0,0,1,2.092-.589,3.525,3.525,0,0,1,2.835,1.17,4.949,4.949,0,0,1,1,3.312v.813h-5.869a2.7,2.7,0,0,0,.743,1.76,2.23,2.23,0,0,0,1.639.647,2.731,2.731,0,0,0,2.258-1.121l1.087,1.038a3.631,3.631,0,0,1-1.44,1.249A4.509,4.509,0,0,1,260.222,16.166Zm-.241-7.695a1.7,1.7,0,0,0-1.341.581,3.012,3.012,0,0,0-.652,1.619h3.843v-.149a2.452,2.452,0,0,0-.54-1.531A1.686,1.686,0,0,0,259.981,8.471Zm10.442,5.088a.914.914,0,0,0-.444-.822,4.723,4.723,0,0,0-1.473-.5,7.574,7.574,0,0,1-1.718-.548,2.293,2.293,0,0,1-1.511-2.117,2.391,2.391,0,0,1,.979-1.942,3.872,3.872,0,0,1,2.49-.78,4.029,4.029,0,0,1,2.6.8,2.529,2.529,0,0,1,.992,2.067h-2.017a1.243,1.243,0,0,0-.432-.967,1.654,1.654,0,0,0-1.146-.386,1.787,1.787,0,0,0-1.083.307.968.968,0,0,0-.419.822.818.818,0,0,0,.39.722,5.365,5.365,0,0,0,1.577.519,7.466,7.466,0,0,1,1.864.623,2.639,2.639,0,0,1,1,.867,2.212,2.212,0,0,1,.328,1.229,2.34,2.34,0,0,1-1,1.963,4.283,4.283,0,0,1-2.631.751,4.644,4.644,0,0,1-1.967-.4,3.238,3.238,0,0,1-1.345-1.1,2.594,2.594,0,0,1-.481-1.5h1.959a1.421,1.421,0,0,0,.54,1.1,2.1,2.1,0,0,0,1.32.386,2.04,2.04,0,0,0,1.212-.3A.938.938,0,0,0,270.424,13.56Zm3.387-2.117a5.253,5.253,0,0,1,.984-3.341A3.157,3.157,0,0,1,277.4,6.853a2.958,2.958,0,0,1,2.416,1.071l.091-.9h1.818v8.708a3.619,3.619,0,0,1-1.1,2.789,4.189,4.189,0,0,1-2.968,1.021,4.783,4.783,0,0,1-1.93-.411A3.429,3.429,0,0,1,274.3,18.05l.955-1.212a2.883,2.883,0,0,0,2.291,1.1,2.228,2.228,0,0,0,1.585-.544,2.084,2.084,0,0,0,.581-1.6v-.606a2.97,2.97,0,0,1-2.324.971,3.15,3.15,0,0,1-2.577-1.253A5.423,5.423,0,0,1,273.81,11.443Zm2.009.174a3.616,3.616,0,0,0,.552,2.129,1.775,1.775,0,0,0,1.531.776,1.941,1.941,0,0,0,1.81-1.046V9.525A1.913,1.913,0,0,0,277.919,8.5a1.782,1.782,0,0,0-1.548.789A4.049,4.049,0,0,0,275.819,11.617Zm7.6-.191a5.3,5.3,0,0,1,.523-2.378,3.819,3.819,0,0,1,1.469-1.627,4.14,4.14,0,0,1,2.175-.569,3.923,3.923,0,0,1,2.951,1.17,4.6,4.6,0,0,1,1.224,3.1l.008.473a5.343,5.343,0,0,1-.51,2.374,3.773,3.773,0,0,1-1.461,1.619,4.17,4.17,0,0,1-2.2.573,3.9,3.9,0,0,1-3.042-1.266,4.848,4.848,0,0,1-1.141-3.374Zm2.017.174a3.619,3.619,0,0,0,.573,2.171,1.862,1.862,0,0,0,1.594.784,1.842,1.842,0,0,0,1.59-.8,4,4,0,0,0,.569-2.333,3.572,3.572,0,0,0-.585-2.158,1.973,1.973,0,0,0-3.158-.012A3.922,3.922,0,0,0,285.44,11.6Z" transform="translate(650 572)" fill="#fff"/>
          <path id="Path_613382" data-name="Path 613382" d="M0,0H55V4H0Z" transform="translate(773 600)" fill="#304c8e"/>
          <g id="_5423414_2842746_1" data-name="5423414_2842746 1" transform="translate(590.716 567.088)">
            <path id="Path_608479" data-name="Path 608479" d="M152.5,74.1l6.806,17.411-4.231-.02-3.391-10.7Z" transform="translate(-23.524 -6.435)" fill="#304c8e"/>
            <path id="Path_608480" data-name="Path 608480" d="M121.585,53.027l-2.34,33.361,24.153.5,2.718-33.865Z" transform="translate(-15.846 -1.447)" fill="#e1f5d6"/>
            <path id="Path_608481" data-name="Path 608481" d="M124.871,56.495l-1.947,27.768,17.955.841,2.508-28.774Z" transform="translate(-16.717 -2.229)" fill="#fafafa"/>
            <path id="Path_608482" data-name="Path 608482" d="M130.185,61.69l-1.456,19.519h9.9l1.747-19.519Z" transform="translate(-18.091 -3.497)" fill="#304c8e"/>
            <path id="Path_608483" data-name="Path 608483" d="M91.1,91.826v-16.7h12.232v16.69Z" transform="translate(-9.187 -6.676)" fill="#ffe126"/>
            <path id="Path_608484" data-name="Path 608484" d="M98.989,68.447s2.95-21.565,2.124-21.535-2.9,19.662-2.9,19.662-.087-16.259-.865-16.172,0,17.21,0,17.21-1.33-13.9-2.049-13.564.308,14.4.308,14.4Z" transform="translate(-10.119 0)" fill="#60cb28"/>
            <path id="Path_608485" data-name="Path 608485" d="M97.3,69.839s1.022-10.749,1.36-10.014,0,6.4,0,6.4,2.832-13.889,3.574-13.417-2.9,15.075-2.9,15.075,2.764-8.337,3.371-7.459-2.293,8.7-2.293,8.7,2.967-5.529,3.169-4.787-1.416,5.5-1.416,5.5Z" transform="translate(-10.653 -1.392)" fill="#60cb28"/>
            <path id="Path_608486" data-name="Path 608486" d="M93.219,71.35s-6.54-12.839-5.731-12.441S92.477,67.6,92.477,67.6s-2.766-8.005-2.159-8.25,3.642,8.992,3.642,8.992l.681,3.008Z" transform="translate(-8.315 -2.837)" fill="#60cb28"/>
            <path id="Path_608487" data-name="Path 608487" d="M96.778,75.143l.309,16.7H91.272L91.16,75.087Z" transform="translate(-9.2 -6.668)" fill="#304c8e"/>
            <path id="Path_608488" data-name="Path 608488" d="M91.072,76.56l5.633.094,6.585-.094.206-1.6H90.912Z" transform="translate(-9.141 -6.639)" fill="#e1f5d6"/>
            <path id="Path_608489" data-name="Path 608489" d="M160.518,96.395H74.883v4.411h85.635Z" transform="translate(-5.348 -11.71)" fill="#304c8e"/>
            <path id="Path_608490" data-name="Path 608490" d="M429.544,102.6H344.693V251.053h84.851Z" transform="translate(-69.199 -13.178)" fill="#fafafa"/>
            <path id="Path_608491" data-name="Path 608491" d="M370.731,251.952s-9.294-66.79-14.165-74.129c0,0,27.8-20.873,28.651-77.441H343.033v151.57Z" transform="translate(-68.806 -12.654)" fill="#e1f5d6"/>
            <path id="Path_608492" data-name="Path 608492" d="M416.716,251.565s9.294-66.79,14.165-74.129c0,0-27.8-20.872-28.651-77.44h42.183v151.57Z" transform="translate(-82.816 -12.562)" fill="#e1f5d6"/>
            <path id="Path_608493" data-name="Path 608493" d="M429.339,95.679H334.388V254.7h98.884V95.679ZM359.309,178.3v37.815H342.254V178.3Zm-17.055-2.734V136.425h17.055v39.137Zm43.014,0V136.425H406.6v39.137ZM406.6,178.3v37.815H385.268V178.3Zm-46.534-2.734V136.425h22.466v39.137Zm22.467,2.734v37.815H360.069V178.3Zm-22.467-42.548V101.335h22.466v34.413Zm22.467,81.039V249.8H360.069V216.787Zm2.734,0H406.6V249.8H385.268Zm0-81.039V101.335H406.6v34.413ZM407.36,178.3h18.045v37.815H407.36Zm0-2.734V136.425h18.045v39.137Zm18.045-39.814H407.36V101.335h18.045Zm-66.1-34.413v34.413H342.254V101.335ZM342.254,216.787h17.055V249.8H342.254ZM407.36,249.8V216.787h18.045V249.8Z" transform="translate(-66.761 -11.541)" fill="#304c8e"/>
            <path id="Path_608494" data-name="Path 608494" d="M400.7,348.207c-3.757.6-5.437,5.221-5.108,9.013s1.887,7.5,1.47,11.28c-.53,4.8-4.159,8.864-4.582,13.678-.5,5.678,3.515,10.714,4.714,16.285.583,2.711.5,5.578,1.511,8.16a10.2,10.2,0,0,0,19.7-3.519c.083-4.359-2.607-8.465-2.28-12.814.241-3.214,2.125-6.259,1.722-9.456-.48-3.8-4.005-6.506-5.25-10.133s-.049-7.626-.479-11.438C411.348,352.425,407.557,347.658,400.7,348.207Z" transform="translate(-80.497 -71.292)" fill="#60cb28"/>
            <path id="Path_608495" data-name="Path 608495" d="M378.1,391.593c-.639,6.336,2.163,13.79,5.421,19.262A30.2,30.2,0,0,0,397.7,423.166a1.563,1.563,0,0,0,2.563-1.567A31.11,31.11,0,0,0,378.1,391.593Z" transform="translate(-77.082 -81.569)" fill="#60cb28"/>
            <path id="Path_608496" data-name="Path 608496" d="M408.231,439.956a1.67,1.67,0,0,1-.18-.353l-.452-1.037c-.381-.9-.95-2.208-1.675-3.806a131.605,131.605,0,0,0-13.815-23.638c-1.037-1.417-1.892-2.552-2.495-3.327l-.682-.9a1.709,1.709,0,0,1-.219-.331,1.608,1.608,0,0,1,.276.285l.735.862c.637.75,1.524,1.863,2.589,3.263a114.97,114.97,0,0,1,13.844,23.687c.7,1.615,1.231,2.935,1.573,3.858.158.43.287.782.389,1.063A1.643,1.643,0,0,1,408.231,439.956Z" transform="translate(-79.617 -85.111)" fill="#304c8e"/>
            <path id="Path_608497" data-name="Path 608497" d="M408.935,371.184a3.759,3.759,0,0,1,.069.608q.047.646.127,1.745c.1,1.55.24,3.734.413,6.42.342,5.421.823,12.91,1.4,21.177s1.156,15.752,1.576,21.168c.205,2.683.372,4.866.491,6.414q.075,1.1.119,1.745a3.7,3.7,0,0,1,.017.611,3.928,3.928,0,0,1-.089-.6q-.069-.644-.186-1.74c-.146-1.547-.352-3.727-.6-6.406-.486-5.411-1.1-12.892-1.682-21.164s-1.022-15.762-1.3-21.188c-.125-2.689-.227-4.876-.3-6.427q-.038-1.1-.06-1.748A3.916,3.916,0,0,1,408.935,371.184Z" transform="translate(-84.4 -76.74)" fill="#304c8e"/>
            <path id="Path_608498" data-name="Path 608498" d="M401.3,438.472h15.868v11.649a7.617,7.617,0,0,1-15.223.406Z" transform="translate(-82.596 -92.663)" fill="#304c8e"/>
            <path id="Path_608499" data-name="Path 608499" d="M361.818,463.221c0,.11-69.3.2-154.76.2-85.492,0-154.774-.089-154.774-.2s69.282-.2,154.774-.2C292.521,463.022,361.818,463.111,361.818,463.221Z" transform="translate(0 -98.473)" fill="#263238"/>
            <path id="Path_608500" data-name="Path 608500" d="M106.62,412.884s19.251-61.143,19.659-63.129c.369-1.794-6.986-45.8-7.913-57.183l26.012.969s0,.069,0,.19l11.056.613-9.9,125.049h-11.97l1.187-41.488a404.142,404.142,0,0,1-17.958,40.011Z" transform="translate(-12.859 -58.136)" fill="#ffbe9d"/>
            <path id="Path_608501" data-name="Path 608501" d="M142.832,415.654c-.011-.379.145-13.9.145-13.9.15.809,4.589-11.739,4.482-12.5C147.4,388.856,142.832,415.654,142.832,415.654Z" transform="translate(-21.428 -81.014)" fill="#eb996e"/>
            <path id="Path_608502" data-name="Path 608502" d="M148.009,381.47a2.792,2.792,0,0,1,.076.758,19.981,19.981,0,0,1-.016,2.073c-.017.438-.063.917-.119,1.43s-.136,1.06-.254,1.629a27.861,27.861,0,0,1-.979,3.643c-.869,2.529-1.828,4.742-2.509,6.347q-.484,1.1-.833,1.891a2.814,2.814,0,0,1-.355.673,2.825,2.825,0,0,1,.211-.731c.16-.461.4-1.124.716-1.938.614-1.632,1.532-3.862,2.393-6.369a31.742,31.742,0,0,0,1-3.589c.127-.558.208-1.1.286-1.6s.131-.975.166-1.408c.082-.863.12-1.567.141-2.054A2.813,2.813,0,0,1,148.009,381.47Z" transform="translate(-21.472 -79.174)" fill="#eb996e"/>
            <path id="Path_608503" data-name="Path 608503" d="M157.9,295.83c.462-17.434-1.5-35.493-3.047-40.97-.147-.522-.275-1.05-.4-1.578L151.5,240.9s-1.231-1.005,2.058-5.385c1.524-2.03,1.24-9.786,1.24-9.786l-1.471,10.249,15.452-7.442s-6.488-18.483-8.585-21.184c-5.443-7.011-15.278-5.784-15.278-5.784l-12.873-.149a29.985,29.985,0,0,0-9.606,2.507l-.32.083v.066c-3.69,1.8-6.981,4.83-7.928,9.771-1.545,8.057-1.06,11.73-1.06,11.73l10.488-.187-.931,22.2c-.793,2.732-3.008,2.077-6.284,14.7a101.3,101.3,0,0,0-2.638,14.5A72.9,72.9,0,0,0,114,294.148l5.888,44.71H155.52Z" transform="translate(-14.382 -36.565)" fill="#304c8e"/>
            <path id="Path_608504" data-name="Path 608504" d="M128.526,226.382l1.911,8.141H112.41l1.186-13.649Z" transform="translate(-14.229 -41.168)" fill="#304c8e"/>
            <path id="Path_608505" data-name="Path 608505" d="M112.41,238.633a13.467,13.467,0,0,1,2.386-.236c1.477-.087,3.521-.16,5.781-.15s4.3.109,5.78.226a12.844,12.844,0,0,1,2.38.294,16,16,0,0,1-2.4-.013c-1.476-.045-3.514-.1-5.767-.109s-4.292.018-5.769.033A15.433,15.433,0,0,1,112.41,238.633Z" transform="translate(-14.229 -45.28)" fill="#263238"/>
            <path id="Path_608506" data-name="Path 608506" d="M163.384,248.034a2.744,2.744,0,0,1-.105-.794,5.706,5.706,0,0,1,.069-.941,5.878,5.878,0,0,1,.311-1.214,9.155,9.155,0,0,1,.633-1.376c.259-.478.566-.966.887-1.477a15.837,15.837,0,0,0,1.781-3.433,7.971,7.971,0,0,0,.378-1.94,10.136,10.136,0,0,0-.056-1.856,18.783,18.783,0,0,0-.65-3.106c-.514-1.743-.943-2.792-.881-2.816a2.875,2.875,0,0,1,.366.708c.208.468.493,1.153.782,2.024a16.969,16.969,0,0,1,.745,3.146,10.043,10.043,0,0,1,.081,1.924,8.154,8.154,0,0,1-.389,2.041,15.16,15.16,0,0,1-1.85,3.506c-.33.505-.644.982-.908,1.442a9.575,9.575,0,0,0-.657,1.314,6.177,6.177,0,0,0-.355,1.153,7,7,0,0,0-.133.905A3.542,3.542,0,0,1,163.384,248.034Z" transform="translate(-26.267 -43.111)" fill="#263238"/>
            <path id="Path_608507" data-name="Path 608507" d="M122.008,351.1a1.374,1.374,0,0,1,.07-.257l.245-.744c.231-.674.56-1.628.979-2.845.419-1.238.985-2.733,1.621-4.476s1.386-3.719,2.217-5.9l5.908-15.307,3.474-9.043c1.205-3.136,2.415-6.4,3.655-9.737,1.216-3.35,2.417-6.615,3.5-9.793l1.607-4.677,1.46-4.51c.982-2.927,1.746-5.759,2.547-8.385.371-1.321.691-2.607,1.021-3.837.311-1.235.668-2.406.895-3.551l.715-3.25q.169-.77.33-1.5.121-.732.236-1.418.226-1.369.421-2.548a21.134,21.134,0,0,0,.3-2.149c.121-1.28.215-2.283.281-2.992.035-.325.062-.582.083-.779a1.312,1.312,0,0,1,.042-.265,1.326,1.326,0,0,1,0,.266c-.011.2-.025.455-.043.781-.049.711-.118,1.719-.208,3a20.252,20.252,0,0,1-.266,2.159q-.18,1.183-.389,2.56-.106.689-.221,1.424l-.316,1.5q-.327,1.547-.689,3.263c-.218,1.15-.568,2.324-.871,3.564-.322,1.234-.635,2.525-1,3.85-.789,2.632-1.542,5.473-2.515,8.407l-1.449,4.52q-.784,2.3-1.6,4.685c-1.083,3.183-2.282,6.452-3.5,9.8-1.24,3.341-2.453,6.6-3.664,9.738l-3.5,9.037L127.4,336.979l-2.271,5.879c-.656,1.735-1.243,3.221-1.684,4.45-.449,1.206-.8,2.152-1.048,2.819-.118.305-.211.547-.282.73A1.375,1.375,0,0,1,122.008,351.1Z" transform="translate(-16.5 -48.805)" fill="#263238"/>
            <path id="Path_608508" data-name="Path 608508" d="M134.35,220.786a10.681,10.681,0,0,1,.06,2.071c-.014,1.277-.06,3.041-.135,4.988s-.166,3.709-.252,4.984a10.692,10.692,0,0,1-.221,2.06,10.677,10.677,0,0,1-.06-2.07c.014-1.277.06-3.041.135-4.988s.166-3.708.252-4.983A10.694,10.694,0,0,1,134.35,220.786Z" transform="translate(-19.276 -41.148)" fill="#263238"/>
            <path id="Path_608509" data-name="Path 608509" d="M149.07,237.081s-3.86,24.318-15.123,23.532c0,0-5.071-.06-6.7-3.43v-1.327Z" transform="translate(-17.74 -45.004)" opacity="0.3"/>
            <path id="Path_608510" data-name="Path 608510" d="M160.027,253.116a37.923,37.923,0,0,1-5.462.4,37.786,37.786,0,0,1-5.474.006,37.915,37.915,0,0,1,5.462-.4A37.771,37.771,0,0,1,160.027,253.116Z" transform="translate(-22.91 -48.779)" fill="#263238"/>
            <path id="Path_608511" data-name="Path 608511" d="M157.372,251.977c0,.021-.167.053-.392-.113a2.426,2.426,0,0,1-.6-.9l-.677-1.406a4.589,4.589,0,0,1-.358-.893.956.956,0,0,1,.429-1.077.708.708,0,0,1,.666.03,1.322,1.322,0,0,1,.412.392,4.582,4.582,0,0,1,.44.858,5.207,5.207,0,0,1,.353,1.563,2.714,2.714,0,0,1-.179,1.447c-.065-.008.021-.558-.1-1.418a5.766,5.766,0,0,0-.412-1.452,4.73,4.73,0,0,0-.418-.769c-.167-.236-.407-.394-.585-.294a.579.579,0,0,0-.224.644,4.87,4.87,0,0,0,.31.82q.313.751.6,1.441a2.927,2.927,0,0,0,.451.9C157.238,251.918,157.38,251.944,157.372,251.977Z" transform="translate(-24.382 -47.474)" fill="#263238"/>
            <path id="Path_608512" data-name="Path 608512" d="M158.04,252.369a5.806,5.806,0,0,1,.488-1.595c.186-.48.426-1.044.718-1.66.146-.308.305-.627.477-.957a1.85,1.85,0,0,1,.359-.512.655.655,0,0,1,.756-.138.786.786,0,0,1,.39.634,1.791,1.791,0,0,1-.076.62,4.551,4.551,0,0,1-.4,1.031,4.714,4.714,0,0,1-1.178,1.427,2.83,2.83,0,0,1-1.511.735,13.21,13.21,0,0,0,1.326-.947,4.886,4.886,0,0,0,1.037-1.382,4.5,4.5,0,0,0,.343-.956c.1-.342.1-.7-.121-.81-.173-.118-.435.168-.585.481l-.492.935c-.307.6-.57,1.147-.788,1.609A8.563,8.563,0,0,1,158.04,252.369Z" transform="translate(-25.025 -47.455)" fill="#263238"/>
            <path id="Path_608513" data-name="Path 608513" d="M134.246,223.08l2.156,14.563-1.4,2.555-1.708-4.951.382-.069Z" transform="translate(-19.172 -41.691)" opacity="0.3"/>
            <path id="Path_608514" data-name="Path 608514" d="M154.083,459.007l.005-1.124-12.261-.534-.034,4.637.756.051c3.366.2,17.126.765,19.378.089C164.44,461.372,154.083,459.007,154.083,459.007Z" transform="translate(-21.183 -97.13)" fill="#304c8e"/>
            <g id="Group_1071465" data-name="Group 1071465" transform="translate(120.624 361.26)" opacity="0.5">
              <path id="Path_608515" data-name="Path 608515" d="M146.221,462.226a4.225,4.225,0,0,0-1.549-2.605,4.112,4.112,0,0,0-2.849-.9l-.013,3.409Z" transform="translate(-141.81 -458.714)" fill="#fff"/>
            </g>
            <path id="Path_608516" data-name="Path 608516" d="M159.143,461.271s3.63,1.059,3.175,1.656-14.383.547-20.524-.014l.021-.273,16.245.2S158.433,461.3,159.143,461.271Z" transform="translate(-21.183 -98.059)" fill="#fff" opacity="0.5"/>
            <path id="Path_608517" data-name="Path 608517" d="M141.569,463.053a1.122,1.122,0,0,0,.21.024l.6.039,2.217.1c1.872.074,4.46.142,7.32.155s5.45-.034,7.322-.091l2.218-.084.6-.033a1.2,1.2,0,0,0,.21-.021,1.12,1.12,0,0,0-.211-.008l-.6.005-2.218.037c-1.873.031-4.46.06-7.319.048s-5.444-.064-7.317-.111l-2.218-.057-.6-.011A1.076,1.076,0,0,0,141.569,463.053Z" transform="translate(-21.129 -98.479)" fill="#263238"/>
            <path id="Path_608518" data-name="Path 608518" d="M163.09,462.982a3.225,3.225,0,0,1,1.177-1.9,1.972,1.972,0,0,0-1.177,1.9Z" transform="translate(-26.217 -98.013)" fill="#263238"/>
            <path id="Path_608519" data-name="Path 608519" d="M158.388,460.848c.034.022.208-.187.386-.466s.3-.524.262-.547-.207.187-.386.466S158.354,460.826,158.388,460.848Z" transform="translate(-25.108 -97.719)" fill="#263238"/>
            <path id="Path_608520" data-name="Path 608520" d="M157.1,460.262c.027.031.22-.1.431-.285s.36-.366.333-.4-.22.1-.431.286S157.07,460.231,157.1,460.262Z" transform="translate(-24.803 -97.658)" fill="#263238"/>
            <path id="Path_608521" data-name="Path 608521" d="M156.286,458.943a2.776,2.776,0,0,0,1.274.018,2.772,2.772,0,0,0-1.274-.018Z" transform="translate(-24.612 -97.492)" fill="#263238"/>
            <path id="Path_608522" data-name="Path 608522" d="M156.009,457.893a1.793,1.793,0,0,0,1.444.114,3.971,3.971,0,0,0-.722-.053A4.034,4.034,0,0,0,156.009,457.893Z" transform="translate(-24.547 -97.257)" fill="#263238"/>
            <path id="Path_608523" data-name="Path 608523" d="M158.937,459.433a2.258,2.258,0,0,0,.784,0,4.634,4.634,0,0,0,.835-.181,2.293,2.293,0,0,0,.479-.2.422.422,0,0,0,.195-.243.309.309,0,0,0-.118-.314,1.438,1.438,0,0,0-1.779.414,1.389,1.389,0,0,0-.257.522.438.438,0,0,0-.021.211,2.207,2.207,0,0,1,.36-.667,1.421,1.421,0,0,1,.671-.433,1.217,1.217,0,0,1,.934.067c.124.092.075.239-.063.321a2.377,2.377,0,0,1-.441.187,5.363,5.363,0,0,1-.808.207C159.235,459.409,158.937,459.408,158.937,459.433Z" transform="translate(-25.24 -97.365)" fill="#263238"/>
            <path id="Path_608524" data-name="Path 608524" d="M158.887,459.352a.77.77,0,0,0,.092-.544,1.276,1.276,0,0,0-.212-.573.789.789,0,0,0-.651-.4.312.312,0,0,0-.243.361.845.845,0,0,0,.132.35,2.384,2.384,0,0,0,.369.476,1.134,1.134,0,0,0,.447.319c.014-.019-.156-.141-.371-.39a2.777,2.777,0,0,1-.327-.472c-.107-.166-.179-.464.017-.5.2-.018.4.178.515.334a1.288,1.288,0,0,1,.22.511A2.871,2.871,0,0,1,158.887,459.352Z" transform="translate(-24.987 -97.245)" fill="#263238"/>
            <path id="Path_608525" data-name="Path 608525" d="M141.911,458.659c0,.028.35-.032.9.035A3.821,3.821,0,0,1,146,461.253c.185.524.2.875.228.872a.7.7,0,0,0,0-.246,3.217,3.217,0,0,0-.131-.658,3.706,3.706,0,0,0-3.275-2.63,3.231,3.231,0,0,0-.671.015A.687.687,0,0,0,141.911,458.659Z" transform="translate(-21.21 -97.422)" fill="#263238"/>
            <path id="Path_608526" data-name="Path 608526" d="M149.6,461.777a10.016,10.016,0,0,0,3.565.019c0-.043-.8.009-1.782,0S149.608,461.735,149.6,461.777Z" transform="translate(-23.031 -98.175)" fill="#263238"/>
            <path id="Path_608527" data-name="Path 608527" d="M146.47,461.747c-.03.03.065.169.145.352s.124.345.166.343.063-.193-.032-.4S146.5,461.717,146.47,461.747Z" transform="translate(-22.288 -98.17)" fill="#263238"/>
            <path id="Path_608528" data-name="Path 608528" d="M145.3,460.273c-.029.028.049.156.175.284s.251.209.28.181-.049-.156-.175-.284S145.325,460.244,145.3,460.273Z" transform="translate(-22.01 -97.821)" fill="#263238"/>
            <path id="Path_608529" data-name="Path 608529" d="M143.611,459.576c.008.041.17.04.35.1s.308.16.34.132-.069-.2-.292-.272S143.6,459.538,143.611,459.576Z" transform="translate(-21.613 -97.641)" fill="#263238"/>
            <path id="Path_608530" data-name="Path 608530" d="M142.409,459.267c-.015.038.055.1.156.141s.2.041.21,0-.055-.1-.156-.141S142.424,459.23,142.409,459.267Z" transform="translate(-21.328 -97.578)" fill="#263238"/>
            <path id="Path_608531" data-name="Path 608531" d="M116.406,456.077l.466-1.024-10.966-5.51-1.93,4.217.669.356c2.989,1.558,15.31,7.713,17.642,8.02C124.886,462.477,116.406,456.077,116.406,456.077Z" transform="translate(-12.233 -95.284)" fill="#304c8e"/>
            <g id="Group_1071466" data-name="Group 1071466" transform="translate(91.825 355.218)" opacity="0.5">
              <path id="Path_608532" data-name="Path 608532" d="M108.069,455.794a4.233,4.233,0,0,0-.346-3.011,4.111,4.111,0,0,0-2.232-1.984l-1.408,3.1Z" transform="translate(-104.083 -450.799)" fill="#fff"/>
            </g>
            <path id="Path_608533" data-name="Path 608533" d="M120.476,460.6s2.877,2.453,2.218,2.811-13.345-5.393-18.718-8.42l.131-.241,14.739,6.834S119.816,460.335,120.476,460.6Z" transform="translate(-12.233 -96.516)" fill="#fff" opacity="0.5"/>
            <path id="Path_608534" data-name="Path 608534" d="M103.921,454.64a1.151,1.151,0,0,0,.182.108l.534.282,1.98,1c1.678.834,4.011,1.957,6.614,3.14s4.985,2.2,6.717,2.916l2.057.831.563.217a1.138,1.138,0,0,0,.2.066,1.212,1.212,0,0,0-.189-.094l-.553-.242-2.039-.875c-1.721-.739-4.094-1.772-6.7-2.954s-4.94-2.289-6.63-3.1l-2-.96-.546-.257A1.167,1.167,0,0,0,103.921,454.64Z" transform="translate(-12.22 -96.489)" fill="#263238"/>
            <path id="Path_608535" data-name="Path 608535" d="M123.347,463.536a3.224,3.224,0,0,1,1.853-1.254,1.969,1.969,0,0,0-1.853,1.254Z" transform="translate(-16.816 -98.294)" fill="#263238"/>
            <path id="Path_608536" data-name="Path 608536" d="M120.04,459.6c.022.034.266-.085.544-.267s.485-.357.463-.391-.266.085-.544.267S120.018,459.565,120.04,459.6Z" transform="translate(-16.034 -97.506)" fill="#263238"/>
            <path id="Path_608537" data-name="Path 608537" d="M119.145,458.547c.012.039.24,0,.51-.084s.478-.185.466-.224-.24,0-.51.084S119.133,458.508,119.145,458.547Z" transform="translate(-15.823 -97.338)" fill="#263238"/>
            <path id="Path_608538" data-name="Path 608538" d="M119.023,456.933c-.018.037.227.188.546.337a1.448,1.448,0,0,0,.609.2c.018-.037-.227-.188-.546-.337A1.427,1.427,0,0,0,119.023,456.933Z" transform="translate(-15.794 -97.03)" fill="#263238"/>
            <path id="Path_608539" data-name="Path 608539" d="M119.205,455.851c-.027.028.2.283.562.482a1.234,1.234,0,0,0,.708.213,51.268,51.268,0,0,1-1.27-.695Z" transform="translate(-15.837 -96.775)" fill="#263238"/>
            <path id="Path_608540" data-name="Path 608540" d="M121.11,458.609a2.261,2.261,0,0,0,.716.319,4.606,4.606,0,0,0,.836.177,2.269,2.269,0,0,0,.516.018.422.422,0,0,0,.277-.142.309.309,0,0,0,.021-.334,1.439,1.439,0,0,0-1.793-.351,1.4,1.4,0,0,0-.449.371c-.084.109-.114.18-.106.185a2.2,2.2,0,0,1,.6-.462,1.413,1.413,0,0,1,.789-.12,1.216,1.216,0,0,1,.824.444c.076.135-.029.249-.189.266a2.294,2.294,0,0,1-.479-.011,5.438,5.438,0,0,1-.822-.142C121.392,458.71,121.12,458.587,121.11,458.609Z" transform="translate(-16.288 -97.314)" fill="#263238"/>
            <path id="Path_608541" data-name="Path 608541" d="M121.116,458.386a.771.771,0,0,0,.307-.458,1.291,1.291,0,0,0,.042-.61.787.787,0,0,0-.43-.633c-.175-.053-.584.3-.612.43-.044.131.207.063.219.174a2.379,2.379,0,0,0,.141.585,1.12,1.12,0,0,0,.278.474c.021-.011-.084-.192-.179-.508a2.747,2.747,0,0,1-.1-.564c-.03-.2.026-.5.22-.448.186.064.289.325.333.516a1.3,1.3,0,0,1-.008.556A2.857,2.857,0,0,1,121.116,458.386Z" transform="translate(-16.124 -96.972)" fill="#263238"/>
            <path id="Path_608542" data-name="Path 608542" d="M106.024,450.793c-.009.026.332.114.808.4a3.822,3.822,0,0,1,1.859,3.639c-.047.553-.175.881-.149.888a.7.7,0,0,0,.1-.224,3.241,3.241,0,0,0,.15-.654,3.708,3.708,0,0,0-1.911-3.74,3.186,3.186,0,0,0-.618-.261A.7.7,0,0,0,106.024,450.793Z" transform="translate(-12.718 -95.579)" fill="#263238"/>
            <path id="Path_608543" data-name="Path 608543" d="M111.772,456.769a10.023,10.023,0,0,0,3.244,1.479c.014-.041-.734-.32-1.627-.728S111.794,456.732,111.772,456.769Z" transform="translate(-14.078 -96.993)" fill="#263238"/>
            <path id="Path_608544" data-name="Path 608544" d="M108.924,455.458c-.04.015-.01.181-.011.381s-.027.366.011.381.137-.15.136-.381S108.959,455.441,108.924,455.458Z" transform="translate(-13.399 -96.683)" fill="#263238"/>
            <path id="Path_608545" data-name="Path 608545" d="M108.455,453.631c-.038.015-.019.163.044.331s.144.294.182.28.019-.163-.043-.331S108.493,453.617,108.455,453.631Z" transform="translate(-13.288 -96.251)" fill="#263238"/>
            <path id="Path_608546" data-name="Path 608546" d="M107.2,452.317c-.009.041.139.107.276.238s.215.272.256.26.018-.208-.155-.368S107.2,452.277,107.2,452.317Z" transform="translate(-12.996 -95.935)" fill="#263238"/>
            <path id="Path_608547" data-name="Path 608547" d="M106.233,451.535c-.029.029.009.115.085.192s.161.118.19.089-.009-.115-.085-.192S106.262,451.506,106.233,451.535Z" transform="translate(-12.765 -95.753)" fill="#263238"/>
            <path id="Path_608548" data-name="Path 608548" d="M166.72,205.626c.1-1.02.3-2.4.35-3.029.143-1.932.473-2.362,1.116-2.075,1.046.467-.05,5.4.7,5.47.4.035.946-2.851,1.162-4.275.231-1.523.39-3.584.487-4.319.106-.81,1.484-1,1.434.441-.052,1.486-.123,5.576.224,5.737.956.444.921-5.4,1.149-7.306a2.49,2.49,0,0,1,.263-.93.719.719,0,0,1,1.318.3c.253,1.862-.118,6.891.024,7.706.044.25.669.376.823-.459.207-1.12.115-6.478,1.217-6,1.21.522-.09,6.862.4,7.508.923,1.2,1.027-5.688,2.171-5.388.579.151.566.368-.021,4.047-.27,1.693-1.4,5.362-2.019,8.5,2.655,9.367,7.3,26.911,6.623,32.694-.389,3.315-8.078,5.6-11.375,3.132S167.18,233.9,167.18,233.9l3.963-2.343-3.874-21.223c-.163-.445-.237-1.6-.472-2.15A6.433,6.433,0,0,1,166.72,205.626Z" transform="translate(-27.06 -35.046)" fill="#ffbe9d"/>
            <path id="Path_608549" data-name="Path 608549" d="M174.81,254.078a40.947,40.947,0,0,1-1.286-5.543,40.95,40.95,0,0,1-.9-5.62,40.907,40.907,0,0,1,1.286,5.543A40.778,40.778,0,0,1,174.81,254.078Z" transform="translate(-28.475 -46.385)" fill="#eb996e"/>
            <path id="Path_608550" data-name="Path 608550" d="M162.63,184.168a49.2,49.2,0,0,1,10.152-.41,3.7,3.7,0,0,0-2.051-5.313,3.129,3.129,0,0,1-1.205-.521,2.059,2.059,0,0,1-.272-2.021,3.064,3.064,0,0,0,.091-2.093c-.5-1-1.955-1.019-2.766-1.789-.932-.885-.713-2.384-.891-3.657a5.429,5.429,0,0,0-4.635-4.509" transform="translate(-25.74 -27.675)" fill="#263238"/>
            <path id="Path_608551" data-name="Path 608551" d="M139.4,156.141a9.147,9.147,0,0,0-9.882,4.363c-1.01,1.841-1.525,4.213-3.4,5.153-1.147.573-2.5.43-3.779.55s-2.717.713-3.021,1.96.655,2.8-.2,3.782c-.545.627-1.515.59-2.279.915-1.551.658-1.991,2.671-1.823,4.347s.725,3.373.331,5.011a21.889,21.889,0,0,0,5.209,1.14,7.36,7.36,0,0,0,5.032-1.412,1.869,1.869,0,0,0,.965,1.86,4.693,4.693,0,0,0,2.15.525,21.211,21.211,0,0,0,7.243-.807" transform="translate(-14.838 -25.795)" fill="#263238"/>
            <path id="Path_608552" data-name="Path 608552" d="M153.715,192.216c-.05-3.182-.1-6.331-.1-6.331s5.148-.5,5.514-5.734.181-17.3.181-17.3l-9.316-4.8-9.926,8.034.4,26.447a6.621,6.621,0,0,0,13.237-.318Z" transform="translate(-20.775 -26.302)" fill="#ffbe9d"/>
            <path id="Path_608553" data-name="Path 608553" d="M163.414,175.826a.653.653,0,1,1-.646-.677A.661.661,0,0,1,163.414,175.826Z" transform="translate(-25.99 -30.348)" fill="#263238"/>
            <path id="Path_608554" data-name="Path 608554" d="M163.858,174.833c-.085.085-.563-.34-1.265-.385s-1.234.3-1.305.2c-.036-.044.054-.2.286-.362a1.7,1.7,0,0,1,2.052.15C163.833,174.625,163.9,174.795,163.858,174.833Z" transform="translate(-25.794 -30.077)" fill="#263238"/>
            <path id="Path_608555" data-name="Path 608555" d="M153.507,175.829a.653.653,0,1,1-.646-.677A.661.661,0,0,1,153.507,175.829Z" transform="translate(-23.646 -30.348)" fill="#263238"/>
            <path id="Path_608556" data-name="Path 608556" d="M153.654,174.833c-.085.085-.563-.34-1.265-.385s-1.234.3-1.305.2c-.035-.044.053-.2.286-.362a1.7,1.7,0,0,1,2.051.15C153.63,174.625,153.7,174.795,153.654,174.833Z" transform="translate(-23.379 -30.077)" fill="#263238"/>
            <path id="Path_608557" data-name="Path 608557" d="M157.673,180.854a4.352,4.352,0,0,1,1.15-.143c.18-.008.352-.034.388-.163a1.054,1.054,0,0,0-.095-.578q-.223-.715-.467-1.5a26.946,26.946,0,0,1-1.024-3.908,26.743,26.743,0,0,1,1.315,3.816c.155.526.3,1.027.444,1.507a1.192,1.192,0,0,1,.06.76.448.448,0,0,1-.307.261,1.117,1.117,0,0,1-.307.024A4.317,4.317,0,0,1,157.673,180.854Z" transform="translate(-24.927 -30.209)" fill="#263238"/>
            <path id="Path_608558" data-name="Path 608558" d="M129.853,170.168c.057-.37-.05.4.022-.179v0a20.047,20.047,0,0,1,.337-2.118c2.9-10.885,12.263-12.821,14.111-12.8,1.982.021,7.655-.146,10.811,3.808a10.373,10.373,0,0,1,1.806,10.386l-8.263-1.463c.612-2.058-.23-4.63-.709-5.83l-.047-.046c-1.569,7.818-10,9.573-10,9.573l-.1,11.459C131.689,182.065,129.709,174.7,129.853,170.168Z" transform="translate(-18.355 -25.595)" fill="#263238"/>
            <path id="Path_608559" data-name="Path 608559" d="M139.389,181.487c.05-.785.415-2.666.152-3.407s-1.085-.908-1.992-.9a2.039,2.039,0,0,0-1.959,1.956,2.664,2.664,0,0,0,1.1,2.3,3,3,0,0,0,2.616.146" transform="translate(-19.714 -30.828)" fill="#ffbe9d"/>
            <path id="Path_608560" data-name="Path 608560" d="M138.773,180.805c-.027-.053-.257.057-.586-.054a1.057,1.057,0,0,1-.679-1.021.8.8,0,0,1,.185-.623.71.71,0,0,1,.518-.139c.353.04.6.142.621.082.016-.039-.153-.224-.572-.356a.927.927,0,0,0-.8.131,1.082,1.082,0,0,0-.35.92,1.47,1.47,0,0,0,.327.891,1.088,1.088,0,0,0,.683.387C138.589,181.081,138.81,180.835,138.773,180.805Z" transform="translate(-20.075 -31.178)" fill="#eb996e"/>
            <path id="Path_608561" data-name="Path 608561" d="M157.525,184.722c-.037-.033.131-.234.489-.156a.619.619,0,0,1,.448.439.7.7,0,0,1-.247.742.69.69,0,0,1-.785.005.588.588,0,0,1-.251-.582c.072-.368.344-.426.351-.376.031.047-.095.173-.071.391a.31.31,0,0,0,.166.256.356.356,0,0,0,.354-.015.368.368,0,0,0,.125-.338.354.354,0,0,0-.188-.259C157.723,184.721,157.55,184.773,157.525,184.722Z" transform="translate(-24.821 -32.572)" fill="#263238"/>
            <path id="Path_608562" data-name="Path 608562" d="M153.957,172.3c-.025.114-.795,0-1.7.213-.906.2-1.55.633-1.622.541-.076-.07.523-.7,1.534-.929A2.158,2.158,0,0,1,153.957,172.3Z" transform="translate(-23.274 -29.612)" fill="#263238"/>
            <path id="Path_608563" data-name="Path 608563" d="M147.59,155.114a7.136,7.136,0,0,1-.86,0,7.084,7.084,0,0,0-2.261.442,8.142,8.142,0,0,0-2.854,1.835,10.047,10.047,0,0,0-2.232,3.511,19.624,19.624,0,0,0-1.021,7.568q.052,1.387.087,2.348a3.715,3.715,0,0,1-.008.866,3.585,3.585,0,0,1-.147-.854c-.066-.552-.151-1.353-.214-2.348a25.414,25.414,0,0,1,.01-3.509,14.938,14.938,0,0,1,.921-4.214,10.068,10.068,0,0,1,2.347-3.629,8.085,8.085,0,0,1,3.017-1.837,6.423,6.423,0,0,1,2.356-.331,4.246,4.246,0,0,1,.641.084C147.519,155.078,147.593,155.1,147.59,155.114Z" transform="translate(-20.291 -25.568)" fill="#304c8e"/>
            <path id="Path_608564" data-name="Path 608564" d="M156.18,193.569a3.109,3.109,0,0,1-1.23.229,8.692,8.692,0,0,1-3.005-.347,6.853,6.853,0,0,1-2.656-1.461c-.577-.53-.819-.954-.783-.981s.366.313.963.764a8.139,8.139,0,0,0,2.592,1.3A18.739,18.739,0,0,0,156.18,193.569Z" transform="translate(-22.77 -34.1)" fill="#eb996e"/>
            <path id="Path_608565" data-name="Path 608565" d="M123.449,228.3l6.04.334a30.386,30.386,0,0,0,1.708,4.952,100.367,100.367,0,0,0,9.566-24.287c-.137-.454-.3-.956-.5-1.517a6.438,6.438,0,0,1,.077-2.555c.163-1.011.446-2.372.531-3,.259-1.92.568-2.221,1.238-2,.911.3-.373,5.392.373,5.5.4.06.892-1.687,1.034-3.119s.79-5.84,1.263-6.133c.695-.431,1.3.25,1.124,1.677-.177,1.444-.4,5.75.356,5.808s1.372-7.249,1.372-7.249-.118-1.59.759-1.552c1.581.069.346,7.772.211,8.5-.095.508.727.6.8.05.074-.567.456-7.307,2.066-7.253,1.236.042-.957,6.347-.263,7.809s1.176-4.965,2.356-4.876c.439.034.763.119-.043,3.756a81.993,81.993,0,0,1-2.821,8.524c-1.869,10.084-10.075,42.343-22.939,36.438-7.2-3.3-10.557-19.664-10.557-19.664Z" transform="translate(-15.362 -35.082)" fill="#ffbe9d"/>
            <path id="Path_608566" data-name="Path 608566" d="M153.328,204.038a.391.391,0,0,1-.167-.023.373.373,0,0,1-.263-.4c.016-.433.085-1.064.185-1.88a26.931,26.931,0,0,0,.321-2.973c.009-.584-.005-1.212-.039-1.878a6.411,6.411,0,0,0-.1-1c-.055-.316-.266-.678-.511-.634l-.027,0h-.012c-.248-.011-.442.182-.522.478a2.75,2.75,0,0,0-.092.934v.022a56.527,56.527,0,0,1-.746,5.827c-.056.26-.114.523-.2.788a3.839,3.839,0,0,1-.145.4,1.234,1.234,0,0,1-.118.207.379.379,0,0,1-.292.183.521.521,0,0,1-.439-.366,2.145,2.145,0,0,1-.131-.429,6.622,6.622,0,0,1-.112-.852,25.361,25.361,0,0,1,.046-3.491,7.981,7.981,0,0,0,.073-1.748.968.968,0,0,0-.344-.651.38.38,0,0,0-.3-.038.677.677,0,0,0-.166.072.228.228,0,0,0-.077.1,8.7,8.7,0,0,0-.484,1.754c-.124.618-.231,1.247-.33,1.883s-.189,1.281-.264,1.93a13.512,13.512,0,0,1-.321,1.985,6.835,6.835,0,0,1-.315.986,1.785,1.785,0,0,1-.288.493.414.414,0,0,1-.418.152.445.445,0,0,1-.285-.313,3.441,3.441,0,0,1-.074-1.086c.015-.347.044-.689.073-1.031.05-.588.106-1.169.126-1.742a5.878,5.878,0,0,0-.021-.84,1.33,1.33,0,0,0-.085-.364.319.319,0,0,0-.067-.1c-.011-.011-.018-.006-.027-.018l-.091-.026c-.463-.192-.617.453-.74.972-.108.541-.176,1.1-.284,1.651-.184,1.1-.418,2.192-.541,3.241a3.755,3.755,0,0,0,.061,1.5q.247.757.49,1.5l.015.045-.011.047a80.75,80.75,0,0,1-3.122,10.091c-1.1,2.978-2.209,5.551-3.185,7.656s-1.844,3.73-2.447,4.837l-.726,1.248a3.042,3.042,0,0,1-.269.419,2.969,2.969,0,0,1,.215-.45l.673-1.275c.567-1.124,1.405-2.759,2.345-4.874s2.018-4.691,3.1-7.669a82.879,82.879,0,0,0,3.053-10.056l0,.092q-.242-.73-.489-1.477a4.061,4.061,0,0,1-.086-1.67c.125-1.092.353-2.152.535-3.256.108-.546.174-1.106.286-1.679a3.292,3.292,0,0,1,.285-.864.836.836,0,0,1,.385-.388.854.854,0,0,1,.55-.022l.117.033a.611.611,0,0,1,.159.09.683.683,0,0,1,.176.248,1.7,1.7,0,0,1,.116.476,6.27,6.27,0,0,1,.024.9c-.021.592-.077,1.177-.127,1.763-.029.34-.057.679-.072,1.014a3.244,3.244,0,0,0,.052.938c.018.073.052.06.012.095l0,0c0-.024-.005.035,0,.026v-.007a.051.051,0,0,0,0-.024c0-.006-.019-.031-.01-.032a.113.113,0,0,0,.042-.038,1.473,1.473,0,0,0,.213-.378,6.367,6.367,0,0,0,.3-.927,13.077,13.077,0,0,0,.315-1.934c.078-.656.169-1.3.27-1.944s.21-1.274.337-1.9a8.661,8.661,0,0,1,.531-1.863.625.625,0,0,1,.219-.245,1.06,1.06,0,0,1,.26-.109.759.759,0,0,1,.59.082,1.31,1.31,0,0,1,.516.908,3.3,3.3,0,0,1,.011.956c-.035.3-.063.59-.087.885a25.413,25.413,0,0,0-.063,3.437,6.331,6.331,0,0,0,.1.806,1.816,1.816,0,0,0,.106.361.474.474,0,0,0,.076.131c.025.058.048-.014.045.081-.035-.072,0-.032.026-.092a.99.99,0,0,0,.083-.144,3.607,3.607,0,0,0,.132-.358c.078-.247.137-.5.193-.758a57.993,57.993,0,0,0,.788-5.782v.022a2.994,2.994,0,0,1,.114-1.037,1.052,1.052,0,0,1,.273-.465.721.721,0,0,1,.518-.189l-.039,0a.6.6,0,0,1,.6.289,1.505,1.505,0,0,1,.215.542,6.556,6.556,0,0,1,.093,1.049c.024.671.03,1.3.011,1.893a24.939,24.939,0,0,1-.385,2.987c-.121.811-.212,1.44-.251,1.864a.331.331,0,0,0,.2.366C153.272,204.023,153.33,204.03,153.328,204.038Z" transform="translate(-19.7 -35.041)" fill="#eb996e"/>
            <path id="Path_608567" data-name="Path 608567" d="M339.4,325.511c-11.872-8.294-14.565-23.689-14.1-37.528.078-2.31-.176-4.745.923-6.772s3.663-3.411,5.731-2.438c1.715.808,2.463,2.8,3.423,4.453a13.508,13.508,0,0,0,5.418,5.175c1.471.763,3.291,1.23,4.743.429,1.992-1.1,2.227-3.852,2.213-6.15q-.041-6.424-.08-12.846a21.409,21.409,0,0,1,.693-6.824,7.125,7.125,0,0,1,4.479-4.818c2.186-.612,4.888.648,5.35,2.9a21.242,21.242,0,0,1,.066,2.861,2.417,2.417,0,0,0,1.414,2.275,2.777,2.777,0,0,0,2.523-1.054,30.544,30.544,0,0,0,5.485-8.28,42.363,42.363,0,0,1,5.115-8.544c2.152-2.531,5.128-4.535,8.418-4.721s6.8,1.845,7.627,5.075-1.056,6.525-3.112,9.147a51.273,51.273,0,0,1-10.678,10.178,4.218,4.218,0,0,0-1.786,1.921c-.5,1.532.952,3.053,2.465,3.556,1.712.57,3.571.392,5.362.6s3.732,1,4.41,2.694c.941,2.348-1.023,4.81-2.955,6.422a43.939,43.939,0,0,1-13,7.505,14.815,14.815,0,0,0-4.831,2.348c-1.363,1.188-2.185,3.253-1.362,4.87s2.937,2.138,4.708,1.809a30.636,30.636,0,0,0,5.042-1.926c3.157-1.192,7.234-.974,9.257,1.754a7.271,7.271,0,0,1,.774,6.429,16.746,16.746,0,0,1-3.483,5.678,44.176,44.176,0,0,1-18.863,13.256C353.461,327.485,346.674,328.173,339.4,325.511Z" transform="translate(-64.598 -46.55)" fill="#60cb28"/>
            <path id="Path_608568" data-name="Path 608568" d="M343.543,336.37a100.879,100.879,0,0,1,3.754-18.935,205.873,205.873,0,0,1,8.172-22.165l2.44-5.7c.805-1.869,1.6-3.722,2.5-5.487a102.81,102.81,0,0,1,5.713-9.846c1.969-3.043,3.947-5.86,5.817-8.48s3.671-5.024,5.4-7.147a81.529,81.529,0,0,1,8.9-9.4c1.133-1.024,2.038-1.79,2.659-2.3l.709-.576a1.752,1.752,0,0,1,.25-.185,1.562,1.562,0,0,1-.223.218l-.682.608c-.6.531-1.489,1.317-2.6,2.358a86.354,86.354,0,0,0-8.775,9.472c-1.71,2.13-3.486,4.54-5.346,7.162s-3.821,5.447-5.776,8.488a104.049,104.049,0,0,0-5.669,9.819c-.885,1.756-1.675,3.594-2.481,5.468l-2.437,5.7a210.952,210.952,0,0,0-8.188,22.109A102.6,102.6,0,0,0,343.84,336.4" transform="translate(-68.927 -47.149)" fill="#263238"/>
            <path id="Path_608569" data-name="Path 608569" d="M364.75,287.988a4.643,4.643,0,0,1-.224-.98c-.121-.635-.265-1.559-.426-2.7-.325-2.288-.666-5.462-1.028-8.963s-.747-6.663-1.106-8.94c-.176-1.138-.328-2.059-.441-2.693a4.535,4.535,0,0,1-.128-1,4.58,4.58,0,0,1,.289.963c.163.625.36,1.54.574,2.676.436,2.271.869,5.44,1.232,8.946.349,3.456.664,6.582.905,8.971.115,1.079.214,1.987.292,2.717A4.534,4.534,0,0,1,364.75,287.988Z" transform="translate(-73.15 -51.069)" fill="#263238"/>
            <path id="Path_608570" data-name="Path 608570" d="M395.33,288.583a6.438,6.438,0,0,1-1.178.141c-.758.068-1.855.159-3.207.316-2.705.292-6.428.826-10.511,1.6s-7.746,1.637-10.378,2.336c-1.319.34-2.379.644-3.113.85a6.4,6.4,0,0,1-1.153.283,6.315,6.315,0,0,1,1.1-.442c.721-.254,1.77-.6,3.083-.982,2.619-.776,6.285-1.685,10.379-2.465a104.132,104.132,0,0,1,10.56-1.476c1.359-.118,2.464-.165,3.227-.181A6.275,6.275,0,0,1,395.33,288.583Z" transform="translate(-74.192 -57.185)" fill="#263238"/>
            <path id="Path_608571" data-name="Path 608571" d="M344.325,327.129a1.49,1.49,0,0,1-.2-.36l-.505-1.069c-.434-.93-1.028-2.292-1.74-3.984-1.425-3.384-3.247-8.12-5.185-13.373s-3.715-10-5.068-13.41c-.663-1.657-1.208-3.02-1.614-4.033-.173-.44-.316-.8-.433-1.1a1.491,1.491,0,0,1-.124-.4,1.525,1.525,0,0,1,.2.361l.505,1.068c.434.93,1.028,2.292,1.74,3.984,1.425,3.384,3.246,8.12,5.186,13.375s3.715,10,5.067,13.409c.663,1.656,1.208,3.02,1.614,4.032l.433,1.1A1.513,1.513,0,0,1,344.325,327.129Z" transform="translate(-65.592 -57.386)" fill="#263238"/>
            <path id="Path_608572" data-name="Path 608572" d="M388.189,322.25a1.588,1.588,0,0,1-.389.16l-1.14.382-4.2,1.362c-3.549,1.151-8.432,2.8-13.826,4.623s-10.3,3.43-13.872,4.508c-1.787.54-3.237.961-4.244,1.232l-1.163.305a1.5,1.5,0,0,1-.414.078,1.6,1.6,0,0,1,.389-.161l1.14-.381,4.2-1.362c3.549-1.15,8.433-2.8,13.828-4.624s10.3-3.429,13.87-4.507c1.787-.54,3.237-.961,4.246-1.232l1.163-.305A1.574,1.574,0,0,1,388.189,322.25Z" transform="translate(-70.204 -65.158)" fill="#263238"/>
            <path id="Path_608573" data-name="Path 608573" d="M294.327,320.527l-82.353-.381a17.939,17.939,0,0,1-17.856-18.015l.873-206.462A17.94,17.94,0,0,1,213.012,77.8l82.354.38A17.94,17.94,0,0,1,313.222,96.2l-.872,206.463A17.94,17.94,0,0,1,294.327,320.527Z" transform="translate(-33.565 -7.311)" fill="#263238"/>
            <path id="Path_608574" data-name="Path 608574" d="M296.944,86.986l-15.967-.073a3.965,3.965,0,0,0-3.894,4.035l-.013,2.9a3.966,3.966,0,0,1-3.894,4.035l-31.123-.144a3.971,3.971,0,0,1-3.86-4.071l.012-2.9a3.971,3.971,0,0,0-3.86-4.071l-5.615-.026-13.975-.064a12.564,12.564,0,0,0-12.621,12.511l-.852,201.522a12.564,12.564,0,0,0,12.505,12.617l82.189.379a12.564,12.564,0,0,0,12.621-12.51L309.449,99.6A12.564,12.564,0,0,0,296.944,86.986Z" transform="translate(-25.261 -0.394)" fill="#fafafa"/>
            <path id="Path_608575" data-name="Path 608575" d="M251.841,179.822l-20.528,47.02a8.874,8.874,0,0,0,9.027,12.381c14.262-1.447,35.633-3.65,50.445-5.18a9.432,9.432,0,0,0,6.5-15.143l-31.458-40.8A8.186,8.186,0,0,0,251.841,179.822Z" transform="translate(-42.189 -30.291)" fill="#ffe126"/>
            <g id="Group_1071467" data-name="Group 1071467" transform="translate(191.012 148.026)" opacity="0.5">
              <path id="Path_608576" data-name="Path 608576" d="M253.717,184.038a1.476,1.476,0,0,1,.169-.46c.069-.147.143-.337.259-.547l.46-.7c.186-.258.439-.514.7-.814a8.514,8.514,0,0,1,1-.818,7.222,7.222,0,0,1,2.992-1.211,7.728,7.728,0,0,1,4.037.389,7.837,7.837,0,0,1,2.024,1.195l.474.4c.146.148.283.309.427.466.3.315.544.643.807.976l7.092,9.054,18.381,23.63,2.618,3.388a8.969,8.969,0,0,1,1.769,4.263,9.056,9.056,0,0,1-8.117,10.245l-4.689.486-9.578.986-18.888,1.927-8.982.908-2.189.221-1.086.108-1.158.037a8.361,8.361,0,0,1-4.315-1.357,8.62,8.62,0,0,1-3.9-7.446c.035-.354.034-.711.1-1.058s.14-.691.229-1.028l.356-.981c.125-.313.261-.6.39-.9l1.543-3.5,5.644-12.746c3.46-7.788,6.277-14.083,8.249-18.422l2.3-4.985a11.536,11.536,0,0,1,.878-1.706,11.6,11.6,0,0,1-.656,1.8l-2.093,5.074c-1.841,4.4-4.542,10.742-7.9,18.574l-5.511,12.8-1.514,3.508c-.125.3-.265.6-.379.892l-.308.868c-.075.3-.127.6-.194.9s-.051.617-.082.926a7.557,7.557,0,0,0,3.447,6.492,7.254,7.254,0,0,0,3.753,1.16l1.011-.037,1.085-.113,2.189-.229,8.978-.937,18.884-1.951L284,232.8l4.689-.478A7.9,7.9,0,0,0,295.8,223.4a7.849,7.849,0,0,0-1.534-3.736l-2.6-3.393L273.491,192.48l-6.953-9.162c-.256-.337-.5-.679-.763-.961-.129-.147-.252-.3-.383-.437l-.428-.376a6.913,6.913,0,0,0-5.594-1.6,6.991,6.991,0,0,0-2.869,1.049,8.7,8.7,0,0,0-1,.738c-.26.276-.517.508-.712.746l-.494.65c-.13.2-.22.373-.305.508C253.83,183.908,253.735,184.046,253.717,184.038Z" transform="translate(-234.02 -179.373)" fill="#fff"/>
            </g>
            <path id="Path_608577" data-name="Path 608577" d="M264.121,198.532l3.064,18.739a3.075,3.075,0,0,0,6.109-.462l.214-19.159a2.413,2.413,0,0,0-2.684-2.424l-4.593.521A2.412,2.412,0,0,0,264.121,198.532Z" transform="translate(-50.124 -35.095)" fill="#304c8e" opacity="0.5"/>
            <path id="Path_608578" data-name="Path 608578" d="M276.858,238.03a4.625,4.625,0,1,1-3.494-5.528A4.625,4.625,0,0,1,276.858,238.03Z" transform="translate(-50.984 -43.893)" fill="#304c8e" opacity="0.5"/>
            <path id="Path_608579" data-name="Path 608579" d="M224.728,166.506l-15.286,13.979a3.583,3.583,0,0,0,1.3,6.048c5.5,1.806,13.744,4.5,19.46,6.363a3.808,3.808,0,0,0,4.881-4.521l-4.913-20.213A3.3,3.3,0,0,0,224.728,166.506Z" transform="translate(-36.916 -28.096)" fill="#ffe126"/>
            <g id="Group_1071468" data-name="Group 1071468" transform="translate(172.327 138.766)" opacity="0.5">
              <path id="Path_608580" data-name="Path 608580" d="M224.9,168.225c-.018-.015.128-.262.575-.549a2.984,2.984,0,0,1,2.267-.35,3.251,3.251,0,0,1,1.511.821,3.618,3.618,0,0,1,.95,1.8c.35,1.327.746,2.831,1.182,4.492.85,3.345,1.86,7.312,2.979,11.714l.417,1.681a3.962,3.962,0,0,1-.046,2.035,4,4,0,0,1-5.11,2.686l-1.81-.588-3.7-1.205-7.282-2.394-3.46-1.147-.843-.28-.418-.14-.473-.194a3.7,3.7,0,0,1-1.5-1.331,3.8,3.8,0,0,1-.224-3.7,4.125,4.125,0,0,1,.51-.779l.319-.328.3-.268,1.149-1.03,4.2-3.744c2.576-2.282,4.673-4.114,6.141-5.359a14.4,14.4,0,0,1,2.363-1.847,14.408,14.408,0,0,1-2.048,2.188c-1.372,1.351-3.383,3.278-5.885,5.64l-4.1,3.852-1.128,1.053-.282.266-.229.245a3.1,3.1,0,0,0-.356.567,2.735,2.735,0,0,0,.2,2.645,2.6,2.6,0,0,0,1.065.922l.339.134.419.134.846.272,3.469,1.119,7.288,2.371,3.694,1.211,1.808.595a2.846,2.846,0,0,0,3.651-1.888,2.837,2.837,0,0,0,.047-1.458l-.394-1.676-2.731-11.775c-.374-1.675-.712-3.194-1.011-4.533a3.053,3.053,0,0,0-.709-1.565,2.825,2.825,0,0,0-1.224-.769,2.906,2.906,0,0,0-2.034.114C225.14,168.086,224.937,168.269,224.9,168.225Z" transform="translate(-209.542 -167.243)" fill="#fff"/>
            </g>
            <path id="Path_608581" data-name="Path 608581" d="M228.326,174.2l-1.943,7.416a1.241,1.241,0,0,0,2.33.831l3.221-7.033a.973.973,0,0,0-.592-1.334l-1.78-.561A.974.974,0,0,0,228.326,174.2Z" transform="translate(-41.191 -29.951)" fill="#304c8e" opacity="0.5"/>
            <path id="Path_608582" data-name="Path 608582" d="M227.041,190.893a1.867,1.867,0,1,1-.382-2.613A1.867,1.867,0,0,1,227.041,190.893Z" transform="translate(-40.56 -33.368)" fill="#304c8e" opacity="0.5"/>
            <path id="Path_608583" data-name="Path 608583" d="M305.573,171.827l-3.468,15.805a2.8,2.8,0,0,0,3.552,3.276c4.324-1.322,10.8-3.314,15.288-4.7a2.975,2.975,0,0,0,1.082-5.083l-12.234-10.694A2.581,2.581,0,0,0,305.573,171.827Z" transform="translate(-59.105 -29.081)" fill="#ffe126"/>
            <g id="Group_1071469" data-name="Group 1071469" transform="translate(243.289 141.561)" opacity="0.5">
              <path id="Path_608584" data-name="Path 608584" d="M306.2,173c-.027,0-.053-.229.1-.621a2.342,2.342,0,0,1,1.3-1.279,2.582,2.582,0,0,1,1.363-.169,2.9,2.9,0,0,1,1.455.731l2.789,2.321L320.4,180.1l1.025.885a3.215,3.215,0,0,1,.923,1.371,3.25,3.25,0,0,1-2.134,4.178l-1.42.44-2.9.895-5.727,1.747-2.726.822-.665.2-.33.1-.405.092a3.013,3.013,0,0,1-1.62-.184,3.083,3.083,0,0,1-1.878-2.356,3.336,3.336,0,0,1-.024-.755l.058-.366.069-.305.273-1.174c.363-1.535.7-2.967,1.013-4.279.629-2.614,1.157-4.724,1.55-6.177A8.893,8.893,0,0,1,306.2,173a8.95,8.95,0,0,1-.273,2.33c-.253,1.483-.656,3.621-1.179,6.259-.267,1.321-.559,2.763-.871,4.31q-.119.581-.243,1.181l-.06.3-.034.247a2.283,2.283,0,0,0,.028.494,2.019,2.019,0,0,0,1.249,1.506,1.907,1.907,0,0,0,1.03.1l.261-.063.328-.1.662-.208,2.717-.85,5.72-1.769,2.9-.889,1.422-.433a2.1,2.1,0,0,0,1.4-2.685,2.089,2.089,0,0,0-.589-.9l-1-.894-7.024-6.31-2.673-2.453a2.109,2.109,0,0,0-2.22-.627,2.26,2.26,0,0,0-1.241.953C306.312,172.809,306.256,173.015,306.2,173Z" transform="translate(-302.503 -170.904)" fill="#fff"/>
            </g>
            <path id="Path_608585" data-name="Path 608585" d="M309.532,177.287l2.1,5.609a.97.97,0,0,0,1.862-.518l-1.109-5.94a.761.761,0,0,0-.979-.585l-1.389.443A.761.761,0,0,0,309.532,177.287Z" transform="translate(-60.867 -30.505)" fill="#304c8e" opacity="0.5"/>
            <path id="Path_608586" data-name="Path 608586" d="M315.922,188.767a1.458,1.458,0,1,1-1.42-1.5A1.458,1.458,0,0,1,315.922,188.767Z" transform="translate(-61.7 -33.216)" fill="#304c8e" opacity="0.5"/>
            <path id="Path_608587" data-name="Path 608587" d="M220.228,258.8c-.02.019-.21-.157-.538-.495a6.33,6.33,0,0,1-.568-.641,10.734,10.734,0,0,1-.688-.9,16.105,16.105,0,0,1-1.466-2.571,17.02,17.02,0,0,1-1.521-7.053,16.064,16.064,0,0,1,.276-2.947,10.944,10.944,0,0,1,.254-1.108,6.437,6.437,0,0,1,.253-.818,2.614,2.614,0,0,1,.286-.672c.073.024-.273,1-.517,2.643a18.177,18.177,0,0,0-.188,2.9,18.112,18.112,0,0,0,1.489,6.908,18.2,18.2,0,0,0,1.364,2.563C219.567,258,220.285,258.752,220.228,258.8Z" transform="translate(-38.613 -46.072)" fill="#263238"/>
            <path id="Path_608588" data-name="Path 608588" d="M228.238,260.025a2.867,2.867,0,0,1-.653-.414,6.343,6.343,0,0,1-.713-.561,10.919,10.919,0,0,1-.884-.817,15.9,15.9,0,0,1-1.979-2.43,16.932,16.932,0,0,1-2.672-7.15,15.9,15.9,0,0,1-.1-3.133,10.8,10.8,0,0,1,.131-1.2,6.407,6.407,0,0,1,.17-.891,2.871,2.871,0,0,1,.221-.74c.078.016-.186,1.086-.243,2.841a17.682,17.682,0,0,0,.181,3.069,17.858,17.858,0,0,0,2.617,7,17.63,17.63,0,0,0,1.876,2.435C227.385,259.326,228.286,259.961,228.238,260.025Z" transform="translate(-39.974 -46.332)" fill="#263238"/>
            <path id="Path_608589" data-name="Path 608589" d="M323.428,248.255c-.066-.035.528-1.1,1.2-2.933a25.608,25.608,0,0,0,.954-3.287,25.075,25.075,0,0,0,.4-8.332,25.455,25.455,0,0,0-.635-3.363c-.5-1.889-.985-3.005-.915-3.034a3.54,3.54,0,0,1,.389.763,16.991,16.991,0,0,1,.8,2.2,22.373,22.373,0,0,1,.728,3.392,23.421,23.421,0,0,1-.406,8.459,22.362,22.362,0,0,1-1.049,3.307,16.946,16.946,0,0,1-1,2.109A3.568,3.568,0,0,1,323.428,248.255Z" transform="translate(-64.166 -42.691)" fill="#263238"/>
            <path id="Path_608590" data-name="Path 608590" d="M331.418,247.446c-.065-.034.411-.9.921-2.4a18.848,18.848,0,0,0,.689-2.688,18.52,18.52,0,0,0-.049-6.756,18.81,18.81,0,0,0-.727-2.678c-.531-1.492-1.02-2.355-.956-2.391a2.369,2.369,0,0,1,.391.579,12.166,12.166,0,0,1,.828,1.713,16.247,16.247,0,0,1,.823,2.705,17.227,17.227,0,0,1,.05,6.9,16.278,16.278,0,0,1-.784,2.716,12.165,12.165,0,0,1-.8,1.724A2.351,2.351,0,0,1,331.418,247.446Z" transform="translate(-66.027 -43.453)" fill="#263238"/>
            <path id="Path_608591" data-name="Path 608591" d="M300.707,302.764H221.335a3.225,3.225,0,0,1-3.225-3.225V283.756a3.225,3.225,0,0,1,3.225-3.225h79.371a3.226,3.226,0,0,1,3.225,3.225v15.783A3.225,3.225,0,0,1,300.707,302.764Z" transform="translate(-39.243 -55.286)" fill="none" stroke="#304c8e" stroke-miterlimit="10" stroke-width="1"/>
            <path id="Path_608593" data-name="Path 608593" d="M306.95,132.015H206.028v13.863H306.95Z" transform="translate(-36.384 -20.14)" fill="#304c8e"/>
            <path id="Path_608594" data-name="Path 608594" d="M213.586,142.572a1.9,1.9,0,1,0-1.9-1.9A1.9,1.9,0,0,0,213.586,142.572Z" transform="translate(-37.723 -21.739)" fill="#f5f5f5"/>
            <path id="Path_608595" data-name="Path 608595" d="M223.792,142.572a1.9,1.9,0,1,0-1.9-1.9A1.9,1.9,0,0,0,223.792,142.572Z" transform="translate(-40.138 -21.739)" fill="#f5f5f5"/>
            <path id="Path_608596" data-name="Path 608596" d="M235.9,140.672a1.9,1.9,0,1,1-1.9-1.9A1.9,1.9,0,0,1,235.9,140.672Z" transform="translate(-42.553 -21.739)" fill="#f5f5f5"/>
            <path id="Path_608597" data-name="Path 608597" d="M115.988,152.422l-11.969-2.941.088-.014a19.891,19.891,0,0,1-10.331,3.1,21.613,21.613,0,0,1-6.4-.935,19.779,19.779,0,0,1-6.239-3.308,20.054,20.054,0,0,1-7.549-13.339A19.806,19.806,0,0,1,78.729,119a20.769,20.769,0,0,1,3.466-3.02c.647-.4,1.285-.815,1.952-1.166l1.018-.49.508-.244.528-.193a20.192,20.192,0,0,1,8.605-1.311,19.922,19.922,0,0,1,17.563,13.41,20.645,20.645,0,0,1,1.106,6.462,19.84,19.84,0,0,1-2.867,10.368l0-.108c3.327,6.006,5.008,9.04,5.379,9.71l-5.567-9.6-.031-.053.033-.055a19.718,19.718,0,0,0,2.762-10.256,20.419,20.419,0,0,0-1.119-6.358,19.608,19.608,0,0,0-17.285-13.132,19.836,19.836,0,0,0-8.437,1.294l-.517.189-.5.24-1,.481c-.653.344-1.279.753-1.913,1.143a20.423,20.423,0,0,0-3.4,2.962,19.652,19.652,0,0,0,2.33,28.774,19.5,19.5,0,0,0,6.122,3.273,21.387,21.387,0,0,0,6.3.949,19.743,19.743,0,0,0,10.215-2.992l.042-.026.047.012Z" transform="translate(-5.006 -15.53)" fill="#263238"/>
            <path id="Path_608598" data-name="Path 608598" d="M97.508,126.692l.633,10a1.622,1.622,0,0,0,3.231.076l1.11-10.048A1.273,1.273,0,0,0,101.2,125.3l-2.439.034A1.274,1.274,0,0,0,97.508,126.692Z" transform="translate(-10.702 -18.552)" fill="#ffe126"/>
            <path id="Path_608599" data-name="Path 608599" d="M102.329,148.578a2.44,2.44,0,1,1-1.547-3.085A2.44,2.44,0,0,1,102.329,148.578Z" transform="translate(-10.718 -23.3)" fill="#ffe126"/>
            <g id="Group_1073115" data-name="Group 1073115" transform="translate(-1.215)">
              <path id="Path_608592" data-name="Path 608592" d="M255.9,296.557h-.846l2.447-6.662h.832l2.447,6.662h-.846l-1.991-5.608H257.9Zm.312-2.6h3.409v.715h-3.409Zm5.6,2.6V289.9h.807v5.946h3.1v.715Zm5.153,0V289.9h4.02v.715h-3.214v2.251h3.006v.716h-3.006v2.264h3.266v.715Zm5.475,0V289.9H274.7a2.713,2.713,0,0,1,1.282.266,1.7,1.7,0,0,1,.742.726,2.24,2.24,0,0,1,.24,1.05,2.2,2.2,0,0,1-.24,1.044,1.7,1.7,0,0,1-.739.715,2.757,2.757,0,0,1-1.272.257h-1.821v-.729h1.8a2,2,0,0,0,.859-.156.986.986,0,0,0,.475-.443,1.479,1.479,0,0,0,.15-.689,1.542,1.542,0,0,0-.15-.7,1.015,1.015,0,0,0-.478-.462,1.935,1.935,0,0,0-.869-.166h-1.418v5.946Zm3.136-2.992,1.64,2.992h-.937l-1.614-2.992Zm2.359-2.954V289.9h5v.715h-2.095v5.946h-.807V290.61Z" transform="translate(-47.987 -57.502)" fill="#304c8e"/>
              <path id="Path_613379" data-name="Path 613379" d="M255.9,296.557h-.846l2.447-6.662h.832l2.447,6.662h-.846l-1.991-5.608H257.9Zm.312-2.6h3.409v.715h-3.409Z" transform="translate(-19.987 -57.502)" fill="#304c8e"/>
            </g>
          </g>
          <path id="Path_612572" data-name="Path 612572" d="M-7327.763-10793.873h67.928" transform="translate(7917 11687)" fill="none" stroke="#304c8e" stroke-width="2" stroke-dasharray="4"/>
          <path id="Path_612573" data-name="Path 612573" d="M-7327.763-10793.873h67.928" transform="translate(7917 11517.127)" fill="none" stroke="#304c8e" stroke-width="2" stroke-dasharray="4"/>
          <path id="Path_612574" data-name="Path 612574" d="M-7327.763-10793.873h67.928" transform="translate(8298 11594.127)" fill="none" stroke="#304c8e" stroke-width="2" stroke-dasharray="4"/>
          <path id="Path_613383" data-name="Path 613383" d="M9,0H221a9,9,0,0,1,9,9V28a9,9,0,0,1-9,9H9a9,9,0,0,1-9-9V9A9,9,0,0,1,9,0Z" transform="translate(370 705)" fill="#ffe126"/>
          <path id="Path_613384" data-name="Path 613384" d="M0,0H55V4H0Z" transform="translate(458 742)" fill="#304c8e"/>
          <path id="Path_613385" data-name="Path 613385" d="M7.994,13.186H3.312L2.333,16H.149L4.715,3.914H6.6L11.173,16H8.981ZM3.9,11.493H7.4L5.653,6.479Zm9.919-4.474.058,1.038a3.229,3.229,0,0,1,2.615-1.2q2.806,0,2.855,3.212V16H17.332V10.181a1.85,1.85,0,0,0-.369-1.266A1.554,1.554,0,0,0,15.755,8.5a1.944,1.944,0,0,0-1.818,1.1V16H11.92V7.019ZM26.77,16a3.113,3.113,0,0,1-.232-.838,3.393,3.393,0,0,1-4.565.232,2.47,2.47,0,0,1-.855-1.909,2.55,2.55,0,0,1,1.067-2.2,5.169,5.169,0,0,1,3.051-.768h1.237V9.924a1.573,1.573,0,0,0-.39-1.116,1.547,1.547,0,0,0-1.187-.419,1.777,1.777,0,0,0-1.129.344,1.066,1.066,0,0,0-.44.876H21.308a2.239,2.239,0,0,1,.49-1.382A3.263,3.263,0,0,1,23.13,7.218a4.68,4.68,0,0,1,1.88-.365,3.769,3.769,0,0,1,2.515.793,2.827,2.827,0,0,1,.963,2.229v4.051a4.591,4.591,0,0,0,.34,1.934V16Zm-2.216-1.453a2.294,2.294,0,0,0,1.125-.291,1.941,1.941,0,0,0,.793-.78V11.783H25.384a2.973,2.973,0,0,0-1.685.39,1.264,1.264,0,0,0-.564,1.1,1.179,1.179,0,0,0,.386.926A1.5,1.5,0,0,0,24.554,14.547Zm1.121-11.3h2.3l-2.3,2.515-1.619,0ZM32.747,16H30.729V3.25h2.017Zm4.341,0H35.071V7.019h2.017ZM34.946,4.686a1.071,1.071,0,0,1,.295-.772,1.113,1.113,0,0,1,.843-.307,1.127,1.127,0,0,1,.847.307,1.062,1.062,0,0,1,.3.772,1.038,1.038,0,0,1-.3.76,1.136,1.136,0,0,1-.847.3,1.122,1.122,0,0,1-.843-.3A1.046,1.046,0,0,1,34.946,4.686Zm9.372,8.874a.914.914,0,0,0-.444-.822,4.723,4.723,0,0,0-1.473-.5,7.574,7.574,0,0,1-1.718-.548,2.293,2.293,0,0,1-1.511-2.117,2.391,2.391,0,0,1,.979-1.942,3.872,3.872,0,0,1,2.49-.78,4.029,4.029,0,0,1,2.6.8,2.529,2.529,0,0,1,.992,2.067H44.218a1.243,1.243,0,0,0-.432-.967,1.654,1.654,0,0,0-1.146-.386,1.787,1.787,0,0,0-1.083.307.968.968,0,0,0-.419.822.818.818,0,0,0,.39.722,5.365,5.365,0,0,0,1.577.519,7.466,7.466,0,0,1,1.864.623,2.639,2.639,0,0,1,1,.867,2.212,2.212,0,0,1,.328,1.229,2.34,2.34,0,0,1-1,1.963,4.283,4.283,0,0,1-2.631.751,4.644,4.644,0,0,1-1.967-.4,3.238,3.238,0,0,1-1.345-1.1,2.594,2.594,0,0,1-.481-1.5h1.959a1.421,1.421,0,0,0,.54,1.1,2.1,2.1,0,0,0,1.32.386,2.04,2.04,0,0,0,1.212-.3A.938.938,0,0,0,44.318,13.56ZM50.2,16H48.186V7.019H50.2ZM48.062,4.686a1.071,1.071,0,0,1,.295-.772,1.113,1.113,0,0,1,.843-.307,1.127,1.127,0,0,1,.847.307,1.062,1.062,0,0,1,.3.772,1.038,1.038,0,0,1-.3.76,1.136,1.136,0,0,1-.847.3,1.122,1.122,0,0,1-.843-.3A1.046,1.046,0,0,1,48.062,4.686Zm9.372,8.874a.914.914,0,0,0-.444-.822,4.723,4.723,0,0,0-1.473-.5,7.574,7.574,0,0,1-1.718-.548,2.293,2.293,0,0,1-1.511-2.117,2.391,2.391,0,0,1,.979-1.942,3.872,3.872,0,0,1,2.49-.78,4.029,4.029,0,0,1,2.6.8,2.529,2.529,0,0,1,.992,2.067H57.333a1.243,1.243,0,0,0-.432-.967,1.654,1.654,0,0,0-1.146-.386,1.787,1.787,0,0,0-1.083.307.968.968,0,0,0-.419.822.818.818,0,0,0,.39.722,5.365,5.365,0,0,0,1.577.519,7.466,7.466,0,0,1,1.864.623,2.639,2.639,0,0,1,1,.867,2.212,2.212,0,0,1,.328,1.229,2.34,2.34,0,0,1-1,1.963,4.283,4.283,0,0,1-2.631.751,4.644,4.644,0,0,1-1.967-.4,3.238,3.238,0,0,1-1.345-1.1,2.594,2.594,0,0,1-.481-1.5h1.959a1.421,1.421,0,0,0,.54,1.1,2.1,2.1,0,0,0,1.32.386,2.04,2.04,0,0,0,1.212-.3A.938.938,0,0,0,57.433,13.56Zm7.6-2.117a5.34,5.34,0,0,1,.963-3.333,3.085,3.085,0,0,1,2.582-1.258,2.931,2.931,0,0,1,2.308,1V3.25H72.9V16H71.071l-.1-.93a2.973,2.973,0,0,1-2.416,1.1A3.068,3.068,0,0,1,66,14.9,5.535,5.535,0,0,1,65.028,11.443Zm2.017.174a3.739,3.739,0,0,0,.527,2.137,1.71,1.71,0,0,0,1.5.768,1.9,1.9,0,0,0,1.81-1.1V9.583A1.876,1.876,0,0,0,69.087,8.5a1.723,1.723,0,0,0-1.511.776A4.163,4.163,0,0,0,67.045,11.617Zm11.912,4.549a4.173,4.173,0,0,1-3.109-1.208,4.381,4.381,0,0,1-1.191-3.217v-.249a5.389,5.389,0,0,1,.519-2.4,3.949,3.949,0,0,1,1.457-1.648,3.851,3.851,0,0,1,2.092-.589,3.525,3.525,0,0,1,2.835,1.17,4.949,4.949,0,0,1,1,3.312v.813H76.691a2.7,2.7,0,0,0,.743,1.76,2.23,2.23,0,0,0,1.639.647,2.731,2.731,0,0,0,2.258-1.121l1.087,1.038a3.631,3.631,0,0,1-1.44,1.249A4.509,4.509,0,0,1,78.957,16.166Zm-.241-7.695a1.7,1.7,0,0,0-1.341.581,3.012,3.012,0,0,0-.652,1.619h3.843v-.149a2.452,2.452,0,0,0-.54-1.531A1.686,1.686,0,0,0,78.716,8.471Zm14.344.39a4.991,4.991,0,0,0-.822-.066,1.85,1.85,0,0,0-1.868,1.063V16H88.354V7.019h1.926l.05,1a2.273,2.273,0,0,1,2.025-1.17,1.888,1.888,0,0,1,.714.116ZM96.48,16H94.463V7.019H96.48ZM94.338,4.686a1.071,1.071,0,0,1,.295-.772,1.113,1.113,0,0,1,.843-.307,1.127,1.127,0,0,1,.847.307,1.062,1.062,0,0,1,.3.772,1.038,1.038,0,0,1-.3.76,1.136,1.136,0,0,1-.847.3,1.122,1.122,0,0,1-.843-.3A1.046,1.046,0,0,1,94.338,4.686Zm8.292,11.48a4.173,4.173,0,0,1-3.109-1.208,4.381,4.381,0,0,1-1.191-3.217v-.249a5.389,5.389,0,0,1,.519-2.4,3.949,3.949,0,0,1,1.457-1.648,3.851,3.851,0,0,1,2.092-.589,3.525,3.525,0,0,1,2.835,1.17,4.949,4.949,0,0,1,1,3.312v.813h-5.869a2.7,2.7,0,0,0,.743,1.76,2.23,2.23,0,0,0,1.639.647A2.731,2.731,0,0,0,105,13.435l1.087,1.038a3.631,3.631,0,0,1-1.44,1.249A4.509,4.509,0,0,1,102.631,16.166Zm-.241-7.695a1.7,1.7,0,0,0-1.341.581,3.012,3.012,0,0,0-.652,1.619h3.843v-.149a2.452,2.452,0,0,0-.54-1.531A1.686,1.686,0,0,0,102.39,8.471Zm10.442,5.088a.914.914,0,0,0-.444-.822,4.723,4.723,0,0,0-1.473-.5,7.574,7.574,0,0,1-1.718-.548,2.293,2.293,0,0,1-1.511-2.117,2.391,2.391,0,0,1,.979-1.942,3.872,3.872,0,0,1,2.49-.78,4.029,4.029,0,0,1,2.6.8,2.529,2.529,0,0,1,.992,2.067h-2.017a1.243,1.243,0,0,0-.432-.967,1.654,1.654,0,0,0-1.146-.386,1.787,1.787,0,0,0-1.083.307.968.968,0,0,0-.419.822.818.818,0,0,0,.39.722,5.365,5.365,0,0,0,1.577.519,7.466,7.466,0,0,1,1.864.623,2.639,2.639,0,0,1,1,.867,2.212,2.212,0,0,1,.328,1.229,2.34,2.34,0,0,1-1,1.963,4.283,4.283,0,0,1-2.631.751,4.644,4.644,0,0,1-1.967-.4,3.238,3.238,0,0,1-1.345-1.1,2.594,2.594,0,0,1-.481-1.5h1.959a1.421,1.421,0,0,0,.54,1.1,2.1,2.1,0,0,0,1.32.386,2.04,2.04,0,0,0,1.212-.3A.938.938,0,0,0,112.833,13.56Zm3.387-2.117A5.253,5.253,0,0,1,117.2,8.1a3.157,3.157,0,0,1,2.611-1.249,2.958,2.958,0,0,1,2.416,1.071l.091-.9h1.818v8.708a3.619,3.619,0,0,1-1.1,2.789,4.189,4.189,0,0,1-2.968,1.021,4.783,4.783,0,0,1-1.93-.411,3.429,3.429,0,0,1-1.432-1.075l.955-1.212a2.883,2.883,0,0,0,2.291,1.1,2.228,2.228,0,0,0,1.585-.544,2.084,2.084,0,0,0,.581-1.6v-.606a2.97,2.97,0,0,1-2.324.971,3.15,3.15,0,0,1-2.577-1.253A5.423,5.423,0,0,1,116.219,11.443Zm2.009.174a3.616,3.616,0,0,0,.552,2.129,1.775,1.775,0,0,0,1.531.776,1.941,1.941,0,0,0,1.81-1.046V9.525A1.913,1.913,0,0,0,120.328,8.5a1.782,1.782,0,0,0-1.548.789A4.049,4.049,0,0,0,118.228,11.617Zm7.6-.191a5.3,5.3,0,0,1,.523-2.378,3.819,3.819,0,0,1,1.469-1.627A4.14,4.14,0,0,1,130,6.853a3.923,3.923,0,0,1,2.951,1.17,4.6,4.6,0,0,1,1.224,3.1l.008.473a5.343,5.343,0,0,1-.51,2.374,3.773,3.773,0,0,1-1.461,1.619,4.17,4.17,0,0,1-2.2.573,3.9,3.9,0,0,1-3.042-1.266,4.848,4.848,0,0,1-1.141-3.374Zm2.017.174a3.619,3.619,0,0,0,.573,2.171,1.862,1.862,0,0,0,1.594.784,1.842,1.842,0,0,0,1.59-.8,4,4,0,0,0,.569-2.333,3.572,3.572,0,0,0-.585-2.158,1.973,1.973,0,0,0-3.158-.012A3.922,3.922,0,0,0,127.849,11.6Z" transform="translate(405 714)" fill="#12263f"/>
          <g id="Group_1016850" data-name="Group 1016850" transform="translate(1020 775)">
            <rect id="Rectangle_347097" data-name="Rectangle 347097" width="55" height="4" transform="translate(68)" fill="#304c8e"/>
            <g id="Group_1016849" data-name="Group 1016849" transform="translate(0 4)">
              <g id="Group_1073121" data-name="Group 1073121">
                <rect id="Rectangle_347095" data-name="Rectangle 347095" width="190" height="40" rx="9" fill="#ffe126"/>
                <path id="Path_613389" data-name="Path 613389" d="M22.666,14.431a4.016,4.016,0,0,1-1.818,1.295,7.417,7.417,0,0,1-2.64.44,5.2,5.2,0,0,1-2.689-.689,4.589,4.589,0,0,1-1.805-1.971,6.9,6.9,0,0,1-.66-2.992V9.567a6.4,6.4,0,0,1,1.312-4.279,4.549,4.549,0,0,1,3.661-1.54,4.813,4.813,0,0,1,3.2,1,4.31,4.31,0,0,1,1.428,2.876H20.6a2.316,2.316,0,0,0-2.532-2.183,2.482,2.482,0,0,0-2.146,1.016,5.176,5.176,0,0,0-.76,2.981v.929a4.915,4.915,0,0,0,.826,3.039,2.724,2.724,0,0,0,2.3,1.082,3.026,3.026,0,0,0,2.291-.73V11.393h-2.49V9.8h4.582Zm6.068,1.735a4.173,4.173,0,0,1-3.109-1.208,4.381,4.381,0,0,1-1.191-3.217v-.249a5.389,5.389,0,0,1,.519-2.4A3.949,3.949,0,0,1,26.41,7.442,3.851,3.851,0,0,1,28.5,6.853a3.525,3.525,0,0,1,2.835,1.17,4.949,4.949,0,0,1,1,3.312v.813H26.468a2.7,2.7,0,0,0,.743,1.76,2.23,2.23,0,0,0,1.639.647,2.731,2.731,0,0,0,2.258-1.121L32.2,14.473a3.631,3.631,0,0,1-1.44,1.249A4.509,4.509,0,0,1,28.734,16.166Zm-.241-7.695a1.7,1.7,0,0,0-1.341.581,3.012,3.012,0,0,0-.652,1.619h3.843v-.149A2.452,2.452,0,0,0,29.8,8.99,1.686,1.686,0,0,0,28.493,8.471ZM38.936,13.56a.914.914,0,0,0-.444-.822,4.723,4.723,0,0,0-1.473-.5,7.574,7.574,0,0,1-1.718-.548,2.293,2.293,0,0,1-1.511-2.117,2.391,2.391,0,0,1,.979-1.942,3.872,3.872,0,0,1,2.49-.78,4.029,4.029,0,0,1,2.6.8,2.529,2.529,0,0,1,.992,2.067H38.836a1.243,1.243,0,0,0-.432-.967,1.654,1.654,0,0,0-1.146-.386,1.787,1.787,0,0,0-1.083.307.968.968,0,0,0-.419.822.818.818,0,0,0,.39.722,5.365,5.365,0,0,0,1.577.519,7.466,7.466,0,0,1,1.864.623,2.639,2.639,0,0,1,1,.867,2.212,2.212,0,0,1,.328,1.229,2.34,2.34,0,0,1-1,1.963,4.283,4.283,0,0,1-2.631.751,4.644,4.644,0,0,1-1.967-.4,3.238,3.238,0,0,1-1.345-1.1,2.594,2.594,0,0,1-.481-1.5h1.959a1.421,1.421,0,0,0,.54,1.1,2.1,2.1,0,0,0,1.32.386,2.04,2.04,0,0,0,1.212-.3A.938.938,0,0,0,38.936,13.56ZM45.2,4.835V7.019h1.585V8.513H45.2v5.014a1.1,1.1,0,0,0,.2.743.943.943,0,0,0,.726.228,3.107,3.107,0,0,0,.706-.083v1.561a4.968,4.968,0,0,1-1.328.191q-2.324,0-2.324-2.565V8.513H41.708V7.019h1.478V4.835ZM50.474,16H48.457V7.019h2.017ZM48.332,4.686a1.071,1.071,0,0,1,.295-.772,1.113,1.113,0,0,1,.843-.307,1.127,1.127,0,0,1,.847.307,1.062,1.062,0,0,1,.3.772,1.038,1.038,0,0,1-.3.76,1.136,1.136,0,0,1-.847.3,1.122,1.122,0,0,1-.843-.3A1.046,1.046,0,0,1,48.332,4.686Zm3.959,6.74a5.3,5.3,0,0,1,.523-2.378,3.819,3.819,0,0,1,1.469-1.627,4.14,4.14,0,0,1,2.175-.569,3.923,3.923,0,0,1,2.951,1.17,4.6,4.6,0,0,1,1.224,3.1l.008.473a5.343,5.343,0,0,1-.51,2.374,3.773,3.773,0,0,1-1.461,1.619,4.17,4.17,0,0,1-2.2.573A3.9,3.9,0,0,1,53.433,14.9a4.848,4.848,0,0,1-1.141-3.374Zm2.017.174a3.619,3.619,0,0,0,.573,2.171,1.862,1.862,0,0,0,1.594.784,1.842,1.842,0,0,0,1.59-.8,4,4,0,0,0,.569-2.333,3.572,3.572,0,0,0-.585-2.158,1.973,1.973,0,0,0-3.158-.012A3.922,3.922,0,0,0,54.309,11.6ZM57.015,3.25h2.3l-2.3,2.515-1.619,0ZM64.22,7.019l.058,1.038a3.229,3.229,0,0,1,2.615-1.2q2.806,0,2.855,3.212V16H67.731V10.181a1.85,1.85,0,0,0-.369-1.266A1.554,1.554,0,0,0,66.154,8.5a1.944,1.944,0,0,0-1.818,1.1V16H62.319V7.019Zm11.438,4.424a5.34,5.34,0,0,1,.963-3.333A3.085,3.085,0,0,1,79.2,6.853a2.931,2.931,0,0,1,2.308,1V3.25h2.017V16H81.7l-.1-.93a2.973,2.973,0,0,1-2.416,1.1,3.068,3.068,0,0,1-2.552-1.27A5.535,5.535,0,0,1,75.658,11.443Zm2.017.174a3.739,3.739,0,0,0,.527,2.137,1.71,1.71,0,0,0,1.5.768,1.9,1.9,0,0,0,1.81-1.1V9.583A1.876,1.876,0,0,0,79.718,8.5a1.723,1.723,0,0,0-1.511.776A4.163,4.163,0,0,0,77.676,11.617Zm11.912,4.549a4.173,4.173,0,0,1-3.109-1.208,4.381,4.381,0,0,1-1.191-3.217v-.249a5.389,5.389,0,0,1,.519-2.4,3.949,3.949,0,0,1,1.457-1.648,3.851,3.851,0,0,1,2.092-.589,3.525,3.525,0,0,1,2.835,1.17,4.949,4.949,0,0,1,1,3.312v.813H87.321a2.7,2.7,0,0,0,.743,1.76,2.23,2.23,0,0,0,1.639.647,2.731,2.731,0,0,0,2.258-1.121l1.087,1.038a3.631,3.631,0,0,1-1.44,1.249A4.509,4.509,0,0,1,89.587,16.166Zm-.241-7.695a1.7,1.7,0,0,0-1.341.581,3.012,3.012,0,0,0-.652,1.619H91.2v-.149a2.452,2.452,0,0,0-.54-1.531A1.686,1.686,0,0,0,89.346,8.471ZM96.9,16H94.883V3.25H96.9Zm11.131-7.139a4.991,4.991,0,0,0-.822-.066,1.85,1.85,0,0,0-1.868,1.063V16h-2.017V7.019h1.926l.05,1a2.273,2.273,0,0,1,2.025-1.17,1.888,1.888,0,0,1,.714.116ZM111.451,16h-2.017V7.019h2.017ZM109.31,4.686a1.071,1.071,0,0,1,.295-.772,1.113,1.113,0,0,1,.843-.307,1.127,1.127,0,0,1,.847.307,1.062,1.062,0,0,1,.3.772,1.038,1.038,0,0,1-.3.76,1.136,1.136,0,0,1-.847.3,1.122,1.122,0,0,1-.843-.3A1.046,1.046,0,0,1,109.31,4.686Zm8.292,11.48a4.173,4.173,0,0,1-3.109-1.208,4.381,4.381,0,0,1-1.191-3.217v-.249a5.389,5.389,0,0,1,.519-2.4,3.949,3.949,0,0,1,1.457-1.648,3.851,3.851,0,0,1,2.092-.589,3.525,3.525,0,0,1,2.835,1.17,4.949,4.949,0,0,1,1,3.312v.813h-5.869a2.7,2.7,0,0,0,.743,1.76,2.23,2.23,0,0,0,1.639.647,2.731,2.731,0,0,0,2.258-1.121l1.087,1.038a3.631,3.631,0,0,1-1.44,1.249A4.509,4.509,0,0,1,117.6,16.166Zm-.241-7.695a1.7,1.7,0,0,0-1.341.581,3.012,3.012,0,0,0-.652,1.619h3.843v-.149a2.452,2.452,0,0,0-.54-1.531A1.686,1.686,0,0,0,117.362,8.471ZM127.8,13.56a.914.914,0,0,0-.444-.822,4.723,4.723,0,0,0-1.473-.5,7.574,7.574,0,0,1-1.718-.548,2.293,2.293,0,0,1-1.511-2.117,2.391,2.391,0,0,1,.979-1.942,3.872,3.872,0,0,1,2.49-.78,4.029,4.029,0,0,1,2.6.8,2.529,2.529,0,0,1,.992,2.067H127.7a1.243,1.243,0,0,0-.432-.967,1.654,1.654,0,0,0-1.146-.386,1.787,1.787,0,0,0-1.083.307.968.968,0,0,0-.419.822.818.818,0,0,0,.39.722,5.365,5.365,0,0,0,1.577.519,7.466,7.466,0,0,1,1.864.623,2.639,2.639,0,0,1,1,.867,2.212,2.212,0,0,1,.328,1.229,2.34,2.34,0,0,1-1,1.963,4.283,4.283,0,0,1-2.631.751,4.644,4.644,0,0,1-1.967-.4,3.238,3.238,0,0,1-1.345-1.1,2.594,2.594,0,0,1-.481-1.5h1.959a1.421,1.421,0,0,0,.54,1.1,2.1,2.1,0,0,0,1.32.386,2.04,2.04,0,0,0,1.212-.3A.938.938,0,0,0,127.8,13.56Zm3.387-2.117a5.253,5.253,0,0,1,.984-3.341,3.157,3.157,0,0,1,2.611-1.249A2.958,2.958,0,0,1,137.2,7.923l.091-.9h1.818v8.708a3.619,3.619,0,0,1-1.1,2.789,4.189,4.189,0,0,1-2.968,1.021,4.783,4.783,0,0,1-1.93-.411,3.429,3.429,0,0,1-1.432-1.075l.955-1.212a2.883,2.883,0,0,0,2.291,1.1,2.228,2.228,0,0,0,1.585-.544,2.084,2.084,0,0,0,.581-1.6v-.606a2.97,2.97,0,0,1-2.324.971,3.15,3.15,0,0,1-2.577-1.253A5.423,5.423,0,0,1,131.191,11.443Zm2.009.174a3.616,3.616,0,0,0,.552,2.129,1.775,1.775,0,0,0,1.531.776,1.941,1.941,0,0,0,1.81-1.046V9.525A1.913,1.913,0,0,0,135.3,8.5a1.782,1.782,0,0,0-1.548.789A4.049,4.049,0,0,0,133.2,11.617Zm7.6-.191a5.3,5.3,0,0,1,.523-2.378A3.819,3.819,0,0,1,142.8,7.421a4.14,4.14,0,0,1,2.175-.569,3.923,3.923,0,0,1,2.951,1.17,4.6,4.6,0,0,1,1.224,3.1l.008.473a5.343,5.343,0,0,1-.51,2.374,3.773,3.773,0,0,1-1.461,1.619,4.17,4.17,0,0,1-2.2.573,3.9,3.9,0,0,1-3.042-1.266,4.848,4.848,0,0,1-1.141-3.374Zm2.017.174a3.619,3.619,0,0,0,.573,2.171,1.862,1.862,0,0,0,1.594.784,1.842,1.842,0,0,0,1.59-.8,4,4,0,0,0,.569-2.333,3.572,3.572,0,0,0-.585-2.158,1.973,1.973,0,0,0-3.158-.012A3.922,3.922,0,0,0,142.82,11.6Z" transform="translate(14 10)" fill="#12263f"/>
              </g>
            </g>
          </g>
          <path id="Path_613386" data-name="Path 613386" d="M9,0H221a9,9,0,0,1,9,9V28a9,9,0,0,1-9,9H9a9,9,0,0,1-9-9V9A9,9,0,0,1,9,0Z" transform="translate(370 872.637)" fill="#ffe126"/>
          <path id="Path_613387" data-name="Path 613387" d="M9.961,5.607H6.192V16H4.109V5.607H.374V3.914H9.961Zm5.553,3.254a4.991,4.991,0,0,0-.822-.066,1.85,1.85,0,0,0-1.868,1.063V16H10.808V7.019h1.926l.05,1a2.273,2.273,0,0,1,2.025-1.17,1.888,1.888,0,0,1,.714.116ZM21.906,16a3.113,3.113,0,0,1-.232-.838,3.393,3.393,0,0,1-4.565.232,2.47,2.47,0,0,1-.855-1.909,2.55,2.55,0,0,1,1.067-2.2,5.169,5.169,0,0,1,3.051-.768h1.237V9.924a1.573,1.573,0,0,0-.39-1.116,1.547,1.547,0,0,0-1.187-.419,1.777,1.777,0,0,0-1.129.344,1.066,1.066,0,0,0-.44.876H16.444a2.239,2.239,0,0,1,.49-1.382,3.263,3.263,0,0,1,1.332-1.009,4.68,4.68,0,0,1,1.88-.365,3.769,3.769,0,0,1,2.515.793,2.827,2.827,0,0,1,.963,2.229v4.051a4.591,4.591,0,0,0,.34,1.934V16Zm-2.216-1.453a2.294,2.294,0,0,0,1.125-.291,1.941,1.941,0,0,0,.793-.78V11.783H20.52a2.973,2.973,0,0,0-1.685.39,1.264,1.264,0,0,0-.564,1.1,1.179,1.179,0,0,0,.386.926A1.5,1.5,0,0,0,19.689,14.547Zm8.575-9.712V7.019H29.85V8.513H28.264v5.014a1.1,1.1,0,0,0,.2.743.943.943,0,0,0,.726.228,3.107,3.107,0,0,0,.706-.083v1.561a4.968,4.968,0,0,1-1.328.191q-2.324,0-2.324-2.565V8.513H24.77V7.019h1.478V4.835ZM36.756,16a3.113,3.113,0,0,1-.232-.838,3.393,3.393,0,0,1-4.565.232,2.47,2.47,0,0,1-.855-1.909,2.55,2.55,0,0,1,1.067-2.2,5.169,5.169,0,0,1,3.051-.768h1.237V9.924a1.573,1.573,0,0,0-.39-1.116,1.547,1.547,0,0,0-1.187-.419,1.777,1.777,0,0,0-1.129.344,1.066,1.066,0,0,0-.44.876H31.294a2.239,2.239,0,0,1,.49-1.382,3.263,3.263,0,0,1,1.332-1.009A4.68,4.68,0,0,1,35,6.853a3.769,3.769,0,0,1,2.515.793,2.827,2.827,0,0,1,.963,2.229v4.051a4.591,4.591,0,0,0,.34,1.934V16ZM34.54,14.547a2.294,2.294,0,0,0,1.125-.291,1.941,1.941,0,0,0,.793-.78V11.783H35.37a2.973,2.973,0,0,0-1.685.39,1.264,1.264,0,0,0-.564,1.1,1.179,1.179,0,0,0,.386.926A1.5,1.5,0,0,0,34.54,14.547Zm7.944-7.529.058.938a3.232,3.232,0,0,1,2.59-1.1A2.483,2.483,0,0,1,47.6,8.23a3.186,3.186,0,0,1,2.756-1.378,2.8,2.8,0,0,1,2.212.822,3.618,3.618,0,0,1,.743,2.424V16H51.291V10.156A1.786,1.786,0,0,0,50.917,8.9a1.635,1.635,0,0,0-1.237-.4,1.679,1.679,0,0,0-1.125.369,1.948,1.948,0,0,0-.61.967L47.954,16H45.937V10.09A1.439,1.439,0,0,0,44.318,8.5a1.776,1.776,0,0,0-1.718.988V16H40.583V7.019ZM57.524,16H55.507V7.019h2.017ZM55.383,4.686a1.071,1.071,0,0,1,.295-.772,1.113,1.113,0,0,1,.843-.307,1.127,1.127,0,0,1,.847.307,1.062,1.062,0,0,1,.3.772,1.038,1.038,0,0,1-.3.76,1.136,1.136,0,0,1-.847.3,1.122,1.122,0,0,1-.843-.3A1.046,1.046,0,0,1,55.383,4.686Zm8.292,11.48a4.173,4.173,0,0,1-3.109-1.208,4.381,4.381,0,0,1-1.191-3.217v-.249a5.389,5.389,0,0,1,.519-2.4,3.949,3.949,0,0,1,1.457-1.648,3.851,3.851,0,0,1,2.092-.589,3.525,3.525,0,0,1,2.835,1.17,4.949,4.949,0,0,1,1,3.312v.813H61.409a2.7,2.7,0,0,0,.743,1.76,2.23,2.23,0,0,0,1.639.647,2.731,2.731,0,0,0,2.258-1.121l1.087,1.038a3.631,3.631,0,0,1-1.44,1.249A4.509,4.509,0,0,1,63.675,16.166Zm-.241-7.695a1.7,1.7,0,0,0-1.341.581,3.012,3.012,0,0,0-.652,1.619h3.843v-.149a2.452,2.452,0,0,0-.54-1.531A1.686,1.686,0,0,0,63.435,8.471Zm7.28-1.453.058,1.038a3.229,3.229,0,0,1,2.615-1.2q2.806,0,2.855,3.212V16H74.226V10.181a1.85,1.85,0,0,0-.369-1.266A1.554,1.554,0,0,0,72.648,8.5a1.944,1.944,0,0,0-1.818,1.1V16H68.813V7.019Zm10.11-2.183V7.019H82.41V8.513H80.825v5.014a1.1,1.1,0,0,0,.2.743.943.943,0,0,0,.726.228,3.107,3.107,0,0,0,.706-.083v1.561a4.968,4.968,0,0,1-1.328.191q-2.324,0-2.324-2.565V8.513H77.33V7.019h1.478V4.835Zm2.5,6.591a5.3,5.3,0,0,1,.523-2.378,3.819,3.819,0,0,1,1.469-1.627,4.14,4.14,0,0,1,2.175-.569,3.923,3.923,0,0,1,2.951,1.17,4.6,4.6,0,0,1,1.224,3.1l.008.473a5.343,5.343,0,0,1-.51,2.374A3.773,3.773,0,0,1,89.7,15.593a4.17,4.17,0,0,1-2.2.573A3.9,3.9,0,0,1,84.465,14.9a4.848,4.848,0,0,1-1.141-3.374Zm2.017.174a3.619,3.619,0,0,0,.573,2.171,1.862,1.862,0,0,0,1.594.784,1.842,1.842,0,0,0,1.59-.8,4,4,0,0,0,.569-2.333,3.572,3.572,0,0,0-.585-2.158,1.973,1.973,0,0,0-3.158-.012A3.922,3.922,0,0,0,85.34,11.6Zm11.9-.158A5.34,5.34,0,0,1,98.2,8.11a3.085,3.085,0,0,1,2.582-1.258,2.931,2.931,0,0,1,2.308,1V3.25H105.1V16h-1.826l-.1-.93a2.973,2.973,0,0,1-2.416,1.1,3.068,3.068,0,0,1-2.552-1.27A5.535,5.535,0,0,1,97.235,11.443Zm2.017.174a3.739,3.739,0,0,0,.527,2.137,1.71,1.71,0,0,0,1.5.768,1.9,1.9,0,0,0,1.81-1.1V9.583A1.876,1.876,0,0,0,101.294,8.5a1.723,1.723,0,0,0-1.511.776A4.163,4.163,0,0,0,99.252,11.617Zm11.912,4.549a4.173,4.173,0,0,1-3.109-1.208,4.381,4.381,0,0,1-1.191-3.217v-.249a5.389,5.389,0,0,1,.519-2.4,3.949,3.949,0,0,1,1.457-1.648,3.851,3.851,0,0,1,2.092-.589,3.525,3.525,0,0,1,2.835,1.17,4.949,4.949,0,0,1,1,3.312v.813H108.9a2.7,2.7,0,0,0,.743,1.76,2.23,2.23,0,0,0,1.639.647,2.731,2.731,0,0,0,2.258-1.121l1.087,1.038a3.631,3.631,0,0,1-1.44,1.249A4.509,4.509,0,0,1,111.164,16.166Zm-.241-7.695a1.7,1.7,0,0,0-1.341.581,3.012,3.012,0,0,0-.652,1.619h3.843v-.149a2.452,2.452,0,0,0-.54-1.531A1.686,1.686,0,0,0,110.923,8.471ZM118.477,16H116.46V3.25h2.017Zm11.131-7.139a4.991,4.991,0,0,0-.822-.066,1.85,1.85,0,0,0-1.868,1.063V16H124.9V7.019h1.926l.05,1a2.273,2.273,0,0,1,2.025-1.17,1.888,1.888,0,0,1,.714.116ZM133.028,16h-2.017V7.019h2.017ZM130.887,4.686a1.07,1.07,0,0,1,.295-.772,1.113,1.113,0,0,1,.843-.307,1.127,1.127,0,0,1,.847.307,1.062,1.062,0,0,1,.3.772,1.038,1.038,0,0,1-.3.76,1.136,1.136,0,0,1-.847.3,1.122,1.122,0,0,1-.843-.3A1.046,1.046,0,0,1,130.887,4.686Zm8.292,11.48a4.173,4.173,0,0,1-3.109-1.208,4.381,4.381,0,0,1-1.191-3.217v-.249a5.389,5.389,0,0,1,.519-2.4,3.949,3.949,0,0,1,1.457-1.648,3.851,3.851,0,0,1,2.092-.589,3.525,3.525,0,0,1,2.835,1.17,4.949,4.949,0,0,1,1,3.312v.813h-5.869a2.7,2.7,0,0,0,.743,1.76,2.23,2.23,0,0,0,1.639.647,2.731,2.731,0,0,0,2.258-1.121l1.087,1.038a3.631,3.631,0,0,1-1.44,1.249A4.509,4.509,0,0,1,139.179,16.166Zm-.241-7.695a1.7,1.7,0,0,0-1.341.581,3.012,3.012,0,0,0-.652,1.619h3.843v-.149a2.452,2.452,0,0,0-.54-1.531A1.686,1.686,0,0,0,138.938,8.471Zm10.442,5.088a.914.914,0,0,0-.444-.822,4.723,4.723,0,0,0-1.473-.5,7.574,7.574,0,0,1-1.718-.548,2.293,2.293,0,0,1-1.511-2.117,2.391,2.391,0,0,1,.979-1.942,3.872,3.872,0,0,1,2.49-.78,4.029,4.029,0,0,1,2.6.8,2.529,2.529,0,0,1,.992,2.067h-2.017a1.243,1.243,0,0,0-.432-.967,1.654,1.654,0,0,0-1.146-.386,1.787,1.787,0,0,0-1.083.307.968.968,0,0,0-.419.822.818.818,0,0,0,.39.722,5.365,5.365,0,0,0,1.577.519,7.466,7.466,0,0,1,1.864.623,2.639,2.639,0,0,1,1,.867,2.212,2.212,0,0,1,.328,1.229,2.34,2.34,0,0,1-1,1.963,4.283,4.283,0,0,1-2.631.751,4.644,4.644,0,0,1-1.967-.4,3.238,3.238,0,0,1-1.345-1.1,2.594,2.594,0,0,1-.481-1.5h1.959a1.421,1.421,0,0,0,.54,1.1,2.1,2.1,0,0,0,1.32.386,2.04,2.04,0,0,0,1.212-.3A.938.938,0,0,0,149.381,13.56Zm3.387-2.117a5.253,5.253,0,0,1,.984-3.341,3.157,3.157,0,0,1,2.611-1.249,2.958,2.958,0,0,1,2.416,1.071l.091-.9h1.818v8.708a3.619,3.619,0,0,1-1.1,2.789,4.189,4.189,0,0,1-2.968,1.021,4.783,4.783,0,0,1-1.93-.411,3.429,3.429,0,0,1-1.432-1.075l.955-1.212a2.883,2.883,0,0,0,2.291,1.1,2.228,2.228,0,0,0,1.585-.544,2.084,2.084,0,0,0,.581-1.6v-.606a2.97,2.97,0,0,1-2.324.971,3.15,3.15,0,0,1-2.577-1.253A5.423,5.423,0,0,1,152.768,11.443Zm2.009.174a3.616,3.616,0,0,0,.552,2.129,1.775,1.775,0,0,0,1.531.776,1.941,1.941,0,0,0,1.81-1.046V9.525A1.913,1.913,0,0,0,156.876,8.5a1.782,1.782,0,0,0-1.548.789A4.049,4.049,0,0,0,154.776,11.617Zm7.6-.191a5.3,5.3,0,0,1,.523-2.378,3.819,3.819,0,0,1,1.469-1.627,4.14,4.14,0,0,1,2.175-.569,3.923,3.923,0,0,1,2.951,1.17,4.6,4.6,0,0,1,1.224,3.1l.008.473a5.343,5.343,0,0,1-.51,2.374,3.773,3.773,0,0,1-1.461,1.619,4.17,4.17,0,0,1-2.2.573,3.9,3.9,0,0,1-3.042-1.266,4.848,4.848,0,0,1-1.141-3.374Zm2.017.174a3.619,3.619,0,0,0,.573,2.171,1.862,1.862,0,0,0,1.594.784,1.842,1.842,0,0,0,1.59-.8,4,4,0,0,0,.569-2.333,3.572,3.572,0,0,0-.585-2.158,1.973,1.973,0,0,0-3.158-.012A3.922,3.922,0,0,0,164.4,11.6Z" transform="translate(389 881.637)" fill="#12263f"/>
          <path id="Path_613388" data-name="Path 613388" d="M0,0H55V4H0Z" transform="translate(458 910)" fill="#506f97"/>
        </g>
      </g>
      <g id="Group_1072347" data-name="Group 1072347">
        <circle id="Ellipse_5840" data-name="Ellipse 5840" cx="28" cy="28" r="28" transform="translate(457 635)" fill="#7e19b8" opacity="0.3"/>
        <circle id="Ellipse_5841" data-name="Ellipse 5841" cx="17" cy="17" r="17" transform="translate(468 646)" fill="#7e19b8"/>
        <text id="_" data-name="+" transform="translate(480 670)" fill="#fff" font-size="20" font-family="Roboto-Regular, Roboto"><tspan x="0" y="0">+</tspan></text>
        <g id="Group_1016851" data-name="Group 1016851" transform="translate(1086.473 709)">
          <circle id="Ellipse_5840-2" data-name="Ellipse 5840" cx="28" cy="28" r="28" transform="translate(-0.473)" fill="#7e19b8" opacity="0.3"/>
          <circle id="Ellipse_5841-2" data-name="Ellipse 5841" cx="17" cy="17" r="17" transform="translate(10.527 11)" fill="#7e19b8"/>
          <text id="_2" data-name="+" transform="translate(22.527 35)" fill="#fff" font-size="20" font-family="Roboto-Regular, Roboto"><tspan x="0" y="0">+</tspan></text>
        </g>
        <circle id="Ellipse_5840-3" data-name="Ellipse 5840" cx="28" cy="28" r="28" transform="translate(457 808)" fill="#7e19b8" opacity="0.3"/>
        <circle id="Ellipse_5841-3" data-name="Ellipse 5841" cx="17" cy="17" r="17" transform="translate(468 819)" fill="#7e19b8"/>
        <text id="_3" data-name="+" transform="translate(480 843)" fill="#fff" font-size="20" font-family="Roboto-Regular, Roboto"><tspan x="0" y="0">+</tspan></text>
      </g>
    </g>
  </g>
</svg>
