<svg xmlns="http://www.w3.org/2000/svg" xmlns:xlink="http://www.w3.org/1999/xlink" width="295" height="305.369" viewBox="0 0 295 305.369">
  <defs>
    <clipPath id="clip-path">
      <rect id="Rectangle_377570" data-name="Rectangle 377570" width="293.03" height="303.925" fill="none"/>
    </clipPath>
    <clipPath id="clip-path-3">
      <rect id="Rectangle_377565" data-name="Rectangle 377565" width="104.98" height="104.978" fill="none"/>
    </clipPath>
    <clipPath id="clip-path-4">
      <rect id="Rectangle_377567" data-name="Rectangle 377567" width="43.655" height="12.107" fill="none"/>
    </clipPath>
    <clipPath id="clip-path-5">
      <rect id="Rectangle_377568" data-name="Rectangle 377568" width="49.606" height="49.605" fill="none"/>
    </clipPath>
  </defs>
  <g id="Group_1073053" data-name="Group 1073053" transform="translate(-285 -5319)">
    <rect id="_3d-internet-secuirty-badge_2_" data-name="3d-internet-secuirty-badge (2)" width="295" height="305" transform="translate(285 5319)" fill="#fff"/>
    <circle id="Ellipse_5933" data-name="Ellipse 5933" cx="120" cy="120" r="120" transform="translate(293 5347)" fill="#ffe126"/>
    <g id="Group_1073052" data-name="Group 1073052" transform="translate(285 5320.444)">
      <g id="Group_1073051" data-name="Group 1073051" clip-path="url(#clip-path)">
        <g id="Group_1073050" data-name="Group 1073050" transform="translate(0 0)">
          <g id="Group_1073049" data-name="Group 1073049" clip-path="url(#clip-path)">
            <g id="Group_1073042" data-name="Group 1073042" transform="translate(181.386 77.789)" opacity="0.8">
              <g id="Group_1073041" data-name="Group 1073041">
                <g id="Group_1073040" data-name="Group 1073040" clip-path="url(#clip-path-3)">
                  <path id="Path_613222" data-name="Path 613222" d="M1108.707,502.234a52.825,52.825,0,0,1-4.026,8.594,52.49,52.49,0,0,1-97.656-22.952,51.6,51.6,0,0,1,.066-8.005A52.852,52.852,0,0,1,1015,456.29c.022-.037.045-.07.067-.107a52.615,52.615,0,0,1,29.915-22.341c1.281-.367,2.581-.686,3.89-.953a52.19,52.19,0,0,1,28.442,2.1q1.882.684,3.676,1.495a52.12,52.12,0,0,1,21.27,17.561h0a52.681,52.681,0,0,1,8.393,19.043q.482,2.2.779,4.447a52.237,52.237,0,0,1-2.732,24.7" transform="translate(-1006.9 -431.816)" fill="#d7e5ff"/>
                  <path id="Path_613223" data-name="Path 613223" d="M1087.544,461.025c-3.1,2.4-2.279,8.828-7.646,5.205s-8.738-5.591-10.257-2.431,3.235,4.891,1.983,8.335-3.8,3.808-6.484.98-2.764-5.55-7.114-5.46-6.206-1.7-5.994-4.964a4.592,4.592,0,0,0-.143-1.514c.022-.037.045-.07.067-.107a52.615,52.615,0,0,1,29.915-22.341c1.281-.367,2.581-.686,3.89-.953a6.9,6.9,0,0,1,4,4.375c1.894,5.518,4.964,4.219,2.356,8.841s-1.535,5.756,1.312,6.6,6.129,2.041,5.681,4.293-8.469-3.265-11.57-.864" transform="translate(-1043.785 -436.702)" fill="#aec3ff"/>
                  <path id="Path_613224" data-name="Path 613224" d="M1403.7,691.093a52.828,52.828,0,0,1-4.026,8.594,52.184,52.184,0,0,1-14.661,16.091,5.989,5.989,0,0,1-3.9-1.539c-5.256-4.7,1.709-9.683,5.377-12.11s-3.143-3.231-6.576-7.961,4.606-11.137-.56-11.484-11.45-.681-12.5-6.216,4.383-4.395,3.432-9.057,3.544-5.535,8.352-4.205,5.4-2.215,11.36-.6,3.154,8.945,9.729,10.778,5.751,3.2,5.751,3.2a3.171,3.171,0,0,1,1.234.766,52.575,52.575,0,0,1-3,13.744" transform="translate(-1301.893 -620.676)" fill="#aec3ff"/>
                  <path id="Path_613225" data-name="Path 613225" d="M1464.813,572.761c-6.259.655-5.836-7.16-11.151-6.7-5.359.467-3.066-3.343-5.718-7.279s-11.6-1.8-9.781-5.784,6.812-.866,9.153-3.727,7.291-.135,7.291-.135a3.777,3.777,0,0,1,1.033.13s0,0,0,0a52.682,52.682,0,0,1,8.393,19.043q.482,2.2.779,4.447" transform="translate(-1360.274 -527.043)" fill="#aec3ff"/>
                  <path id="Path_613226" data-name="Path 613226" d="M1311.828,474.9s4.25-3.009.254-5.806-4.479-1.213-7.79-2.832-5.633.555-4.108,4.4,1.585,10.2,5,8.068,3.788-4.547,6.64-3.836" transform="translate(-1246.959 -459.614)" fill="#aec3ff"/>
                </g>
              </g>
            </g>
            <path id="Path_613227" data-name="Path 613227" d="M.91,1590.944h18.3c.981-.832-.679-2.721-2.413-2.848a10.687,10.687,0,0,0-2.793.331c-.252-3.345-1.69-18.383-7.111-17.779-6.095.677,0,6.622,1.723,10.143a83.687,83.687,0,0,1,3.238,8.111c-.495.107-1.007.212-1.53.309-.808-2.48-3.814-10.824-7.636-10.338-4.488.569-2.684,3.914.5,5.9,2.334,1.46,5.2,3.536,6.561,4.538a19.443,19.443,0,0,1-3.579.287c-3.135-.074-4.665.849-5.259,1.346" transform="translate(0 -1287.692)" fill="#a8d29f"/>
            <path id="Path_613228" data-name="Path 613228" d="M1543.35,1597.522h-17c-.911-.773.63-2.528,2.241-2.646a9.943,9.943,0,0,1,2.595.307c.234-3.107,1.569-17.075,6.6-16.513,5.661.628,0,6.151-1.6,9.421a77.7,77.7,0,0,0-3.008,7.534c.46.1.936.2,1.421.286.75-2.3,3.542-10.053,7.093-9.6,4.169.529,2.493,3.636-.462,5.48-2.168,1.356-4.829,3.284-6.094,4.215a18.064,18.064,0,0,0,3.325.266c2.912-.069,4.333.789,4.884,1.251" transform="translate(-1251.166 -1294.27)" fill="#a8d29f"/>
            <path id="Path_613229" data-name="Path 613229" d="M779.447,1050.837l-8.966,106.609s-.939,6.462,3.867,6.474c7.9.019,39.339,0,39.339,0s-5.948-1.345-5.876-4.372c.085-3.568,10.48-109.72,10.48-109.72Z" transform="translate(-631.624 -860.709)" fill="#7599ea"/>
            <path id="Path_613230" data-name="Path 613230" d="M828.406,1153.225c-1.555,0-31.988.056-39.685-.043-3.354-.042-3.942-2.983-3.97-4.886a9.53,9.53,0,0,1,.1-1.587l.233-2.771.594-7.062.525-6.24.675-8.018.568-6.768,6.371-75.753,38.844-1.008s-4.378,44.424-7.474,76.761c-.346,3.6-.675,7.058-.979,10.282q-.148,1.544-.286,3.016c-.287,3.06-.55,5.869-.778,8.35-.12,1.308-.232,2.523-.332,3.635-.4,4.361-.627,7.146-.63,7.675a4.475,4.475,0,0,0,.076.863c.638,3.4,5.563,3.552,6.147,3.552" transform="translate(-643.382 -851.905)" fill="#90aff4"/>
            <path id="Path_613231" data-name="Path 613231" d="M296.932,733.392l21.84,87.726,2.99,12.015,10.172,40.86H520.912l-37.492-140.6Z" transform="translate(-243.441 -601.276)" fill="#aec3ff"/>
            <path id="Path_613232" data-name="Path 613232" d="M283.155,733.391l-3.027,1.009,34.005,142.644,4.024-3.051Z" transform="translate(-229.665 -601.276)" fill="#90aff4"/>
            <path id="Path_613233" data-name="Path 613233" d="M468.9,1516.943H656.712l5.186-3.051H472.92Z" transform="translate(-384.428 -1241.174)" fill="#7599ea"/>
            <rect id="Rectangle_377566" data-name="Rectangle 377566" width="40.665" height="1.932" transform="translate(150.424 301.32)" fill="#aec3ff"/>
            <path id="Path_613234" data-name="Path 613234" d="M828.369,1530.825l-.21,1.477-38.243,7.726.525-6.24.25-2.964Z" transform="translate(-647.618 -1255.058)" fill="#5888dd"/>
            <g id="Group_1073045" data-name="Group 1073045" transform="translate(141.369 289.23)" opacity="0.4">
              <g id="Group_1073044" data-name="Group 1073044">
                <g id="Group_1073043" data-name="Group 1073043" clip-path="url(#clip-path-4)">
                  <path id="Path_613235" data-name="Path 613235" d="M828.411,1617.648c-1.555,0-31.988.056-39.685-.043-3.354-.042-3.942-2.982-3.97-4.886l38.063-7.161c-.4,4.361-.627,7.146-.63,7.675a4.479,4.479,0,0,0,.076.863c.638,3.4,5.563,3.552,6.147,3.552" transform="translate(-784.756 -1605.558)" fill="#5888dd"/>
                </g>
              </g>
            </g>
            <path id="Path_613236" data-name="Path 613236" d="M296.93,733.391H483.419l30.258,113H325.061Z" transform="translate(-243.44 -601.276)" fill="#aec3ff"/>
            <path id="Path_613237" data-name="Path 613237" d="M540.035,869.043H365.425l-6.239-24.856-2.414-9.618-.984-3.922L349.374,805.1l-.333-1.33-3.39-13.5-1.516-6.041-1.294-5.154-3.033-12.081H511.9l3.331,12.081,1.42,5.154,1.665,6.041,10.972,39.8v0l.93,3.372.432,1.565,7.576,27.478Z" transform="translate(-278.594 -628.825)" fill="#739af0"/>
            <path id="Path_613238" data-name="Path 613238" d="M515.236,779.073H342.845l-3.033-12.082H511.906Z" transform="translate(-278.598 -628.823)" fill="#607cf4"/>
            <path id="Path_613239" data-name="Path 613239" d="M379.121,790.427a1.141,1.141,0,0,1,1.134-1.51,2.063,2.063,0,0,1,1.887,1.51,1.141,1.141,0,0,1-1.134,1.51,2.063,2.063,0,0,1-1.887-1.51" transform="translate(-310.787 -646.799)" fill="#e9f3fe"/>
            <path id="Path_613240" data-name="Path 613240" d="M406.979,790.427a1.141,1.141,0,0,1,1.134-1.51,2.063,2.063,0,0,1,1.887,1.51,1.141,1.141,0,0,1-1.134,1.51,2.063,2.063,0,0,1-1.887-1.51" transform="translate(-333.626 -646.799)" fill="#e9f3fe"/>
            <path id="Path_613241" data-name="Path 613241" d="M436.976,790.427a1.141,1.141,0,0,1,1.134-1.51,2.063,2.063,0,0,1,1.887,1.51,1.141,1.141,0,0,1-1.134,1.51,2.063,2.063,0,0,1-1.887-1.51" transform="translate(-358.22 -646.799)" fill="#e9f3fe"/>
            <path id="Path_613242" data-name="Path 613242" d="M1058.633,67.93c7.057-8.286,17.941-24.931,25.267-33.455a2.7,2.7,0,0,0-2.059-4.462h-13.333l12.576-28.437a1.115,1.115,0,0,0-1.912-1.118l-30.408,40.7a1.683,1.683,0,0,0,1.554,2.677l15.094-1.859-8.98,24.668a1.3,1.3,0,0,0,2.2,1.287" transform="translate(-859.559 -0.001)" fill="#f77d48"/>
            <path id="Path_613243" data-name="Path 613243" d="M681.174,414.963c1.588-8.143,2.59-23.269,4.268-31.672a2.06,2.06,0,0,0-3.036-2.193l-8.855,4.987-2.284-23.591a.85.85,0,0,0-1.688-.027L664.6,400.872a1.283,1.283,0,0,0,2.034,1.2l9.33-6.88,3.263,19.743a.987.987,0,0,0,1.943.031" transform="translate(-544.871 -296.563)" fill="#aec3ff"/>
            <path id="Path_613244" data-name="Path 613244" d="M728.1,612.293,576.382,625.076a15.187,15.187,0,0,1-15.141-21.329L625.52,459.89a15.187,15.187,0,0,1,26.5-2.233l87.443,131.074A15.188,15.188,0,0,1,728.1,612.293" transform="translate(-459.036 -369.671)" fill="#e6efff"/>
            <path id="Path_613245" data-name="Path 613245" d="M702.355,591.809,550.632,604.592a20.946,20.946,0,0,1-20.883-29.418l64.279-143.857a20.947,20.947,0,0,1,36.549-3.079l87.443,131.075a20.946,20.946,0,0,1-15.666,32.5M612.362,430.467a9.309,9.309,0,0,0-7.816,5.549L540.266,579.873a9.428,9.428,0,0,0,9.4,13.241l151.722-12.783a9.428,9.428,0,0,0,7.052-14.627L621,434.63a9.309,9.309,0,0,0-8.634-4.163" transform="translate(-432.803 -343.448)" fill="#60cb28"/>
            <path id="Path_613246" data-name="Path 613246" d="M941.592,758.7a13.877,13.877,0,0,1,.59-5.51,12.722,12.722,0,0,1,2.6-4.56,13.632,13.632,0,0,1,4.359-3.232,17,17,0,0,1,5.969-1.532,17.387,17.387,0,0,1,6.187.508,13.553,13.553,0,0,1,4.884,2.453,12.732,12.732,0,0,1,3.322,4.061,13.906,13.906,0,0,1,1.5,5.333,13.576,13.576,0,0,1-.594,5.466,12.816,12.816,0,0,1-2.6,4.516,13.517,13.517,0,0,1-4.4,3.236,17.39,17.39,0,0,1-6.015,1.536,17,17,0,0,1-6.142-.512,13.592,13.592,0,0,1-4.838-2.457,12.8,12.8,0,0,1-3.319-4.017,13.549,13.549,0,0,1-1.5-5.289m23.457-27.448L943.194,733.1l-9.387-74.412,28.047-2.363Z" transform="translate(-765.588 -538.089)" fill="#60cb28"/>
            <path id="Path_613247" data-name="Path 613247" d="M454.028,1082.691s.476-1.07.784-1.577,1.624-1.991,1.848-1.655,1.12,2.6.644,3.231.031,1.735-2.337,2.4Z" transform="translate(-372.238 -884.962)" fill="#ffb27d"/>
            <path id="Path_613248" data-name="Path 613248" d="M307.955,1060.118s12.121,10.118,16.848,9.182c3.7-.732,9.539-2.586,9.539-2.586a3.729,3.729,0,0,1,1.106,3.225s-7.444,7-12.747,7.049c-8.29.071-12.2-4.108-12.2-4.108Z" transform="translate(-252.479 -869.145)" fill="#ed7d2b"/>
            <path id="Path_613249" data-name="Path 613249" d="M189.947,1644.253s.352,5.676,1.45,5.758c.146.011,5.57.011,5.57.011l6.924-.04a2.247,2.247,0,0,0-2.069-2.021c-2.024-.353-5.411-1.775-6.637-4.45-1.29-2.814-5.237.743-5.237.743" transform="translate(-155.729 -1346.555)" fill="#113c68"/>
            <path id="Path_613250" data-name="Path 613250" d="M187.732,1335.816a14.439,14.439,0,0,0,3.748.7,13.768,13.768,0,0,0,3.5-.5,95.8,95.8,0,0,1,2.577-12.276c1.143-4.426,2.776-10.116,5.1-17.187,6.422-19.542,8.375-30.974,8.554-32.056.01-.057.013-.085.013-.085l-.021-.01-19.745-8.669s2.44,26.933-.673,37.271a43.559,43.559,0,0,0-1.13,4.953c-1.966,11.229-1.921,27.854-1.921,27.854" transform="translate(-153.913 -1037.724)" fill="#2a4e96"/>
            <path id="Path_613251" data-name="Path 613251" d="M211.355,1323.745c1.143-4.426,2.776-10.116,5.1-17.187,6.422-19.542,8.375-30.974,8.554-32.057,0-.032,0-.062-.008-.095l-19.745-8.669s2.44,26.933-.673,37.271c-.436,1.445,6.773,20.736,6.773,20.736" transform="translate(-167.713 -1037.724)" fill="#233862"/>
            <path id="Path_613252" data-name="Path 613252" d="M275.555,1644.253s.352,5.676,1.45,5.758c.146.011,5.57.011,5.57.011l6.924-.04a2.247,2.247,0,0,0-2.069-2.021c-2.024-.353-5.411-1.775-6.637-4.45-1.29-2.814-5.237.743-5.237.743" transform="translate(-225.916 -1346.555)" fill="#15447c"/>
            <path id="Path_613253" data-name="Path 613253" d="M242.155,1269.262a281.08,281.08,0,0,1-2.763,38.882c-3.02,21.429-2,30.525-2,30.525a20.522,20.522,0,0,1-2.912.74,13.213,13.213,0,0,1-4.32-.5s-4.322-21.437-3.083-32.162-5.919-36.8-5.919-36.8Z" transform="translate(-181.321 -1040.613)" fill="#2a4e96"/>
            <path id="Path_613254" data-name="Path 613254" d="M259.978,1003.277l3.854,2.527,3.511-.993a8.387,8.387,0,0,0,.821-4.209,26.181,26.181,0,0,0-.138-2.8l-5.2-2.3-1.94-.855c.006.03.151,1.593.172,1.822a13.273,13.273,0,0,1-1.08,6.806" transform="translate(-213.145 -815.47)" fill="#ffb27d"/>
            <path id="Path_613255" data-name="Path 613255" d="M227.444,1081.572c-4.8,4.632-22.953,3.853-24.072-1.25s1.22-43.442,9.415-45.851c1.7-.5,10.792,2.438,10.792,2.438a57.64,57.64,0,0,1,2.362,8.483c.182.925.712,10.722,1.108,19.888.185,4.287.342,8.436.422,11.475a33.081,33.081,0,0,1-.027,4.816" transform="translate(-166.522 -848.072)" fill="#f99746"/>
            <path id="Path_613256" data-name="Path 613256" d="M267.456,1000.43c1.055,1.784,4.756,3.345,6.717,4.06a26.181,26.181,0,0,0-.138-2.8l-5.2-2.3c-1.149-.015-1.85.242-1.38,1.038" transform="translate(-219.155 -819.358)" fill="#fca56b"/>
            <path id="Path_613257" data-name="Path 613257" d="M262.365,947.62s-8.378,2.614-9.926-2.629-3.671-8.436,1.613-10.327,6.919-.2,7.861,1.426,2.591,10.715.452,11.529" transform="translate(-205.522 -765.607)" fill="#ffb27d"/>
            <path id="Path_613258" data-name="Path 613258" d="M245,922.557s-.534,6.1-1.8,5.836-2.65-.831-2.466,1.008-1.227,4.992-3.046,4.984c-3.9-.016-8.141-10.028-7.073-11.927,3.082-5.478,18.835-6.584,14.381.1" transform="translate(-188.934 -752.579)" fill="#163560"/>
            <path id="Path_613259" data-name="Path 613259" d="M265.389,1023.757c-.108-.045-6.237-2.795-6.954-2.558s-1.61,2.426-1.61,2.426l10.792,2.44a5.361,5.361,0,0,0-2.228-2.308" transform="translate(-210.56 -837.226)" fill="#ed7d2b"/>
            <path id="Path_613260" data-name="Path 613260" d="M345.191,1185.337l-34.357,32.348c-.673.634-1.523.836-1.887.449l-1.16-1.232c-.365-.387-.112-1.223.562-1.857l34.357-32.348c.673-.634,1.523-.836,1.887-.449l1.16,1.232c.365.387.112,1.223-.562,1.857" transform="translate(-252.205 -969.113)" fill="#1f4d84"/>
            <path id="Path_613261" data-name="Path 613261" d="M325.911,1289.046l-15.077,14.195c-.673.634-1.523.836-1.887.449l-1.16-1.232c-.365-.387-.112-1.223.562-1.857l15.077-14.195Z" transform="translate(-252.205 -1054.669)" fill="#739af0"/>
            <path id="Path_613262" data-name="Path 613262" d="M467.031,974.174a26.929,26.929,0,1,0,44.634-27.062q-.207-.206-.423-.408a26.931,26.931,0,0,0-44.211,27.47m7.7-24.854a24.8,24.8,0,1,1,1.068,35.061,24.775,24.775,0,0,1-1.068-35.061" transform="translate(-381.941 -770.164)" fill="#1f4d84"/>
            <g id="Group_1073048" data-name="Group 1073048" transform="translate(86.047 171.35)" opacity="0.5">
              <g id="Group_1073047" data-name="Group 1073047">
                <g id="Group_1073046" data-name="Group 1073046" clip-path="url(#clip-path-5)">
                  <path id="Path_613263" data-name="Path 613263" d="M520.528,992.987a24.8,24.8,0,1,1-1.069-35.06,24.7,24.7,0,0,1,1.069,35.06" transform="translate(-477.661 -951.19)" fill="#b3cff9"/>
                </g>
              </g>
            </g>
            <path id="Path_613264" data-name="Path 613264" d="M259.2,1126.138c-18.931-13.49-17.357-31.491-17.357-31.491,6.919,3.9,13.785,12.531,16.935,20.016.185,4.287.342,8.437.422,11.475" transform="translate(-198.247 -897.454)" fill="#ed7d2b"/>
            <path id="Path_613265" data-name="Path 613265" d="M431.739,1228.557a5.164,5.164,0,0,0,2.418-1.494s.569.039-.093,1.253c-.055.1-.178.363-.271.547a.118.118,0,0,0,.1.17,12.6,12.6,0,0,1,3.029.063c.2.043.264.533.257.742a1.9,1.9,0,0,1-.4,1.293,6.616,6.616,0,0,1-2.392,1.253,7.232,7.232,0,0,1-3.7-.465l-1.212-.561.376-2.252.3.064c.484.1,1.082-.489,1.587-.613" transform="translate(-352.106 -1006.017)" fill="#ffb27d"/>
            <path id="Path_613266" data-name="Path 613266" d="M246.065,1048.276s-17.01,3.239,5,27.871c3.521,3.939,22.543,9.069,22.543,9.069s1.929-1.641.957-2.971c0,0-13.1-9.511-15.979-11.023-1.3-.68-5.031-15.18-7.145-18.673a9.528,9.528,0,0,0-5.381-4.274" transform="translate(-196.597 -859.436)" fill="#f99746"/>
            <path id="Path_613267" data-name="Path 613267" d="M456.589,1080.412a8.659,8.659,0,0,0,.665-1.624,8.972,8.972,0,0,1,1.1-2.484c.116-.115.5.034.542.53a2.883,2.883,0,0,1-.273,1.076,12.134,12.134,0,0,0-.36,2.138c-.263.857-1.671.366-1.671.366" transform="translate(-374.338 -882.384)" fill="#ffb27d"/>
            <path id="Path_613268" data-name="Path 613268" d="M492.964,823.115a1.026,1.026,0,0,0-.183,1.1.009.009,0,0,0,0,.005,6.817,6.817,0,0,0,2.154,2.365c.13.1.245.2.346.289.026.023.053.046.078.07l.06.054c.947.874.59,1.073,2.292,2.846,1.94,2.02,3.276,2.056,3.656,1.873.322-.157-.331-1.228-1.055-2.431-.035-.058-.069-.117-.105-.176-.1-.16-.192-.323-.288-.483-.848-1.449-.63-2.128-.428-4.284.164-1.752,2.728-9.785,2.728-9.785l-3.718-.642s-1.122,6.4-2.356,7.382c-.66.525-1.4.531-2.033.92-.045.027-.089.055-.132.083a4.88,4.88,0,0,0-1.018.817" transform="translate(-403.943 -667.291)" fill="#ffb27d"/>
            <path id="Path_613269" data-name="Path 613269" d="M492.964,861.281a1.026,1.026,0,0,0-.183,1.1.01.01,0,0,0,0,.005,7.9,7.9,0,0,0,2.158,2.357c.128.107.241.2.342.3.026.023.053.046.078.07l.06.054c.947.874.59,1.073,2.292,2.846,1.94,2.02,3.276,2.056,3.656,1.873.322-.157-.331-1.228-1.055-2.431a8.268,8.268,0,0,1-3.458-2.55c-1.126-1.437-1.889-3.269-2.655-4.393l-.219-.041a4.888,4.888,0,0,0-1.018.818" transform="translate(-403.943 -705.457)" fill="#233862"/>
            <path id="Path_613270" data-name="Path 613270" d="M647.1,815.691c.229,1.148,1.866.957,3.693.511s1.394.085,4-.2,3.39-1.257,3.47-1.644c.071-.343-1.214-.465-2.593-.624-.173-.019-.348-.041-.522-.063-1.557-.2-2.7-1.2-4.11-2.026-1.339-.782-3.337-3.966-3.337-3.966l-3.568.281s1.871,2.844,2.595,4.081a4.312,4.312,0,0,1,.349,2.432,4.582,4.582,0,0,0,.027,1.22" transform="translate(-528.09 -662.18)" fill="#ffb27d"/>
            <path id="Path_613271" data-name="Path 613271" d="M664.065,843.761c1.828-.446,1.393.085,4-.2s3.39-1.257,3.47-1.644c.071-.343-1.214-.465-2.593-.624l-.013.026a7.333,7.333,0,0,1-3.726,1.157c-1.765.042-3.634-.464-4.853-.445a4.572,4.572,0,0,0,.027,1.22c.229,1.148,1.865.957,3.693.511" transform="translate(-541.366 -689.738)" fill="#233862"/>
            <path id="Path_613272" data-name="Path 613272" d="M529.025,699.46l-3.338,8.974-4.358,11.717a7.055,7.055,0,0,1-2.313-.212,10.033,10.033,0,0,1-2.237-1.09s1.213-12.582,3.471-19.8a12.868,12.868,0,0,1,1.942-4.2c3.5-4.131,6.833,4.612,6.833,4.612" transform="translate(-423.684 -568.766)" fill="#233862"/>
            <path id="Path_613273" data-name="Path 613273" d="M419.125,638.165c-1.9-.613-6.852-.012-12.226.959a3.644,3.644,0,0,1-3.762-1.7l-13.522-1.061s-4.466,9.894-2.025,16.2a2.373,2.373,0,0,0,2.363,1.525h0s8.171.014,10.784.015c6.725,0,14.234-4.618,15.2-4.812,1.59-.317,2.224,2.862,3.813,6.2s14.937,14.788,14.937,14.788a11.753,11.753,0,0,0,2.9-.3,2.857,2.857,0,0,0,1.246-.786s-14.785-29.441-19.712-31.033" transform="translate(-317.17 -521.726)" fill="#2a4e96"/>
            <path id="Path_613274" data-name="Path 613274" d="M369.079,418.168a4.8,4.8,0,0,0-2.583-.673,7.19,7.19,0,0,1-1.247-.076c-5.161-.759-8.271,6.737-8.454,9-.336,4.158-2.536,4.792-5.633,7.395-6.21,5.22-4.392,11.288-1,13.544,2.037,1.353,5.628,0,5.628,0,.051.035,9.821-5.457,14.637-8.107,7.219-1.024,1.55-19.359-1.35-21.087" transform="translate(-284.535 -342.18)" fill="#233862"/>
            <path id="Path_613275" data-name="Path 613275" d="M424.427,491.875a6.363,6.363,0,0,1-3.967.121c-1.5-.665-2.642-3.139-2.619-3.141.684-.032,1.435-.629,2.015-4.553l.291.1,4.9,1.764s-.355,1.571-.585,3.068c-.194,1.256-.3,2.459-.031,2.637" transform="translate(-342.569 -397.058)" fill="#ffb27d"/>
            <path id="Path_613276" data-name="Path 613276" d="M435.541,486.646s-.2.848-.481,2.432a5.53,5.53,0,0,1-4.415-4.2Z" transform="translate(-353.066 -397.534)" fill="#ed975d"/>
            <path id="Path_613277" data-name="Path 613277" d="M434.039,449.69s-6.7-.9-6.074-5.066.182-7.085,4.487-6.685,4.895,2.113,5.024,3.554-1.677,8.324-3.436,8.2" transform="translate(-350.836 -359.018)" fill="#ffb27d"/>
            <path id="Path_613278" data-name="Path 613278" d="M428.486,437.536s-4.29,3.695-7.208,3.992-4.022-.64-4.022-.64a11.393,11.393,0,0,0,2.756-3.731,2.052,2.052,0,0,1,1.692-1.209c2.083-.179,6.033-.26,6.783,1.588" transform="translate(-342.09 -357.343)" fill="#233862"/>
            <path id="Path_613279" data-name="Path 613279" d="M464.712,439.673a10.565,10.565,0,0,1,1.886,2.417,8.108,8.108,0,0,1,.218,4.312s2.237-4.346.972-6.459c-1.342-2.24-3.076-.27-3.076-.27" transform="translate(-380.997 -359.812)" fill="#233862"/>
            <path id="Path_613280" data-name="Path 613280" d="M403.878,521.75c-.207,13.563-.059,10.729-1.543,12.016a5.7,5.7,0,0,1-2.686.581c-4.159.275-11.47-.413-11.747-1.182-.958-2.66-.281-3.486-1.08-7.558-.083-.433-.186-.9-.307-1.412-.666-2.8-1.315-3.748,1.053-8.24,2.148-4.069,4.38-7.371,4.581-7.252,5.663,3.365,6.121.538,6.121.538s5.71,5.893,5.608,12.509" transform="translate(-316.381 -417.061)" fill="#f99746"/>
            <path id="Path_613281" data-name="Path 613281" d="M525.686,732.582,521.328,744.3a7.055,7.055,0,0,1-2.313-.212,10.025,10.025,0,0,1-2.237-1.09s1.213-12.582,3.471-19.8Z" transform="translate(-423.684 -592.915)" fill="#2a4e96"/>
            <path id="Path_613282" data-name="Path 613282" d="M454.577,511.7s5.828.99,6.512,3.5,2.931,17.742,2.931,17.742-1.644,1.6-3.013.235-4.3-14.253-4.3-14.253Z" transform="translate(-372.688 -419.522)" fill="#f99746"/>
            <path id="Path_613283" data-name="Path 613283" d="M403.854,585.59c-4.159.275-11.47-.413-11.748-1.182-.958-2.66-.281-3.486-1.08-7.558l2.008-5.648s-.334,6.29,1.521,7.945,7.594,3.2,8.5,4.579a5.062,5.062,0,0,1,.8,1.863" transform="translate(-320.586 -468.305)" fill="#ed7d2b"/>
            <path id="Path_613284" data-name="Path 613284" d="M435.787,633.49s4.1-.912,4.765-.548a9.635,9.635,0,0,1,2.482,2.152c.2.462-1.474-.351-2.019-.5a4.858,4.858,0,0,0-1.743.381,5.793,5.793,0,0,1-3.123.313Z" transform="translate(-357.283 -518.852)" fill="#ffb27d"/>
            <path id="Path_613285" data-name="Path 613285" d="M360.051,508.7s-5.509.338-7.418,3c-2.686,3.744-8.017,19.7-4.966,21.829,3.437,2.4,15.644.633,15.644.633a4.958,4.958,0,0,0-.158-2.817c-.565-.919-9.749-2.405-10.173-2.83s5.3-8.264,5.3-9.536,1.768-10.276,1.768-10.276" transform="translate(-284.287 -417.062)" fill="#f99746"/>
            <path id="Path_613286" data-name="Path 613286" d="M463.34,639.672a7.935,7.935,0,0,0,1.141,1.242.839.839,0,0,0,.464.1l-.579-1.043Z" transform="translate(-379.872 -524.44)" fill="#ffb27d"/>
            <path id="Path_613287" data-name="Path 613287" d="M462.24,633.333l2.5,1.215a.445.445,0,0,1-.414.16,5.967,5.967,0,0,1-1.084-.3Z" transform="translate(-378.971 -519.243)" fill="#ffb27d"/>
            <path id="Path_613288" data-name="Path 613288" d="M461.89,649.173l-26.109-.009v.576l25.878.009Z" transform="translate(-357.278 -532.221)" fill="#233862"/>
            <path id="Path_613289" data-name="Path 613289" d="M469.673,585.07l19.772.007,5.953-14.789-19.742-.007Z" transform="translate(-385.065 -467.549)" fill="#233862"/>
            <path id="Path_613290" data-name="Path 613290" d="M543,607.065a.685.685,0,0,0-.671-.942,1.349,1.349,0,0,0-1.212.941.685.685,0,0,0,.671.942,1.349,1.349,0,0,0,1.212-.941" transform="translate(-443.604 -496.934)" fill="#fff"/>
            <path id="Path_613291" data-name="Path 613291" d="M1238.981,960.443a5.677,5.677,0,0,0-4.508.232c-7.669.315-7.954,8.176-7.054,11.1,1.264,4.109-3.21,7.349,1.752,9.011,5.757,1.929,10.588-.36,10.259.634,18.207,1.435,5.608-18.967-.45-20.979" transform="translate(-1005.776 -787.146)" fill="#163560"/>
            <path id="Path_613292" data-name="Path 613292" d="M1198.838,1100.063a20.1,20.1,0,0,1-2.051,3.1c-1.593,2-9.955-2.741-9.234-3.1s4.922-12.465,5.922-13.986,4.411-2.311,4.411-2.311Z" transform="translate(-973.588 -888.533)" fill="#f99746"/>
            <path id="Path_613293" data-name="Path 613293" d="M1368.985,1622.9s2.308,2.106,1.857,3.6-2.533,2.494-2.814,4.323-1.407,2.827-2.42,2.827h-4.831s-.746-1.287,1.056-1.675,2.48-2.537,2.368-4.533a35.146,35.146,0,0,1,.169-4.656l3.828-.887Z" transform="translate(-1115.517 -1329.728)" fill="#1f447f"/>
            <path id="Path_613294" data-name="Path 613294" d="M1238.757,1632.405s.83,8.922-.183,9.421l-12.967-.027s0-1.5,2.083-1.829,5.741-1.552,6.361-4.268,4.706-3.3,4.706-3.3" transform="translate(-1004.822 -1338.339)" fill="#1c3154"/>
            <path id="Path_613295" data-name="Path 613295" d="M1247.352,1090.832a51.642,51.642,0,0,1,0,5.993c-.128,2.167-2.32,5.069-2.631,5.787-.78,1.8-1.66,2.094-1.66,2.094l-6.808,1.668-2.394.586-7.549-2.255s-3.438-9.6-2.058-15a41.517,41.517,0,0,1,3.49-9.154s5.13-1.153,14.18-.511Z" transform="translate(-1003.443 -885.32)" fill="#f99746"/>
            <path id="Path_613296" data-name="Path 613296" d="M1298.51,1147.8c-.128,2.167-2.969,4.994-3.28,5.712-.78,1.8-1.66,2.094-1.66,2.094l-6.808,1.669-1.229-3.523s9.948-2.613,8.348-11.82Z" transform="translate(-1053.952 -936.223)" fill="#ed7d2b"/>
            <path id="Path_613297" data-name="Path 613297" d="M1221.695,1225.931s-3.739,11.636-3.979,15.6,7.146,56.28,7.443,58.106c.28,1.721,2.417,2.818,2.417,2.818a3.234,3.234,0,0,0,2.385.184,5.9,5.9,0,0,0,2.561-1.207s2.91-37.313,1.109-50.642a211.12,211.12,0,0,1-1.822-24.856Z" transform="translate(-998.348 -1005.088)" fill="#233862"/>
            <path id="Path_613298" data-name="Path 613298" d="M1261.268,1224.005s5.7,7.651,6.234,12.824.834,23.34,1.967,28.382,5.294,14.746,5.294,30.472a3.135,3.135,0,0,1-1.768,1.382,14.547,14.547,0,0,1-1.555.43,2.444,2.444,0,0,1-2.734-1.3c-2.813-5.664-11.775-23.934-12.234-27.726-.325-2.684-3.155-20.446-9.327-30.868-1.482-2.5.91-12.453.91-12.453Z" transform="translate(-1022.082 -1003.509)" fill="#2a4e96"/>
            <path id="Path_613299" data-name="Path 613299" d="M1235.547,1215.959a7.834,7.834,0,0,0,4.482,1.247c3.561.072,12.386-.908,12.386-.908a7.294,7.294,0,0,1,.376,2.252s-10.777,2.719-17.022.4a3.947,3.947,0,0,1-.222-2.989" transform="translate(-1012.797 -996.912)" fill="#233862"/>
            <path id="Path_613300" data-name="Path 613300" d="M1249.255,1223.177a1.853,1.853,0,1,1,1.625-1.839,1.744,1.744,0,0,1-1.625,1.839m0-3.14a1.322,1.322,0,1,0,1.086,1.3,1.209,1.209,0,0,0-1.086-1.3" transform="translate(-1022.878 -999.815)" fill="#fff"/>
            <path id="Path_613301" data-name="Path 613301" d="M1189.874,1173.237l-16.2.152-7.971-18.733,16.2-.151Z" transform="translate(-955.711 -946.529)" fill="#b5453c"/>
            <path id="Path_613302" data-name="Path 613302" d="M1250.293,1198.006l-1.187-1.459a4.174,4.174,0,0,0-1.387-.838c-.583-.122-1.814-.832-1.934-.632s.946,1.627.946,1.627l.054.008c-1.223.92-4.311.108-4.692.483-.462.455.636,1.438,1.225,1.99a4.324,4.324,0,0,0,3.586,1.064c.96-.3,2.47-.6,2.47-.6Z" transform="translate(-1018.249 -979.763)" fill="#ffb27d"/>
            <path id="Path_613303" data-name="Path 613303" d="M1171.995,1170.214s1.018-1.157,1.666-.6-.17,3.285-.787,3.008-1.234-2.067-.879-2.406" transform="translate(-960.783 -958.791)" fill="#ffb27d"/>
            <path id="Path_613304" data-name="Path 613304" d="M1286.4,1080.927s4.637.511,7.965,6.558c2.624,4.768,7.11,13.558,5.417,16.041-.743,1.09-7.867,4.969-21.607,2.752a4.158,4.158,0,0,1,1.325-2.54s11.563-3.712,11.543-4.451c-.037-1.4-1.562-2.6-8.022-9.065-1.756-1.757,3.378-9.295,3.378-9.295" transform="translate(-1047.923 -886.206)" fill="#f99746"/>
            <path id="Path_613305" data-name="Path 613305" d="M1272.149,1050.019c.159-.214-.046-.9-.3-2.164a23.7,23.7,0,0,1-.614-4.926l-.342.057-5.747.967s.131,1.537.135,2.984c0,.012,0,.024,0,.036.007,1.257-.339,3.157.085,3.405,2.178,1.276,6.171.463,6.784-.36" transform="translate(-1037.239 -855.053)" fill="#ffb27d"/>
            <path id="Path_613306" data-name="Path 613306" d="M1265.146,1044.214s.115,2.167.118,3.614c3.216-.077,4.933-3.2,5.629-4.581Z" transform="translate(-1037.239 -855.313)" fill="#e8945b"/>
            <path id="Path_613307" data-name="Path 613307" d="M1245.265,1002.483s7.534-1.073,6.794-5.755-.267-7.973-5.109-7.486-5.491,2.421-5.624,4.044,1.96,9.355,3.939,9.2" transform="translate(-1017.704 -810.998)" fill="#ffb27d"/>
            <path id="Path_613308" data-name="Path 613308" d="M1253.475,985.944s2.932,5.164,6.219,5.473,4.522-.755,4.522-.755a9.054,9.054,0,0,1-3.766-4.817s-5.839-2.762-6.975.1" transform="translate(-1027.67 -807.269)" fill="#163560"/>
            <path id="Path_613309" data-name="Path 613309" d="M1241.075,990.693a4.721,4.721,0,0,0-1.885,2.026,7.662,7.662,0,0,0-.331,4.459s-2.145-3.486-.739-5.874c1.49-2.533,2.956-.611,2.956-.611" transform="translate(-1014.689 -811.654)" fill="#163560"/>
          </g>
        </g>
      </g>
    </g>
  </g>
</svg>
