<svg xmlns="http://www.w3.org/2000/svg" width="505" height="595.676" viewBox="0 0 505 595.676">
  <g id="Group_1073125" data-name="Group 1073125" transform="translate(-8206.707 10398.676)">
    <g id="Group_1072064" data-name="Group 1072064" transform="translate(91.707 274.324)">
      <rect id="Rectangle_377421" data-name="Rectangle 377421" width="505" height="595.676" transform="translate(8115 -10673)" fill="#fff"/>
      <g id="Group_1071648" data-name="Group 1071648" transform="translate(7672 -10896.566)">
        <g id="Group_1071641" data-name="Group 1071641" transform="translate(105 71)">
          <rect id="Rectangle_347551" data-name="Rectangle 347551" width="209" height="43" rx="18" transform="translate(601 665)" fill="#60cb28"/>
          <text id="MAGERIT_" data-name="MAGERIT
" transform="translate(620 677)" fill="#12263f" font-size="16" font-family="Roboto-Bold, Roboto" font-weight="700"><tspan x="50.898" y="15">MAGERIT</tspan></text>
        </g>
      </g>
      <g id="Group_1071653" data-name="Group 1071653" transform="translate(7478 -10094.2) rotate(-90)">
        <path id="Path_612126" data-name="Path 612126" d="M0,0H85.74" transform="translate(156.8 734)" fill="none" stroke="#7e19b8" stroke-width="2"/>
        <path id="Polygon_4" data-name="Polygon 4" d="M6.5,0,13,8H0Z" transform="translate(246.8 727.5) rotate(90)" fill="#7e19b8"/>
      </g>
      <g id="Group_1072044" data-name="Group 1072044" transform="translate(8055.2 -11221)">
        <path id="Path_612126-2" data-name="Path 612126" d="M0,0H52.74" transform="translate(156.8 734)" fill="none" stroke="#7e19b8" stroke-width="2"/>
        <path id="Polygon_4-2" data-name="Polygon 4" d="M6.5,0,13,8H0Z" transform="translate(213.8 727.5) rotate(90)" fill="#7e19b8"/>
      </g>
      <g id="Group_1072045" data-name="Group 1072045" transform="translate(8677.3 -9523.5) rotate(180)">
        <path id="Path_612126-3" data-name="Path 612126" d="M0,0H51.24" transform="translate(156.8 734)" fill="none" stroke="#7e19b8" stroke-width="2"/>
        <path id="Polygon_4-3" data-name="Polygon 4" d="M6.5,0,13,8H0Z" transform="translate(212.3 727.5) rotate(90)" fill="#7e19b8"/>
      </g>
      <g id="Group_1072046" data-name="Group 1072046" transform="translate(9254 -10643.8) rotate(90)">
        <path id="Path_612126-4" data-name="Path 612126" d="M0,0H73.74" transform="translate(156.8 734)" fill="none" stroke="#7e19b8" stroke-width="2"/>
        <path id="Polygon_4-4" data-name="Polygon 4" d="M6.5,0,13,8H0Z" transform="translate(234.8 727.5) rotate(90)" fill="#7e19b8"/>
      </g>
      <g id="Group_1072047" data-name="Group 1072047" transform="translate(9095 -10710.8) rotate(90)">
        <path id="Path_612126-5" data-name="Path 612126" d="M0,0H24.74" transform="translate(156.8 734)" fill="none" stroke="#7e19b8" stroke-width="2"/>
        <path id="Polygon_4-5" data-name="Polygon 4" d="M6.5,0,13,8H0Z" transform="translate(185.8 727.5) rotate(90)" fill="#7e19b8"/>
      </g>
      <g id="Group_1072048" data-name="Group 1072048" transform="translate(8156.533 -11340.4)">
        <path id="Path_612126-6" data-name="Path 612126" d="M0,0H87.808" transform="translate(156.8 734)" fill="none" stroke="#7e19b8" stroke-width="2"/>
        <path id="Polygon_4-6" data-name="Polygon 4" d="M6.5,0,13,8H0Z" transform="translate(248.867 727.5) rotate(90)" fill="#7e19b8"/>
      </g>
      <line id="Line_153" data-name="Line 153" x1="48" transform="translate(8211 -10251)" fill="none" stroke="#7e19b8" stroke-width="2"/>
      <line id="Line_155" data-name="Line 155" y1="78" transform="translate(8212 -10487)" fill="none" stroke="#7e19b8" stroke-width="2"/>
      <line id="Line_919" data-name="Line 919" x1="80" transform="translate(8441 -10487)" fill="none" stroke="#7e19b8" stroke-width="2"/>
      <line id="Line_920" data-name="Line 920" x1="128" transform="translate(8361 -10554)" fill="none" stroke="#7e19b8" stroke-width="2"/>
      <line id="Line_921" data-name="Line 921" y1="19" transform="translate(8489 -10573)" fill="none" stroke="#7e19b8" stroke-width="2"/>
      <g id="Group_1071655" data-name="Group 1071655" transform="translate(7550 -11222.75)">
        <line id="Line_156" data-name="Line 156" y1="85.75" x2="0.5" transform="translate(970 880.25)" fill="none" stroke="#7e19b8" stroke-width="2"/>
      </g>
      <path id="Path_610088" data-name="Path 610088" d="M9794.974-9708.266l-14.992,31.395h7.442v117.646h-7.442l14.992,31.395,14.993-31.395h-7.038v-117.646h7.038Z" transform="translate(-1227.5 -632.735)" fill="#60cb28"/>
      <g id="Group_1072041" data-name="Group 1072041" transform="translate(1027 -130)">
        <g id="Group_1071645" data-name="Group 1071645" transform="translate(7139 -10279)">
          <g id="Group_1071641-2" data-name="Group 1071641" transform="translate(0)">
            <path id="Path_610595" data-name="Path 610595" d="M14.411,0h138.51c7.959,0,14.411,8.179,14.411,18.269V49.731c0,10.09-6.452,18.269-14.411,18.269H14.411C6.452,68,0,59.821,0,49.731V18.269C0,8.179,6.452,0,14.411,0Z" fill="#304c8e"/>
            <text id="_4.6_Mejora_continua_del_marco_" data-name="4.6 Mejora continua del marco
" transform="translate(10 12)" fill="#fff" font-size="16" font-family="Roboto-Bold, Roboto" font-weight="700"><tspan x="2.242" y="15">4.6 Mejora continua </tspan><tspan x="38.301" y="39">del marco</tspan></text>
          </g>
        </g>
        <g id="Group_1072002" data-name="Group 1072002" transform="translate(7131 -10243.286)">
          <circle id="Ellipse_4752" data-name="Ellipse 4752" cx="2" cy="2" r="2" transform="translate(8 0.286)" fill="#60cb28"/>
          <circle id="Ellipse_5868" data-name="Ellipse 5868" cx="2" cy="2" r="2" transform="translate(0 0.286)" fill="#60cb28"/>
          <circle id="Ellipse_4757" data-name="Ellipse 4757" cx="2" cy="2" r="2" transform="translate(8 7.286)" fill="#60cb28"/>
          <circle id="Ellipse_5867" data-name="Ellipse 5867" cx="2" cy="2" r="2" transform="translate(0 7.286)" fill="#60cb28"/>
          <circle id="Ellipse_4760" data-name="Ellipse 4760" cx="2" cy="2" r="2" transform="translate(8 14.286)" fill="#60cb28"/>
          <circle id="Ellipse_5866" data-name="Ellipse 5866" cx="2" cy="2" r="2" transform="translate(0 14.286)" fill="#60cb28"/>
          <circle id="Ellipse_4753" data-name="Ellipse 4753" cx="2" cy="2" r="2" transform="translate(17 0.286)" fill="#60cb28"/>
          <circle id="Ellipse_4756" data-name="Ellipse 4756" cx="2" cy="2" r="2" transform="translate(17 7.286)" fill="#60cb28"/>
          <circle id="Ellipse_4759" data-name="Ellipse 4759" cx="2" cy="2" r="2" transform="translate(17 14.286)" fill="#60cb28"/>
          <circle id="Ellipse_4754" data-name="Ellipse 4754" cx="2" cy="2" r="2" transform="translate(25 0.286)" fill="#60cb28"/>
          <circle id="Ellipse_4755" data-name="Ellipse 4755" cx="2" cy="2" r="2" transform="translate(25 7.286)" fill="#60cb28"/>
          <circle id="Ellipse_4758" data-name="Ellipse 4758" cx="2" cy="2" r="2" transform="translate(25 14.286)" fill="#60cb28"/>
        </g>
      </g>
      <g id="Group_1072040" data-name="Group 1072040" transform="translate(835 -153)">
        <g id="Group_1071644" data-name="Group 1071644" transform="translate(7434 -10372)">
          <g id="Group_1071641-3" data-name="Group 1071641" transform="translate(0)">
            <rect id="Rectangle_347551-2" data-name="Rectangle 347551" width="172" height="67" rx="18" fill="#304c8e"/>
            <text id="_4.3_Diseño_del_marco_de_trabajo_" data-name="4.3 Diseño del marco de trabajo
" transform="translate(19 12)" fill="#fff" font-size="16" font-family="Roboto-Bold, Roboto" font-weight="700"><tspan x="15.797" y="15">4.3 Diseño del </tspan><tspan x="6.242" y="39">marco de trabajo</tspan></text>
          </g>
        </g>
        <g id="Group_1072003" data-name="Group 1072003" transform="translate(7454 -10314)">
          <circle id="Ellipse_4752-2" data-name="Ellipse 4752" cx="2" cy="2" r="2" transform="translate(8 0)" fill="#60cb28"/>
          <circle id="Ellipse_5868-2" data-name="Ellipse 5868" cx="2" cy="2" r="2" transform="translate(0 0)" fill="#60cb28"/>
          <circle id="Ellipse_4757-2" data-name="Ellipse 4757" cx="2" cy="2" r="2" transform="translate(8 7)" fill="#60cb28"/>
          <circle id="Ellipse_5867-2" data-name="Ellipse 5867" cx="2" cy="2" r="2" transform="translate(0 7)" fill="#60cb28"/>
          <circle id="Ellipse_4760-2" data-name="Ellipse 4760" cx="2" cy="2" r="2" transform="translate(8 14)" fill="#60cb28"/>
          <circle id="Ellipse_5866-2" data-name="Ellipse 5866" cx="2" cy="2" r="2" transform="translate(0 14)" fill="#60cb28"/>
          <circle id="Ellipse_4753-2" data-name="Ellipse 4753" cx="2" cy="2" r="2" transform="translate(17 0)" fill="#60cb28"/>
          <circle id="Ellipse_4756-2" data-name="Ellipse 4756" cx="2" cy="2" r="2" transform="translate(17 7)" fill="#60cb28"/>
          <circle id="Ellipse_4759-2" data-name="Ellipse 4759" cx="2" cy="2" r="2" transform="translate(17 14)" fill="#60cb28"/>
          <circle id="Ellipse_4754-2" data-name="Ellipse 4754" cx="2" cy="2" r="2" transform="translate(25 0)" fill="#60cb28"/>
          <circle id="Ellipse_4755-2" data-name="Ellipse 4755" cx="2" cy="2" r="2" transform="translate(25 7)" fill="#60cb28"/>
          <circle id="Ellipse_4758-2" data-name="Ellipse 4758" cx="2" cy="2" r="2" transform="translate(25 14)" fill="#60cb28"/>
        </g>
      </g>
      <g id="Group_1072039" data-name="Group 1072039" transform="translate(27 3)">
        <g id="Group_1071643" data-name="Group 1071643" transform="translate(8139.4 -10644)">
          <g id="Group_1071639" data-name="Group 1071639" transform="translate(-0.4)">
            <rect id="Rectangle_347551-3" data-name="Rectangle 347551" width="152" height="53" rx="18" fill="#304c8e"/>
            <text id="_3._Principios_" data-name="3. Principios
" transform="translate(29 17)" fill="#fff" font-size="16" font-family="Roboto-Bold, Roboto" font-weight="700"><tspan x="0" y="15">3. Principios</tspan></text>
          </g>
        </g>
        <g id="Group_1071642" data-name="Group 1071642" transform="translate(8376 -10644)">
          <g id="Group_1071640" data-name="Group 1071640">
            <rect id="Rectangle_347551-4" data-name="Rectangle 347551" width="167" height="67" rx="18" fill="#304c8e"/>
            <text id="_4.2_Mandato_y_compromiso_" data-name="4.2 Mandato y compromiso 
" transform="translate(18 12)" fill="#fff" font-size="16" font-family="Roboto-Bold, Roboto" font-weight="700"><tspan x="14.813" y="15">4.2 Mandato y </tspan><tspan x="20.891" y="39">compromiso </tspan></text>
          </g>
        </g>
        <g id="Group_1071995" data-name="Group 1071995" transform="translate(8147.4 -10601)">
          <circle id="Ellipse_4752-3" data-name="Ellipse 4752" cx="2" cy="2" r="2" transform="translate(7.6 0)" fill="#60cb28"/>
          <circle id="Ellipse_5868-3" data-name="Ellipse 5868" cx="2" cy="2" r="2" transform="translate(-0.4 0)" fill="#60cb28"/>
          <circle id="Ellipse_4757-3" data-name="Ellipse 4757" cx="2" cy="2" r="2" transform="translate(7.6 7)" fill="#60cb28"/>
          <circle id="Ellipse_5867-3" data-name="Ellipse 5867" cx="2" cy="2" r="2" transform="translate(-0.4 7)" fill="#60cb28"/>
          <circle id="Ellipse_4760-3" data-name="Ellipse 4760" cx="2" cy="2" r="2" transform="translate(7.6 14)" fill="#60cb28"/>
          <circle id="Ellipse_5866-3" data-name="Ellipse 5866" cx="2" cy="2" r="2" transform="translate(-0.4 14)" fill="#60cb28"/>
          <circle id="Ellipse_4753-3" data-name="Ellipse 4753" cx="2" cy="2" r="2" transform="translate(16.6 0)" fill="#60cb28"/>
          <circle id="Ellipse_4756-3" data-name="Ellipse 4756" cx="2" cy="2" r="2" transform="translate(16.6 7)" fill="#60cb28"/>
          <circle id="Ellipse_4759-3" data-name="Ellipse 4759" cx="2" cy="2" r="2" transform="translate(16.6 14)" fill="#60cb28"/>
          <circle id="Ellipse_4754-3" data-name="Ellipse 4754" cx="2" cy="2" r="2" transform="translate(24.6 0)" fill="#60cb28"/>
          <circle id="Ellipse_4755-3" data-name="Ellipse 4755" cx="2" cy="2" r="2" transform="translate(24.6 7)" fill="#60cb28"/>
          <circle id="Ellipse_4758-3" data-name="Ellipse 4758" cx="2" cy="2" r="2" transform="translate(24.6 14)" fill="#60cb28"/>
        </g>
        <g id="Group_1072004" data-name="Group 1072004" transform="translate(8416.465 -10586)">
          <circle id="Ellipse_4752-4" data-name="Ellipse 4752" cx="2" cy="2" r="2" transform="translate(7.535 0)" fill="#60cb28"/>
          <circle id="Ellipse_5868-4" data-name="Ellipse 5868" cx="2" cy="2" r="2" transform="translate(-0.465 0)" fill="#60cb28"/>
          <circle id="Ellipse_4757-4" data-name="Ellipse 4757" cx="2" cy="2" r="2" transform="translate(7.535 7)" fill="#60cb28"/>
          <circle id="Ellipse_5867-4" data-name="Ellipse 5867" cx="2" cy="2" r="2" transform="translate(-0.465 7)" fill="#60cb28"/>
          <circle id="Ellipse_4760-4" data-name="Ellipse 4760" cx="2" cy="2" r="2" transform="translate(7.535 14)" fill="#60cb28"/>
          <circle id="Ellipse_5866-4" data-name="Ellipse 5866" cx="2" cy="2" r="2" transform="translate(-0.465 14)" fill="#60cb28"/>
          <circle id="Ellipse_4753-4" data-name="Ellipse 4753" cx="2" cy="2" r="2" transform="translate(16.535 0)" fill="#60cb28"/>
          <circle id="Ellipse_4756-4" data-name="Ellipse 4756" cx="2" cy="2" r="2" transform="translate(16.535 7)" fill="#60cb28"/>
          <circle id="Ellipse_4759-4" data-name="Ellipse 4759" cx="2" cy="2" r="2" transform="translate(16.535 14)" fill="#60cb28"/>
          <circle id="Ellipse_4754-4" data-name="Ellipse 4754" cx="2" cy="2" r="2" transform="translate(24.535 0)" fill="#60cb28"/>
          <circle id="Ellipse_4755-4" data-name="Ellipse 4755" cx="2" cy="2" r="2" transform="translate(24.535 7)" fill="#60cb28"/>
          <circle id="Ellipse_4758-4" data-name="Ellipse 4758" cx="2" cy="2" r="2" transform="translate(24.535 14)" fill="#60cb28"/>
        </g>
      </g>
      <g id="Group_1072043" data-name="Group 1072043" transform="translate(823 -106)">
        <g id="Group_1071647" data-name="Group 1071647" transform="translate(7434 -10182)">
          <g id="Group_1071641-4" data-name="Group 1071641" transform="translate(0)">
            <rect id="Rectangle_347551-5" data-name="Rectangle 347551" width="208" height="67" rx="18" fill="#304c8e"/>
            <text id="_4.5_Seguimiento_y_revisión_del_marco_" data-name="4.5 Seguimiento y revisión del marco
" transform="translate(19 12)" fill="#fff" font-size="16" font-family="Roboto-Bold, Roboto" font-weight="700"><tspan x="20.129" y="15">4.5 Seguimiento y </tspan><tspan x="18.789" y="39">revisión del marco</tspan></text>
          </g>
        </g>
        <g id="Group_1072005" data-name="Group 1072005" transform="translate(7454 -10124)">
          <circle id="Ellipse_4752-5" data-name="Ellipse 4752" cx="2" cy="2" r="2" transform="translate(8 0)" fill="#60cb28"/>
          <circle id="Ellipse_5868-5" data-name="Ellipse 5868" cx="2" cy="2" r="2" transform="translate(0 0)" fill="#60cb28"/>
          <circle id="Ellipse_4757-5" data-name="Ellipse 4757" cx="2" cy="2" r="2" transform="translate(8 7)" fill="#60cb28"/>
          <circle id="Ellipse_5867-5" data-name="Ellipse 5867" cx="2" cy="2" r="2" transform="translate(0 7)" fill="#60cb28"/>
          <circle id="Ellipse_4760-5" data-name="Ellipse 4760" cx="2" cy="2" r="2" transform="translate(8 14)" fill="#60cb28"/>
          <circle id="Ellipse_5866-5" data-name="Ellipse 5866" cx="2" cy="2" r="2" transform="translate(0 14)" fill="#60cb28"/>
          <circle id="Ellipse_4753-5" data-name="Ellipse 4753" cx="2" cy="2" r="2" transform="translate(17 0)" fill="#60cb28"/>
          <circle id="Ellipse_4756-5" data-name="Ellipse 4756" cx="2" cy="2" r="2" transform="translate(17 7)" fill="#60cb28"/>
          <circle id="Ellipse_4759-5" data-name="Ellipse 4759" cx="2" cy="2" r="2" transform="translate(17 14)" fill="#60cb28"/>
          <circle id="Ellipse_4754-5" data-name="Ellipse 4754" cx="2" cy="2" r="2" transform="translate(25 0)" fill="#60cb28"/>
          <circle id="Ellipse_4755-5" data-name="Ellipse 4755" cx="2" cy="2" r="2" transform="translate(25 7)" fill="#60cb28"/>
          <circle id="Ellipse_4758-5" data-name="Ellipse 4758" cx="2" cy="2" r="2" transform="translate(25 14)" fill="#60cb28"/>
        </g>
      </g>
      <g id="Group_1072042" data-name="Group 1072042" transform="translate(639 -130)">
        <g id="Group_1071646" data-name="Group 1071646" transform="translate(7044 -11015)">
          <g id="Group_1071641-5" data-name="Group 1071641" transform="translate(105 71)">
            <rect id="Rectangle_347551-6" data-name="Rectangle 347551" width="209" height="67" rx="18" transform="translate(601 665)" fill="#304c8e"/>
            <text id="_4.4_Implementación_de_la_gestión_de_riesgos_" data-name="4.4 Implementación de la gestión de riesgos
" transform="translate(620 677)" fill="#fff" font-size="16" font-family="Roboto-Bold, Roboto" font-weight="700"><tspan x="2.953" y="15">4.4 Implementación de </tspan><tspan x="10.77" y="39">la gestión de riesgos</tspan></text>
          </g>
        </g>
        <g id="Group_1072006" data-name="Group 1072006" transform="translate(7776 -10215.615)">
          <circle id="Ellipse_4752-6" data-name="Ellipse 4752" cx="2" cy="2" r="2" transform="translate(1 -0.385)" fill="#60cb28"/>
          <circle id="Ellipse_5868-6" data-name="Ellipse 5868" cx="2" cy="2" r="2" transform="translate(-7 -0.385)" fill="#60cb28"/>
          <circle id="Ellipse_4757-6" data-name="Ellipse 4757" cx="2" cy="2" r="2" transform="translate(1 6.615)" fill="#60cb28"/>
          <circle id="Ellipse_5867-6" data-name="Ellipse 5867" cx="2" cy="2" r="2" transform="translate(-7 6.615)" fill="#60cb28"/>
          <circle id="Ellipse_4760-6" data-name="Ellipse 4760" cx="2" cy="2" r="2" transform="translate(1 13.615)" fill="#60cb28"/>
          <circle id="Ellipse_5866-6" data-name="Ellipse 5866" cx="2" cy="2" r="2" transform="translate(-7 13.615)" fill="#60cb28"/>
          <circle id="Ellipse_4753-6" data-name="Ellipse 4753" cx="2" cy="2" r="2" transform="translate(10 -0.385)" fill="#60cb28"/>
          <circle id="Ellipse_4756-6" data-name="Ellipse 4756" cx="2" cy="2" r="2" transform="translate(10 6.615)" fill="#60cb28"/>
          <circle id="Ellipse_4759-6" data-name="Ellipse 4759" cx="2" cy="2" r="2" transform="translate(10 13.615)" fill="#60cb28"/>
          <circle id="Ellipse_4754-6" data-name="Ellipse 4754" cx="2" cy="2" r="2" transform="translate(18 -0.385)" fill="#60cb28"/>
          <circle id="Ellipse_4755-6" data-name="Ellipse 4755" cx="2" cy="2" r="2" transform="translate(18 6.615)" fill="#60cb28"/>
          <circle id="Ellipse_4758-6" data-name="Ellipse 4758" cx="2" cy="2" r="2" transform="translate(18 13.615)" fill="#60cb28"/>
        </g>
      </g>
      <g id="Group_1072007" data-name="Group 1072007" transform="translate(8565 -10135.182)">
        <circle id="Ellipse_4752-7" data-name="Ellipse 4752" cx="2" cy="2" r="2" transform="translate(1 -0.385)" fill="#7e19b8"/>
        <circle id="Ellipse_5868-7" data-name="Ellipse 5868" cx="2" cy="2" r="2" transform="translate(-7 -0.385)" fill="#7e19b8"/>
        <circle id="Ellipse_4757-7" data-name="Ellipse 4757" cx="2" cy="2" r="2" transform="translate(1 6.615)" fill="#7e19b8"/>
        <circle id="Ellipse_5867-7" data-name="Ellipse 5867" cx="2" cy="2" r="2" transform="translate(-7 6.615)" fill="#7e19b8"/>
        <circle id="Ellipse_4760-7" data-name="Ellipse 4760" cx="2" cy="2" r="2" transform="translate(1 13.615)" fill="#7e19b8"/>
        <circle id="Ellipse_5866-7" data-name="Ellipse 5866" cx="2" cy="2" r="2" transform="translate(-7 13.615)" fill="#7e19b8"/>
        <circle id="Ellipse_4753-7" data-name="Ellipse 4753" cx="2" cy="2" r="2" transform="translate(10 -0.385)" fill="#7e19b8"/>
        <circle id="Ellipse_4756-7" data-name="Ellipse 4756" cx="2" cy="2" r="2" transform="translate(10 6.615)" fill="#7e19b8"/>
        <circle id="Ellipse_4759-7" data-name="Ellipse 4759" cx="2" cy="2" r="2" transform="translate(10 13.615)" fill="#7e19b8"/>
        <circle id="Ellipse_4754-7" data-name="Ellipse 4754" cx="2" cy="2" r="2" transform="translate(18 -0.385)" fill="#7e19b8"/>
        <circle id="Ellipse_4755-7" data-name="Ellipse 4755" cx="2" cy="2" r="2" transform="translate(18 6.615)" fill="#7e19b8"/>
        <circle id="Ellipse_4758-7" data-name="Ellipse 4758" cx="2" cy="2" r="2" transform="translate(18 13.615)" fill="#7e19b8"/>
      </g>
    </g>
  </g>
</svg>
