<svg xmlns="http://www.w3.org/2000/svg" width="125.072" height="125.072" viewBox="0 0 125.072 125.072">
  <g id="Group_1072994" data-name="Group 1072994" transform="translate(-10662.16 9602.651)">
    <g id="Group_1072681" data-name="Group 1072681" transform="translate(9573.16 -11748.651)">
      <path id="Path_608387" data-name="Path 608387" d="M62.5,0A62.5,62.5,0,1,1,0,62.5,62.5,62.5,0,0,1,62.5,0Z" transform="translate(1089 2146)" fill="#304c8e"/>
      <g id="Group_43_" data-name="Group (43)" transform="translate(1182 2239)">
        <path id="Path_598926" data-name="Path 598926" d="M36.549,16.055,16.055,36.549a15.864,15.864,0,0,0,.655,1.582l21.422-21.42a15.863,15.863,0,0,0-1.582-.655Z" transform="translate(-15.17 -15.17)" fill="#4ca220"/>
        <path id="Path_598927" data-name="Path 598927" d="M18.367.8.8,18.367a16.022,16.022,0,0,0,.26,1.7L20.065,1.058A16.022,16.022,0,0,0,18.367.8Z" transform="translate(-0.754 -0.754)" fill="#4ca220"/>
        <path id="Path_598928" data-name="Path 598928" d="M299.7,283.668c0-.137-.008-.274-.01-.41l-16.454,16.453c.137,0,.273.01.41.01a16.091,16.091,0,0,0,1.678-.088l14.289-14.289a16.09,16.09,0,0,0,.088-1.678Z" transform="translate(-267.627 -267.648)" fill="#4ca220"/>
        <path id="Path_598929" data-name="Path 598929" d="M68.634,46.122q-.611-.481-1.267-.9L45.2,67.389q.42.656.9,1.267Z" transform="translate(-42.708 -42.73)" fill="#4ca220"/>
        <path id="Path_598930" data-name="Path 598930" d="M0,15.009,15.009,0c-.434.026-.863.07-1.287.131L.131,13.722C.07,14.145.026,14.575,0,15.009Z" fill="#4ca220"/>
        <path id="Path_598931" data-name="Path 598931" d="M106.76,84.058l-22.7,22.7a16.114,16.114,0,0,0,1.365,1.222l22.559-22.559A16.123,16.123,0,0,0,106.76,84.058Z" transform="translate(-79.426 -79.426)" fill="#4ca220"/>
        <path id="Path_598932" data-name="Path 598932" d="M159.927,138.548a16.093,16.093,0,0,0-.877-1.6l-22.108,22.108a15.959,15.959,0,0,0,1.6.877Z" transform="translate(-129.396 -129.396)" fill="#4ca220"/>
        <path id="Path_598933" data-name="Path 598933" d="M28.816,19.794a16.1,16.1,0,0,0-9.022,9.022Z" transform="translate(-18.704 -18.704)" fill="#4ca220"/>
        <path id="Path_598934" data-name="Path 598934" d="M382.436,392.617a16.085,16.085,0,0,0,10.18-10.18Z" transform="translate(-361.361 -361.361)" fill="#4ca220"/>
        <path id="Path_598935" data-name="Path 598935" d="M220.714,200.477l-20.237,20.237a15.962,15.962,0,0,0,2.154.537l18.619-18.619A16.154,16.154,0,0,0,220.714,200.477Z" transform="translate(-189.429 -189.429)" fill="#4ca220"/>
      </g>
    </g>
    <path id="Union_2_" data-name="Union (2)" d="M1.648,84.267A1.647,1.647,0,0,1,0,82.621V1.646A1.647,1.647,0,0,1,1.648,0H61.255A1.647,1.647,0,0,1,62.9,1.646V24.4l2.522-2.068a1.651,1.651,0,0,1,.266-.271l3.267-2.639h0a4.621,4.621,0,0,1,6.509.7L78.494,23.9h0a4.65,4.65,0,0,1-.7,6.525l-3.018,2.439a1.644,1.644,0,0,1-.2.2L62.9,42.8V82.621a1.647,1.647,0,0,1-1.648,1.646ZM57.6,47.229l2.005-1.674V80.975H3.3V3.292H59.607V27.046l-7.835,6.448a1.649,1.649,0,0,0-1.586-1.251H35.862a1.682,1.682,0,0,0,0,3.363H49.206L44.4,39.562H35.655a1.682,1.682,0,0,0,0,3.363h4.656L32.25,49.534a1.633,1.633,0,0,0-.5.7L28.742,56.61a1.618,1.618,0,0,0-1.1-.432H14.493a1.645,1.645,0,0,0-1.635,1.655V71.139a1.645,1.645,0,0,0,1.635,1.655H27.64a1.645,1.645,0,0,0,1.635-1.655v-7l8.647-2.229H50.177a1.682,1.682,0,0,0,0-3.363h-6.09ZM37.38,58.574a1.623,1.623,0,0,0-.426.134L30.735,60.3l2.955-6.323ZM26,62.713c0,.046,0,.092,0,.137v6.633H16.128v-10H26ZM60.381,40.625a1.659,1.659,0,0,0-.185.135l-6.564,5.5L40.582,57.151l-4.96-6.1,8.755-7.2,22.1-18.122,4.739,5.857Zm13.364-11.16L69.033,23.6l1.988-1.606h0a1.34,1.34,0,0,1,1.887.2h0l3.026,3.774a1.349,1.349,0,0,1-.2,1.893ZM9.495,17.556a1.639,1.639,0,0,0,1.646,1.632H27.748a1.632,1.632,0,1,0,0-3.263H12.787V11.571h37.33v4.353h-7.8a1.632,1.632,0,1,0,0,3.263h9.442a1.639,1.639,0,0,0,1.646-1.632V9.94a1.639,1.639,0,0,0-1.646-1.632H11.141A1.639,1.639,0,0,0,9.495,9.94Zm3.363,26.483a1.645,1.645,0,0,0,1.635,1.655H27.64a1.645,1.645,0,0,0,1.635-1.655V30.733a1.645,1.645,0,0,0-1.635-1.655H14.493a1.645,1.645,0,0,0-1.635,1.655Zm3.271-1.655v-10h9.877v10ZM35.863,69.827a1.584,1.584,0,1,1,0-3.165H50.184a1.584,1.584,0,1,1,0,3.165Z" transform="translate(10693 -9584)" fill="#fff" fill-rule="evenodd"/>
  </g>
</svg>
