<svg xmlns="http://www.w3.org/2000/svg" xmlns:xlink="http://www.w3.org/1999/xlink" width="295" height="295" viewBox="0 0 295 295">
  <defs>
    <clipPath id="clip-path">
      <rect id="Rectangle_377423" data-name="Rectangle 377423" width="171" height="171" fill="#fff"/>
    </clipPath>
  </defs>
  <g id="Group_1072106" data-name="Group 1072106" transform="translate(-1020 -3588)">
    <circle id="Ellipse_5864" data-name="Ellipse 5864" cx="147.5" cy="147.5" r="147.5" transform="translate(1020 3588)" fill="#304c8e"/>
    <g id="audit_1" data-name="audit 1" transform="translate(1082 3650)" clip-path="url(#clip-path)">
      <path id="Path_612133" data-name="Path 612133" d="M64.03,66.678V140.6a10.548,10.548,0,0,0,10.549,10.548h82.785A10.548,10.548,0,0,0,167.913,140.6V42.555a10.549,10.549,0,0,0-10.549-10.549H98.7a13.185,13.185,0,0,0-9.323,3.862L67.892,57.355A13.185,13.185,0,0,0,64.03,66.678Z" fill="#e2e7fe"/>
      <path id="Path_612134" data-name="Path 612134" d="M54.2,56.844v73.92a10.548,10.548,0,0,0,10.548,10.548H147.53a10.548,10.548,0,0,0,10.549-10.548V32.721A10.549,10.549,0,0,0,147.53,22.173H88.868a13.185,13.185,0,0,0-9.323,3.862L58.058,47.521A13.187,13.187,0,0,0,54.2,56.844Z" fill="#e2e7fe"/>
      <path id="Path_612135" data-name="Path 612135" d="M44.362,47.01v73.92a10.548,10.548,0,0,0,10.549,10.548H137.7a10.548,10.548,0,0,0,10.548-10.548V22.887A10.548,10.548,0,0,0,137.7,12.339H79.034A13.185,13.185,0,0,0,69.711,16.2L48.224,37.687A13.185,13.185,0,0,0,44.362,47.01Z" fill="#e2e7fe"/>
      <path id="Path_612136" data-name="Path 612136" d="M34.529,37.176V111.1a10.548,10.548,0,0,0,10.549,10.548h82.786A10.547,10.547,0,0,0,138.411,111.1V13.053A10.548,10.548,0,0,0,127.863,2.5H69.2a13.185,13.185,0,0,0-9.323,3.862L38.39,27.853A13.185,13.185,0,0,0,34.529,37.176Z" fill="#f4fbff"/>
      <path id="Path_612137" data-name="Path 612137" d="M34.528,37.178v2.251a7.715,7.715,0,0,1,7.714-7.714H53.19A10.548,10.548,0,0,0,63.738,21.167V10.219A7.715,7.715,0,0,1,71.452,2.5H69.2a13.2,13.2,0,0,0-9.325,3.862L38.391,27.853A13.2,13.2,0,0,0,34.528,37.178Z" fill="#e2e7fe"/>
      <path id="Path_612138" data-name="Path 612138" d="M41.811,120.916l8.852,8.852L30.155,150.276,21.3,141.424Z" fill="#e1f5d6"/>
      <path id="Path_612139" data-name="Path 612139" d="M41.811,120.916l4.426,4.426L25.728,145.851,21.3,141.424Z" fill="#304c8e"/>
      <path id="Path_612140" data-name="Path 612140" d="M67.656,141.04a37.109,37.109,0,1,0-37.109-37.109A37.109,37.109,0,0,0,67.656,141.04Z" fill="#ffe126"/>
      <path id="Path_612141" data-name="Path 612141" d="M43.723,132.292q-1.188-1-2.308-2.121A37.109,37.109,0,0,1,93.9,77.69Q95.014,78.809,96.018,80a37.11,37.11,0,0,0-52.294,52.294Z" fill="#ffe126"/>
      <path id="Path_612142" data-name="Path 612142" d="M67.656,130.164a26.234,26.234,0,1,0-26.234-26.233A26.233,26.233,0,0,0,67.656,130.164Z" fill="#e2e7fe"/>
      <path id="Path_612143" data-name="Path 612143" d="M53.172,125.808A26.234,26.234,0,1,1,89.535,89.445a26.239,26.239,0,0,0-36.363,36.363Z" fill="#e2e7fe"/>
      <path id="Path_612144" data-name="Path 612144" d="M12.04,166.8l-7.257-7.257a5.792,5.792,0,0,1,0-8.191l18.411-18.411a5.793,5.793,0,0,1,8.191,0l7.257,7.258a5.792,5.792,0,0,1,0,8.191L20.231,166.8A5.791,5.791,0,0,1,12.04,166.8Z" fill="#ffe126"/>
      <path id="Path_612145" data-name="Path 612145" d="M10.1,164.857l-5.312-5.311a5.791,5.791,0,0,1,0-8.192l18.41-18.41a5.79,5.79,0,0,1,8.192,0l5.311,5.311a5.79,5.79,0,0,0-8.191,0L10.1,156.666A5.79,5.79,0,0,0,10.1,164.857Z" fill="#ffe126"/>
      <path id="Path_612146" data-name="Path 612146" d="M65.43,121.677a5.309,5.309,0,0,1-4.195-2.055L52.36,108.173a5.308,5.308,0,1,1,8.39-6.5l3.984,5.139L72.51,93.04a5.308,5.308,0,0,1,9.244,5.221l-11.7,20.719a5.311,5.311,0,0,1-4.236,2.684C65.687,121.673,65.558,121.677,65.43,121.677Z" fill="#60cb28"/>
      <path id="Path_612147" data-name="Path 612147" d="M160.256,29.828a13.1,13.1,0,0,0-9.835-9.833,13.1,13.1,0,0,0-9.832-9.834A13.08,13.08,0,0,0,127.863,0H69.2A15.583,15.583,0,0,0,58.1,4.595c-.026.025-.05.052-.075.078L36.613,26.082a15.607,15.607,0,0,0-4.593,11.1V86.627a39.769,39.769,0,0,0,2.117,38.425L29.985,129.2a8.3,8.3,0,0,0-8.564,1.968L3.012,149.584a8.3,8.3,0,0,0,0,11.732l7.258,7.258a8.3,8.3,0,0,0,11.732,0l8.674-8.67a2.5,2.5,0,1,0-3.542-3.543l-8.674,8.671a3.291,3.291,0,0,1-4.647,0l-7.258-7.258a3.286,3.286,0,0,1,0-4.647l18.41-18.413a3.294,3.294,0,0,1,4.65,0l7.257,7.256a3.3,3.3,0,0,1,0,4.652l-2.655,2.655a2.505,2.505,0,1,0,3.543,3.543l2.655-2.656a8.3,8.3,0,0,0,1.968-8.563l4.153-4.153a39.414,39.414,0,0,0,12.815,5.2,12.948,12.948,0,0,0,2.5.846,13.084,13.084,0,0,0,12.728,10.156h82.787A13.069,13.069,0,0,0,170.417,140.6V42.554A13.081,13.081,0,0,0,160.256,29.828ZM140.916,111.1V15.521a8.066,8.066,0,0,1,4.806,6.856c.011.155.016.322.016.511v98.043a8.052,8.052,0,0,1-8.042,8.043H98.351a39.292,39.292,0,0,0,3.373-4.823h26.139A13.07,13.07,0,0,0,140.916,111.1ZM61.4,8.386a10.24,10.24,0,0,0-.168,1.834V21.167A8.052,8.052,0,0,1,53.19,29.21H42.243a10.233,10.233,0,0,0-1.841.169ZM37.03,39.487c0-.019,0-.038,0-.058a5.215,5.215,0,0,1,5.209-5.209H53.19A13.067,13.067,0,0,0,66.243,21.167V10.219A5.215,5.215,0,0,1,71.452,5.01h56.411a8.057,8.057,0,0,1,8.026,7.534c.011.154.017.321.017.508V111.1a8.054,8.054,0,0,1-8.043,8.046H104.23A39.612,39.612,0,0,0,39.644,75.919Q38.253,77.311,37.03,78.8Zm6.157,39.975a34.6,34.6,0,1,1,0,48.937A34.492,34.492,0,0,1,43.187,79.462Zm-3.745,57.994-5.312-5.312,2.985-2.985q1.188,1.436,2.53,2.783t2.783,2.529ZM165.408,140.6a8.055,8.055,0,0,1-8.043,8.046H74.578a8.065,8.065,0,0,1-7.373-4.826h80.324a13.07,13.07,0,0,0,13.056-13.053V58.359a2.505,2.505,0,0,0-5.01,0v72.406a8.054,8.054,0,0,1-8.046,8.043H86.443a39.356,39.356,0,0,0,7.021-4.823H137.7a13.067,13.067,0,0,0,13.053-13.053V25.351a8.061,8.061,0,0,1,4.826,7.37V48.359a2.5,2.5,0,1,0,5.01,0V35.186a8.062,8.062,0,0,1,4.823,7.369V140.6Z"/>
      <path id="Path_612148" data-name="Path 612148" d="M67.655,132.67a28.739,28.739,0,1,0-20.322-8.418A28.553,28.553,0,0,0,67.655,132.67ZM50.877,87.152a23.729,23.729,0,1,1,0,33.558A23.573,23.573,0,0,1,50.877,87.152Z"/>
      <path id="Path_612149" data-name="Path 612149" d="M46.8,59.959a2.505,2.505,0,0,0,3.233-1.449l.943-2.477H57.57L58.5,58.5a2.5,2.5,0,1,0,4.687-1.769l-6.2-16.423c-.008-.023-.018-.046-.027-.069A2.873,2.873,0,0,0,54.3,38.456h0a2.873,2.873,0,0,0-2.665,1.791c-.008.019-.015.038-.022.057L45.354,56.726A2.505,2.505,0,0,0,46.8,59.959Zm8.877-8.936H52.887l1.4-3.683Z" fill="#304c8e"/>
      <path id="Path_612150" data-name="Path 612150" d="M107.214,60.123a2.5,2.5,0,0,0,2.505-2.5V40.961a2.505,2.505,0,0,0-5.01,0V57.618A2.5,2.5,0,0,0,107.214,60.123Z" fill="#304c8e"/>
      <path id="Path_612151" data-name="Path 612151" d="M85.391,57.627a2.505,2.505,0,0,0,2.5,2.5h.009c.143,0,3.509-.013,4.856-.037,5.244-.091,9.05-4.632,9.05-10.8,0-6.48-3.71-10.833-9.232-10.833H87.862a2.5,2.5,0,0,0-2.5,2.51s.012,6.407.012,8.305C85.369,51.587,85.391,57.627,85.391,57.627Zm7.188-14.161c3.917,0,4.222,4.457,4.222,5.824,0,2.845-1.276,5.737-4.128,5.787-.533.009-1.417.017-2.281.023-.006-1.935-.013-4.5-.013-5.829,0-1.117,0-3.789-.007-5.805Z" fill="#304c8e"/>
      <path id="Path_612152" data-name="Path 612152" d="M69.218,58.851a8.09,8.09,0,0,0,4.416,1.272h.013a8.515,8.515,0,0,0,3.869-.9,7.487,7.487,0,0,0,4.518-6.815V40.961a2.5,2.5,0,0,0-5.01,0v11.45c0,.719-.209,1.559-1.761,2.34a3.507,3.507,0,0,1-1.615.362H73.64a3.117,3.117,0,0,1-1.725-.484c-1.213-.775-1.457-1.419-1.457-2.206V40.961a2.5,2.5,0,0,0-5.01,0V52.423A7.358,7.358,0,0,0,69.218,58.851Z" fill="#304c8e"/>
      <path id="Path_612153" data-name="Path 612153" d="M116.044,43.466h2.076V57.618a2.5,2.5,0,1,0,5.01,0V43.466h2.113a2.5,2.5,0,1,0,0-5.01h-9.2a2.5,2.5,0,1,0,0,5.01Z" fill="#304c8e"/>
      <path id="Path_612154" data-name="Path 612154" d="M65.43,124.183c.189,0,.379-.007.568-.021a7.793,7.793,0,0,0,6.236-3.951l11.7-20.718a7.813,7.813,0,1,0-13.606-7.684L64.406,102.3l-1.676-2.162a7.813,7.813,0,1,0-12.349,9.574l8.875,11.449A7.867,7.867,0,0,0,65.43,124.183ZM54.837,102.705a2.788,2.788,0,0,1,1.712-.588,2.877,2.877,0,0,1,.358.023A2.786,2.786,0,0,1,58.77,103.2l3.985,5.14a2.5,2.5,0,0,0,4.161-.3l7.775-13.767a2.8,2.8,0,0,1,4.882,2.757l-11.7,20.718a2.8,2.8,0,0,1-4.656.339L54.34,106.639A2.807,2.807,0,0,1,54.837,102.705Z"/>
    </g>
    <g id="Group_1072103" data-name="Group 1072103" transform="translate(1253 3803.088)" opacity="0.85">
      <circle id="Ellipse_4752" data-name="Ellipse 4752" cx="4.5" cy="4.5" r="4.5" transform="translate(17 -0.088)" fill="#ffe126"/>
      <circle id="Ellipse_5868" data-name="Ellipse 5868" cx="4.5" cy="4.5" r="4.5" transform="translate(0 -0.088)" fill="#ffe126"/>
      <circle id="Ellipse_4757" data-name="Ellipse 4757" cx="4.5" cy="4.5" r="4.5" transform="translate(17 14.912)" fill="#ffe126"/>
      <circle id="Ellipse_5867" data-name="Ellipse 5867" cx="4.5" cy="4.5" r="4.5" transform="translate(0 14.912)" fill="#ffe126"/>
      <ellipse id="Ellipse_4760" data-name="Ellipse 4760" cx="4.5" cy="4" rx="4.5" ry="4" transform="translate(17 29.912)" fill="#ffe126"/>
      <ellipse id="Ellipse_5866" data-name="Ellipse 5866" cx="4.5" cy="4" rx="4.5" ry="4" transform="translate(0 29.912)" fill="#ffe126"/>
      <circle id="Ellipse_4753" data-name="Ellipse 4753" cx="4.5" cy="4.5" r="4.5" transform="translate(36 -0.088)" fill="#ffe126"/>
      <circle id="Ellipse_4756" data-name="Ellipse 4756" cx="4.5" cy="4.5" r="4.5" transform="translate(36 14.912)" fill="#ffe126"/>
      <ellipse id="Ellipse_4759" data-name="Ellipse 4759" cx="4.5" cy="4" rx="4.5" ry="4" transform="translate(36 29.912)" fill="#ffe126"/>
      <circle id="Ellipse_4754" data-name="Ellipse 4754" cx="4.5" cy="4.5" r="4.5" transform="translate(53 -0.088)" fill="#ffe126"/>
      <circle id="Ellipse_4755" data-name="Ellipse 4755" cx="4.5" cy="4.5" r="4.5" transform="translate(53 14.912)" fill="#ffe126"/>
      <ellipse id="Ellipse_4758" data-name="Ellipse 4758" cx="4.5" cy="4" rx="4.5" ry="4" transform="translate(53 29.912)" fill="#ffe126"/>
    </g>
  </g>
</svg>
