<svg xmlns="http://www.w3.org/2000/svg" xmlns:xlink="http://www.w3.org/1999/xlink" width="1240" height="756" viewBox="0 0 1240 756">
  <defs>
    <linearGradient id="linear-gradient" x1="0.5" x2="0.5" y2="1" gradientUnits="objectBoundingBox">
      <stop offset="0" stop-color="#fdfde3"/>
      <stop offset="1" stop-color="#e1f5d6"/>
    </linearGradient>
  </defs>
  <g id="Group_1073124" data-name="Group 1073124" transform="translate(-180 -2564)">
    <g id="Group_1072394" data-name="Group 1072394" transform="translate(0 -35)">
      <path id="Path_612614" data-name="Path 612614" d="M0,0H1240V756H0Z" transform="translate(180 2599)" fill="url(#linear-gradient)"/>
      <g id="Group_1072393" data-name="Group 1072393">
        <path id="Path_613421" data-name="Path 613421" d="M80.777,10.992V15H78.434V3.625h4.438a5.134,5.134,0,0,1,2.254.469,3.454,3.454,0,0,1,1.5,1.332,3.714,3.714,0,0,1,.523,1.965A3.266,3.266,0,0,1,86,10.027a4.767,4.767,0,0,1-3.168.965Zm0-1.9h2.094a2.059,2.059,0,0,0,1.418-.437,1.591,1.591,0,0,0,.488-1.25,1.876,1.876,0,0,0-.492-1.352,1.839,1.839,0,0,0-1.359-.531H80.777ZM90.988,15H88.723V3h2.266Zm6.758,0a2.507,2.507,0,0,1-.227-.758,2.732,2.732,0,0,1-2.133.914,3,3,0,0,1-2.059-.719,2.312,2.312,0,0,1-.816-1.812,2.389,2.389,0,0,1,1-2.062,4.915,4.915,0,0,1,2.879-.727h1.039V9.352a1.393,1.393,0,0,0-.3-.937,1.183,1.183,0,0,0-.949-.352,1.345,1.345,0,0,0-.895.273.929.929,0,0,0-.324.75H92.7a2.268,2.268,0,0,1,.453-1.359,3,3,0,0,1,1.281-.98,4.669,4.669,0,0,1,1.859-.355,3.689,3.689,0,0,1,2.48.785,2.747,2.747,0,0,1,.918,2.207v3.664a4.041,4.041,0,0,0,.336,1.82V15Zm-1.867-1.57a1.945,1.945,0,0,0,.922-.223,1.462,1.462,0,0,0,.625-.6V11.156h-.844q-1.7,0-1.8,1.172l-.008.133a.9.9,0,0,0,.3.7A1.153,1.153,0,0,0,95.879,13.43ZM103.5,6.547l.07.977A2.951,2.951,0,0,1,106,6.391a2.453,2.453,0,0,1,2,.789,3.682,3.682,0,0,1,.672,2.359V15h-2.258V9.594a1.465,1.465,0,0,0-.312-1.043,1.4,1.4,0,0,0-1.039-.324,1.553,1.553,0,0,0-1.43.813V15h-2.258V6.547Zm10.773,8.609a4.15,4.15,0,0,1-3.027-1.141,4.054,4.054,0,0,1-1.168-3.039v-.219a5.106,5.106,0,0,1,.492-2.277,3.612,3.612,0,0,1,1.395-1.547,3.914,3.914,0,0,1,2.059-.543,3.508,3.508,0,0,1,2.73,1.094,4.444,4.444,0,0,1,1,3.1v.922h-5.383a2.1,2.1,0,0,0,.66,1.328,2,2,0,0,0,1.395.5,2.437,2.437,0,0,0,2.039-.945l1.109,1.242a3.389,3.389,0,0,1-1.375,1.121A4.511,4.511,0,0,1,114.277,15.156Zm-.258-6.945a1.411,1.411,0,0,0-1.09.455,2.357,2.357,0,0,0-.535,1.3h3.141V9.788a1.681,1.681,0,0,0-.406-1.165A1.456,1.456,0,0,0,114.02,8.211ZM123.934,15a2.507,2.507,0,0,1-.227-.758,2.732,2.732,0,0,1-2.133.914,3,3,0,0,1-2.059-.719,2.312,2.312,0,0,1-.816-1.812,2.389,2.389,0,0,1,1-2.062,4.915,4.915,0,0,1,2.879-.727h1.039V9.352a1.393,1.393,0,0,0-.3-.937,1.183,1.183,0,0,0-.949-.352,1.345,1.345,0,0,0-.895.273.929.929,0,0,0-.324.75h-2.258a2.268,2.268,0,0,1,.453-1.359,3,3,0,0,1,1.281-.98,4.669,4.669,0,0,1,1.859-.355,3.689,3.689,0,0,1,2.48.785,2.747,2.747,0,0,1,.918,2.207v3.664a4.041,4.041,0,0,0,.336,1.82V15Zm-1.867-1.57a1.945,1.945,0,0,0,.922-.223,1.462,1.462,0,0,0,.625-.6V11.156h-.844q-1.7,0-1.8,1.172l-.008.133a.9.9,0,0,0,.3.7A1.153,1.153,0,0,0,122.066,13.43Zm10.3-4.766a6.134,6.134,0,0,0-.812-.062,1.654,1.654,0,0,0-1.68.867V15h-2.258V6.547h2.133l.063,1.008a2.092,2.092,0,0,1,1.883-1.164,2.366,2.366,0,0,1,.7.1Z" transform="translate(265 2626.33)" fill="#12263f"/>
        <path id="Path_613422" data-name="Path 613422" d="M93.918,15H91.574V10.125H87V15H84.66V3.625H87V8.234h4.57V3.625h2.344Zm6.8,0a2.507,2.507,0,0,1-.227-.758,2.732,2.732,0,0,1-2.133.914,3,3,0,0,1-2.059-.719,2.312,2.312,0,0,1-.816-1.812,2.389,2.389,0,0,1,1-2.062,4.915,4.915,0,0,1,2.879-.727h1.039V9.352a1.393,1.393,0,0,0-.3-.937,1.183,1.183,0,0,0-.949-.352,1.345,1.345,0,0,0-.895.273.929.929,0,0,0-.324.75H95.668a2.268,2.268,0,0,1,.453-1.359,3,3,0,0,1,1.281-.98,4.669,4.669,0,0,1,1.859-.355,3.689,3.689,0,0,1,2.48.785,2.747,2.747,0,0,1,.918,2.207v3.664a4.041,4.041,0,0,0,.336,1.82V15Zm-1.867-1.57a1.945,1.945,0,0,0,.922-.223,1.462,1.462,0,0,0,.625-.6V11.156h-.844q-1.7,0-1.8,1.172l-.008.133a.9.9,0,0,0,.3.7A1.153,1.153,0,0,0,98.848,13.43Zm9.063-.094a1.481,1.481,0,0,0,1.016-.344,1.2,1.2,0,0,0,.406-.914h2.117a2.9,2.9,0,0,1-.469,1.574,3.093,3.093,0,0,1-1.262,1.109,3.949,3.949,0,0,1-1.77.395A3.67,3.67,0,0,1,105.09,14a4.56,4.56,0,0,1-1.047-3.184v-.148a4.508,4.508,0,0,1,1.039-3.117,3.627,3.627,0,0,1,2.852-1.164,3.555,3.555,0,0,1,2.543.9,3.2,3.2,0,0,1,.973,2.4h-2.117a1.551,1.551,0,0,0-.406-1.072,1.51,1.51,0,0,0-2.223.163,3.333,3.333,0,0,0-.4,1.866v.235a3.375,3.375,0,0,0,.4,1.878A1.377,1.377,0,0,0,107.91,13.336Zm8.719,1.82a4.15,4.15,0,0,1-3.027-1.141,4.054,4.054,0,0,1-1.168-3.039v-.219a5.106,5.106,0,0,1,.492-2.277,3.612,3.612,0,0,1,1.395-1.547,3.914,3.914,0,0,1,2.059-.543,3.508,3.508,0,0,1,2.73,1.094,4.444,4.444,0,0,1,1,3.1v.922h-5.383a2.1,2.1,0,0,0,.66,1.328,2,2,0,0,0,1.395.5,2.437,2.437,0,0,0,2.039-.945l1.109,1.242a3.389,3.389,0,0,1-1.375,1.121A4.511,4.511,0,0,1,116.629,15.156Zm-.258-6.945a1.411,1.411,0,0,0-1.09.455,2.357,2.357,0,0,0-.535,1.3h3.141V9.788a1.681,1.681,0,0,0-.406-1.165A1.456,1.456,0,0,0,116.371,8.211Zm9.766.453a6.134,6.134,0,0,0-.812-.062,1.654,1.654,0,0,0-1.68.867V15h-2.258V6.547h2.133l.063,1.008a2.092,2.092,0,0,1,1.883-1.164,2.366,2.366,0,0,1,.7.1Z" transform="translate(580 2626.33)" fill="#12263f"/>
        <path id="Path_613423" data-name="Path 613423" d="M79.551,12.18l2.578-8.555h2.609L80.777,15H78.332L74.387,3.625h2.6Zm9.656,2.977a4.15,4.15,0,0,1-3.027-1.141,4.054,4.054,0,0,1-1.168-3.039v-.219A5.106,5.106,0,0,1,85.5,8.48,3.612,3.612,0,0,1,86.9,6.934a3.914,3.914,0,0,1,2.059-.543,3.508,3.508,0,0,1,2.73,1.094,4.444,4.444,0,0,1,1,3.1v.922H87.3a2.1,2.1,0,0,0,.66,1.328,2,2,0,0,0,1.395.5,2.437,2.437,0,0,0,2.039-.945L92.5,13.633a3.389,3.389,0,0,1-1.375,1.121A4.511,4.511,0,0,1,89.207,15.156Zm-.258-6.945a1.411,1.411,0,0,0-1.09.455,2.357,2.357,0,0,0-.535,1.3h3.141V9.788a1.681,1.681,0,0,0-.406-1.165A1.456,1.456,0,0,0,88.949,8.211Zm9.766.453A6.134,6.134,0,0,0,97.9,8.6a1.654,1.654,0,0,0-1.68.867V15H93.965V6.547H96.1l.063,1.008a2.092,2.092,0,0,1,1.883-1.164,2.366,2.366,0,0,1,.7.1ZM102.184,15H99.918V6.547h2.266Zm-2.4-10.641a1.112,1.112,0,0,1,.34-.836,1.465,1.465,0,0,1,1.848,0,1.105,1.105,0,0,1,.344.836,1.108,1.108,0,0,1-.348.844,1.448,1.448,0,0,1-1.836,0A1.108,1.108,0,0,1,99.785,4.359ZM104.59,15V8.2h-1.258V6.547h1.258V6.156a3.17,3.17,0,0,1,.98-2.457,3.945,3.945,0,0,1,2.723-.863,9.031,9.031,0,0,1,2.563.461l-.328,1.867a10,10,0,0,0-1.187-.293,5.835,5.835,0,0,0-.906-.066q-1.578,0-1.578,1.4v.344h1.664V8.2h-1.664V15Zm7.32,0h-2.266V6.547h2.266Zm5.383-1.664a1.481,1.481,0,0,0,1.016-.344,1.2,1.2,0,0,0,.406-.914h2.117a2.9,2.9,0,0,1-.469,1.574,3.093,3.093,0,0,1-1.262,1.109,3.949,3.949,0,0,1-1.77.395A3.67,3.67,0,0,1,114.473,14a4.56,4.56,0,0,1-1.047-3.184v-.148a4.508,4.508,0,0,1,1.039-3.117,3.627,3.627,0,0,1,2.852-1.164,3.555,3.555,0,0,1,2.543.9,3.2,3.2,0,0,1,.973,2.4h-2.117a1.551,1.551,0,0,0-.406-1.072,1.51,1.51,0,0,0-2.223.163,3.333,3.333,0,0,0-.4,1.866v.235a3.375,3.375,0,0,0,.4,1.878A1.377,1.377,0,0,0,117.293,13.336ZM127.02,15a2.507,2.507,0,0,1-.227-.758,2.732,2.732,0,0,1-2.133.914,3,3,0,0,1-2.059-.719,2.312,2.312,0,0,1-.816-1.812,2.389,2.389,0,0,1,1-2.062,4.915,4.915,0,0,1,2.879-.727H126.7V9.352a1.393,1.393,0,0,0-.3-.937,1.183,1.183,0,0,0-.949-.352,1.345,1.345,0,0,0-.895.273.929.929,0,0,0-.324.75h-2.258a2.268,2.268,0,0,1,.453-1.359,3,3,0,0,1,1.281-.98,4.669,4.669,0,0,1,1.859-.355,3.689,3.689,0,0,1,2.48.785,2.747,2.747,0,0,1,.918,2.207v3.664a4.041,4.041,0,0,0,.336,1.82V15Zm-1.867-1.57a1.945,1.945,0,0,0,.922-.223,1.462,1.462,0,0,0,.625-.6V11.156h-.844q-1.7,0-1.8,1.172l-.008.133a.9.9,0,0,0,.3.7A1.153,1.153,0,0,0,125.152,13.43Zm10.3-4.766a6.134,6.134,0,0,0-.812-.062,1.654,1.654,0,0,0-1.68.867V15H130.7V6.547h2.133l.063,1.008a2.092,2.092,0,0,1,1.883-1.164,2.366,2.366,0,0,1,.7.1Z" transform="translate(895 2626.33)" fill="#12263f"/>
        <path id="Path_613424" data-name="Path 613424" d="M88.5,12.656H84.387L83.605,15H81.113L85.348,3.625H87.52L91.777,15H89.285Zm-3.477-1.9h2.844L86.434,6.5Zm11.188,2.578a1.481,1.481,0,0,0,1.016-.344,1.2,1.2,0,0,0,.406-.914h2.117a2.9,2.9,0,0,1-.469,1.574,3.093,3.093,0,0,1-1.262,1.109,3.949,3.949,0,0,1-1.77.395A3.67,3.67,0,0,1,93.387,14,4.56,4.56,0,0,1,92.34,10.82v-.148a4.508,4.508,0,0,1,1.039-3.117A3.627,3.627,0,0,1,96.23,6.391a3.555,3.555,0,0,1,2.543.9,3.2,3.2,0,0,1,.973,2.4H97.629a1.551,1.551,0,0,0-.406-1.072A1.51,1.51,0,0,0,95,8.786a3.333,3.333,0,0,0-.4,1.866v.235a3.375,3.375,0,0,0,.4,1.878A1.377,1.377,0,0,0,96.207,13.336Zm7.531-8.867V6.547h1.445V8.2h-1.445v4.219a1.007,1.007,0,0,0,.18.672.9.9,0,0,0,.688.2,3.6,3.6,0,0,0,.664-.055v1.711a4.648,4.648,0,0,1-1.367.2,2.156,2.156,0,0,1-2.422-2.4V8.2h-1.234V6.547h1.234V4.469Zm7.766,9.672a2.831,2.831,0,0,1-2.312,1.016,2.67,2.67,0,0,1-2.074-.781,3.335,3.335,0,0,1-.73-2.289V6.547h2.258v5.467q0,1.322,1.2,1.322a1.63,1.63,0,0,0,1.578-.8V6.547h2.266V15h-2.125Zm8.789.859a2.507,2.507,0,0,1-.227-.758,2.732,2.732,0,0,1-2.133.914,3,3,0,0,1-2.059-.719,2.312,2.312,0,0,1-.816-1.812,2.389,2.389,0,0,1,1-2.062,4.915,4.915,0,0,1,2.879-.727h1.039V9.352a1.393,1.393,0,0,0-.3-.937,1.183,1.183,0,0,0-.949-.352,1.345,1.345,0,0,0-.895.273.929.929,0,0,0-.324.75h-2.258a2.268,2.268,0,0,1,.453-1.359,3,3,0,0,1,1.281-.98,4.669,4.669,0,0,1,1.859-.355,3.689,3.689,0,0,1,2.48.785,2.747,2.747,0,0,1,.918,2.207v3.664a4.041,4.041,0,0,0,.336,1.82V15Zm-1.867-1.57a1.945,1.945,0,0,0,.922-.223,1.462,1.462,0,0,0,.625-.6V11.156h-.844q-1.7,0-1.8,1.172l-.008.133a.9.9,0,0,0,.3.7A1.153,1.153,0,0,0,118.426,13.43Zm10.3-4.766a6.134,6.134,0,0,0-.812-.062,1.654,1.654,0,0,0-1.68.867V15h-2.258V6.547h2.133l.063,1.008a2.092,2.092,0,0,1,1.883-1.164,2.366,2.366,0,0,1,.7.1Z" transform="translate(1125 2626.33)" fill="#12263f"/>
        <g id="Group_1071842" data-name="Group 1071842" transform="translate(-660 -6985.67)">
          <rect id="Rectangle_377379" data-name="Rectangle 377379" width="210" height="65" rx="18" transform="translate(925 9659)" fill="#304c8e"/>
          <text id="_5.2_Establecer_los_objetivos_del_programa_" data-name="5.2 Establecer los objetivos del programa
" transform="translate(944 9669)" fill="#fff" font-size="16" font-family="Roboto-Regular, Roboto"><tspan x="0" y="15">5.2 Establecer los </tspan><tspan x="0" y="39">objetivos del programa</tspan></text>
        </g>
        <g id="Group_1071959" data-name="Group 1071959" transform="translate(-660 -6776.67)">
          <rect id="Rectangle_377379-2" data-name="Rectangle 377379" width="210" height="65" rx="18" transform="translate(925 9659)" fill="#304c8e"/>
          <text id="_5.4_Establecer_el_programa_de_auditoria._" data-name="5.4 Establecer el programa de auditoria. 
" transform="translate(944 9669)" fill="#fff" font-size="16" font-family="Roboto-Regular, Roboto"><tspan x="0" y="15">5.4 Establecer el </tspan><tspan x="0" y="39">programa de auditoria. </tspan></text>
        </g>
        <g id="Group_1071964" data-name="Group 1071964" transform="translate(-660 -6500.67)">
          <rect id="Rectangle_377379-3" data-name="Rectangle 377379" width="210" height="65" rx="18" transform="translate(925 9659)" fill="#304c8e"/>
          <text id="_6.3_Preparar_actividades_de_auditoria_" data-name="6.3 Preparar actividades de auditoria
" transform="translate(944 9669)" fill="#fff" font-size="16" font-family="Roboto-Regular, Roboto"><tspan x="0" y="15">6.3 Preparar actividades </tspan><tspan x="0" y="39">de auditoria</tspan></text>
        </g>
        <g id="Group_1071965" data-name="Group 1071965" transform="translate(-325 -6500.67)">
          <rect id="Rectangle_377379-4" data-name="Rectangle 377379" width="210" height="65" rx="18" transform="translate(925 9659)" fill="#304c8e"/>
          <text id="_6.4_Realizar_actividades_de_auditoria_" data-name="6.4 Realizar actividades de auditoria 
" transform="translate(944 9669)" fill="#fff" font-size="16" font-family="Roboto-Regular, Roboto"><tspan x="0" y="15">6.4 Realizar actividades </tspan><tspan x="0" y="39">de auditoria </tspan></text>
        </g>
        <g id="Group_1071968" data-name="Group 1071968" transform="translate(200 -6500.67)">
          <g id="Path_612082" data-name="Path 612082" transform="translate(925 9659)" fill="#fff">
            <path d="M 192 64 L 18 64 C 13.45913124084473 64 9.19005298614502 62.23168563842773 5.979184150695801 59.02081680297852 C 2.76831579208374 55.8099479675293 1 51.54086685180664 1 47 L 1 18 C 1 13.45913124084473 2.76831579208374 9.19005298614502 5.979184150695801 5.979184150695801 C 9.19005298614502 2.76831579208374 13.45913124084473 1 18 1 L 192 1 C 196.5408630371094 1 200.8099517822266 2.76831579208374 204.0208129882812 5.979184150695801 C 207.231689453125 9.19005298614502 209 13.45913124084473 209 18 L 209 47 C 209 51.54086685180664 207.231689453125 55.8099479675293 204.0208129882812 59.02081680297852 C 200.8099517822266 62.23168563842773 196.5408630371094 64 192 64 Z" stroke="none"/>
            <path d="M 18 2 C 13.72625732421875 2 9.708282470703125 3.664306640625 6.686279296875 6.686305999755859 C 3.664276123046875 9.708305358886719 2 13.72624969482422 2 18 L 2 47 C 2 51.27375030517578 3.664276123046875 55.29169464111328 6.686279296875 58.31369400024414 C 9.708282470703125 61.335693359375 13.72625732421875 63 18 63 L 192 63 C 196.2737426757812 63 200.2917175292969 61.335693359375 203.313720703125 58.31369400024414 C 206.3357238769531 55.29169464111328 208 51.27375030517578 208 47 L 208 18 C 208 13.72624969482422 206.3357238769531 9.708305358886719 203.313720703125 6.686305999755859 C 200.2917175292969 3.664306640625 196.2737426757812 2 192 2 L 18 2 M 18 0 L 192 0 C 201.9411315917969 0 210 8.058887481689453 210 18 L 210 47 C 210 56.94111251831055 201.9411315917969 65 192 65 L 18 65 C 8.058868408203125 65 0 56.94111251831055 0 47 L 0 18 C 0 8.058887481689453 8.058868408203125 0 18 0 Z" stroke="none" fill="#304c8e"/>
          </g>
          <text id="_6.7_Realizar_auditoria_de_seguimiento_" data-name="6.7 Realizar auditoria de seguimiento
" transform="translate(944 9669)" fill="#304c8e" font-size="16" font-family="Roboto-Regular, Roboto"><tspan x="0" y="15">6.7 Realizar auditoria de </tspan><tspan x="0" y="39">seguimiento</tspan></text>
        </g>
        <g id="Group_1071966" data-name="Group 1071966" transform="translate(-325 -6400.67)">
          <rect id="Rectangle_377379-5" data-name="Rectangle 377379" width="210" height="65" rx="18" transform="translate(925 9659)" fill="#304c8e"/>
          <text id="_6.5_Preparar_y_distribuir_el_informe_de_auditoria_" data-name="6.5 Preparar y distribuir el informe de auditoria
" transform="translate(944 9669)" fill="#fff" font-size="16" font-family="Roboto-Regular, Roboto"><tspan x="0" y="15">6.5 Preparar y distribuir </tspan><tspan x="0" y="39">el informe de auditoria</tspan></text>
        </g>
        <g id="Group_1071963" data-name="Group 1071963" transform="translate(-660 -6579.67)">
          <rect id="Rectangle_377379-6" data-name="Rectangle 377379" width="210" height="44" rx="18" transform="translate(925 9659)" fill="#304c8e"/>
          <text id="_6.2_Iniciar_auditoria_" data-name="6.2 Iniciar auditoria
" transform="translate(944 9669)" fill="#fff" font-size="16" font-family="Roboto-Regular, Roboto"><tspan x="0" y="15">6.2 Iniciar auditoria</tspan></text>
        </g>
        <g id="Group_1071967" data-name="Group 1071967" transform="translate(-30 -6389.67)">
          <rect id="Rectangle_377379-7" data-name="Rectangle 377379" width="210" height="44" rx="18" transform="translate(925 9659)" fill="#304c8e"/>
          <text id="_6.6_Completar_la_uditoria_" data-name="6.6 Completar la uditoria
" transform="translate(944 9669)" fill="#fff" font-size="16" font-family="Roboto-Regular, Roboto"><tspan x="0" y="15">6.6 Completar la uditoria</tspan></text>
        </g>
        <g id="Group_1071960" data-name="Group 1071960" transform="translate(-325 -6711.67)">
          <rect id="Rectangle_377379-8" data-name="Rectangle 377379" width="210" height="65" rx="18" transform="translate(925 9659)" fill="#304c8e"/>
          <text id="_5.5_Implementar_el_programa_de_auditoria_" data-name="5.5 Implementar el programa de auditoria
" transform="translate(944 9669)" fill="#fff" font-size="16" font-family="Roboto-Regular, Roboto"><tspan x="0" y="15">5.5 Implementar el </tspan><tspan x="0" y="39">programa de auditoria</tspan></text>
        </g>
        <g id="Group_1071961" data-name="Group 1071961" transform="translate(-30 -6711.67)">
          <rect id="Rectangle_377379-9" data-name="Rectangle 377379" width="210" height="65" rx="18" transform="translate(925 9659)" fill="#304c8e"/>
          <text id="_5.6_Monitorear_el_programa_de_auditoria_" data-name="5.6 Monitorear  el programa de auditoria
" transform="translate(944 9669)" fill="#fff" font-size="16" font-family="Roboto-Regular, Roboto"><tspan x="0" y="15" xml:space="preserve">5.6 Monitorear  el </tspan><tspan x="0" y="39">programa de auditoria</tspan></text>
        </g>
        <g id="Group_1071962" data-name="Group 1071962" transform="translate(200 -6856.67)">
          <rect id="Rectangle_377379-10" data-name="Rectangle 377379" width="210" height="65" rx="18" transform="translate(925 9659)" fill="#304c8e"/>
          <text id="_5.7_Revisar_y_mejorar_el_programa_de_auditoria_" data-name="5.7 Revisar y mejorar el programa de auditoria
" transform="translate(944 9669)" fill="#fff" font-size="16" font-family="Roboto-Regular, Roboto"><tspan x="0" y="15">5.7 Revisar y mejorar el </tspan><tspan x="0" y="39">programa de auditoria</tspan></text>
        </g>
        <g id="Group_1071958" data-name="Group 1071958" transform="translate(-660 -6905.67)">
          <rect id="Rectangle_377379-11" data-name="Rectangle 377379" width="210" height="114" rx="18" transform="translate(925 9659)" fill="#304c8e"/>
          <text id="_5.2_Determinar_y_evaluar_los_riesgos_y_oportunidades_del_programa_de_auditoria._" data-name="5.2 Determinar y evaluar los riesgos y oportunidades del programa de auditoria.
" transform="translate(944 9669)" fill="#fff" font-size="16" font-family="Roboto-Regular, Roboto"><tspan x="0" y="15">5.2 Determinar y evaluar </tspan><tspan x="0" y="39">los riesgos y </tspan><tspan x="0" y="63">oportunidades del </tspan><tspan x="0" y="87">programa de auditoria.</tspan></text>
        </g>
        <g id="Group_1071970" data-name="Group 1071970" transform="translate(0 279.33)">
          <path id="Path_612083" data-name="Path 612083" d="M2189.66,3547.06h15.588l-7.794,10.8Z" transform="translate(-1828 -1081.459)" fill="#7e19b8"/>
          <line id="Line_918" data-name="Line 918" y2="8" transform="translate(370 2459)" fill="none" stroke="#7e19b8" stroke-width="2"/>
        </g>
        <g id="Group_1071971" data-name="Group 1071971" transform="translate(0 408.33)">
          <path id="Path_612083-2" data-name="Path 612083" d="M2189.66,3547.06h15.588l-7.794,10.8Z" transform="translate(-1828 -1081.459)" fill="#7e19b8"/>
          <line id="Line_918-2" data-name="Line 918" y2="8" transform="translate(370 2459)" fill="none" stroke="#7e19b8" stroke-width="2"/>
        </g>
        <g id="Group_1071976" data-name="Group 1071976" transform="translate(0 602.93)">
          <path id="Path_612083-3" data-name="Path 612083" d="M2189.66,3547.06h15.588l-7.794,10.8Z" transform="translate(-1828 -1081.459)" fill="#7e19b8"/>
          <line id="Line_918-3" data-name="Line 918" y2="26.1" transform="translate(370 2440.9)" fill="none" stroke="#7e19b8" stroke-width="2"/>
        </g>
        <g id="Group_1071977" data-name="Group 1071977" transform="translate(0 681.93)">
          <path id="Path_612083-4" data-name="Path 612083" d="M2189.66,3547.06h15.588l-7.794,10.8Z" transform="translate(-1828 -1081.459)" fill="#7e19b8"/>
          <line id="Line_918-4" data-name="Line 918" y2="26.1" transform="translate(370 2440.9)" fill="none" stroke="#7e19b8" stroke-width="2"/>
        </g>
        <g id="Group_1071978" data-name="Group 1071978" transform="translate(323.34 782.43)">
          <path id="Path_612083-5" data-name="Path 612083" d="M2189.659,3547.06h20l-10,10.8Z" transform="translate(-1828 -1081.459)" fill="#7e19b8"/>
          <line id="Line_918-5" data-name="Line 918" y2="26.1" transform="translate(372.36 2440.9)" fill="none" stroke="#7e19b8" stroke-width="2"/>
        </g>
        <g id="Group_1071972" data-name="Group 1071972" transform="translate(-1581.4 3349.284) rotate(-90)">
          <path id="Path_612083-6" data-name="Path 612083" d="M2189.66,3547.06h15.588l-7.794,10.8Z" transform="translate(-1828 -1081.459)" fill="#7e19b8"/>
          <line id="Line_918-6" data-name="Line 918" y2="75.1" transform="translate(370 2391.9)" fill="none" stroke="#7e19b8" stroke-width="2"/>
        </g>
        <g id="Group_1071973" data-name="Group 1071973" transform="translate(-1581.4 3660.284) rotate(-90)">
          <path id="Path_612083-7" data-name="Path 612083" d="M2189.66,3547.06h15.588l-7.794,10.8Z" transform="translate(-1828 -1081.459)" fill="#7e19b8"/>
          <line id="Line_918-7" data-name="Line 918" y2="75.1" transform="translate(370 2391.9)" fill="none" stroke="#7e19b8" stroke-width="2"/>
        </g>
        <g id="Group_1071982" data-name="Group 1071982" transform="translate(-1286.9 3660.284) rotate(-90)">
          <line id="Line_918-8" data-name="Line 918" y2="125" transform="translate(370 2391.9)" fill="none" stroke="#304c8e" stroke-width="2"/>
        </g>
        <g id="Group_1071984" data-name="Group 1071984" transform="translate(1600 5550.23) rotate(180)">
          <line id="Line_918-9" data-name="Line 918" y2="69.292" transform="translate(370 2391.9)" fill="none" stroke="#304c8e" stroke-width="2"/>
        </g>
        <g id="Group_1071974" data-name="Group 1071974" transform="translate(-1876.4 3560.284) rotate(-90)">
          <path id="Path_612083-8" data-name="Path 612083" d="M2189.66,3547.06h15.588l-7.794,10.8Z" transform="translate(-1828 -1081.459)" fill="#7e19b8"/>
          <path id="Path_612084" data-name="Path 612084" d="M0-40.5V75.1" transform="translate(370 2391.9)" fill="none" stroke="#7e19b8" stroke-width="2"/>
        </g>
        <g id="Group_1071979" data-name="Group 1071979" transform="translate(1587.248 5339.024) rotate(180)">
          <path id="Path_612083-9" data-name="Path 612083" d="M2189.66,3547.06h15.588l-7.794,10.8Z" transform="translate(-1828 -1081.459)" fill="#7e19b8"/>
          <path id="Path_612084-2" data-name="Path 612084" d="M0-40.5V66.272" transform="translate(370 2400.728)" fill="none" stroke="#7e19b8" stroke-width="2"/>
        </g>
        <g id="Group_1071981" data-name="Group 1071981" transform="translate(1377.248 5487.08) rotate(180)">
          <path id="Path_612083-10" data-name="Path 612083" d="M2189.66,3547.06h15.588l-7.794,10.8Z" transform="translate(-1828 -1081.459)" fill="#7e19b8"/>
          <path id="Path_612084-3" data-name="Path 612084" d="M0-40.5V213.083" transform="translate(370 2253.917)" fill="none" stroke="#7e19b8" stroke-width="2"/>
        </g>
        <g id="Group_1071980" data-name="Group 1071980" transform="translate(2951.4 2340.582) rotate(90)">
          <path id="Path_612083-11" data-name="Path 612083" d="M2189.66,3547.06h15.588l-7.794,10.8Z" transform="translate(-1828 -1081.459)" fill="#7e19b8"/>
          <path id="Path_612084-4" data-name="Path 612084" d="M0-40.5V685.1" transform="translate(370 1781.9)" fill="none" stroke="#7e19b8" stroke-width="2"/>
        </g>
        <g id="Group_1071975" data-name="Group 1071975" transform="translate(-1876.4 3349.284) rotate(-90)">
          <path id="Path_612083-12" data-name="Path 612083" d="M2189.66,3547.06h15.588l-7.794,10.8Z" transform="translate(-1828 -1081.459)" fill="#7e19b8"/>
          <line id="Line_918-10" data-name="Line 918" y2="220.1" transform="translate(370 2246.9)" fill="none" stroke="#7e19b8" stroke-width="2"/>
        </g>
        <path id="Path_612085" data-name="Path 612085" d="M2140,2967.5h335v-33.15" transform="translate(-1770 76.33)" fill="none" stroke="#7e19b8" stroke-width="2"/>
        <path id="Path_612086" data-name="Path 612086" d="M2140,2903.5v-34.35" transform="translate(-1770 76.33)" fill="none" stroke="#7e19b8" stroke-width="2"/>
        <path id="Path_612087" data-name="Path 612087" d="M2140,2961.444V2869.15" transform="translate(-930 -159.114)" fill="none" stroke="#7e19b8" stroke-width="2"/>
        <path id="Path_612088" data-name="Path 612088" d="M2140,2981.444V2869.15" transform="translate(4086.444 839.83) rotate(90)" fill="none" stroke="#7e19b8" stroke-width="2"/>
        <g id="Group_1071986" data-name="Group 1071986" transform="translate(0 279.33)">
          <g id="Group_1071983" data-name="Group 1071983" transform="translate(1600 5403.4) rotate(180)">
            <line id="Line_918-11" data-name="Line 918" y2="69.292" transform="translate(370 2391.9)" fill="none" stroke="#304c8e" stroke-width="2"/>
          </g>
          <path id="Polygon_2" data-name="Polygon 2" d="M6,0l6,11H0Z" transform="translate(1224 2942)" fill="#304c8e"/>
        </g>
        <g id="Group_1071987" data-name="Group 1071987" transform="translate(0 279.33)">
          <g id="Group_1071985" data-name="Group 1071985" transform="translate(-1384.106 3179.708) rotate(-90)">
            <line id="Line_918-12" data-name="Line 918" y2="222.206" transform="translate(370 2391.9)" fill="none" stroke="#304c8e" stroke-width="2"/>
          </g>
          <path id="Polygon_3" data-name="Polygon 3" d="M6,0l6,11H0Z" transform="translate(1007.794 2815.708) rotate(-90)" fill="#304c8e"/>
        </g>
      </g>
    </g>
  </g>
</svg>
