<svg xmlns="http://www.w3.org/2000/svg" xmlns:xlink="http://www.w3.org/1999/xlink" width="505" height="1141.676" viewBox="0 0 505 1141.676">
  <defs>
    <linearGradient id="linear-gradient" x1="0.5" x2="0.5" y2="1" gradientUnits="objectBoundingBox">
      <stop offset="0" stop-color="#fdfde3"/>
      <stop offset="1" stop-color="#e1f5d6"/>
    </linearGradient>
  </defs>
  <g id="Group_1073125" data-name="Group 1073125" transform="translate(-1149 -3125.662)">
    <g id="Group_1072395" data-name="Group 1072395" transform="translate(215 487)">
      <path id="Path_612615" data-name="Path 612615" d="M0,0H505V1141.676H0Z" transform="translate(934 2638.662)" fill="url(#linear-gradient)"/>
      <g id="Group_1072125" data-name="Group 1072125" transform="translate(3 16)">
        <g id="Group_1072093" data-name="Group 1072093" transform="translate(1444.175 3484.3) rotate(180)">
          <path id="Path_612126" data-name="Path 612126" d="M0,0H155.85" transform="translate(167.175 734.031)" fill="none" stroke="#7e19b8" stroke-width="2"/>
          <path id="Polygon_4" data-name="Polygon 4" d="M6.531,0l6.531,8H0Z" transform="translate(331.025 727.5) rotate(90)" fill="#7e19b8"/>
        </g>
        <g id="Group_1072111" data-name="Group 1072111" transform="translate(1763.563 2464.975) rotate(90)">
          <path id="Path_612126-2" data-name="Path 612126" d="M0,0H22.854" transform="translate(300.171 734.031)" fill="none" stroke="#7e19b8" stroke-width="2"/>
          <path id="Polygon_4-2" data-name="Polygon 4" d="M6.531,0l6.531,8H0Z" transform="translate(331.025 727.5) rotate(90)" fill="#7e19b8"/>
        </g>
        <g id="Group_1072112" data-name="Group 1072112" transform="translate(1763.563 2640.829) rotate(90)">
          <path id="Path_612126-3" data-name="Path 612126" d="M0,0H22.854" transform="translate(300.171 734.031)" fill="none" stroke="#7e19b8" stroke-width="2"/>
          <path id="Polygon_4-3" data-name="Polygon 4" d="M6.531,0l6.531,8H0Z" transform="translate(331.025 727.5) rotate(90)" fill="#7e19b8"/>
        </g>
        <g id="Group_1072117" data-name="Group 1072117" transform="translate(1763.563 3012.975) rotate(90)">
          <path id="Path_612126-4" data-name="Path 612126" d="M0,0H22.854" transform="translate(300.171 734.031)" fill="none" stroke="#7e19b8" stroke-width="2"/>
          <path id="Polygon_4-4" data-name="Polygon 4" d="M6.531,0l6.531,8H0Z" transform="translate(331.025 727.5) rotate(90)" fill="#7e19b8"/>
        </g>
        <g id="Group_1072118" data-name="Group 1072118" transform="translate(1763.563 3140.975) rotate(90)">
          <path id="Path_612126-5" data-name="Path 612126" d="M0,0H22.854" transform="translate(300.171 734.031)" fill="none" stroke="#7e19b8" stroke-width="2"/>
          <path id="Polygon_4-5" data-name="Polygon 4" d="M6.531,0l6.531,8H0Z" transform="translate(331.025 727.5) rotate(90)" fill="#7e19b8"/>
        </g>
        <g id="Group_1072119" data-name="Group 1072119" transform="translate(1763.563 3265.829) rotate(90)">
          <path id="Path_612126-6" data-name="Path 612126" d="M0,0H22.854" transform="translate(300.171 734.031)" fill="none" stroke="#7e19b8" stroke-width="2"/>
          <path id="Polygon_4-6" data-name="Polygon 4" d="M6.531,0l6.531,8H0Z" transform="translate(331.025 727.5) rotate(90)" fill="#7e19b8"/>
        </g>
        <g id="Group_1072114" data-name="Group 1072114" transform="translate(876.438 2414.056)">
          <path id="Path_612126-7" data-name="Path 612126" d="M0,0H22.854" transform="translate(300.171 734.031)" fill="none" stroke="#7e19b8" stroke-width="2"/>
          <path id="Polygon_4-7" data-name="Polygon 4" d="M6.531,0l6.531,8H0Z" transform="translate(331.025 727.5) rotate(90)" fill="#7e19b8"/>
        </g>
        <g id="Group_1072120" data-name="Group 1072120" transform="translate(836.078 2919.937)">
          <path id="Path_612126-8" data-name="Path 612126" d="M-120.373,0h47.1" transform="translate(396.295 734.031)" fill="none" stroke="#7e19b8" stroke-width="2"/>
          <path id="Polygon_4-8" data-name="Polygon 4" d="M6.531,0l6.531,8H0Z" transform="translate(331.025 727.5) rotate(90)" fill="#7e19b8"/>
        </g>
        <g id="Group_1072115" data-name="Group 1072115" transform="translate(590.895 3155.025) rotate(-90)">
          <path id="Path_612126-9" data-name="Path 612126" d="M0,0H269.3" transform="translate(53.725 734.031)" fill="none" stroke="#7e19b8" stroke-width="2"/>
          <path id="Polygon_4-9" data-name="Polygon 4" d="M6.531,0l6.531,8H0Z" transform="translate(331.025 727.5) rotate(90)" fill="#7e19b8"/>
        </g>
        <g id="Group_1072121" data-name="Group 1072121" transform="translate(495.895 3524.025) rotate(-90)">
          <path id="Path_612126-10" data-name="Path 612126" d="M0,0H423.979" transform="translate(-100.954 734.031)" fill="none" stroke="#7e19b8" stroke-width="2"/>
          <path id="Polygon_4-10" data-name="Polygon 4" d="M6.531,0l6.531,8H0Z" transform="translate(331.025 727.5) rotate(90)" fill="#7e19b8"/>
        </g>
        <g id="Group_1072113" data-name="Group 1072113" transform="translate(1791.569 2769.063) rotate(90)">
          <path id="Path_612126-11" data-name="Path 612126" d="M0,0H50.287" transform="translate(272.737 734.031)" fill="none" stroke="#7e19b8" stroke-width="2"/>
          <path id="Polygon_4-11" data-name="Polygon 4" d="M6.531,0l6.531,8H0Z" transform="translate(331.025 727.5) rotate(90)" fill="#7e19b8"/>
        </g>
        <g id="Group_1072116" data-name="Group 1072116" transform="translate(1791.569 2933.975) rotate(90)">
          <path id="Path_612126-12" data-name="Path 612126" d="M0,0H50.287" transform="translate(272.737 734.031)" fill="none" stroke="#7e19b8" stroke-width="2"/>
          <path id="Polygon_4-12" data-name="Polygon 4" d="M6.531,0l6.531,8H0Z" transform="translate(331.025 727.5) rotate(90)" fill="#7e19b8"/>
        </g>
        <g id="Group_1072122" data-name="Group 1072122">
          <text id="Planear_" data-name="Planear
" transform="translate(982 2656)" fill="#12263f" font-size="16" font-family="Roboto-Bold, Roboto" font-weight="700"><tspan x="10.418" y="15">Planear</tspan></text>
          <text id="Hacer_" data-name="Hacer
" transform="translate(1095 2656)" fill="#12263f" font-size="16" font-family="Roboto-Bold, Roboto" font-weight="700"><tspan x="10.145" y="15">Hacer</tspan></text>
          <text id="Verificar_" data-name="Verificar
" transform="translate(1195 2656)" fill="#12263f" font-size="16" font-family="Roboto-Bold, Roboto" font-weight="700"><tspan x="4.332" y="15">Verificar</tspan></text>
          <text id="Actuar_" data-name="Actuar
" transform="translate(1302 2656)" fill="#12263f" font-size="16" font-family="Roboto-Bold, Roboto" font-weight="700"><tspan x="11.559" y="15">Actuar</tspan></text>
        </g>
        <g id="Group_1071842" data-name="Group 1071842" transform="translate(953 2704)">
          <rect id="Rectangle_377379" data-name="Rectangle 377379" width="159" height="65" rx="18" fill="#304c8e"/>
          <text id="_5.2_Establecer_los_objetivos_del_programa_" data-name="5.2 Establecer los objetivos del programa
" transform="translate(19 10)" fill="#fff" font-size="16" font-family="Roboto-Regular, Roboto"><tspan x="0" y="15">5.2 Establecer los </tspan><tspan x="0" y="39">objetivos del </tspan></text>
        </g>
        <g id="Group_1071959" data-name="Group 1071959" transform="translate(953 2975)">
          <rect id="Rectangle_377379-2" data-name="Rectangle 377379" width="159" height="65" rx="18" fill="#304c8e"/>
          <text id="_5.4_Establecer_el_programa_de_auditoria._" data-name="5.4 Establecer el programa de auditoria. 
" transform="translate(19 10)" fill="#fff" font-size="16" font-family="Roboto-Regular, Roboto"><tspan x="0" y="15">5.4 Establecer el </tspan><tspan x="0" y="39">programa de </tspan></text>
        </g>
        <g id="Group_1071964" data-name="Group 1071964" transform="translate(953 3347)">
          <rect id="Rectangle_377379-3" data-name="Rectangle 377379" width="159" height="91" rx="18" fill="#304c8e"/>
          <text id="_6.3_Preparar_actividades_de_auditoria_" data-name="6.3 Preparar actividades de auditoria
" transform="translate(19 10)" fill="#fff" font-size="16" font-family="Roboto-Regular, Roboto"><tspan x="0" y="15">6.3 Preparar </tspan><tspan x="0" y="39">actividades de </tspan><tspan x="0" y="63">auditoria</tspan></text>
        </g>
        <g id="Group_1071965" data-name="Group 1071965" transform="translate(954.262 3474)">
          <rect id="Rectangle_377379-4" data-name="Rectangle 377379" width="158" height="92" rx="18" transform="translate(-0.262)" fill="#304c8e"/>
          <text id="_6.4_Realizar_actividades_de_auditoria_" data-name="6.4 Realizar actividades de auditoria 
" transform="translate(18.738 10)" fill="#fff" font-size="16" font-family="Roboto-Regular, Roboto"><tspan x="0" y="15">6.4 Realizar </tspan><tspan x="0" y="39">actividades de </tspan><tspan x="0" y="63">auditoria </tspan></text>
        </g>
        <g id="Group_1071966" data-name="Group 1071966" transform="translate(953.262 3598)">
          <rect id="Rectangle_377379-5" data-name="Rectangle 377379" width="159" height="111" rx="18" transform="translate(-0.262)" fill="#304c8e"/>
          <text id="_6.5_Preparar_y_distribuir_el_informe_de_auditoria_" data-name="6.5 Preparar y distribuir el informe de auditoria
" transform="translate(18.738 10)" fill="#fff" font-size="16" font-family="Roboto-Regular, Roboto"><tspan x="0" y="15">6.5 Preparar y </tspan><tspan x="0" y="39">distribuir el </tspan><tspan x="0" y="63">informe de </tspan><tspan x="0" y="87">auditoria</tspan></text>
        </g>
        <g id="Group_1071963" data-name="Group 1071963" transform="translate(953 3266)">
          <rect id="Rectangle_377379-6" data-name="Rectangle 377379" width="159" height="44" rx="18" fill="#304c8e"/>
          <text id="_6.2_Iniciar_auditoria_" data-name="6.2 Iniciar auditoria
" transform="translate(19 10)" fill="#fff" font-size="16" font-family="Roboto-Regular, Roboto"><tspan x="0" y="15">6.2 Iniciar </tspan></text>
        </g>
        <g id="Group_1071967" data-name="Group 1071967" transform="translate(1164.686 3625)">
          <rect id="Rectangle_377379-7" data-name="Rectangle 377379" width="155" height="71" rx="18" transform="translate(0.314)" fill="#304c8e"/>
          <text id="_6.6_Completar_la_uditoria_" data-name="6.6 Completar la uditoria
" transform="translate(19.314 10)" fill="#fff" font-size="16" font-family="Roboto-Regular, Roboto"><tspan x="0" y="15">6.6 Completar la </tspan><tspan x="0" y="39">uditoria</tspan></text>
        </g>
        <g id="Group_1071960" data-name="Group 1071960" transform="translate(1021.799 3100.087)">
          <rect id="Rectangle_377379-8" data-name="Rectangle 377379" width="152" height="96" rx="18" transform="translate(-0.262)" fill="#304c8e"/>
          <text id="_5.5_Implementar_el_programa_de_auditoria_" data-name="5.5 Implementar el programa de auditoria
" transform="translate(18.738 10)" fill="#fff" font-size="16" font-family="Roboto-Regular, Roboto"><tspan x="0" y="15">5.5 Implementar </tspan><tspan x="0" y="39">el programa de </tspan><tspan x="0" y="63">auditoria</tspan></text>
        </g>
        <g id="Group_1071961" data-name="Group 1071961" transform="translate(1207.149 3104)">
          <rect id="Rectangle_377379-9" data-name="Rectangle 377379" width="144" height="89" rx="18" transform="translate(0.314)" fill="#304c8e"/>
          <text id="_5.6_Monitorear_el_programa_de_auditoria_" data-name="5.6 Monitorear  el programa de auditoria
" transform="translate(19.314 10)" fill="#fff" font-size="16" font-family="Roboto-Regular, Roboto"><tspan x="0" y="15" xml:space="preserve">5.6 Monitorear  </tspan><tspan x="0" y="39">el programa de </tspan><tspan x="0" y="63">auditoria</tspan></text>
        </g>
        <g id="Group_1071958" data-name="Group 1071958" transform="translate(953 2799)">
          <rect id="Rectangle_377379-10" data-name="Rectangle 377379" width="159" height="139" rx="18" fill="#304c8e"/>
          <text id="_5.2_Determinar_y_evaluar_los_riesgos_y_oportunidades_del_programa_de_auditoria._" data-name="5.2 Determinar y evaluar los riesgos y oportunidades del programa de auditoria.
" transform="translate(19 10)" fill="#fff" font-size="16" font-family="Roboto-Regular, Roboto"><tspan x="0" y="15">5.2 Determinar y </tspan><tspan x="0" y="39">evaluar los riesgos </tspan><tspan x="0" y="63">y oportunidades </tspan><tspan x="0" y="87">del programa de </tspan><tspan x="0" y="111">auditoria.</tspan></text>
        </g>
        <g id="Group_1071962" data-name="Group 1071962" transform="translate(1277 2707)">
          <rect id="Rectangle_377379-11" data-name="Rectangle 377379" width="143" height="117" rx="18" fill="#304c8e"/>
          <text id="_5.7_Revisar_y_mejorar_el_programa_de_auditoria_" data-name="5.7 Revisar y mejorar el programa de auditoria
" transform="translate(19 10)" fill="#fff" font-size="16" font-family="Roboto-Regular, Roboto"><tspan x="0" y="15">5.7 Revisar y </tspan><tspan x="0" y="39">mejorar el </tspan><tspan x="0" y="63">programa de </tspan><tspan x="0" y="87">auditoria</tspan></text>
        </g>
        <g id="Group_1071968" data-name="Group 1071968" transform="translate(1261.927 3474.7)">
          <g id="Path_612082" data-name="Path 612082" fill="#fff">
            <path d="M 141.7142639160156 89.60010528564453 L 13.285719871521 89.60010528564453 C 11.72463989257812 89.60010528564453 10.19470024108887 89.01030731201172 8.738419532775879 87.84712982177734 C 7.264120101928711 86.66952514648438 5.93064022064209 84.96592712402344 4.775040149688721 82.78364562988281 C 2.340660095214844 78.18648529052734 1 72.05223083496094 1 65.51084899902344 L 1 25.08924865722656 C 1 18.5478687286377 2.340660095214844 12.41360855102539 4.775040149688721 7.81644868850708 C 5.93064022064209 5.63416862487793 7.264120101928711 3.930588722229004 8.738419532775879 2.752988815307617 C 10.19470024108887 1.589788794517517 11.72463989257812 1.000008821487427 13.285719871521 1.000008821487427 L 141.7142639160156 1.000008821487427 C 143.2753601074219 1.000008821487427 144.8052978515625 1.589788794517517 146.2615814208984 2.752988815307617 C 147.7359008789062 3.930588722229004 149.0693664550781 5.63416862487793 150.2249603271484 7.81644868850708 C 152.6593475341797 12.41360855102539 154 18.5478687286377 154 25.08924865722656 L 154 65.51084899902344 C 154 72.05223083496094 152.6593475341797 78.18650817871094 150.2249603271484 82.78364562988281 C 149.0693664550781 84.96592712402344 147.7359008789062 86.66952514648438 146.2615814208984 87.84712982177734 C 144.8052978515625 89.01030731201172 143.2753601074219 89.60010528564453 141.7142639160156 89.60010528564453 Z" stroke="none"/>
            <path d="M 13.28570556640625 2.000007629394531 C 11.95710754394531 2.000007629394531 10.63714599609375 2.5162353515625 9.362503051757812 3.534339904785156 C 8.015213012695312 4.610488891601562 6.734481811523438 6.2530517578125 5.658767700195312 8.284423828125 C 4.521942138671875 10.4312744140625 3.625961303710938 12.94659423828125 2.995712280273438 15.76050567626953 C 2.335006713867188 18.71038055419922 2 21.84902954101562 2 25.08925628662109 L 2 65.51084136962891 C 2 68.75106811523438 2.335006713867188 71.88971710205078 2.995712280273438 74.83959197998047 C 3.625961303710938 77.65350341796875 4.521942138671875 80.1688232421875 5.658767700195312 82.315673828125 C 6.734481811523438 84.3470458984375 8.015213012695312 85.98960876464844 9.362503051757812 87.06575775146484 C 10.63714599609375 88.0838623046875 11.95710754394531 88.60009002685547 13.28570556640625 88.60009002685547 L 141.7142639160156 88.60009002685547 C 143.0428924560547 88.60009002685547 144.3628540039062 88.0838623046875 145.6374969482422 87.06575775146484 C 146.9847869873047 85.98960876464844 148.2655181884766 84.3470458984375 149.3412322998047 82.315673828125 C 150.4780578613281 80.1688232421875 151.3740386962891 77.65350341796875 152.0042877197266 74.83959197998047 C 152.6649932861328 71.88971710205078 153 68.75106811523438 153 65.51084136962891 L 153 25.08925628662109 C 153 21.84902954101562 152.6649932861328 18.71038055419922 152.0042877197266 15.76050567626953 C 151.3740386962891 12.94659423828125 150.4780578613281 10.4312744140625 149.3412322998047 8.284423828125 C 148.2655181884766 6.2530517578125 146.9847869873047 4.610488891601562 145.6374969482422 3.534339904785156 C 144.3628540039062 2.5162353515625 143.0428924560547 2.000007629394531 141.7142639160156 2.000007629394531 L 13.28570556640625 2.000007629394531 M 13.28570556640625 7.62939453125e-06 L 141.7142639160156 7.62939453125e-06 C 149.0517883300781 7.62939453125e-06 155 11.23284149169922 155 25.08925628662109 L 155 65.51084136962891 C 155 79.36725616455078 149.0517883300781 90.60009002685547 141.7142639160156 90.60009002685547 L 13.28570556640625 90.60009002685547 C 5.948211669921875 90.60009002685547 0 79.36725616455078 0 65.51084136962891 L 0 25.08925628662109 C 0 11.23284149169922 5.948211669921875 7.62939453125e-06 13.28570556640625 7.62939453125e-06 Z" stroke="none" fill="#304c8e"/>
          </g>
          <text id="_6.7_Realizar_auditoria_de_seguimiento_" data-name="6.7 Realizar auditoria de seguimiento
" transform="translate(19.4 10)" fill="#304c8e" font-size="16" font-family="Roboto-Regular, Roboto"><tspan x="0" y="15">6.7 Realizar </tspan><tspan x="0" y="39">auditoria de </tspan><tspan x="0" y="63">seguimiento</tspan></text>
        </g>
        <g id="Group_1072124" data-name="Group 1072124">
          <g id="Group_1071986" data-name="Group 1071986" transform="translate(144 623.3)">
            <g id="Group_1071983" data-name="Group 1071983" transform="translate(1600 5426.699) rotate(180)">
              <line id="Line_918" data-name="Line 918" y2="87.3" transform="translate(370 2391.9)" fill="none" stroke="#304c8e" stroke-width="2"/>
            </g>
            <path id="Polygon_2" data-name="Polygon 2" d="M6,0l6,11H0Z" transform="translate(1224 2942)" fill="#304c8e"/>
          </g>
          <g id="Group_1071983-2" data-name="Group 1071983" transform="translate(-1071.9 4028.099) rotate(-90)">
            <line id="Line_918-2" data-name="Line 918" y2="54.5" transform="translate(370 2391.9)" fill="none" stroke="#304c8e" stroke-width="2"/>
          </g>
        </g>
        <g id="Group_1072123" data-name="Group 1072123" transform="translate(-1712.073 4748.05) rotate(-90)">
          <g id="Group_1071983-3" data-name="Group 1071983" transform="translate(1600 5366.64) rotate(180)">
            <line id="Line_918-3" data-name="Line 918" y2="27.24" transform="translate(370 2391.9)" fill="none" stroke="#304c8e" stroke-width="2"/>
          </g>
          <path id="Polygon_2-2" data-name="Polygon 2" d="M6,0l6,11H0Z" transform="translate(1224 2942)" fill="#304c8e"/>
        </g>
      </g>
    </g>
  </g>
</svg>
