<svg xmlns="http://www.w3.org/2000/svg" width="1030" height="807" viewBox="0 0 1030 807">
  <g id="Group_1073118" data-name="Group 1073118" transform="translate(-285 -7989)">
    <g id="Group_1073064" data-name="Group 1073064">
      <rect id="Rectangle_377578" data-name="Rectangle 377578" width="1030" height="807" transform="translate(285 7989)" fill="#fff"/>
      <g id="Group_1073063" data-name="Group 1073063">
        <g id="Group_1072793" data-name="Group 1072793">
          <text id="Operativo_" data-name="Operativo
" transform="matrix(0.616, -0.788, 0.788, 0.616, 285, 8525.304)" fill="#304c8e" font-size="16" font-family="Roboto-Bold, Roboto" font-weight="700"><tspan x="0" y="15">Operativo</tspan></text>
          <g id="Group_1072792" data-name="Group 1072792">
            <text id="Estratégico_" data-name="Estratégico
" transform="translate(600 8081.047) rotate(-52)" fill="#304c8e" font-size="16" font-family="Roboto-Bold, Roboto" font-weight="700"><tspan x="0" y="15">Estratégico</tspan></text>
            <g id="Group_1072791" data-name="Group 1072791">
              <g id="Group_1071853" data-name="Group 1071853" transform="translate(0 -836.174)">
                <path id="Path_613391" data-name="Path 613391" d="M515,0l515,750H0Z" transform="translate(285 8859)" fill="#e2e7fe"/>
                <g id="Group_1071839" data-name="Group 1071839" transform="translate(-220 -769)">
                  <rect id="Rectangle_377379" data-name="Rectangle 377379" width="190" height="93" rx="18" transform="translate(925 9659)" fill="#304c8e"/>
                  <text id="A.5_Políticas_de_la_seguridad_de_la_información_" data-name="A.5 Políticas de la seguridad de la información
" transform="translate(944 9669)" fill="#fff" font-size="16" font-family="Roboto-Regular, Roboto"><tspan x="0" y="15">A.5 Políticas de la </tspan><tspan x="0" y="39">seguridad de la </tspan><tspan x="0" y="63">información</tspan></text>
                </g>
                <g id="Group_1071840" data-name="Group 1071840" transform="translate(-84 -654)">
                  <rect id="Rectangle_377379-2" data-name="Rectangle 377379" width="159" height="93" rx="18" transform="translate(925 9659)" fill="#304c8e"/>
                  <text id="A.15_Relaciones_con_los_proveedores_" data-name="A.15 Relaciones con los proveedores
" transform="translate(944 9669)" fill="#fff" font-size="16" font-family="Roboto-Regular, Roboto"><tspan x="0" y="15">A.15 Relaciones </tspan><tspan x="0" y="39">con los </tspan><tspan x="0" y="63">proveedores</tspan></text>
                </g>
                <g id="Group_1071845" data-name="Group 1071845" transform="translate(-115 -358)">
                  <rect id="Rectangle_377379-3" data-name="Rectangle 377379" width="210" height="64" rx="18" transform="translate(925 9659)" fill="#304c8e"/>
                  <text id="A.7_Seguridad_de_los_recursos_humanos_" data-name="A.7 Seguridad de los recursos humanos
" transform="translate(944 9669)" fill="#fff" font-size="16" font-family="Roboto-Regular, Roboto"><tspan x="0" y="15">A.7 Seguridad de los </tspan><tspan x="0" y="39">recursos humanos</tspan></text>
                </g>
                <g id="Group_1071846" data-name="Group 1071846" transform="translate(-345 -358)">
                  <path id="Path_611173" data-name="Path 611173" d="M18,0H192a18,18,0,0,1,18,18V46a18,18,0,0,1-18,18H18A18,18,0,0,1,0,46V18A18,18,0,0,1,18,0Z" transform="translate(925 9659)" fill="#e1f5d6"/>
                  <text id="A.7_Seguridad_de_los_recursos_humanos_2" data-name="A.7 Seguridad de los recursos humanos
" transform="translate(944 9669)" fill="#304c8e" font-size="16" font-family="Roboto-Regular, Roboto"><tspan x="0" y="15">A.7 Seguridad de los </tspan><tspan x="0" y="39">recursos humanos</tspan></text>
                </g>
                <g id="Group_1071841" data-name="Group 1071841" transform="translate(-325 -654)">
                  <rect id="Rectangle_377379-4" data-name="Rectangle 377379" width="159" height="93" rx="18" transform="translate(925 9659)" fill="#304c8e"/>
                  <text id="A.6_Organización_de_la_seguridad_de_la_información_" data-name="A.6 Organización de la seguridad de la información
" transform="translate(944 9669)" fill="#fff" font-size="16" font-family="Roboto-Regular, Roboto"><tspan x="0" y="15">A.6 Organización </tspan><tspan x="0" y="39">de la seguridad de </tspan><tspan x="0" y="63">la información</tspan></text>
                </g>
                <g id="Group_1071847" data-name="Group 1071847" transform="translate(-399 -254)">
                  <rect id="Rectangle_377379-5" data-name="Rectangle 377379" width="190" height="166" rx="18" transform="translate(894 9659)" fill="#304c8e"/>
                  <text id="A.17_Aspectos_de_seguridad_de_la_información_de_la_gestión_de_continuidad_de_negocio_" data-name="A.17 Aspectos de seguridad de la información de la gestión de continuidad de negocio
" transform="translate(913 9669)" fill="#fff" font-size="16" font-family="Roboto-Regular, Roboto"><tspan x="0" y="15">A.17 Aspectos de </tspan><tspan x="0" y="39">seguridad de la </tspan><tspan x="0" y="63">información de la </tspan><tspan x="0" y="87">gestión de continuidad </tspan><tspan x="0" y="111">de negocio</tspan><tspan x="0" y="135"></tspan></text>
                </g>
                <g id="Group_1071848" data-name="Group 1071848" transform="translate(-609 -254)">
                  <rect id="Rectangle_377379-6" data-name="Rectangle 377379" width="190" height="94" rx="18" transform="translate(894 9659)" fill="#304c8e"/>
                  <text id="A.16_Gestión_de_incidentes_de_seguridad_de_la_información_" data-name="A.16 Gestión de incidentes de seguridad de la información 
" transform="translate(906 9669)" fill="#fff" font-size="16" font-family="Roboto-Regular, Roboto"><tspan x="0" y="15">A.16 Gestión de </tspan><tspan x="0" y="39">incidentes de seguridad </tspan><tspan x="0" y="63">de la información </tspan></text>
                </g>
                <g id="Group_1071849" data-name="Group 1071849" transform="translate(-189 -254)">
                  <path id="Path_611174" data-name="Path 611174" d="M18,0H137c9.941,0,18,5.6,18,12.5V52.776c0,6.9-8.059,12.5-18,12.5H18c-9.941,0-18-5.6-18-12.5V12.5C0,5.6,8.059,0,18,0Z" transform="translate(894 9659)" fill="#ffe126"/>
                  <text id="A.12_Seguridad_de_las_operaciones_" data-name="A.12 Seguridad de las operaciones 
" transform="translate(906 9669)" fill="#304c8e" font-size="16" font-family="Roboto-Regular, Roboto"><tspan x="0" y="15">A.12 Seguridad de </tspan><tspan x="0" y="39">las operaciones </tspan></text>
                </g>
                <g id="Group_1071850" data-name="Group 1071850" transform="translate(-14 -254)">
                  <path id="Path_611174-2" data-name="Path 611174" d="M18,0H137c9.941,0,18,5.6,18,12.5V52.776c0,6.9-8.059,12.5-18,12.5H18c-9.941,0-18-5.6-18-12.5V12.5C0,5.6,8.059,0,18,0Z" transform="translate(894 9659)" fill="#ffe126"/>
                  <text id="A.13_Seguridad_de_las_comunicaciones_" data-name="A.13 Seguridad de las comunicaciones
" transform="translate(900 9669)" fill="#304c8e" font-size="16" font-family="Roboto-Regular, Roboto"><tspan x="0" y="15">A.13 Seguridad de </tspan><tspan x="0" y="39">las comunicaciones</tspan></text>
                </g>
                <g id="Group_1071851" data-name="Group 1071851" transform="translate(181 -254)">
                  <path id="Path_611174-3" data-name="Path 611174" d="M21,0H159.8a20.934,20.934,0,0,1,21,20.872V88.128A20.934,20.934,0,0,1,159.8,109H21A20.934,20.934,0,0,1,0,88.128V20.872A20.934,20.934,0,0,1,21,0Z" transform="translate(868.207 9659)" fill="#ffe126"/>
                  <text id="A.14_Adquisición_desarrollo_y_mantenimiento_de_sistemas_" data-name="A.14 Adquisición, desarrollo y mantenimiento de sistemas
" transform="translate(883 9669)" fill="#304c8e" font-size="16" font-family="Roboto-Regular, Roboto"><tspan x="0" y="15">A.14 Adquisición, </tspan><tspan x="0" y="39">desarrollo y </tspan><tspan x="0" y="63">mantenimiento de </tspan><tspan x="0" y="87">sistemas</tspan></text>
                </g>
                <g id="Group_1071842" data-name="Group 1071842" transform="translate(-325 -527)">
                  <rect id="Rectangle_377379-7" data-name="Rectangle 377379" width="159" height="65" rx="18" transform="translate(925 9659)" fill="#304c8e"/>
                  <text id="A.8_Gestión_de_activos_" data-name="A.8 Gestión de activos
" transform="translate(944 9669)" fill="#fff" font-size="16" font-family="Roboto-Regular, Roboto"><tspan x="0" y="15">A.8 Gestión de </tspan><tspan x="0" y="39">activos</tspan></text>
                </g>
                <g id="Group_1071843" data-name="Group 1071843" transform="translate(-84 -527)">
                  <rect id="Rectangle_377379-8" data-name="Rectangle 377379" width="159" height="65" rx="18" transform="translate(925 9659)" fill="#ffe126"/>
                  <text id="A.9_Control_de_acceso_" data-name="A.9 Control de acceso
" transform="translate(944 9669)" fill="#304c8e" font-size="16" font-family="Roboto-Regular, Roboto"><tspan x="0" y="15">A.9 Control de </tspan><tspan x="0" y="39">acceso</tspan></text>
                </g>
                <g id="Group_1071844" data-name="Group 1071844" transform="translate(-220 -434)">
                  <path id="Path_611172" data-name="Path 611172" d="M18,0H172a18,18,0,0,1,18,18v5a18,18,0,0,1-18,18H18A18,18,0,0,1,0,23V18A18,18,0,0,1,18,0Z" transform="translate(925 9659)" fill="#60cb28"/>
                  <text id="A.18_Cumplimiento_" data-name="A.18 Cumplimiento
" transform="translate(944 9669)" fill="#fff" font-size="16" font-family="Roboto-Regular, Roboto"><tspan x="0" y="15">A.18 Cumplimiento</tspan></text>
                </g>
                <g id="Group_1071852" data-name="Group 1071852" transform="translate(0 39)">
                  <text id="Seguridad_operativa_" data-name="Seguridad operativa
" transform="translate(1125 8832)" fill="#304c8e" font-size="16" font-family="Roboto-Bold, Roboto" font-weight="700"><tspan x="22.84" y="15">Seguridad operativa</tspan></text>
                  <text id="Seguridad_lógica_" data-name="Seguridad lógica 
" transform="translate(1125 8870)" fill="#304c8e" font-size="16" font-family="Roboto-Bold, Roboto" font-weight="700"><tspan x="34.586" y="15">Seguridad lógica </tspan></text>
                  <text id="Seguridad_física_" data-name="Seguridad física 
" transform="translate(1125 8908)" fill="#304c8e" font-size="16" font-family="Roboto-Bold, Roboto" font-weight="700"><tspan x="36.625" y="15">Seguridad física </tspan></text>
                  <text id="Seguridad_legal_" data-name="Seguridad legal
" transform="translate(1125 8946)" fill="#304c8e" font-size="16" font-family="Roboto-Bold, Roboto" font-weight="700"><tspan x="38.957" y="15">Seguridad legal</tspan></text>
                  <g id="Rectangle_377380" data-name="Rectangle 377380" transform="translate(1105 8832)" fill="#304c8e" stroke="#707070" stroke-width="1">
                    <rect width="20" height="20" stroke="none"/>
                    <rect x="0.5" y="0.5" width="19" height="19" fill="none"/>
                  </g>
                  <g id="Rectangle_377382" data-name="Rectangle 377382" transform="translate(1105 8870)" fill="#ffe126" stroke="#707070" stroke-width="1">
                    <rect width="20" height="20" stroke="none"/>
                    <rect x="0.5" y="0.5" width="19" height="19" fill="none"/>
                  </g>
                  <g id="Rectangle_377383" data-name="Rectangle 377383" transform="translate(1105 8908)" fill="#e1f5d6" stroke="#707070" stroke-width="1">
                    <rect width="20" height="20" stroke="none"/>
                    <rect x="0.5" y="0.5" width="19" height="19" fill="none"/>
                  </g>
                  <g id="Rectangle_377384" data-name="Rectangle 377384" transform="translate(1105 8946)" fill="#60cb28" stroke="#707070" stroke-width="1">
                    <rect width="20" height="20" stroke="none"/>
                    <rect x="0.5" y="0.5" width="19" height="19" fill="none"/>
                  </g>
                </g>
              </g>
              <g id="Group_1071854" data-name="Group 1071854" transform="translate(285 8014.854)">
                <path id="Path_611175" data-name="Path 611175" d="M-7648,6924.639l14.7-20.185,71.414-98.093L-7252,6380.7" transform="translate(7652 -6380.7)" fill="none" stroke="#60cb28" stroke-width="2"/>
                <path id="Path_611176" data-name="Path 611176" d="M-7665.5,6950.983l14,9.333-14,4.034Z" transform="translate(7665.5 -6414.378)" fill="#60cb28"/>
              </g>
            </g>
          </g>
        </g>
      </g>
    </g>
  </g>
</svg>
