<svg xmlns="http://www.w3.org/2000/svg" width="400" height="255" viewBox="0 0 400 255">
  <g id="Group_1072787" data-name="Group 1072787" transform="translate(-3060.999 8249.227)">
    <path id="Path_612691" data-name="Path 612691" d="M0,0H400V255H0Z" transform="translate(3060.999 -8249.227)" fill="none"/>
    <g id="Group_1072786" data-name="Group 1072786" transform="translate(-1638 -460.397)">
      <path id="Union" d="M96.666,0H18.239V20.832H58.678L68.756,44.115H53.776V45.34h15.51l24.929,57.594H74.859a37.7,37.7,0,0,0-5.645-8.276c-5.288-6.115-13.032-12.577-20.994-18.31a195.448,195.448,0,0,0-23.66-14.675A74.441,74.441,0,0,0,14.9,57.409a24.163,24.163,0,0,0-4.2-1.069,9.928,9.928,0,0,0-5.234.5l-.98.408-.785.714C-.528,61.8-.265,67.631.342,71.4a67.973,67.973,0,0,0,4.329,14c1.977,4.868,4.377,9.995,6.669,14.8q.723,1.516,1.425,2.978l0,0,.008.017c1.327,2.77,2.579,5.382,3.683,7.784-3,7.18-6.932,16.9-10.061,25.34-1.745,4.707-3.286,9.137-4.272,12.543a38.044,38.044,0,0,0-1.1,4.684,11.765,11.765,0,0,0-.136,2.5,7.532,7.532,0,0,0,.4,2.007,6.567,6.567,0,0,0,2.245,3.077,6.71,6.71,0,0,0,4.04,1.311,9.035,9.035,0,0,0,1.939-.225,19.866,19.866,0,0,0,2.885-.917c1.9-.739,4.288-1.864,6.947-3.23,5.359-2.755,12.285-6.742,19.425-11.307a229.763,229.763,0,0,0,20.993-15c6.252-5.105,12-10.629,15.176-15.86q.22-.363.407-.729H91.819L72.724,159.3H57.452v1.225H72.194l-8.486,19.607H63.58v.3l-4.646,10.733H18.239V212H96.666V191.165h-36.4l4.243-9.8h15v-1.225H65.043l28.111-64.947h86.895L160.954,159.3H145.682v1.225h14.742l-8.487,19.607h-.127v.3l-4.646,10.733H108.92V212h78.426V191.165H148.5l4.242-9.8h15v-1.225H153.272l28.111-64.947h86.9L249.184,159.3H233.912v1.225h14.742l-8.487,19.607h-.127v.3l-4.646,10.733H198.375V212H276.8V191.165H236.729l4.242-9.8h15v-1.225H241.5l28.111-64.947h20.055v32.54a20.832,20.832,0,0,0,31.081,18.136l67.335-38.054a20.832,20.832,0,0,0,0-36.272L320.75,53.484A20.832,20.832,0,0,0,289.668,71.62v31.314H270.674l1.125-.487L252.385,57.594h15.838V56.369h-15.93v1.014l-15.82-36.551H276.8V0H198.375V20.832h36.762l10.078,23.283H230.236V45.34h15.51l24.929,57.594h-88.23l1.125-.487L164.155,57.594h14.613V56.369H163.625L148.243,20.832h39.1V0H108.92V20.832h37.988l10.078,23.283H142.006V45.34h15.51l24.929,57.594H94.215l1.125-.487L75.925,57.594H91.764V56.369H75.834v1.014L60.013,20.832H96.666ZM8.739,68.449a.668.668,0,0,1,.1.006A.7.7,0,0,1,8.739,68.449Zm3.719,1.117c1.792.706,3.987,1.714,6.5,3.006a183.315,183.315,0,0,1,22.1,13.721c7.631,5.495,14.5,11.31,18.885,16.381a23.14,23.14,0,0,1,4.084,6.073,4.311,4.311,0,0,1,.3,1.032c-2.087,3.32-6.389,7.667-12.315,12.506A217.563,217.563,0,0,1,32.168,136.45c-5.91,3.779-11.61,7.107-16.245,9.588.591-1.7,1.252-3.528,1.965-5.452,3.418-9.221,7.853-20.1,10.9-27.3l1.03-2.438-1.069-2.421c-1.42-3.217-3.176-6.879-4.968-10.618v0l-.01-.022q-.683-1.424-1.367-2.857c-2.285-4.789-4.547-9.631-6.375-14.133A57.254,57.254,0,0,1,12.458,69.566ZM64.327,109.93a.156.156,0,0,1,.005-.062C64.333,109.912,64.33,109.932,64.327,109.93Z" transform="translate(4700 -7765)" fill="#304c8e" fill-rule="evenodd"/>
      <text id="Causa" transform="translate(4797.502 -7707.904)" fill="#12263f" font-size="6" font-family="Roboto-Bold, Roboto" font-weight="700"><tspan x="0" y="0">Causa</tspan></text>
      <text id="Causa-2" data-name="Causa" transform="translate(4883.421 -7707.904)" fill="#12263f" font-size="6" font-family="Roboto-Bold, Roboto" font-weight="700"><tspan x="0" y="0">Causa</tspan></text>
      <text id="Causa-3" data-name="Causa" transform="translate(4970.305 -7707.904)" fill="#12263f" font-size="6" font-family="Roboto-Bold, Roboto" font-weight="700"><tspan x="0" y="0">Causa</tspan></text>
      <text id="Causa-4" data-name="Causa" transform="translate(4960.651 -7584.336)" fill="#12263f" font-size="6" font-family="Roboto-Bold, Roboto" font-weight="700"><tspan x="0" y="0">Causa</tspan></text>
      <text id="Causa-5" data-name="Causa" transform="translate(4871.836 -7584.336)" fill="#12263f" font-size="6" font-family="Roboto-Bold, Roboto" font-weight="700"><tspan x="0" y="0">Causa</tspan></text>
      <text id="Máquinas" transform="translate(4935.706 -7560.755)" fill="#fff" font-size="9" font-family="Roboto-Bold, Roboto" font-weight="700"><tspan x="-19.854" y="0">Máquinas</tspan></text>
      <text id="Medición_" data-name="Medición " transform="translate(4757.441 -7560.098)" fill="#fff" font-size="9" font-family="Roboto-Bold, Roboto" font-weight="700"><tspan x="-19.828" y="0">Medición </tspan></text>
      <text id="Medio_ambiente" data-name="Medio ambiente" transform="translate(4847.502 -7560.755)" fill="#fff" font-size="9" font-family="Roboto-Bold, Roboto" font-weight="700"><tspan x="-32.708" y="0">Medio ambiente</tspan></text>
      <text id="Método" transform="translate(4758 -7750.604)" fill="#fff" font-size="9" font-family="Roboto-Bold, Roboto" font-weight="700"><tspan x="-15.453" y="0">Método</tspan></text>
      <text id="Mano_de_obra" data-name="Mano de obra" transform="translate(4849 -7751.604)" fill="#fff" font-size="9" font-family="Roboto-Bold, Roboto" font-weight="700"><tspan x="-27.694" y="0">Mano de obra</tspan></text>
      <text id="Materiales" transform="translate(4938 -7750.604)" fill="#fff" font-size="9" font-family="Roboto-Bold, Roboto" font-weight="700"><tspan x="-21.494" y="0">Materiales</tspan></text>
      <text id="Efecto" transform="translate(5010.851 -7650.428)" fill="#fff" font-size="20" font-family="Roboto-Bold, Roboto" font-weight="700"><tspan x="0" y="0">Efecto</tspan></text>
      <text id="Causa-6" data-name="Causa" transform="translate(4783.022 -7584.336)" fill="#12263f" font-size="6" font-family="Roboto-Bold, Roboto" font-weight="700"><tspan x="0" y="0">Causa</tspan></text>
      <text id="Causa-7" data-name="Causa" transform="translate(4735.719 -7720.455)" fill="#12263f" font-size="6" font-family="Roboto-Bold, Roboto" font-weight="700"><tspan x="0" y="0">Causa</tspan></text>
      <text id="Causa-8" data-name="Causa" transform="translate(4822.602 -7720.455)" fill="#12263f" font-size="6" font-family="Roboto-Bold, Roboto" font-weight="700"><tspan x="0" y="0">Causa</tspan></text>
      <text id="Causa-9" data-name="Causa" transform="translate(4909.486 -7720.455)" fill="#12263f" font-size="6" font-family="Roboto-Bold, Roboto" font-weight="700"><tspan x="0" y="0">Causa</tspan></text>
      <text id="Causa-10" data-name="Causa" transform="translate(4913.348 -7606.54)" fill="#12263f" font-size="6" font-family="Roboto-Bold, Roboto" font-weight="700"><tspan x="0" y="0">Causa</tspan></text>
      <text id="Causa-11" data-name="Causa" transform="translate(4824.534 -7606.54)" fill="#12263f" font-size="6" font-family="Roboto-Bold, Roboto" font-weight="700"><tspan x="0" y="0">Causa</tspan></text>
      <text id="Causa-12" data-name="Causa" transform="translate(4735.719 -7606.54)" fill="#12263f" font-size="6" font-family="Roboto-Bold, Roboto" font-weight="700"><tspan x="0" y="0">Causa</tspan></text>
    </g>
  </g>
</svg>
