<svg xmlns="http://www.w3.org/2000/svg" width="146" height="146" viewBox="0 0 146 146">
  <g id="Group_1072980" data-name="Group 1072980" transform="translate(-1147.5 -5197)">
    <g id="Group_1072367" data-name="Group 1072367" transform="translate(878.5 4239)">
      <circle id="Ellipse_5614" data-name="Ellipse 5614" cx="73" cy="73" r="73" transform="translate(269 958)" fill="#304c8e"/>
    </g>
    <g id="Group_1072972" data-name="Group 1072972" transform="translate(5001.774 13131.256)">
      <g id="compliant" transform="translate(-3819 -7908)">
        <g id="Group_1072929" data-name="Group 1072929" transform="translate(0 0)">
          <path id="Path_613157" data-name="Path 613157" d="M141.911,224.461h7.844a1.369,1.369,0,0,0,0-2.739h-7.844a1.369,1.369,0,0,0,0,2.739Z" transform="translate(-116.97 -181.237)" fill="#fff"/>
          <path id="Path_613158" data-name="Path 613158" d="M141.911,260.809h31.857a1.369,1.369,0,1,0,0-2.739H141.911a1.369,1.369,0,0,0,0,2.739Z" transform="translate(-116.97 -210.948)" fill="#fff"/>
          <path id="Path_613159" data-name="Path 613159" d="M278.362,294.417h-8.493a1.369,1.369,0,0,0,0,2.739h8.493a1.369,1.369,0,0,0,0-2.739Z" transform="translate(-221.564 -240.658)" fill="#fff"/>
          <path id="Path_613160" data-name="Path 613160" d="M98.988,9.195,81.262.336a3.21,3.21,0,0,0-2.857,0L60.679,9.195h0a3.178,3.178,0,0,0-1.767,2.858V14.6H39.668a1.369,1.369,0,1,0,0,2.739H58.912V21.5a34.887,34.887,0,0,0,.449,5.706H36.389a1.369,1.369,0,0,0,0,2.739H59.948a26.791,26.791,0,0,0,1.361,3.9H36.389a1.369,1.369,0,0,0,0,2.739h26.32a26.937,26.937,0,0,0,1.582,2.387q.567.765,1.2,1.511H49.711a1.369,1.369,0,1,0,0,2.739H68.1a61.086,61.086,0,0,0,10.059,7.4,3.189,3.189,0,0,0,3.342,0l.415-.256V83.625H46.09V81.072a1.369,1.369,0,1,0-2.739,0v9.221a.457.457,0,0,1-.456.456H14.643a.457.457,0,0,1-.456-.456V70.568a.457.457,0,0,1,.456-.456H42.894a.457.457,0,0,1,.456.456v4.113a1.369,1.369,0,1,0,2.739,0V70.568a3.18,3.18,0,0,0-.1-.8H68.246a1.369,1.369,0,1,0,0-2.739H41.689v-3.9H68.246a1.369,1.369,0,1,0,0-2.739H41.632a12.818,12.818,0,0,0-.991-3.9H54.823a1.369,1.369,0,0,0,0-2.739H39.035a12.9,12.9,0,0,0-16.32-3.578V17.34H33.277a1.369,1.369,0,1,0,0-2.739H22.258a2.285,2.285,0,0,0-2.282,2.282V52.136a12.885,12.885,0,0,0-4.128,9.455v5.781H14.643a3.2,3.2,0,0,0-3.2,3.2V90.293a3.2,3.2,0,0,0,3.2,3.2H42.894a3.2,3.2,0,0,0,3.2-3.2V86.364H82.377a2.285,2.285,0,0,0,2.282-2.282V48.609a41.722,41.722,0,0,0,10.717-9.635c3.619-4.881,5.379-10.595,5.379-17.469V12.053a3.178,3.178,0,0,0-1.767-2.858ZM33.473,67.372H24.065V61.591a4.7,4.7,0,0,1,9.408,0v5.781ZM18.587,61.591a10.182,10.182,0,1,1,20.363,0v5.781H36.212V61.591a7.443,7.443,0,0,0-14.885,0v5.781H18.587ZM98.016,21.505c0,13.161-6.865,20.005-17.941,26.783a.466.466,0,0,1-.483,0C68.516,41.51,61.651,34.666,61.651,21.505V12.053a.454.454,0,0,1,.253-.408L79.63,2.785a.458.458,0,0,1,.408,0l17.726,8.859a.454.454,0,0,1,.253.408v9.453Z" transform="translate(-11.448 0)" fill="#fff"/>
          <path id="Path_613161" data-name="Path 613161" d="M323.484,52.13a13.858,13.858,0,1,0,13.055,18.511,1.369,1.369,0,1,0-2.58-.92,11.125,11.125,0,1,1,.469-5.691,1.369,1.369,0,1,0,2.7-.479A13.832,13.832,0,0,0,323.484,52.13Z" transform="translate(-255.181 -42.611)" fill="#fff"/>
          <path id="Path_613162" data-name="Path 613162" d="M362.87,105.707l-5.4,5.4-3.137-3.138A1.369,1.369,0,1,0,352.4,109.9l4.106,4.106a1.37,1.37,0,0,0,1.937,0l6.364-6.364a1.369,1.369,0,1,0-1.937-1.937Z" transform="translate(-289.817 -86.078)" fill="#fff"/>
        </g>
      </g>
    </g>
  </g>
</svg>
