<svg xmlns="http://www.w3.org/2000/svg" width="141" height="141" viewBox="0 0 141 141">
  <g id="Group_1073000" data-name="Group 1073000" transform="translate(-317 -763.693)">
    <g id="Group_1071492" data-name="Group 1071492" transform="translate(48 -194.307)">
      <circle id="Ellipse_5614" data-name="Ellipse 5614" cx="70.5" cy="70.5" r="70.5" transform="translate(269 958)" fill="#304c8e"/>
    </g>
    <g id="Group_1072996" data-name="Group 1072996" transform="translate(2613.213 8685.5)">
      <g id="productivity" transform="translate(-2277 -7908)">
        <g id="Group_1072930" data-name="Group 1072930" transform="translate(0 0)">
          <path id="Path_613182" data-name="Path 613182" d="M140.174,230.467a1.493,1.493,0,0,0,1.233-1.715,18.408,18.408,0,1,0-.331,7.582,1.493,1.493,0,0,0-2.893-.742,15.45,15.45,0,1,1,.276-6.357A1.493,1.493,0,0,0,140.174,230.467Z" transform="translate(-88.132 -170.847)" fill="#fff"/>
          <path id="Path_613183" data-name="Path 613183" d="M149.978,246.723a11.77,11.77,0,1,0,11.77,11.77A11.783,11.783,0,0,0,149.978,246.723Zm0,20.552a8.783,8.783,0,1,1,8.783-8.782A8.792,8.792,0,0,1,149.978,267.275Z" transform="translate(-114.878 -197.593)" fill="#fff"/>
          <path id="Path_613184" data-name="Path 613184" d="M173.924,276.623a5.816,5.816,0,1,0,5.816,5.816A5.822,5.822,0,0,0,173.924,276.623Zm0,8.644a2.829,2.829,0,1,1,2.829-2.829A2.832,2.832,0,0,1,173.924,285.267Z" transform="translate(-138.823 -221.539)" fill="#fff"/>
          <path id="Path_613185" data-name="Path 613185" d="M105.9,63.017V53.566a1.493,1.493,0,1,0-2.987,0v7.582a21.433,21.433,0,0,0-6.273-2.1V36.262a2.093,2.093,0,0,0-2.091-2.091h-3.43l8.647-11.753,8.5,11.753H105a2.093,2.093,0,0,0-2.091,2.091V46.6a1.493,1.493,0,1,0,2.987,0V37.158h4.119a2.091,2.091,0,0,0,1.694-3.316L101.466,19.672a2.1,2.1,0,0,0-1.686-.866h-.008a2.1,2.1,0,0,0-1.684.852L87.662,33.828a2.091,2.091,0,0,0,1.684,3.33h4.306v21.6c-.212-.006-.425-.01-.639-.01-.618,0-1.23.027-1.835.079-.048-.84-.122-1.679-.231-2.509a3.069,3.069,0,0,0-3.039-2.659H80.526a.079.079,0,0,1-.073-.061A25.29,25.29,0,0,0,78.5,48.879a.079.079,0,0,1,.008-.1l5.218-5.218A3.07,3.07,0,0,0,84,39.535q-.767-1-1.6-1.936V18.351H86.51A2.091,2.091,0,0,0,88.2,15.035L77.959.866A2.1,2.1,0,0,0,76.273,0h-.009A2.1,2.1,0,0,0,74.58.852L64.155,15.021a2.091,2.091,0,0,0,1.684,3.33h4.306v18.3l-1.882,1.882a.08.08,0,0,1-.1.008,25.278,25.278,0,0,0-4.715-1.952.078.078,0,0,1-.061-.073V29.137A3.069,3.069,0,0,0,60.733,26.1a35.525,35.525,0,0,0-9.174,0A3.069,3.069,0,0,0,48.9,29.137V36.52a.078.078,0,0,1-.061.073,25.29,25.29,0,0,0-4.715,1.952.079.079,0,0,1-.1-.008l-5.218-5.218a3.069,3.069,0,0,0-4.029-.269A35.305,35.305,0,0,0,28.3,39.535a3.07,3.07,0,0,0,.269,4.029l5.218,5.218a.079.079,0,0,1,.008.1,25.284,25.284,0,0,0-1.952,4.715.079.079,0,0,1-.073.061H24.384a3.069,3.069,0,0,0-3.039,2.659,35.367,35.367,0,0,0,0,9.174,3.069,3.069,0,0,0,3.039,2.659h7.383a.079.079,0,0,1,.073.061,25.29,25.29,0,0,0,1.952,4.715.079.079,0,0,1-.008.1l-5.218,5.218a3.07,3.07,0,0,0-.269,4.029,35.306,35.306,0,0,0,6.486,6.486,3.07,3.07,0,0,0,4.029-.269l5.218-5.218a.08.08,0,0,1,.1-.008,25.279,25.279,0,0,0,4.715,1.952.078.078,0,0,1,.061.073v7.383A3.069,3.069,0,0,0,51.56,95.7a35.367,35.367,0,0,0,9.174,0,3.069,3.069,0,0,0,2.658-3.039V85.279a.079.079,0,0,1,.061-.073,25.275,25.275,0,0,0,4.715-1.952.079.079,0,0,1,.1.008l4.431,4.431A21.6,21.6,0,1,0,105.9,63.017ZM67.611,15.364,76.258,3.612l8.5,11.753H81.5a2.093,2.093,0,0,0-2.091,2.091V34.616q-.92-.815-1.895-1.566a3.069,3.069,0,0,0-4.029.269l-.349.349V17.455a2.093,2.093,0,0,0-2.091-2.091ZM71.494,82.27l-1.119-1.119a3.049,3.049,0,0,0-3.624-.526,22.3,22.3,0,0,1-4.157,1.721A3.047,3.047,0,0,0,60.4,85.28v7.383a.077.077,0,0,1-.059.077,32.533,32.533,0,0,1-8.4,0,.076.076,0,0,1-.059-.077V85.28a3.048,3.048,0,0,0-2.19-2.934,22.286,22.286,0,0,1-4.157-1.721,3.088,3.088,0,0,0-1.466-.373,3.043,3.043,0,0,0-2.157.9L36.7,86.369a.078.078,0,0,1-.1.012,32.314,32.314,0,0,1-5.937-5.937.077.077,0,0,1,.012-.1l5.218-5.218a3.049,3.049,0,0,0,.526-3.624A22.291,22.291,0,0,1,34.7,67.348a3.048,3.048,0,0,0-2.934-2.19H24.384a.076.076,0,0,1-.077-.059,32.356,32.356,0,0,1,0-8.4.076.076,0,0,1,.077-.059h7.383a3.048,3.048,0,0,0,2.934-2.19,22.291,22.291,0,0,1,1.721-4.157,3.049,3.049,0,0,0-.526-3.624l-5.218-5.218a.077.077,0,0,1-.012-.1A32.307,32.307,0,0,1,36.6,35.419a.077.077,0,0,1,.1.012l5.218,5.218a3.049,3.049,0,0,0,3.624.526A22.294,22.294,0,0,1,49.7,39.454a3.047,3.047,0,0,0,2.19-2.934V29.138a.076.076,0,0,1,.059-.077,32.516,32.516,0,0,1,8.4,0,.076.076,0,0,1,.059.077V36.52a3.047,3.047,0,0,0,2.19,2.934,22.306,22.306,0,0,1,4.157,1.721,3.048,3.048,0,0,0,3.624-.526l5.218-5.218a.077.077,0,0,1,.1-.012,32.307,32.307,0,0,1,5.937,5.937.077.077,0,0,1-.012.1L76.4,46.671a3.049,3.049,0,0,0-.526,3.624,22.29,22.29,0,0,1,1.721,4.157,3.048,3.048,0,0,0,2.934,2.19h7.383a.077.077,0,0,1,.077.059c.112.853.185,1.717.228,2.581A21.643,21.643,0,0,0,71.408,80.35c0,.647.03,1.287.086,1.92Zm21.519,16.7a18.619,18.619,0,1,1,18.619-18.619A18.64,18.64,0,0,1,93.013,98.968Z" transform="translate(-21.046 0)" fill="#fff"/>
          <path id="Path_613186" data-name="Path 613186" d="M329.034,334.383a1.493,1.493,0,0,0,2.946-.49,16.626,16.626,0,1,0-16.4,19.361,16.475,16.475,0,0,0,9.951-3.313,16.8,16.8,0,0,0,5.932-8.391,1.493,1.493,0,0,0-2.853-.886,13.787,13.787,0,0,1-4.871,6.886,13.511,13.511,0,0,1-8.16,2.717,13.634,13.634,0,1,1,13.452-15.885Z" transform="translate(-243.614 -256.278)" fill="#fff"/>
          <path id="Path_613187" data-name="Path 613187" d="M376.448,342.5a1.493,1.493,0,0,0-1.493,1.493v10.653a1.493,1.493,0,0,0,2.307,1.253l6.789-4.407a1.494,1.494,0,0,0-1.626-2.506l-4.482,2.91v-7.9A1.493,1.493,0,0,0,376.448,342.5Z" transform="translate(-304.48 -274.298)" fill="#fff"/>
        </g>
      </g>
    </g>
  </g>
</svg>
