<svg xmlns="http://www.w3.org/2000/svg" xmlns:xlink="http://www.w3.org/1999/xlink" width="190" height="124" viewBox="0 0 190 124">
  <defs>
    <clipPath id="clip-path">
      <rect id="Rectangle_377476" data-name="Rectangle 377476" width="105" height="104" transform="translate(0 0)" fill="#fff"/>
    </clipPath>
  </defs>
  <g id="Group_1072774" data-name="Group 1072774" transform="translate(-1020 -1770)">
    <rect id="Rectangle_377475" data-name="Rectangle 377475" width="190" height="124" transform="translate(1020 1770)" fill="none"/>
    <g id="identify_1_" data-name="identify (1)" transform="translate(1064 1780.742)" clip-path="url(#clip-path)">
      <path id="Path_612580" data-name="Path 612580" d="M73.672,2.024A36.581,36.581,0,0,0,37.3,38.563a36.182,36.182,0,0,0,5.98,19.974,2.362,2.362,0,0,1-.3,2.982L30.468,73.939l8.008,7.95L50.986,69.468a2.4,2.4,0,0,1,3-.3A36.866,36.866,0,0,0,110.912,39,36.674,36.674,0,0,0,73.672,2.024Z" transform="translate(-7.453 -0.739)" fill="#c5d3dd"/>
      <path id="Path_612581" data-name="Path 612581" d="M79.072,69.4A28.109,28.109,0,1,0,50.76,41.293,28.211,28.211,0,0,0,79.072,69.4Z" transform="translate(-12.416 -3.469)" fill="#f9f7f8"/>
      <path id="Path_612582" data-name="Path 612582" d="M91.25,14.842A28.071,28.071,0,0,1,74.667,65.735a28.5,28.5,0,0,1-8.38-1.252A28.183,28.183,0,1,0,91.25,14.842Z" transform="translate(-16.214 -3.874)" fill="#dff6fd"/>
      <path id="Path_612583" data-name="Path 612583" d="M83.219,28.069,67.712,54.735H98.726Z" transform="translate(-16.563 -7.11)" fill="#ffe126"/>
      <path id="Path_612584" data-name="Path 612584" d="M36.973,101.666,25.265,90.042a.216.216,0,0,0-.3,0L2.1,112.739a.213.213,0,0,0-.063.151v11.837H13.959a.216.216,0,0,0,.152-.063l22.862-22.7A.212.212,0,0,0,36.973,101.666Z" transform="translate(-0.498 -22.253)" fill="#304c8e"/>
      <path id="Path_612585" data-name="Path 612585" d="M22.27,35.662l-8.222-2.114a2.812,2.812,0,1,1,1.42-5.442l8.222,2.114a2.812,2.812,0,1,1-1.42,5.442Z" transform="translate(-2.917 -7.097)" fill="#60cb28"/>
      <path id="Path_612586" data-name="Path 612586" d="M21.154,56.156l-8.478.515a2.811,2.811,0,1,1-.346-5.611l8.478-.515a2.811,2.811,0,1,1,.346,5.611Z" transform="translate(-2.366 -12.606)" fill="#60cb28"/>
      <path id="Path_612587" data-name="Path 612587" d="M32.816,11.619l-7.16-4.536a2.843,2.843,0,0,0-3.91.858,2.8,2.8,0,0,0,.864,3.882l7.16,4.536a2.843,2.843,0,0,0,3.91-.858A2.8,2.8,0,0,0,32.816,11.619Z" transform="translate(-5.21 -1.869)" fill="#60cb28"/>
      <path id="Path_612588" data-name="Path 612588" d="M33.463,112.441l-13.8-13.7a.249.249,0,0,1,0-.354l4.476-4.444a.254.254,0,0,1,.357,0l13.8,13.7a.249.249,0,0,1,0,.354l-4.476,4.445A.254.254,0,0,1,33.463,112.441Z" transform="translate(-4.792 -23.205)" fill="#c5d3dd"/>
      <path id="Path_612589" data-name="Path 612589" d="M78.574,70.434A29.636,29.636,0,1,0,48.724,40.8,29.777,29.777,0,0,0,78.574,70.434Zm0-56.217A26.582,26.582,0,1,1,51.8,40.8,26.708,26.708,0,0,1,78.574,14.217Z" transform="translate(-11.918 -2.975)"/>
      <path id="Path_612590" data-name="Path 612590" d="M67.214,55.767H98.228A1.541,1.541,0,0,0,99.56,55a1.517,1.517,0,0,0,0-1.527l-2.781-4.782a1.544,1.544,0,0,0-2.1-.559,1.52,1.52,0,0,0-.563,2.086l1.449,2.492H69.878L82.721,30.628l7.735,13.3a1.544,1.544,0,0,0,2.1.559,1.52,1.52,0,0,0,.563-2.086L84.053,26.811a1.544,1.544,0,0,0-2.664,0L65.882,53.477a1.518,1.518,0,0,0,0,1.527A1.54,1.54,0,0,0,67.214,55.767Z" transform="translate(-16.065 -6.615)"/>
      <path id="Path_612591" data-name="Path 612591" d="M89.28,42.459a1.538,1.538,0,0,0-3.076,0v4.2a1.538,1.538,0,0,0,3.076,0Z" transform="translate(-21.086 -10.256)"/>
      <path id="Path_612592" data-name="Path 612592" d="M87.738,56.819A1.527,1.527,0,1,0,86.2,55.292,1.533,1.533,0,0,0,87.738,56.819Z" transform="translate(-21.085 -13.395)"/>
      <path id="Path_612593" data-name="Path 612593" d="M13.164,34.531l8.222,2.114a4.34,4.34,0,1,0,2.191-8.4l-8.222-2.114a4.34,4.34,0,1,0-2.191,8.4Zm-.157-4.521a1.293,1.293,0,0,1,1.576-.921L22.806,31.2a1.285,1.285,0,1,1-.649,2.486l-8.222-2.114A1.285,1.285,0,0,1,13.007,30.01Z" transform="translate(-2.419 -6.602)"/>
      <path id="Path_612594" data-name="Path 612594" d="M12.273,57.7l8.478-.515a4.338,4.338,0,1,0-.534-8.659l-8.478.515a4.338,4.338,0,1,0,.534,8.659Zm-1.235-5.18a1.289,1.289,0,0,1,.889-.431l8.478-.515a1.284,1.284,0,1,1,.158,2.563l-8.478.515A1.285,1.285,0,0,1,11.037,52.521Z" transform="translate(-1.868 -12.112)"/>
      <path id="Path_612595" data-name="Path 612595" d="M21.284,12.615l7.16,4.536a4.386,4.386,0,0,0,6.034-1.323,4.325,4.325,0,0,0-1.333-5.99L25.984,5.3a4.393,4.393,0,0,0-6.034,1.323A4.317,4.317,0,0,0,21.284,12.615Zm1.26-4.348a1.3,1.3,0,0,1,1.786-.392l7.16,4.536a1.28,1.28,0,0,1,.395,1.773,1.3,1.3,0,0,1-1.786.392l-7.16-4.536A1.278,1.278,0,0,1,22.544,8.268Z" transform="translate(-4.712 -1.375)"/>
      <path id="Path_612596" data-name="Path 612596" d="M93.77,11.15A38.627,38.627,0,0,0,42.7,8.3a1.52,1.52,0,0,0-.242,2.146,1.546,1.546,0,0,0,2.162.24A35.536,35.536,0,0,1,91.595,13.31a34.629,34.629,0,0,1,10.327,25.174,35.326,35.326,0,0,1-54.543,28.91,3.97,3.97,0,0,0-4.933.5L34.625,75.66l-5.833-5.79L36.613,62.1a3.9,3.9,0,0,0,.5-4.9,34.909,34.909,0,0,1,2.531-41.712,1.519,1.519,0,0,0-.186-2.152,1.546,1.546,0,0,0-2.167.185,37.951,37.951,0,0,0-2.752,45.35.837.837,0,0,1-.105,1.066L26.617,67.71l-.763-.758a1.765,1.765,0,0,0-2.478,0l-2.791,2.771a1.8,1.8,0,0,0-2.323.178l-4.476,4.444a1.768,1.768,0,0,0-.179,2.307l-13.092,13A1.724,1.724,0,0,0,0,90.881v11.837a1.532,1.532,0,0,0,1.538,1.527H13.462a1.748,1.748,0,0,0,1.239-.51l13.091-13a1.8,1.8,0,0,0,2.324-.178l4.476-4.444a1.769,1.769,0,0,0,.179-2.307l2.791-2.772a1.731,1.731,0,0,0,0-2.461l-.762-.757,7.822-7.765a.853.853,0,0,1,1.073-.1,38.642,38.642,0,0,0,47.939-4.779,37.937,37.937,0,0,0,.134-54.02ZM24.615,70.041l9.837,9.766-1.841,1.827-9.837-9.766ZM28.85,87.5l-1.827-1.814a1.545,1.545,0,0,0-2.175,0,1.519,1.519,0,0,0,0,2.159l.755.749-12.689,12.6H3.077V91.425l12.689-12.6,4,3.973a1.547,1.547,0,0,0,2.175,0,1.519,1.519,0,0,0,0-2.16L16.869,75.6l2.658-2.639L31.508,84.859Z" transform="translate(0 -0.244)"/>
    </g>
  </g>
</svg>
