<svg xmlns="http://www.w3.org/2000/svg" width="190" height="124" viewBox="0 0 190 124">
  <g id="Group_1072772" data-name="Group 1072772" transform="translate(-1020 -2133)">
    <rect id="Rectangle_377512" data-name="Rectangle 377512" width="190" height="124" transform="translate(1020 2133)" fill="none"/>
    <g id="g4599" transform="translate(1069 2142)">
      <path id="Path_610235" data-name="Path 610235" d="M93.29,20.825H82.835v11.03H93.29Z" transform="translate(-37.306 -8.813)" fill="#98a5b3"/>
      <g id="Group_1071715" data-name="Group 1071715" transform="translate(0 0)">
        <path id="Path_610236" data-name="Path 610236" d="M92.669,14.457H77.347a3.328,3.328,0,0,1-3.328-3.328V5.774a3.328,3.328,0,0,1,3.328-3.329H92.669A3.328,3.328,0,0,1,96,5.774v5.354A3.328,3.328,0,0,1,92.669,14.457Z" transform="translate(-34.252 -2.446)" fill="#60cb28"/>
        <path id="Path_610237" data-name="Path 610237" d="M39.231,37.263l-7.393,7.393,7.8,7.8,7.393-7.393Z" transform="translate(-19.637 -14.509)" fill="#60cb28"/>
        <path id="Path_610238" data-name="Path 610238" d="M33.618,30.128,24.7,39.042a2.739,2.739,0,0,1-3.873,0l-6.586-6.586a2.739,2.739,0,0,1,0-3.873l8.915-8.914a2.738,2.738,0,0,1,3.873,0l6.586,6.586A2.739,2.739,0,0,1,33.618,30.128Z" transform="translate(-13.263 -8.135)" fill="#ffe126"/>
        <path id="Path_610239" data-name="Path 610239" d="M110.177,74.431a41.17,41.17,0,1,1-41.171-41.17A41.17,41.17,0,0,1,110.177,74.431Z" transform="translate(-18.25 -13.123)" fill="#60cb28"/>
        <path id="Path_610240" data-name="Path 610240" d="M103.6,98.37C43.511,110.734,39.1,57.062,53.424,37.945A41.17,41.17,0,1,0,103.6,98.37Z" transform="translate(-18.25 -14.745)" fill="#98a5b3"/>
        <path id="Path_610241" data-name="Path 610241" d="M105.435,79.782A31.077,31.077,0,1,1,74.358,48.705,31.077,31.077,0,0,1,105.435,79.782Z" transform="translate(-23.602 -18.474)" fill="#fff"/>
        <path id="Path_610242" data-name="Path 610242" d="M52.522,62.427A31.075,31.075,0,0,0,93.949,108.66C58.961,109.5,49.3,82.8,52.522,62.427Z" transform="translate(-23.602 -23.228)" fill="#fff2d0"/>
        <path id="Path_610243" data-name="Path 610243" d="M51.981,96.257l2.917,0" transform="translate(-26.616 -34.949)" fill="none" stroke="#60cb28" stroke-linecap="round" stroke-linejoin="round" stroke-miterlimit="10" stroke-width="20"/>
        <path id="Path_610244" data-name="Path 610244" d="M63.36,122.638l2.064-2.061" transform="translate(-30.558 -43.376)" fill="none" stroke="#60cb28" stroke-linecap="round" stroke-linejoin="round" stroke-miterlimit="10" stroke-width="20"/>
        <path id="Path_610245" data-name="Path 610245" d="M90.832,133.566l0-2.917" transform="translate(-40.077 -46.866)" fill="none" stroke="#60cb28" stroke-linecap="round" stroke-linejoin="round" stroke-miterlimit="10" stroke-width="7"/>
        <path id="Path_610246" data-name="Path 610246" d="M117.214,122.639l-2.061-2.064" transform="translate(-48.504 -43.375)" fill="none" stroke="#60cb28" stroke-linecap="round" stroke-linejoin="round" stroke-miterlimit="10" stroke-width="6"/>
        <path id="Path_610247" data-name="Path 610247" d="M128.141,96.259l-2.917,0" transform="translate(-51.993 -34.949)" fill="none" stroke="#60cb28" stroke-linecap="round" stroke-linejoin="round" stroke-miterlimit="10" stroke-width="6"/>
        <path id="Path_610248" data-name="Path 610248" d="M117.214,68.786l-2.064,2.061" transform="translate(-48.503 -25.431)" fill="none" stroke="#60cb28" stroke-linecap="round" stroke-linejoin="round" stroke-miterlimit="10" stroke-width="6"/>
        <path id="Path_610249" data-name="Path 610249" d="M63.362,68.784l2.061,2.064" transform="translate(-30.559 -25.43)" fill="none" stroke="#60cb28" stroke-linecap="round" stroke-linejoin="round" stroke-miterlimit="10" stroke-width="6"/>
        <path id="Path_610250" data-name="Path 610250" d="M100.235,108.763a3.091,3.091,0,0,1-2.195-.909L86.994,96.807a3.1,3.1,0,0,1,4.389-4.389l11.046,11.047a3.1,3.1,0,0,1-2.195,5.3Z" transform="translate(-38.432 -33.304)" fill="#ffe126"/>
        <path id="Path_610251" data-name="Path 610251" d="M52.32,101.7H42.9a2.8,2.8,0,0,1-2.644-3.735l6.394-18.144a2.7,2.7,0,0,0-2.542-3.592H27.547a6.93,6.93,0,0,0-6.536,4.627l-7.565,21.466a4.808,4.808,0,0,0,4.534,6.406h6.483a2.8,2.8,0,0,1,2.644,3.735L20.712,130.6a2.5,2.5,0,0,0,4.017,2.7l29.634-26.22A3.083,3.083,0,0,0,52.32,101.7Z" transform="translate(-13.168 -28.009)" fill="#ecd12f"/>
        <path id="Path_610252" data-name="Path 610252" d="M31.84,76.225H27.547a6.931,6.931,0,0,0-6.536,4.627l-7.565,21.466a4.808,4.808,0,0,0,4.534,6.406h6.483a2.8,2.8,0,0,1,2.644,3.735L20.712,130.6a2.5,2.5,0,0,0,4.017,2.7L40,119.793C26.264,107.871,28.535,88.5,31.84,76.225Z" transform="translate(-13.168 -28.009)" fill="#ffe126"/>
        <path id="Path_610253" data-name="Path 610253" d="M92.669,14.457H77.347a3.328,3.328,0,0,1-3.328-3.328V5.774a3.328,3.328,0,0,1,3.328-3.329H92.669A3.328,3.328,0,0,1,96,5.774v5.354A3.328,3.328,0,0,1,92.669,14.457Z" transform="translate(-34.252 -2.446)" fill="none" stroke="#000" stroke-linecap="round" stroke-linejoin="round" stroke-miterlimit="10" stroke-width="5"/>
        <path id="Path_610254" data-name="Path 610254" d="M33.618,30.128,24.7,39.042a2.739,2.739,0,0,1-3.873,0l-6.586-6.586a2.739,2.739,0,0,1,0-3.873l8.915-8.914a2.738,2.738,0,0,1,3.873,0l6.586,6.586A2.739,2.739,0,0,1,33.618,30.128Z" transform="translate(-13.263 -8.135)" fill="none" stroke="#000" stroke-linecap="round" stroke-linejoin="round" stroke-miterlimit="10" stroke-width="3"/>
        <path id="Path_610255" data-name="Path 610255" d="M31.693,127.146l22.67-20.058A3.083,3.083,0,0,0,52.32,101.7H42.9a2.8,2.8,0,0,1-2.644-3.734l6.394-18.144a2.7,2.7,0,0,0-2.542-3.592H27.547a6.931,6.931,0,0,0-6.536,4.627l-7.565,21.466a4.808,4.808,0,0,0,4.534,6.406h6.483a2.8,2.8,0,0,1,2.644,3.735L20.712,130.6a2.5,2.5,0,0,0,4.017,2.7L26,132.187" transform="translate(-13.168 -28.009)" fill="none" stroke="#000" stroke-linecap="round" stroke-linejoin="round" stroke-miterlimit="10" stroke-width="6"/>
        <path id="Path_610256" data-name="Path 610256" d="M100.235,108.763a3.091,3.091,0,0,1-2.195-.909L86.994,96.807a3.1,3.1,0,0,1,4.389-4.389l11.046,11.047a3.1,3.1,0,0,1-2.195,5.3Z" transform="translate(-38.432 -33.304)" fill="none" stroke="#000" stroke-linecap="round" stroke-linejoin="round" stroke-miterlimit="10" stroke-width="5"/>
        <path id="Path_610257" data-name="Path 610257" d="M90.774,38.863a41.193,41.193,0,0,0-60,23.1" transform="translate(-19.27 -13.123)" fill="none" stroke="#000" stroke-linecap="round" stroke-linejoin="round" stroke-miterlimit="10" stroke-width="7"/>
        <path id="Path_610258" data-name="Path 610258" d="M51.406,111.891a41.17,41.17,0,0,0,52.772-63.185" transform="translate(-26.417 -18.474)" fill="none" stroke="#000" stroke-linecap="round" stroke-linejoin="round" stroke-miterlimit="10" stroke-width="5"/>
        <path id="Path_610259" data-name="Path 610259" d="M57.827,105.073A31.076,31.076,0,1,0,47.7,66.69" transform="translate(-25.132 -18.474)" fill="none" stroke="#000" stroke-linecap="round" stroke-linejoin="round" stroke-miterlimit="10" stroke-width="6"/>
        <path id="Path_610260" data-name="Path 610260" d="M90.834,69.653V66.7" transform="translate(-40.078 -24.709)" fill="none" stroke="#000" stroke-linecap="round" stroke-linejoin="round" stroke-miterlimit="10" stroke-width="12"/>
        <path id="Path_610261" data-name="Path 610261" d="M31.838,48.575l5.983,5.983" transform="translate(-19.637 -18.429)" fill="none" stroke="#000" stroke-linecap="round" stroke-linejoin="round" stroke-miterlimit="10" stroke-width="3"/>
        <path id="Path_610262" data-name="Path 610262" d="M49.133,43.245l-5.983-5.983" transform="translate(-23.556 -14.509)" fill="none" stroke="#000" stroke-linecap="round" stroke-linejoin="round" stroke-miterlimit="10" stroke-width="3"/>
        <path id="Path_610263" data-name="Path 610263" d="M82.835,20.825v8.456" transform="translate(-37.306 -8.814)" fill="none" stroke="#000" stroke-linecap="round" stroke-linejoin="round" stroke-miterlimit="10" stroke-width="5"/>
        <path id="Path_610264" data-name="Path 610264" d="M98.833,29.281V20.824" transform="translate(-42.849 -8.814)" fill="none" stroke="#000" stroke-linecap="round" stroke-linejoin="round" stroke-miterlimit="10" stroke-width="5"/>
      </g>
    </g>
  </g>
</svg>
