<svg xmlns="http://www.w3.org/2000/svg" width="190" height="124" viewBox="0 0 190 124">
  <g id="Group_1072775" data-name="Group 1072775" transform="translate(-390 -2314)">
    <rect id="Rectangle_377513" data-name="Rectangle 377513" width="190" height="124" transform="translate(390 2314)" fill="none"/>
    <g id="Group_2" data-name="Group 2" transform="translate(435 2326)">
      <path id="Path_610218" data-name="Path 610218" d="M85.372,93.452a6.544,6.544,0,0,1-6.554,6.533H10a6.544,6.544,0,0,0,6.554-6.533V2H85.372Z" transform="translate(-2.463 -0.492)" fill="#e8e9ea"/>
      <path id="Path_610219" data-name="Path 610219" d="M82.067,2H18.9V93.694a6.533,6.533,0,0,1-.9,3.275H75.588a6.442,6.442,0,0,0,4.581-1.919,6.585,6.585,0,0,0,1.9-4.631Z" transform="translate(-4.433 -0.492)" fill="#f2f2f2"/>
      <path id="Path_610220" data-name="Path 610220" d="M93.425,75.234H86.984L80.543,68.74V59h-1.61a4.811,4.811,0,0,0-3.416,1.427A4.89,4.89,0,0,0,74.1,63.87V75.234H61.22a3.207,3.207,0,0,0-2.277.951A3.26,3.26,0,0,0,58,78.48V97.961a3.261,3.261,0,0,0,.943,2.3,3.207,3.207,0,0,0,2.277.951H80.543l6.441-3.247h6.441Z" transform="translate(-14.284 -14.529)" fill="#fbe1ca"/>
      <path id="Path_610221" data-name="Path 610221" d="M57.6,50.193l7.053-5.879A34.862,34.862,0,0,0,77.194,17.532h-.98A29.814,29.814,0,0,1,57.6,11,29.814,29.814,0,0,1,38.98,17.532H38A34.859,34.859,0,0,0,50.544,44.314Z" transform="translate(-9.358 -2.708)" fill="#5e87ca"/>
      <path id="Path_610222" data-name="Path 610222" d="M60.19,22l1.319.969A20.058,20.058,0,0,0,73.38,26.845,23.761,23.761,0,0,1,65.349,40.28L60.19,44.611,55.031,40.28A23.761,23.761,0,0,1,47,26.845a20.058,20.058,0,0,0,11.871-3.876Z" transform="translate(-11.575 -5.417)" fill="#78a0d4"/>
      <path id="Path_610223" data-name="Path 610223" d="M57.812,103.853H72.449v3.252H57.812Z" transform="translate(-14.238 -25.576)" fill="#f2b9a1"/>
      <path id="Path_610224" data-name="Path 610224" d="M57.812,95.221H72.449v3.253H57.812Z" transform="translate(-14.238 -23.45)" fill="#f2b9a1"/>
      <path id="Path_610225" data-name="Path 610225" d="M57.812,86.59H72.449v3.253H57.812Z" transform="translate(-14.238 -21.324)" fill="#f2b9a1"/>
      <path id="Path_610226" data-name="Path 610226" d="M28,67H40.813V79.813H28Z" transform="translate(-6.896 -16.499)" fill="#ccc"/>
      <path id="Path_610227" data-name="Path 610227" d="M28,93H40.813v12.814H28Z" transform="translate(-6.896 -22.903)" fill="#ccc"/>
      <path id="Path_610228" data-name="Path 610228" d="M34.506,75.32a1.675,1.675,0,0,1-1.177-.482L30,71.549l2.354-2.326,2.152,2.127L44.982,61l2.354,2.326L35.683,74.838A1.674,1.674,0,0,1,34.506,75.32Z" transform="translate(-7.388 -15.022)" fill="#559b2d"/>
      <path id="Path_610229" data-name="Path 610229" d="M34.506,101.321a1.679,1.679,0,0,1-1.177-.482L30,97.549l2.354-2.326,2.152,2.127L44.982,87l2.354,2.326L35.683,100.838A1.679,1.679,0,0,1,34.506,101.321Z" transform="translate(-7.388 -21.425)" fill="#559b2d"/>
      <path id="Path_610230" data-name="Path 610230" d="M57.1,51.208a1.623,1.623,0,0,0,1.041-.377l7.01-5.844a36.182,36.182,0,0,0,13.054-27.87,1.623,1.623,0,0,0-1.623-1.623h-.974A28.108,28.108,0,0,1,58.119,9.356a1.623,1.623,0,0,0-2.029,0A28.108,28.108,0,0,1,38.6,15.494h-.974A1.623,1.623,0,0,0,36,17.117a36.177,36.177,0,0,0,13.054,27.87l7.01,5.844A1.623,1.623,0,0,0,57.1,51.208ZM39.286,18.74A31.379,31.379,0,0,0,57.1,12.669,31.387,31.387,0,0,0,74.923,18.74,32.928,32.928,0,0,1,63.072,42.5L57.1,47.474,51.132,42.5A32.927,32.927,0,0,1,39.286,18.74Z" transform="translate(-8.866 -2.215)"/>
      <path id="Path_610231" data-name="Path 610231" d="M60.761,45.235l5.11-4.293a25.264,25.264,0,0,0,8.493-14.223,1.572,1.572,0,0,0-.017-.7,1.589,1.589,0,0,0-.321-.627,1.629,1.629,0,0,0-.563-.432,1.66,1.66,0,0,0-.7-.155,18.316,18.316,0,0,1-10.779-3.523l-1.307-.961a1.659,1.659,0,0,0-1.96,0l-1.307.961A18.325,18.325,0,0,1,46.634,24.8a1.659,1.659,0,0,0-.7.155,1.629,1.629,0,0,0-.565.434,1.589,1.589,0,0,0-.321.63,1.571,1.571,0,0,0-.014.7,25.264,25.264,0,0,0,8.493,14.223l5.11,4.293a1.658,1.658,0,0,0,2.123,0ZM55.65,38.51a22.121,22.121,0,0,1-6.961-10.6,21.654,21.654,0,0,0,10.683-4.064l.327-.24.327.24a21.644,21.644,0,0,0,10.683,4.064,22.121,22.121,0,0,1-6.961,10.6l-4.049,3.4Z" transform="translate(-11.082 -4.925)"/>
      <path id="Path_610232" data-name="Path 610232" d="M98.629,55.386H84.077V1.629A1.636,1.636,0,0,0,83.6.477,1.611,1.611,0,0,0,82.46,0H14.552a1.611,1.611,0,0,0-1.143.477,1.635,1.635,0,0,0-.474,1.152V42.354H1.617a1.611,1.611,0,0,0-1.143.477A1.635,1.635,0,0,0,0,43.983v48.87A8.187,8.187,0,0,0,2.371,98.61,8.068,8.068,0,0,0,8.084,101H75.993a8.068,8.068,0,0,0,5.713-2.389,8.185,8.185,0,0,0,2.37-5.757V87.966H98.629a1.613,1.613,0,0,0,1.143-.477,1.635,1.635,0,0,0,.473-1.152V57.015a1.636,1.636,0,0,0-.473-1.152A1.612,1.612,0,0,0,98.629,55.386ZM12.935,92.854a4.906,4.906,0,0,1-1.421,3.456,4.825,4.825,0,0,1-6.86,0,4.906,4.906,0,0,1-1.421-3.456V45.612h9.7Zm67.908,0a4.905,4.905,0,0,1-1.421,3.456,4.832,4.832,0,0,1-3.429,1.431H14.51a8.1,8.1,0,0,0,1.659-4.887V3.258H80.843V55.386H79.226a1.611,1.611,0,0,0-1.143.477,1.636,1.636,0,0,0-.473,1.152v1.629H73.428l-5.52-5.562v-9.1a1.635,1.635,0,0,0-.474-1.152,1.611,1.611,0,0,0-1.143-.477H64.674A6.443,6.443,0,0,0,60.1,44.263a6.541,6.541,0,0,0-1.894,4.608v9.774H46.889a4.832,4.832,0,0,0-3.43,1.431,4.905,4.905,0,0,0-1.421,3.456V83.079a4.906,4.906,0,0,0,1.421,3.456,4.832,4.832,0,0,0,3.43,1.431h19.4a1.6,1.6,0,0,0,.723-.163l6.126-3.095H77.61v1.629a1.635,1.635,0,0,0,.473,1.152,1.611,1.611,0,0,0,1.143.477h1.617ZM45.272,78.192V74.934H58.207V71.676H45.272V68.418H58.207V65.16H45.272V63.531a1.635,1.635,0,0,1,.474-1.152,1.611,1.611,0,0,1,1.143-.477H59.824a1.611,1.611,0,0,0,1.143-.477,1.635,1.635,0,0,0,.474-1.152V48.87a3.27,3.27,0,0,1,.947-2.3,3.222,3.222,0,0,1,2.287-.954v8.145a1.635,1.635,0,0,0,.474,1.152l6.467,6.516a1.611,1.611,0,0,0,1.143.477H77.61V81.45H72.759a1.6,1.6,0,0,0-.723.163l-6.126,3.1H46.889a1.612,1.612,0,0,1-1.143-.477,1.636,1.636,0,0,1-.474-1.152V81.45H58.207V78.192Zm51.74,6.517H80.843V58.644H97.012Z" transform="translate(0 0.001)"/>
      <path id="Path_610233" data-name="Path 610233" d="M40.712,64.068a1.607,1.607,0,0,0-.764-.211H26.661a1.654,1.654,0,0,0-1.174.49A1.681,1.681,0,0,0,25,65.531V78.922a1.681,1.681,0,0,0,.486,1.184,1.654,1.654,0,0,0,1.174.49H39.948a1.654,1.654,0,0,0,1.174-.49,1.681,1.681,0,0,0,.486-1.184V67.9l4.5-4.531L43.756,61ZM38.287,77.248H28.322V67.2H37.6L33.3,71.534l-2.147-2.164-2.348,2.367,3.322,3.348a1.652,1.652,0,0,0,2.348,0l3.808-3.838Z" transform="translate(-6.157 -15.022)"/>
      <path id="Path_610234" data-name="Path 610234" d="M40.712,89.95a1.652,1.652,0,0,0-.764-.2H26.661a1.688,1.688,0,0,0-1.174.471A1.585,1.585,0,0,0,25,91.357v12.876a1.585,1.585,0,0,0,.486,1.138,1.687,1.687,0,0,0,1.174.472H39.948a1.687,1.687,0,0,0,1.174-.472,1.585,1.585,0,0,0,.486-1.138v-10.6l4.5-4.357L43.756,87Zm-2.425,12.674H28.322V92.966H37.6L33.3,97.128l-2.147-2.081-2.348,2.276,3.322,3.219a1.7,1.7,0,0,0,2.348,0l3.808-3.69Z" transform="translate(-6.157 -21.425)"/>
    </g>
  </g>
</svg>
