<svg xmlns="http://www.w3.org/2000/svg" width="141" height="141" viewBox="0 0 141 141">
  <g id="Group_1072998" data-name="Group 1072998" transform="translate(-1143 -763.693)">
    <g id="Group_1071491" data-name="Group 1071491" transform="translate(874 -194.307)">
      <circle id="Ellipse_5614" data-name="Ellipse 5614" cx="70.5" cy="70.5" r="70.5" transform="translate(269 958)" fill="#304c8e"/>
    </g>
    <g id="Group_1072997" data-name="Group 1072997" transform="translate(2434.256 8683.551)">
      <g id="_OUTLINE" data-name=" OUTLINE" transform="translate(-1267 -7899)">
        <path id="Path_613188" data-name="Path 613188" d="M107.044,55.587V52.552A4.557,4.557,0,0,0,102.492,48H81.249A4.557,4.557,0,0,0,76.7,52.552v3.035a4.531,4.531,0,0,0,.261,1.517H76.7a4.557,4.557,0,0,0-4.552,4.552v3.035a4.533,4.533,0,0,0,1.163,3.035,4.533,4.533,0,0,0-1.163,3.035V73.8a4.533,4.533,0,0,0,1.163,3.035,4.533,4.533,0,0,0-1.163,3.035V82.9A4.557,4.557,0,0,0,76.7,87.453h.261A4.53,4.53,0,0,0,76.7,88.97V92a4.533,4.533,0,0,0,1.163,3.035A4.533,4.533,0,0,0,76.7,98.074v3.035a4.533,4.533,0,0,0,1.163,3.035,4.533,4.533,0,0,0-1.163,3.035v3.035a4.531,4.531,0,0,0,.261,1.517H73.535a4,4,0,0,0-3.1-4.925l-24.177-4.835a10.6,10.6,0,0,0-8.719,2.121l-3.443,2.754a1.523,1.523,0,0,1-.948.333h-1.97v-4.552H16v30.348H31.174v-6.649l6.268,3.134a4.575,4.575,0,0,0,2.036.481H67.592a4.551,4.551,0,0,0,4.291-6.07h5.074a4.531,4.531,0,0,0-.261,1.517v3.035a4.557,4.557,0,0,0,4.552,4.552h21.244a4.557,4.557,0,0,0,4.552-4.552v-3.035a4.557,4.557,0,0,0-4.552-4.552H91.609a4.53,4.53,0,0,0,.261-1.517v-3.035a4.531,4.531,0,0,0-.261-1.517h10.883a4.557,4.557,0,0,0,4.552-4.552v-3.035a4.533,4.533,0,0,0-1.163-3.035,4.533,4.533,0,0,0,1.163-3.035V98.074a4.533,4.533,0,0,0-1.163-3.035A4.533,4.533,0,0,0,107.044,92V88.97a4.557,4.557,0,0,0-4.552-4.552h-.261a4.53,4.53,0,0,0,.261-1.517V79.866a4.533,4.533,0,0,0-1.163-3.035,4.533,4.533,0,0,0,1.163-3.035V70.761a4.533,4.533,0,0,0-1.163-3.035,4.533,4.533,0,0,0,1.163-3.035V61.657a4.53,4.53,0,0,0-.261-1.517h.261A4.557,4.557,0,0,0,107.044,55.587ZM28.139,129.94h-9.1V105.661H22.07v15.174H25.1V105.661h3.035Zm47.04-68.283A1.519,1.519,0,0,1,76.7,60.139H97.94a1.519,1.519,0,0,1,1.517,1.517v3.035a1.519,1.519,0,0,1-1.517,1.517H76.7a1.519,1.519,0,0,1-1.517-1.517Zm0,9.1A1.519,1.519,0,0,1,76.7,69.244H97.94a1.519,1.519,0,0,1,1.517,1.517V73.8a1.519,1.519,0,0,1-1.517,1.517H76.7A1.519,1.519,0,0,1,75.179,73.8ZM76.7,84.418A1.519,1.519,0,0,1,75.179,82.9V79.866A1.519,1.519,0,0,1,76.7,78.348H97.94a1.519,1.519,0,0,1,1.517,1.517V82.9a1.519,1.519,0,0,1-1.517,1.517Zm-9.1,42.487H39.478a1.525,1.525,0,0,1-.679-.16l-7.625-3.812V110.214h1.97a4.569,4.569,0,0,0,2.844-1l3.443-2.754a7.57,7.57,0,0,1,6.228-1.515l24.177,4.835a.984.984,0,0,1-.193,1.949H50.9a6.07,6.07,0,1,0,0,12.139H67.592a1.517,1.517,0,1,1,0,3.035Zm-5.809-6.07H50.9a3.035,3.035,0,0,1,0-6.07H61.783a4.531,4.531,0,0,0-.261,1.517v3.035a4.531,4.531,0,0,0,.261,1.517Zm4.291,0a1.519,1.519,0,0,1-1.517-1.517v-3.035a1.519,1.519,0,0,1,1.517-1.517H87.318a1.519,1.519,0,0,1,1.517,1.517v3.035a1.519,1.519,0,0,1-1.517,1.517Zm36.418,3.035a1.519,1.519,0,0,1,1.517,1.517v3.035a1.519,1.519,0,0,1-1.517,1.517H81.249a1.519,1.519,0,0,1-1.517-1.517v-3.035a1.519,1.519,0,0,1,1.517-1.517Zm1.517-13.657a1.519,1.519,0,0,1-1.517,1.517H81.249a1.519,1.519,0,0,1-1.517-1.517v-3.035a1.519,1.519,0,0,1,1.517-1.517h21.244a1.519,1.519,0,0,1,1.517,1.517Zm0-9.1a1.519,1.519,0,0,1-1.517,1.517H81.249a1.519,1.519,0,0,1-1.517-1.517V98.074a1.519,1.519,0,0,1,1.517-1.517h21.244a1.519,1.519,0,0,1,1.517,1.517Zm-1.517-13.657a1.519,1.519,0,0,1,1.517,1.517V92a1.519,1.519,0,0,1-1.517,1.517H81.249A1.519,1.519,0,0,1,79.731,92V88.97a1.519,1.519,0,0,1,1.517-1.517ZM81.249,57.1a1.519,1.519,0,0,1-1.517-1.517V52.552a1.519,1.519,0,0,1,1.517-1.517h21.244a1.519,1.519,0,0,1,1.517,1.517v3.035a1.519,1.519,0,0,1-1.517,1.517Z" transform="translate(-16 -42.051)" fill="#fff"/>
        <rect id="Rectangle_377555" data-name="Rectangle 377555" width="3.035" height="6.07" transform="translate(54.627 51.471)" fill="#fff"/>
        <rect id="Rectangle_377556" data-name="Rectangle 377556" width="3.035" height="6.438" transform="translate(47.484 57.096) rotate(-45)" fill="#fff"/>
        <rect id="Rectangle_377557" data-name="Rectangle 377557" width="3.035" height="3.035" transform="translate(6.07 81.819)" fill="#fff"/>
        <path id="Path_613189" data-name="Path 613189" d="M140.552,91.726a4.557,4.557,0,0,0,4.552-4.552V76.552a4.552,4.552,0,1,0-9.1,0V87.174A4.557,4.557,0,0,0,140.552,91.726Zm-1.517-15.174a1.517,1.517,0,1,1,3.035,0V87.174a1.517,1.517,0,1,1-3.035,0Z" transform="translate(-113.239 -61.499)" fill="#fff"/>
        <path id="Path_613190" data-name="Path 613190" d="M23.91,65.072H68.158a4.552,4.552,0,0,0,3.968-6.784L50,18.956a4.552,4.552,0,0,0-7.935,0L19.942,58.288a4.552,4.552,0,0,0,3.968,6.784Zm-1.323-5.3L44.711,20.444h0a1.517,1.517,0,0,1,2.645,0L69.481,59.776a1.517,1.517,0,0,1-1.322,2.261H23.91a1.517,1.517,0,0,1-1.323-2.261Z" transform="translate(-18.721 -16.636)" fill="#fff"/>
        <path id="Path_613191" data-name="Path 613191" d="M140.552,201.1A4.552,4.552,0,1,0,136,196.552,4.552,4.552,0,0,0,140.552,201.1Zm0-6.07a1.517,1.517,0,1,1-1.517,1.517A1.517,1.517,0,0,1,140.552,195.035Z" transform="translate(-113.239 -158.738)" fill="#fff"/>
      </g>
    </g>
  </g>
</svg>
