<svg xmlns="http://www.w3.org/2000/svg" width="400" height="255" viewBox="0 0 400 255">
  <g id="Group_1072778" data-name="Group 1072778" transform="translate(-915 -3020)">
    <rect id="Rectangle_377477" data-name="Rectangle 377477" width="400" height="255" transform="translate(915 3020)" fill="none"/>
    <g id="_4058697_2121602_1" data-name="4058697_2121602 1" transform="translate(951.511 2989.352)">
      <path id="Path_608601" data-name="Path 608601" d="M267.645,240.448a117.663,117.663,0,0,0,27.3-75.722c0-64.177-50.608-116.2-113.036-116.2S68.871,100.55,68.871,164.727a117.661,117.661,0,0,0,27.3,75.722H267.645Z" transform="translate(-10.681 -6.408)" fill="#ffe126"/>
      <path id="Path_608602" data-name="Path 608602" d="M129.378,403.749c13.15,0,23.811-2.42,23.811-5.4s-10.66-5.4-23.811-5.4-23.811,2.42-23.811,5.4S116.227,403.749,129.378,403.749Z" transform="translate(-25.143 -135.911)" fill="#ffe126"/>
      <path id="Path_608603" data-name="Path 608603" d="M329.852,404.947c-4.96,0-9.687.147-14,.412,3.006-.838,4.715-1.8,4.715-2.82,0-3.26-17.415-5.9-38.9-5.9s-38.9,2.643-38.9,5.9,17.415,5.9,38.9,5.9c5.513,0,10.755-.175,15.507-.489-2.358.71-3.686,1.508-3.686,2.353,0,2.96,16.277,5.359,36.355,5.359s36.356-2.4,36.356-5.359S349.931,404.947,329.852,404.947Z" transform="translate(-79.351 -137.236)" fill="#ffe126"/>
      <path id="Path_608604" data-name="Path 608604" d="M178.242,409.956q-1.079,0-2.142.012c1.38-.634,2.142-1.322,2.142-2.041,0-3.175-14.73-5.749-32.9-5.749s-32.9,2.574-32.9,5.749,14.613,5.727,32.683,5.748c-3.278,1.1-5.164,2.376-5.164,3.739,0,4.119,17.139,7.458,38.28,7.458s38.28-3.339,38.28-7.458S199.383,409.956,178.242,409.956Z" transform="translate(-28.286 -139.223)" fill="#ffe126"/>
      <path id="Path_608605" data-name="Path 608605" d="M417.109,402.192c4.34,0,7.859-.983,7.859-2.195s-3.519-2.195-7.859-2.195-7.859.982-7.859,2.195S412.768,402.192,417.109,402.192Z" transform="translate(-139.024 -137.654)" fill="#ffe126"/>
      <path id="Path_608606" data-name="Path 608606" d="M397.14,394.746c0,.493-1.579.892-3.529.892s-3.528-.4-3.528-.892,1.58-.892,3.528-.892S397.14,394.254,397.14,394.746Z" transform="translate(-132.154 -136.239)" fill="#ffe126"/>
      <path id="Path_608607" data-name="Path 608607" d="M224.9,398.058c2.145,0,3.884-.5,3.884-1.123s-1.739-1.123-3.884-1.123-3.884.5-3.884,1.123S222.756,398.058,224.9,398.058Z" transform="translate(-68.219 -136.941)" fill="#ffe126"/>
      <path id="Path_608608" data-name="Path 608608" d="M252.016,391.144c0,.468-1.1.847-2.446.847s-2.446-.38-2.446-.847,1.1-.847,2.446-.847S252.016,390.677,252.016,391.144Z" transform="translate(-77.968 -134.964)" fill="#ffe126"/>
      <path id="Path_608609" data-name="Path 608609" d="M84.135,361.817c-3.76-10.777-7.564-21.648-13.508-31.392S56.35,312.019,45.779,307.712c3.605,13.7,7.154,28.148,16.438,38.852C68.172,353.428,76.024,357.721,84.135,361.817Z" transform="translate(-2.403 -105.361)" fill="#60cb28"/>
      <path id="Path_608610" data-name="Path 608610" d="M86.038,359.661c-2.389-4.463-4.845-8.891-7.46-13.225q-2.175-3.6-4.509-7.108c-3.349-5-7.162-9.968-12.474-12.8,2.106,5.563,4.212,11.127,6.549,16.6a61.268,61.268,0,0,0,6.585,12.314,47.431,47.431,0,0,0,7.945,8.241c1.477,1.234,3,2.408,4.554,3.55l.064.05q1.25.648,2.511,1.284-.925-2.651-1.864-5.3Q86.994,361.457,86.038,359.661Z" transform="translate(-8.072 -112.105)" fill="#60cb28"/>
      <path id="Path_608611" data-name="Path 608611" d="M77.712,377.164c-5.492-4.951-11.038-9.942-17.449-13.626s-13.842-6.011-21.188-5.165c6.315,6.661,12.829,13.763,21.436,16.952C66.031,377.37,71.829,377.363,77.712,377.164Z" transform="translate(0 -123.458)" fill="#60cb28"/>
      <path id="Path_608612" data-name="Path 608612" d="M78.121,375.443c-2.746-1.791-5.52-3.542-8.356-5.19q-2.358-1.37-4.775-2.634c-3.46-1.8-7.172-3.432-11.072-3.388,2.929,2.5,5.858,5.009,8.889,7.389a39.694,39.694,0,0,0,7.576,4.945,30.717,30.717,0,0,0,7.079,2.207c1.223.241,2.456.432,3.693.6l.052.008q.911-.021,1.826-.053-1.351-1.218-2.711-2.433Q79.225,376.165,78.121,375.443Z" transform="translate(-5.321 -125.62)" fill="#60cb28"/>
      <path id="Path_608613" data-name="Path 608613" d="M86.6,327.2c-.268-7.39-.546-14.845-2.363-22.013s-5.32-14.122-11.041-18.807c-.386,9.171-.95,18.791,2.752,27.19C78.322,318.958,82.362,323.116,86.6,327.2Z" transform="translate(-12.13 -96.173)" fill="#60cb28"/>
      <path id="Path_608614" data-name="Path 608614" d="M88.348,326.23c-.626-3.219-1.3-6.429-2.091-9.612q-.657-2.646-1.433-5.262c-1.117-3.737-2.528-7.539-5.275-10.308.241,3.845.481,7.693.883,11.525a39.678,39.678,0,0,0,1.723,8.881,30.745,30.745,0,0,0,3.344,6.619c.679,1.046,1.4,2.064,2.141,3.068l.03.044q.651.639,1.309,1.274-.066-1.818-.14-3.639C88.677,327.957,88.515,327.093,88.348,326.23Z" transform="translate(-14.508 -101.494)" fill="#60cb28"/>
      <path id="Path_608615" data-name="Path 608615" d="M296.049,346.705c4.416-5.932,8.865-11.921,11.933-18.648s4.688-14.344,3.159-21.579c-6.041,6.911-12.5,14.061-14.871,22.929C294.75,335.1,295.3,340.867,296.049,346.705Z" transform="translate(-96.227 -103.718)" fill="#60cb28"/>
      <path id="Path_608616" data-name="Path 608616" d="M299.747,346.943c1.526-2.9,3.009-5.828,4.385-8.805.762-1.651,1.492-3.316,2.175-5,1.467-3.614,2.746-7.462,2.336-11.341-2.219,3.15-4.439,6.3-6.524,9.542a39.7,39.7,0,0,0-4.214,8.005,30.74,30.74,0,0,0-1.535,7.255c-.126,1.241-.2,2.487-.25,3.732,0,.017,0,.036,0,.053q.107.906.223,1.813,1.086-1.459,2.168-2.926C298.923,348.5,299.338,347.721,299.747,346.943Z" transform="translate(-96.463 -109.26)" fill="#60cb28"/>
      <path id="Path_608617" data-name="Path 608617" d="M299.3,325.224c2.24-5.958,4.494-11.972,5.429-18.268s.462-12.982-2.526-18.6c-3.351,7.156-6.992,14.609-6.839,22.509C295.458,315.929,297.287,320.572,299.3,325.224Z" transform="translate(-96.127 -96.835)" fill="#60cb28"/>
      <path id="Path_608618" data-name="Path 608618" d="M302.056,324.98c.571-2.764,1.1-5.538,1.53-8.328.237-1.547.444-3.1.608-4.654.354-3.339.494-6.827-.769-9.938-1.085,3.134-2.171,6.27-3.124,9.447a34.17,34.17,0,0,0-1.579,7.625,26.441,26.441,0,0,0,.459,6.367c.192,1.057.427,2.1.682,3.147l.01.044q.3.724.616,1.447.551-1.466,1.1-2.937Q301.824,326.091,302.056,324.98Z" transform="translate(-97.305 -101.808)" fill="#60cb28"/>
      <path id="Path_608619" data-name="Path 608619" d="M289.87,141.593A49.743,49.743,0,0,0,271.9,126.848c-1.361,18.1-2.043,36.309-1.647,54.453a63.724,63.724,0,0,0,13.712-9.053c4.059-3.7,7.43-8.352,8.779-13.676C294.282,152.488,293.18,145.977,289.87,141.593Z" transform="translate(-86.893 -36.289)" fill="#304c8e"/>
      <path id="Path_608620" data-name="Path 608620" d="M273.374,127.567a5.649,5.649,0,0,0-1.091,2.05c0,.014-.006.03-.01.044q-.22,3.074-.413,6.151-.082,10.762-.164,21.526c-.028,3.651-.037,7.409,1.31,10.8a19.006,19.006,0,0,0,2.709,4.574c.612.79,2.188,3.354,3.47,3.027,1.121-.286,1.5-3.849,1.812-4.873q.9-2.97,2-5.876a9.618,9.618,0,0,0,.806-3.119,9.214,9.214,0,0,0-.647-3.067c-1.921-5.767-3.782-11.615-4.343-17.668a69.609,69.609,0,0,1-.017-10.365A49.619,49.619,0,0,0,273.374,127.567Z" transform="translate(-87.287 -36.507)" fill="#304c8e"/>
      <path id="Path_608621" data-name="Path 608621" d="M123.889,72.7s-6.052-.491-11.585,8.01c14.435-3.288,22.213-.561,22.213-.561S130.422,72.3,123.889,72.7Z" transform="translate(-27.532 -15.067)" fill="#808285"/>
      <path id="Path_608622" data-name="Path 608622" d="M169.158,58.6a47.6,47.6,0,0,1-6.357-9.657c2.59-2.281,2.854-6.813,1.824-10.107a11.794,11.794,0,0,0-6.977-7.184,16.545,16.545,0,0,0-10.175-.4c-4.053,1.055-7.949,3.588-9.561,7.454s-.214,9.053,3.613,10.756a47.44,47.44,0,0,1-7.935,14.367c10.1.085,20.2.171,30.292-.121a8.836,8.836,0,0,0,4.755-1.055A2.734,2.734,0,0,0,169.158,58.6ZM157.315,44.693a6.865,6.865,0,0,1-6.4.657,4.8,4.8,0,0,1-3.053-6.24,6.433,6.433,0,0,1,2.182-3.145c1.377-1.088,8.329-2.937,9.919,2.734C160.589,40.93,159.165,43.4,157.315,44.693Z" transform="translate(-35.642)" fill="#bcbec0"/>
      <path id="Path_608623" data-name="Path 608623" d="M141.988,64.828a83.042,83.042,0,0,1,5.32-14.358,9.7,9.7,0,0,1-2.789-17.224,12.719,12.719,0,0,0-6.609,6.4C136.3,43.511,137.7,48.7,141.523,50.4a47.44,47.44,0,0,1-7.935,14.367Q137.789,64.8,141.988,64.828Z" transform="translate(-35.476 -0.931)" fill="#d1d3d4"/>
      <path id="Path_608624" data-name="Path 608624" d="M72.448,77.713H202.693l16.644,184.269L90.674,277.038Z" transform="translate(-11.963 -16.871)" fill="#304c8e"/>
      <path id="Path_608625" data-name="Path 608625" d="M218.694,97.544s11.754-4.355,7.944-19.831h-16.29Z" transform="translate(-64.329 -16.871)" fill="#304c8e"/>
      <path id="Path_608626" data-name="Path 608626" d="M69.716,77.713l-4.89,3.458L83.162,275.2l4.779,1.834Z" transform="translate(-9.231 -16.871)" fill="#304c8e"/>
      <path id="Path_608627" data-name="Path 608627" d="M225.511,265.144,214.037,138.266l-9.171-49.421-115.183-2.2s-1.248,145.35,22.241,191.779Z" transform="translate(-18.137 -20.072)" fill="#304c8e"/>
      <path id="Path_608628" data-name="Path 608628" d="M93.226,91.2l116.162-2.084c3.874,57.21,10.587,114.223,21.69,170.479-38.656,1.183-77.505,6.584-115.492,13.847C104.982,234.925,93.226,125.36,93.226,91.2Z" transform="translate(-19.411 -20.958)" fill="#fff"/>
      <path id="Path_608629" data-name="Path 608629" d="M215.59,90.033l4.983,11.84a14.488,14.488,0,0,0,8.618-12.084Z" transform="translate(-66.255 -21.199)" fill="#e6e7e8"/>
      <path id="Path_608630" data-name="Path 608630" d="M149.832,70.841l24.611-1.121a47.581,47.581,0,0,1-4.33-6.24,35.4,35.4,0,0,0-8.246,1.7A64.009,64.009,0,0,0,149.832,70.841Z" transform="translate(-41.662 -11.769)" fill="#808285"/>
      <path id="Path_608631" data-name="Path 608631" d="M136.711,94.6l53.311.037c2.807-6.078,1.583-13.381-.655-19.981a5.757,5.757,0,0,0-4.919-3.9,237.233,237.233,0,0,0-54.086.837C136.3,74.719,137.237,86.044,136.711,94.6Z" transform="translate(-34.646 -13.965)" fill="#bcbec0"/>
      <path id="Path_608632" data-name="Path 608632" d="M193.769,85.322l-55.132.154A43.667,43.667,0,0,1,139.8,95.9l54.566-.289A27.763,27.763,0,0,0,193.769,85.322Z" transform="translate(-37.73 -19.598)" fill="#d1d3d4"/>
      <path id="Path_608633" data-name="Path 608633" d="M172.211,71.515a25.108,25.108,0,0,0-9.59,1.594c-.534.234-1.143.665-1.035,1.239.093.5.665.723,1.155.851,7.509,1.973,15.359,1.883,23.045,1.315,1.51-.112,9.257.109,8.93-1.95-.437-2.75-7.172-2.42-9.068-2.59A121.815,121.815,0,0,0,172.211,71.515Z" transform="translate(-46.162 -14.639)" fill="#d1d3d4"/>
      <path id="Path_608634" data-name="Path 608634" d="M150.159,76.639c2.059,0,3.729-.646,3.729-1.443s-1.669-1.443-3.729-1.443-3.729.646-3.729,1.443S148.1,76.639,150.159,76.639Z" transform="translate(-40.25 -15.451)" fill="#d1d3d4"/>
      <path id="Path_608635" data-name="Path 608635" d="M252.725,160.464l-21.1,1.069L227.6,135.951l21.1-1.069ZM233.8,158.853l15.943-.808-3.23-20.484-15.942.808Z" transform="translate(-70.921 -39.088)" fill="#bcbec0"/>
      <path id="Path_608636" data-name="Path 608636" d="M262.824,230.007l-21.1.973-3.916-25.6,21.1-.973Zm-18.915-1.7,15.947-.735-3.135-20.5-15.946.735Z" transform="translate(-74.761 -65.159)" fill="#bcbec0"/>
      <path id="Path_608637" data-name="Path 608637" d="M254.393,300.683l-4.367-25.528,21.082-1.345,4.368,25.528Zm-1.356-23.148,3.5,20.44,15.931-1.016-3.5-20.44Z" transform="translate(-79.365 -91.191)" fill="#bcbec0"/>
      <path id="Path_608638" data-name="Path 608638" d="M111.433,156.039a1.6,1.6,0,0,1-.051-3.207l66.473-2.126a1.6,1.6,0,0,1,.1,3.206l-66.473,2.126Z" transform="translate(-26.921 -44.856)" fill="#808285"/>
      <path id="Path_608639" data-name="Path 608639" d="M113.436,166.527a1.6,1.6,0,0,1-.051-3.207l66.472-2.126a1.6,1.6,0,1,1,.1,3.206l-66.472,2.126Z" transform="translate(-27.684 -48.775)" fill="#808285"/>
      <path id="Path_608640" data-name="Path 608640" d="M115.439,177.61a1.6,1.6,0,0,1-.05-3.207l33.236-1.063a1.6,1.6,0,1,1,.1,3.206l-33.236,1.063Z" transform="translate(-28.194 -53.303)" fill="#808285"/>
      <path id="Path_608641" data-name="Path 608641" d="M109.129,146.2a1.6,1.6,0,0,1-.05-3.207l33.236-1.063a1.6,1.6,0,1,1,.1,3.206L109.182,146.2Z" transform="translate(-25.815 -41.571)" fill="#60cb28"/>
      <path id="Path_608642" data-name="Path 608642" d="M125.447,228.769a1.6,1.6,0,0,1-.149-3.2l66.212-6.252a1.6,1.6,0,0,1,.3,3.194L125.6,228.762A1.5,1.5,0,0,1,125.447,228.769Z" transform="translate(-32.251 -70.535)" fill="#808285"/>
      <path id="Path_608643" data-name="Path 608643" d="M128.1,239.114a1.6,1.6,0,0,1-.149-3.2l66.212-6.252a1.6,1.6,0,1,1,.3,3.194l-66.212,6.252C128.2,239.112,128.148,239.114,128.1,239.114Z" transform="translate(-33.259 -74.403)" fill="#808285"/>
      <path id="Path_608644" data-name="Path 608644" d="M130.749,251.205a1.6,1.6,0,0,1-.149-3.2l33.106-3.126a1.6,1.6,0,0,1,.3,3.194L130.9,251.2C130.85,251.2,130.8,251.205,130.749,251.205Z" transform="translate(-33.967 -80.052)" fill="#808285"/>
      <path id="Path_608645" data-name="Path 608645" d="M122.5,220.25a1.6,1.6,0,0,1-.149-3.2l33.106-3.126a1.6,1.6,0,1,1,.3,3.194l-33.106,3.126A1.528,1.528,0,0,1,122.5,220.25Z" transform="translate(-30.856 -68.484)" fill="#60cb28"/>
      <path id="Path_608646" data-name="Path 608646" d="M137.694,301.316a1.6,1.6,0,0,1-.175-3.2l66.1-7.332a1.6,1.6,0,1,1,.353,3.188l-66.1,7.332A1.537,1.537,0,0,1,137.694,301.316Z" transform="translate(-36.909 -97.272)" fill="#808285"/>
      <path id="Path_608647" data-name="Path 608647" d="M140.513,311.615a1.6,1.6,0,0,1-.175-3.2l66.1-7.332a1.6,1.6,0,1,1,.353,3.188l-66.1,7.332A1.508,1.508,0,0,1,140.513,311.615Z" transform="translate(-37.981 -101.123)" fill="#808285"/>
      <path id="Path_608648" data-name="Path 608648" d="M143.332,323.962a1.6,1.6,0,0,1-.175-3.2l33.05-3.666a1.6,1.6,0,1,1,.353,3.188l-33.05,3.666A1.489,1.489,0,0,1,143.332,323.962Z" transform="translate(-38.712 -107.047)" fill="#808285"/>
      <path id="Path_608649" data-name="Path 608649" d="M134.579,293.146a1.6,1.6,0,0,1-.175-3.2l33.05-3.666a1.6,1.6,0,1,1,.354,3.188l-33.05,3.666A1.533,1.533,0,0,1,134.579,293.146Z" transform="translate(-35.411 -95.53)" fill="#60cb28"/>
      <path id="Path_608650" data-name="Path 608650" d="M225.956,135.894c4.584,1.505,8.837,3.541,12.309,7.2,4.506-5.8,8.566-11.051,14.923-15.57a82.429,82.429,0,0,0-13.839,23.815A45.629,45.629,0,0,0,225.956,135.894Z" transform="translate(-70.335 -36.311)" fill="#60cb28"/>
      <path id="Path_608651" data-name="Path 608651" d="M236.08,208.658c4.584,1.5,8.837,3.541,12.309,7.2,4.506-5.8,8.566-11.051,14.923-15.569a82.428,82.428,0,0,0-13.839,23.815A45.631,45.631,0,0,0,236.08,208.658Z" transform="translate(-74.145 -63.583)" fill="#60cb28"/>
      <path id="Path_608652" data-name="Path 608652" d="M248.637,276.66c4.584,1.5,8.837,3.541,12.309,7.2,4.505-5.8,8.566-11.051,14.923-15.569a82.429,82.429,0,0,0-13.839,23.815A45.634,45.634,0,0,0,248.637,276.66Z" transform="translate(-78.871 -89.071)" fill="#60cb28"/>
      <path id="Path_608653" data-name="Path 608653" d="M301.888,387.784,289.06,394.01c-.5.244-1.085.619-1.04,1.175.054.675.934.88,1.611.9l18.136.648v-7.359A29.929,29.929,0,0,1,301.888,387.784Z" transform="translate(-93.55 -134.063)" fill="#fff"/>
      <path id="Path_608654" data-name="Path 608654" d="M370.313,405.123c-1.23,2.406-6.879,4.73-10.569,6.521-.433.21-.936.534-.9,1.014.047.583.806.76,1.39.78,3.768.135,9.777.269,14.789.4a3.114,3.114,0,0,0,2.875-4.488l-2.884-6.266C373.4,402.807,371.828,405.748,370.313,405.123Z" transform="translate(-120.956 -139.542)" fill="#fff"/>
      <path id="Path_608655" data-name="Path 608655" d="M359.85,231.46c-6.806,2.338-13.383,2.231-19.637,3.086-1.1,1.537-5.327,7.762-6.428,9.3l17.65,2.216a8.287,8.287,0,0,0,2.868.025,6.378,6.378,0,0,0,3.414-2.455A13.875,13.875,0,0,0,359.85,231.46Z" transform="translate(-110.904 -75.144)" fill="#092942"/>
      <path id="Path_608656" data-name="Path 608656" d="M322.7,214.079c2.288-3.5,5.444-5.928,8.638-5.451-.26-.039-2.727,5.707-3.107,6.362a42.492,42.492,0,0,1-3.888,5.639,33.584,33.584,0,0,1-4.371,4.45c-.453.379-1.684,1.813-2.075.665-.247-.727.8-2.947,1.036-3.616A38.352,38.352,0,0,1,322.7,214.079Z" transform="translate(-104.637 -66.611)" fill="#092942"/>
      <path id="Path_608657" data-name="Path 608657" d="M384.272,157.53l-71.663,63.434-11.37-12.843L372.9,144.687a8.576,8.576,0,1,1,11.37,12.843Z" transform="translate(-100.307 -42.482)" fill="#fbb040"/>
      <path id="Path_608658" data-name="Path 608658" d="M291.319,244.77l-17.753,27.172,29.123-14.329Z" transform="translate(-88.289 -80.304)" fill="#f98c6e"/>
      <path id="Path_608659" data-name="Path 608659" d="M372.114,160.281l-65.575,58.044,4.571,5.164,65.575-58.043Z" transform="translate(-102.207 -49.009)" fill="#9c681c"/>
      <path id="Path_608660" data-name="Path 608660" d="M279.933,271.934l-6.367,9.745,10.445-5.139Z" transform="translate(-87.964 -90.214)" fill="#60cb28"/>
      <path id="Path_608661" data-name="Path 608661" d="M408.871,144.687l-7.29,6.454,11.37,12.843,7.29-6.454a8.576,8.576,0,0,0-11.37-12.843Z" transform="translate(-136.275 -41.917)" fill="#f98c6e"/>
      <path id="Path_608662" data-name="Path 608662" d="M400.559,154.278l-5.164,4.572,11.371,12.842,5.164-4.572Z" transform="translate(-134.058 -46.284)" fill="#fff"/>
      <path id="Path_608663" data-name="Path 608663" d="M374.353,159.146a8.568,8.568,0,0,0,.736-12.107l-101.523,89.87,29.123-14.329Z" transform="translate(-90.387 -44.358)" fill="#231f20" opacity="0.25"/>
      <path id="Path_608664" data-name="Path 608664" d="M367.924,222.2c1.651,2.951,1.783,11.033,1.023,14.328,2.528.425,5.381-3.585,7.909-3.16a21.2,21.2,0,0,1-.8-9.329c.144-1.03.333-2.188-.293-3.019-.792-1.05-2.413-.942-3.638-.463S369.235,222.3,367.924,222.2Z" transform="translate(-124.211 -70.952)" fill="#ef7c5d"/>
      <path id="Path_608665" data-name="Path 608665" d="M335.616,295.375s-15.837,14.75-19.258,26.511-8.256,31.649-8.256,31.649l8.827,1.731,9.052-28.034,14.328-14.969S340.973,297.52,335.616,295.375Z" transform="translate(-101.36 -100.938)" fill="#092942"/>
      <path id="Path_608666" data-name="Path 608666" d="M344.573,295.375A116.353,116.353,0,0,0,333.089,308.1c.861,4.514,1.893,9,2.907,13.4q.427,1.854.88,3.7l12.39-12.945S349.93,297.52,344.573,295.375Z" transform="translate(-110.412 -99.334)" fill="#051d2e"/>
      <path id="Path_608667" data-name="Path 608667" d="M367.1,275.647c-.8,2.14-6.8,4.846-9.1,5.289a6.235,6.235,0,0,1-5.419-1.912c-1.39-1.4-2.766-3.154-2.793-5.1-.4-28.94,4.973-35.031,9.853-39.851,4.265-4.212,10.02-3.45,13.27,1.5,3.595,5.47,1.693,12.855.253,18.72C371.224,262.224,370.352,267.013,367.1,275.647Z" transform="translate(-117.706 -75.618)" fill="#60cb28"/>
      <path id="Path_608668" data-name="Path 608668" d="M361.215,268.783a46.71,46.71,0,0,0,8.739-26.8,38.057,38.057,0,0,1-8.612,13.126,9.243,9.243,0,0,1-1.881,1.618c-2.026,1.217-4.6.928-6.9.37-.507-.123-1.017-.257-1.526-.388-.412,2.675-.726,5.764-.919,9.343A68.84,68.84,0,0,0,361.215,268.783Z" transform="translate(-117.829 -79.253)" fill="#092942"/>
      <path id="Path_608669" data-name="Path 608669" d="M363.211,314.875c2.124-6.523,3.666-10.094,3.429-17.184-10.975,3.341-17.662-2.317-17.662-2.317-1.719,15.673-2.122,24.078-.005,39.709,1.243,9.178,10.511,22.5,15.735,30.392,2.251-.565,3.282-1.022,5.533-1.587-1.939-7.286-5.492-20.438-9.35-27.039C361.8,328.658,360.615,322.847,363.211,314.875Z" transform="translate(-116.901 -100.938)" fill="#092942"/>
      <path id="Path_608670" data-name="Path 608670" d="M335.731,209.136c1.78-1.47,5.148-2.257,7.269-1.345.545.235,1.106.659,1.129,1.252.029.761-.8,1.234-1.522,1.482a19.084,19.084,0,0,1-6.982,1.018C334.876,211.328,333.951,210.606,335.731,209.136Z" transform="translate(-110.879 -66.027)" fill="#f98c6e"/>
      <path id="Path_608671" data-name="Path 608671" d="M357.559,255.145a4.895,4.895,0,0,0,2.075-.162,4.588,4.588,0,0,0,2.143-2.317,32.271,32.271,0,0,0,3.418-10.072,6.6,6.6,0,0,0-1.8-5.989,20.284,20.284,0,0,0-7.44,13.374c-1.109-.031-2.279-.052-3.439-.074-.357,1.452-.679,3.054-.955,4.847Z" transform="translate(-117.293 -77.121)" fill="#092942"/>
      <path id="Path_608672" data-name="Path 608672" d="M322.04,253.893a4.732,4.732,0,0,0-2.2-1.866,1.847,1.847,0,0,0-2.365,1.1c-.3,1.368,1.528,2.661.98,3.949-.158.37-.489.639-.674,1a1.926,1.926,0,0,0,.445,2.12,5.271,5.271,0,0,0,1.979,1.155,7.86,7.86,0,0,0,3.135.722,2.473,2.473,0,0,0,1.786-.731c.856-.98-.121-2.447-.586-3.387A26.452,26.452,0,0,0,322.04,253.893Z" transform="translate(-104.376 -82.743)" fill="#f98c6e"/>
      <path id="Path_608673" data-name="Path 608673" d="M347.506,250.954c1.959-7.917,1.715-9.838,4.515-15.043a8.7,8.7,0,0,1,4.491-3.658,5.548,5.548,0,0,1,5.543.586,5.619,5.619,0,0,1,1.828,4.046,13.525,13.525,0,0,1-.71,4.491c-2.987,10.174-4.544,11.629-10.761,20.219-8.476-.793-19.67-2.551-25.682-5.721-1.221-.644-1.3-2.718-.568-3.888.791-1.267,2.614-1.291,4.082-1.017C334.96,251.849,340.3,251.09,347.506,250.954Z" transform="translate(-109.073 -75.472)" fill="#60cb28"/>
      <path id="Path_608674" data-name="Path 608674" d="M306.952,383.063l10.4,2.807-1.122,3.529-10.175-2.7Z" transform="translate(-100.167 -132.371)" fill="#7e19b8"/>
      <path id="Path_608675" data-name="Path 608675" d="M379.387,397.8l-7.512,3.429,1.638,3.367,7.271-3.368Z" transform="translate(-125.627 -137.654)" fill="#7e19b8"/>
      <path id="Path_608676" data-name="Path 608676" d="M307.766,400.489V398.5l-19.446-.255a.862.862,0,0,0-.3.688c.054.675.934.88,1.611.9Z" transform="translate(-93.55 -137.814)" fill="#808285"/>
      <path id="Path_608677" data-name="Path 608677" d="M359.45,416.424c-.336.2-.633.482-.6.854.047.583.806.76,1.39.78,3.768.135,9.777.269,14.789.4a3.108,3.108,0,0,0,3.138-2.505Q368.81,416.3,359.45,416.424Z" transform="translate(-120.956 -144.162)" fill="#808285"/>
      <path id="Path_608678" data-name="Path 608678" d="M357.378,211.03c-.259,2.061.008,5.252,1.388,6.8a5.09,5.09,0,0,0,4.667,1.377,11.144,11.144,0,0,0,4.535-2.195,28.639,28.639,0,0,0,6.147-6.15c1.606-2.192,2.94-4.96,2.134-7.555a7.5,7.5,0,0,0-4.021-4.2,10.266,10.266,0,0,0-7.059-.925C359.24,199.734,358.015,205.948,357.378,211.03Z" transform="translate(-120.399 -62.666)" fill="#f98c6e"/>
      <path id="Path_608679" data-name="Path 608679" d="M370.568,204.961a6.784,6.784,0,0,0-5.547-8.191,16.794,16.794,0,0,0-4.955.316,8.724,8.724,0,0,1-4.9-.368,6.039,6.039,0,0,1-2.9-3.168,10.465,10.465,0,0,1-.706-4.3,8.6,8.6,0,0,1,.528-3.025,4.392,4.392,0,0,1,1.965-2.3,3.492,3.492,0,0,1,4.919,4.216,10.336,10.336,0,0,1,4.683-3.654c1.134-.463,2.587-.66,3.458.2a2.476,2.476,0,0,1,.581,2.168,6.343,6.343,0,0,1-.908,2.136,7.842,7.842,0,0,1,6.782-2.169,1.329,1.329,0,0,1,.754.318,1.314,1.314,0,0,1,.083,1.353,5.648,5.648,0,0,1-2.617,3c1.825.712,3.756,1.505,4.882,3.109a6.678,6.678,0,0,1,1.014,4.377,9.277,9.277,0,0,1-4.217,7.058,2.761,2.761,0,0,1-1.834.526A1.489,1.489,0,0,1,370.568,204.961Z" transform="translate(-118.344 -57.3)" fill="#092942"/>
      <path id="Path_608680" data-name="Path 608680" d="M381.348,214.821a1.777,1.777,0,0,1,1.273-.2,1.343,1.343,0,0,1,.844,1.12,2.833,2.833,0,0,1-.26,1.439,6.681,6.681,0,0,1-3.369,3.494,1.051,1.051,0,0,1-.974.073c-.8-.5-.533-2.654-.206-3.423A5.69,5.69,0,0,1,381.348,214.821Z" transform="translate(-127.943 -68.728)" fill="#f98c6e"/>
      <path id="Path_608681" data-name="Path 608681" d="M369.5,211.56c-.372.935-1.084,1.529-1.59,1.327s-.615-1.123-.243-2.057,1.084-1.529,1.59-1.327S369.876,210.626,369.5,211.56Z" transform="translate(-124.041 -66.79)" fill="#092942"/>
      <path id="Path_608682" data-name="Path 608682" d="M361.222,211.56c-.372.935-1.084,1.529-1.59,1.327s-.615-1.123-.243-2.057,1.084-1.529,1.59-1.327S361.594,210.626,361.222,211.56Z" transform="translate(-121.072 -66.79)" fill="#092942"/>
      <path id="Path_608683" data-name="Path 608683" d="M360.707,216.789a2.873,2.873,0,0,0-.625.244.592.592,0,0,0-.3.557.678.678,0,0,0,.461.461,1.927,1.927,0,0,0,2.036-.477,2.353,2.353,0,0,0,.572-2.055c-.04-.209-.2-.642-.481-.481-.192.109-.255.553-.367.738A2.435,2.435,0,0,1,360.707,216.789Z" transform="translate(-121.289 -68.856)" fill="#ef7c5d"/>
      <path id="Path_608684" data-name="Path 608684" d="M366.264,222.4a2.634,2.634,0,0,1-.59-.066.321.321,0,0,1,.143-.626,2.071,2.071,0,0,0,2.5-1.66.321.321,0,1,1,.631.112,2.708,2.708,0,0,1-2.687,2.24Z" transform="translate(-123.315 -70.636)" fill="#ef7c5d"/>
      <path id="Path_608685" data-name="Path 608685" d="M302.606,143.436a18.86,18.86,0,0,1-6.652,4.332c-5.148,8.087-1.139,9.1,3.048,6.8q2.491-1.369,4.981-2.742a1.276,1.276,0,0,0,.642-1.954C303.926,147.866,304.193,144.854,302.606,143.436Z" transform="translate(-95.467 -42.187)" fill="#ef7c5d"/>
      <path id="Path_608686" data-name="Path 608686" d="M275.529,246.862a35.463,35.463,0,0,0-2.776,4.6,1.5,1.5,0,0,0-.226,1.082,1.025,1.025,0,0,0,.792.636,3.023,3.023,0,0,0,1.06-.032,30.545,30.545,0,0,0-1.064,5.065.985.985,0,0,0,.809.855c.511.037,1.894-1.918,3.016-3.867a12.3,12.3,0,0,0,2.358-1.18,4.027,4.027,0,0,0,1.611-2,4.371,4.371,0,0,0-.792-3.715,5.337,5.337,0,0,0-1.734-1.666C277.878,246.246,276.318,246.687,275.529,246.862Z" transform="translate(-87.534 -80.736)" fill="#f98c6e"/>
      <path id="Path_608687" data-name="Path 608687" d="M295.372,165.36c1.132,18.525-5,38.794-13.4,55.477a13.746,13.746,0,0,1-6.227-.643,230.672,230.672,0,0,1,7.691-43c.64-2.391,1.346-4.856,2.938-6.752S293.09,164.4,295.372,165.36Z" transform="translate(-88.939 -50.779)" fill="#304c8e"/>
      <path id="Path_608688" data-name="Path 608688" d="M313.884,152.447c-1.758,1.313-4.88,2.78-7.144,2.433a5.573,5.573,0,0,1-4.063-3.227,10.232,10.232,0,0,1-.669-5.01,26.177,26.177,0,0,1,2.041-8.476c1.076-2.526,2.85-5.125,5.74-5.819a9.025,9.025,0,0,1,6.293,1.185,10.771,10.771,0,0,1,5.071,5.5C323.257,144.874,318.219,149.211,313.884,152.447Z" transform="translate(-98.789 -38.044)" fill="#f98c6e"/>
      <path id="Path_608689" data-name="Path 608689" d="M304.263,134.983c3.49,1,6.195.479,7.942-2.894.865,3.978,8.4,17.52,15.681,11.036-3.574-1.845-3.367-5.594-4.563-9.241a9.206,9.206,0,0,0-2.372-3.981,5.774,5.774,0,0,0-4.531-1.57,17.335,17.335,0,0,0,2.763-1.286c.294-.17.612-.393.633-.711.03-.459-.564-.738-1.067-.812a4.82,4.82,0,0,0-3.606.923,5.5,5.5,0,0,0-2.525-3.249,2.416,2.416,0,0,0-1.017-.375,1.062,1.062,0,0,0-.959.377,1.17,1.17,0,0,0-.107.851,5.561,5.561,0,0,0,1.505,2.969,7.134,7.134,0,0,0-6.3,2.623,17.438,17.438,0,0,0-2.909,6.012C303.173,135.547,303.923,135.09,304.263,134.983Z" transform="translate(-99.223 -34.534)" fill="#092942"/>
      <path id="Path_608690" data-name="Path 608690" d="M305.845,139.452a1.733,1.733,0,0,0-.575-1.185,1.615,1.615,0,0,0-1.543-.123,2.98,2.98,0,0,0-1.18.985,6.16,6.16,0,0,0-1.234,4.711,1.048,1.048,0,0,0,.513.864c.946.412,2.782-.956,3.3-1.642A5.2,5.2,0,0,0,305.845,139.452Z" transform="translate(-98.244 -40.121)" fill="#f98c6e"/>
      <path id="Path_608691" data-name="Path 608691" d="M317.548,149.02c-.645.812-.772,1.731-.283,2.054s1.409-.074,2.055-.885.772-1.731.283-2.054S318.194,148.208,317.548,149.02Z" transform="translate(-104.107 -43.839)" fill="#092942"/>
      <path id="Path_608692" data-name="Path 608692" d="M322.489,156.044c-.645.812-.772,1.731-.283,2.054s1.409-.074,2.055-.885.772-1.731.283-2.054S323.135,155.232,322.489,156.044Z" transform="translate(-105.958 -46.462)" fill="#092942"/>
      <path id="Path_608693" data-name="Path 608693" d="M317.842,158.816a2.618,2.618,0,0,1,.146.659.575.575,0,0,1-.337.553.815.815,0,0,1-.7-.146,1.851,1.851,0,0,1-.772-1.979,2.41,2.41,0,0,1,1.565-1.576c.217-.077.714-.173.733.153.013.221-.362.509-.466.7A2.229,2.229,0,0,0,317.842,158.816Z" transform="translate(-103.78 -46.917)" fill="#ef7c5d"/>
      <path id="Path_608694" data-name="Path 608694" d="M309.6,156.824a2.754,2.754,0,0,0,.413.465.38.38,0,0,0,.5,0,.3.3,0,0,0-.005-.454,2.038,2.038,0,0,1-.687-1.519,2.005,2.005,0,0,1,.735-1.485.3.3,0,0,0,.02-.453.379.379,0,0,0-.5-.023,2.516,2.516,0,0,0-.475,3.467Z" transform="translate(-101.143 -45.807)" fill="#ef7c5d"/>
      <path id="Path_608695" data-name="Path 608695" d="M193.559,358.493a15.2,15.2,0,0,1,4.363-.17,5.123,5.123,0,0,1,3.643,2.18c.93,1.521.679,3.473.2,5.192a45.064,45.064,0,0,1-4.155,9.353c-3.825,7.036-7.851,13.959-11.876,20.882a12.417,12.417,0,0,1-3.815-.238,3.8,3.8,0,0,1-2.549-2.413,5.627,5.627,0,0,1,.1-2.551q2.2-11.269,4.4-22.537c.473-2.423.991-4.945,2.507-6.893S191.388,357.316,193.559,358.493Z" transform="translate(-52.715 -123.439)" fill="#092942"/>
      <path id="Path_608696" data-name="Path 608696" d="M201.462,373.164a7.361,7.361,0,0,1-.41-.683A24.763,24.763,0,0,1,198.386,363a23.948,23.948,0,0,1,.126-4.726c-.71.047-1.42.142-2.124.238a2.884,2.884,0,0,0-1.029-.314q-1.808.473-3.611.968a9.153,9.153,0,0,0-2.535,2.152,12.229,12.229,0,0,0-2.057,4.774c.9,1.22,1.738,2.492,2.61,3.722a59.693,59.693,0,0,0,8.354,9.459c.779-1.4,1.558-2.8,2.322-4.205Q200.959,374.12,201.462,373.164Z" transform="translate(-55.59 -123.457)" fill="#051d2e"/>
      <path id="Path_608697" data-name="Path 608697" d="M195.11,383.381a45.071,45.071,0,0,0-4.266-6.088c-1.417-1.611-3.5-3.122-5.543-2.478-.1.03-.183.075-.274.113l-2.113,10.817a5.782,5.782,0,0,1,1.034.344,10.712,10.712,0,0,1,4.888,5.587,20.023,20.023,0,0,1,1.248,4.944q3.194-5.517,6.313-11.076C195.989,384.809,195.549,384.088,195.11,383.381Z" transform="translate(-53.989 -129.36)" fill="#051d2e"/>
      <path id="Path_608698" data-name="Path 608698" d="M132.78,318.194a162.973,162.973,0,0,0,30.944,27.563c-1.076,1.377-2.3,2.874-4.038,3.093a6.775,6.775,0,0,1-4.028-1.26c-5.691-3.23-11.463-6.52-16.046-11.191A24.709,24.709,0,0,1,132.78,318.194Z" transform="translate(-35.281 -107.914)" fill="#60cb28"/>
      <path id="Path_608699" data-name="Path 608699" d="M132.781,318.194a24.712,24.712,0,0,0,6.831,18.206,41.721,41.721,0,0,0,4.715,4.079c.033-1.238.047-2.478.027-3.716-.037-2.306-.165-4.623-.384-6.929Q138.094,324.293,132.781,318.194Z" transform="translate(-35.145 -107.744)" fill="#60cb28"/>
      <path id="Path_608700" data-name="Path 608700" d="M109.09,313.045q-4.742,1.784-9.335,3.816a6.435,6.435,0,0,0-2.943,2.025c-.812,1.276-.364,2.871.109,4.3q5.909,17.9,13.24,35.475c.307.737,4.434,10.986,5.223,11.106,4.264.647,5.15-8.907,9.422-9.22a7.073,7.073,0,0,0,3.3-.817,5.032,5.032,0,0,0,1.868-3.269c1.373-5.505-3.777-33.293-7.264-38.552S115.432,310.658,109.09,313.045Z" transform="translate(-20.536 -106.914)" fill="#60cb28"/>
      <path id="Path_608701" data-name="Path 608701" d="M131.138,355.633a5.533,5.533,0,0,0,1.686.338c-.26-2.458-.649-5.225-1.13-8.081a36.95,36.95,0,0,1-8.262-2.2,45.043,45.043,0,0,1-4.642-2.138,77.919,77.919,0,0,1-14.118-10.064,44.987,44.987,0,0,0,5.806,8.957,39.836,39.836,0,0,0,7.4,6.051A57.682,57.682,0,0,0,131.138,355.633Z" transform="translate(-24.693 -113.478)" fill="#60cb28"/>
      <path id="Path_608702" data-name="Path 608702" d="M115.959,303.173a19.535,19.535,0,0,0-.262,7.443,1.922,1.922,0,0,1-2.041,2.233,18.951,18.951,0,0,1-2.938-.439,2.3,2.3,0,0,1-1.053-.457,2.435,2.435,0,0,1-.592-1.454q-.6-3.589-1.2-7.178a3.021,3.021,0,0,1,.13-2.02,2.835,2.835,0,0,1,2.475-1.021,6.653,6.653,0,0,1,2.984.442C114.387,301.144,116.189,302.185,115.959,303.173Z" transform="translate(-25.758 -100.857)" fill="#ef7c5d"/>
      <path id="Path_608703" data-name="Path 608703" d="M119.954,288.779c.6,2.112.853,5.551-.281,7.542a5.573,5.573,0,0,1-4.466,2.641,10.233,10.233,0,0,1-4.919-1.166,26.18,26.18,0,0,1-7.187-4.935c-1.974-1.908-3.768-4.493-3.383-7.44a9.023,9.023,0,0,1,3.356-5.454,10.775,10.775,0,0,1,6.945-2.771C116.232,277.317,118.481,283.572,119.954,288.779Z" transform="translate(-22.775 -92.373)" fill="#f98c6e"/>
      <path id="Path_608704" data-name="Path 608704" d="M116.836,291.357c.527.893,1.34,1.34,1.816,1s.434-1.342-.092-2.235-1.34-1.34-1.816-1S116.309,290.464,116.836,291.357Z" transform="translate(-28.971 -96.5)" fill="#092942"/>
      <path id="Path_608705" data-name="Path 608705" d="M125.162,289.252c.527.893,1.34,1.34,1.816,1s.434-1.342-.092-2.235-1.34-1.34-1.816-1S124.635,288.359,125.162,289.252Z" transform="translate(-32.09 -95.714)" fill="#092942"/>
      <path id="Path_608706" data-name="Path 608706" d="M126.054,294.811a2.626,2.626,0,0,1,.668.1.574.574,0,0,1,.4.512.813.813,0,0,1-.388.605,1.852,1.852,0,0,1-2.124.013,2.411,2.411,0,0,1-.912-2.025c.006-.231.094-.728.4-.63.211.067.346.52.49.687A2.23,2.23,0,0,0,126.054,294.811Z" transform="translate(-31.703 -98.124)" fill="#ef7c5d"/>
      <path id="Path_608707" data-name="Path 608707" d="M121.111,302.223a2.78,2.78,0,0,0,.582-.219.38.38,0,0,0,.18-.467.3.3,0,0,0-.425-.157,2.04,2.04,0,0,1-1.664.1,2,2,0,0,1-1.124-1.217.3.3,0,0,0-.416-.18.38.38,0,0,0-.2.459,2.519,2.519,0,0,0,3.069,1.683Z" transform="translate(-29.581 -100.607)" fill="#ef7c5d"/>
      <path id="Path_608708" data-name="Path 608708" d="M101.558,287.285a7.832,7.832,0,0,0,.393-9.374,51.2,51.2,0,0,0,10.75-2.749c1.513-.561,3.119-1.3,3.852-2.736a5.182,5.182,0,0,0,.232-3.5c-.815-3.521-3.485-6.307-6.311-8.559l1.491,4.459a16.815,16.815,0,0,0-4.887-3.614,36.249,36.249,0,0,1,2.4,6.278A17.975,17.975,0,0,0,99.31,269.2c-3.05,1.667-5.42,4.834-5.47,8.31a9.61,9.61,0,0,0,2.17,5.995C97.353,285.205,99.618,286.32,101.558,287.285Z" transform="translate(-19.63 -86.148)" fill="#092942"/>
      <path id="Path_608709" data-name="Path 608709" d="M103.886,298.129a1.732,1.732,0,0,0-1.313.114,1.617,1.617,0,0,0-.666,1.4,2.982,2.982,0,0,0,.5,1.454,6.158,6.158,0,0,0,3.959,2.836,1.047,1.047,0,0,0,.991-.171c.723-.737.1-2.94-.353-3.668A5.2,5.2,0,0,0,103.886,298.129Z" transform="translate(-22.523 -99.919)" fill="#f98c6e"/>
      <path id="Path_608710" data-name="Path 608710" d="M103.469,347.4a78.976,78.976,0,0,0,14.651,9.7,49.6,49.6,0,0,0,13.374,4.475c-.075-1.752-.272-3.858-.563-6.16-2.061-.736-4.1-1.528-6.109-2.4a103.348,103.348,0,0,1-24.751-15.19Q101.718,342.627,103.469,347.4Z" transform="translate(-22.977 -115.132)" fill="#60cb28"/>
      <path id="Path_608711" data-name="Path 608711" d="M106.154,327.847c1.361,5.656,6.2,10.367,11.963,13.388s12.408,4.557,19.016,5.778a4.436,4.436,0,0,1,.778,1.733,1.674,1.674,0,0,1-.66,1.783,3.466,3.466,0,0,1-1.819.377,45,45,0,0,1-23.708-6.21,35.7,35.7,0,0,1-14.861-16.964,7.865,7.865,0,0,1-.724-3.145,3.473,3.473,0,0,1,1.527-2.83c1.659-1.072,4.182-.513,5.646.75A10.854,10.854,0,0,1,106.154,327.847Z" transform="translate(-20.455 -109.018)" fill="#60cb28"/>
      <path id="Path_608712" data-name="Path 608712" d="M184.994,348.828c.276,1.2.238,4.618.475,6.15-11.7,4.236-23.854,5.89-36.356,9.39l-5.929,1.66a2.989,2.989,0,0,1-2.172.047c-.658-.345-.848-1.49-.16-1.77,12.7-5.18,24.89-11.688,37.921-15.96a10.49,10.49,0,0,1,3.018-.66C182.824,347.665,184.763,347.82,184.994,348.828Z" transform="translate(-38.297 -119.689)" fill="#304c8e"/>
      <path id="Path_608713" data-name="Path 608713" d="M161.931,325.677l30.291-4.461a2.235,2.235,0,0,1,2.528,2.61,193.579,193.579,0,0,0-2.764,21.656c-10.721,1.429-20.986,2.712-33.382,4.6.823-8.365,1.216-15.01,1.414-22.24A2.243,2.243,0,0,1,161.931,325.677Z" transform="translate(-45.075 -109.001)" fill="#304c8e"/>
      <path id="Path_608714" data-name="Path 608714" d="M190.784,342.206c-.362,2.08-2.071,3.519-3.817,3.215s-2.866-2.236-2.5-4.316,2.072-3.519,3.817-3.215S191.147,340.126,190.784,342.206Z" transform="translate(-54.475 -114.819)" fill="#e1f5d6"/>
      <path id="Path_608715" data-name="Path 608715" d="M127.373,391.092a18.954,18.954,0,0,0,11.869-.243c8.606-2.808,15.458-9.248,22-15.5,4.529,6.543,10.038,12.827,14.567,19.37.97,1.4,2.034,2.879,3.625,3.489s5.709-4.321,5.512-5.629a11.686,11.686,0,0,0-1.438-3.675A208.473,208.473,0,0,0,170.86,368.51c-1.723-2.487-3.683-5.1-6.572-6-3.011-.937-6.226.235-9.177,1.345-9.5,3.574-17.183,4.721-27.739,8.017C115.291,375.642,121.407,388.944,127.373,391.092Z" transform="translate(-30.902 -124.88)" fill="#092942"/>
      <path id="Path_608716" data-name="Path 608716" d="M230.235,413.151c.416.082.912.235,1.009.649.116.5-.437.869-.908,1.065-4.734,1.978-9.886,2.682-14.97,3.369a3.416,3.416,0,0,1-1.893-.1,3.1,3.1,0,0,1-1.362-1.715,4.091,4.091,0,0,1-.428-2.234,3.649,3.649,0,0,1,2-2.394,7.929,7.929,0,0,1,2.769-1.205,15.654,15.654,0,0,1,2.966.551q3.492.622,6.978,1.28Q228.316,412.777,230.235,413.151Z" transform="translate(-64.85 -142.234)" fill="#fff"/>
      <path id="Path_608717" data-name="Path 608717" d="M176.71,415.87a3.185,3.185,0,0,0-.076,2.127,2.319,2.319,0,0,0,1.426,1.2,6.648,6.648,0,0,0,1.9.259c3.425.126,6.854.115,10.281.1a17.907,17.907,0,0,0,2.873-.163c.531-.088,1.184-.4,1.118-.931-.047-.379-.441-.6-.79-.756q-3.867-1.745-7.824-3.278-2.008-.778-4.037-1.5c-.762-.271-2.215-1.1-3.051-.762C177.488,412.594,176.991,414.908,176.71,415.87Z" transform="translate(-51.615 -142.776)" fill="#fff"/>
    </g>
  </g>
</svg>
