<svg xmlns="http://www.w3.org/2000/svg" xmlns:xlink="http://www.w3.org/1999/xlink" width="505" height="1220.676" viewBox="0 0 505 1220.676">
  <defs>
    <clipPath id="clip-path">
      <rect id="Rectangle_377589" data-name="Rectangle 377589" width="68.769" height="63.214" fill="none"/>
    </clipPath>
  </defs>
  <g id="Group_1073127" data-name="Group 1073127" transform="translate(-8211 9048)">
    <g id="Group_1073113" data-name="Group 1073113">
      <rect id="Rectangle_377418" data-name="Rectangle 377418" width="505" height="1220.676" transform="translate(8211 -9048)" fill="#fff"/>
      <g id="Group_1073109" data-name="Group 1073109" transform="translate(985 152.849)">
        <path id="Path_613324" data-name="Path 613324" d="M444,289.932l-17.449-17.024v-80.43c0-19.594-20.2-35.476-45.114-35.476H102.179c-1.486,0-2.953.061-4.4.171l1.145-12.262L72.271,165.928c-9.324,6.5-15.206,15.982-15.206,26.55v132H381.439c13.241,0,25.15-4.486,33.4-11.631l-.008.08Z" transform="translate(7263.935 -9115.781)" fill="#12263f" opacity="0.14"/>
        <path id="Path_613327" data-name="Path 613327" d="M413.341,317.188H71.836V176.057c0-20.949,21.266-37.929,47.5-37.929H413.339c26.233,0,47.5,16.982,47.5,37.929v103.2C460.838,300.206,439.572,317.188,413.341,317.188Z" transform="translate(7260.164 -9121.128)" fill="#e1f5d6"/>
        <text id="Servicios_internos_Que_estructuran_ordenadamente_el_sistema_de_información." data-name="Servicios internos

Que estructuran ordenadamente el sistema de información." transform="translate(7482.449 -8951)" fill="#12263f" font-size="17" font-family="Roboto-Bold, Roboto" font-weight="700"><tspan x="0" y="16">Servicios internos</tspan><tspan x="0" y="40"></tspan><tspan font-size="16" font-family="Roboto-Regular, Roboto" font-weight="400"><tspan x="0" y="64">Que estructuran </tspan><tspan x="0" y="88">ordenadamente el sistema </tspan><tspan x="0" y="112">de información.</tspan></tspan></text>
        <circle id="Ellipse_5856" data-name="Ellipse 5856" cx="47.171" cy="47.171" r="47.171" transform="translate(7347 -8941)" fill="#fff"/>
        <g id="Group_1073106" data-name="Group 1073106" transform="translate(7360.044 -8925.798)">
          <g id="Group_1073106-2" data-name="Group 1073106" clip-path="url(#clip-path)">
            <path id="Path_613333" data-name="Path 613333" d="M18.462,50.539v-.562q0-2.106,0-4.211a1.272,1.272,0,0,1,.382-1.016,1.327,1.327,0,0,1,.941-.282c.673-.015,1.346-.007,2.019-.008h.328c0-.194,0-.355,0-.516,0-.7,0-1.4.007-2.105a1.236,1.236,0,0,1,1.42-1.406c1.317.008,2.634.022,3.951.033h.182c0-.529-.028-1.046.011-1.558a2.313,2.313,0,0,1,.244-.9,1.032,1.032,0,0,1,1.767-.018,2.4,2.4,0,0,1,.274.946c.045.494.012.994.012,1.5,1.3,0,2.565.035,3.83-.01,1.128-.04,1.814.38,1.725,1.7-.051.756,0,1.518,0,2.277,0,.008.01.015.047.066.089,0,.209,0,.33,0,.768.011,1.538,0,2.3.042a1,1,0,0,1,.935.967c.032.354.047.71.048,1.065q0,5.394,0,10.788c0,.065.01.13.017.222h.435q8.162,0,16.325,0a5.412,5.412,0,0,1,.719.036,1.055,1.055,0,0,1,.977,1.061c.005.086,0,.173,0,.26q0,15.893,0,31.787c0,.923-.375,1.32-1.3,1.35-.538.017-1.077.01-1.615.01H2.54c-.433,0-.866,0-1.3-.011A1.123,1.123,0,0,1,0,90.762Q0,79.369,0,67.975q0-8,0-16.009c0-.953.34-1.317,1.3-1.324,2.048-.015,4.1,0,6.144-.018q5.076-.034,10.152-.085c.278,0,.557,0,.871,0m2.266,17.716h-.007q0,10.628,0,21.255c0,.213.057.289.274.284.538-.012,1.077-.018,1.615,0,.274.011.358-.065.357-.348-.012-2.028-.008-4.057-.008-6.085,0-1.577-.008-3.153.012-4.73a3.36,3.36,0,0,1,3.555-3.669c1.556-.041,3.114-.015,4.672-.006a3.6,3.6,0,0,1,2.289.812,2.82,2.82,0,0,1,1.14,1.809,12.035,12.035,0,0,1,.1,1.636q0,5.148-.026,10.3c0,.214.06.285.277.28.528-.013,1.057,0,1.586,0,.4,0,.4,0,.4-.417q0-18.934,0-37.868c0-1.49-.007-2.98.007-4.47,0-.279-.09-.345-.347-.332-.4.02-.807.011-1.211.01l-14.276-.006c-.408,0-.407,0-.406.408q0,10.57,0,21.14M18.429,89.8V52.783L2.2,52.88v.538q0,13.022,0,26.045,0,5.047-.02,10.095c0,.281.155.25.333.25l13.44,0h2.48m20.814-30v.406q0,14.623-.009,29.246c0,.257.055.341.33.341q6.36-.008,12.719.006c.942,0,1.884,0,2.826,0,.378,0,.378,0,.378-.38q0-5.437,0-10.874,0-9.172,0-18.344c0-.4,0-.4-.411-.4H39.242M32.489,89.832c0-.5,0-.953,0-1.4q0-4.513.009-9.026a11.27,11.27,0,0,0-.021-1.208,1.2,1.2,0,0,0-.262-.584,1.478,1.478,0,0,0-1.237-.425c-1-.014-2-.007-3,0-.566,0-1.133.011-1.7.043a1.183,1.183,0,0,0-1.127,1.267c.027,3.7.016,7.4.013,11.1,0,.17.028.234.219.234,2.124-.006,4.249,0,6.373,0h.729M28.856,44.444c1.384,0,2.768,0,4.151,0,.208,0,.292-.048.281-.273-.019-.412-.017-.826-.008-1.239,0-.187-.065-.261-.25-.258-.317.006-.634,0-.951,0-2.451,0-4.9,0-7.351-.005-.248,0-.34.058-.327.319a11.035,11.035,0,0,1-.007,1.152c-.013.243.072.309.311.307,1.384-.01,2.768-.005,4.151-.006" transform="translate(0 -28.845)" fill="#161615"/>
            <path id="Path_613334" data-name="Path 613334" d="M186.641,19.243c.512.888,1,1.735,1.49,2.581.582,1.005,1.172,2.006,1.748,3.015a1,1,0,0,1-.28,1.422,3.979,3.979,0,0,1-3.377.845,3.175,3.175,0,0,1-2.031-1.457c-.736-1.2-1.441-2.427-2.133-3.657-.139-.247-.234-.255-.457-.136a5.148,5.148,0,0,1-2.759.687A5.357,5.357,0,0,1,176,12.733c1.074-.672,2.176-1.3,3.283-1.917A6.734,6.734,0,0,0,180.9,9.544a26.689,26.689,0,0,0,3.407-4.636c.739-1.225,1.445-2.469,2.188-3.691a2.375,2.375,0,0,1,3.516-.7,3.646,3.646,0,0,1,.8,1c.689,1.154,1.341,2.329,2.025,3.486.045.077.245.109.361.09a3.78,3.78,0,0,1,1.926.2,3.607,3.607,0,0,1,2.31,3.813,3.51,3.51,0,0,1-.791,1.851.412.412,0,0,0-.042.541q.937,1.6,1.866,3.214a2.482,2.482,0,0,1,.4,1.84,2.387,2.387,0,0,1-2.587,1.974c-1.672-.023-3.346-.063-5.017-.017a21.356,21.356,0,0,0-4.622.726m6.111-2.994c-.135-.244-.242-.446-.357-.644q-2.787-4.828-5.578-9.653a2.941,2.941,0,0,0-.3-.373c-.06.035-.072.038-.076.045a28.04,28.04,0,0,1-4.162,5.645.245.245,0,0,0-.026.351c.418.7.826,1.407,1.234,2.114q.964,1.671,1.92,3.346a.264.264,0,0,0,.348.146c.811-.193,1.622-.384,2.439-.551a13.6,13.6,0,0,1,1.589-.249c.976-.081,1.955-.119,2.969-.177m-16.976,1.136a8.751,8.751,0,0,0,.372,1.166,2.875,2.875,0,0,0,1.78,1.577,3.273,3.273,0,0,0,2.791-.32c.687-.4,1.381-.795,2.069-1.2.213-.124.555-.234.588-.4.039-.2-.18-.454-.306-.675q-1.246-2.172-2.5-4.34a.427.427,0,0,0-.6-.206,1.531,1.531,0,0,0-.2.106c-.782.449-1.567.894-2.344,1.351a3.4,3.4,0,0,0-1.649,2.937m20.153-1.095c.182,0,.288,0,.393,0,.382-.005.437-.1.247-.426q-1.725-2.979-3.451-5.958-2.079-3.591-4.159-7.182a1.5,1.5,0,0,0-.228-.33c-.135-.132-.276-.166-.386.053a5.085,5.085,0,0,1-.327.543.506.506,0,0,0-.006.591q.731,1.241,1.453,2.487,1.5,2.579,2.992,5.159c.881,1.521,1.773,3.036,2.635,4.568.218.387.465.594.838.494m-12.118,4.357c.108.173.213.329.307.492.612,1.064,1.215,2.133,1.833,3.194a1.2,1.2,0,0,0,1.357.624,2.217,2.217,0,0,0-.119-.309q-1.225-2.166-2.463-4.324a.26.26,0,0,0-.237-.088c-.228.116-.44.263-.678.411M195.169,8.952a1.244,1.244,0,0,0-.846-1.523l.846,1.523" transform="translate(-133.533 -0.014)" fill="#161615"/>
            <path id="Path_613335" data-name="Path 613335" d="M283.9,42.6c-.742-.223-1.514-.413-2.252-.692a.985.985,0,0,1-.477-1.229,1.118,1.118,0,0,1,1.159-.764c.679.157,1.349.359,2.014.571a.933.933,0,0,1,.666.943,1.036,1.036,0,0,1-.614,1.02,3.246,3.246,0,0,1-.5.151" transform="translate(-216.246 -30.691)" fill="#161615"/>
            <path id="Path_613336" data-name="Path 613336" d="M265.925,1.128c-.1.388-.221.842-.346,1.293a7.9,7.9,0,0,1-.237.767,1.065,1.065,0,0,1-1.335.643,1.158,1.158,0,0,1-.717-1.34c.172-.507.281-1.034.426-1.551a1.181,1.181,0,0,1,.862-.912,1.145,1.145,0,0,1,1.348,1.1" transform="translate(-202.496 0)" fill="#161615"/>
            <path id="Path_613337" data-name="Path 613337" d="M280.259,19.03a1.027,1.027,0,0,1-.978-.65.949.949,0,0,1,.243-1.156,19.358,19.358,0,0,1,2.083-1.206.983.983,0,0,1,1.134.472,1.076,1.076,0,0,1-.2,1.365c-.6.4-1.232.738-1.86,1.088a1.443,1.443,0,0,1-.418.087" transform="translate(-214.761 -12.277)" fill="#161615"/>
            <path id="Path_613338" data-name="Path 613338" d="M89.78,98.932q0-10.57,0-21.14c0-.407,0-.408.407-.408l14.276.006c.4,0,.808.01,1.211-.011.257-.013.35.054.347.332-.015,1.49-.007,2.98-.007,4.47q0,18.934,0,37.868c0,.413,0,.416-.4.417-.529,0-1.058-.01-1.586,0-.217.005-.278-.066-.277-.28q.022-5.148.026-10.3a12.035,12.035,0,0,0-.1-1.636,2.819,2.819,0,0,0-1.14-1.809,3.6,3.6,0,0,0-2.289-.812c-1.557-.008-3.116-.035-4.672.006a3.36,3.36,0,0,0-3.555,3.669c-.02,1.576-.012,3.153-.012,4.73,0,2.028,0,4.057.008,6.085,0,.283-.082.359-.357.348-.537-.021-1.077-.015-1.615,0-.217,0-.274-.071-.274-.284q.008-10.628,0-21.255Zm8.132-13.114H98.95c1.451,0,2.9-.005,4.354,0a1.259,1.259,0,0,0,1.376-1.365c-.047-1.267-.019-2.537-.009-3.806a1.072,1.072,0,0,0-.595-1.039,2.112,2.112,0,0,0-.9-.212c-3.335-.015-6.67-.009-10.005-.009-.259,0-.519-.008-.778,0a1.221,1.221,0,0,0-1.256,1.17q-.014,2.061,0,4.123a1.085,1.085,0,0,0,.9,1.077,3.232,3.232,0,0,0,.6.058q2.638.007,5.277,0m6.757,13.29h0c0-.663-.028-1.328.008-1.989a1.2,1.2,0,0,0-1.265-1.292c-1.365-.008-2.729-.01-4.094,0A1.144,1.144,0,0,0,98.1,97.07q-.006,2.046-.008,4.093a1.126,1.126,0,0,0,1.159,1.2q2.118.036,4.237,0a1.133,1.133,0,0,0,1.175-1.244q0-1.009,0-2.018m-6.977.015c0-.683,0-1.365,0-2.048a1.158,1.158,0,0,0-1.214-1.245q-2.077-.024-4.153,0a1.128,1.128,0,0,0-1.2,1.225q-.008,2.062,0,4.124a1.1,1.1,0,0,0,1.136,1.189q2.133.037,4.268,0a1.153,1.153,0,0,0,1.167-1.23c-.036-.671-.008-1.345-.009-2.018M101.38,95.4h1.009c.346,0,.692,0,1.038,0a1.128,1.128,0,0,0,1.241-1.228q0-2.032,0-4.064A1.135,1.135,0,0,0,103.46,88.9q-2.061-.008-4.122,0A1.115,1.115,0,0,0,98.1,90.131q0,2.046,0,4.093A1.108,1.108,0,0,0,99.276,95.4c.7,0,1.4,0,2.1,0m-3.69-3.253c0-.7,0-1.4,0-2.1a1.108,1.108,0,0,0-1.067-1.135q-2.2-.025-4.41,0A1.072,1.072,0,0,0,91.132,90q-.014,2.162,0,4.324A1.066,1.066,0,0,0,92.191,95.4q2.2.019,4.41,0A1.112,1.112,0,0,0,97.69,94.28c0-.711,0-1.422,0-2.133" transform="translate(-69.052 -59.521)" fill="#9bd7f5"/>
            <path id="Path_613339" data-name="Path 613339" d="M25.679,140.754H23.2l-13.441,0c-.178,0-.334.031-.333-.25q.02-5.047.02-10.095,0-13.022,0-26.045v-.538l16.232-.1Zm-8.072-27.909v-.006c1.875,0,3.749.006,5.623,0a1.115,1.115,0,0,0,1.116-1.123q.014-1.976,0-3.951a1.181,1.181,0,0,0-1.141-1.265,4.788,4.788,0,0,0-.576-.02l-9.891,0c-.231,0-.462-.007-.692,0a1.162,1.162,0,0,0-1.233,1.285q0,1.874,0,3.749a2.06,2.06,0,0,0,.024.4,1.083,1.083,0,0,0,1.172.93c1.865.006,3.73,0,5.594,0m-6.789,12.782h0v.951c0,.317,0,.634,0,.951a1.18,1.18,0,0,0,1.312,1.348q1.989.018,3.978,0a1.207,1.207,0,0,0,1.3-1.276c.021-1.335.033-2.671,0-4a1.2,1.2,0,0,0-1.209-1.244c-1.393,0-2.787-.02-4.18,0a1.128,1.128,0,0,0-1.2,1.252c0,.673,0,1.345,0,2.018m0,6.929h0v.98c0,.327,0,.654,0,.98a1.2,1.2,0,0,0,1.311,1.333c1.326.012,2.652.01,3.979,0a1.23,1.23,0,0,0,1.3-1.259q.035-2.017.007-4.034a1.217,1.217,0,0,0-1.247-1.241q-2.076-.019-4.151,0a1.132,1.132,0,0,0-1.194,1.226c0,.673,0,1.346,0,2.018m6.978-6.948c0,.691-.01,1.383,0,2.074a1.088,1.088,0,0,0,1.138,1.183c1.422.029,2.844.021,4.266.007a1.185,1.185,0,0,0,1.156-1.218c-.024-1.306,0-2.613,0-3.92A1.211,1.211,0,0,0,23,122.35c-1.307-.01-2.613,0-3.92,0a2.243,2.243,0,0,0-.4.045,1.062,1.062,0,0,0-.885,1.025c-.012.729,0,1.459,0,2.189m3.255,3.7c-.711,0-1.422-.011-2.132,0a1.112,1.112,0,0,0-1.122,1.116c-.011,1.382.018,2.765-.013,4.147a1.2,1.2,0,0,0,1.236,1.266c1.373.022,2.747.017,4.12,0a1.222,1.222,0,0,0,1.217-1.288c-.03-1.335,0-2.67-.008-4.005a1.165,1.165,0,0,0-1.224-1.237c-.691-.014-1.383,0-2.075,0M14.072,121.9c.692,0,1.383,0,2.075,0a1.158,1.158,0,0,0,1.257-1.209c.024-1.363.04-2.728,0-4.091a1.139,1.139,0,0,0-1.144-1.178c-1.431-.015-2.863-.022-4.295,0a1.1,1.1,0,0,0-1.145,1.211c0,1.364-.007,2.729,0,4.093A1.1,1.1,0,0,0,12,121.9c.692,0,1.384,0,2.076,0m3.719-3.273H17.8c0,.739-.01,1.479,0,2.218a1.055,1.055,0,0,0,1.05,1.05q2.205.018,4.411,0a1.091,1.091,0,0,0,1.081-1.061c.013-1.4.019-2.806.008-4.209a1.138,1.138,0,0,0-1.195-1.2q-2.118-.028-4.237,0a1.078,1.078,0,0,0-1.125,1.16c-.012.682,0,1.364,0,2.046" transform="translate(-7.251 -79.794)" fill="#bababa"/>
            <path id="Path_613340" data-name="Path 613340" d="M170.021,134.159h15.832c.408,0,.411,0,.411.4q0,9.172,0,18.344,0,5.437,0,10.873c0,.384,0,.381-.378.38-.942,0-1.884,0-2.826,0q-6.36-.005-12.719-.006c-.275,0-.33-.084-.33-.341q.011-14.623.009-29.246v-.406m8.088,9.241h5.912a1.309,1.309,0,0,0,1.455-1.465q0-1.817,0-3.634c0-1.288-.446-1.723-1.739-1.723H172.949c-.25,0-.5-.008-.75,0a1.214,1.214,0,0,0-1.339,1.366c0,1.442.007,2.884-.006,4.326a.931.931,0,0,0,.548.932,1.988,1.988,0,0,0,.795.192c1.971.015,3.941.008,5.912.008m6.783,12.561h0c0-.682.009-1.364,0-2.046a1.107,1.107,0,0,0-1.186-1.2c-1.374-.015-2.748-.014-4.121-.005a1.2,1.2,0,0,0-1.268,1.214q-.039,2.031,0,4.062a1.221,1.221,0,0,0,1.317,1.264c.221.006.442,0,.663,0,1.1,0,2.21,0,3.315,0a1.218,1.218,0,0,0,1.284-1.278c-.021-.672,0-1.345,0-2.017m0-6.946h0c0-.692.009-1.384,0-2.075a1.036,1.036,0,0,0-1.042-1.144q-2.2-.065-4.406-.011A1.163,1.163,0,0,0,178.309,147c-.012,1.316-.016,2.632,0,3.948a1.225,1.225,0,0,0,1.338,1.329c1.345.012,2.69,0,4.035,0a1.18,1.18,0,0,0,1.21-1.222c-.017-.682,0-1.364,0-2.046m-6.968-.009h0c0-.711.006-1.422,0-2.133a1.084,1.084,0,0,0-.729-1.037,2.091,2.091,0,0,0-.6-.082c-1.268-.007-2.536,0-3.8,0a2.656,2.656,0,0,0-.373.028,1.107,1.107,0,0,0-1.038,1.165q-.013,2.061,0,4.122a1.067,1.067,0,0,0,1.114,1.2q2.16.051,4.323,0a1.1,1.1,0,0,0,1.109-1.214c0-.682,0-1.364,0-2.046m-3.232,3.708c-.7,0-1.4-.01-2.1,0a1.145,1.145,0,0,0-1.208,1.217c-.009,1.346,0,2.691-.011,4.037a1.136,1.136,0,0,0,1.207,1.274q2.076.037,4.152,0a1.163,1.163,0,0,0,1.2-1.265q0-2.018,0-4.037a1.109,1.109,0,0,0-1.183-1.225c-.682-.014-1.365,0-2.047,0" transform="translate(-130.778 -103.198)" fill="#bababa"/>
            <path id="Path_613341" data-name="Path 613341" d="M116.336,222.087h-.729c-2.124,0-4.249-.007-6.373,0-.191,0-.219-.064-.219-.234,0-3.7.014-7.4-.013-11.1a1.183,1.183,0,0,1,1.127-1.267c.565-.032,1.132-.039,1.7-.043,1-.007,2-.015,3,0a1.478,1.478,0,0,1,1.237.425,1.2,1.2,0,0,1,.262.584,11.147,11.147,0,0,1,.021,1.208q0,4.513-.009,9.026c0,.451,0,.9,0,1.4" transform="translate(-83.847 -161.1)" fill="#f27c00"/>
            <path id="Path_613342" data-name="Path 613342" d="M110.165,61.69c-1.384,0-2.768-.005-4.151.005-.238,0-.324-.064-.311-.306a11.037,11.037,0,0,0,.007-1.153c-.014-.261.079-.32.327-.319,2.451.009,4.9.005,7.351.005.317,0,.634.007.951,0,.185,0,.254.071.25.258-.009.413-.011.827.008,1.239.011.225-.073.274-.281.273-1.384-.008-2.768,0-4.151,0" transform="translate(-81.309 -46.09)" fill="#fff"/>
            <path id="Path_613343" data-name="Path 613343" d="M221.409,34.782c-1.014.058-1.993.1-2.969.177a13.561,13.561,0,0,0-1.59.249c-.816.167-1.628.358-2.438.551a.264.264,0,0,1-.348-.145q-.953-1.677-1.92-3.346c-.408-.707-.816-1.413-1.234-2.114a.245.245,0,0,1,.026-.352,28.041,28.041,0,0,0,4.162-5.645c0-.007.016-.01.076-.045a2.958,2.958,0,0,1,.3.373q2.793,4.824,5.578,9.653c.114.2.222.4.357.644" transform="translate(-162.191 -18.548)" fill="#e13510"/>
            <path id="Path_613344" data-name="Path 613344" d="M183.052,60.469a3.4,3.4,0,0,1,1.649-2.937c.777-.457,1.562-.9,2.344-1.351a1.516,1.516,0,0,1,.2-.106.427.427,0,0,1,.6.206q1.253,2.169,2.5,4.34c.126.22.346.478.306.675-.033.166-.376.276-.588.4-.688.4-1.383.792-2.069,1.2a3.273,3.273,0,0,1-2.791.32,2.875,2.875,0,0,1-1.78-1.577,8.782,8.782,0,0,1-.372-1.166" transform="translate(-140.809 -43.098)" fill="#ffe800"/>
            <path id="Path_613345" data-name="Path 613345" d="M243.683,23.864c-.373.1-.62-.106-.838-.494-.861-1.532-1.753-3.047-2.634-4.568q-1.5-2.58-2.991-5.159-.723-1.245-1.453-2.487a.506.506,0,0,1,.006-.591,5.082,5.082,0,0,0,.327-.543c.111-.219.251-.185.386-.053a1.494,1.494,0,0,1,.228.33q2.081,3.59,4.159,7.182l3.451,5.958c.19.328.135.42-.247.426-.106,0-.212,0-.393,0" transform="translate(-181.287 -7.588)" fill="#ffe800"/>
            <path id="Path_613346" data-name="Path 613346" d="M217.869,88.016c.238-.148.45-.3.678-.411a.26.26,0,0,1,.237.088q1.241,2.157,2.463,4.324a2.226,2.226,0,0,1,.119.309,1.2,1.2,0,0,1-1.357-.624c-.618-1.06-1.222-2.13-1.833-3.194-.094-.163-.2-.319-.307-.492" transform="translate(-167.591 -67.383)" fill="#fff"/>
            <path id="Path_613347" data-name="Path 613347" d="M264.264,33.656l-.846-1.523a1.244,1.244,0,0,1,.846,1.523" transform="translate(-202.629 -24.718)" fill="#fff"/>
            <path id="Path_613348" data-name="Path 613348" d="M102.434,92.5q-2.638,0-5.277,0a3.231,3.231,0,0,1-.6-.058,1.085,1.085,0,0,1-.9-1.077q-.012-2.061,0-4.123a1.221,1.221,0,0,1,1.256-1.17c.259-.009.519,0,.778,0,3.335,0,6.67-.006,10.005.009a2.111,2.111,0,0,1,.9.212,1.072,1.072,0,0,1,.595,1.039c-.01,1.269-.038,2.539.009,3.806a1.259,1.259,0,0,1-1.376,1.365c-1.451-.006-2.9,0-4.354,0h-1.038Zm4.519-2.254c0-.48,0-.911,0-1.341,0-.547,0-.548-.543-.549-2.739,0-5.479,0-8.218-.007-.238,0-.317.061-.309.3.014.422.008.846-.014,1.268-.013.244.043.331.312.33,2.48-.01,4.96,0,7.44,0h1.333" transform="translate(-73.575 -66.203)" fill="#161615"/>
            <path id="Path_613349" data-name="Path 613349" d="M132.428,160.582c0,.673,0,1.345,0,2.018a1.133,1.133,0,0,1-1.175,1.244q-2.118.034-4.238,0a1.126,1.126,0,0,1-1.159-1.2q0-2.047.008-4.093a1.144,1.144,0,0,1,1.211-1.24c1.365-.013,2.729-.011,4.094,0a1.2,1.2,0,0,1,1.265,1.292c-.036.661-.008,1.326-.008,1.989Zm-4.331-1.045c0,.674-.005,1.3.009,1.919,0,.055.133.151.206.153.566.01,1.132.006,1.7-.009.061,0,.172-.1.173-.148.011-.575.008-1.151,0-1.727,0-.063-.076-.18-.118-.18-.631-.012-1.263-.008-1.965-.008" transform="translate(-96.812 -120.995)" fill="#161615"/>
            <path id="Path_613350" data-name="Path 613350" d="M102.214,160.592c0,.673-.028,1.347.008,2.018a1.153,1.153,0,0,1-1.167,1.23q-2.134.033-4.268,0a1.1,1.1,0,0,1-1.136-1.189q-.008-2.062,0-4.124a1.128,1.128,0,0,1,1.2-1.225q2.076-.022,4.153,0a1.158,1.158,0,0,1,1.214,1.245c0,.683,0,1.365,0,2.048m-4.342-1.051c0,.668,0,1.306.008,1.944,0,.045.114.125.175.126.575,0,1.15,0,1.724-.024a.236.236,0,0,0,.166-.159c.01-.575.007-1.15-.005-1.724a.217.217,0,0,0-.144-.155c-.621-.011-1.242-.007-1.923-.007" transform="translate(-73.574 -120.99)" fill="#161615"/>
            <path id="Path_613351" data-name="Path 613351" d="M129.16,133.793c-.7,0-1.4,0-2.1,0a1.108,1.108,0,0,1-1.172-1.176q0-2.046,0-4.093a1.114,1.114,0,0,1,1.234-1.231q2.061-.008,4.121,0a1.135,1.135,0,0,1,1.207,1.209q0,2.032,0,4.064a1.128,1.128,0,0,1-1.241,1.228c-.346,0-.692,0-1.038,0H129.16m0-2.209v0c.288,0,.577.011.864-.008a.256.256,0,0,0,.177-.175c.018-.557.013-1.114.021-1.671,0-.15-.032-.229-.208-.225-.547.012-1.1.012-1.643.008-.174,0-.23.06-.229.236,0,.538-.006,1.076-.024,1.614-.006.183.066.235.235.23.269-.009.538,0,.807,0" transform="translate(-96.832 -97.914)" fill="#161615"/>
            <path id="Path_613352" data-name="Path 613352" d="M102.215,130.535c0,.711,0,1.422,0,2.133a1.112,1.112,0,0,1-1.089,1.116q-2.205.019-4.41,0a1.066,1.066,0,0,1-1.059-1.075q-.015-2.162,0-4.324a1.072,1.072,0,0,1,1.08-1.088q2.2-.029,4.41,0a1.108,1.108,0,0,1,1.067,1.135c0,.7,0,1.4,0,2.1m-4.34-1.024c0,.665,0,1.3.008,1.944,0,.044.115.122.177.123.566.006,1.132,0,1.7-.013a.26.26,0,0,0,.186-.17c.014-.566.012-1.132,0-1.7,0-.063-.1-.178-.151-.179-.621-.013-1.242-.008-1.917-.008" transform="translate(-73.576 -97.909)" fill="#161615"/>
            <path id="Path_613353" data-name="Path 613353" d="M22.239,121.974c-1.865,0-3.729,0-5.594,0a1.083,1.083,0,0,1-1.172-.93,2.058,2.058,0,0,1-.024-.4q0-1.874,0-3.749a1.162,1.162,0,0,1,1.233-1.285c.23-.01.461,0,.692,0l9.891,0a4.779,4.779,0,0,1,.576.02,1.181,1.181,0,0,1,1.141,1.265q.011,1.976,0,3.951a1.115,1.115,0,0,1-1.116,1.123c-1.874.01-3.749,0-5.623,0v.006m-4.576-2.217c.1.008.176.018.25.018l6.893,0c.558,0,1.115-.008,1.673-.005.168,0,.241-.054.239-.234,0-.49,0-.98.013-1.47,0-.19-.065-.24-.254-.239q-4.283.011-8.565.008c-.082,0-.164.014-.249.021Z" transform="translate(-11.883 -88.924)" fill="#161615"/>
            <path id="Path_613354" data-name="Path 613354" d="M15.448,187.664c0-.672,0-1.345,0-2.018a1.128,1.128,0,0,1,1.2-1.252c1.393-.023,2.787,0,4.18,0a1.2,1.2,0,0,1,1.209,1.244c.032,1.334.02,2.67,0,4a1.207,1.207,0,0,1-1.3,1.276q-1.989.016-3.979,0a1.179,1.179,0,0,1-1.312-1.348c0-.317,0-.634,0-.951s0-.634,0-.951Zm4.261-1.028H17.678v2.04h2.031Z" transform="translate(-11.881 -141.832)" fill="#161615"/>
            <path id="Path_613355" data-name="Path 613355" d="M15.448,217.788c0-.673,0-1.345,0-2.018a1.132,1.132,0,0,1,1.194-1.226q2.076-.017,4.151,0a1.217,1.217,0,0,1,1.247,1.241q.027,2.017-.007,4.034a1.231,1.231,0,0,1-1.3,1.259c-1.326.01-2.652.013-3.979,0a1.2,1.2,0,0,1-1.311-1.333c0-.327,0-.653,0-.98v-.98Zm2.223,1.052H19.7v-2.076H17.672Z" transform="translate(-11.881 -165.028)" fill="#161615"/>
            <path id="Path_613356" data-name="Path 613356" d="M45.682,187.644c0-.73-.009-1.46,0-2.189a1.062,1.062,0,0,1,.885-1.025,2.244,2.244,0,0,1,.4-.045c1.307,0,2.613-.008,3.92,0a1.21,1.21,0,0,1,1.351,1.382c0,1.307-.021,2.614,0,3.92a1.185,1.185,0,0,1-1.156,1.219c-1.422.015-2.844.022-4.265-.007a1.088,1.088,0,0,1-1.138-1.183c-.013-.691,0-1.383,0-2.074m4.3-1.018c-.676,0-1.307-.005-1.938.01-.053,0-.144.137-.146.212-.014.547,0,1.094-.013,1.641,0,.155.056.2.2.2.566,0,1.132,0,1.7-.016.068,0,.189-.109.191-.17.014-.612.009-1.225.009-1.88" transform="translate(-35.137 -141.831)" fill="#161615"/>
            <path id="Path_613357" data-name="Path 613357" d="M48.911,214.552c.691,0,1.383-.011,2.075,0a1.164,1.164,0,0,1,1.224,1.237c.009,1.335-.022,2.671.009,4.005A1.222,1.222,0,0,1,51,221.086c-1.374.015-2.747.02-4.121,0a1.2,1.2,0,0,1-1.236-1.266c.032-1.382,0-2.765.013-4.147a1.112,1.112,0,0,1,1.121-1.116c.711-.014,1.422,0,2.132,0m1.046,4.3c0-.681,0-1.321-.008-1.96,0-.046-.109-.127-.168-.128-.575-.009-1.15,0-1.725-.006-.148,0-.2.055-.2.2.006.566,0,1.131.013,1.7a.258.258,0,0,0,.169.186c.621.014,1.243.009,1.921.009" transform="translate(-35.11 -165.037)" fill="#161615"/>
            <path id="Path_613358" data-name="Path 613358" d="M18.7,160.806c-.692,0-1.384,0-2.076,0a1.1,1.1,0,0,1-1.177-1.17c-.008-1.364-.005-2.729,0-4.093a1.1,1.1,0,0,1,1.144-1.211c1.431-.025,2.863-.018,4.295,0a1.139,1.139,0,0,1,1.144,1.178c.042,1.362.026,2.727,0,4.091a1.158,1.158,0,0,1-1.257,1.209c-.692,0-1.383,0-2.075,0m-1.026-2.215H19.7v-2.055H17.674Z" transform="translate(-11.879 -118.702)" fill="#161615"/>
            <path id="Path_613359" data-name="Path 613359" d="M45.66,157.528c0-.682-.009-1.364,0-2.046a1.078,1.078,0,0,1,1.125-1.16q2.118-.03,4.237,0a1.138,1.138,0,0,1,1.195,1.2c.011,1.4.005,2.806-.008,4.209a1.091,1.091,0,0,1-1.081,1.061q-2.205.019-4.411,0a1.054,1.054,0,0,1-1.05-1.049c-.013-.739,0-1.479,0-2.218Zm4.256,1.062c.016-.024.035-.039.036-.055.007-.623.016-1.246.009-1.868,0-.05-.121-.141-.188-.142-.566-.009-1.132,0-1.7,0-.151,0-.207.055-.2.2,0,.249,0,.5,0,.748,0,.369,0,.739,0,1.119Z" transform="translate(-35.12 -118.698)" fill="#161615"/>
            <path id="Path_613360" data-name="Path 613360" d="M180.915,151.448c-1.971,0-3.941.007-5.912-.009a1.985,1.985,0,0,1-.795-.192.932.932,0,0,1-.548-.932c.013-1.442,0-2.884.006-4.326a1.214,1.214,0,0,1,1.339-1.366c.25-.008.5,0,.75,0h10.786c1.293,0,1.735.435,1.739,1.724q.007,1.817,0,3.633a1.309,1.309,0,0,1-1.455,1.465h-5.912Zm-5.081-2.291h10.109v-2.25h-.311L176.7,146.9c-.221,0-.443-.021-.662,0-.072.006-.194.1-.195.159-.014.69-.009,1.381-.009,2.1" transform="translate(-133.585 -111.246)" fill="#161615"/>
            <path id="Path_613361" data-name="Path 613361" d="M212.5,217.794c0,.673-.017,1.345,0,2.017a1.218,1.218,0,0,1-1.285,1.278c-1.1-.005-2.21,0-3.315,0-.221,0-.442,0-.663,0a1.221,1.221,0,0,1-1.317-1.264q-.042-2.03,0-4.062a1.2,1.2,0,0,1,1.268-1.214c1.374-.009,2.748-.01,4.121.005a1.107,1.107,0,0,1,1.186,1.2c.011.682,0,1.364,0,2.046Zm-2.192,1.049v-1.419c0-.671,0-.671-.686-.672h-1.368v2.091Z" transform="translate(-158.389 -165.031)" fill="#161615"/>
            <path id="Path_613362" data-name="Path 613362" d="M212.513,187.688c0,.682-.014,1.365,0,2.046a1.18,1.18,0,0,1-1.21,1.221c-1.345,0-2.69.008-4.036,0a1.225,1.225,0,0,1-1.338-1.329c-.017-1.316-.013-2.632,0-3.948a1.163,1.163,0,0,1,1.133-1.218q2.2-.058,4.406.011a1.037,1.037,0,0,1,1.042,1.144c.012.692,0,1.384,0,2.076Zm-2.215,1.024v-2.033h-2.03v2.049h1.825c.065,0,.13-.009.205-.015" transform="translate(-158.401 -141.87)" fill="#161615"/>
            <path id="Path_613363" data-name="Path 613363" d="M182.45,187.644c0,.682,0,1.364,0,2.046a1.1,1.1,0,0,1-1.109,1.214q-2.161.046-4.323,0a1.067,1.067,0,0,1-1.114-1.2q-.011-2.061,0-4.122a1.108,1.108,0,0,1,1.038-1.165,2.688,2.688,0,0,1,.373-.028c1.268,0,2.537,0,3.8,0a2.09,2.09,0,0,1,.6.081,1.084,1.084,0,0,1,.728,1.037c.009.711,0,1.422,0,2.133h0m-4.309-1c0,.608.016,1.191-.008,1.772-.011.252.084.291.3.282.392-.015.785-.019,1.178-.014.625.007.624.011.622-.625,0-.467,0-.933,0-1.414Z" transform="translate(-135.306 -141.836)" fill="#161615"/>
            <path id="Path_613364" data-name="Path 613364" d="M179.2,214.557c.682,0,1.365-.011,2.047,0a1.109,1.109,0,0,1,1.183,1.225q.007,2.018,0,4.037a1.163,1.163,0,0,1-1.2,1.265q-2.076.037-4.152,0a1.136,1.136,0,0,1-1.207-1.274c.012-1.346,0-2.691.011-4.037a1.145,1.145,0,0,1,1.208-1.217c.7-.013,1.4,0,2.1,0m-1.063,2.2c0,.49,0,.939,0,1.387,0,.7,0,.7.717.7h1.368c0-.671,0-1.293-.007-1.914a.236.236,0,0,0-.158-.169c-.622-.012-1.245-.008-1.92-.008" transform="translate(-135.292 -165.04)" fill="#161615"/>
            <path id="Path_613365" data-name="Path 613365" d="M114.353,97.859h-1.333c-2.48,0-4.96-.006-7.44,0-.269,0-.325-.085-.312-.33.022-.422.028-.846.014-1.268-.008-.241.071-.3.309-.3,2.74.009,5.479.006,8.218.007.547,0,.546,0,.543.549,0,.43,0,.861,0,1.341" transform="translate(-80.975 -73.817)" fill="#fff"/>
            <path id="Path_613366" data-name="Path 613366" d="M135.565,167.011c.7,0,1.334,0,1.965.008.042,0,.117.117.118.18.011.575.014,1.151,0,1.727,0,.053-.111.146-.173.148-.566.014-1.132.018-1.7.009-.073,0-.2-.1-.206-.153-.015-.622-.009-1.245-.009-1.919" transform="translate(-104.28 -128.469)" fill="#fff"/>
            <path id="Path_613367" data-name="Path 613367" d="M105.286,167.049c.682,0,1.3,0,1.923.007a.218.218,0,0,1,.144.155c.013.575.016,1.15.005,1.724a.236.236,0,0,1-.166.159c-.574.02-1.149.027-1.724.024-.061,0-.174-.081-.175-.126-.012-.638-.008-1.277-.008-1.944" transform="translate(-80.989 -128.498)" fill="#fff"/>
            <path id="Path_613368" data-name="Path 613368" d="M136.61,138.952c-.269,0-.538-.006-.807,0-.169.005-.241-.046-.235-.23.018-.537.028-1.076.024-1.614,0-.177.054-.238.229-.236.548,0,1.1,0,1.643-.008.176,0,.21.075.208.225-.008.557,0,1.115-.021,1.671a.256.256,0,0,1-.177.175c-.287.019-.576.008-.864.008v0" transform="translate(-104.282 -105.282)" fill="#fff"/>
            <path id="Path_613369" data-name="Path 613369" d="M105.293,136.934c.675,0,1.3,0,1.917.008.054,0,.15.115.151.179.013.566.014,1.132,0,1.7a.259.259,0,0,1-.186.17c-.565.017-1.131.019-1.7.013-.062,0-.177-.079-.177-.123-.012-.639-.008-1.279-.008-1.944" transform="translate(-80.994 -105.333)" fill="#fff"/>
            <path id="Path_613370" data-name="Path 613370" d="M25.046,127.157v-1.905c.084-.008.167-.021.249-.021q4.283,0,8.565-.008c.189,0,.259.049.254.239-.012.49-.018.98-.013,1.47,0,.18-.072.234-.239.234-.558,0-1.115,0-1.673.005l-6.893,0c-.075,0-.149-.01-.25-.018" transform="translate(-19.266 -96.324)" fill="#fff"/>
            <rect id="Rectangle_377586" data-name="Rectangle 377586" width="2.031" height="2.04" transform="translate(5.796 44.804)" fill="#fff"/>
            <rect id="Rectangle_377587" data-name="Rectangle 377587" width="2.032" height="2.076" transform="translate(5.791 51.737)" fill="#fff"/>
            <path id="Path_613371" data-name="Path 613371" d="M57.324,194.1c0,.654.006,1.267-.009,1.88,0,.061-.123.168-.191.17-.566.016-1.132.011-1.7.016-.144,0-.2-.049-.2-.2.009-.547,0-1.094.013-1.641,0-.075.093-.21.146-.212.631-.015,1.262-.01,1.938-.01" transform="translate(-42.482 -149.31)" fill="#fff"/>
            <path id="Path_613372" data-name="Path 613372" d="M57.321,226.2c-.678,0-1.3.005-1.921-.009a.257.257,0,0,1-.169-.186c-.015-.565-.007-1.131-.013-1.7,0-.149.055-.2.2-.2.575,0,1.15,0,1.725.006.059,0,.168.082.168.128.011.639.008,1.279.008,1.96" transform="translate(-42.475 -172.391)" fill="#fff"/>
            <rect id="Rectangle_377588" data-name="Rectangle 377588" width="2.027" height="2.055" transform="translate(5.795 37.833)" fill="#fff"/>
            <path id="Path_613373" data-name="Path 613373" d="M57.281,165.966h-2.05c0-.38,0-.75,0-1.119,0-.249.007-.5,0-.748,0-.146.054-.2.2-.2.566,0,1.132-.006,1.7,0,.066,0,.187.092.188.142.008.623,0,1.245-.009,1.868,0,.016-.02.032-.036.055" transform="translate(-42.485 -126.074)" fill="#fff"/>
            <path id="Path_613374" data-name="Path 613374" d="M183.076,156.725c0-.72,0-1.41.009-2.1,0-.057.123-.153.195-.159.219-.017.441,0,.662,0l8.933.005h.311v2.25Z" transform="translate(-140.827 -118.815)" fill="#fff"/>
            <path id="Path_613375" data-name="Path 613375" d="M218.148,226.213H216.1v-2.091h1.368c.686,0,.686,0,.686.672v1.419" transform="translate(-166.226 -172.401)" fill="#fff"/>
            <path id="Path_613376" data-name="Path 613376" d="M218.118,196.2c-.075.006-.14.015-.205.015h-1.825v-2.049h2.03Z" transform="translate(-166.221 -149.36)" fill="#fff"/>
            <path id="Path_613377" data-name="Path 613377" d="M185.587,194.145h2.088c0,.481,0,.948,0,1.414,0,.636,0,.632-.622.625-.393,0-.786,0-1.178.014-.212.008-.306-.031-.3-.282.024-.581.008-1.164.008-1.772" transform="translate(-142.752 -149.342)" fill="#fff"/>
            <path id="Path_613378" data-name="Path 613378" d="M185.674,224.109c.675,0,1.3,0,1.92.008a.236.236,0,0,1,.158.169c.012.621.007,1.243.007,1.914h-1.368c-.72,0-.719,0-.717-.7,0-.449,0-.9,0-1.387" transform="translate(-142.826 -172.391)" fill="#fff"/>
          </g>
        </g>
        <circle id="Ellipse_5949" data-name="Ellipse 5949" cx="4" cy="4" r="4" transform="translate(7470 -8895)" fill="#60cb28"/>
      </g>
      <g id="Group_1073108" data-name="Group 1073108" transform="translate(1320 -50.85)">
        <path id="Path_613323" data-name="Path 613323" d="M444,289.932l-17.449-17.024v-80.43c0-19.594-20.2-35.476-45.114-35.476H102.179c-1.486,0-2.953.061-4.4.171l1.145-12.262L72.271,165.928c-9.324,6.5-15.206,15.982-15.206,26.55v132H381.439c13.241,0,25.15-4.486,33.4-11.631l-.008.08Z" transform="translate(6843.935 -9115.781)" fill="#12263f" opacity="0.14"/>
        <path id="Path_613326" data-name="Path 613326" d="M413.341,317.188H71.836V176.057c0-20.949,21.266-37.929,47.5-37.929H413.339c26.233,0,47.5,16.982,47.5,37.929v103.2C460.838,300.206,439.572,317.188,413.341,317.188Z" transform="translate(6840.164 -9121.128)" fill="#fdfde3"/>
        <text id="Activos_Esenciales_Información_que_se_maneja._Servicios_prestados." data-name="Activos Esenciales

Información que se maneja.
Servicios prestados." transform="translate(7049.449 -8940.5)" fill="#12263f" font-size="17" font-family="Roboto-Bold, Roboto" font-weight="700"><tspan x="0" y="16">Activos Esenciales</tspan><tspan x="0" y="40"></tspan><tspan font-size="16" font-family="Roboto-Regular, Roboto" font-weight="400"><tspan x="0" y="64">Información que se maneja.</tspan><tspan x="0" y="88">Servicios prestados.</tspan></tspan></text>
        <circle id="Ellipse_5856-2" data-name="Ellipse 5856" cx="47.171" cy="47.171" r="47.171" transform="translate(6927.278 -8941)" fill="#fff"/>
        <g id="Group_1_" data-name="Group (1)" transform="translate(6944.5 -8924.113)">
          <path id="Path_610481" data-name="Path 610481" d="M61.945,224.127v2.854a2.854,2.854,0,0,1-2.854,2.854H7.725a2.854,2.854,0,0,1-2.854-2.854v-2.854Z" transform="translate(-3.92 -180.363)" fill="#304c8e"/>
          <path id="Path_610482" data-name="Path 610482" d="M61.945,80.852v25.683H4.871V80.852A2.854,2.854,0,0,1,7.725,78H59.091a2.854,2.854,0,0,1,2.854,2.854Z" transform="translate(-3.92 -62.771)" fill="#e2e7fe"/>
          <path id="Path_610483" data-name="Path 610483" d="M130.22,259.06H116.9l1.9-5.707h9.512Z" transform="translate(-94.074 -203.882)" fill="#e0e0e2"/>
          <path id="Path_610484" data-name="Path 610484" d="M97.419,282.579h20.927v2.854H97.419Z" transform="translate(-78.395 -227.4)" fill="#304c8e"/>
          <path id="Path_610485" data-name="Path 610485" d="M24.355,92.611h3.8V99.27h-3.8Z" transform="translate(-19.599 -74.53)" fill="#60cb28"/>
          <path id="Path_610486" data-name="Path 610486" d="M160.742,92.611h3.8V99.27h-3.8Z" transform="translate(-129.352 -74.53)" fill="#ffe126"/>
          <path id="Path_610487" data-name="Path 610487" d="M58.452,39.03h3.8V56.152h-3.8Z" transform="translate(-47.037 -31.413)" fill="#e1f5d6"/>
          <path id="Path_610488" data-name="Path 610488" d="M92.548,4.934h3.8V28.714h-3.8Z" transform="translate(-74.475 -3.975)" fill="#7e19b8"/>
          <path id="Path_610489" data-name="Path 610489" d="M126.645,24.417h3.8V44.393h-3.8Z" transform="translate(-101.913 -19.653)" fill="#ffda44"/>
          <path id="Path_610490" data-name="Path 610490" d="M26.257,169.481a1.9,1.9,0,1,0-1.9-1.9A1.9,1.9,0,0,0,26.257,169.481Z" transform="translate(-19.599 -133.327)" fill="#e1f5d6"/>
          <path id="Path_610491" data-name="Path 610491" d="M104.192,193.835a1.9,1.9,0,1,0-1.9-1.9A1.9,1.9,0,0,0,104.192,193.835Z" transform="translate(-82.314 -152.925)" fill="#7e19b8"/>
          <path id="Path_610492" data-name="Path 610492" d="M182.128,150a1.9,1.9,0,1,0-1.9-1.9A1.9,1.9,0,0,0,182.128,150Z" transform="translate(-145.031 -117.647)" fill="#60cb28"/>
          <path id="Path_610493" data-name="Path 610493" d="M260.063,184.093a1.9,1.9,0,1,0-1.9-1.9A1.9,1.9,0,0,0,260.063,184.093Z" transform="translate(-207.746 -145.085)" fill="#ffe126"/>
          <path id="Path_610494" data-name="Path 610494" d="M43.839,175.417l11.415,4.756Z" transform="translate(-35.278 -141.165)" fill="#e0e0e2"/>
          <path id="Path_610495" data-name="Path 610495" d="M121.774,164.495l11.415-8.561Z" transform="translate(-97.993 -125.487)" fill="#e0e0e2"/>
          <path id="Path_610496" data-name="Path 610496" d="M199.71,155.934l11.415,6.658Z" transform="translate(-160.71 -125.487)" fill="#e0e0e2"/>
          <path id="Path_610497" data-name="Path 610497" d="M228.982,43.9a7.611,7.611,0,0,1-12.991,5.382l5.381-5.382Z" transform="translate(-173.811 -35.333)" fill="#e1f5d6"/>
          <path id="Path_610498" data-name="Path 610498" d="M212.19,4.934v7.61l-5.381,5.382A7.611,7.611,0,0,1,212.19,4.934Z" transform="translate(-164.629 -3.975)" fill="#ffda44"/>
          <path id="Path_610499" data-name="Path 610499" d="M251.158,12.543h-7.61V4.934a7.61,7.61,0,0,1,7.61,7.61Z" transform="translate(-195.987 -3.975)" fill="#60cb28"/>
          <path id="Path_610500" data-name="Path 610500" d="M55.171,14.3H53.936a8.561,8.561,0,1,0-12.749,0h-11.7V4.788a.951.951,0,0,0-.951-.951h-3.8a.951.951,0,0,0-.951.951V14.3h-.951V.983a.951.951,0,0,0-.951-.951h-3.8a.951.951,0,0,0-.951.951V14.3h-.951V7.642a.951.951,0,0,0-.951-.951h-3.8a.951.951,0,0,0-.951.951V14.3H3.8a3.809,3.809,0,0,0-3.8,3.8V46.642a3.81,3.81,0,0,0,3.8,3.8H23.412l-1.269,3.8H19.025a.951.951,0,0,0-.951.951v1.9H8.561a.951.951,0,1,0,0,1.9H50.415a.951.951,0,1,0,0-1.9H40.9V55.2a.951.951,0,0,0-.951-.951H36.833l-1.269-3.8H55.171a3.809,3.809,0,0,0,3.8-3.8V18.105a3.809,3.809,0,0,0-3.8-3.8ZM48.512,2a6.671,6.671,0,0,1,5.638,5.638H48.512Zm-.558,7.541h6.2a6.654,6.654,0,0,1-10.575,4.379ZM40.9,8.593A6.669,6.669,0,0,1,46.61,2V8.2l-4.379,4.379A6.623,6.623,0,0,1,40.9,8.593ZM25.683,5.739h1.9V23.812h-1.9ZM22.829,16.2h.951v7.61h-.951Zm-3.8-14.268h1.9V23.812h-1.9ZM16.171,16.2h.951v7.61h-.951Zm-3.8-7.61h1.9v15.22h-1.9ZM39,56.154v.951H19.976v-.951Zm-14.851-1.9,1.269-3.8h8.14l1.269,3.8Zm32.924-7.61a1.9,1.9,0,0,1-1.9,1.9H3.8a1.9,1.9,0,0,1-1.9-1.9v-1.9H57.074Zm0-3.8H1.9V18.105a1.9,1.9,0,0,1,1.9-1.9h6.659v7.61H9.512V18.105a.951.951,0,0,0-.951-.951h-3.8a.951.951,0,0,0-.951.951v6.659a.951.951,0,0,0,.951.951H35.2a.951.951,0,0,0,.951-.951V18.105a.951.951,0,0,0-.951-.951h-3.8a.951.951,0,0,0-.951.951v5.707h-.951V16.2H43.647a8.529,8.529,0,0,0,7.829,0h3.7a1.9,1.9,0,0,1,1.9,1.9ZM7.61,19.056v4.756h-1.9V19.056Zm24.732,4.756V19.056h1.9v4.756Z" transform="translate(0 -0.024)"/>
          <path id="Path_610501" data-name="Path 610501" d="M26.142,233.869H20.435a.951.951,0,0,0,0,1.9h5.707a.951.951,0,0,0,0-1.9Z" transform="translate(-15.679 -188.203)"/>
          <path id="Path_610502" data-name="Path 610502" d="M65.225,233.869h-.951a.951.951,0,0,0,0,1.9h.951a.951.951,0,0,0,0-1.9Z" transform="translate(-50.957 -188.203)"/>
          <path id="Path_610503" data-name="Path 610503" d="M200.661,98.318a.948.948,0,0,0,.673-.278l3.526-3.526h8.167a.951.951,0,0,0,0-1.9h-8.561a.951.951,0,0,0-.673.279l-3.8,3.8a.951.951,0,0,0,.673,1.624Z" transform="translate(-160.709 -74.53)"/>
          <path id="Path_610504" data-name="Path 610504" d="M67.983,147.978a2.854,2.854,0,0,0-2.467,1.423l-9.958-5.81a2.854,2.854,0,0,0-5.6.071l-10.021,7.516a2.851,2.851,0,0,0-4.932.259l-9.9-4.127a2.855,2.855,0,1,0-.233,1.963l9.9,4.127a2.853,2.853,0,0,0,5.581-.157l10.021-7.516a2.85,2.85,0,0,0,4.858-.125l9.958,5.81a2.854,2.854,0,1,0,2.794-3.435Zm-44.708,0a.954.954,0,1,1-.281-.678.954.954,0,0,1,.281.678Zm14.268,5.7a.953.953,0,0,1-.951-.951v0a.951.951,0,1,1,.951.956Zm15.22-8.561a.952.952,0,1,1,.672-.279A.951.951,0,0,1,52.763,145.125Zm15.22,6.659a.952.952,0,1,1,.672-.279A.952.952,0,0,1,67.983,151.783Z" transform="translate(-15.665 -113.727)"/>
          <path id="Path_610505" data-name="Path 610505" d="M197.578,204.643h-6.659a.951.951,0,1,0,0,1.9h6.659a.951.951,0,1,0,0-1.9Z" transform="translate(-152.87 -164.684)"/>
          <path id="Path_610506" data-name="Path 610506" d="M213.257,190.03H210.4a.951.951,0,1,0,0,1.9h2.854a.951.951,0,0,0,0-1.9Z" transform="translate(-168.549 -152.925)"/>
          <path id="Path_610507" data-name="Path 610507" d="M20.435,138.351H30.9a.951.951,0,0,0,0-1.9H20.435a.951.951,0,0,0,0,1.9Z" transform="translate(-15.679 -109.807)"/>
          <path id="Path_610508" data-name="Path 610508" d="M88.629,138.351h.951a.951.951,0,1,0,0-1.9h-.951a.951.951,0,0,0,0,1.9Z" transform="translate(-70.555 -109.807)"/>
        </g>
        <circle id="Ellipse_5948" data-name="Ellipse 5948" cx="4" cy="4" r="4" transform="translate(7039 -8886)" fill="#ffe126"/>
        <circle id="Ellipse_5953" data-name="Ellipse 5953" cx="4" cy="4" r="4" transform="translate(7039 -8862)" fill="#ffe126"/>
      </g>
      <g id="Group_1073110" data-name="Group 1073110" transform="translate(480 356.549)">
        <path id="Path_613325" data-name="Path 613325" d="M444,289.932l-17.449-17.024v-80.43c0-19.594-20.2-35.476-45.114-35.476H102.179c-1.486,0-2.953.061-4.4.171l1.145-12.262L72.271,165.928c-9.324,6.5-15.206,15.982-15.206,26.55v132H381.439c13.241,0,25.15-4.486,33.4-11.631l-.008.08Z" transform="translate(7683.935 -9115.781)" fill="#12263f" opacity="0.14"/>
        <path id="Path_613328" data-name="Path 613328" d="M413.341,317.188H71.836V176.057c0-20.949,21.266-37.929,47.5-37.929H413.339c26.233,0,47.5,16.982,47.5,37.929v103.2C460.838,300.206,439.572,317.188,413.341,317.188Z" transform="translate(7680.164 -9121.128)" fill="#e2e7fe"/>
        <text id="Instalaciones_físicas_personal_Usuarios._Operadores_y_administradores._Desarrolladores." data-name="Instalaciones físicas, personal

Usuarios.
Operadores y administradores.
Desarrolladores." transform="translate(7887 -8951)" fill="#12263f" font-size="17" font-family="Roboto-Bold, Roboto" font-weight="700"><tspan x="0" y="16">Instalaciones físicas, personal</tspan><tspan x="0" y="40"></tspan><tspan font-size="16" font-family="Roboto-Regular, Roboto" font-weight="400"><tspan x="0" y="64">Usuarios.</tspan><tspan x="0" y="88">Operadores y administradores.</tspan><tspan x="0" y="112">Desarrolladores.</tspan></tspan></text>
        <circle id="Ellipse_5950" data-name="Ellipse 5950" cx="4" cy="4" r="4" transform="translate(7877 -8895)" fill="#304c8e"/>
        <circle id="Ellipse_5951" data-name="Ellipse 5951" cx="4" cy="4" r="4" transform="translate(7877 -8871)" fill="#304c8e"/>
        <circle id="Ellipse_5952" data-name="Ellipse 5952" cx="4" cy="4" r="4" transform="translate(7877 -8847)" fill="#304c8e"/>
        <circle id="Ellipse_5858" data-name="Ellipse 5858" cx="46.5" cy="46.5" r="46.5" transform="translate(7768 -8940)" fill="#fff"/>
        <g id="Group_2_1_" data-name="Group 2 (1)" transform="translate(7783.272 -8929.189)">
          <path id="Path_610539" data-name="Path 610539" d="M40.864,104H66.442v47.958H40.864Z" transform="translate(-35.42 -90.146)" fill="#939393"/>
          <path id="Path_610540" data-name="Path 610540" d="M40.864,104v41.564H56.85a4.263,4.263,0,0,0,4.263-4.263V104Z" transform="translate(-35.42 -90.146)" fill="#bebebe"/>
          <path id="Path_610541" data-name="Path 610541" d="M152.864,400.526V395.2a3.2,3.2,0,1,1,6.394,0v5.329Z" transform="translate(-132.5 -339.779)" fill="#fff"/>
          <path id="Path_610542" data-name="Path 610542" d="M152.864,296h6.394v6.394h-6.394Z" transform="translate(-132.5 -256.568)" fill="#fff"/>
          <path id="Path_610543" data-name="Path 610543" d="M152.864,216h6.394v6.394h-6.394Z" transform="translate(-132.5 -187.225)" fill="#fff"/>
          <path id="Path_610544" data-name="Path 610544" d="M72.864,216h6.394v6.394H72.864Z" transform="translate(-63.157 -187.225)" fill="#fff"/>
          <path id="Path_610545" data-name="Path 610545" d="M72.864,136h6.394v6.394H72.864Z" transform="translate(-63.157 -117.883)" fill="#fff"/>
          <path id="Path_610546" data-name="Path 610546" d="M72.864,296h6.394v6.394H72.864Z" transform="translate(-63.157 -256.568)" fill="#fff"/>
          <path id="Path_610547" data-name="Path 610547" d="M184.864,248h21.315v27.709H184.864Z" transform="translate(-160.237 -214.962)" fill="#d6d6d6"/>
          <path id="Path_610548" data-name="Path 610548" d="M184.864,248v25.578h12.789a4.263,4.263,0,0,0,4.263-4.263V248Z" transform="translate(-160.237 -214.962)" fill="#dedede"/>
          <path id="Path_610549" data-name="Path 610549" d="M280.864,280h4.263v4.263h-4.263Z" transform="translate(-243.448 -242.699)" fill="#f2f2f2"/>
          <path id="Path_610550" data-name="Path 610550" d="M280.864,283.2h1.066a2.131,2.131,0,0,0,2.131-2.131V280h-3.2Z" transform="translate(-243.448 -242.699)" fill="#fff"/>
          <path id="Path_610551" data-name="Path 610551" d="M216.864,280h4.263v4.263h-4.263Z" transform="translate(-187.974 -242.699)" fill="#f2f2f2"/>
          <path id="Path_610552" data-name="Path 610552" d="M216.864,283.2h1.066a2.131,2.131,0,0,0,2.131-2.131V280h-3.2Z" transform="translate(-187.974 -242.699)" fill="#fff"/>
          <path id="Path_610553" data-name="Path 610553" d="M216.864,344h4.263v4.263h-4.263Z" transform="translate(-187.974 -298.174)" fill="#f2f2f2"/>
          <path id="Path_610554" data-name="Path 610554" d="M216.864,347.2h1.066a2.131,2.131,0,0,0,2.131-2.131V344h-3.2Z" transform="translate(-187.974 -298.174)" fill="#fff"/>
          <path id="Path_610555" data-name="Path 610555" d="M8.864,456H57.888v4.263H8.864Z" transform="translate(-7.683 -395.253)" fill="#60cb28"/>
          <path id="Path_610556" data-name="Path 610556" d="M24.864,72H54.7v4.263H24.864Z" transform="translate(-21.552 -62.408)" fill="#60cb28"/>
          <path id="Path_610557" data-name="Path 610557" d="M152.864,136h6.394v6.394h-6.394Z" transform="translate(-132.5 -117.883)" fill="#fff"/>
          <path id="Path_610558" data-name="Path 610558" d="M280.864,344h4.263v4.263h-4.263Z" transform="translate(-243.448 -298.174)" fill="#f2f2f2"/>
          <path id="Path_610559" data-name="Path 610559" d="M72.864,400.526V395.2a3.2,3.2,0,1,1,6.394,0v5.329Z" transform="translate(-63.157 -339.779)" fill="#fff"/>
          <path id="Path_610560" data-name="Path 610560" d="M251,408a2.131,2.131,0,0,0-2.131,2.131v4.263h4.263v-4.263A2.131,2.131,0,0,0,251,408Z" transform="translate(-215.711 -353.648)" fill="#d3d3d3"/>
          <path id="Path_610561" data-name="Path 610561" d="M8.864,458.131H53.625A2.131,2.131,0,0,0,55.756,456H8.864Z" transform="translate(-7.683 -395.253)" fill="#60cb28"/>
          <path id="Path_610562" data-name="Path 610562" d="M280.864,347.2h1.066a2.131,2.131,0,0,0,2.131-2.131V344h-3.2Z" transform="translate(-243.448 -298.174)" fill="#fff"/>
          <path id="Path_610563" data-name="Path 610563" d="M251,408a2.131,2.131,0,0,0-2.131,2.131v2.131h4.263v-2.131A2.131,2.131,0,0,0,251,408Z" transform="translate(-215.711 -353.648)" fill="#fff"/>
          <path id="Path_610564" data-name="Path 610564" d="M24.864,72v2.131H50.442a3.187,3.187,0,0,0,3-2.131Z" transform="translate(-21.552 -62.408)" fill="#60cb28"/>
          <path id="Path_610565" data-name="Path 610565" d="M253.1,30.38V21.854h-2.724a15.855,15.855,0,0,0-1.469-3.572l2.061-2.061-6.091-6.09-2.06,2.06a15.924,15.924,0,0,0-3.572-1.468V8h-8.526v2.724a15.914,15.914,0,0,0-3.573,1.468l-2.06-2.06L219,16.221l2.06,2.061a15.809,15.809,0,0,0-1.467,3.572h-2.724V30.38h2.724a15.81,15.81,0,0,0,1.467,3.572L219,36.014l6.09,6.09,2.06-2.06a15.913,15.913,0,0,0,3.573,1.468v2.724h8.526V41.511a15.922,15.922,0,0,0,3.572-1.468l2.06,2.06,6.091-6.09-2.061-2.061a15.855,15.855,0,0,0,1.469-3.572Zm-18.117,7.46a11.723,11.723,0,1,1,4.486-.892A11.722,11.722,0,0,1,234.981,37.84Z" transform="translate(-187.974 -6.934)" fill="#ffe126"/>
          <path id="Path_610566" data-name="Path 610566" d="M313.413,90.792v6.022l-2.131,2.131-2.131-2.131V90.792a6.386,6.386,0,0,0,0,12.043V109.4a11.317,11.317,0,0,0,4.263,0v-6.564a6.386,6.386,0,0,0,0-12.043Z" transform="translate(-264.275 -78.697)" fill="#ffe126"/>
          <path id="Path_610567" data-name="Path 610567" d="M65.066,136.526H71.46a1.066,1.066,0,0,0,1.066-1.066v-6.394A1.066,1.066,0,0,0,71.46,128H65.066A1.066,1.066,0,0,0,64,129.066v6.394a1.066,1.066,0,0,0,1.066,1.066Zm1.066-6.394h4.263v4.263H66.131Z" transform="translate(-55.474 -110.948)"/>
          <path id="Path_610568" data-name="Path 610568" d="M145.066,136.526h6.394v-2.131h-5.329v-4.263h5.329V128h-6.394A1.066,1.066,0,0,0,144,129.066v6.394a1.066,1.066,0,0,0,1.066,1.066Z" transform="translate(-124.817 -110.948)"/>
          <path id="Path_610569" data-name="Path 610569" d="M65.066,216.526H71.46a1.066,1.066,0,0,0,1.066-1.066v-6.394A1.066,1.066,0,0,0,71.46,208H65.066A1.066,1.066,0,0,0,64,209.066v6.394a1.066,1.066,0,0,0,1.066,1.066Zm1.066-6.394h4.263v4.263H66.131Z" transform="translate(-55.474 -180.291)"/>
          <path id="Path_610570" data-name="Path 610570" d="M65.066,296.526H71.46a1.066,1.066,0,0,0,1.066-1.066v-6.394A1.066,1.066,0,0,0,71.46,288H65.066A1.066,1.066,0,0,0,64,289.066v6.394a1.066,1.066,0,0,0,1.066,1.066Zm1.066-6.394h4.263v4.263H66.131Z" transform="translate(-55.474 -249.634)"/>
          <path id="Path_610571" data-name="Path 610571" d="M213.329,272h-4.263A1.066,1.066,0,0,0,208,273.066v4.263a1.066,1.066,0,0,0,1.066,1.066h4.263a1.066,1.066,0,0,0,1.066-1.066v-4.263A1.066,1.066,0,0,0,213.329,272Zm-1.066,4.263h-2.131v-2.131h2.131Z" transform="translate(-180.291 -235.765)"/>
          <path id="Path_610572" data-name="Path 610572" d="M213.329,336h-4.263A1.066,1.066,0,0,0,208,337.066v4.263a1.066,1.066,0,0,0,1.066,1.066h4.263a1.066,1.066,0,0,0,1.066-1.066v-4.263A1.066,1.066,0,0,0,213.329,336Zm-1.066,4.263h-2.131v-2.131h2.131Z" transform="translate(-180.291 -291.239)"/>
          <path id="Path_610573" data-name="Path 610573" d="M277.329,336h-4.263A1.066,1.066,0,0,0,272,337.066v4.263a1.066,1.066,0,0,0,1.066,1.066h4.263a1.066,1.066,0,0,0,1.066-1.066v-4.263A1.066,1.066,0,0,0,277.329,336Zm-1.066,4.263h-2.131v-2.131h2.131Z" transform="translate(-235.765 -291.239)"/>
          <path id="Path_610574" data-name="Path 610574" d="M273.066,285.329h4.263V283.2h-3.2V280H272v4.263a1.066,1.066,0,0,0,1.066,1.066Z" transform="translate(-235.765 -242.699)"/>
          <path id="Path_610575" data-name="Path 610575" d="M65.01,13.854H63.077a16.9,16.9,0,0,0-.95-2.311l1.5-1.5a1.066,1.066,0,0,0,0-1.507l-6.09-6.09a1.1,1.1,0,0,0-1.507,0l-1.5,1.5A16.909,16.909,0,0,0,52.221,3V1.066A1.066,1.066,0,0,0,51.155,0H42.629a1.066,1.066,0,0,0-1.066,1.066V3a16.908,16.908,0,0,0-2.311.95l-1.5-1.5a1.066,1.066,0,0,0-1.507,0L30.16,8.526H3.2A1.066,1.066,0,0,0,2.131,9.592v4.263A1.066,1.066,0,0,0,3.2,14.92H4.263V59.681h-3.2A1.066,1.066,0,0,0,0,60.747V65.01a1.066,1.066,0,0,0,1.066,1.066H50.089a1.066,1.066,0,0,0,1.066-1.066V60.747a1.066,1.066,0,0,0-1.066-1.066h-3.2V38.366h4.263A1.066,1.066,0,0,0,52.221,37.3V35.368a16.9,16.9,0,0,0,2.311-.95l1.5,1.5a1.066,1.066,0,0,0,1.507,0l6.09-6.09a1.066,1.066,0,0,0,0-1.507l-1.5-1.5a16.91,16.91,0,0,0,.945-2.311H65.01a1.066,1.066,0,0,0,1.066-1.066V14.92a1.066,1.066,0,0,0-1.066-1.066ZM6.394,14.92H26.643V12.789H4.263V10.657H30.77l.887.887a16.9,16.9,0,0,0-.95,2.311H28.775a1.066,1.066,0,0,0-1.066,1.066v8.526a1.066,1.066,0,0,0,1.066,1.066h1.932a16.9,16.9,0,0,0,.95,2.311l-1.5,1.5a1.066,1.066,0,0,0,0,1.507l2.139,2.139H27.709v-3.2a1.066,1.066,0,0,0-1.066-1.066H20.249a1.066,1.066,0,0,0-1.066,1.066v6.394a1.066,1.066,0,0,0,1.066,1.066h3.2v2.131h-3.2a1.066,1.066,0,0,0-1.066,1.066v6.394a1.066,1.066,0,0,0,1.066,1.066h3.2v4.263a4.263,4.263,0,0,0-4.263,4.263v4.263H17.052V55.418a4.263,4.263,0,0,0-8.526,0v4.263H6.394Zm14.92,44.761V55.418a2.131,2.131,0,0,1,2.131-2.131v6.394Zm2.131-14.92H21.315V40.5h2.131Zm1.066-12.789a1.066,1.066,0,0,0-1.066,1.066V34.1H21.315V29.84h4.263v2.131ZM14.92,59.681H10.657V55.418a2.131,2.131,0,1,1,4.263,0Zm34.1,4.263H2.131V61.812H49.024ZM36.235,59.681H34.1v-3.2a1.066,1.066,0,1,1,2.131,0Zm8.526,0H38.366v-3.2a3.2,3.2,0,1,0-6.394,0v3.2H25.578V34.1h8.846l1.819,1.819a1.1,1.1,0,0,0,1.507,0l1.5-1.5a16.908,16.908,0,0,0,2.311.945V37.3a1.066,1.066,0,0,0,1.066,1.066h2.131Zm19.183-37.3H62.286a1.066,1.066,0,0,0-1.027.782A14.841,14.841,0,0,1,59.894,26.5a1.066,1.066,0,0,0,.175,1.279l1.308,1.307-4.583,4.583-1.312-1.309A1.066,1.066,0,0,0,54.2,32.18a14.84,14.84,0,0,1-3.333,1.369,1.066,1.066,0,0,0-.782,1.027v1.658H43.695V34.577a1.066,1.066,0,0,0-.782-1.027,14.84,14.84,0,0,1-3.333-1.364,1.066,1.066,0,0,0-1.279.175l-1.307,1.308-4.583-4.583,1.308-1.307a1.066,1.066,0,0,0,.175-1.279,14.84,14.84,0,0,1-1.369-3.333A1.066,1.066,0,0,0,31.5,22.38H29.84V15.986H31.5a1.066,1.066,0,0,0,1.027-.782A14.841,14.841,0,0,1,33.9,11.871a1.066,1.066,0,0,0-.175-1.279L32.413,9.287,37,4.7,38.3,6.012a1.066,1.066,0,0,0,1.279.175,14.839,14.839,0,0,1,3.331-1.369,1.066,1.066,0,0,0,.782-1.027V2.131h6.394V3.79a1.066,1.066,0,0,0,.782,1.027A14.84,14.84,0,0,1,54.2,6.187a1.066,1.066,0,0,0,1.279-.175L56.79,4.7l4.583,4.583-1.309,1.307a1.066,1.066,0,0,0-.175,1.279A14.84,14.84,0,0,1,61.258,15.2a1.066,1.066,0,0,0,1.027.782h1.658Z" transform="translate(0 0)"/>
          <path id="Path_610576" data-name="Path 610576" d="M268.789,48a12.8,12.8,0,1,0,9.039,3.75A12.789,12.789,0,0,0,268.789,48Zm-1.066,23.392V65.743a1.065,1.065,0,0,0-.71-1,5.317,5.317,0,0,1-1.422-9.271v4.255a1.066,1.066,0,0,0,.312.753l2.132,2.131a1.066,1.066,0,0,0,1.507,0l2.131-2.131a1.066,1.066,0,0,0,.312-.753V55.468a5.317,5.317,0,0,1-1.422,9.272,1.065,1.065,0,0,0-.71,1v5.648a10.476,10.476,0,0,1-2.131,0Zm4.263-.437v-4.5a7.452,7.452,0,0,0-.71-13.762,1.066,1.066,0,0,0-1.422,1v5.581l-1.066,1.066-1.066-1.066V53.7a1.066,1.066,0,0,0-1.422-1,7.452,7.452,0,0,0-.71,13.762v4.5a10.657,10.657,0,1,1,6.394,0Z" transform="translate(-221.897 -41.606)"/>
        </g>
      </g>
      <g id="Group_1073112" data-name="Group 1073112" transform="translate(1110 624.146)">
        <path id="Path_613329" data-name="Path 613329" d="M444,362.775,426.554,337.2V216.371c0-29.436-20.2-53.3-45.114-53.3H102.179a38.576,38.576,0,0,0-4.4.257l1.145-18.421L72.271,176.484c-9.324,9.764-15.206,24.01-15.206,39.887V414.679H381.439c13.241,0,25.15-6.74,33.4-17.473l-.008.12Z" transform="translate(7053.935 -8885.781)" fill="#dde0e4"/>
        <path id="Path_613331" data-name="Path 613331" d="M413.341,407.385H71.836V195.163c0-31.5,21.266-57.035,47.5-57.035H413.339c26.233,0,47.5,25.537,47.5,57.035V350.35C460.838,381.849,439.572,407.385,413.341,407.385Z" transform="translate(7050.164 -8891.128)" fill="#e2e7fe"/>
        <text id="Del_entorno_Activos_que_se_precisan_para_garantizar_las_siguientes_capas:" data-name="Del entorno

Activos que se precisan para garantizar las siguientes capas:" transform="translate(7247 -8721)" fill="#12263f" font-size="17" font-family="Roboto-Bold, Roboto" font-weight="700"><tspan x="0" y="16">Del entorno</tspan><tspan x="0" y="40"></tspan><tspan font-size="16" font-family="Roboto-Regular, Roboto" font-weight="400"><tspan x="0" y="64">Activos que se precisan para </tspan><tspan x="0" y="88">garantizar las siguientes capas:</tspan></tspan></text>
        <circle id="Ellipse_5954" data-name="Ellipse 5954" cx="4" cy="4" r="4" transform="translate(7257 -8613)" fill="#304c8e"/>
        <circle id="Ellipse_5955" data-name="Ellipse 5955" cx="4" cy="4" r="4" transform="translate(7257 -8566)" fill="#304c8e"/>
        <circle id="Ellipse_5956" data-name="Ellipse 5956" cx="4" cy="4" r="4" transform="translate(7257 -8540)" fill="#304c8e"/>
        <text id="Equipamiento_y_suministros:_energía_climatización_etc._Mobiliario._Servicios_subcontratados_a_terceros." data-name="Equipamiento y suministros: energía, climatización, etc.
Mobiliario.
Servicios subcontratados a terceros." transform="translate(7272.487 -8619.439)" fill="#12263f" font-size="16" font-family="Roboto-Regular, Roboto"><tspan x="0" y="15">Equipamiento y suministros: </tspan><tspan x="0" y="39">energía, climatización, etc.</tspan><tspan x="0" y="63">Mobiliario.</tspan><tspan x="0" y="87">Servicios subcontratados a </tspan><tspan x="0" y="111">terceros.</tspan></text>
        <circle id="Ellipse_5857" data-name="Ellipse 5857" cx="47.44" cy="47.44" r="47.44" transform="translate(7137 -8666)" fill="#fff"/>
        <g id="Group_3_1_" data-name="Group 3 (1)" transform="translate(7149.214 -8648.104)">
          <path id="Path_610577" data-name="Path 610577" d="M5.29,112H73.47v4.545H5.29Z" transform="translate(-4.154 -88.137)" fill="#5f4d37"/>
          <path id="Path_610578" data-name="Path 610578" d="M5.29,133.161H8.7v29.545H5.29Z" transform="translate(-4.154 -104.753)" fill="#a0815c"/>
          <path id="Path_610579" data-name="Path 610579" d="M306.839,133.161h3.409v29.545h-3.409Z" transform="translate(-240.932 -104.753)" fill="#a0815c"/>
          <path id="Path_610580" data-name="Path 610580" d="M216.9,133.161h3.409v29.545H216.9Z" transform="translate(-170.313 -104.753)" fill="#a0815c"/>
          <path id="Path_610581" data-name="Path 610581" d="M232.774,133.161h15.909v9.091H232.774Z" transform="translate(-182.775 -104.753)" fill="#60cb28"/>
          <path id="Path_610582" data-name="Path 610582" d="M232.774,175.483h15.909v9.091H232.774Z" transform="translate(-182.775 -137.984)" fill="#60cb28"/>
          <path id="Path_610583" data-name="Path 610583" d="M232.774,217.807h15.909V226.9H232.774Z" transform="translate(-182.775 -171.217)" fill="#60cb28"/>
          <path id="Path_610584" data-name="Path 610584" d="M124.77,9.034v10.8H95.226V9.034a2.84,2.84,0,0,1,2.841-2.841h23.863a2.84,2.84,0,0,1,2.841,2.841Z" transform="translate(-74.772 -5.057)" fill="#304c8e"/>
          <path id="Path_610585" data-name="Path 610585" d="M124.77,69.678v1.7a2.84,2.84,0,0,1-2.841,2.841H98.067a2.84,2.84,0,0,1-2.841-2.841v-1.7Z" transform="translate(-74.772 -54.905)" fill="#e0e0e2"/>
          <path id="Path_610586" data-name="Path 610586" d="M151.93,95.384h-9.091l1.136-4.545h6.818Z" transform="translate(-112.158 -71.521)" fill="#57565c"/>
          <path id="Path_610587" data-name="Path 610587" d="M264.516,69.678h9.091v9.091h-9.091Z" transform="translate(-207.699 -54.905)" fill="#898890"/>
          <path id="Path_610588" data-name="Path 610588" d="M285.677,37.935h3.409v6.818h-3.409Z" transform="translate(-224.315 -29.981)" fill="#e0e0e2"/>
          <path id="Path_610589" data-name="Path 610589" d="M70.339,169.448H47.613V164.9H67.5a2.84,2.84,0,0,1,2.841,2.841Z" transform="translate(-37.386 -129.677)" fill="#60cb28"/>
          <path id="Path_610590" data-name="Path 610590" d="M49.317,44.008h-1.7V32.645h1.7a2.841,2.841,0,0,1,2.841,2.841v5.682a2.841,2.841,0,0,1-2.841,2.841Z" transform="translate(-37.386 -25.827)" fill="#60cb28"/>
          <path id="Path_610591" data-name="Path 610591" d="M69.316,23.63H67.043V15.676a1.136,1.136,0,0,0-1.136-1.136V8.858a1.137,1.137,0,0,0-1.136-1.136H61.362a1.137,1.137,0,0,0-1.136,1.136v5.682H59.089V11.13a1.136,1.136,0,0,0-2.273,0v3.409a1.136,1.136,0,0,0-1.136,1.136V23.63H40.659l-.568-2.273h7.067a3.982,3.982,0,0,0,3.977-3.977V4.88A3.982,3.982,0,0,0,47.158.9H23.295A3.982,3.982,0,0,0,19.318,4.88v12.5a3.982,3.982,0,0,0,3.977,3.977h7.067l-.568,2.273H11.363V20.221h.568a3.982,3.982,0,0,0,3.977-3.977V10.562a3.982,3.982,0,0,0-3.977-3.977h-1.7A1.136,1.136,0,0,0,9.091,7.721V23.63H1.136A1.136,1.136,0,0,0,0,24.766v34.09a1.136,1.136,0,0,0,1.136,1.136H4.545a1.136,1.136,0,0,0,1.136-1.136V30.448H9.091V40.675a1.137,1.137,0,0,0,1.136,1.136H20.454V45.22H18.181a1.136,1.136,0,0,0,0,2.273h2.273v3.613L10,53.2a1.135,1.135,0,0,0-.913,1.113v4.545a1.136,1.136,0,1,0,2.273,0V55.243l9.091-1.818v5.432a1.136,1.136,0,1,0,2.273,0V53.424l9.091,1.818v3.613a1.136,1.136,0,0,0,2.273,0V54.311a1.135,1.135,0,0,0-.913-1.113l-10.45-2.091v-9.3H32.954a1.137,1.137,0,0,0,1.136-1.136v-1.7a3.982,3.982,0,0,0-3.977-3.977H11.363V33.857h12.5a1.136,1.136,0,0,0,0-2.273h-12.5V30.448h34.09V58.856a1.136,1.136,0,0,0,1.136,1.136H50a1.136,1.136,0,0,0,1.136-1.136V57.72H64.771v1.136a1.136,1.136,0,0,0,1.136,1.136h3.409a1.136,1.136,0,0,0,1.136-1.136V24.766a1.136,1.136,0,0,0-1.136-1.136ZM11.363,8.858h.568a1.706,1.706,0,0,1,1.7,1.7v5.682a1.706,1.706,0,0,1-1.7,1.7h-.568ZM3.409,57.72H2.273V30.448H3.409ZM9.091,28.175H2.273V25.9H9.091Zm21.022,9.091a1.706,1.706,0,0,1,1.7,1.7v.568H11.363V37.266ZM62.5,9.994h1.136v4.545H62.5Zm-4.545,6.818h6.818V23.63H57.953ZM21.59,4.88a1.706,1.706,0,0,1,1.7-1.7H47.158a1.706,1.706,0,0,1,1.7,1.7v9.659H21.59Zm1.7,14.2a1.706,1.706,0,0,1-1.7-1.7v-.568H48.862v.568a1.706,1.706,0,0,1-1.7,1.7ZM38.316,23.63H32.137l.568-2.273h5.043ZM48.862,57.72H47.726V30.448h1.136Zm15.909-2.273H51.135V48.629H64.771Zm0-9.091H51.135V39.538H64.771Zm0-9.091H51.135V30.448H64.771ZM68.18,57.72H67.043V30.448H68.18Zm0-29.545H11.363V25.9H68.18Z" transform="translate(0 -0.903)"/>
          <path id="Path_610592" data-name="Path 610592" d="M255.071,151.3h4.545a1.136,1.136,0,0,0,0-2.273h-4.545a1.136,1.136,0,0,0,0,2.273Z" transform="translate(-199.391 -117.215)"/>
          <path id="Path_610593" data-name="Path 610593" d="M259.617,191.354h-4.545a1.136,1.136,0,1,0,0,2.273h4.545a1.136,1.136,0,0,0,0-2.273Z" transform="translate(-199.391 -150.446)"/>
          <path id="Path_610594" data-name="Path 610594" d="M259.617,233.678h-4.545a1.136,1.136,0,1,0,0,2.273h4.545a1.136,1.136,0,1,0,0-2.273Z" transform="translate(-199.391 -183.679)"/>
        </g>
      </g>
      <g id="Group_1073111" data-name="Group 1073111" transform="translate(775 330.249)">
        <path id="Path_613330" data-name="Path 613330" d="M444,362.775,426.554,337.2V216.371c0-29.436-20.2-53.3-45.114-53.3H102.179a38.576,38.576,0,0,0-4.4.257l1.145-18.421L72.271,176.484c-9.324,9.764-15.206,24.01-15.206,39.887V414.679H381.439c13.241,0,25.15-6.74,33.4-17.473l-.008.12Z" transform="translate(7473.935 -8885.781)" fill="#dde0e4"/>
        <path id="Path_613332" data-name="Path 613332" d="M413.341,407.385H71.836V195.163c0-31.5,21.266-57.035,47.5-57.035H413.339c26.233,0,47.5,25.537,47.5,57.035V350.35C460.838,381.849,439.572,407.385,413.341,407.385Z" transform="translate(7470.164 -8891.128)" fill="#fdfde3"/>
        <text id="Equipamiento_Informático_Aplicaciones_software_._Equipos_informáticos_hardware_._Comunicaciones._Soportes._De_información:_discos_cintas_etc." data-name="Equipamiento Informático

Aplicaciones (software).
Equipos informáticos (hardware).
Comunicaciones.
Soportes.
De información: discos, cintas, etc." transform="translate(7667 -8721)" fill="#12263f" font-size="17" font-family="Roboto-Bold, Roboto" font-weight="700"><tspan x="0" y="16">Equipamiento Informático</tspan><tspan x="0" y="40"></tspan><tspan font-size="16" font-family="Roboto-Regular, Roboto" font-weight="400"><tspan x="0" y="64">Aplicaciones (</tspan><tspan y="64" font-family="Roboto-Italic, Roboto" font-style="italic">software</tspan><tspan y="64">).</tspan><tspan x="0" y="88">Equipos informáticos (</tspan><tspan y="88" font-family="Roboto-Italic, Roboto" font-style="italic">hardware</tspan><tspan y="88">).</tspan><tspan x="0" y="112">Comunicaciones.</tspan><tspan x="0" y="136">Soportes.</tspan><tspan x="0" y="160">De información: discos, cintas, etc.</tspan></tspan></text>
        <circle id="Ellipse_5957" data-name="Ellipse 5957" cx="4" cy="4" r="4" transform="translate(7655 -8666)" fill="#304c8e"/>
        <circle id="Ellipse_5958" data-name="Ellipse 5958" cx="4" cy="4" r="4" transform="translate(7655 -8641)" fill="#304c8e"/>
        <circle id="Ellipse_5959" data-name="Ellipse 5959" cx="4" cy="4" r="4" transform="translate(7655 -8618)" fill="#304c8e"/>
        <circle id="Ellipse_5960" data-name="Ellipse 5960" cx="4" cy="4" r="4" transform="translate(7655 -8595)" fill="#304c8e"/>
        <circle id="Ellipse_5961" data-name="Ellipse 5961" cx="4" cy="4" r="4" transform="translate(7655 -8570)" fill="#304c8e"/>
        <circle id="Ellipse_5859" data-name="Ellipse 5859" cx="46.792" cy="46.792" r="46.792" transform="translate(7557.758 -8667.779)" fill="#fff"/>
        <g id="Group_1" data-name="Group 1" transform="translate(7573.355 -8653.375)">
          <path id="Path_610509" data-name="Path 610509" d="M86.586,4.283H53.47a2.07,2.07,0,0,0-2.07,2.07V31.19a2.07,2.07,0,0,0,2.07,2.07H86.586a2.07,2.07,0,0,0,2.07-2.07V6.353A2.07,2.07,0,0,0,86.586,4.283Z" transform="translate(-38.981 -3.248)" fill="#e2e7fe"/>
          <path id="Path_610510" data-name="Path 610510" d="M51.4,107.083v2.07a2.07,2.07,0,0,0,2.07,2.07H86.586a2.07,2.07,0,0,0,2.07-2.07v-2.07Z" transform="translate(-38.981 -81.211)" fill="#ffe126"/>
          <path id="Path_610511" data-name="Path 610511" d="M29.408,175.617H14.92a2.07,2.07,0,0,0-2.07,2.07v12.419H31.478V177.687a2.07,2.07,0,0,0-2.07-2.07Z" transform="translate(-9.745 -133.187)" fill="#60cb28"/>
          <path id="Path_610512" data-name="Path 610512" d="M113.149,124.217H104.87l-2.07,6.209h12.419Z" transform="translate(-77.963 -94.205)" fill="#e2e7fe"/>
          <path id="Path_610513" data-name="Path 610513" d="M4.283,235.583v2.07a2.07,2.07,0,0,0,2.07,2.07H24.981a2.07,2.07,0,0,0,2.07-2.07v-2.07Z" transform="translate(-3.248 -178.665)" fill="#60cb28"/>
          <path id="Path_610514" data-name="Path 610514" d="M183.608,175.617H169.12a2.07,2.07,0,0,0-2.07,2.07v12.419h18.628V177.687a2.07,2.07,0,0,0-2.07-2.07Z" transform="translate(-126.69 -133.187)" fill="#60cb28"/>
          <path id="Path_610515" data-name="Path 610515" d="M179.181,239.723H160.553a2.07,2.07,0,0,1-2.07-2.07v-2.07H181.25v2.07a2.07,2.07,0,0,1-2.07,2.07Z" transform="translate(-120.193 -178.665)" fill="#60cb28"/>
          <path id="Path_610516" data-name="Path 610516" d="M12.706,63.482V44.07l2.8-2.8L14.044,39.8l-3.408,3.408V63.482a3.1,3.1,0,1,0,2.07,0Zm-1.035,3.961a1.036,1.036,0,1,1,.731-.3A1.034,1.034,0,0,1,11.671,67.443Z" transform="translate(-6.497 -30.188)" fill="#304c8e"/>
          <path id="Path_610517" data-name="Path 610517" d="M224.575,63.482V43.212L221.168,39.8,219.7,41.268l2.8,2.8V63.482a3.1,3.1,0,1,0,2.07,0Zm-1.035,3.961a1.036,1.036,0,1,1,.732-.3A1.034,1.034,0,0,1,223.54,67.443Z" transform="translate(-166.622 -30.188)" fill="#304c8e"/>
          <path id="Path_610518" data-name="Path 610518" d="M110.791,30.784V28.607l-2.079-.5-.693-1.673,1.121-1.83L107.6,23.068l-1.83,1.121L104.1,23.5l-.5-2.079h-2.176l-.5,2.079-1.673.693-1.83-1.121-1.539,1.539,1.121,1.83-.693,1.673-2.079.5v2.176l2.079.5.693,1.673-1.121,1.83,1.539,1.539,1.83-1.121,1.673.693.5,2.079H103.6l.5-2.079,1.673-.693,1.83,1.121,1.539-1.539-1.121-1.83.693-1.673Zm-8.279.982a2.07,2.07,0,1,1,1.463-.606A2.069,2.069,0,0,1,102.512,31.765Z" transform="translate(-71.466 -16.242)" fill="#ffe126"/>
          <path id="Path_610519" data-name="Path 610519" d="M73.582,32.014a13.472,13.472,0,0,1,2.66-13.454l1.542,1.38a11.4,11.4,0,0,0-2.251,11.383Z" transform="translate(-55.224 -14.076)" fill="#304c8e"/>
          <path id="Path_610520" data-name="Path 610520" d="M81.894,82.517a13.512,13.512,0,0,1-1.625-2.242l1.792-1.036a11.436,11.436,0,0,0,1.376,1.9Z" transform="translate(-60.875 -60.094)" fill="#304c8e"/>
          <path id="Path_610521" data-name="Path 610521" d="M165.162,50.576,163.62,49.2a11.4,11.4,0,0,0,2.251-11.383l1.952-.69a13.473,13.473,0,0,1-2.66,13.454Z" transform="translate(-124.088 -28.153)" fill="#304c8e"/>
          <path id="Path_610522" data-name="Path 610522" d="M165.162,22.059a11.451,11.451,0,0,0-1.323-1.838l1.552-1.37a13.51,13.51,0,0,1,1.563,2.172Z" transform="translate(-124.255 -14.296)" fill="#304c8e"/>
          <path id="Path_610523" data-name="Path 610523" d="M132.639,168.8a3.1,3.1,0,1,0-2.07,0v6.816l2.373,2.373,1.464-1.463-1.767-1.767Zm-1.035-3.962a1.036,1.036,0,1,1-.731.3A1.035,1.035,0,0,1,131.6,164.835Z" transform="translate(-97.453 -123.44)" fill="#304c8e"/>
          <path id="Path_610524" data-name="Path 610524" d="M106.94,173.21v-6.816l-2.373-2.373-1.464,1.464,1.767,1.767v5.959a3.1,3.1,0,1,0,2.07,0Zm-1.035,3.961a1.036,1.036,0,1,1,.731-.3A1.035,1.035,0,0,1,105.9,177.171Z" transform="translate(-77.963 -124.393)" fill="#304c8e"/>
          <path id="Path_610525" data-name="Path 610525" d="M89.95,145.633h18.628v2.07H89.95Z" transform="translate(-68.218 -110.447)" fill="#ffe126"/>
          <path id="Path_610526" data-name="Path 610526" d="M50.221,31.046H61.2l-1.38,4.139H57.465v2.07H76.093v-2.07H73.734l-1.38-4.139H83.337a3.108,3.108,0,0,0,3.1-3.1V3.1a3.108,3.108,0,0,0-3.1-3.1H50.221a3.108,3.108,0,0,0-3.1,3.1V27.942a3.108,3.108,0,0,0,3.1,3.1Zm11.785,4.139,1.38-4.139h6.787l1.38,4.139ZM49.186,3.1A1.036,1.036,0,0,1,50.221,2.07H83.337A1.036,1.036,0,0,1,84.372,3.1V24.837H49.186Zm0,23.8H84.372v1.035a1.036,1.036,0,0,1-1.035,1.035H50.221a1.036,1.036,0,0,1-1.035-1.035Z" transform="translate(-35.733)"/>
          <path id="Path_610527" data-name="Path 610527" d="M22.767,174.438a3.108,3.108,0,0,0-3.1-3.1H5.174a3.108,3.108,0,0,0-3.1,3.1v11.384H0v3.1a3.108,3.108,0,0,0,3.1,3.1H21.732a3.108,3.108,0,0,0,3.1-3.1v-3.1h-2.07Zm-18.628,0A1.036,1.036,0,0,1,5.174,173.4H19.663a1.036,1.036,0,0,1,1.035,1.035v11.384H4.14Zm18.628,14.488a1.036,1.036,0,0,1-1.035,1.035H3.1a1.036,1.036,0,0,1-1.035-1.035v-1.035h20.7Z" transform="translate(0 -129.938)"/>
          <path id="Path_610528" data-name="Path 610528" d="M132.639,168.8a3.1,3.1,0,1,0-2.07,0v6.816l2.373,2.373,1.464-1.463-1.767-1.767ZM131.6,166.9a1.036,1.036,0,1,1,.731-.3A1.035,1.035,0,0,1,131.6,166.9Z" transform="translate(-97.453 -123.44)"/>
          <path id="Path_610529" data-name="Path 610529" d="M176.967,185.821V174.438a3.108,3.108,0,0,0-3.1-3.1H159.374a3.108,3.108,0,0,0-3.1,3.1v11.384H154.2v3.1a3.108,3.108,0,0,0,3.1,3.1h18.628a3.108,3.108,0,0,0,3.1-3.1v-3.1Zm-18.628-11.384a1.036,1.036,0,0,1,1.035-1.035h14.488a1.036,1.036,0,0,1,1.035,1.035v11.384H158.339Zm18.628,14.488a1.036,1.036,0,0,1-1.035,1.035H157.3a1.036,1.036,0,0,1-1.035-1.035v-1.035h20.7Z" transform="translate(-116.944 -129.938)"/>
          <path id="Path_610530" data-name="Path 610530" d="M11.671,69.513a3.1,3.1,0,0,0,1.035-6.031V44.07l2.8-2.8L14.044,39.8l-3.408,3.408V63.482a3.1,3.1,0,0,0,1.035,6.031Zm0-4.14a1.036,1.036,0,1,1-.731.3A1.036,1.036,0,0,1,11.671,65.373Z" transform="translate(-6.497 -30.188)"/>
          <path id="Path_610531" data-name="Path 610531" d="M222.506,63.482a3.1,3.1,0,1,0,2.07,0V43.212L221.168,39.8,219.7,41.268l2.8,2.8Zm1.035,1.892a1.036,1.036,0,1,1-.731.3A1.036,1.036,0,0,1,223.54,65.373Z" transform="translate(-166.622 -30.188)"/>
          <path id="Path_610532" data-name="Path 610532" d="M106.218,28.917l2.36-.566V24.543l-2.36-.566-.289-.7L107.2,21.2l-2.692-2.692-2.076,1.272-.7-.289-.566-2.36H97.36l-.566,2.36-.7.289L94.02,18.511,91.327,21.2,92.6,23.279l-.29.7-2.36.566v3.808l2.36.566.289.7-1.272,2.076,2.692,2.692L96.1,33.112l.7.289.566,2.36h3.808l.566-2.36.7-.289,2.076,1.272,2.693-2.692-1.272-2.076Zm-1.634,2.464-.385.385-1.584-.971-2.647,1.1-.431,1.8h-.544l-.431-1.8-2.647-1.1-1.584.971-.385-.385.971-1.584-1.1-2.647-1.8-.431v-.544l1.8-.431,1.1-2.647-.971-1.584.385-.385,1.584.971L98.561,21l.431-1.8h.544l.431,1.8,2.647,1.1,1.584-.971.385.385-.971,1.584,1.1,2.647,1.8.431v.544l-1.8.431-1.1,2.647Z" transform="translate(-68.218 -12.994)"/>
          <path id="Path_610533" data-name="Path 610533" d="M118.755,42.833a3.108,3.108,0,1,0,2.194.91A3.1,3.1,0,0,0,118.755,42.833Zm0,4.14a1.036,1.036,0,1,1,.731-.3A1.036,1.036,0,0,1,118.755,46.973Z" transform="translate(-87.708 -32.485)"/>
          <path id="Path_610534" data-name="Path 610534" d="M74.886,27.529a11.363,11.363,0,0,1,2.9-7.589l-1.542-1.38a13.472,13.472,0,0,0-2.66,13.454l1.952-.69A11.355,11.355,0,0,1,74.886,27.529Z" transform="translate(-55.224 -14.076)"/>
          <path id="Path_610535" data-name="Path 610535" d="M80.269,80.275a13.512,13.512,0,0,0,1.625,2.242l1.542-1.38a11.435,11.435,0,0,1-1.376-1.9Z" transform="translate(-60.875 -60.094)"/>
          <path id="Path_610536" data-name="Path 610536" d="M165.871,37.812A11.4,11.4,0,0,1,163.62,49.2l1.542,1.38a13.473,13.473,0,0,0,2.66-13.454Z" transform="translate(-124.088 -28.153)"/>
          <path id="Path_610537" data-name="Path 610537" d="M166.954,21.022a13.51,13.51,0,0,0-1.563-2.172l-1.552,1.37a11.466,11.466,0,0,1,1.323,1.838Z" transform="translate(-124.255 -14.296)"/>
          <path id="Path_610538" data-name="Path 610538" d="M106.94,173.21v-6.816l-2.373-2.373-1.464,1.464,1.767,1.767v5.959a3.1,3.1,0,1,0,2.07,0Zm-1.035,3.961a1.036,1.036,0,1,1,.731-.3A1.035,1.035,0,0,1,105.9,177.171Z" transform="translate(-77.963 -124.393)"/>
        </g>
      </g>
    </g>
  </g>
</svg>
