<svg xmlns="http://www.w3.org/2000/svg" xmlns:xlink="http://www.w3.org/1999/xlink" width="295" height="295" viewBox="0 0 295 295">
  <defs>
    <clipPath id="clip-path">
      <rect id="Rectangle_377424" data-name="Rectangle 377424" width="159" height="159" fill="#fff"/>
    </clipPath>
  </defs>
  <g id="Group_1072105" data-name="Group 1072105" transform="translate(-1020 -3990)">
    <circle id="Ellipse_5865" data-name="Ellipse 5865" cx="147.5" cy="147.5" r="147.5" transform="translate(1020 3990)" fill="#304c8e"/>
    <g id="audit_1_1" data-name="audit (1) 1" transform="translate(1088 4058)" clip-path="url(#clip-path)">
      <path id="Path_612155" data-name="Path 612155" d="M109.218,129.53,115.1,1.5h11.51a10.87,10.87,0,0,1,10.87,10.87V67.384a15.6,15.6,0,0,0,7.943,13.591h0l8.088,4.556a12.81,12.81,0,0,1,6.524,11.16v50.148a10.87,10.87,0,0,1-10.871,10.871h-11Z" transform="translate(-7.664 -0.105)" fill="#fdfde3" stroke="#000" stroke-width="3"/>
      <path id="Path_612156" data-name="Path 612156" d="M113.047,0h4.7a12.265,12.265,0,0,1,12.264,12.265V73.678a14.2,14.2,0,0,0,7.233,12.376l8.088,4.556a14.2,14.2,0,0,1,7.234,12.375v43.75A12.265,12.265,0,0,1,140.3,159h-4.627L98.935,129.988Z" transform="translate(-6.943)" fill="#fdfde3"/>
      <path id="Path_612157" data-name="Path 612157" d="M140.1,107.268V146.84a10.87,10.87,0,0,1-10.871,10.87H18A10.87,10.87,0,0,1,7.13,146.84V12.37A10.87,10.87,0,0,1,18,1.5h88.68A10.87,10.87,0,0,1,117.55,12.37V77.961a15.6,15.6,0,0,0,7.943,13.591l8.088,4.555A12.811,12.811,0,0,1,140.1,107.268Z" transform="translate(-0.5 -0.105)" fill="#fff" stroke="#000" stroke-width="3"/>
      <path id="Path_612158" data-name="Path 612158" d="M14.981,146.84a13.64,13.64,0,0,0,5.385,10.871H18A10.871,10.871,0,0,1,7.13,146.84V12.372A10.871,10.871,0,0,1,18,1.5h2.365a13.639,13.639,0,0,0-5.385,10.871Z" transform="translate(-0.5 -0.105)" fill="#ffe126" stroke="#000" stroke-width="3"/>
      <path id="Path_612164" data-name="Path 612164" d="M97.605,61.927H33.562a2.4,2.4,0,1,1,0-4.8H97.605a2.4,2.4,0,1,1,0,4.8Z" transform="translate(-2.187 -4.009)" fill="#ffe126"/>
      <path id="Path_612165" data-name="Path 612165" d="M84.426,73.02H48.893a2.4,2.4,0,0,1,0-4.8H84.426a2.4,2.4,0,1,1,0,4.8Z" transform="translate(-3.263 -4.787)" fill="#ffe126"/>
    </g>
    <g id="Group_1072104" data-name="Group 1072104" transform="translate(1253 4228.088)" opacity="0.85">
      <circle id="Ellipse_4752" data-name="Ellipse 4752" cx="4.5" cy="4.5" r="4.5" transform="translate(17 -0.088)" fill="#ffe126"/>
      <circle id="Ellipse_5868" data-name="Ellipse 5868" cx="4.5" cy="4.5" r="4.5" transform="translate(0 -0.088)" fill="#ffe126"/>
      <circle id="Ellipse_4757" data-name="Ellipse 4757" cx="4.5" cy="4.5" r="4.5" transform="translate(17 14.912)" fill="#ffe126"/>
      <circle id="Ellipse_5867" data-name="Ellipse 5867" cx="4.5" cy="4.5" r="4.5" transform="translate(0 14.912)" fill="#ffe126"/>
      <ellipse id="Ellipse_4760" data-name="Ellipse 4760" cx="4.5" cy="4" rx="4.5" ry="4" transform="translate(17 29.912)" fill="#ffe126"/>
      <ellipse id="Ellipse_5866" data-name="Ellipse 5866" cx="4.5" cy="4" rx="4.5" ry="4" transform="translate(0 29.912)" fill="#ffe126"/>
      <circle id="Ellipse_4753" data-name="Ellipse 4753" cx="4.5" cy="4.5" r="4.5" transform="translate(36 -0.088)" fill="#ffe126"/>
      <circle id="Ellipse_4756" data-name="Ellipse 4756" cx="4.5" cy="4.5" r="4.5" transform="translate(36 14.912)" fill="#ffe126"/>
      <ellipse id="Ellipse_4759" data-name="Ellipse 4759" cx="4.5" cy="4" rx="4.5" ry="4" transform="translate(36 29.912)" fill="#ffe126"/>
      <circle id="Ellipse_4754" data-name="Ellipse 4754" cx="4.5" cy="4.5" r="4.5" transform="translate(53 -0.088)" fill="#ffe126"/>
      <circle id="Ellipse_4755" data-name="Ellipse 4755" cx="4.5" cy="4.5" r="4.5" transform="translate(53 14.912)" fill="#ffe126"/>
      <ellipse id="Ellipse_4758" data-name="Ellipse 4758" cx="4.5" cy="4" rx="4.5" ry="4" transform="translate(53 29.912)" fill="#ffe126"/>
    </g>
  </g>
</svg>
