<svg xmlns="http://www.w3.org/2000/svg" width="400" height="255" viewBox="0 0 400 255">
  <g id="Group_1072779" data-name="Group 1072779" transform="translate(-915 -3020)">
    <path id="Path_612689" data-name="Path 612689" d="M0,0H400V255H0Z" transform="translate(915 3020)" fill="none"/>
    <g id="Group_7" data-name="Group 7" transform="translate(932 3020.533)">
      <path id="Path_609540" data-name="Path 609540" d="M366.211,149.283c0,37.43-12.371,71.644-32.811,97.845q-2.951,3.785-6.124,7.339H62.414a107.136,107.136,0,0,1-10.667-7.339C24.7,226.023,7.1,191.724,7.1,153c0-58.1,39.61-106.24,91.337-114.807a100.951,100.951,0,0,1,16.532-1.357l.614,0a77.166,77.166,0,0,0,10.141-.608A80.242,80.242,0,0,0,161.4,22.454,123.591,123.591,0,0,1,232.143,0C306.187,0,366.211,66.836,366.211,149.283Z" transform="translate(-0.955)" fill="#e2e7fe"/>
      <path id="Path_609541" data-name="Path 609541" d="M28.344,249.855s-7.427-30.373-7.328-40.42A119.753,119.753,0,0,1,22.13,195.5s12.7,11.434,12.7,18.1,1.743,36.25,1.743,36.25Z" transform="translate(-2.826 -26.289)" fill="#ffe126"/>
      <path id="Path_609542" data-name="Path 609542" d="M31.875,233.916l-.445,0c.106-11.005-6.724-31.153-6.792-31.356l.421-.144C25.128,202.615,31.981,222.835,31.875,233.916Z" transform="translate(-3.313 -27.218)" fill="#1e2738"/>
      <path id="Path_609543" data-name="Path 609543" d="M44.485,249.315s10.914-32.553,18.971-43.5,8.912-14.335,8.912-14.335a46.617,46.617,0,0,1-1.349,12.906c-1.728,6.713-14.592,44.925-14.592,44.925Z" transform="translate(-5.982 -25.748)" fill="#ffe126"/>
      <path id="Path_609544" data-name="Path 609544" d="M60.895,231.986l.442.045c1.1-10.951,12.61-35.428,12.7-35.622l-.4-.189C73.545,196.414,62.006,220.96,60.895,231.986Z" transform="translate(-8.188 -26.385)" fill="#1e2738"/>
      <path id="Path_609545" data-name="Path 609545" d="M43.135,265.014s16.482-30.119,26.343-39.47,11.3-12.538,11.3-12.538a46.616,46.616,0,0,1-3.6,12.465c-2.885,6.3-22.284,41.649-22.284,41.649Z" transform="translate(-5.8 -28.642)" fill="#ffe126"/>
      <path id="Path_609546" data-name="Path 609546" d="M60.262,258.258l.431.108c2.666-10.679,17.57-33.249,17.688-33.428l-.371-.245C77.891,224.873,62.945,247.508,60.262,258.258Z" transform="translate(-8.103 -30.214)" fill="#1e2738"/>
      <path id="Path_609547" data-name="Path 609547" d="M34.757,245.506s-2.224-34.329.889-48.3c1.624-7.288,8.225-30.37,11.115-33.482s3.779,7.464,4,12.291,1.642,45.09-.4,50.708-4.489,18.784-4.489,18.784Z" transform="translate(-4.57 -21.94)" fill="#ffe126"/>
      <path id="Path_609548" data-name="Path 609548" d="M33.385,253.148H18.935s-.035-.047-.1-.138c-2.361-3.326-3.031-6.677-3.547-9.992-1.166-7.489-1.852-11.894-1.129-18.231.227-1.992.533-3.641.777-4.8l.308.319c2.226,2.313,4.648,4.963,6.693,7.514.515.641,1.005,1.276,1.462,1.9a79.673,79.673,0,0,1,5.309,8.079,44.815,44.815,0,0,1,2.53,5.212c.107.265.212.531.311.8l.048.127s.141.378.268.748C31.976,245,32.676,248.417,33.385,253.148Z" transform="translate(-1.864 -29.581)" fill="#ffe126"/>
      <path id="Path_609549" data-name="Path 609549" d="M45.846,251.439s3.982-18.58,5.4-21.039,4.914-19.071,5.125-22.456,1.767,7.05,2.878,12.169,2.89,18.268,1.778,24.8l-1.111,6.53Z" transform="translate(-6.165 -27.872)" fill="#304c8e"/>
      <path id="Path_609550" data-name="Path 609550" d="M54.151,254.259l-.421-.145c3.568-10.412,3.435-31.685,3.433-31.9l.444,0C57.61,222.427,57.744,243.777,54.151,254.259Z" transform="translate(-7.225 -29.88)" fill="#1e2738"/>
      <path id="Path_609551" data-name="Path 609551" d="M40.884,247.512l-.444-.03c.041-.6,4.1-60.213,5.859-69.519l.437.083C44.98,187.325,40.924,246.911,40.884,247.512Z" transform="translate(-5.438 -23.93)" fill="#1e2738"/>
      <path id="Path_609552" data-name="Path 609552" d="M27.707,253.624l-.02.019-.138.138h0l-.157.156c-.048-.048-.1-.1-.144-.156s-.076-.088-.115-.138c-2.393-2.966-6.367-14.7-7.127-17.626-.605-2.33-3.314-7.483-4.9-10.393v-.93c1.493,2.706,4.652,8.6,5.332,11.212.875,3.363,4.781,14.577,7,17.4A3.594,3.594,0,0,0,27.707,253.624Z" transform="translate(-2.031 -30.214)" fill="#1e2738"/>
      <path id="Path_609553" data-name="Path 609553" d="M62.038,261.764v20.071a3.627,3.627,0,0,1-3.628,3.628H20.036a3.627,3.627,0,0,1-3.624-3.628V261.764a3.626,3.626,0,0,1,3.624-3.624H58.41A3.626,3.626,0,0,1,62.038,261.764Z" transform="translate(-2.207 -34.711)" fill="#304c8e"/>
      <path id="Path_609554" data-name="Path 609554" d="M340.557,90.889H317a53.013,53.013,0,0,0-13.922-23.447c-.248-.243-.5-.483-.75-.72s-.506-.474-.762-.706h0c-.147-.133-.293-.265-.441-.395q-.4-.359-.814-.707-.578-.491-1.17-.967c-.1-.079-.194-.157-.293-.233q-.362-.288-.731-.569c-.138-.105-.276-.209-.415-.313-.079-.059-.157-.118-.237-.176q-.161-.122-.327-.241-.2-.149-.41-.3-.908-.647-1.843-1.258c-.133-.087-.265-.172-.4-.257-.157-.1-.314-.2-.473-.3l-.357-.222-.208-.127c-.13-.079-.26-.158-.39-.235s-.279-.165-.419-.247l-.085-.05-.464-.266q-.245-.139-.489-.275-.574-.316-1.155-.619c-.11-.059-.221-.115-.331-.172q-.251-.13-.5-.253c-.14-.071-.28-.14-.422-.209-.209-.1-.419-.2-.629-.3-.109-.051-.217-.1-.328-.153-.1-.044-.19-.089-.287-.132l-.369-.167q-.238-.107-.478-.211c-.186-.082-.371-.16-.558-.24a52.832,52.832,0,0,0-20.5-4.146c-.032,0-.066,0-.1,0H265.8c-.194,0-.389,0-.583.005-.171,0-.339.005-.509.009q-.908.021-1.808.071c-.383.021-.768.048-1.149.078s-.763.064-1.143.1-.757.079-1.135.125q-.354.043-.706.091-.322.043-.642.09l-.149.023c-.182.028-.364.055-.545.085l-.087.014c-.226.036-.452.074-.676.114q-.279.049-.556.1c-.184.034-.369.069-.553.107s-.367.073-.55.112c-.366.077-.732.158-1.1.242l-.434.1c-.127.03-.255.062-.382.094s-.264.065-.394.1-.279.071-.418.108c-.358.1-.718.194-1.073.3q-.267.077-.534.158c-.118.035-.236.07-.354.108-.148.045-.294.09-.441.138-.182.056-.363.115-.543.176l-.17.055-.6.2c-.187.065-.371.13-.556.2l-.312.114q-.165.058-.327.12l-.184.07c-.158.058-.315.119-.472.181q-.882.342-1.745.715-.505.218-1,.445t-.992.465c-.142.068-.282.137-.422.206l-.192.1-.123.062c-.03.014-.061.03-.092.045l-.274.139c-.285.145-.567.292-.847.443-.117.061-.234.124-.349.188s-.2.109-.3.165q-1.026.566-2.024,1.175l-.034.021c-.224.137-.449.277-.672.418h0q-.335.212-.665.428l-.016.01c-.082.054-.164.109-.247.166q-.395.258-.784.528-.126.085-.252.173l-.014.009c-.216.15-.431.3-.644.456,0,0,0,0,0,0q-.44.316-.874.641-.3.224-.591.452c-.038.028-.074.056-.111.085-.2.152-.391.306-.584.46q-1.166.933-2.28,1.929c-.148.132-.294.266-.441.4-.124.113-.246.226-.368.34-.087.08-.173.162-.259.243l-.245.232c-.145.138-.287.276-.429.416q-.685.67-1.347,1.367c-.1.1-.194.2-.289.307-.036.038-.07.074-.1.112-.1.108-.2.216-.3.325l-.1.109c-.1.1-.19.208-.284.314l-.129.144c-.09.1-.181.2-.269.306l-.128.147c-.1.112-.193.223-.288.336a.5.5,0,0,0-.037.043q-.187.216-.368.436c-.114.137-.229.273-.34.411-.031.038-.063.075-.093.114-.1.117-.19.233-.281.35-.031.036-.06.073-.087.109-.088.109-.175.22-.26.33-.044.054-.086.108-.127.162-.087.11-.17.221-.254.331-.029.038-.059.077-.087.115-.08.1-.158.208-.237.313-.053.07-.106.14-.157.212-.079.105-.157.212-.234.319-.026.034-.051.069-.076.105-.094.127-.184.255-.276.382l-.064.09c-.107.152-.214.3-.32.458,0,0,0,0,0,0q-.17.246-.337.493c-.1.147-.2.295-.3.443-.017.025-.034.052-.051.078q-.158.239-.312.48-.139.216-.274.433-.344.544-.673,1.1-.155.258-.3.518c-.1.173-.2.346-.3.52s-.187.331-.279.5q-.345.624-.673,1.262c-.071.135-.14.272-.209.409q-.266.525-.52,1.057-.365.762-.7,1.538c-.092.2-.179.41-.266.616-.08.182-.155.364-.228.546-.056.137-.113.275-.168.411q-.248.619-.481,1.245-.209.557-.4,1.12-.1.28-.192.563c-.128.377-.249.756-.366,1.137q-.088.284-.173.572t-.167.574c-.01.035-.02.07-.029.106h-22.9a76.1,76.1,0,0,1,26.874-44.383h0a75.659,75.659,0,0,1,31.678-15.2q.57-.122,1.144-.236.34-.068.68-.132l.491-.092.343-.061q.6-.105,1.207-.2.314-.051.631-.1l.492-.073.269-.04.132-.017.039-.006.041-.006c.326-.044.654-.088.981-.127l.059-.008q.105-.015.21-.026l.3-.035.044,0c.16-.02.321-.038.481-.055l.093-.01.235-.025.165-.018.022,0c.042,0,.082-.009.124-.011l.139-.014.3-.029h.013l.274-.026.042,0h.044q.167-.017.335-.03c.048-.005.1-.006.14-.011l.115-.01.115-.01.34-.025.079-.006.079-.005.077-.006.037,0,.113-.009.087-.005.089-.006q.151-.011.3-.019l.12-.009c.043,0,.087-.006.132-.008l.093-.006.064,0,.035,0,.034,0,.241-.013.241-.013h.011l.057,0,.351-.016.351-.016h.1l.083,0c.165-.006.331-.014.5-.018l.1,0,.056,0h.183c.068,0,.137,0,.2,0l.068,0h.3l.164,0,.379-.005.146,0,.147,0h.679l.691,0h.232l.048,0,.31.005.1,0c.248,0,.493.009.74.018h.069c.046,0,.091,0,.138,0l.094,0,.37.013.215.008.213.009.082,0,.068,0h.017l.128.006.067,0,.065,0h.067l.073,0c.025,0,.05,0,.074,0l.277.014.189.011.036,0,.355.021H271c.108.005.216.013.325.021l.243.016h.016l.3.021.1.008h.022l.045,0,.184.014.147.013.148.013.045,0h.016l.068.005.083.008.029,0c.079.009.158.016.236.023a74.7,74.7,0,0,1,22.215,5.521,76.324,76.324,0,0,1,21.508,13.651c.738.666,1.459,1.339,2.171,2.031h0A75.9,75.9,0,0,1,340.557,90.889Z" transform="translate(-25.816 -3.986)" fill="#d34447"/>
      <path id="Path_609555" data-name="Path 609555" d="M295.249,35.407l-.022.055-8.689,20.963a52.83,52.83,0,0,0-20.5-4.146h-.248q-.876,0-1.746.033-.579.021-1.155.053c-.383.023-.768.048-1.149.078s-.763.064-1.143.1-.757.08-1.135.125q-1.415.173-2.805.418-.833.147-1.659.32c-.368.078-.732.158-1.1.242q-.821.19-1.628.405c-.358.1-.718.194-1.073.3a52.755,52.755,0,0,0-5.225,1.811q-.51.207-1.015.425c-.336.144-.671.293-1,.445s-.664.306-.992.465q-.741.356-1.469.735-.571.3-1.133.608a52.957,52.957,0,0,0-5.354,3.383s0,0,0,0c-.293.211-.586.424-.874.641q-.65.489-1.286,1-1.167.933-2.28,1.929c-.148.132-.3.266-.441.4-.125.113-.246.226-.368.34l-.26.243-.244.232c-.145.138-.287.277-.429.416q-.687.67-1.347,1.367c-.1.1-.194.2-.29.307-.036.038-.07.074-.1.112-.1.108-.2.216-.3.325l-.1.109c-.1.1-.19.208-.283.313-.044.048-.087.1-.129.144-.091.1-.181.2-.27.306l-.128.147c-.1.112-.193.223-.288.336a.376.376,0,0,0-.036.043q-.186.216-.369.436c-.114.137-.229.273-.339.411-.032.038-.063.075-.093.114q-.143.175-.28.35c-.032.036-.061.073-.088.109-.087.109-.174.219-.26.33-.043.054-.085.108-.126.162-.087.11-.171.221-.254.331-.03.038-.059.077-.087.115-.08.1-.158.208-.237.314-.053.07-.106.14-.157.212-.08.105-.157.212-.234.319-.026.034-.051.069-.076.105-.093.127-.184.255-.276.383l-.064.09c-.107.152-.215.3-.321.458,0,0,0,0,0,0-.113.164-.226.329-.336.493-.1.147-.2.295-.3.443-.017.025-.034.052-.051.078q-.158.239-.312.48c-.093.144-.184.287-.274.433q-.344.544-.673,1.1c-.1.172-.205.345-.3.518s-.2.346-.3.52-.187.331-.279.5q-.347.624-.673,1.262c-.072.135-.14.272-.209.409q-.267.525-.52,1.057-.365.762-.705,1.537-.136.307-.266.616c-.079.182-.154.364-.228.546q-.341.822-.65,1.657-.209.557-.4,1.12-.1.28-.191.563-.192.566-.366,1.137-.091.286-.173.572c-.058.191-.114.382-.167.574-.011.035-.022.07-.031.106H191.971a76.032,76.032,0,0,1,59.711-59.821q.341-.068.681-.132c.163-.031.326-.061.491-.091l.342-.061q.6-.105,1.207-.2c.209-.034.421-.066.631-.1.163-.025.327-.049.492-.073l.4-.058.4-.054.658-.085a.431.431,0,0,1,.07-.009l.177-.023.023,0,.078-.01.221-.025a.422.422,0,0,1,.043-.005l.265-.03.023,0,.194-.023.093-.01.235-.025.167-.016.019,0c.087-.009.175-.019.263-.026l.159-.016.149-.014.274-.025.042,0h.014l.029,0,.336-.029L260,29.9l.113-.009.116-.01h.012l.326-.024h0l.08-.006.079-.006.076-.005.038,0,.114-.008.087-.006.088-.006c.119-.009.236-.016.355-.023l.069-.005c.044,0,.088-.006.133-.008l.093-.006.064,0,.069,0,.241-.014.241-.013h.011l.056,0,.351-.016.351-.015h.1l.115-.005.173-.006.282-.01h.009l.1,0,.056,0h.055l.06,0h.067l.2,0,.078,0h.235l.11,0,.109,0,.378-.005.147,0h1.285c.154,0,.308,0,.461,0h.048l.275,0,.137,0c.247,0,.492.01.739.017l.069,0c.047,0,.092,0,.139,0l.093,0,.37.013.216.008.213.01c.055,0,.108,0,.162.007h.005l.128.006.066,0,.066,0h.022l.044,0,.074,0c.025,0,.05,0,.074,0l.278.014.19.011.035,0c.1,0,.192.011.287.016l.068.005c.111.005.222.013.336.021l.243.016h.009c.036,0,.072,0,.106.008l.1.006.206.016h.025l.042,0,.184.014.146.013.147.011.063.005.068.006.082.006.029,0,.235.021.142.013.455.043.456.046c.274.028.551.059.827.09.178.02.357.041.535.064.3.035.6.075.907.115s.6.083.9.127c.45.066.9.136,1.35.211s.9.152,1.348.234l.447.084q.671.126,1.34.266c.3.063.593.127.889.192l.442.1c.3.068.591.137.887.207s.569.139.853.211q.549.139,1.095.285l.688.189q1.967.546,3.9,1.2c.232.078.462.157.694.238.351.122.7.246,1.052.375l.4.148c.349.129.7.262,1.044.4.211.082.423.165.634.25Z" transform="translate(-25.814 -3.985)" fill="#b0c0da"/>
      <path id="Path_609556" data-name="Path 609556" d="M269.958,52.281a52.8,52.8,0,0,0-32.942,11.584L223.025,46.507l-.042-.051-.047-.058a75.636,75.636,0,0,1,37.194-16.051l.041-.006c.442-.06.885-.118,1.329-.171l.529-.06.024,0,.286-.032.4-.041.02,0c.14-.015.281-.028.422-.043l.422-.039.087-.008c.112-.011.223-.021.336-.03l.141-.012.229-.019c.113-.01.227-.019.341-.026l.158-.012.228-.016.175-.012c.1-.008.2-.014.3-.02l.12-.009.132-.008.158-.009.067,0c.161-.01.321-.019.482-.026h.011l.056,0c.234-.012.468-.023.7-.032l.1,0c.193-.008.386-.015.58-.021l.1,0,.112,0c.041,0,.081,0,.122,0l.208-.005.252-.005.061,0,.219,0,.671-.009Z" transform="translate(-29.978 -3.986)" fill="#85a8e6"/>
      <path id="Path_609557" data-name="Path 609557" d="M330.5,51.039l-.1.107-15.832,16.3q-.741-.728-1.513-1.426a52.857,52.857,0,0,0-35.52-13.736l-.1-22.64h.325q.461,0,.923.005h.048c.138,0,.275,0,.412.007.247,0,.492.01.739.018l.207.005.1,0,.37.012.428.018.166.008.195.009.132.007.149.008.276.014.19.011.036,0c.1,0,.192.011.287.016l.177.012.226.014.244.016.016,0c.066,0,.132.009.2.013l.228.017.046,0,.184.014.294.024.13.011.112.009.235.022.143.012L285.1,30l.456.046c.276.028.551.059.827.091.178.02.357.042.536.063.3.036.6.075.905.116s.6.083.9.127c.451.066.9.137,1.351.21s.9.153,1.348.235l.447.083q.671.128,1.339.267.444.093.889.191l.443.1c.3.068.59.137.886.207A76.045,76.045,0,0,1,305.8,35.024q.471.19.943.384a75.659,75.659,0,0,1,21.584,13.6l.373.337q.743.674,1.469,1.373Z" transform="translate(-37.306 -3.985)" fill="#5075b0"/>
      <path id="Path_609558" data-name="Path 609558" d="M357.589,93.9H334.022A53,53,0,0,0,320.1,70.451c-.248-.243-.5-.483-.75-.72s-.506-.474-.762-.706l15.172-16.9.1-.107c.061.054.121.108.182.163s.128.114.19.173h0c.248.227.494.453.738.681q.184.171.366.345l.182.173.182.173.056.055.111.107.167.16h0A75.707,75.707,0,0,1,357.589,93.9Z" transform="translate(-42.839 -6.994)" fill="#304c8e"/>
      <path id="Path_609559" data-name="Path 609559" d="M364.341,104.474l-.005,0c0-.005,0-.011,0-.016h0C364.338,104.465,364.341,104.469,364.341,104.474Z" transform="translate(-48.991 -14.046)" fill="#a51e25"/>
      <path id="Path_609560" data-name="Path 609560" d="M364.341,104.474l-.005,0c0-.005,0-.011,0-.016h0C364.338,104.465,364.341,104.469,364.341,104.474Z" transform="translate(-48.991 -14.046)" fill="#9a1c23"/>
      <path id="Path_609561" data-name="Path 609561" d="M276.393,99.732a9.067,9.067,0,1,0-9.067-9.067A9.067,9.067,0,0,0,276.393,99.732Z" transform="translate(-35.946 -10.972)" fill="#304c8e"/>
      <path id="Path_609562" data-name="Path 609562" d="M275.592,84.83,323.082,59.4l-44.054,31a3.28,3.28,0,1,1-3.775-5.365A3.635,3.635,0,0,1,275.592,84.83Z" transform="translate(-36.825 -7.988)"/>
      <path id="Path_609563" data-name="Path 609563" d="M183.753,107.21a15.461,15.461,0,0,1,2.552-.2,4.232,4.232,0,0,1,2.887.855,2.767,2.767,0,0,1,.9,2.154,3.032,3.032,0,0,1-.795,2.2,4.266,4.266,0,0,1-3.147,1.13,4.592,4.592,0,0,1-1.07-.091v4.125h-1.329Zm1.329,4.966a4.465,4.465,0,0,0,1.1.107c1.6,0,2.582-.779,2.582-2.2,0-1.36-.962-2.017-2.43-2.017a5.619,5.619,0,0,0-1.252.106Z" transform="translate(-24.709 -14.39)" fill="#304c8e"/>
      <path id="Path_609564" data-name="Path 609564" d="M201.85,112.116c0,3.544-2.154,5.423-4.782,5.423-2.719,0-4.63-2.108-4.63-5.225,0-3.269,2.032-5.409,4.782-5.409C200.031,106.906,201.85,109.06,201.85,112.116Zm-7.991.168c0,2.2,1.192,4.171,3.285,4.171,2.108,0,3.3-1.941,3.3-4.278,0-2.047-1.07-4.186-3.285-4.186S193.859,110.023,193.859,112.284Z" transform="translate(-25.876 -14.375)" fill="#304c8e"/>
      <path id="Path_609565" data-name="Path 609565" d="M214.013,112.116c0,3.544-2.154,5.423-4.783,5.423-2.72,0-4.629-2.108-4.629-5.225,0-3.269,2.032-5.409,4.782-5.409C212.194,106.906,214.013,109.06,214.013,112.116Zm-7.991.168c0,2.2,1.191,4.171,3.285,4.171s3.3-1.941,3.3-4.278c0-2.047-1.07-4.186-3.285-4.186S206.022,110.023,206.022,112.284Z" transform="translate(-27.512 -14.375)" fill="#304c8e"/>
      <path id="Path_609566" data-name="Path 609566" d="M217.469,107.226a13.843,13.843,0,0,1,2.552-.214,4.212,4.212,0,0,1,2.979.84,2.563,2.563,0,0,1,.809,1.955,2.7,2.7,0,0,1-1.94,2.628v.046a2.566,2.566,0,0,1,1.513,2.078,16.387,16.387,0,0,0,.795,2.827H222.8a13.347,13.347,0,0,1-.687-2.46c-.306-1.421-.856-1.956-2.063-2H218.8v4.462h-1.329Zm1.329,4.69h1.36c1.421,0,2.323-.779,2.323-1.955,0-1.329-.963-1.91-2.369-1.926a5.44,5.44,0,0,0-1.314.123Z" transform="translate(-29.242 -14.39)" fill="#304c8e"/>
      <path id="Path_609567" data-name="Path 609567" d="M330.074,119.645a9.5,9.5,0,0,1-3.128.559,4.784,4.784,0,0,1-5.229-5.139c.015-3.038,2.1-5.259,5.516-5.259a6.3,6.3,0,0,1,2.539.468l-.317,1.073a5.275,5.275,0,0,0-2.252-.439,3.81,3.81,0,0,0-4.1,4.1c0,2.584,1.557,4.11,3.93,4.11a4.281,4.281,0,0,0,1.753-.272v-3.037h-2.07v-1.059h3.356v4.9Z" transform="translate(-43.26 -14.765)" fill="#304c8e"/>
      <path id="Path_609568" data-name="Path 609568" d="M342.306,114.888c0,3.506-2.131,5.365-4.73,5.365-2.69,0-4.579-2.086-4.579-5.169,0-3.234,2.01-5.35,4.73-5.35C340.508,109.735,342.306,111.866,342.306,114.888Zm-7.9.166c0,2.177,1.179,4.126,3.25,4.126s3.264-1.919,3.264-4.232c0-2.025-1.058-4.141-3.249-4.141C335.491,110.808,334.4,112.818,334.4,115.055Z" transform="translate(-44.777 -14.756)" fill="#304c8e"/>
      <path id="Path_609569" data-name="Path 609569" d="M354.337,114.888c0,3.506-2.131,5.365-4.73,5.365-2.69,0-4.58-2.086-4.58-5.169,0-3.234,2.011-5.35,4.731-5.35C352.538,109.735,354.337,111.866,354.337,114.888Zm-7.9.166c0,2.177,1.179,4.126,3.249,4.126,2.086,0,3.265-1.919,3.265-4.232,0-2.025-1.058-4.141-3.249-4.141S346.433,112.818,346.433,115.055Z" transform="translate(-46.395 -14.756)" fill="#304c8e"/>
      <path id="Path_609570" data-name="Path 609570" d="M357.757,110.051a18.908,18.908,0,0,1,2.8-.211,5.832,5.832,0,0,1,4.126,1.27,4.692,4.692,0,0,1,1.435,3.657,5.388,5.388,0,0,1-1.465,3.96,6.276,6.276,0,0,1-4.5,1.465,21.291,21.291,0,0,1-2.387-.12Zm1.315,9.008a8.29,8.29,0,0,0,1.329.075c2.811,0,4.337-1.572,4.337-4.322.016-2.4-1.344-3.929-4.125-3.929a7.425,7.425,0,0,0-1.542.136Z" transform="translate(-48.106 -14.77)" fill="#304c8e"/>
      <path id="Path_609571" data-name="Path 609571" d="M148.915,63l.341-6.486s-2.731-5.8-20.48-8.192-25.9,10.782-27.65,18.092c-2.048,8.534.683,18.092,3.414,21.505s15.02,3.072,15.02,3.072Z" transform="translate(-13.502 -6.459)" fill="#2c2c2c"/>
      <path id="Path_609572" data-name="Path 609572" d="M178.576,210.363c-1.97-7.551,2.044-14.142,7.854-18.557-2.17.022-4.805-.061-4.805-.061S170.757,155.9,160.517,142.59s-33.908-17.978-33.908-17.978,24.294,76.35,26.342,79.421,11.776,18.946,26.626,15.873a48.468,48.468,0,0,0,5.385-1.515C181.813,216.481,179.3,213.487,178.576,210.363Z" transform="translate(-17.025 -16.756)" fill="#304c8e"/>
      <path id="Path_609573" data-name="Path 609573" d="M220.169,197.622c-7.168,2.56-16.726,3.357-23.895,3.869-.5.035-1.15.054-1.851.061-5.809,4.416-9.823,11.006-7.853,18.557.721,3.125,3.237,6.119,6.385,8.03,13.771-4.612,35-17.138,37.683-19.82C233.71,205.246,228.6,194.61,220.169,197.622Z" transform="translate(-25.019 -26.502)" fill="#fff"/>
      <path id="Path_609574" data-name="Path 609574" d="M162.311,288.028H98.417a96.254,96.254,0,0,1-11.378-5.574c.006-.5.011-1,.012-1.509.022-7.654-.481-16.785-.455-22.932,0-.833.016-1.613.042-2.326.512-14.338,69.636,2.048,69.636,2.048l.591,2.967,4.033,20.243Z" transform="translate(-11.644 -33.59)" fill="#60cb28"/>
      <path id="Path_609575" data-name="Path 609575" d="M82.7,237.165s1.536,4.608,9.217,7.168,59.907,4.608,64.516-1.024-.512-18.945-.512-36.867,0-42.5-9.216-60.419-36.867-22.529-36.867-22.529-13.313,2.56-21.505,11.776-8.192,52.74-8.192,52.74l2.048,26.626S79.626,232.045,82.7,237.165Z" transform="translate(-10.776 -16.606)" fill="#304c8e"/>
      <path id="Path_609576" data-name="Path 609576" d="M151.28,277.959a26.913,26.913,0,0,1-2.893,6.676,29.834,29.834,0,0,1-5.949,7.084h-1.786l.035-.026a28,28,0,0,0,6.367-7.058,25.769,25.769,0,0,0,3.149-6.974.558.558,0,0,1,1.076.3Z" transform="translate(-18.913 -37.281)" fill="#152559"/>
      <path id="Path_609577" data-name="Path 609577" d="M96.616,280.326a.558.558,0,0,1-.25-1.057c6.726-3.363,5.852-9.594,5.843-9.656a.558.558,0,1,1,1.1-.171c.011.071,1,7.1-6.446,10.825A.557.557,0,0,1,96.616,280.326Z" transform="translate(-12.917 -36.168)" fill="#152559"/>
      <path id="Path_609578" data-name="Path 609578" d="M72.2,216.1c.844-6.751,7.617-12.316,14.024-12.993a23.967,23.967,0,0,1-3.684-2.326c-2.048-2.049,13.313-21.505,16.9-30.21s-3.073-23.041-9.217-26.113,6.657-17.409,6.657-17.409-15.873,6.656-22.017,12.8-22.529,53.763-22.529,62.98c0,6.5,1.024,16.324,19.8,21.18A36.987,36.987,0,0,1,72.2,216.1Z" transform="translate(-7.037 -17.083)" fill="#304c8e"/>
      <path id="Path_609579" data-name="Path 609579" d="M111.706,226.418s-15.147-7.412-22.43-11.5c-6.407.677-13.18,6.241-14.024,12.993a36.98,36.98,0,0,0-.066,7.909c7.83,2.024,18.743,3.187,33.959,2.886l5.12-5.633Z" transform="translate(-10.086 -28.899)" fill="#fff"/>
      <path id="Path_609580" data-name="Path 609580" d="M166.914,217.889q-.053-7.757-.169-15.516c-.042-2.585-.09-5.172-.164-7.753-.038-1.291-.081-2.582-.152-3.863s-.183-2.569-.3-3.855c-.469-5.143-1.08-10.279-1.872-15.387-.4-2.553-.845-5.1-1.388-7.627a51.865,51.865,0,0,0-2.083-7.463,52.116,52.116,0,0,1,2.307,7.412c.619,2.515,1.141,5.054,1.617,7.6.945,5.1,1.709,10.222,2.332,15.369.152,1.288.3,2.576.415,3.874s.194,2.593.271,3.888c.153,2.587.28,5.173.4,7.76q.36,7.76.642,15.52a.93.93,0,1,1-1.858.069C166.914,217.911,166.914,217.9,166.914,217.889Z" transform="translate(-21.621 -21.034)" fill="#711d25"/>
      <path id="Path_609581" data-name="Path 609581" d="M188.553,202.228c-1.089.624-2.112,1.164-3.1,1.758a29.853,29.853,0,0,0-2.949,1.775,13.039,13.039,0,0,0-2.461,2.465,12.359,12.359,0,0,0-1.006,1.463,6.824,6.824,0,0,0-.424.788l-.412.8a.075.075,0,0,1-.141-.048,14.173,14.173,0,0,1,1.363-3.418,13.459,13.459,0,0,1,1.03-1.563c.188-.252.409-.474.615-.714l.315-.352.343-.325c.448-.447.929-.857,1.423-1.263.258-.183.522-.363.793-.531s.568-.286.856-.418c.3-.117.6-.216.9-.313a9.277,9.277,0,0,1,.929-.209,5.913,5.913,0,0,1,1.907-.048.078.078,0,0,1,.027.145Z" transform="translate(-23.943 -27.165)" fill="#d13920"/>
      <path id="Path_609582" data-name="Path 609582" d="M89.136,214.2a16.461,16.461,0,0,0-2.074-.978c-.344-.146-.7-.266-1.05-.4l-1.061-.349c-.359-.1-.716-.206-1.067-.326-.361-.1-.718-.2-1.075-.32a17.972,17.972,0,0,0-2.2-.527,32.642,32.642,0,0,0-4.567-.42c-.77,0-1.543,0-2.318.015q-1.158.079-2.325.139a.075.075,0,0,1-.082-.07.074.074,0,0,1,.059-.077q1.146-.234,2.3-.448c.775-.106,1.554-.209,2.337-.3l1.18-.07c.394-.023.789-.054,1.185-.043l1.189.016c.4,0,.793.054,1.19.079s.8.05,1.194.113.8.088,1.2.161.79.17,1.182.271c.386.126.766.27,1.144.416.368.177.736.351,1.091.55a10.221,10.221,0,0,1,1.02.68,5.992,5.992,0,0,1,1.664,1.786.076.076,0,0,1-.028.1.074.074,0,0,1-.075,0Z" transform="translate(-9.589 -28.242)" fill="#711d25"/>
      <path id="Path_609583" data-name="Path 609583" d="M85.457,204.136l13.552-19.783,1.693-2.472c.557-.832,1.157-1.622,1.709-2.449a53.023,53.023,0,0,0,3.1-5.089,33.358,33.358,0,0,0,2.348-5.47,17.432,17.432,0,0,0,.912-5.874,17.567,17.567,0,0,1-.689,5.939,33.741,33.741,0,0,1-2.156,5.614,53.533,53.533,0,0,1-2.926,5.262c-.525.855-1.1,1.68-1.623,2.529l-1.6,2.536-12.76,20.273a.93.93,0,1,1-1.578-.985Z" transform="translate(-11.469 -21.918)" fill="#711d25"/>
      <path id="Path_609584" data-name="Path 609584" d="M121.05,147.84s8.7-7.36,10.4-7.49c0,0,6.535-.01,10.986,3.261,0,0,.833.2.787-.4s-6.13-15.705-9.367-19.37a34.437,34.437,0,0,0-6.974-5.946L116.8,115.7s-3.794.248-6.159,2.311a63.428,63.428,0,0,0-5.78,6.31,39.383,39.383,0,0,0,14.317,23.432S119.834,148.722,121.05,147.84Z" transform="translate(-14.1 -15.558)" fill="#ffe126"/>
      <path id="Path_609585" data-name="Path 609585" d="M130.649,136.311s3.433-5.713,1.265-11.84l2.423-14.3L124.52,97.685l-10.041-.193L110.617,116.9S112.283,133.612,130.649,136.311Z" transform="translate(-14.874 -13.109)" fill="#b65633"/>
      <path id="Path_609586" data-name="Path 609586" d="M114.877,97.491l-1.3,6.536c3.5,7.992,11.506,13.806,19.528,15.766l1.63-9.618-9.817-12.491Z" transform="translate(-15.272 -13.109)" fill="#943a25"/>
      <path id="Path_609587" data-name="Path 609587" d="M155.645,92.254a7.052,7.052,0,0,1-2.873-6.774c.016-.394.032-.789.046-1.189C153.3,69.926,146.229,58.7,134.2,59.625s-26.046,13.7-24.939,28.028,16.583,24.357,28.611,23.429c8.532-.658,12.229-6.46,13.835-15.03a5.869,5.869,0,0,0,3.921-1C157.41,93.983,155.645,92.254,155.645,92.254Z" transform="translate(-14.684 -8.01)" fill="#b65633"/>
      <path id="Path_609588" data-name="Path 609588" d="M149.549,89.33a1.457,1.457,0,0,1-1.419-1.486l.047-1.975a1.452,1.452,0,1,1,2.9.068l-.047,1.975A1.456,1.456,0,0,1,149.549,89.33Z" transform="translate(-19.918 -11.356)" fill="#1a1a1a"/>
      <path id="Path_609589" data-name="Path 609589" d="M113.368,101.071c2.861-1.278,3.689-5.65,1.85-9.764s-5.648-6.413-8.509-5.135-3.689,5.65-1.85,9.765S110.508,102.351,113.368,101.071Z" transform="translate(-13.968 -11.54)" fill="#a34529"/>
      <path id="Path_609590" data-name="Path 609590" d="M111.521,96.905a.555.555,0,0,1-.467-.252l-2.906-4.437a.558.558,0,1,1,.933-.612l2.906,4.437a.558.558,0,0,1-.467.864Z" transform="translate(-14.53 -12.284)" fill="#7b281a"/>
      <path id="Path_609591" data-name="Path 609591" d="M145.106,105.526c-1.011.847,1.3,2.742,3.061,3.415a11.385,11.385,0,0,0,5.519.73,22.713,22.713,0,0,0,1.337-3.337c-1.256-.11-2.524-.194-3.775-.365C148.059,105.532,146.128,104.671,145.106,105.526Z" transform="translate(-19.479 -14.141)" fill="#6f1103"/>
      <path id="Path_609592" data-name="Path 609592" d="M145.131,105.562a.256.256,0,0,1-.025.017c-1.011.847,1.3,2.742,3.061,3.415a11.955,11.955,0,0,0,2.859.721C150.181,108.179,149.125,106.571,145.131,105.562Z" transform="translate(-19.479 -14.195)" fill="#304c8e"/>
      <path id="Path_609593" data-name="Path 609593" d="M107.22,78.808l1.827,2.539s3.823-.3,4.876,2.77,1.347,3.858,2.327,4.482c1.213.771,3.969-.315,4.732-.6,1.587-.589,1.646-.856.979-3.921-.723-3.324-2.453-9.133-1.126-13.081s5.648-5.33,6.718-5.063,16.914,6.269,23.356,2.159c2.147-1.37,2.478-3.614,1.964-6a12.267,12.267,0,0,0-13.024-9.489l-10.812.861-14.016,7.141Z" transform="translate(-14.418 -7.069)" fill="#2c2c2c"/>
      <path id="Path_609594" data-name="Path 609594" d="M143.427,82.809a.744.744,0,0,1-.519-1.276c.043-.042,4.361-4.151,9.536-1.25a.744.744,0,0,1-.728,1.3c-4.194-2.351-7.627.881-7.772,1.02A.743.743,0,0,1,143.427,82.809Z" transform="translate(-19.186 -10.656)"/>
      <path id="Path_609595" data-name="Path 609595" d="M155,105.906c-.3-.027-.6-.051-.894-.075-.943-.078-1.918-.159-2.864-.288-.966-.132-1.816-.306-2.566-.456-1.751-.354-3.018-.611-3.864.1a1.026,1.026,0,0,0-.364.987c.2,1.193,2.179,2.543,3.53,3.061a11.867,11.867,0,0,0,4.314.83,12.469,12.469,0,0,0,1.38-.078l.2-.023.091-.18a23.218,23.218,0,0,0,1.36-3.391l.14-.442Zm-4.256,3.3a11.643,11.643,0,0,1-2.5-.666c-1.426-.546-2.941-1.778-3.061-2.488a.279.279,0,0,1,.108-.294.993.993,0,0,1,.287-.169,1.865,1.865,0,0,1,.692-.11,12.866,12.866,0,0,1,2.259.34c.761.154,1.624.328,2.613.464.966.132,1.951.214,2.9.293l.424.036a22.386,22.386,0,0,1-1.08,2.657A10.817,10.817,0,0,1,150.741,109.2Z" transform="translate(-19.421 -14.083)" fill="#7b281a"/>
      <path id="Path_609596" data-name="Path 609596" d="M230.1,201.181l-4-3.577s3.157-6.735,9.25-7.425c4.007-.454,10.386-.221,13.038-1.1s5.618-2.3,7.386-.1-1.683,4.209-5.05,5.893c-2.377,1.188-8.964,5.893-8.964,5.893Z" transform="translate(-30.403 -25.253)" fill="#943a25"/>
      <path id="Path_609597" data-name="Path 609597" d="M224.154,200.419s.827-5.682,8.485-6.1,11.185,2.1,16.98.841a58.518,58.518,0,0,0,12.821-4.63c1.655-.841,4.76-.841,4.966.632,0,0,3.071-1.263,4.52-.632s2.708,2.526,1.052,5.051-14.107,8.931-18.2,10.733c-6.208,2.736-12,2.1-20.695,2.526C227.154,209.173,224.154,200.419,224.154,200.419Z" transform="translate(-30.141 -25.543)" fill="#b65633"/>
      <path id="Path_609598" data-name="Path 609598" d="M256.405,202.227a.558.558,0,0,1-.212-1.074c3.254-1.336,11.99-5.058,13.314-6.217a6.468,6.468,0,0,0,1.927-3.07.558.558,0,0,1,1.089.244,7.493,7.493,0,0,1-2.281,3.666c-1.7,1.49-12.409,5.91-13.624,6.409A.554.554,0,0,1,256.405,202.227Z" transform="translate(-34.403 -25.741)" fill="#7b281a"/>
      <path id="Path_609599" data-name="Path 609599" d="M190.38,233.4H138.065a2.524,2.524,0,0,1-2.516-2.517v-37.7a2.524,2.524,0,0,1,2.516-2.517H190.38a2.524,2.524,0,0,1,2.516,2.517v37.7A2.524,2.524,0,0,1,190.38,233.4Z" transform="translate(-18.227 -25.638)" fill="#ffe126"/>
      <path id="Path_609600" data-name="Path 609600" d="M185.2,226.187H145.691a1.048,1.048,0,0,1-1.048-1.048V200.811a1.049,1.049,0,0,1,1.048-1.049H185.2a1.049,1.049,0,0,1,1.048,1.049v24.328A1.048,1.048,0,0,1,185.2,226.187Z" transform="translate(-19.45 -26.861)" fill="#304c8e"/>
      <path id="Path_609601" data-name="Path 609601" d="M165.409,217.1l-21.2-12.317.748-1.287,20.407,11.859,22.1-14.369.811,1.247Z" transform="translate(-19.392 -27.026)" fill="#ffe126"/>
      <path id="Path_609602" data-name="Path 609602" d="M119.716,220.572c-.026-.537,6.587-4.208,6.587-4.208s12.465-2.094,17.987.865c0,0,2.546.772,2.175,4.2,0,0,3.236.2,3.357,2.7.114,2.352-2.9,3.009-2.9,3.009s3.724,2.867-.294,5.033l-2.289.828s2.711,2.063-1.019,4.438c-5.241,3.337-15.853,2.475-15.853,2.475Z" transform="translate(-16.098 -28.997)" fill="#fff"/>
      <path id="Path_609603" data-name="Path 609603" d="M124.322,216.475c-1.5-.159-6.984,2.316-9.849,3.471-4.043,1.63-7.72,3.421-8.942,7.783s-1.089,10.807,7.913,11.625c7.534.684,11.338.927,15.776.244C135.739,239.35,130.174,218.466,124.322,216.475Z" transform="translate(-14.117 -29.108)" fill="#b65633"/>
      <path id="Path_609604" data-name="Path 609604" d="M132.528,222.906a.558.558,0,0,1-.052-1.113c3.893-.367,14.927-.9,15.038-.91a.558.558,0,0,1,.054,1.115c-.11.005-11.119.541-14.987.905Z" transform="translate(-17.746 -29.701)" fill="#7b281a"/>
      <path id="Path_609605" data-name="Path 609605" d="M133.962,231.046a.558.558,0,0,1-.055-1.113l13.735-1.383a.558.558,0,0,1,.112,1.11l-13.735,1.383Z" transform="translate(-17.939 -30.732)" fill="#7b281a"/>
      <path id="Path_609606" data-name="Path 609606" d="M133.487,238.327a.558.558,0,0,1-.059-1.112l12.3-1.314a.558.558,0,1,1,.119,1.109l-12.3,1.314A.458.458,0,0,1,133.487,238.327Z" transform="translate(-17.875 -31.72)" fill="#7b281a"/>
      <path id="Path_609607" data-name="Path 609607" d="M368.107,203.375A18.677,18.677,0,1,0,349.43,184.7,18.677,18.677,0,0,0,368.107,203.375Z" transform="translate(-46.987 -22.324)" fill="#eebd42"/>
      <path id="Path_609608" data-name="Path 609608" d="M376.39,189.1a4.186,4.186,0,0,1-1.453,3.276,7.4,7.4,0,0,1-4.194,1.59v2.974H368.92v-2.892a14.146,14.146,0,0,1-5.578-1.042v-2.892a13.845,13.845,0,0,0,2.755.966,12.457,12.457,0,0,0,2.823.405v-5.127l-1.151-.425a8.1,8.1,0,0,1-3.283-2.063,4.382,4.382,0,0,1-1.034-2.967,3.863,3.863,0,0,1,1.473-3.112,7.292,7.292,0,0,1,4-1.48v-2.3h1.823v2.261a15.1,15.1,0,0,1,5.276,1.124l-1,2.508a14.692,14.692,0,0,0-4.276-1.014v4.989l1.041.4a9.524,9.524,0,0,1,3.6,2.111A3.909,3.909,0,0,1,376.39,189.1Zm-9.717-8.223a1.835,1.835,0,0,0,.486,1.3,4.985,4.985,0,0,0,1.761,1.027v-4.262a3.2,3.2,0,0,0-1.672.671A1.612,1.612,0,0,0,366.673,180.881Zm6.483,8.429A1.7,1.7,0,0,0,372.6,188a5.692,5.692,0,0,0-1.857-.994v4.372Q373.155,191.01,373.155,189.311Z" transform="translate(-48.857 -23.399)" fill="#ffe126"/>
      <path id="Path_609609" data-name="Path 609609" d="M252.988,169.027a18.677,18.677,0,1,0-18.677-18.676A18.677,18.677,0,0,0,252.988,169.027Z" transform="translate(-31.507 -17.706)" fill="#eebd42"/>
      <path id="Path_609610" data-name="Path 609610" d="M261.271,154.758a4.185,4.185,0,0,1-1.453,3.275,7.4,7.4,0,0,1-4.194,1.59V162.6H253.8V159.7a14.152,14.152,0,0,1-5.578-1.041v-2.893a13.915,13.915,0,0,0,2.755.967,12.464,12.464,0,0,0,2.823.4v-5.127l-1.151-.424a8.1,8.1,0,0,1-3.282-2.063,4.378,4.378,0,0,1-1.035-2.967,3.865,3.865,0,0,1,1.473-3.112,7.308,7.308,0,0,1,4-1.48v-2.3h1.823v2.262a15.1,15.1,0,0,1,5.277,1.123l-1,2.508a14.689,14.689,0,0,0-4.277-1.014v4.989l1.042.4a9.513,9.513,0,0,1,3.6,2.11A3.91,3.91,0,0,1,261.271,154.758Zm-9.718-8.224a1.838,1.838,0,0,0,.486,1.3,5,5,0,0,0,1.761,1.027V144.6a3.2,3.2,0,0,0-1.672.672A1.612,1.612,0,0,0,251.553,146.533Zm6.483,8.429a1.7,1.7,0,0,0-.555-1.309,5.715,5.715,0,0,0-1.857-.994v4.372Q258.037,156.662,258.035,154.963Z" transform="translate(-33.378 -18.781)" fill="#ffe126"/>
      <path id="Path_609611" data-name="Path 609611" d="M58.3,136.44A20.445,20.445,0,1,0,37.854,116,20.445,20.445,0,0,0,58.3,136.44Z" transform="translate(-5.09 -12.848)" fill="#eebd42"/>
      <path id="Path_609612" data-name="Path 609612" d="M67.365,120.82a4.582,4.582,0,0,1-1.59,3.586,8.1,8.1,0,0,1-4.591,1.741V129.4h-2v-3.165a15.488,15.488,0,0,1-6.106-1.14V121.93a15.19,15.19,0,0,0,3.016,1.058,13.619,13.619,0,0,0,3.091.443V117.82l-1.26-.466a8.873,8.873,0,0,1-3.593-2.257,4.8,4.8,0,0,1-1.133-3.248,4.229,4.229,0,0,1,1.613-3.406,7.983,7.983,0,0,1,4.373-1.62V104.3h2v2.475a16.546,16.546,0,0,1,5.776,1.23l-1.1,2.745a16.08,16.08,0,0,0-4.681-1.11V115.1l1.14.435a10.409,10.409,0,0,1,3.946,2.31A4.277,4.277,0,0,1,67.365,120.82Zm-10.637-9a2.009,2.009,0,0,0,.533,1.426,5.476,5.476,0,0,0,1.928,1.125V109.7a3.507,3.507,0,0,0-1.83.735A1.767,1.767,0,0,0,56.728,111.818Zm7.1,9.227a1.866,1.866,0,0,0-.608-1.432,6.267,6.267,0,0,0-2.033-1.088v4.786Q63.825,122.906,63.824,121.045Z" transform="translate(-7.138 -14.025)" fill="#ffe126"/>
      <path id="Path_609613" data-name="Path 609613" d="M250.742,242.03l44.169-41.845a.373.373,0,0,1,.527.014l5.408,5.709a.372.372,0,0,1-.014.526l-44.17,41.845a.372.372,0,0,1-.526-.014l-5.409-5.709A.372.372,0,0,1,250.742,242.03Z" transform="translate(-33.701 -26.905)" fill="#eebd42"/>
      <path id="Path_609614" data-name="Path 609614" d="M300.317,207.849a.459.459,0,0,1-.335-.145l-2.961-3.125a.461.461,0,0,1,.67-.634l2.96,3.125a.462.462,0,0,1-.334.779Z" transform="translate(-39.923 -27.405)" fill="#e6943c"/>
      <path id="Path_609615" data-name="Path 609615" d="M276.171,230.9a.458.458,0,0,1-.338-.148l-2.366-2.556a.461.461,0,0,1,.677-.627l2.366,2.556a.461.461,0,0,1-.338.775Z" transform="translate(-36.756 -30.581)" fill="#e6943c"/>
      <path id="Path_609616" data-name="Path 609616" d="M294.646,218.6a.457.457,0,0,1-.335-.145l-5.376-5.674a.461.461,0,1,1,.67-.634l5.375,5.674a.461.461,0,0,1-.334.778Z" transform="translate(-38.835 -28.507)" fill="#e6943c"/>
      <path id="Path_609617" data-name="Path 609617" d="M286.911,226.062a.461.461,0,0,1-.336-.145l-4.923-5.231a.461.461,0,1,1,.672-.633l4.923,5.232a.461.461,0,0,1-.336.777Z" transform="translate(-37.856 -29.57)" fill="#e6943c"/>
      <path id="Path_609618" data-name="Path 609618" d="M270.186,241.771a.457.457,0,0,1-.334-.145l-5.376-5.674a.461.461,0,1,1,.669-.634l5.376,5.674a.461.461,0,0,1-.335.779Z" transform="translate(-35.546 -31.623)" fill="#e6943c"/>
      <path id="Path_609619" data-name="Path 609619" d="M260.226,247.871a.458.458,0,0,1-.335-.144l-3.711-3.917a.461.461,0,1,1,.67-.634l3.71,3.916a.461.461,0,0,1-.334.778Z" transform="translate(-34.431 -32.68)" fill="#e6943c"/>
      <path id="Path_609620" data-name="Path 609620" d="M288.808,227.559l60.831-1.236a.373.373,0,0,1,.381.364l.159,7.863a.372.372,0,0,1-.364.38l-60.831,1.236a.372.372,0,0,1-.38-.364l-.16-7.863A.373.373,0,0,1,288.808,227.559Z" transform="translate(-38.786 -30.433)" fill="#eebd42"/>
      <path id="Path_609621" data-name="Path 609621" d="M353.157,231.251a.46.46,0,0,1-.46-.454l-.059-3.578a.461.461,0,0,1,.454-.468h.007a.461.461,0,0,1,.461.454l.058,3.577a.461.461,0,0,1-.454.469Z" transform="translate(-47.418 -30.49)" fill="#e6943c"/>
      <path id="Path_609622" data-name="Path 609622" d="M319.78,231.944a.461.461,0,0,1-.461-.457L319.288,228a.461.461,0,0,1,.923-.009l.031,3.484a.461.461,0,0,1-.458.465Z" transform="translate(-42.934 -30.596)" fill="#e6943c"/>
      <path id="Path_609623" data-name="Path 609623" d="M341.723,235.375a.462.462,0,0,1-.461-.451l-.163-7.166a.461.461,0,1,1,.922-.021l.163,7.166a.461.461,0,0,1-.45.472Z" transform="translate(-45.867 -30.563)" fill="#e6943c"/>
      <path id="Path_609624" data-name="Path 609624" d="M330.981,235.592a.462.462,0,0,1-.461-.454l-.121-7.182a.461.461,0,0,1,.453-.469h.009a.46.46,0,0,1,.46.454l.122,7.182a.462.462,0,0,1-.454.469Z" transform="translate(-44.428 -30.589)" fill="#e6943c"/>
      <path id="Path_609625" data-name="Path 609625" d="M308.05,236.521a.461.461,0,0,1-.46-.453l-.159-7.814a.461.461,0,0,1,.923-.019l.158,7.815a.46.46,0,0,1-.451.47Z" transform="translate(-41.339 -30.629)" fill="#e6943c"/>
      <path id="Path_609626" data-name="Path 609626" d="M296.568,233.838a.46.46,0,0,1-.461-.453l-.089-4.958a.461.461,0,1,1,.922-.016l.089,4.958a.461.461,0,0,1-.453.469Z" transform="translate(-39.805 -30.653)" fill="#e6943c"/>
      <path id="Path_609627" data-name="Path 609627" d="M285.32,237.488l60.831-1.236a.372.372,0,0,1,.38.364l.16,7.863a.373.373,0,0,1-.365.38L285.5,246.095a.372.372,0,0,1-.38-.365l-.16-7.862A.372.372,0,0,1,285.32,237.488Z" transform="translate(-38.317 -31.768)" fill="#eebd42"/>
      <path id="Path_609628" data-name="Path 609628" d="M349.665,241.067a.462.462,0,0,1-.461-.452l-.087-4.3a.461.461,0,1,1,.923-.019l.087,4.3a.461.461,0,0,1-.452.47Z" transform="translate(-46.945 -31.713)" fill="#e6943c"/>
      <path id="Path_609629" data-name="Path 609629" d="M316.292,241.873a.461.461,0,0,1-.461-.457l-.03-3.484a.461.461,0,0,1,.923-.008l.03,3.483a.461.461,0,0,1-.457.466Z" transform="translate(-42.465 -31.931)" fill="#e6943c"/>
      <path id="Path_609630" data-name="Path 609630" d="M338.236,245.2a.462.462,0,0,1-.461-.452l-.158-7.815a.461.461,0,1,1,.922-.019l.159,7.815a.462.462,0,0,1-.452.471Z" transform="translate(-45.398 -31.797)" fill="#e6943c"/>
      <path id="Path_609631" data-name="Path 609631" d="M327.492,245.52a.461.461,0,0,1-.46-.454l-.122-7.182a.462.462,0,0,1,.454-.469h.008a.462.462,0,0,1,.461.454l.121,7.182a.461.461,0,0,1-.454.469Z" transform="translate(-43.958 -31.924)" fill="#e6943c"/>
      <path id="Path_609632" data-name="Path 609632" d="M304.551,245.888a.461.461,0,0,1-.461-.452l-.158-7.815a.46.46,0,0,1,.451-.47.465.465,0,0,1,.471.452l.158,7.814a.461.461,0,0,1-.451.471Z" transform="translate(-40.869 -31.889)" fill="#e6943c"/>
      <path id="Path_609633" data-name="Path 609633" d="M293.076,243.7a.461.461,0,0,1-.461-.452l-.109-5.393a.461.461,0,1,1,.922-.019l.11,5.393a.461.461,0,0,1-.452.471Z" transform="translate(-39.332 -31.92)" fill="#e6943c"/>
      <path id="Path_609634" data-name="Path 609634" d="M292.162,246.477l60.831-1.236a.373.373,0,0,1,.38.364l.159,7.862a.372.372,0,0,1-.364.38l-60.831,1.236a.373.373,0,0,1-.38-.365l-.159-7.862A.372.372,0,0,1,292.162,246.477Z" transform="translate(-39.237 -32.977)" fill="#eebd42"/>
      <path id="Path_609635" data-name="Path 609635" d="M356.508,250.056a.461.461,0,0,1-.461-.452l-.087-4.3a.461.461,0,1,1,.923-.019l.087,4.3a.462.462,0,0,1-.452.471Z" transform="translate(-47.865 -32.921)" fill="#e6943c"/>
      <path id="Path_609636" data-name="Path 609636" d="M323.135,250.863a.462.462,0,0,1-.461-.457l-.03-3.484a.46.46,0,0,1,.457-.465h0a.46.46,0,0,1,.46.457l.031,3.483a.462.462,0,0,1-.457.466Z" transform="translate(-43.385 -33.14)" fill="#e6943c"/>
      <path id="Path_609637" data-name="Path 609637" d="M345.079,254.193a.462.462,0,0,1-.461-.452l-.158-7.815a.461.461,0,1,1,.922-.019l.159,7.815a.461.461,0,0,1-.452.47Z" transform="translate(-46.318 -33.006)" fill="#e6943c"/>
      <path id="Path_609638" data-name="Path 609638" d="M334.335,254.51a.462.462,0,0,1-.461-.454l-.121-7.182a.461.461,0,0,1,.454-.469h.008a.462.462,0,0,1,.461.454l.121,7.182a.462.462,0,0,1-.454.469Z" transform="translate(-44.879 -33.133)" fill="#e6943c"/>
      <path id="Path_609639" data-name="Path 609639" d="M311.393,254.878a.461.461,0,0,1-.46-.452l-.159-7.815a.461.461,0,0,1,.923-.018l.158,7.814a.461.461,0,0,1-.452.471Z" transform="translate(-41.789 -33.098)" fill="#e6943c"/>
      <path id="Path_609640" data-name="Path 609640" d="M299.919,252.689a.462.462,0,0,1-.461-.452l-.109-5.394a.461.461,0,1,1,.922-.018l.11,5.393a.462.462,0,0,1-.452.471Z" transform="translate(-40.253 -33.129)" fill="#e6943c"/>
      <path id="Path_609641" data-name="Path 609641" d="M250.167,258.016,311,256.78a.372.372,0,0,1,.38.364l.16,7.863a.373.373,0,0,1-.365.38l-60.83,1.236a.372.372,0,0,1-.38-.365l-.16-7.862A.373.373,0,0,1,250.167,258.016Z" transform="translate(-33.59 -34.528)" fill="#eebd42"/>
      <path id="Path_609642" data-name="Path 609642" d="M314.512,261.6a.462.462,0,0,1-.461-.452l-.087-4.3a.462.462,0,0,1,.452-.471h.01a.462.462,0,0,1,.461.452l.087,4.3a.462.462,0,0,1-.452.471Z" transform="translate(-42.218 -34.473)" fill="#e6943c"/>
      <path id="Path_609643" data-name="Path 609643" d="M281.139,262.4a.46.46,0,0,1-.46-.457l-.031-3.483a.462.462,0,0,1,.457-.466h0a.462.462,0,0,1,.461.457l.03,3.484a.46.46,0,0,1-.457.465Z" transform="translate(-37.738 -34.692)" fill="#e6943c"/>
      <path id="Path_609644" data-name="Path 609644" d="M303.083,265.732a.462.462,0,0,1-.461-.452l-.158-7.815a.461.461,0,0,1,.922-.018l.159,7.814a.461.461,0,0,1-.452.471Z" transform="translate(-40.671 -34.557)" fill="#e6943c"/>
      <path id="Path_609645" data-name="Path 609645" d="M292.339,266.048a.46.46,0,0,1-.46-.453l-.122-7.183a.462.462,0,0,1,.454-.469h.008a.462.462,0,0,1,.461.454l.121,7.182a.461.461,0,0,1-.454.469Z" transform="translate(-39.232 -34.685)" fill="#e6943c"/>
      <path id="Path_609646" data-name="Path 609646" d="M269.4,266.551a.461.461,0,0,1-.461-.45l-.156-6.946a.461.461,0,1,1,.923-.021l.155,6.946a.46.46,0,0,1-.45.471Z" transform="translate(-36.142 -34.784)" fill="#e6943c"/>
      <path id="Path_609647" data-name="Path 609647" d="M257.923,264.227a.461.461,0,0,1-.461-.452l-.109-5.393a.461.461,0,1,1,.922-.019l.11,5.394a.461.461,0,0,1-.452.47Z" transform="translate(-34.605 -34.68)" fill="#e6943c"/>
      <path id="Path_609648" data-name="Path 609648" d="M250.167,267.408,311,266.172a.372.372,0,0,1,.38.364l.16,7.863a.373.373,0,0,1-.365.38l-60.83,1.236a.372.372,0,0,1-.38-.364l-.16-7.863A.372.372,0,0,1,250.167,267.408Z" transform="translate(-33.59 -35.791)" fill="#eebd42"/>
      <path id="Path_609649" data-name="Path 609649" d="M314.512,270.987a.462.462,0,0,1-.461-.452l-.087-4.3a.461.461,0,0,1,.923-.018l.087,4.3a.461.461,0,0,1-.452.47Z" transform="translate(-42.218 -35.736)" fill="#e6943c"/>
      <path id="Path_609650" data-name="Path 609650" d="M281.139,271.792a.46.46,0,0,1-.46-.457l-.031-3.483a.462.462,0,0,1,.457-.466h0a.462.462,0,0,1,.461.457l.03,3.484a.46.46,0,0,1-.457.465Z" transform="translate(-37.738 -35.955)" fill="#e6943c"/>
      <path id="Path_609651" data-name="Path 609651" d="M303.083,275.124a.462.462,0,0,1-.461-.452l-.158-7.815a.461.461,0,0,1,.922-.018l.159,7.814a.462.462,0,0,1-.452.471Z" transform="translate(-40.671 -35.82)" fill="#e6943c"/>
      <path id="Path_609652" data-name="Path 609652" d="M292.339,275.441a.461.461,0,0,1-.46-.454l-.122-7.182a.462.462,0,0,1,.454-.469h.008a.462.462,0,0,1,.461.453l.121,7.182a.461.461,0,0,1-.454.469Z" transform="translate(-39.232 -35.948)" fill="#e6943c"/>
      <path id="Path_609653" data-name="Path 609653" d="M269.4,275.809a.461.461,0,0,1-.461-.452l-.158-7.815a.461.461,0,1,1,.922-.019l.159,7.815a.462.462,0,0,1-.452.47Z" transform="translate(-36.142 -35.912)" fill="#e6943c"/>
      <path id="Path_609654" data-name="Path 609654" d="M257.923,273.62a.462.462,0,0,1-.461-.452l-.109-5.394a.461.461,0,0,1,.922-.019l.11,5.394a.461.461,0,0,1-.452.47Z" transform="translate(-34.605 -35.943)" fill="#e6943c"/>
      <path id="Path_609655" data-name="Path 609655" d="M248.288,276.934,309.12,275.7a.373.373,0,0,1,.38.364l.159,7.862a.372.372,0,0,1-.364.38l-60.831,1.236a.373.373,0,0,1-.38-.364l-.159-7.863A.372.372,0,0,1,248.288,276.934Z" transform="translate(-33.337 -37.072)" fill="#eebd42"/>
      <path id="Path_609656" data-name="Path 609656" d="M312.633,280.513a.461.461,0,0,1-.46-.452l-.087-4.3a.462.462,0,0,1,.452-.471h.009a.461.461,0,0,1,.461.452l.087,4.3a.461.461,0,0,1-.451.471Z" transform="translate(-41.965 -37.017)" fill="#e6943c"/>
      <path id="Path_609657" data-name="Path 609657" d="M279.261,281.319a.461.461,0,0,1-.461-.457l-.03-3.483a.461.461,0,0,1,.457-.466h0a.46.46,0,0,1,.461.457l.031,3.484a.461.461,0,0,1-.457.465Z" transform="translate(-37.485 -37.236)" fill="#e6943c"/>
      <path id="Path_609658" data-name="Path 609658" d="M301.2,284.651a.461.461,0,0,1-.461-.452l-.158-7.815a.461.461,0,1,1,.922-.019l.159,7.815a.461.461,0,0,1-.452.47Z" transform="translate(-40.419 -37.101)" fill="#e6943c"/>
      <path id="Path_609659" data-name="Path 609659" d="M290.461,284.967a.462.462,0,0,1-.461-.454l-.121-7.182a.461.461,0,0,1,.454-.469h.008a.46.46,0,0,1,.46.454l.122,7.182a.462.462,0,0,1-.453.469Z" transform="translate(-38.979 -37.229)" fill="#e6943c"/>
      <path id="Path_609660" data-name="Path 609660" d="M267.519,285.334a.461.461,0,0,1-.46-.452l-.159-7.815a.461.461,0,1,1,.923-.019l.158,7.815a.462.462,0,0,1-.452.471Z" transform="translate(-35.889 -37.193)" fill="#e6943c"/>
      <path id="Path_609661" data-name="Path 609661" d="M256.044,283.146a.461.461,0,0,1-.461-.452l-.11-5.394a.461.461,0,0,1,.923-.018l.109,5.393a.461.461,0,0,1-.451.471Z" transform="translate(-34.353 -37.224)" fill="#e6943c"/>
      <path id="Path_609662" data-name="Path 609662" d="M290.955,275.056l60.831-1.237a.373.373,0,0,1,.38.365l.181,8.872a.373.373,0,0,1-.365.38l-60.831,1.236a.372.372,0,0,1-.38-.364l-.181-8.873A.372.372,0,0,1,290.955,275.056Z" transform="translate(-39.075 -36.819)" fill="#eebd42"/>
      <path id="Path_609663" data-name="Path 609663" d="M355.31,279.14a.462.462,0,0,1-.461-.452l-.1-4.809a.461.461,0,0,1,.923-.018l.1,4.808a.462.462,0,0,1-.452.471Z" transform="translate(-47.702 -36.764)" fill="#e6943c"/>
      <path id="Path_609664" data-name="Path 609664" d="M321.937,279.96a.461.461,0,0,1-.46-.456l-.04-3.892a.462.462,0,0,1,.457-.466h0a.461.461,0,0,1,.461.456l.039,3.892a.461.461,0,0,1-.456.466Z" transform="translate(-43.223 -36.998)" fill="#e6943c"/>
      <path id="Path_609665" data-name="Path 609665" d="M343.891,283.734a.461.461,0,0,1-.461-.452l-.177-8.732a.461.461,0,0,1,.923-.018l.177,8.731a.461.461,0,0,1-.452.471Z" transform="translate(-46.156 -36.855)" fill="#e6943c"/>
      <path id="Path_609666" data-name="Path 609666" d="M333.148,284.062a.461.461,0,0,1-.461-.453l-.138-8.025a.461.461,0,0,1,.923-.016l.138,8.024a.461.461,0,0,1-.453.469Z" transform="translate(-44.717 -36.994)" fill="#e6943c"/>
      <path id="Path_609667" data-name="Path 609667" d="M310.2,284.419a.461.461,0,0,1-.46-.452l-.177-8.732a.461.461,0,1,1,.922-.019l.177,8.732a.462.462,0,0,1-.452.471Z" transform="translate(-41.626 -36.947)" fill="#e6943c"/>
      <path id="Path_609668" data-name="Path 609668" d="M298.725,281.945a.461.461,0,0,1-.461-.452l-.122-6.026a.461.461,0,1,1,.922-.019l.123,6.027a.461.461,0,0,1-.452.47Z" transform="translate(-40.09 -36.978)" fill="#e6943c"/>
      <path id="Path_609669" data-name="Path 609669" d="M290.946,264.98l60.831-1.236a.373.373,0,0,1,.38.365l.167,8.221a.373.373,0,0,1-.365.381l-60.831,1.236a.373.373,0,0,1-.38-.365l-.167-8.222A.373.373,0,0,1,290.946,264.98Z" transform="translate(-39.074 -35.465)" fill="#eebd42"/>
      <path id="Path_609670" data-name="Path 609670" d="M355.3,268.739a.462.462,0,0,1-.461-.452l-.091-4.483a.461.461,0,0,1,.923-.019l.091,4.483a.462.462,0,0,1-.452.471Z" transform="translate(-47.701 -35.41)" fill="#e6943c"/>
      <path id="Path_609671" data-name="Path 609671" d="M321.922,269.55a.46.46,0,0,1-.46-.457l-.034-3.628a.461.461,0,0,1,.456-.466h.005a.461.461,0,0,1,.46.457l.034,3.628a.461.461,0,0,1-.457.466Z" transform="translate(-43.221 -35.634)" fill="#e6943c"/>
      <path id="Path_609672" data-name="Path 609672" d="M343.87,273.039a.462.462,0,0,1-.461-.452l-.165-8.141a.461.461,0,0,1,.923-.019l.165,8.141a.462.462,0,0,1-.452.471Z" transform="translate(-46.155 -35.496)" fill="#e6943c"/>
      <path id="Path_609673" data-name="Path 609673" d="M333.127,273.359a.462.462,0,0,1-.461-.454l-.127-7.482a.461.461,0,0,1,.454-.468H333a.461.461,0,0,1,.461.453l.127,7.483a.461.461,0,0,1-.454.469Z" transform="translate(-44.715 -35.628)" fill="#e6943c"/>
      <path id="Path_609674" data-name="Path 609674" d="M310.184,273.723a.461.461,0,0,1-.46-.452l-.165-8.14a.461.461,0,1,1,.922-.019l.165,8.14a.461.461,0,0,1-.452.471Z" transform="translate(-41.625 -35.588)" fill="#e6943c"/>
      <path id="Path_609675" data-name="Path 609675" d="M298.708,271.434a.461.461,0,0,1-.461-.453l-.114-5.618a.461.461,0,1,1,.922-.019l.114,5.619a.461.461,0,0,1-.452.47Z" transform="translate(-40.089 -35.619)" fill="#e6943c"/>
      <path id="Path_609676" data-name="Path 609676" d="M290.016,255.2l60.831-1.236a.372.372,0,0,1,.38.365l.159,7.862a.372.372,0,0,1-.364.38L290.19,263.8a.373.373,0,0,1-.38-.364l-.159-7.863A.373.373,0,0,1,290.016,255.2Z" transform="translate(-38.948 -34.149)" fill="#eebd42"/>
      <path id="Path_609677" data-name="Path 609677" d="M354.361,258.777a.462.462,0,0,1-.461-.452l-.087-4.3a.461.461,0,1,1,.923-.019l.087,4.3a.462.462,0,0,1-.452.471Z" transform="translate(-47.576 -34.094)" fill="#e6943c"/>
      <path id="Path_609678" data-name="Path 609678" d="M320.988,259.582a.46.46,0,0,1-.46-.457l-.031-3.483a.462.462,0,0,1,.457-.466h0a.462.462,0,0,1,.461.457l.03,3.484a.46.46,0,0,1-.457.465Z" transform="translate(-43.096 -34.313)" fill="#e6943c"/>
      <path id="Path_609679" data-name="Path 609679" d="M342.932,262.915a.462.462,0,0,1-.461-.452l-.158-7.815a.462.462,0,0,1,.452-.471h.01a.461.461,0,0,1,.46.452l.159,7.815a.462.462,0,0,1-.452.471Z" transform="translate(-46.03 -34.178)" fill="#e6943c"/>
      <path id="Path_609680" data-name="Path 609680" d="M332.188,263.231a.461.461,0,0,1-.46-.454l-.122-7.182a.462.462,0,0,1,.454-.469h.008a.462.462,0,0,1,.461.453l.121,7.182a.461.461,0,0,1-.454.469Z" transform="translate(-44.59 -34.306)" fill="#e6943c"/>
      <path id="Path_609681" data-name="Path 609681" d="M309.247,263.6a.461.461,0,0,1-.461-.452l-.158-7.814a.461.461,0,1,1,.922-.019l.158,7.815a.46.46,0,0,1-.451.47Z" transform="translate(-41.5 -34.27)" fill="#e6943c"/>
      <path id="Path_609682" data-name="Path 609682" d="M297.772,261.41a.462.462,0,0,1-.461-.452l-.109-5.393a.461.461,0,1,1,.922-.019l.11,5.393a.462.462,0,0,1-.452.471Z" transform="translate(-39.964 -34.302)" fill="#e6943c"/>
      <path id="Path_609683" data-name="Path 609683" d="M272.212,263.876l1.621-7.6,1.743,7.534,4.614,1.621-4.548,1.743-1.621,7.6-1.743-7.534-4.613-1.621Z" transform="translate(-35.992 -34.461)" fill="#ffe126"/>
      <path id="Path_609684" data-name="Path 609684" d="M329.789,243.078l2.127-9.5,2.281,9.414,5.733,2.127-5.649,2.28-2.127,9.5-2.281-9.414-5.732-2.127Z" transform="translate(-43.586 -31.409)" fill="#ffe126"/>
      <path id="Path_609685" data-name="Path 609685" d="M356.054,289.324a3.678,3.678,0,0,1-.961,2.5,3.151,3.151,0,0,1-2.318,1.039H3.279A3.419,3.419,0,0,1,0,289.324a3.676,3.676,0,0,1,.961-2.5,3.15,3.15,0,0,1,2.318-1.039h349.5A3.418,3.418,0,0,1,356.054,289.324Z" transform="translate(0 -38.428)" fill="#2c2c2c"/>
      <path id="Path_609686" data-name="Path 609686" d="M335.021,160.3a11.2,11.2,0,0,1-4.391-5.82c-.642-1.905-.617-4.342-2.634-4.427-2.188-.093-1.767,4.179-1.531,6.515-3.621-.563-5.788-.57-6.776.312-.824.735-.93,2.186.493,3.226-2.395,1.807-1.233,3.362.241,4.068-2.044,2.016-.228,3.6,1.466,3.768-1.2,2.363,1.26,3.134,3.779,3.247a26.576,26.576,0,0,0,8.674-1.117Z" transform="translate(-42.869 -20.177)" fill="#ffe126"/>
      <path id="Path_609687" data-name="Path 609687" d="M337.085,160.736l-.449,11.476a.4.4,0,0,0,.41.42l5.289-.086a.4.4,0,0,0,.4-.39l.364-11.213a.4.4,0,0,0-.389-.416l-5.2-.177A.4.4,0,0,0,337.085,160.736Z" transform="translate(-45.266 -21.562)" fill="#60cb28"/>
      <path id="Path_609688" data-name="Path 609688" d="M209.437,258.128a11.208,11.208,0,0,1-4.392-5.821c-.642-1.905-.617-4.341-2.633-4.426-2.189-.093-1.767,4.178-1.532,6.514-3.62-.562-5.787-.57-6.775.312-.824.735-.93,2.187.492,3.226-2.394,1.807-1.232,3.363.242,4.068-2.044,2.016-.228,3.6,1.465,3.768-1.194,2.363,1.261,3.135,3.78,3.247a26.575,26.575,0,0,0,8.674-1.117Z" transform="translate(-25.982 -33.331)" fill="#ffe126"/>
      <path id="Path_609689" data-name="Path 609689" d="M211.5,258.561l-.448,11.476a.4.4,0,0,0,.409.42l5.289-.086a.4.4,0,0,0,.4-.39l.364-11.213a.4.4,0,0,0-.389-.416l-5.2-.177A.4.4,0,0,0,211.5,258.561Z" transform="translate(-28.379 -34.716)" fill="#60cb28"/>
      <path id="Path_609690" data-name="Path 609690" d="M192.129,46a11.2,11.2,0,0,1-4.392-5.821c-.642-1.9-.617-4.341-2.634-4.427-2.188-.093-1.767,4.179-1.531,6.514-3.62-.562-5.787-.569-6.776.312-.824.735-.93,2.187.492,3.226-2.394,1.807-1.232,3.362.242,4.068-2.044,2.016-.229,3.6,1.465,3.768-1.194,2.363,1.26,3.134,3.78,3.248a26.579,26.579,0,0,0,8.673-1.117Z" transform="translate(-23.654 -4.808)" fill="#ffe126"/>
      <path id="Path_609691" data-name="Path 609691" d="M194.192,46.436l-.449,11.476a.4.4,0,0,0,.41.42l5.289-.086a.4.4,0,0,0,.4-.39l.364-11.213a.4.4,0,0,0-.389-.417l-5.2-.177A.4.4,0,0,0,194.192,46.436Z" transform="translate(-26.052 -6.192)" fill="#60cb28"/>
      <path id="Path_609692" data-name="Path 609692" d="M77.676,52.333c5.968-3.277,9.7-8.054,9.573-13.293C87.029,29.6,74.391,22.235,59.02,22.594S31.368,30.9,31.589,40.339,44.448,57.144,59.818,56.785a44.148,44.148,0,0,0,8.392-.992l.116.147c1.471,1.925,8.037,4.776,15.078,3.45C79.283,57.728,77.676,52.333,77.676,52.333Z" transform="translate(-4.247 -3.036)" fill="#304c8e"/>
      <path id="Path_609693" data-name="Path 609693" d="M51.354,44.311a2,2,0,1,0-2.834.1A2,2,0,0,0,51.354,44.311Z" transform="translate(-6.439 -5.505)" fill="#ffe126"/>
      <path id="Path_609694" data-name="Path 609694" d="M65.222,43.557a2.005,2.005,0,1,0-2.709.837A2.005,2.005,0,0,0,65.222,43.557Z" transform="translate(-8.262 -5.461)" fill="#ffe126"/>
      <path id="Path_609695" data-name="Path 609695" d="M79,42.353a2,2,0,1,0-2.042,1.968A2,2,0,0,0,79,42.353Z" transform="translate(-10.084 -5.42)" fill="#ffe126"/>
    </g>
  </g>
</svg>
