<svg xmlns="http://www.w3.org/2000/svg" width="400" height="255" viewBox="0 0 400 255">
  <g id="Group_1072781" data-name="Group 1072781" transform="translate(-915 -3020)">
    <rect id="Rectangle_377515" data-name="Rectangle 377515" width="400" height="255" transform="translate(915 3020)" fill="none"/>
    <g id="Group_3" data-name="Group 3" transform="translate(999 3021)">
      <path id="Path_608718" data-name="Path 608718" d="M0,308.582l95.646-44.967L231.6,327.044l-95.71,45Z" transform="translate(0 -118.623)" fill="#004861" opacity="0.18"/>
      <path id="Path_608719" data-name="Path 608719" d="M0,280.393l95.646-44.967L231.6,298.855l-95.71,45Z" transform="translate(0 -105.939)" fill="#e2e7fe"/>
      <path id="Path_608720" data-name="Path 608720" d="M342.776,350.749l.01,4.448-95.71,45-.01-4.449Z" transform="translate(-111.177 -157.833)" fill="#e2e7fe"/>
      <path id="Path_608721" data-name="Path 608721" d="M.048,316.7v4.448l135.745,63.773v-4.448Z" transform="translate(-0.022 -142.513)" fill="#b0b2b4"/>
      <path id="Path_608722" data-name="Path 608722" d="M304.178,59.393,178.328.408A4.246,4.246,0,0,0,174.4.562l-4.86,2.09,2.671,3.782V120.622a6.8,6.8,0,0,0,3.912,6.155L297.341,183.59l4.313,6.107,5.243-2.3a2.737,2.737,0,0,0,2.1-2.664V66.972A8.37,8.37,0,0,0,304.178,59.393Z" transform="translate(-76.291)" fill="#151929"/>
      <path id="Path_608723" data-name="Path 608723" d="M295.925,63.877,170.075,4.892a4.294,4.294,0,0,0-6.116,3.888V125.107a6.8,6.8,0,0,0,3.913,6.155l128.963,60.444a2.744,2.744,0,0,0,3.908-2.484V71.456A8.37,8.37,0,0,0,295.925,63.877Z" transform="translate(-73.779 -2.017)" fill="#151929"/>
      <path id="Path_608724" data-name="Path 608724" d="M300.063,73.727V190.394L171.4,130.093a1.167,1.167,0,0,1-.674-1.058V11.335L298.457,71.2A2.8,2.8,0,0,1,300.063,73.727Z" transform="translate(-76.825 -5.101)" fill="#e2e7fe"/>
      <path id="Path_608725" data-name="Path 608725" d="M300.065,73.727V81.68L170.73,21.032v-9.7L298.46,71.2A2.8,2.8,0,0,1,300.065,73.727Z" transform="translate(-76.826 -5.101)" fill="#178e55"/>
      <path id="Path_608726" data-name="Path 608726" d="M170.727,28.965,300.063,89.613V97.5L170.727,36.848Z" transform="translate(-76.825 -13.034)" fill="#3c3b63"/>
      <path id="Path_608727" data-name="Path 608727" d="M170.727,42.665l129.336,60.647v7.882L170.727,50.547Z" transform="translate(-76.825 -19.199)" fill="#304c8e"/>
      <path id="Path_608728" data-name="Path 608728" d="M170.727,58.017l129.336,60.647v10.443L170.727,68.459Z" transform="translate(-76.825 -26.107)" fill="#304c8e"/>
      <path id="Path_608729" data-name="Path 608729" d="M180.886,25.16c0,.6-.483.856-1.078.583a1.924,1.924,0,0,1-1.077-1.572c0-.6.482-.856,1.077-.583A1.925,1.925,0,0,1,180.886,25.16Z" transform="translate(-80.426 -10.566)" fill="#e0dada"/>
      <path id="Path_608730" data-name="Path 608730" d="M188.178,28.506c0,.6-.482.856-1.077.583a1.924,1.924,0,0,1-1.077-1.572c0-.6.482-.856,1.077-.583A1.924,1.924,0,0,1,188.178,28.506Z" transform="translate(-83.708 -12.071)" fill="#e0dada"/>
      <path id="Path_608731" data-name="Path 608731" d="M195.246,32.4c.371-.3.294-1.009-.172-1.593s-1.143-.819-1.514-.523-.294,1.009.172,1.593S194.875,32.7,195.246,32.4Z" transform="translate(-86.994 -13.572)" fill="#e0dada"/>
      <path id="Path_608732" data-name="Path 608732" d="M202.508,52.139l-9.817-4.626a1.968,1.968,0,0,1-1.081-1.59c0-.595.486-.852,1.081-.572l9.817,4.626a1.968,1.968,0,0,1,1.081,1.59C203.589,52.161,203.1,52.419,202.508,52.139Z" transform="translate(-86.222 -20.356)" fill="#ececec"/>
      <path id="Path_608733" data-name="Path 608733" d="M230.314,65.241,220.5,60.615a1.967,1.967,0,0,1-1.081-1.59c0-.595.486-.852,1.081-.572l9.818,4.626a1.969,1.969,0,0,1,1.081,1.59C231.394,65.264,230.908,65.521,230.314,65.241Z" transform="translate(-98.734 -26.252)" fill="#ececec"/>
      <path id="Path_608734" data-name="Path 608734" d="M258.119,78.343,248.3,73.717a1.968,1.968,0,0,1-1.081-1.59c0-.595.486-.852,1.081-.572l9.818,4.626a1.967,1.967,0,0,1,1.081,1.59C259.2,78.366,258.713,78.623,258.119,78.343Z" transform="translate(-111.246 -32.148)" fill="#ececec"/>
      <path id="Path_608735" data-name="Path 608735" d="M285.924,91.444l-9.818-4.626a1.968,1.968,0,0,1-1.081-1.59c0-.595.486-.852,1.081-.572l9.818,4.626A1.967,1.967,0,0,1,287,90.873C287,91.467,286.518,91.724,285.924,91.444Z" transform="translate(-123.758 -38.043)" fill="#ececec"/>
      <path id="Path_608736" data-name="Path 608736" d="M313.729,104.547l-9.818-4.626a1.968,1.968,0,0,1-1.081-1.59c0-.595.486-.852,1.081-.572l9.818,4.626a1.967,1.967,0,0,1,1.081,1.59C314.809,104.569,314.323,104.827,313.729,104.547Z" transform="translate(-136.27 -43.939)" fill="#ececec"/>
      <path id="Path_608737" data-name="Path 608737" d="M191.617,94.956,181.8,90.33a1.968,1.968,0,0,1-1.081-1.59c0-.594.487-.852,1.081-.572l9.817,4.626a1.968,1.968,0,0,1,1.081,1.59C192.7,94.979,192.212,95.236,191.617,94.956Z" transform="translate(-81.321 -39.623)" fill="#d7dadd"/>
      <path id="Path_608738" data-name="Path 608738" d="M191.617,108.086,181.8,103.46a1.968,1.968,0,0,1-1.081-1.59c0-.595.487-.852,1.081-.571l9.817,4.626a1.968,1.968,0,0,1,1.081,1.59C192.7,108.109,192.212,108.366,191.617,108.086Z" transform="translate(-81.321 -45.532)" fill="#d7dadd"/>
      <path id="Path_608739" data-name="Path 608739" d="M191.617,121.216,181.8,116.59a1.968,1.968,0,0,1-1.081-1.59c0-.595.487-.852,1.081-.571l9.817,4.626a1.969,1.969,0,0,1,1.081,1.591C192.7,121.239,192.212,121.5,191.617,121.216Z" transform="translate(-81.321 -51.44)" fill="#d7dadd"/>
      <path id="Path_608740" data-name="Path 608740" d="M191.617,134.346,181.8,129.72a1.968,1.968,0,0,1-1.081-1.59c0-.595.487-.851,1.081-.571l9.817,4.626a1.967,1.967,0,0,1,1.081,1.59C192.7,134.369,192.212,134.627,191.617,134.346Z" transform="translate(-81.321 -57.349)" fill="#d7dadd"/>
      <path id="Path_608741" data-name="Path 608741" d="M191.617,147.476,181.8,142.85a1.968,1.968,0,0,1-1.081-1.59c0-.595.487-.852,1.081-.571l9.817,4.626a1.968,1.968,0,0,1,1.081,1.59C192.7,147.5,192.212,147.756,191.617,147.476Z" transform="translate(-81.321 -63.257)" fill="#d7dadd"/>
      <path id="Path_608742" data-name="Path 608742" d="M191.617,160.606,181.8,155.98a1.968,1.968,0,0,1-1.081-1.59c0-.595.487-.852,1.081-.571l9.817,4.626a1.967,1.967,0,0,1,1.081,1.59C192.7,160.629,192.212,160.886,191.617,160.606Z" transform="translate(-81.321 -69.165)" fill="#d7dadd"/>
      <path id="Path_608743" data-name="Path 608743" d="M191.617,173.736,181.8,169.11a1.968,1.968,0,0,1-1.081-1.59c0-.595.487-.852,1.081-.571l9.817,4.626a1.969,1.969,0,0,1,1.081,1.591C192.7,173.759,192.212,174.016,191.617,173.736Z" transform="translate(-81.321 -75.073)" fill="#d7dadd"/>
      <path id="Path_608744" data-name="Path 608744" d="M191.617,186.866l-9.817-4.626a1.968,1.968,0,0,1-1.081-1.59c0-.595.487-.852,1.081-.572l9.817,4.626a1.969,1.969,0,0,1,1.081,1.591C192.7,186.888,192.212,187.146,191.617,186.866Z" transform="translate(-81.321 -80.982)" fill="#d7dadd"/>
      <path id="Path_608745" data-name="Path 608745" d="M191.617,200l-9.817-4.626a1.968,1.968,0,0,1-1.081-1.59c0-.595.487-.852,1.081-.572l9.817,4.626a1.969,1.969,0,0,1,1.081,1.59C192.7,200.019,192.212,200.276,191.617,200Z" transform="translate(-81.321 -86.89)" fill="#d7dadd"/>
      <path id="Path_608746" data-name="Path 608746" d="M191.617,213.126,181.8,208.5a1.968,1.968,0,0,1-1.081-1.59c0-.595.487-.852,1.081-.571l9.817,4.626a1.968,1.968,0,0,1,1.081,1.59C192.7,213.149,192.212,213.406,191.617,213.126Z" transform="translate(-81.321 -92.798)" fill="#d7dadd"/>
      <path id="Path_608747" data-name="Path 608747" d="M191.617,226.256,181.8,221.63a1.968,1.968,0,0,1-1.081-1.59c0-.595.487-.852,1.081-.571l9.817,4.626a1.969,1.969,0,0,1,1.081,1.591C192.7,226.279,192.212,226.536,191.617,226.256Z" transform="translate(-81.321 -98.707)" fill="#d7dadd"/>
      <path id="Path_608748" data-name="Path 608748" d="M180.147,54.992l-4.425-2.075V48.491l4.425,2.075Z" transform="translate(-79.073 -21.82)" fill="#ececec"/>
      <path id="Path_608749" data-name="Path 608749" d="M192.011,60.556l-4.425-2.075V54.055l4.425,2.075Z" transform="translate(-84.411 -24.324)" fill="#ececec"/>
      <path id="Path_608750" data-name="Path 608750" d="M203.876,66.12l-4.425-2.075V59.619l4.425,2.075Z" transform="translate(-89.75 -26.828)" fill="#ececec"/>
      <path id="Path_608751" data-name="Path 608751" d="M215.741,71.684l-4.425-2.075V65.183l4.425,2.075Z" transform="translate(-95.09 -29.332)" fill="#ececec"/>
      <path id="Path_608752" data-name="Path 608752" d="M227.606,77.248l-4.426-2.075V70.748l4.426,2.075Z" transform="translate(-100.428 -31.836)" fill="#ececec"/>
      <path id="Path_608753" data-name="Path 608753" d="M239.47,82.812l-4.425-2.075V76.312l4.425,2.075Z" transform="translate(-105.767 -34.339)" fill="#e2e7fe"/>
      <path id="Path_608754" data-name="Path 608754" d="M251.335,88.376,246.91,86.3V81.876l4.425,2.075Z" transform="translate(-111.106 -36.843)" fill="#e2e7fe"/>
      <path id="Path_608755" data-name="Path 608755" d="M274.315,99.111,264.5,94.485a1.968,1.968,0,0,1-1.081-1.59c0-.595.487-.852,1.081-.572l9.817,4.626a1.969,1.969,0,0,1,1.081,1.591C275.4,99.134,274.91,99.391,274.315,99.111Z" transform="translate(-118.534 -41.493)" fill="#e2e7fe"/>
      <path id="Path_608756" data-name="Path 608756" d="M280.9,119.278l-9.818-4.626a1.967,1.967,0,0,1-1.081-1.59c0-.595.486-.852,1.081-.571l9.818,4.626a1.97,1.97,0,0,1,1.081,1.591C281.979,119.3,281.493,119.558,280.9,119.278Z" transform="translate(-121.497 -50.568)" fill="#e2e7fe"/>
      <path id="Path_608757" data-name="Path 608757" d="M385.513,120.84l-9.818-4.626a1.967,1.967,0,0,1-1.081-1.59c0-.595.486-.852,1.081-.571l9.818,4.626a1.968,1.968,0,0,1,1.081,1.591C386.593,120.863,386.107,121.12,385.513,120.84Z" transform="translate(-168.572 -51.271)" fill="#e2e7fe"/>
      <path id="Path_608758" data-name="Path 608758" d="M309.048,132.032l-9.818-4.626a1.967,1.967,0,0,1-1.081-1.59c0-.595.486-.852,1.081-.572l9.818,4.626a1.97,1.97,0,0,1,1.081,1.591C310.129,132.054,309.643,132.312,309.048,132.032Z" transform="translate(-134.164 -56.307)" fill="#ececec"/>
      <path id="Path_608759" data-name="Path 608759" d="M306.344,114.463l-9.817-4.626a1.967,1.967,0,0,1-1.081-1.59c0-.595.486-.852,1.081-.571l9.817,4.626a1.967,1.967,0,0,1,1.081,1.59C307.425,114.486,306.939,114.743,306.344,114.463Z" transform="translate(-132.947 -48.401)" fill="#ececec"/>
      <path id="Path_608760" data-name="Path 608760" d="M177.225,66.99l47.892,22.458v3.867L177.225,70.857Z" transform="translate(-79.749 -30.145)" fill="#e2e7fe"/>
      <path id="Path_608761" data-name="Path 608761" d="M325.576,135.239l32.961,15.522v3.867l-32.961-15.522Z" transform="translate(-146.505 -60.856)" fill="#e2e7fe"/>
      <path id="Path_608762" data-name="Path 608762" d="M179.234,40.558l-5.542-2.771V32.245l5.542,2.771Z" transform="translate(-78.159 -14.51)" fill="#178e55"/>
      <path id="Path_608763" data-name="Path 608763" d="M178.431,40.009l-.48-1.07c-.2-.415-.318-.683-.435-.959l-.011-.006a4.819,4.819,0,0,1-.407.543l-.452.6-.558-.279,1.149-1.327-1.1-2.409.564.282.5,1.129c.14.315.245.558.345.808l.017.008a4.09,4.09,0,0,1,.34-.466l.513-.625.557.279-1.143,1.257,1.172,2.515Z" transform="translate(-79.238 -15.795)" fill="#e2e7fe"/>
      <path id="Path_608764" data-name="Path 608764" d="M300.063,151.911,170.727,91.264" transform="translate(-76.825 -41.068)" fill="none" stroke="#999" stroke-miterlimit="10" stroke-width="4.734"/>
      <path id="Path_608765" data-name="Path 608765" d="M300.063,164.67,170.727,104.022" transform="translate(-76.825 -46.809)" fill="none" stroke="#999" stroke-miterlimit="10" stroke-width="4.734"/>
      <path id="Path_608766" data-name="Path 608766" d="M300.063,177.428,170.727,116.78" transform="translate(-76.825 -52.55)" fill="none" stroke="#999" stroke-miterlimit="10" stroke-width="4.734"/>
      <path id="Path_608767" data-name="Path 608767" d="M300.063,190.186,170.727,129.539" transform="translate(-76.825 -58.291)" fill="none" stroke="#999" stroke-miterlimit="10" stroke-width="4.734"/>
      <path id="Path_608768" data-name="Path 608768" d="M300.063,202.944,170.727,142.3" transform="translate(-76.825 -64.032)" fill="none" stroke="#999" stroke-miterlimit="10" stroke-width="4.734"/>
      <path id="Path_608769" data-name="Path 608769" d="M300.063,215.7,170.727,155.055" transform="translate(-76.825 -69.773)" fill="none" stroke="#999" stroke-miterlimit="10" stroke-width="4.734"/>
      <path id="Path_608770" data-name="Path 608770" d="M300.063,228.461,170.727,167.813" transform="translate(-76.825 -75.514)" fill="none" stroke="#999" stroke-miterlimit="10" stroke-width="4.734"/>
      <path id="Path_608771" data-name="Path 608771" d="M300.063,241.219,170.727,180.572" transform="translate(-76.825 -81.255)" fill="none" stroke="#999" stroke-miterlimit="10" stroke-width="4.734"/>
      <path id="Path_608772" data-name="Path 608772" d="M300.063,253.978,170.727,193.331" transform="translate(-76.825 -86.997)" fill="none" stroke="#999" stroke-miterlimit="10" stroke-width="4.734"/>
      <path id="Path_608773" data-name="Path 608773" d="M300.063,266.736,170.727,206.089" transform="translate(-76.825 -92.737)" fill="none" stroke="#999" stroke-miterlimit="10" stroke-width="4.734"/>
      <path id="Path_608774" data-name="Path 608774" d="M300.063,279.494,170.727,218.847" transform="translate(-76.825 -98.478)" fill="none" stroke="#999" stroke-miterlimit="10" stroke-width="4.734"/>
      <path id="Path_608775" data-name="Path 608775" d="M206.325,93.7v82.319" transform="translate(-92.844 -42.162)" fill="none" stroke="#999" stroke-miterlimit="10" stroke-width="4.734"/>
      <path id="Path_608776" data-name="Path 608776" d="M179.475,81.057v82.319" transform="translate(-80.761 -36.475)" fill="none" stroke="#999" stroke-miterlimit="10" stroke-width="4.734"/>
      <path id="Path_608777" data-name="Path 608777" d="M236.274,107.562v82.319" transform="translate(-106.32 -48.402)" fill="none" stroke="#999" stroke-miterlimit="10" stroke-width="4.734"/>
      <path id="Path_608778" data-name="Path 608778" d="M266.223,121.428v82.319" transform="translate(-119.797 -54.641)" fill="none" stroke="#999" stroke-miterlimit="10" stroke-width="4.734"/>
      <path id="Path_608779" data-name="Path 608779" d="M296.171,135.3v82.319" transform="translate(-133.273 -60.881)" fill="none" stroke="#999" stroke-miterlimit="10" stroke-width="4.734"/>
      <path id="Path_608780" data-name="Path 608780" d="M326.12,149.162v82.319" transform="translate(-146.75 -67.121)" fill="none" stroke="#999" stroke-miterlimit="10" stroke-width="4.734"/>
      <path id="Path_608781" data-name="Path 608781" d="M356.069,163.028v82.319" transform="translate(-160.227 -73.361)" fill="none" stroke="#999" stroke-miterlimit="10" stroke-width="4.734"/>
      <path id="Path_608782" data-name="Path 608782" d="M386.018,176.9v82.319" transform="translate(-173.703 -79.601)" fill="none" stroke="#999" stroke-miterlimit="10" stroke-width="4.734"/>
      <path id="Path_608783" data-name="Path 608783" d="M341.28,230.407l-30.017-14.069a1.024,1.024,0,0,0-1.459.927v27.745a1.623,1.623,0,0,0,.933,1.469L341.5,260.9a.654.654,0,0,0,.932-.592V232.215A2,2,0,0,0,341.28,230.407Z" transform="translate(-139.408 -97.305)" fill="#304c8e"/>
      <path id="Path_608784" data-name="Path 608784" d="M312.695,246.6a.046.046,0,0,1-.026-.042V219.682l29.232,13.7a.422.422,0,0,1,.242.381V260.4Z" transform="translate(-140.697 -98.854)" fill="#e2e7fe"/>
      <path id="Path_608785" data-name="Path 608785" d="M335.346,247.168l-5.363,5.548-8.256-13.975-9.058,9.192v7.2a.047.047,0,0,0,.026.042l29.448,13.8v-12.84Z" transform="translate(-140.697 -107.43)" fill="#304c8e"/>
      <path id="Path_608786" data-name="Path 608786" d="M352.018,242.67a4.434,4.434,0,0,0-1.967-1.374,2.111,2.111,0,0,0-3.015,2.029,4.547,4.547,0,0,0,3.015,4,2.113,2.113,0,0,0,2.921-1.311,2.647,2.647,0,0,0,.094-.717A4.208,4.208,0,0,0,352.018,242.67Z" transform="translate(-156.162 -108.509)" fill="#304c8e"/>
      <path id="Path_608787" data-name="Path 608787" d="M165.232,322.873,209.395,302.5l-36.782-17.224L128.45,305.649Z" transform="translate(-57.801 -128.37)" fill="#304c8e"/>
      <path id="Path_608788" data-name="Path 608788" d="M165.232,347.2l44.163-20.374-36.782-17.224L128.45,329.981Z" transform="translate(-57.801 -139.319)" fill="#004861" opacity="0.18"/>
      <path id="Path_608789" data-name="Path 608789" d="M138.382,307.743l38.693-17.851L208.4,304.56l-38.694,17.851Z" transform="translate(-62.27 -130.448)" fill="#e2e7fe"/>
      <path id="Path_608790" data-name="Path 608790" d="M195.324,336.964v4.705l44.163-20.374v-4.706Z" transform="translate(-87.893 -142.461)" fill="#304c8e"/>
      <path id="Path_608791" data-name="Path 608791" d="M128.45,322.318v4.705l36.782,17.224v-4.705Z" transform="translate(-57.801 -145.039)" fill="#304c8e"/>
      <path id="Path_608792" data-name="Path 608792" d="M198.255,292.473l12.072-5.576-16.985-7.953-12.072,5.575Z" transform="translate(-81.569 -125.521)" fill="#304c8e"/>
      <path id="Path_608793" data-name="Path 608793" d="M212.151,298.98v1.189l12.072-5.575V293.4Z" transform="translate(-95.465 -132.028)" fill="#304c8e"/>
      <path id="Path_608794" data-name="Path 608794" d="M181.27,289.081v1.189l16.985,7.953v-1.189Z" transform="translate(-81.569 -130.083)" fill="#304c8e"/>
      <path id="Path_608795" data-name="Path 608795" d="M189.1,300.6l2.91-1.257,8.307,3.89-2.91,1.258Z" transform="translate(-85.093 -134.702)" fill="#e6e6e6"/>
      <path id="Path_608796" data-name="Path 608796" d="M206.99,309.1l2.909-1.258,8.308,3.89-2.91,1.258Z" transform="translate(-93.143 -138.527)" fill="#e6e6e6"/>
      <path id="Path_608797" data-name="Path 608797" d="M224.877,317.6l2.91-1.258,8.308,3.89-2.91,1.258Z" transform="translate(-101.192 -142.352)" fill="#e6e6e6"/>
      <path id="Path_608798" data-name="Path 608798" d="M180.553,304.52l2.91-1.257,8.308,3.89-2.91,1.258Z" transform="translate(-81.247 -136.465)" fill="#e6e6e6"/>
      <path id="Path_608799" data-name="Path 608799" d="M198.441,313.021l2.91-1.258,8.308,3.89-2.91,1.258Z" transform="translate(-89.296 -140.289)" fill="#e6e6e6"/>
      <path id="Path_608800" data-name="Path 608800" d="M216.329,321.521l2.91-1.257,8.308,3.89-2.91,1.258Z" transform="translate(-97.345 -144.115)" fill="#e6e6e6"/>
      <path id="Path_608801" data-name="Path 608801" d="M172.005,308.437l2.91-1.257,8.307,3.89-2.91,1.258Z" transform="translate(-77.4 -138.227)" fill="#e6e6e6"/>
      <path id="Path_608802" data-name="Path 608802" d="M189.893,316.938l2.909-1.258,8.308,3.89-2.91,1.258Z" transform="translate(-85.449 -142.052)" fill="#e6e6e6"/>
      <path id="Path_608803" data-name="Path 608803" d="M207.781,325.438l2.909-1.258L219,328.07l-2.91,1.258Z" transform="translate(-93.499 -145.877)" fill="#e6e6e6"/>
      <path id="Path_608804" data-name="Path 608804" d="M163.457,312.354l2.909-1.257,8.308,3.89-2.91,1.258Z" transform="translate(-73.554 -139.99)" fill="#e6e6e6"/>
      <path id="Path_608805" data-name="Path 608805" d="M181.344,320.854l2.91-1.257,8.308,3.89-2.91,1.258Z" transform="translate(-81.602 -143.815)" fill="#e6e6e6"/>
      <path id="Path_608806" data-name="Path 608806" d="M199.232,329.355l2.91-1.258,8.308,3.89-2.91,1.258Z" transform="translate(-89.652 -147.639)" fill="#e6e6e6"/>
      <path id="Path_608807" data-name="Path 608807" d="M154.908,316.271l2.91-1.257,8.307,3.89-2.91,1.258Z" transform="translate(-69.707 -141.752)" fill="#e6e6e6"/>
      <path id="Path_608808" data-name="Path 608808" d="M172.8,324.771l2.91-1.257,8.307,3.89-2.91,1.258Z" transform="translate(-77.756 -145.577)" fill="#e6e6e6"/>
      <path id="Path_608809" data-name="Path 608809" d="M190.684,333.272l2.909-1.258,8.308,3.89-2.91,1.258Z" transform="translate(-85.805 -149.402)" fill="#e6e6e6"/>
      <path id="Path_608810" data-name="Path 608810" d="M146.36,320.188l2.909-1.257,8.308,3.89-2.91,1.258Z" transform="translate(-65.86 -143.515)" fill="#e6e6e6"/>
      <path id="Path_608811" data-name="Path 608811" d="M164.247,328.688l2.91-1.257,8.308,3.89-2.91,1.258Z" transform="translate(-73.909 -147.34)" fill="#e6e6e6"/>
      <path id="Path_608812" data-name="Path 608812" d="M182.135,337.189l2.91-1.258,8.308,3.89-2.91,1.258Z" transform="translate(-81.958 -151.165)" fill="#e6e6e6"/>
      <path id="Path_608813" data-name="Path 608813" d="M222.743,301.5l.992-.38,18.092,8.52-.992.38Z" transform="translate(-100.232 -135.502)" fill="#e6e6e6"/>
      <path id="Path_608814" data-name="Path 608814" d="M219.375,303.281l.992-.38,18.091,8.52-.992.38Z" transform="translate(-98.716 -136.302)" fill="#e6e6e6"/>
      <path id="Path_608815" data-name="Path 608815" d="M216.008,305.059l.992-.38,11.556,5.466-.992.38Z" transform="translate(-97.201 -137.102)" fill="#e6e6e6"/>
      <path id="Path_608816" data-name="Path 608816" d="M128.958,282.5a9.009,9.009,0,0,0,3.435,3.3c2.316,1.225,2.713,1.456,2.581,2.118s-2.019,2.151-4.1,1.754-3.872-3.533-5.063-3.554-2.482-.55-2.35-1.873a14.8,14.8,0,0,1,.21-1.624Z" transform="translate(-55.55 -127.12)" fill="#3c3b63"/>
      <path id="Path_608817" data-name="Path 608817" d="M126.694,207.6s1.3,18.5,1.243,20.774-1.459,6.364-1.509,11.209a63.48,63.48,0,0,1-.546,8.09s1.057,1.909-2.293,1.865c-2.987-.04-3.362-.62-3.362-.62s-1.289-9.416-1.035-12.835a45.365,45.365,0,0,1,1.091-6.744l-4.48-18.282Z" transform="translate(-52.11 -93.417)" fill="#304c8e"/>
      <path id="Path_608818" data-name="Path 608818" d="M108.888,291.851a3.941,3.941,0,0,0,1.451,2.495c1.423,1.323,5,3.839,4.7,4.567s-1.489,2.647-3.54,2.449-3.11-3.177-4.4-3.475-3.177-.761-3.375-2.25a12.514,12.514,0,0,1,0-2.945Z" transform="translate(-46.633 -131.329)" fill="#3c3b63"/>
      <path id="Path_608819" data-name="Path 608819" d="M99.406,214.457a32.522,32.522,0,0,0,0,6.017,5.773,5.773,0,0,0,.607,1.957l2.644,12.887a21.558,21.558,0,0,0-2.644,10.691,46.861,46.861,0,0,0,1.193,11.057s.469.948,3.017.944,2.692-1.654,2.692-1.654,1.636-13.021,3.095-20.123,2.914-23.263,2.914-23.263Z" transform="translate(-44.66 -95.834)" fill="#304c8e"/>
      <path id="Path_608820" data-name="Path 608820" d="M125.283,142.826l9.49,5.352,12.745.01s1.547-.152,1.807,2.027-.135,2.334-.135,2.334-10.9,1.49-15.892.622a53.823,53.823,0,0,1-9.982-2.955Z" transform="translate(-55.491 -64.27)" fill="#1d1d1d"/>
      <path id="Path_608821" data-name="Path 608821" d="M93.55,147.837s-6.795,2.328-7.731,4.84-1.631,16.6-1.631,16.6-.144,1.381,3.313,1.086,4.106-1.3,4.106-1.3l.361,13.418a13.794,13.794,0,0,0,11.978,0c6.482-3.072,8.756-7.344,8.756-7.344s-1.457-30.238-4.474-32.412C106.695,141.614,93.55,147.837,93.55,147.837Z" transform="translate(-37.883 -64.162)" fill="#178e55"/>
      <path id="Path_608822" data-name="Path 608822" d="M122.627,200.635l-11.8-5.527a.59.59,0,0,1,0-1.07l17.156-7.87a2.046,2.046,0,0,1,1.722.007l12.091,5.664Z" transform="translate(-49.718 -83.689)" fill="#e2e2e2"/>
      <path id="Path_608823" data-name="Path 608823" d="M122.627,199.295l-11.8-5.527a.59.59,0,0,1,0-1.07l17.156-7.87a2.047,2.047,0,0,1,1.722.007L141.8,190.5Z" transform="translate(-49.718 -83.086)" fill="#f3f1ee"/>
      <path id="Path_608824" data-name="Path 608824" d="M151.732,196.027v-.737l-19.175,8.8v.737Z" transform="translate(-59.649 -87.878)" fill="#d6d3ce"/>
      <path id="Path_608825" data-name="Path 608825" d="M139.794,192.3l.523-.243.476.215-.522.243Z" transform="translate(-62.906 -86.422)" fill="#b2b1af"/>
      <path id="Path_608826" data-name="Path 608826" d="M138.9,193.2l-.476-.216.522-.243.476.215Z" transform="translate(-62.289 -86.733)" fill="#b2b1af"/>
      <path id="Path_608827" data-name="Path 608827" d="M137.528,193.894l-.476-.215.522-.243.476.215Z" transform="translate(-61.672 -87.044)" fill="#b2b1af"/>
      <path id="Path_608828" data-name="Path 608828" d="M136.156,194.584l-.476-.215.522-.243.476.215Z" transform="translate(-61.054 -87.354)" fill="#b2b1af"/>
      <path id="Path_608829" data-name="Path 608829" d="M134.785,195.274l-.476-.216.522-.243.476.216Z" transform="translate(-60.437 -87.665)" fill="#b2b1af"/>
      <path id="Path_608830" data-name="Path 608830" d="M133.413,195.964l-.476-.216.522-.243.476.216Z" transform="translate(-59.82 -87.975)" fill="#b2b1af"/>
      <path id="Path_608831" data-name="Path 608831" d="M132.041,196.655l-.476-.215.523-.243.476.215Z" transform="translate(-59.203 -88.286)" fill="#b2b1af"/>
      <path id="Path_608832" data-name="Path 608832" d="M130.67,197.345l-.476-.215.522-.243.476.215Z" transform="translate(-58.586 -88.597)" fill="#b2b1af"/>
      <path id="Path_608833" data-name="Path 608833" d="M129.3,198.035l-.476-.215.522-.243.476.216Z" transform="translate(-57.969 -88.907)" fill="#b2b1af"/>
      <path id="Path_608834" data-name="Path 608834" d="M127.927,198.726l-.476-.215.522-.243.476.215Z" transform="translate(-57.351 -89.218)" fill="#b2b1af"/>
      <path id="Path_608835" data-name="Path 608835" d="M126.556,199.416l-.476-.215.522-.243.476.215Z" transform="translate(-56.734 -89.529)" fill="#b2b1af"/>
      <path id="Path_608836" data-name="Path 608836" d="M125.184,200.106l-.476-.215.522-.243.476.215Z" transform="translate(-56.117 -89.839)" fill="#b2b1af"/>
      <path id="Path_608837" data-name="Path 608837" d="M123.813,200.8l-.476-.215.522-.243.476.216Z" transform="translate(-55.5 -90.15)" fill="#b2b1af"/>
      <path id="Path_608838" data-name="Path 608838" d="M122.487,201.029l.476.215-.522.243-.476-.215Z" transform="translate(-54.883 -90.46)" fill="#b2b1af"/>
      <path id="Path_608839" data-name="Path 608839" d="M141.147,192.917l.522-.243.476.215-.522.243Z" transform="translate(-63.514 -86.701)" fill="#b2b1af"/>
      <path id="Path_608840" data-name="Path 608840" d="M140.774,193.58l-.523.243-.476-.215.523-.243Z" transform="translate(-62.897 -87.012)" fill="#b2b1af"/>
      <path id="Path_608841" data-name="Path 608841" d="M139.4,194.27l-.522.243-.476-.215.522-.243Z" transform="translate(-62.28 -87.322)" fill="#b2b1af"/>
      <path id="Path_608842" data-name="Path 608842" d="M138.031,194.96l-.523.243-.476-.215.522-.243Z" transform="translate(-61.663 -87.633)" fill="#b2b1af"/>
      <path id="Path_608843" data-name="Path 608843" d="M136.659,195.651l-.522.243-.476-.215.522-.243Z" transform="translate(-61.046 -87.944)" fill="#b2b1af"/>
      <path id="Path_608844" data-name="Path 608844" d="M135.288,196.341l-.523.243-.476-.215.523-.243Z" transform="translate(-60.428 -88.254)" fill="#b2b1af"/>
      <path id="Path_608845" data-name="Path 608845" d="M133.916,197.031l-.522.243-.476-.215.522-.243Z" transform="translate(-59.811 -88.565)" fill="#b2b1af"/>
      <path id="Path_608846" data-name="Path 608846" d="M132.545,197.722l-.522.243-.476-.216.522-.243Z" transform="translate(-59.194 -88.875)" fill="#b2b1af"/>
      <path id="Path_608847" data-name="Path 608847" d="M131.173,198.411l-.522.243-.476-.216.522-.243Z" transform="translate(-58.577 -89.186)" fill="#b2b1af"/>
      <path id="Path_608848" data-name="Path 608848" d="M129.8,199.1l-.522.243-.476-.215.522-.243Z" transform="translate(-57.96 -89.497)" fill="#b2b1af"/>
      <path id="Path_608849" data-name="Path 608849" d="M128.43,199.793l-.522.242-.476-.215.522-.243Z" transform="translate(-57.343 -89.807)" fill="#b2b1af"/>
      <path id="Path_608850" data-name="Path 608850" d="M126.06,200.51l.523-.243.476.215-.522.243Z" transform="translate(-56.725 -90.118)" fill="#b2b1af"/>
      <path id="Path_608851" data-name="Path 608851" d="M124.689,201.2l.522-.243.476.215-.522.243Z" transform="translate(-56.108 -90.429)" fill="#b2b1af"/>
      <path id="Path_608852" data-name="Path 608852" d="M124.316,201.863l-.523.243-.476-.215.522-.243Z" transform="translate(-55.492 -90.739)" fill="#b2b1af"/>
      <path id="Path_608853" data-name="Path 608853" d="M142.126,193.888l-.522.243-.476-.215.246-.114-.016-.007,1.047-.5.476.216-.774.371Z" transform="translate(-63.506 -86.979)" fill="#b2b1af"/>
      <path id="Path_608854" data-name="Path 608854" d="M140.233,195.132l-.476-.215.522-.243.476.216Z" transform="translate(-62.889 -87.601)" fill="#b2b1af"/>
      <path id="Path_608855" data-name="Path 608855" d="M139.383,195.579l-.522.243-.476-.216.522-.243Z" transform="translate(-62.271 -87.911)" fill="#b2b1af"/>
      <path id="Path_608856" data-name="Path 608856" d="M138.012,196.27l-.522.243-.476-.215.522-.243Z" transform="translate(-61.655 -88.222)" fill="#b2b1af"/>
      <path id="Path_608857" data-name="Path 608857" d="M136.64,196.96l-.522.243-.476-.215.522-.243Z" transform="translate(-61.037 -88.533)" fill="#b2b1af"/>
      <path id="Path_608858" data-name="Path 608858" d="M135.269,197.65l-.522.243-.476-.215.522-.243Z" transform="translate(-60.42 -88.843)" fill="#b2b1af"/>
      <path id="Path_608859" data-name="Path 608859" d="M133.9,198.341l-.522.243-.476-.216.522-.243Z" transform="translate(-59.803 -89.154)" fill="#b2b1af"/>
      <path id="Path_608860" data-name="Path 608860" d="M132.526,199.031l-.523.243-.476-.215.522-.243Z" transform="translate(-59.186 -89.465)" fill="#b2b1af"/>
      <path id="Path_608861" data-name="Path 608861" d="M130.156,199.749l.522-.243.476.215-.522.243Z" transform="translate(-58.569 -89.775)" fill="#b2b1af"/>
      <path id="Path_608862" data-name="Path 608862" d="M128.686,200.2l.476.215-.775.371.02.009-.522.243-.476-.215.008,0-.013-.006Z" transform="translate(-57.331 -90.086)" fill="#b2b1af"/>
      <path id="Path_608863" data-name="Path 608863" d="M126.042,201.819l.522-.243.476.216-.523.242Z" transform="translate(-56.717 -90.707)" fill="#b2b1af"/>
      <path id="Path_608864" data-name="Path 608864" d="M125.668,202.482l-.522.243-.476-.215.522-.243Z" transform="translate(-56.1 -91.018)" fill="#b2b1af"/>
      <path id="Path_608865" data-name="Path 608865" d="M143.852,194.156l.522-.243.476.215-.522.243Z" transform="translate(-64.732 -87.258)" fill="#b2b1af"/>
      <path id="Path_608866" data-name="Path 608866" d="M143.478,194.818l-.522.243-.476-.215L143,194.6Z" transform="translate(-64.114 -87.569)" fill="#b2b1af"/>
      <path id="Path_608867" data-name="Path 608867" d="M142.107,195.509l-.522.243-.476-.215.522-.243Z" transform="translate(-63.497 -87.879)" fill="#b2b1af"/>
      <path id="Path_608868" data-name="Path 608868" d="M140.736,196.2l-.523.243-.476-.215.522-.243Z" transform="translate(-62.88 -88.19)" fill="#b2b1af"/>
      <path id="Path_608869" data-name="Path 608869" d="M138.366,196.917l.522-.243.476.215-.522.243Z" transform="translate(-62.263 -88.501)" fill="#b2b1af"/>
      <path id="Path_608870" data-name="Path 608870" d="M136.995,197.607l.522-.243.476.215-.523.243Z" transform="translate(-61.646 -88.811)" fill="#b2b1af"/>
      <path id="Path_608871" data-name="Path 608871" d="M135.623,198.3l.522-.243.476.216-.522.243Z" transform="translate(-61.029 -89.122)" fill="#b2b1af"/>
      <path id="Path_608872" data-name="Path 608872" d="M134.252,198.988l.522-.243.476.215-.523.243Z" transform="translate(-60.412 -89.433)" fill="#b2b1af"/>
      <path id="Path_608873" data-name="Path 608873" d="M132.88,199.678l.523-.243.476.215-.522.243Z" transform="translate(-59.794 -89.743)" fill="#b2b1af"/>
      <path id="Path_608874" data-name="Path 608874" d="M131.509,200.368l.522-.243.476.215-.522.243Z" transform="translate(-59.177 -90.054)" fill="#b2b1af"/>
      <path id="Path_608875" data-name="Path 608875" d="M130.137,201.058l.522-.243.476.216-.522.243Z" transform="translate(-58.56 -90.364)" fill="#b2b1af"/>
      <path id="Path_608876" data-name="Path 608876" d="M128.766,201.748l.522-.243.476.216-.522.243Z" transform="translate(-57.943 -90.675)" fill="#b2b1af"/>
      <path id="Path_608877" data-name="Path 608877" d="M127.394,202.439l.522-.243.476.215-.522.243Z" transform="translate(-57.326 -90.986)" fill="#b2b1af"/>
      <path id="Path_608878" data-name="Path 608878" d="M127.021,203.1l-.522.243-.476-.215.522-.243Z" transform="translate(-56.709 -91.296)" fill="#b2b1af"/>
      <path id="Path_608879" data-name="Path 608879" d="M145.2,194.775l.522-.243.476.215-.523.243Z" transform="translate(-65.34 -87.537)" fill="#b2b1af"/>
      <path id="Path_608880" data-name="Path 608880" d="M144.831,195.438l-.522.242-.476-.215.523-.243Z" transform="translate(-64.723 -87.847)" fill="#b2b1af"/>
      <path id="Path_608881" data-name="Path 608881" d="M142.461,196.155l.523-.242.476.215-.523.243Z" transform="translate(-64.106 -88.158)" fill="#b2b1af"/>
      <path id="Path_608882" data-name="Path 608882" d="M141.09,196.846l.522-.243.476.215-.522.243Z" transform="translate(-63.489 -88.469)" fill="#b2b1af"/>
      <path id="Path_608883" data-name="Path 608883" d="M139.718,197.536l.523-.243.476.215-.523.243Z" transform="translate(-62.871 -88.779)" fill="#b2b1af"/>
      <path id="Path_608884" data-name="Path 608884" d="M138.347,198.226l.522-.243.476.216-.522.243Z" transform="translate(-62.254 -89.09)" fill="#b2b1af"/>
      <path id="Path_608885" data-name="Path 608885" d="M136.975,198.917l.523-.243.476.215-.523.243Z" transform="translate(-61.637 -89.401)" fill="#b2b1af"/>
      <path id="Path_608886" data-name="Path 608886" d="M135.6,199.607l.522-.243.476.215-.522.243Z" transform="translate(-61.02 -89.711)" fill="#b2b1af"/>
      <path id="Path_608887" data-name="Path 608887" d="M134.233,200.3l.522-.243.476.215-.523.243Z" transform="translate(-60.403 -90.022)" fill="#b2b1af"/>
      <path id="Path_608888" data-name="Path 608888" d="M132.861,200.987l.522-.243.476.216-.522.242Z" transform="translate(-59.786 -90.332)" fill="#b2b1af"/>
      <path id="Path_608889" data-name="Path 608889" d="M131.49,201.678l.522-.243.476.215-.523.243Z" transform="translate(-59.169 -90.643)" fill="#b2b1af"/>
      <path id="Path_608890" data-name="Path 608890" d="M130.118,202.368l.522-.243.476.215-.522.243Z" transform="translate(-58.551 -90.954)" fill="#b2b1af"/>
      <path id="Path_608891" data-name="Path 608891" d="M128.747,203.058l.522-.243.476.215-.523.243Z" transform="translate(-57.935 -91.264)" fill="#b2b1af"/>
      <path id="Path_608892" data-name="Path 608892" d="M128.373,203.721l-.522.243-.476-.216.522-.243Z" transform="translate(-57.317 -91.575)" fill="#b2b1af"/>
      <path id="Path_608893" data-name="Path 608893" d="M147.079,195.151l.476.216-.522.243-.476-.216Z" transform="translate(-65.949 -87.815)" fill="#b2b1af"/>
      <path id="Path_608894" data-name="Path 608894" d="M145.708,195.841l.476.215-.523.243-.476-.216Z" transform="translate(-65.332 -88.126)" fill="#b2b1af"/>
      <path id="Path_608895" data-name="Path 608895" d="M138.4,198.26l.69-.343-.007,0,.184-.085.581-.289-.01,0,.3-.137.472-.235-.014-.007.409-.19.867-.432.476.215-.758.378,0,0-.112.052-.65.324.008,0-.225.105-.541.269.012.006-.338.157-.433.216.016.007-.45.209-.066.033h0l0,0-.476-.215Z" transform="translate(-62.246 -88.437)" fill="#b2b1af"/>
      <path id="Path_608896" data-name="Path 608896" d="M137.479,199.983l.476.216-.523.243-.476-.216Z" transform="translate(-61.629 -89.99)" fill="#b2b1af"/>
      <path id="Path_608897" data-name="Path 608897" d="M136.108,200.673l.476.216-.522.243-.476-.216Z" transform="translate(-61.012 -90.3)" fill="#b2b1af"/>
      <path id="Path_608898" data-name="Path 608898" d="M134.736,201.363l.476.216-.522.243-.476-.216Z" transform="translate(-60.395 -90.611)" fill="#b2b1af"/>
      <path id="Path_608899" data-name="Path 608899" d="M133.364,202.054l.476.215-.522.243-.476-.215Z" transform="translate(-59.777 -90.922)" fill="#b2b1af"/>
      <path id="Path_608900" data-name="Path 608900" d="M131.993,202.744l.476.215-.522.243-.476-.215Z" transform="translate(-59.16 -91.232)" fill="#b2b1af"/>
      <path id="Path_608901" data-name="Path 608901" d="M130.621,203.434l.476.215-.522.243-.476-.215Z" transform="translate(-58.543 -91.543)" fill="#b2b1af"/>
      <path id="Path_608902" data-name="Path 608902" d="M129.726,204.34l-.522.243-.476-.216.522-.242Z" transform="translate(-57.926 -91.854)" fill="#b2b1af"/>
      <path id="Path_608903" data-name="Path 608903" d="M153.2,161.815c-4.073,1.836-14.76,6.992-17.777,8.45a1.89,1.89,0,0,0-1.015,1.258l-3.884,16.038a.766.766,0,0,0,1.077.872c3.948-1.906,14.755-7.111,17.866-8.464a1.852,1.852,0,0,0,1.063-1.261l3.853-15.91A.856.856,0,0,0,153.2,161.815Z" transform="translate(-58.723 -72.78)" fill="#e2e2e2"/>
      <path id="Path_608904" data-name="Path 608904" d="M154.622,162.681c-4.073,1.836-14.76,6.992-17.777,8.45a1.889,1.889,0,0,0-1.015,1.258l-3.884,16.038a.766.766,0,0,0,1.077.872c3.949-1.906,14.755-7.111,17.865-8.464a1.852,1.852,0,0,0,1.063-1.261l3.853-15.91A.856.856,0,0,0,154.622,162.681Z" transform="translate(-59.364 -73.17)" fill="#f3f1ee"/>
      <path id="Path_608905" data-name="Path 608905" d="M90.927,191.783v1.073s9.641,6.569,10.468,6.359a15.663,15.663,0,0,1,3.264-.993c1.131-.043,1.828-.087,1.828-.087s.174.479-.87.827-1.219,1.127-.174,1.673a7.857,7.857,0,0,0,2.089.721,4.918,4.918,0,0,1-4,1.262,14.334,14.334,0,0,1-4.3-1.349s-14.024-5.179-14.416-5.963a9.87,9.87,0,0,1-.143-3.292A9.588,9.588,0,0,0,90.927,191.783Z" transform="translate(-38.065 -86.3)" fill="#ffd4d4"/>
      <path id="Path_608906" data-name="Path 608906" d="M106.741,123.041s1.438,2.055,1.181,2.979a2.2,2.2,0,0,1-.575,1.156A2.115,2.115,0,0,1,108.539,129c.052,1.335.077,5.24-.591,6.319a1.935,1.935,0,0,1-1.978.8v1.593s.194,1.913-2.375,2.221a7.062,7.062,0,0,1-4.6-1.2s.378-4.386-.855-5.927-2.98-3.8-.873-6.19,7.346-4.29,7.424-4.264Z" transform="translate(-43.324 -55.055)" fill="#ffd4d4"/>
      <path id="Path_608907" data-name="Path 608907" d="M105.531,117.584s.668,1.747-1,4.084a6.16,6.16,0,0,1-4.829,2.9,6.827,6.827,0,0,1-1.592,0s1.644,1.747,1.207,2.184-1,.694-.822,1.361.668,1.9.309,2.158-1.49-2.107-2.338-2.107-.694,1.542,0,2.235,1.156,1.567-.129,1.593-4.572-2.363-4.572-5.137,1.079-3.751,1.079-3.751-1.618-4.007,3.8-4.7S105.531,117.584,105.531,117.584Z" transform="translate(-41.292 -52.911)" fill="#3c3b63"/>
      <path id="Path_608908" data-name="Path 608908" d="M85.946,160.027s6.32-.223,5.969,6.595a55.31,55.31,0,0,1-1.906,11.944l10.235,5.794a9.18,9.18,0,0,0-.868,2.363c-.263,1.288-.439,2.6-.439,2.6s-15.36-5.788-16.15-7.809S83.225,161.449,85.946,160.027Z" transform="translate(-37.146 -72.01)" fill="#178e55"/>
      <path id="Path_608909" data-name="Path 608909" d="M169.329,152.891c-.261-.226,4.491-.726,5.8-.472s2.09,2.079,3.264,2.632,2.988-.093,3.562.743-3.352.591-4.446.778-1.732,1.487-3.215,1.416a21.243,21.243,0,0,1-4.4-1.156S170.736,154.107,169.329,152.891Z" transform="translate(-76.191 -68.555)" fill="#ffd4d4"/>
      <path id="Path_608910" data-name="Path 608910" d="M112.171,285s-15.351,5.368-12.41,8.392,24.059,11.932,32.473,13.087,14.506-3.793,1.644-10.97A179.524,179.524,0,0,0,112.171,285Z" transform="translate(-44.722 -128.246)" fill="#004861" opacity="0.18"/>
      <path id="Path_608911" data-name="Path 608911" d="M324.2,211.715l4.127-1.112a7.668,7.668,0,0,1-2.231,1.449h0c-.12.051-.244.1-.367.145l-4.444,1.746a7.482,7.482,0,0,0,.778-.4c.041-.024.081-.048.121-.073l.032-.019.12-.076c.063-.041.125-.081.188-.125s.1-.066.145-.1q.267-.191.519-.407l.131-.115s0,0,0,0c.036-.031.071-.063.106-.1A8.331,8.331,0,0,0,324.2,211.715Z" transform="translate(-144.576 -94.769)" fill="#304c8e"/>
      <path id="Path_608912" data-name="Path 608912" d="M308.333,158.237c-.056-.079-.112-.158-.169-.236s-.114-.156-.173-.234q-.643-.871-1.34-1.675c-.094-.111-.191-.22-.288-.328s-.205-.226-.309-.338c-.05-.053-.1-.108-.151-.162-.1-.1-.195-.205-.293-.307-.117-.119-.232-.235-.35-.352l-.13-.125-.157-.152q-.553-.528-1.128-1.007c-.052-.045-.1-.087-.157-.13-.221-.182-.446-.358-.672-.528-.056-.043-.112-.084-.169-.126-.185-.137-.374-.272-.563-.4q-.108-.075-.218-.147c-.074-.049-.146-.1-.22-.144a16.912,16.912,0,0,0-1.785-1.006,10.1,10.1,0,0,0-7.588-.875l4.364-1.726c2.28-.945,5.087-.795,8.122.674,4.82,2.334,9.062,7.432,11.535,13.247l-4.862,2.014c-.037-.091-.076-.183-.117-.274s-.079-.182-.12-.273-.08-.182-.123-.272c-.086-.19-.174-.38-.266-.569q-.055-.119-.115-.238l-.133-.267c-.043-.089-.089-.177-.134-.265-.09-.176-.181-.352-.276-.526-.047-.087-.093-.174-.142-.261-.094-.174-.191-.347-.29-.516s-.2-.343-.3-.51l-.018-.029c-.044-.075-.09-.149-.135-.223-.1-.168-.207-.334-.314-.5-.158-.247-.319-.492-.484-.734-.054-.08-.109-.161-.166-.24S308.39,158.316,308.333,158.237Z" transform="translate(-131.609 -66.437)" fill="#178e55"/>
      <path id="Path_608913" data-name="Path 608913" d="M308.782,176.186c0,.134,0,.266,0,.4,0,.1,0,.2-.008.3s-.007.191-.012.287c-.012.245-.027.486-.048.723-.009.106-.019.211-.029.316-.009.083-.018.164-.028.246-.007.062-.014.124-.022.184-.012.1-.025.191-.039.285-.023.156-.048.311-.074.464-.008.048-.017.1-.025.144-.015.085-.031.17-.049.254q-.059.3-.13.592c-.019.077-.037.153-.057.229-.008.036-.018.071-.028.107-.021.079-.043.158-.066.237-.027.095-.054.188-.082.28s-.057.182-.087.273-.054.16-.082.239c-.007.02-.015.041-.022.06-.028.078-.057.155-.086.231s-.067.174-.1.259q-.033.081-.068.16c-.008.021-.017.041-.025.061-.017.038-.033.077-.051.114-.024.054-.049.111-.074.164-.037.082-.076.162-.116.243s-.095.188-.144.28c-.029.056-.059.111-.09.166-.006.012-.013.024-.021.037-.038.071-.079.141-.12.21s-.086.145-.131.216-.106.168-.161.251c-.04.059-.08.119-.121.177s-.08.113-.12.168c-.107.146-.217.288-.33.424a8.461,8.461,0,0,1-.772.817c-.035.034-.07.065-.106.1l0,0-.132.115c-.168.145-.34.279-.519.406-.048.035-.1.069-.145.1s-.125.084-.188.124l-.12.076c-.011.006-.021.013-.033.019-.04.026-.08.049-.121.074a7.53,7.53,0,0,1-.777.395l-.543.213-.009,0a10.035,10.035,0,0,1-7.709-.832c-7.637-3.7-13.828-14.339-13.828-23.772,0-5.971,2.482-10.025,6.24-11.26a10.1,10.1,0,0,1,7.588.876,16.829,16.829,0,0,1,1.785,1.006c.073.048.147.094.219.143s.146.1.218.147c.189.129.377.262.563.4.057.042.113.083.169.126.227.17.452.347.673.528.053.043.105.086.157.131.382.318.759.655,1.128,1.007l.157.151.13.126c.118.117.233.233.35.352.1.1.2.2.293.306l.151.162c.1.112.206.224.309.338s.194.218.288.329q.7.8,1.34,1.675c.058.077.116.155.173.234s.113.157.169.237.113.158.168.239.111.16.166.24q.248.363.485.734c.106.166.21.332.313.5.046.073.09.148.135.223l.018.029q.152.253.3.51c.1.17.195.343.29.516.048.086.094.173.142.261q.14.261.277.526c.045.087.09.176.134.265l.133.267.115.238q.136.283.266.569l.122.272c.041.091.081.181.12.273s.078.183.116.274.089.211.132.317c.086.212.171.424.253.637.034.089.068.176.1.265q.091.241.175.481c.053.15.106.3.156.45l.045.135c.025.074.049.149.073.224.077.236.15.474.22.711.02.064.039.127.056.191s.045.153.065.229.034.123.05.184c.031.112.061.224.09.334.036.14.071.28.106.42l.084.358c.014.06.028.123.042.184.024.113.049.227.072.34,0,.019.008.039.013.058q.04.192.077.384c.013.07.026.14.039.21q.028.149.053.3c.024.136.046.274.068.41.005.042.013.084.019.125.016.1.03.207.044.31.006.037.01.075.015.112.018.13.034.261.049.391s.03.263.043.395a.021.021,0,0,0,0,.008c.008.086.016.173.024.258,0,.032.005.063.008.1.007.069.013.138.018.206.009.127.019.254.026.381q.011.158.016.315c0,.015,0,.029,0,.045,0,.068.006.135.008.2,0,.1.007.2.008.3,0,.018,0,.035,0,.051C308.78,175.905,308.782,176.046,308.782,176.186Z" transform="translate(-126.504 -68.013)" fill="#178e55"/>
      <path id="Path_608914" data-name="Path 608914" d="M320.845,216.675c-.177.078-.359.149-.543.213Z" transform="translate(-144.132 -97.501)" fill="#304c8e"/>
      <path id="Path_608915" data-name="Path 608915" d="M320.093,188.134c0,.134,0,.266,0,.4,0,.1,0,.2-.008.3s-.007.191-.012.287c-.012.245-.027.486-.048.723-.009.106-.019.211-.029.316-.009.083-.018.164-.028.246-.007.062-.014.124-.022.184-.011.1-.025.191-.038.285-.022.156-.048.311-.074.464-.008.048-.017.1-.025.143-.015.085-.031.171-.049.254-.04.2-.083.4-.13.592-.019.077-.037.153-.057.228-.008.036-.018.072-.028.107-.021.08-.044.159-.065.237-.027.094-.054.188-.082.279s-.057.182-.087.273-.054.16-.082.239c-.007.02-.015.041-.022.061-.028.078-.057.155-.086.231s-.067.174-.1.259q-.033.081-.068.16c-.008.021-.016.041-.025.061-.016.038-.033.076-.051.114-.024.055-.049.111-.074.164q-.056.122-.115.243c-.047.095-.095.188-.144.28-.029.056-.059.111-.09.166a.415.415,0,0,1-.021.037c-.039.072-.079.141-.12.21s-.086.145-.131.216-.106.168-.161.25c-.04.06-.08.119-.121.177s-.08.113-.12.168c-.107.146-.217.288-.33.424L306.266,181.8l11.573-4.1c.044.105.089.211.131.317.086.212.172.424.253.637.034.089.068.176.1.265.061.161.119.322.175.481s.106.3.156.45c.015.046.03.091.046.135.024.075.049.15.072.224.077.236.15.475.221.711.02.064.039.127.056.191s.044.153.065.23c.018.062.034.122.05.184.032.112.061.224.09.334.036.14.071.28.106.42l.084.358c.014.06.028.122.042.184.025.113.049.227.072.34,0,.019.008.039.013.058.027.128.052.256.077.385.013.07.025.14.038.21.019.1.036.2.052.3.024.136.047.274.068.41.006.042.013.084.019.126.016.1.03.206.045.31.005.037.01.074.015.112q.026.2.049.391c.015.132.03.263.043.4a.022.022,0,0,0,0,.008q.012.129.023.258c0,.031.006.063.008.1.007.069.013.138.018.206.009.127.019.254.025.381.007.1.013.21.016.315,0,.015,0,.029,0,.044,0,.068.006.135.008.2,0,.1.007.2.008.3,0,.017,0,.035,0,.051C320.092,187.853,320.093,187.994,320.093,188.134Z" transform="translate(-137.816 -79.961)" fill="#ffe126"/>
      <path id="Path_608916" data-name="Path 608916" d="M334.138,184.559a15.216,15.216,0,0,1-1.541,7.1,9.231,9.231,0,0,1-1.88,2.493l-4.127,1.112c.113-.136.222-.279.33-.425.041-.056.081-.112.12-.168s.081-.118.121-.177c.055-.083.108-.166.161-.25s.089-.142.131-.216.081-.139.12-.21a.282.282,0,0,0,.021-.037c.03-.054.061-.109.09-.166.049-.092.1-.185.144-.279s.078-.161.115-.243c.026-.054.051-.109.075-.164.018-.037.034-.076.05-.114.009-.02.017-.04.025-.061.024-.052.046-.106.068-.16.035-.085.069-.171.1-.258s.058-.153.086-.231l.023-.061c.028-.079.054-.158.081-.239s.059-.18.087-.273.056-.185.082-.279c.024-.078.045-.158.065-.237.01-.036.02-.071.028-.107.02-.076.04-.151.057-.228.048-.194.091-.392.13-.592.018-.084.034-.169.049-.254.008-.048.018-.1.026-.144.026-.152.051-.307.073-.464.014-.095.027-.189.039-.285.008-.061.015-.123.022-.184.01-.081.019-.163.028-.246.01-.105.02-.21.029-.316.021-.237.036-.478.048-.723,0-.095.008-.19.012-.287s.006-.2.008-.3c0-.132,0-.263,0-.4s0-.281-.005-.422c0-.016,0-.034,0-.051,0-.1,0-.2-.008-.3,0-.067,0-.135-.008-.2,0-.015,0-.029,0-.045,0-.105-.009-.21-.016-.315-.007-.127-.016-.254-.025-.381,0-.069-.01-.137-.018-.206q0-.049-.008-.1c-.007-.086-.015-.172-.023-.259a.022.022,0,0,1,0-.008c-.013-.132-.028-.263-.043-.395s-.031-.26-.049-.391q-.007-.056-.015-.112c-.014-.1-.028-.206-.045-.31-.006-.042-.013-.084-.019-.125-.021-.136-.045-.274-.068-.41-.017-.1-.034-.2-.052-.3-.013-.07-.026-.14-.039-.21-.025-.128-.05-.256-.077-.384,0-.02-.008-.04-.013-.058-.023-.113-.047-.228-.072-.34-.014-.062-.028-.124-.042-.184l-.084-.358c-.034-.14-.07-.279-.106-.42-.029-.111-.058-.222-.09-.334-.015-.062-.032-.122-.05-.184s-.043-.152-.065-.229-.036-.127-.056-.191c-.07-.236-.144-.474-.221-.711-.022-.074-.047-.149-.072-.223-.015-.045-.03-.09-.046-.135-.05-.151-.1-.3-.156-.45s-.114-.321-.175-.482c-.031-.089-.065-.177-.1-.265-.08-.213-.166-.425-.253-.637-.042-.106-.086-.212-.132-.317l4.862-2.014A27.26,27.26,0,0,1,334.138,184.559Z" transform="translate(-146.961 -78.313)" fill="#ffe126"/>
      <path id="Path_608917" data-name="Path 608917" d="M271.668,372.865s2.663-1.414,4.315-.509,1.25,3.144-1.044,4.4-3.075,3.465-4.512,3.965-5,.119-4.984-1.438.383-4.25.383-4.25Z" transform="translate(-119.446 -167.419)" fill="#3c3b63"/>
      <path id="Path_608918" data-name="Path 608918" d="M287.579,385.442s-1.355,3.55.226,4.316,3.785,1.407,5.47.233,3.636-2.833,5.192-3.67,2.91-2.04,1.245-3.18-2.422-1.195-4.637-.229S287.579,385.442,287.579,385.442Z" transform="translate(-129.163 -172)" fill="#3c3b63"/>
      <path id="Path_608919" data-name="Path 608919" d="M266.252,293a10.025,10.025,0,0,0-.7,4.8,26.042,26.042,0,0,0,1.405,7.257l-.143,10.571a34.679,34.679,0,0,0-1.775,12.613c.362,6.92.587,11.214.587,11.214s-.215.809,2.7.736,3.364-2.169,3.364-2.169,1.185-15.454,2-18.129,1.346-12.527,1.367-12.209c.241,3.668,2.166,12.662,2.166,12.662s-.336,4.244-.606,11.277a106.19,106.19,0,0,0,.377,13.3,4.88,4.88,0,0,0,3.625.688c2.294-.359,2.789-1.581,2.789-1.581s1.153-19.121,2.33-24.048.054-26.441.054-26.441Z" transform="translate(-119.246 -131.845)" fill="#304c8e"/>
      <path id="Path_608920" data-name="Path 608920" d="M289.523,217.221l1.775-1.334a2.69,2.69,0,0,1,2.149.532,4.3,4.3,0,0,1,1.145,2.387l-8.057,8.786-3.681-4.984Z" transform="translate(-127.281 -97.127)" fill="#304c8e"/>
      <path id="Path_608921" data-name="Path 608921" d="M319.69,216.238a8.882,8.882,0,0,1-.83-3,20,20,0,0,1,.167-3.239.949.949,0,0,1,1.092.784c.168.925.129,1.61.76,1.306s3.169-2.247,3.169-2.247a21.943,21.943,0,0,1,.229,4.389,15.05,15.05,0,0,1-1.049,3.312S320.589,215.735,319.69,216.238Z" transform="translate(-143.476 -94.424)" fill="#ffd4d4"/>
      <path id="Path_608922" data-name="Path 608922" d="M301.123,213.728l1.941-2.645s-3.676-1.472-4.075-1.777.469-1.608-.112-2.138l-.58-.531a7.55,7.55,0,0,0-.355,2.969c.23,1.162.406,2.123.406,2.123S300.862,212.176,301.123,213.728Z" transform="translate(-134.046 -92.984)" fill="#ffd4d4"/>
      <path id="Path_608923" data-name="Path 608923" d="M265.937,229.789s-3.014,3.674-3.014,7.822,4.535-.436,7.631-1.852,8.521-6.254,9.252-7.045,6.557-10.568,6.557-10.568-.832-2.463-2.641-2.369-2.168.693-2.168.693-6.05,8.735-7.173,9.664S265.937,229.789,265.937,229.789Z" transform="translate(-118.312 -97.096)" fill="#ffe126"/>
      <path id="Path_608924" data-name="Path 608924" d="M288.1,229.326c-.129,1.16-.211,3.751-.948,4.114a11.893,11.893,0,0,1-3.163.345l-.042,2.515a47.531,47.531,0,0,0-5.287-1.7,1.269,1.269,0,0,1-.611,1.029c-.345.184-1.344.333-2.405.79l-.526-.095.419-10.745s6.043-1.146,6.428-1.178,5.494,1.559,5.494,1.559A10.642,10.642,0,0,1,288.1,229.326Z" transform="translate(-123.798 -100.977)" fill="#ffd4d4"/>
      <path id="Path_608925" data-name="Path 608925" d="M271.974,241.359s-3.348,2.852-5.176,2.554-3.951,3.357-2.29,8.889,1.154,5.035,1.923,10.032-1.923,10.713-1.923,10.713-.783,3.048,7.988,5.2,13.084-1.93,13.084-1.93.133-26.661-1.178-28.5a10.727,10.727,0,0,0-4.2-3.242,1.68,1.68,0,0,1-.573-2.334Z" transform="translate(-118.755 -108.608)" fill="#ffe126"/>
      <path id="Path_608926" data-name="Path 608926" d="M287.128,218.092c.079,1.873.352,4.005-2.052,5.837s-3.809,1.148-3.809,1.148.37-1.37-.4-1.521-1.449,1.049-1.062,2.01.785,3.479-1.973,3.81-6.329-3.436-6.276-6.592a6.016,6.016,0,0,1,2.189-4.674s.392-3.044,6.495-3.318S287.128,218.092,287.128,218.092Z" transform="translate(-122.198 -96.647)" fill="#3c3b63"/>
      <path id="Path_608927" data-name="Path 608927" d="M272.14,217.932a2.376,2.376,0,0,1,1.918,2.047,3.426,3.426,0,0,1-.308,2.622s.732.6.353,1.048-1.42,2.407-.437,3.937,2.862,7.417-.777,10.085a8.03,8.03,0,0,1-7.14,1.378s2.1.174,2.112-2.505-2.142-11.3-1.371-14.95,2.872-3.689,4.2-3.289S272.14,217.932,272.14,217.932Z" transform="translate(-119.584 -98.067)" fill="#3c3b63"/>
      <path id="Path_608928" data-name="Path 608928" d="M295.673,236.749s-3.452.664-3.011,4.789c.456,4.266,4.52,3.584,7.615,2.168s8.533-7.241,9.265-8.031,2.989-13.777,2.989-13.777-.833-2.463-2.641-2.369-2.168.693-2.168.693-2.482,11.944-3.605,12.873S295.673,236.749,295.673,236.749Z" transform="translate(-131.677 -98.784)" fill="#ffe126"/>
    </g>
  </g>
</svg>
