<svg xmlns="http://www.w3.org/2000/svg" xmlns:xlink="http://www.w3.org/1999/xlink" width="1238.046" height="724.041" viewBox="0 0 1238.046 724.041">
  <defs>
    <linearGradient id="linear-gradient" x1="0.703" y1="0.086" x2="0.527" y2="1.061" gradientUnits="objectBoundingBox">
      <stop offset="0" stop-color="#f51800"/>
      <stop offset="0.247" stop-color="#f97a00"/>
      <stop offset="0.634" stop-color="#fcf700"/>
      <stop offset="1" stop-color="#94fd00"/>
    </linearGradient>
  </defs>
  <g id="Group_1073134" data-name="Group 1073134" transform="translate(-180 -7555.325)">
    <g id="Group_1073132" data-name="Group 1073132">
      <g id="Group_1071752" data-name="Group 1071752" transform="translate(0 -947.984)">
        <rect id="Rectangle_375539" data-name="Rectangle 375539" width="1050" height="636" transform="translate(265 8549)" fill="url(#linear-gradient)"/>
        <g id="Group_1071745" data-name="Group 1071745" transform="translate(1165.659 8582.139)">
          <g id="Group_1071586" data-name="Group 1071586" transform="translate(0 62)">
            <g id="Group_1071585" data-name="Group 1071585">
              <path id="Path_610086" data-name="Path 610086" d="M4.291,0H95.837c2.37,0,4.291,2.24,4.291,5v25.02c0,2.764-1.921,5-4.291,5H4.291c-2.37,0-4.291-2.24-4.291-5V5C0,2.24,1.921,0,4.291,0Z" fill="#304c8e"/>
              <rect id="Rectangle_347548" data-name="Rectangle 347548" width="52.448" height="4" transform="translate(23.994 35.561)" fill="#ffe126"/>
            </g>
            <path id="Path_613466" data-name="Path 613466" d="M19.5,14.323h6.458V16h-9V14.639l6.25-9.031H17V3.914h8.757V5.242Zm7.512-2.9a5.3,5.3,0,0,1,.523-2.378A3.819,3.819,0,0,1,29,7.421a4.14,4.14,0,0,1,2.175-.569,3.923,3.923,0,0,1,2.951,1.17,4.6,4.6,0,0,1,1.224,3.1l.008.473a5.343,5.343,0,0,1-.51,2.374,3.773,3.773,0,0,1-1.461,1.619,4.17,4.17,0,0,1-2.2.573A3.9,3.9,0,0,1,28.15,14.9a4.848,4.848,0,0,1-1.141-3.374Zm2.017.174a3.619,3.619,0,0,0,.573,2.171,1.862,1.862,0,0,0,1.594.784,1.842,1.842,0,0,0,1.59-.8,4,4,0,0,0,.569-2.333,3.572,3.572,0,0,0-.585-2.158,1.973,1.973,0,0,0-3.158-.012A3.922,3.922,0,0,0,29.025,11.6Zm9.911-4.582.058,1.038a3.229,3.229,0,0,1,2.615-1.2q2.806,0,2.855,3.212V16H42.448V10.181a1.85,1.85,0,0,0-.369-1.266A1.554,1.554,0,0,0,40.871,8.5a1.944,1.944,0,0,0-1.818,1.1V16H37.036V7.019ZM51.886,16a3.113,3.113,0,0,1-.232-.838,3.393,3.393,0,0,1-4.565.232,2.47,2.47,0,0,1-.855-1.909,2.55,2.55,0,0,1,1.067-2.2,5.169,5.169,0,0,1,3.051-.768h1.237V9.924a1.573,1.573,0,0,0-.39-1.116,1.547,1.547,0,0,0-1.187-.419,1.777,1.777,0,0,0-1.129.344,1.066,1.066,0,0,0-.44.876H46.424a2.239,2.239,0,0,1,.49-1.382,3.263,3.263,0,0,1,1.332-1.009,4.68,4.68,0,0,1,1.88-.365,3.769,3.769,0,0,1,2.515.793A2.827,2.827,0,0,1,53.6,9.874v4.051a4.591,4.591,0,0,0,.34,1.934V16Zm-2.216-1.453a2.294,2.294,0,0,0,1.125-.291,1.941,1.941,0,0,0,.793-.78V11.783H50.5a2.973,2.973,0,0,0-1.685.39,1.264,1.264,0,0,0-.564,1.1,1.179,1.179,0,0,0,.386.926A1.5,1.5,0,0,0,49.669,14.547ZM65.283,16H63.274V6.291L60.311,7.3V5.607l4.715-1.735h.257Z" transform="translate(7.629 9.781)" fill="#fff"/>
          </g>
          <g id="Group_1071582" data-name="Group 1071582" transform="translate(23.363)">
            <ellipse id="Ellipse_5840" data-name="Ellipse 5840" cx="26.701" cy="28" rx="26.701" ry="28" fill="#7e19b8" opacity="0.3"/>
            <ellipse id="Ellipse_5841" data-name="Ellipse 5841" cx="16.211" cy="17" rx="16.211" ry="17" transform="translate(10.49 11)" fill="#7e19b8"/>
            <text id="_" data-name="+" transform="translate(21.933 33)" fill="#fff" font-size="18" font-family="Roboto-Regular, Roboto"><tspan x="0" y="0">+</tspan></text>
          </g>
        </g>
        <g id="Group_1071747" data-name="Group 1071747" transform="translate(770.26 8765.938)">
          <g id="Group_1071586-2" data-name="Group 1071586" transform="translate(0 62)">
            <g id="Group_1071585-2" data-name="Group 1071585">
              <path id="Path_610086-2" data-name="Path 610086" d="M4.291,0H95.837c2.37,0,4.291,2.24,4.291,5v25.02c0,2.764-1.921,5-4.291,5H4.291c-2.37,0-4.291-2.24-4.291-5V5C0,2.24,1.921,0,4.291,0Z" fill="#304c8e"/>
              <rect id="Rectangle_347548-2" data-name="Rectangle 347548" width="52.448" height="4" transform="translate(23.994 35.561)" fill="#ffe126"/>
            </g>
            <path id="Path_613467" data-name="Path 613467" d="M19.5,14.323h6.458V16h-9V14.639l6.25-9.031H17V3.914h8.757V5.242Zm7.512-2.9a5.3,5.3,0,0,1,.523-2.378A3.819,3.819,0,0,1,29,7.421a4.14,4.14,0,0,1,2.175-.569,3.923,3.923,0,0,1,2.951,1.17,4.6,4.6,0,0,1,1.224,3.1l.008.473a5.343,5.343,0,0,1-.51,2.374,3.773,3.773,0,0,1-1.461,1.619,4.17,4.17,0,0,1-2.2.573A3.9,3.9,0,0,1,28.15,14.9a4.848,4.848,0,0,1-1.141-3.374Zm2.017.174a3.619,3.619,0,0,0,.573,2.171,1.862,1.862,0,0,0,1.594.784,1.842,1.842,0,0,0,1.59-.8,4,4,0,0,0,.569-2.333,3.572,3.572,0,0,0-.585-2.158,1.973,1.973,0,0,0-3.158-.012A3.922,3.922,0,0,0,29.025,11.6Zm9.911-4.582.058,1.038a3.229,3.229,0,0,1,2.615-1.2q2.806,0,2.855,3.212V16H42.448V10.181a1.85,1.85,0,0,0-.369-1.266A1.554,1.554,0,0,0,40.871,8.5a1.944,1.944,0,0,0-1.818,1.1V16H37.036V7.019ZM51.886,16a3.113,3.113,0,0,1-.232-.838,3.393,3.393,0,0,1-4.565.232,2.47,2.47,0,0,1-.855-1.909,2.55,2.55,0,0,1,1.067-2.2,5.169,5.169,0,0,1,3.051-.768h1.237V9.924a1.573,1.573,0,0,0-.39-1.116,1.547,1.547,0,0,0-1.187-.419,1.777,1.777,0,0,0-1.129.344,1.066,1.066,0,0,0-.44.876H46.424a2.239,2.239,0,0,1,.49-1.382,3.263,3.263,0,0,1,1.332-1.009,4.68,4.68,0,0,1,1.88-.365,3.769,3.769,0,0,1,2.515.793A2.827,2.827,0,0,1,53.6,9.874v4.051a4.591,4.591,0,0,0,.34,1.934V16Zm-2.216-1.453a2.294,2.294,0,0,0,1.125-.291,1.941,1.941,0,0,0,.793-.78V11.783H50.5a2.973,2.973,0,0,0-1.685.39,1.264,1.264,0,0,0-.564,1.1,1.179,1.179,0,0,0,.386.926A1.5,1.5,0,0,0,49.669,14.547ZM67.948,16H59.821V14.614l4.026-4.391A10.025,10.025,0,0,0,65.088,8.6a2.629,2.629,0,0,0,.369-1.307A1.986,1.986,0,0,0,64.972,5.9a1.684,1.684,0,0,0-1.307-.531,1.942,1.942,0,0,0-1.519.6,2.35,2.35,0,0,0-.54,1.635H59.589a3.953,3.953,0,0,1,.5-1.988,3.458,3.458,0,0,1,1.436-1.374,4.571,4.571,0,0,1,2.154-.49,4.088,4.088,0,0,1,2.777.884,3.069,3.069,0,0,1,1.017,2.445,4.148,4.148,0,0,1-.51,1.9,10.785,10.785,0,0,1-1.673,2.254L62.336,14.39h5.611Z" transform="translate(7.629 9.781)" fill="#fff"/>
          </g>
          <g id="Group_1071582-2" data-name="Group 1071582" transform="translate(23.363)">
            <ellipse id="Ellipse_5840-2" data-name="Ellipse 5840" cx="26.701" cy="28" rx="26.701" ry="28" fill="#7e19b8" opacity="0.3"/>
            <ellipse id="Ellipse_5841-2" data-name="Ellipse 5841" cx="16.211" cy="17" rx="16.211" ry="17" transform="translate(10.49 11)" fill="#7e19b8"/>
            <text id="_2" data-name="+" transform="translate(21.933 33)" fill="#fff" font-size="18" font-family="Roboto-Regular, Roboto"><tspan x="0" y="0">+</tspan></text>
          </g>
        </g>
        <g id="Group_1071748" data-name="Group 1071748" transform="translate(294.252 9030.938)">
          <g id="Group_1071586-3" data-name="Group 1071586" transform="translate(0 62)">
            <g id="Group_1071585-3" data-name="Group 1071585">
              <path id="Path_610086-3" data-name="Path 610086" d="M4.291,0H95.837c2.37,0,4.291,2.24,4.291,5v25.02c0,2.764-1.921,5-4.291,5H4.291c-2.37,0-4.291-2.24-4.291-5V5C0,2.24,1.921,0,4.291,0Z" fill="#304c8e"/>
              <rect id="Rectangle_347548-3" data-name="Rectangle 347548" width="52.448" height="4" transform="translate(23.994 35.561)" fill="#ffe126"/>
            </g>
            <path id="Path_613465" data-name="Path 613465" d="M19.5,14.323h6.458V16h-9V14.639l6.25-9.031H17V3.914h8.757V5.242Zm7.512-2.9a5.3,5.3,0,0,1,.523-2.378A3.819,3.819,0,0,1,29,7.421a4.14,4.14,0,0,1,2.175-.569,3.923,3.923,0,0,1,2.951,1.17,4.6,4.6,0,0,1,1.224,3.1l.008.473a5.343,5.343,0,0,1-.51,2.374,3.773,3.773,0,0,1-1.461,1.619,4.17,4.17,0,0,1-2.2.573A3.9,3.9,0,0,1,28.15,14.9a4.848,4.848,0,0,1-1.141-3.374Zm2.017.174a3.619,3.619,0,0,0,.573,2.171,1.862,1.862,0,0,0,1.594.784,1.842,1.842,0,0,0,1.59-.8,4,4,0,0,0,.569-2.333,3.572,3.572,0,0,0-.585-2.158,1.973,1.973,0,0,0-3.158-.012A3.922,3.922,0,0,0,29.025,11.6Zm9.911-4.582.058,1.038a3.229,3.229,0,0,1,2.615-1.2q2.806,0,2.855,3.212V16H42.448V10.181a1.85,1.85,0,0,0-.369-1.266A1.554,1.554,0,0,0,40.871,8.5a1.944,1.944,0,0,0-1.818,1.1V16H37.036V7.019ZM51.886,16a3.113,3.113,0,0,1-.232-.838,3.393,3.393,0,0,1-4.565.232,2.47,2.47,0,0,1-.855-1.909,2.55,2.55,0,0,1,1.067-2.2,5.169,5.169,0,0,1,3.051-.768h1.237V9.924a1.573,1.573,0,0,0-.39-1.116,1.547,1.547,0,0,0-1.187-.419,1.777,1.777,0,0,0-1.129.344,1.066,1.066,0,0,0-.44.876H46.424a2.239,2.239,0,0,1,.49-1.382,3.263,3.263,0,0,1,1.332-1.009,4.68,4.68,0,0,1,1.88-.365,3.769,3.769,0,0,1,2.515.793A2.827,2.827,0,0,1,53.6,9.874v4.051a4.591,4.591,0,0,0,.34,1.934V16Zm-2.216-1.453a2.294,2.294,0,0,0,1.125-.291,1.941,1.941,0,0,0,.793-.78V11.783H50.5a2.973,2.973,0,0,0-1.685.39,1.264,1.264,0,0,0-.564,1.1,1.179,1.179,0,0,0,.386.926A1.5,1.5,0,0,0,49.669,14.547ZM62.154,9.036h1.229a2.2,2.2,0,0,0,1.473-.481,1.718,1.718,0,0,0,.544-1.37,1.872,1.872,0,0,0-.452-1.341,1.821,1.821,0,0,0-1.382-.477,1.926,1.926,0,0,0-1.336.469,1.567,1.567,0,0,0-.523,1.224H59.688a3.053,3.053,0,0,1,.494-1.693A3.318,3.318,0,0,1,61.56,4.176a4.489,4.489,0,0,1,1.98-.427,4.157,4.157,0,0,1,2.843.909,3.19,3.19,0,0,1,1.033,2.528A2.568,2.568,0,0,1,66.9,8.716,3.253,3.253,0,0,1,65.557,9.8a2.965,2.965,0,0,1,1.515,1.071,2.932,2.932,0,0,1,.519,1.743,3.246,3.246,0,0,1-1.116,2.59,4.9,4.9,0,0,1-5.79.033,3.062,3.062,0,0,1-1.112-2.474h2.017a1.687,1.687,0,0,0,.535,1.295,2.03,2.03,0,0,0,1.44.5,2.094,2.094,0,0,0,1.478-.5,1.868,1.868,0,0,0,.54-1.444,1.887,1.887,0,0,0-.564-1.469,2.413,2.413,0,0,0-1.677-.515H62.154Z" transform="translate(7.629 9.781)" fill="#fff"/>
          </g>
          <g id="Group_1071582-3" data-name="Group 1071582" transform="translate(23.363)">
            <ellipse id="Ellipse_5840-3" data-name="Ellipse 5840" cx="26.701" cy="28" rx="26.701" ry="28" fill="#7e19b8" opacity="0.3"/>
            <ellipse id="Ellipse_5841-3" data-name="Ellipse 5841" cx="16.211" cy="17" rx="16.211" ry="17" transform="translate(10.49 11)" fill="#7e19b8"/>
            <text id="_3" data-name="+" transform="translate(21.933 33)" fill="#fff" font-size="18" font-family="Roboto-Regular, Roboto"><tspan x="0" y="0">+</tspan></text>
          </g>
        </g>
        <g id="Group_1071746" data-name="Group 1071746" transform="translate(294.252 8582.139)">
          <g id="Group_1071586-4" data-name="Group 1071586" transform="translate(0 62)">
            <g id="Group_1071585-4" data-name="Group 1071585">
              <path id="Path_610086-4" data-name="Path 610086" d="M4.291,0H95.837c2.37,0,4.291,2.24,4.291,5v25.02c0,2.764-1.921,5-4.291,5H4.291c-2.37,0-4.291-2.24-4.291-5V5C0,2.24,1.921,0,4.291,0Z" fill="#304c8e"/>
              <rect id="Rectangle_347548-4" data-name="Rectangle 347548" width="52.448" height="4" transform="translate(23.994 35.561)" fill="#ffe126"/>
            </g>
            <path id="Path_613464" data-name="Path 613464" d="M19.5,14.323h6.458V16h-9V14.639l6.25-9.031H17V3.914h8.757V5.242Zm7.512-2.9a5.3,5.3,0,0,1,.523-2.378A3.819,3.819,0,0,1,29,7.421a4.14,4.14,0,0,1,2.175-.569,3.923,3.923,0,0,1,2.951,1.17,4.6,4.6,0,0,1,1.224,3.1l.008.473a5.343,5.343,0,0,1-.51,2.374,3.773,3.773,0,0,1-1.461,1.619,4.17,4.17,0,0,1-2.2.573A3.9,3.9,0,0,1,28.15,14.9a4.848,4.848,0,0,1-1.141-3.374Zm2.017.174a3.619,3.619,0,0,0,.573,2.171,1.862,1.862,0,0,0,1.594.784,1.842,1.842,0,0,0,1.59-.8,4,4,0,0,0,.569-2.333,3.572,3.572,0,0,0-.585-2.158,1.973,1.973,0,0,0-3.158-.012A3.922,3.922,0,0,0,29.025,11.6Zm9.911-4.582.058,1.038a3.229,3.229,0,0,1,2.615-1.2q2.806,0,2.855,3.212V16H42.448V10.181a1.85,1.85,0,0,0-.369-1.266A1.554,1.554,0,0,0,40.871,8.5a1.944,1.944,0,0,0-1.818,1.1V16H37.036V7.019ZM51.886,16a3.113,3.113,0,0,1-.232-.838,3.393,3.393,0,0,1-4.565.232,2.47,2.47,0,0,1-.855-1.909,2.55,2.55,0,0,1,1.067-2.2,5.169,5.169,0,0,1,3.051-.768h1.237V9.924a1.573,1.573,0,0,0-.39-1.116,1.547,1.547,0,0,0-1.187-.419,1.777,1.777,0,0,0-1.129.344,1.066,1.066,0,0,0-.44.876H46.424a2.239,2.239,0,0,1,.49-1.382,3.263,3.263,0,0,1,1.332-1.009,4.68,4.68,0,0,1,1.88-.365,3.769,3.769,0,0,1,2.515.793A2.827,2.827,0,0,1,53.6,9.874v4.051a4.591,4.591,0,0,0,.34,1.934V16Zm-2.216-1.453a2.294,2.294,0,0,0,1.125-.291,1.941,1.941,0,0,0,.793-.78V11.783H50.5a2.973,2.973,0,0,0-1.685.39,1.264,1.264,0,0,0-.564,1.1,1.179,1.179,0,0,0,.386.926A1.5,1.5,0,0,0,49.669,14.547Zm16.975-2.855h1.5v1.619h-1.5V16H64.627V13.311H59.406l-.058-1.229,5.213-8.168h2.083Zm-5.18,0h3.163V6.645l-.149.266Z" transform="translate(7.629 9.781)" fill="#fff"/>
          </g>
          <g id="Group_1071582-4" data-name="Group 1071582" transform="translate(23.363)">
            <ellipse id="Ellipse_5840-4" data-name="Ellipse 5840" cx="26.701" cy="28" rx="26.701" ry="28" fill="#7e19b8" opacity="0.3"/>
            <ellipse id="Ellipse_5841-4" data-name="Ellipse 5841" cx="16.211" cy="17" rx="16.211" ry="17" transform="translate(10.49 11)" fill="#7e19b8"/>
            <text id="_4" data-name="+" transform="translate(21.933 33)" fill="#fff" font-size="18" font-family="Roboto-Regular, Roboto"><tspan x="0" y="0">+</tspan></text>
          </g>
        </g>
        <g id="Group_1071749" data-name="Group 1071749" transform="translate(565.779 8534.142)">
          <rect id="Rectangle_375540" data-name="Rectangle 375540" width="419.585" height="37" rx="11" transform="translate(4.768)" fill="#304c8e"/>
          <path id="Path_613470" data-name="Path 613470" d="M36.961,10.6H32v3.719h5.8V16H29.9V3.914h7.844V5.607H32V8.944h4.964Zm4.5,5.4H39.443V3.25H41.46ZM52.591,8.861a4.991,4.991,0,0,0-.822-.066A1.85,1.85,0,0,0,49.9,9.857V16H47.885V7.019H49.81l.05,1a2.273,2.273,0,0,1,2.025-1.17,1.888,1.888,0,0,1,.714.116ZM56.011,16H53.994V7.019h2.017ZM53.869,4.686a1.071,1.071,0,0,1,.295-.772,1.113,1.113,0,0,1,.843-.307,1.127,1.127,0,0,1,.847.307,1.062,1.062,0,0,1,.3.772,1.038,1.038,0,0,1-.3.76,1.136,1.136,0,0,1-.847.3,1.122,1.122,0,0,1-.843-.3A1.046,1.046,0,0,1,53.869,4.686Zm8.292,11.48a4.173,4.173,0,0,1-3.109-1.208,4.381,4.381,0,0,1-1.191-3.217v-.249a5.389,5.389,0,0,1,.519-2.4,3.949,3.949,0,0,1,1.457-1.648,3.851,3.851,0,0,1,2.092-.589,3.525,3.525,0,0,1,2.835,1.17,4.949,4.949,0,0,1,1,3.312v.813H59.9a2.7,2.7,0,0,0,.743,1.76,2.23,2.23,0,0,0,1.639.647,2.731,2.731,0,0,0,2.258-1.121l1.087,1.038a3.631,3.631,0,0,1-1.44,1.249A4.509,4.509,0,0,1,62.162,16.166Zm-.241-7.695a1.7,1.7,0,0,0-1.341.581,3.012,3.012,0,0,0-.652,1.619h3.843v-.149a2.452,2.452,0,0,0-.54-1.531A1.686,1.686,0,0,0,61.921,8.471ZM72.364,13.56a.914.914,0,0,0-.444-.822,4.723,4.723,0,0,0-1.473-.5,7.574,7.574,0,0,1-1.718-.548,2.293,2.293,0,0,1-1.511-2.117A2.391,2.391,0,0,1,68.2,7.633a3.872,3.872,0,0,1,2.49-.78,4.029,4.029,0,0,1,2.6.8,2.529,2.529,0,0,1,.992,2.067H72.264a1.243,1.243,0,0,0-.432-.967,1.654,1.654,0,0,0-1.146-.386A1.787,1.787,0,0,0,69.6,8.67a.968.968,0,0,0-.419.822.818.818,0,0,0,.39.722,5.365,5.365,0,0,0,1.577.519,7.466,7.466,0,0,1,1.864.623,2.639,2.639,0,0,1,1,.867,2.212,2.212,0,0,1,.328,1.229,2.34,2.34,0,0,1-1,1.963,4.283,4.283,0,0,1-2.631.751,4.644,4.644,0,0,1-1.967-.4,3.238,3.238,0,0,1-1.345-1.1,2.594,2.594,0,0,1-.481-1.5h1.959a1.421,1.421,0,0,0,.54,1.1,2.1,2.1,0,0,0,1.32.386,2.04,2.04,0,0,0,1.212-.3A.938.938,0,0,0,72.364,13.56Zm3.387-2.117A5.253,5.253,0,0,1,76.734,8.1a3.157,3.157,0,0,1,2.611-1.249A2.958,2.958,0,0,1,81.76,7.923l.091-.9h1.818v8.708a3.619,3.619,0,0,1-1.1,2.789A4.189,4.189,0,0,1,79.6,19.536a4.783,4.783,0,0,1-1.93-.411A3.429,3.429,0,0,1,76.24,18.05l.955-1.212a2.883,2.883,0,0,0,2.291,1.1,2.228,2.228,0,0,0,1.585-.544,2.084,2.084,0,0,0,.581-1.6v-.606a2.97,2.97,0,0,1-2.324.971,3.15,3.15,0,0,1-2.577-1.253A5.423,5.423,0,0,1,75.75,11.443Zm2.009.174a3.616,3.616,0,0,0,.552,2.129,1.775,1.775,0,0,0,1.531.776,1.941,1.941,0,0,0,1.81-1.046V9.525A1.913,1.913,0,0,0,79.859,8.5a1.782,1.782,0,0,0-1.548.789A4.049,4.049,0,0,0,77.759,11.617Zm7.6-.191a5.3,5.3,0,0,1,.523-2.378,3.819,3.819,0,0,1,1.469-1.627,4.14,4.14,0,0,1,2.175-.569,3.923,3.923,0,0,1,2.951,1.17,4.6,4.6,0,0,1,1.224,3.1l.008.473a5.343,5.343,0,0,1-.51,2.374,3.773,3.773,0,0,1-1.461,1.619,4.17,4.17,0,0,1-2.2.573A3.9,3.9,0,0,1,86.5,14.9a4.848,4.848,0,0,1-1.141-3.374Zm2.017.174a3.619,3.619,0,0,0,.573,2.171,1.862,1.862,0,0,0,1.594.784,1.842,1.842,0,0,0,1.59-.8,4,4,0,0,0,.569-2.333,3.572,3.572,0,0,0-.585-2.158,1.973,1.973,0,0,0-3.158-.012A3.922,3.922,0,0,0,87.38,11.6Zm16.228,4.565a4.173,4.173,0,0,1-3.109-1.208,4.381,4.381,0,0,1-1.191-3.217v-.249a5.389,5.389,0,0,1,.519-2.4,3.949,3.949,0,0,1,1.457-1.648,3.851,3.851,0,0,1,2.092-.589,3.525,3.525,0,0,1,2.835,1.17,4.949,4.949,0,0,1,1,3.312v.813h-5.869a2.7,2.7,0,0,0,.743,1.76,2.23,2.23,0,0,0,1.639.647,2.731,2.731,0,0,0,2.258-1.121l1.087,1.038a3.631,3.631,0,0,1-1.44,1.249A4.509,4.509,0,0,1,103.608,16.166Zm-.241-7.695a1.7,1.7,0,0,0-1.341.581,3.012,3.012,0,0,0-.652,1.619h3.843v-.149a2.452,2.452,0,0,0-.54-1.531A1.686,1.686,0,0,0,103.367,8.471Zm7.28-1.453.058,1.038a3.229,3.229,0,0,1,2.615-1.2q2.806,0,2.855,3.212V16h-2.017V10.181a1.85,1.85,0,0,0-.369-1.266,1.554,1.554,0,0,0-1.208-.411,1.944,1.944,0,0,0-1.818,1.1V16h-2.017V7.019ZM123.173,16V8.513H121.8V7.019h1.37V6.2A3.085,3.085,0,0,1,124,3.889a3.18,3.18,0,0,1,2.324-.813,4.662,4.662,0,0,1,1.129.149l-.05,1.577a3.973,3.973,0,0,0-.772-.066,1.3,1.3,0,0,0-1.444,1.486v.8h1.826V8.513H125.19V16Zm10.758-.88a3.128,3.128,0,0,1-2.523,1.046,2.788,2.788,0,0,1-2.212-.855,3.637,3.637,0,0,1-.751-2.474V7.019h2.017v5.794q0,1.71,1.419,1.71a1.993,1.993,0,0,0,1.984-1.054V7.019h2.017V16h-1.9Zm5.877-8.1.058,1.038a3.229,3.229,0,0,1,2.615-1.2q2.806,0,2.855,3.212V16h-2.017V10.181a1.85,1.85,0,0,0-.369-1.266,1.554,1.554,0,0,0-1.208-.411,1.944,1.944,0,0,0-1.818,1.1V16h-2.017V7.019Zm11.272,7.537a1.824,1.824,0,0,0,1.253-.44,1.5,1.5,0,0,0,.531-1.087h1.9a2.963,2.963,0,0,1-.523,1.565,3.43,3.43,0,0,1-1.328,1.15,3.958,3.958,0,0,1-1.81.423,3.829,3.829,0,0,1-2.988-1.22,4.84,4.84,0,0,1-1.1-3.37v-.208a4.759,4.759,0,0,1,1.1-3.283A3.8,3.8,0,0,1,151.1,6.853a3.69,3.69,0,0,1,2.611.934,3.345,3.345,0,0,1,1.058,2.453h-1.9a1.847,1.847,0,0,0-.527-1.27,1.7,1.7,0,0,0-1.258-.5,1.775,1.775,0,0,0-1.511.71,3.621,3.621,0,0,0-.54,2.154v.324a3.682,3.682,0,0,0,.527,2.179A1.773,1.773,0,0,0,151.08,14.556ZM158.434,16h-2.017V7.019h2.017ZM156.293,4.686a1.07,1.07,0,0,1,.295-.772,1.113,1.113,0,0,1,.843-.307,1.127,1.127,0,0,1,.847.307,1.062,1.062,0,0,1,.3.772,1.038,1.038,0,0,1-.3.76,1.136,1.136,0,0,1-.847.3,1.122,1.122,0,0,1-.843-.3A1.046,1.046,0,0,1,156.293,4.686Zm3.959,6.74a5.3,5.3,0,0,1,.523-2.378,3.819,3.819,0,0,1,1.469-1.627,4.14,4.14,0,0,1,2.175-.569,3.923,3.923,0,0,1,2.951,1.17,4.6,4.6,0,0,1,1.224,3.1l.008.473a5.343,5.343,0,0,1-.51,2.374,3.773,3.773,0,0,1-1.461,1.619,4.17,4.17,0,0,1-2.2.573,3.9,3.9,0,0,1-3.042-1.266,4.848,4.848,0,0,1-1.141-3.374Zm2.017.174a3.619,3.619,0,0,0,.573,2.171,1.862,1.862,0,0,0,1.594.784,1.842,1.842,0,0,0,1.59-.8,4,4,0,0,0,.569-2.333,3.572,3.572,0,0,0-.585-2.158,1.973,1.973,0,0,0-3.158-.012A3.922,3.922,0,0,0,162.269,11.6Zm2.706-8.351h2.3l-2.3,2.515-1.619,0Zm7.205,3.769.058,1.038a3.229,3.229,0,0,1,2.615-1.2q2.806,0,2.855,3.212V16h-2.017V10.181a1.85,1.85,0,0,0-.369-1.266,1.554,1.554,0,0,0-1.208-.411,1.944,1.944,0,0,0-1.818,1.1V16H170.28V7.019Zm11.438,4.424a5.34,5.34,0,0,1,.963-3.333,3.085,3.085,0,0,1,2.582-1.258,2.931,2.931,0,0,1,2.308,1V3.25h2.017V16h-1.826l-.1-.93a2.973,2.973,0,0,1-2.416,1.1,3.068,3.068,0,0,1-2.552-1.27A5.535,5.535,0,0,1,183.619,11.443Zm2.017.174a3.739,3.739,0,0,0,.527,2.137,1.71,1.71,0,0,0,1.5.768,1.9,1.9,0,0,0,1.81-1.1V9.583A1.876,1.876,0,0,0,187.678,8.5a1.723,1.723,0,0,0-1.511.776A4.163,4.163,0,0,0,185.636,11.617Zm11.912,4.549a4.173,4.173,0,0,1-3.109-1.208,4.381,4.381,0,0,1-1.191-3.217v-.249a5.389,5.389,0,0,1,.519-2.4,3.949,3.949,0,0,1,1.457-1.648,3.851,3.851,0,0,1,2.092-.589,3.525,3.525,0,0,1,2.835,1.17,4.949,4.949,0,0,1,1,3.312v.813h-5.869a2.7,2.7,0,0,0,.743,1.76,2.23,2.23,0,0,0,1.639.647,2.731,2.731,0,0,0,2.258-1.121l1.087,1.038a3.631,3.631,0,0,1-1.44,1.249A4.509,4.509,0,0,1,197.548,16.166Zm-.241-7.695a1.7,1.7,0,0,0-1.341.581,3.012,3.012,0,0,0-.652,1.619h3.843v-.149a2.452,2.452,0,0,0-.54-1.531A1.686,1.686,0,0,0,197.307,8.471ZM204.861,16h-2.017V3.25h2.017Zm8.575,0h-2.017V7.019h2.017ZM211.294,4.686a1.07,1.07,0,0,1,.295-.772,1.113,1.113,0,0,1,.843-.307,1.127,1.127,0,0,1,.847.307,1.062,1.062,0,0,1,.3.772,1.038,1.038,0,0,1-.3.76,1.136,1.136,0,0,1-.847.3,1.122,1.122,0,0,1-.843-.3A1.046,1.046,0,0,1,211.294,4.686Zm6.234,2.333.058.938a3.232,3.232,0,0,1,2.59-1.1,2.483,2.483,0,0,1,2.465,1.378A3.186,3.186,0,0,1,225.4,6.853a2.8,2.8,0,0,1,2.212.822,3.618,3.618,0,0,1,.743,2.424V16h-2.017V10.156a1.786,1.786,0,0,0-.374-1.253,1.635,1.635,0,0,0-1.237-.4,1.679,1.679,0,0,0-1.125.369,1.948,1.948,0,0,0-.61.967L223,16h-2.017V10.09A1.439,1.439,0,0,0,219.362,8.5a1.776,1.776,0,0,0-1.718.988V16h-2.017V7.019Zm20.76,4.582a5.348,5.348,0,0,1-.946,3.324,3.287,3.287,0,0,1-4.906.27v4.258h-2.017V7.019h1.859l.083.913a2.963,2.963,0,0,1,2.416-1.079,3.062,3.062,0,0,1,2.577,1.224,5.49,5.49,0,0,1,.934,3.4Zm-2.009-.174a3.746,3.746,0,0,0-.535-2.133,1.741,1.741,0,0,0-1.531-.789,1.856,1.856,0,0,0-1.776,1.021V13.51a1.873,1.873,0,0,0,1.793,1.046,1.739,1.739,0,0,0,1.507-.776A4.123,4.123,0,0,0,236.279,11.426ZM245.36,16a3.113,3.113,0,0,1-.232-.838,3.393,3.393,0,0,1-4.565.232,2.47,2.47,0,0,1-.855-1.909,2.55,2.55,0,0,1,1.067-2.2,5.169,5.169,0,0,1,3.051-.768h1.237V9.924a1.573,1.573,0,0,0-.39-1.116,1.547,1.547,0,0,0-1.187-.419,1.777,1.777,0,0,0-1.129.344,1.066,1.066,0,0,0-.44.876H239.9a2.239,2.239,0,0,1,.49-1.382,3.263,3.263,0,0,1,1.332-1.009,4.68,4.68,0,0,1,1.88-.365,3.769,3.769,0,0,1,2.515.793,2.827,2.827,0,0,1,.963,2.229v4.051a4.591,4.591,0,0,0,.34,1.934V16Zm-2.216-1.453a2.294,2.294,0,0,0,1.125-.291,1.941,1.941,0,0,0,.793-.78V11.783h-1.087a2.973,2.973,0,0,0-1.685.39,1.264,1.264,0,0,0-.564,1.1,1.179,1.179,0,0,0,.386.926A1.5,1.5,0,0,0,243.144,14.547Zm9.737.008a1.824,1.824,0,0,0,1.253-.44,1.5,1.5,0,0,0,.531-1.087h1.9a2.963,2.963,0,0,1-.523,1.565,3.43,3.43,0,0,1-1.328,1.15,3.958,3.958,0,0,1-1.81.423,3.829,3.829,0,0,1-2.988-1.22,4.84,4.84,0,0,1-1.1-3.37v-.208a4.759,4.759,0,0,1,1.1-3.283A3.8,3.8,0,0,1,252.9,6.853a3.69,3.69,0,0,1,2.611.934,3.345,3.345,0,0,1,1.058,2.453h-1.9a1.847,1.847,0,0,0-.527-1.27,1.7,1.7,0,0,0-1.258-.5,1.775,1.775,0,0,0-1.511.71,3.621,3.621,0,0,0-.54,2.154v.324a3.682,3.682,0,0,0,.527,2.179A1.773,1.773,0,0,0,252.881,14.556Zm7.736-9.72V7.019H262.2V8.513h-1.585v5.014a1.1,1.1,0,0,0,.2.743.943.943,0,0,0,.726.228,3.107,3.107,0,0,0,.706-.083v1.561a4.968,4.968,0,0,1-1.328.191q-2.324,0-2.324-2.565V8.513h-1.478V7.019H258.6V4.835Zm2.5,6.591a5.3,5.3,0,0,1,.523-2.378,3.819,3.819,0,0,1,1.469-1.627,4.14,4.14,0,0,1,2.175-.569,3.923,3.923,0,0,1,2.951,1.17,4.6,4.6,0,0,1,1.224,3.1l.008.473a5.343,5.343,0,0,1-.51,2.374,3.773,3.773,0,0,1-1.461,1.619,4.17,4.17,0,0,1-2.2.573,3.9,3.9,0,0,1-3.042-1.266,4.848,4.848,0,0,1-1.141-3.374Zm2.017.174a3.619,3.619,0,0,0,.573,2.171,1.862,1.862,0,0,0,1.594.784,1.842,1.842,0,0,0,1.59-.8,4,4,0,0,0,.569-2.333,3.572,3.572,0,0,0-.585-2.158,1.973,1.973,0,0,0-3.158-.012A3.922,3.922,0,0,0,265.133,11.6Zm15.415,1.511,1.826-6.093h2.15l-3.569,10.343a2.9,2.9,0,0,1-2.789,2.266,3.6,3.6,0,0,1-.971-.15V17.909l.382.025a1.964,1.964,0,0,0,1.15-.278,1.842,1.842,0,0,0,.61-.933l.291-.771-3.154-8.933h2.175ZM292.06,16h-2.017V3.25h2.017Zm7.562,0a3.113,3.113,0,0,1-.232-.838,3.393,3.393,0,0,1-4.565.232,2.47,2.47,0,0,1-.855-1.909,2.55,2.55,0,0,1,1.067-2.2,5.169,5.169,0,0,1,3.051-.768h1.237V9.924a1.573,1.573,0,0,0-.39-1.116,1.547,1.547,0,0,0-1.187-.419,1.777,1.777,0,0,0-1.129.344,1.066,1.066,0,0,0-.44.876H294.16a2.239,2.239,0,0,1,.49-1.382,3.263,3.263,0,0,1,1.332-1.009,4.68,4.68,0,0,1,1.88-.365,3.769,3.769,0,0,1,2.515.793,2.827,2.827,0,0,1,.963,2.229v4.051a4.591,4.591,0,0,0,.34,1.934V16Zm-2.216-1.453a2.294,2.294,0,0,0,1.125-.291,1.941,1.941,0,0,0,.793-.78V11.783h-1.087a2.973,2.973,0,0,0-1.685.39,1.264,1.264,0,0,0-.564,1.1,1.179,1.179,0,0,0,.386.926A1.5,1.5,0,0,0,297.406,14.547ZM315.552,11.6a5.348,5.348,0,0,1-.946,3.324,3.287,3.287,0,0,1-4.906.27v4.258h-2.017V7.019h1.859l.083.913a2.963,2.963,0,0,1,2.416-1.079,3.062,3.062,0,0,1,2.577,1.224,5.49,5.49,0,0,1,.934,3.4Zm-2.009-.174a3.746,3.746,0,0,0-.535-2.133,1.741,1.741,0,0,0-1.531-.789A1.856,1.856,0,0,0,309.7,9.525V13.51a1.873,1.873,0,0,0,1.793,1.046A1.739,1.739,0,0,0,313,13.78,4.124,4.124,0,0,0,313.543,11.426Zm8.417-2.565a4.991,4.991,0,0,0-.822-.066,1.85,1.85,0,0,0-1.868,1.063V16h-2.017V7.019h1.926l.05,1a2.273,2.273,0,0,1,2.025-1.17,1.888,1.888,0,0,1,.714.116Zm.6,2.565a5.3,5.3,0,0,1,.523-2.378,3.819,3.819,0,0,1,1.469-1.627,4.14,4.14,0,0,1,2.175-.569,3.923,3.923,0,0,1,2.951,1.17,4.6,4.6,0,0,1,1.224,3.1l.008.473a5.343,5.343,0,0,1-.51,2.374,3.773,3.773,0,0,1-1.461,1.619,4.17,4.17,0,0,1-2.2.573A3.9,3.9,0,0,1,323.7,14.9a4.848,4.848,0,0,1-1.141-3.374Zm2.017.174a3.619,3.619,0,0,0,.573,2.171,1.862,1.862,0,0,0,1.594.784,1.842,1.842,0,0,0,1.59-.8,4,4,0,0,0,.569-2.333,3.572,3.572,0,0,0-.585-2.158,1.973,1.973,0,0,0-3.158-.012A3.922,3.922,0,0,0,324.574,11.6Zm15.921,0a5.4,5.4,0,0,1-.934,3.329,3.042,3.042,0,0,1-2.569,1.237,2.93,2.93,0,0,1-2.457-1.137l-.1.971H332.61V3.25h2.017V7.882a2.92,2.92,0,0,1,2.349-1.029,3.077,3.077,0,0,1,2.582,1.22,5.484,5.484,0,0,1,.938,3.412Zm-2.017-.174a3.813,3.813,0,0,0-.515-2.191,1.714,1.714,0,0,0-1.494-.73,1.873,1.873,0,0,0-1.843,1.146v3.7a1.892,1.892,0,0,0,1.859,1.17,1.7,1.7,0,0,0,1.461-.706,3.7,3.7,0,0,0,.531-2.133ZM347.551,16a3.113,3.113,0,0,1-.232-.838,3.393,3.393,0,0,1-4.565.232,2.47,2.47,0,0,1-.855-1.909,2.55,2.55,0,0,1,1.067-2.2,5.169,5.169,0,0,1,3.051-.768h1.237V9.924a1.573,1.573,0,0,0-.39-1.116,1.547,1.547,0,0,0-1.187-.419,1.777,1.777,0,0,0-1.129.344,1.066,1.066,0,0,0-.44.876h-2.017a2.239,2.239,0,0,1,.49-1.382,3.263,3.263,0,0,1,1.332-1.009,4.68,4.68,0,0,1,1.88-.365,3.769,3.769,0,0,1,2.515.793,2.827,2.827,0,0,1,.963,2.229v4.051a4.591,4.591,0,0,0,.34,1.934V16Zm-2.216-1.453a2.294,2.294,0,0,0,1.125-.291,1.941,1.941,0,0,0,.793-.78V11.783h-1.087a2.973,2.973,0,0,0-1.685.39,1.264,1.264,0,0,0-.564,1.1,1.179,1.179,0,0,0,.386.926A1.5,1.5,0,0,0,345.335,14.547ZM359.263,11.6a5.4,5.4,0,0,1-.934,3.329,3.042,3.042,0,0,1-2.569,1.237,2.93,2.93,0,0,1-2.457-1.137l-.1.971h-1.826V3.25h2.017V7.882a2.92,2.92,0,0,1,2.349-1.029,3.077,3.077,0,0,1,2.582,1.22,5.484,5.484,0,0,1,.938,3.412Zm-2.017-.174a3.813,3.813,0,0,0-.515-2.191,1.714,1.714,0,0,0-1.494-.73,1.873,1.873,0,0,0-1.843,1.146v3.7a1.892,1.892,0,0,0,1.859,1.17,1.7,1.7,0,0,0,1.461-.706,3.7,3.7,0,0,0,.531-2.133ZM363.1,16h-2.017V7.019H363.1ZM360.957,4.686a1.071,1.071,0,0,1,.295-.772,1.113,1.113,0,0,1,.843-.307,1.127,1.127,0,0,1,.847.307,1.062,1.062,0,0,1,.3.772,1.038,1.038,0,0,1-.3.76,1.136,1.136,0,0,1-.847.3,1.122,1.122,0,0,1-.843-.3A1.046,1.046,0,0,1,360.957,4.686ZM367.44,16h-2.017V3.25h2.017Zm4.341,0h-2.017V7.019h2.017ZM369.639,4.686a1.071,1.071,0,0,1,.295-.772,1.113,1.113,0,0,1,.843-.307,1.127,1.127,0,0,1,.847.307,1.062,1.062,0,0,1,.3.772,1.038,1.038,0,0,1-.3.76,1.136,1.136,0,0,1-.847.3,1.122,1.122,0,0,1-.843-.3A1.046,1.046,0,0,1,369.639,4.686Zm3.959,6.757a5.34,5.34,0,0,1,.963-3.333,3.085,3.085,0,0,1,2.582-1.258,2.931,2.931,0,0,1,2.308,1V3.25h2.017V16h-1.826l-.1-.93a2.973,2.973,0,0,1-2.416,1.1,3.068,3.068,0,0,1-2.552-1.27A5.535,5.535,0,0,1,373.6,11.443Zm2.017.174a3.738,3.738,0,0,0,.527,2.137,1.71,1.71,0,0,0,1.5.768,1.9,1.9,0,0,0,1.81-1.1V9.583A1.876,1.876,0,0,0,377.658,8.5a1.723,1.723,0,0,0-1.511.776A4.163,4.163,0,0,0,375.616,11.617ZM388.939,16a3.113,3.113,0,0,1-.232-.838,3.393,3.393,0,0,1-4.565.232,2.47,2.47,0,0,1-.855-1.909,2.55,2.55,0,0,1,1.067-2.2,5.169,5.169,0,0,1,3.051-.768h1.237V9.924a1.573,1.573,0,0,0-.39-1.116,1.547,1.547,0,0,0-1.187-.419,1.777,1.777,0,0,0-1.129.344,1.066,1.066,0,0,0-.44.876h-2.017a2.239,2.239,0,0,1,.49-1.382A3.263,3.263,0,0,1,385.3,7.218a4.68,4.68,0,0,1,1.88-.365,3.769,3.769,0,0,1,2.515.793,2.827,2.827,0,0,1,.963,2.229v4.051a4.591,4.591,0,0,0,.34,1.934V16Zm-2.216-1.453a2.294,2.294,0,0,0,1.125-.291,1.941,1.941,0,0,0,.793-.78V11.783h-1.087a2.973,2.973,0,0,0-1.685.39,1.264,1.264,0,0,0-.564,1.1,1.179,1.179,0,0,0,.386.926A1.5,1.5,0,0,0,386.722,14.547Zm5.669-3.1a5.34,5.34,0,0,1,.963-3.333,3.085,3.085,0,0,1,2.582-1.258,2.931,2.931,0,0,1,2.308,1V3.25h2.017V16h-1.826l-.1-.93a2.973,2.973,0,0,1-2.416,1.1,3.068,3.068,0,0,1-2.552-1.27A5.535,5.535,0,0,1,392.392,11.443Zm2.017.174a3.738,3.738,0,0,0,.527,2.137,1.71,1.71,0,0,0,1.5.768,1.9,1.9,0,0,0,1.81-1.1V9.583A1.876,1.876,0,0,0,396.451,8.5a1.723,1.723,0,0,0-1.511.776A4.163,4.163,0,0,0,394.409,11.617Z" transform="translate(0 9)" fill="#fff"/>
          <rect id="Rectangle_375541" data-name="Rectangle 375541" width="52.448" height="4" transform="translate(188.814 37)" fill="#ffe126"/>
        </g>
        <g id="Group_1071751" data-name="Group 1071751" transform="translate(265 8503.309)">
          <path id="Path_610604" data-name="Path 610604" d="M10130.15-1964.5v21.35l10.9-11.43Z" transform="translate(-9071.05 2635.691)" fill="#7e19b8"/>
          <g id="Group_1071750" data-name="Group 1071750" transform="translate(0)">
            <path id="Path_610603" data-name="Path 610603" d="M9051-2624.261V-1952.5h1059.1" transform="translate(-9051 2635.691)" fill="none" stroke="#7e19b8" stroke-width="3"/>
            <path id="Path_610605" data-name="Path 610605" d="M0,0V20.359L11.43,9.46Z" transform="translate(-9 11.43) rotate(-90)" fill="#7e19b8"/>
          </g>
        </g>
        <path id="Path_613468" data-name="Path 613468" d="M5.153,12.658V17H2.068V4.2H7.175a5.948,5.948,0,0,1,2.6.541,4.074,4.074,0,0,1,1.749,1.538,4.2,4.2,0,0,1,.62,2.263,3.7,3.7,0,0,1-1.34,2.993,5.561,5.561,0,0,1-3.678,1.121Zm0-2.382H7.175a1.906,1.906,0,0,0,1.367-.448,1.665,1.665,0,0,0,.47-1.266A2.059,2.059,0,0,0,8.528,7.13,1.712,1.712,0,0,0,7.21,6.585H5.153ZM19.4,10.171l-.976-.07a1.752,1.752,0,0,0-1.793.879V17H13.67V7.49h2.777l.1,1.222a2.294,2.294,0,0,1,2.083-1.4,2.888,2.888,0,0,1,.826.105Zm.378,1.986a5.613,5.613,0,0,1,.554-2.536,3.96,3.96,0,0,1,1.591-1.709,4.791,4.791,0,0,1,2.435-.6,4.373,4.373,0,0,1,3.366,1.323,5.076,5.076,0,0,1,1.23,3.6v.105a4.925,4.925,0,0,1-1.235,3.529,4.384,4.384,0,0,1-3.344,1.305,4.434,4.434,0,0,1-3.261-1.217,4.761,4.761,0,0,1-1.327-3.3Zm2.962.185a3.538,3.538,0,0,0,.413,1.934,1.376,1.376,0,0,0,1.222.615q1.582,0,1.617-2.435v-.3q0-2.558-1.635-2.558-1.485,0-1.608,2.206Zm16.348-.018a5.8,5.8,0,0,1-.967,3.595A3.238,3.238,0,0,1,35.4,17.176a2.81,2.81,0,0,1-2.338-1.151L32.936,17H30.281V3.5h2.962V8.255a2.711,2.711,0,0,1,2.136-.94,3.239,3.239,0,0,1,2.742,1.274,5.826,5.826,0,0,1,.967,3.586Zm-2.971-.189a3.866,3.866,0,0,0-.365-1.952A1.229,1.229,0,0,0,34.632,9.6a1.418,1.418,0,0,0-1.389.763v3.773a1.426,1.426,0,0,0,1.406.755,1.258,1.258,0,0,0,1.327-1.018A7.309,7.309,0,0,0,36.117,12.135ZM45.75,17a3.344,3.344,0,0,1-.281-.853,2.754,2.754,0,0,1-2.285,1.028,3.374,3.374,0,0,1-2.285-.813,2.588,2.588,0,0,1-.94-2.043A2.66,2.66,0,0,1,41.1,11.981a5.821,5.821,0,0,1,3.322-.791h.914v-.5q0-1.316-1.134-1.316a.927.927,0,0,0-1.055,1.042H40.187A2.655,2.655,0,0,1,41.36,8.175a4.931,4.931,0,0,1,2.993-.86,4.323,4.323,0,0,1,2.874.888,3.086,3.086,0,0,1,1.081,2.435v4.21a4.311,4.311,0,0,0,.4,2V17ZM43.9,15.066a1.652,1.652,0,0,0,.918-.237,1.487,1.487,0,0,0,.523-.536V12.772h-.861q-1.547,0-1.547,1.389a.848.848,0,0,0,.272.655A.986.986,0,0,0,43.9,15.066Zm14.88-2.742a5.8,5.8,0,0,1-.967,3.595,3.238,3.238,0,0,1-2.725,1.257,2.81,2.81,0,0,1-2.338-1.151L52.623,17H49.969V3.5h2.962V8.255a2.711,2.711,0,0,1,2.136-.94,3.239,3.239,0,0,1,2.742,1.274,5.826,5.826,0,0,1,.967,3.586ZM55.8,12.135a3.866,3.866,0,0,0-.365-1.952A1.229,1.229,0,0,0,54.319,9.6a1.418,1.418,0,0,0-1.389.763v3.773a1.426,1.426,0,0,0,1.406.755,1.258,1.258,0,0,0,1.327-1.018A7.309,7.309,0,0,0,55.8,12.135ZM63.205,17H60.234V7.49h2.971ZM60.059,5.038A1.322,1.322,0,0,1,60.516,4a1.943,1.943,0,0,1,2.373,0,1.322,1.322,0,0,1,.457,1.037,1.322,1.322,0,0,1-.457,1.037,1.943,1.943,0,0,1-2.373,0A1.322,1.322,0,0,1,60.059,5.038ZM68.153,17H65.183V3.5h2.971ZM73.1,17H70.131V7.49H73.1ZM69.955,5.038A1.322,1.322,0,0,1,70.412,4a1.943,1.943,0,0,1,2.373,0,1.322,1.322,0,0,1,.457,1.037,1.322,1.322,0,0,1-.457,1.037,1.943,1.943,0,0,1-2.373,0A1.322,1.322,0,0,1,69.955,5.038Zm4.6,7.137a5.809,5.809,0,0,1,.976-3.56,3.211,3.211,0,0,1,2.725-1.3,2.731,2.731,0,0,1,2.145,1V3.5h2.971V17H80.7l-.149-1.02a2.8,2.8,0,0,1-2.32,1.2,3.205,3.205,0,0,1-2.689-1.3A5.993,5.993,0,0,1,74.552,12.175Zm2.962.185q0,2.531,1.477,2.531a1.458,1.458,0,0,0,1.406-.826V10.443A1.419,1.419,0,0,0,79.008,9.6q-1.371,0-1.485,2.215ZM90.407,17a3.344,3.344,0,0,1-.281-.853,2.754,2.754,0,0,1-2.285,1.028,3.374,3.374,0,0,1-2.285-.813,2.588,2.588,0,0,1-.94-2.043,2.66,2.66,0,0,1,1.143-2.338,5.821,5.821,0,0,1,3.322-.791h.914v-.5q0-1.316-1.134-1.316a.927.927,0,0,0-1.055,1.042H84.844a2.655,2.655,0,0,1,1.173-2.239,4.931,4.931,0,0,1,2.993-.86,4.323,4.323,0,0,1,2.874.888,3.086,3.086,0,0,1,1.081,2.435v4.21a4.311,4.311,0,0,0,.4,2V17Zm-1.854-1.934a1.652,1.652,0,0,0,.918-.237,1.487,1.487,0,0,0,.523-.536V12.772h-.861q-1.547,0-1.547,1.389a.848.848,0,0,0,.272.655A.986.986,0,0,0,88.553,15.066Zm5.678-2.892a5.809,5.809,0,0,1,.976-3.56,3.211,3.211,0,0,1,2.725-1.3,2.731,2.731,0,0,1,2.145,1V3.5h2.971V17h-2.663l-.149-1.02a2.8,2.8,0,0,1-2.32,1.2,3.205,3.205,0,0,1-2.689-1.3A5.993,5.993,0,0,1,94.23,12.175Zm2.962.185q0,2.531,1.477,2.531a1.458,1.458,0,0,0,1.406-.826V10.443A1.419,1.419,0,0,0,98.687,9.6q-1.371,0-1.485,2.215Z" transform="translate(1315 9210.174)" fill="#12263f"/>
        <text id="Impacto" transform="translate(180 8527)" fill="#12263f" font-size="18" font-family="Roboto-Black, Roboto" font-weight="800"><tspan x="9.501" y="17">Impacto</tspan></text>
      </g>
    </g>
  </g>
</svg>
