<svg xmlns="http://www.w3.org/2000/svg" xmlns:xlink="http://www.w3.org/1999/xlink" width="505" height="1108.676" viewBox="0 0 505 1108.676">
  <defs>
    <linearGradient id="linear-gradient" x1="0.703" y1="0.086" x2="0.527" y2="1.061" gradientUnits="objectBoundingBox">
      <stop offset="0" stop-color="#f51800"/>
      <stop offset="0.247" stop-color="#f97a00"/>
      <stop offset="0.634" stop-color="#fcf700"/>
      <stop offset="1" stop-color="#94fd00"/>
    </linearGradient>
  </defs>
  <g id="Group_1073133" data-name="Group 1073133" transform="translate(-8220.34 3401.967)">
    <g id="Group_1073059" data-name="Group 1073059" transform="translate(-15.66 -172)">
      <rect id="Rectangle_377542" data-name="Rectangle 377542" width="505" height="1108.676" transform="translate(8236 -3229.967)" fill="#fff"/>
      <rect id="Rectangle_377574" data-name="Rectangle 377574" width="295" height="124" transform="translate(8292 -2274)" fill="#e1f5d6"/>
      <rect id="Rectangle_377573" data-name="Rectangle 377573" width="308" height="132" transform="translate(8293 -3214)" fill="#e1f5d6"/>
      <rect id="Rectangle_377575" data-name="Rectangle 377575" width="295" height="237" transform="translate(8402 -2527)" fill="#fdfde3"/>
      <text id="Zona_3_Franja_verde:_riesgos_poco_probables_y_de_bajo_impacto." data-name="Zona 3

Franja verde: riesgos poco probables y de bajo impacto." transform="translate(8320 -2259)" fill="#12263f" font-size="16" font-family="Roboto-Bold, Roboto" font-weight="700"><tspan x="0" y="15">Zona 3</tspan><tspan font-family="Roboto-Regular, Roboto" font-weight="400"><tspan x="0" y="39"></tspan><tspan x="0" y="63">Franja verde: riesgos poco </tspan><tspan x="0" y="87">probables y de bajo impacto.</tspan></tspan></text>
      <text id="Zona_4_Franja_naranja:_riesgos_improbables_de_muy_alto_impacto." data-name="Zona 4

Franja naranja: riesgos improbables, de muy alto impacto." transform="translate(8321 -3199)" fill="#12263f" font-size="16" font-family="Roboto-Bold, Roboto" font-weight="700"><tspan x="0" y="15">Zona 4</tspan><tspan font-family="Roboto-Regular, Roboto" font-weight="400"><tspan x="0" y="39"></tspan><tspan x="0" y="63">Franja naranja: riesgos </tspan><tspan x="0" y="87">improbables, de muy alto impacto.</tspan></tspan></text>
      <text id="Zona_2_Franja_amarilla:_abarca_un_amplio_espectro_que_representa_desde_las_diferentes_situaciones_improbables_y_de_impacto_medio_hasta_situaciones_muy_probables_pero_de_impacto_reducido." data-name="Zona 2

Franja amarilla: abarca un amplio espectro que representa desde las diferentes situaciones improbables y de impacto medio, hasta situaciones muy probables, pero de impacto reducido." transform="translate(8430 -2508)" fill="#12263f" font-size="16" font-family="Roboto-Bold, Roboto" font-weight="700"><tspan x="0" y="15">Zona 2</tspan><tspan font-family="Roboto-Regular, Roboto" font-weight="400"><tspan x="0" y="39"></tspan><tspan x="0" y="63">Franja amarilla: abarca un amplio </tspan><tspan x="0" y="87">espectro que representa desde </tspan><tspan x="0" y="111">las diferentes situaciones </tspan><tspan x="0" y="135">improbables y de impacto medio, </tspan><tspan x="0" y="159">hasta situaciones muy probables, </tspan><tspan x="0" y="183">pero de impacto reducido.</tspan></tspan></text>
      <g id="Group_1073058" data-name="Group 1073058" transform="translate(8083.559 -11336.809)">
        <rect id="Rectangle_375539" data-name="Rectangle 375539" width="399.578" height="242.03" transform="translate(212.347 8520.696)" fill="url(#linear-gradient)"/>
        <g id="Group_1071745" data-name="Group 1071745" transform="translate(529.275 8533.308)">
          <g id="Group_1071586" data-name="Group 1071586" transform="translate(0 23.594)">
            <g id="Group_1071585" data-name="Group 1071585">
              <path id="Path_610086" data-name="Path 610086" d="M2.7,0H60.226c1.489,0,2.7,1.7,2.7,3.794V22.765c0,2.1-1.207,3.794-2.7,3.794H2.7c-1.489,0-2.7-1.7-2.7-3.794V3.794C0,1.7,1.207,0,2.7,0Z" fill="#304c8e"/>
              <rect id="Rectangle_347548" data-name="Rectangle 347548" width="44.778" height="1.522" transform="translate(9.131 26.762)" fill="#ffe126"/>
            </g>
            <text id="Zona_1" data-name="Zona 1" transform="translate(2.903 3.722)" fill="#fff" font-size="17" font-family="Roboto-Medium, Roboto" font-weight="500"><tspan x="2.415" y="16">Zona 1</tspan></text>
          </g>
          <g id="Group_1071582" data-name="Group 1071582" transform="translate(21.3)">
            <ellipse id="Ellipse_5840" data-name="Ellipse 5840" cx="10.161" cy="10.655" rx="10.161" ry="10.655" fill="#7e19b8" opacity="0.3"/>
            <ellipse id="Ellipse_5841" data-name="Ellipse 5841" cx="6.169" cy="6.469" rx="6.169" ry="6.469" transform="translate(3.992 4.186)" fill="#7e19b8"/>
            <text id="_" data-name="+" transform="translate(8.347 12.089)" fill="#fff" font-size="6" font-family="Roboto-Regular, Roboto"><tspan x="0" y="0">+</tspan></text>
          </g>
        </g>
        <g id="Group_1071747" data-name="Group 1071747" transform="translate(379.917 8603.253)">
          <g id="Group_1071586-2" data-name="Group 1071586" transform="translate(0 23.594)">
            <g id="Group_1071585-2" data-name="Group 1071585">
              <path id="Path_610086-2" data-name="Path 610086" d="M2.692,0H60.119c1.487,0,2.692,1.691,2.692,3.777V22.661c0,2.086-1.205,3.777-2.692,3.777H2.692C1.205,26.438,0,24.747,0,22.661V3.777C0,1.691,1.205,0,2.692,0Z" fill="#304c8e"/>
              <rect id="Rectangle_347548-2" data-name="Rectangle 347548" width="44.666" height="1.522" transform="translate(9.131 26.641)" fill="#ffe126"/>
            </g>
            <text id="Zona_2" data-name="Zona 2" transform="translate(2.903 3.722)" fill="#fff" font-size="17" font-family="Roboto-Medium, Roboto" font-weight="500"><tspan x="2.359" y="16">Zona 2</tspan></text>
          </g>
          <g id="Group_1071582-2" data-name="Group 1071582" transform="translate(21.244)">
            <ellipse id="Ellipse_5840-2" data-name="Ellipse 5840" cx="10.161" cy="10.655" rx="10.161" ry="10.655" fill="#7e19b8" opacity="0.3"/>
            <ellipse id="Ellipse_5841-2" data-name="Ellipse 5841" cx="6.169" cy="6.469" rx="6.169" ry="6.469" transform="translate(3.992 4.186)" fill="#7e19b8"/>
            <text id="_2" data-name="+" transform="translate(8.347 12.089)" fill="#fff" font-size="6" font-family="Roboto-Regular, Roboto"><tspan x="0" y="0">+</tspan></text>
          </g>
        </g>
        <g id="Group_1071748" data-name="Group 1071748" transform="translate(223.479 8704.099)">
          <g id="Group_1071586-3" data-name="Group 1071586" transform="translate(0 23.594)">
            <g id="Group_1071585-3" data-name="Group 1071585">
              <path id="Path_610086-3" data-name="Path 610086" d="M2.582,0H57.672c1.426,0,2.582,1.718,2.582,3.837V23.024c0,2.119-1.156,3.837-2.582,3.837H2.582C1.156,26.861,0,25.143,0,23.024V3.837C0,1.718,1.156,0,2.582,0Z" fill="#304c8e"/>
              <rect id="Rectangle_347548-3" data-name="Rectangle 347548" width="42.109" height="1.522" transform="translate(9.131 27.064)" fill="#ffe126"/>
            </g>
            <text id="Zona_3" data-name="Zona 3" transform="translate(2.903 3.722)" fill="#fff" font-size="17" font-family="Roboto-Medium, Roboto" font-weight="500"><tspan x="1.08" y="16">Zona 3</tspan></text>
          </g>
          <g id="Group_1071582-3" data-name="Group 1071582" transform="translate(19.966)">
            <ellipse id="Ellipse_5840-3" data-name="Ellipse 5840" cx="10.161" cy="10.655" rx="10.161" ry="10.655" fill="#7e19b8" opacity="0.3"/>
            <ellipse id="Ellipse_5841-3" data-name="Ellipse 5841" cx="6.169" cy="6.469" rx="6.169" ry="6.469" transform="translate(3.992 4.186)" fill="#7e19b8"/>
            <text id="_3" data-name="+" transform="translate(8.347 12.089)" fill="#fff" font-size="6" font-family="Roboto-Regular, Roboto"><tspan x="0" y="0">+</tspan></text>
          </g>
        </g>
        <g id="Group_1071746" data-name="Group 1071746" transform="translate(223.479 8533.308)">
          <g id="Group_1071586-4" data-name="Group 1071586" transform="translate(0 23.594)">
            <g id="Group_1071585-4" data-name="Group 1071585">
              <path id="Path_610086-4" data-name="Path 610086" d="M2.582,0H57.672c1.426,0,2.582,1.669,2.582,3.728V22.369c0,2.059-1.156,3.728-2.582,3.728H2.582C1.156,26.1,0,24.428,0,22.369V3.728C0,1.669,1.156,0,2.582,0Z" fill="#304c8e"/>
              <rect id="Rectangle_347548-4" data-name="Rectangle 347548" width="42.109" height="1.522" transform="translate(9.131 26.3)" fill="#ffe126"/>
            </g>
            <text id="Zona_4" data-name="Zona 4" transform="translate(2.903 3.722)" fill="#fff" font-size="17" font-family="Roboto-Medium, Roboto" font-weight="500"><tspan x="1.08" y="16">Zona 4</tspan></text>
          </g>
          <g id="Group_1071582-4" data-name="Group 1071582" transform="translate(19.966)">
            <ellipse id="Ellipse_5840-4" data-name="Ellipse 5840" cx="10.161" cy="10.655" rx="10.161" ry="10.655" fill="#7e19b8" opacity="0.3"/>
            <ellipse id="Ellipse_5841-4" data-name="Ellipse 5841" cx="6.169" cy="6.469" rx="6.169" ry="6.469" transform="translate(3.992 4.186)" fill="#7e19b8"/>
            <text id="_4" data-name="+" transform="translate(8.347 12.089)" fill="#fff" font-size="6" font-family="Roboto-Regular, Roboto"><tspan x="0" y="0">+</tspan></text>
          </g>
        </g>
        <g id="Group_1071749" data-name="Group 1071749" transform="translate(332.23 8452.275)">
          <rect id="Rectangle_375540" data-name="Rectangle 375540" width="159.673" height="71.08" rx="11" transform="translate(1.814)" fill="#304c8e"/>
          <path id="Path_613469" data-name="Path 613469" d="M15.08,10.6H10.116v3.719h5.8V16h-7.9V3.914H15.86V5.607H10.116V8.944H15.08Zm4.5,5.4H17.562V3.25h2.017ZM30.71,8.861a4.991,4.991,0,0,0-.822-.066,1.85,1.85,0,0,0-1.868,1.063V16H26V7.019H27.93l.05,1A2.273,2.273,0,0,1,30,6.853a1.888,1.888,0,0,1,.714.116ZM34.13,16H32.113V7.019H34.13ZM31.989,4.686a1.071,1.071,0,0,1,.295-.772,1.113,1.113,0,0,1,.843-.307,1.127,1.127,0,0,1,.847.307,1.062,1.062,0,0,1,.3.772,1.038,1.038,0,0,1-.3.76,1.136,1.136,0,0,1-.847.3,1.122,1.122,0,0,1-.843-.3A1.046,1.046,0,0,1,31.989,4.686Zm8.292,11.48a4.173,4.173,0,0,1-3.109-1.208,4.381,4.381,0,0,1-1.191-3.217v-.249a5.389,5.389,0,0,1,.519-2.4,3.949,3.949,0,0,1,1.457-1.648,3.851,3.851,0,0,1,2.092-.589,3.525,3.525,0,0,1,2.835,1.17,4.949,4.949,0,0,1,1,3.312v.813H38.015a2.7,2.7,0,0,0,.743,1.76,2.23,2.23,0,0,0,1.639.647,2.731,2.731,0,0,0,2.258-1.121l1.087,1.038a3.631,3.631,0,0,1-1.44,1.249A4.509,4.509,0,0,1,40.281,16.166Zm-.241-7.695a1.7,1.7,0,0,0-1.341.581,3.012,3.012,0,0,0-.652,1.619h3.843v-.149a2.452,2.452,0,0,0-.54-1.531A1.686,1.686,0,0,0,40.041,8.471ZM50.483,13.56a.914.914,0,0,0-.444-.822,4.723,4.723,0,0,0-1.473-.5,7.574,7.574,0,0,1-1.718-.548,2.293,2.293,0,0,1-1.511-2.117,2.391,2.391,0,0,1,.979-1.942,3.872,3.872,0,0,1,2.49-.78,4.029,4.029,0,0,1,2.6.8A2.529,2.529,0,0,1,52.4,9.716H50.383a1.243,1.243,0,0,0-.432-.967,1.654,1.654,0,0,0-1.146-.386,1.787,1.787,0,0,0-1.083.307.968.968,0,0,0-.419.822.818.818,0,0,0,.39.722,5.365,5.365,0,0,0,1.577.519,7.466,7.466,0,0,1,1.864.623,2.639,2.639,0,0,1,1,.867,2.212,2.212,0,0,1,.328,1.229,2.34,2.34,0,0,1-1,1.963,4.283,4.283,0,0,1-2.631.751,4.644,4.644,0,0,1-1.967-.4,3.238,3.238,0,0,1-1.345-1.1,2.594,2.594,0,0,1-.481-1.5H47a1.421,1.421,0,0,0,.54,1.1,2.1,2.1,0,0,0,1.32.386,2.04,2.04,0,0,0,1.212-.3A.938.938,0,0,0,50.483,13.56Zm3.387-2.117A5.253,5.253,0,0,1,54.853,8.1a3.157,3.157,0,0,1,2.611-1.249,2.958,2.958,0,0,1,2.416,1.071l.091-.9h1.818v8.708a3.619,3.619,0,0,1-1.1,2.789,4.189,4.189,0,0,1-2.968,1.021,4.783,4.783,0,0,1-1.93-.411,3.429,3.429,0,0,1-1.432-1.075l.955-1.212a2.883,2.883,0,0,0,2.291,1.1A2.228,2.228,0,0,0,59.19,17.4a2.084,2.084,0,0,0,.581-1.6v-.606a2.97,2.97,0,0,1-2.324.971,3.15,3.15,0,0,1-2.577-1.253A5.423,5.423,0,0,1,53.87,11.443Zm2.009.174a3.616,3.616,0,0,0,.552,2.129,1.775,1.775,0,0,0,1.531.776,1.941,1.941,0,0,0,1.81-1.046V9.525A1.913,1.913,0,0,0,57.979,8.5a1.782,1.782,0,0,0-1.548.789A4.049,4.049,0,0,0,55.878,11.617Zm7.6-.191A5.3,5.3,0,0,1,64,9.048a3.819,3.819,0,0,1,1.469-1.627,4.14,4.14,0,0,1,2.175-.569A3.923,3.923,0,0,1,70.6,8.023a4.6,4.6,0,0,1,1.224,3.1l.008.473a5.343,5.343,0,0,1-.51,2.374,3.773,3.773,0,0,1-1.461,1.619,4.17,4.17,0,0,1-2.2.573A3.9,3.9,0,0,1,64.623,14.9a4.848,4.848,0,0,1-1.141-3.374ZM65.5,11.6a3.619,3.619,0,0,0,.573,2.171,1.862,1.862,0,0,0,1.594.784,1.842,1.842,0,0,0,1.59-.8,4,4,0,0,0,.569-2.333,3.572,3.572,0,0,0-.585-2.158,1.973,1.973,0,0,0-3.158-.012A3.922,3.922,0,0,0,65.5,11.6Zm16.228,4.565a4.173,4.173,0,0,1-3.109-1.208,4.381,4.381,0,0,1-1.191-3.217v-.249a5.389,5.389,0,0,1,.519-2.4A3.949,3.949,0,0,1,79.4,7.442a3.851,3.851,0,0,1,2.092-.589,3.525,3.525,0,0,1,2.835,1.17,4.949,4.949,0,0,1,1,3.312v.813H79.461a2.7,2.7,0,0,0,.743,1.76,2.23,2.23,0,0,0,1.639.647A2.731,2.731,0,0,0,84.1,13.435l1.087,1.038a3.631,3.631,0,0,1-1.44,1.249A4.509,4.509,0,0,1,81.727,16.166Zm-.241-7.695a1.7,1.7,0,0,0-1.341.581,3.012,3.012,0,0,0-.652,1.619h3.843v-.149A2.452,2.452,0,0,0,82.8,8.99,1.686,1.686,0,0,0,81.486,8.471Zm7.28-1.453.058,1.038a3.229,3.229,0,0,1,2.615-1.2q2.806,0,2.855,3.212V16H92.277V10.181a1.85,1.85,0,0,0-.369-1.266A1.554,1.554,0,0,0,90.7,8.5a1.944,1.944,0,0,0-1.818,1.1V16H86.865V7.019ZM101.292,16V8.513h-1.37V7.019h1.37V6.2a3.085,3.085,0,0,1,.83-2.308,3.18,3.18,0,0,1,2.324-.813,4.662,4.662,0,0,1,1.129.149l-.05,1.577a3.973,3.973,0,0,0-.772-.066,1.3,1.3,0,0,0-1.444,1.486v.8h1.826V8.513h-1.826V16Zm10.758-.88a3.128,3.128,0,0,1-2.523,1.046,2.788,2.788,0,0,1-2.212-.855,3.637,3.637,0,0,1-.751-2.474V7.019h2.017v5.794q0,1.71,1.419,1.71a1.993,1.993,0,0,0,1.984-1.054V7.019H114V16h-1.9Zm5.877-8.1.058,1.038a3.229,3.229,0,0,1,2.615-1.2q2.806,0,2.855,3.212V16h-2.017V10.181a1.85,1.85,0,0,0-.369-1.266,1.554,1.554,0,0,0-1.208-.411,1.944,1.944,0,0,0-1.818,1.1V16h-2.017V7.019ZM129.2,14.556a1.824,1.824,0,0,0,1.253-.44,1.5,1.5,0,0,0,.531-1.087h1.9a2.963,2.963,0,0,1-.523,1.565,3.43,3.43,0,0,1-1.328,1.15,3.958,3.958,0,0,1-1.81.423,3.829,3.829,0,0,1-2.988-1.22,4.84,4.84,0,0,1-1.1-3.37v-.208a4.759,4.759,0,0,1,1.1-3.283,3.8,3.8,0,0,1,2.988-1.233,3.69,3.69,0,0,1,2.611.934,3.345,3.345,0,0,1,1.058,2.453h-1.9a1.847,1.847,0,0,0-.527-1.27,1.7,1.7,0,0,0-1.258-.5,1.775,1.775,0,0,0-1.511.71,3.621,3.621,0,0,0-.54,2.154v.324a3.681,3.681,0,0,0,.527,2.179A1.773,1.773,0,0,0,129.2,14.556ZM136.554,16h-2.017V7.019h2.017ZM134.412,4.686a1.07,1.07,0,0,1,.295-.772,1.113,1.113,0,0,1,.843-.307,1.127,1.127,0,0,1,.847.307,1.062,1.062,0,0,1,.3.772,1.038,1.038,0,0,1-.3.76,1.136,1.136,0,0,1-.847.3,1.122,1.122,0,0,1-.843-.3A1.046,1.046,0,0,1,134.412,4.686Zm3.959,6.74a5.3,5.3,0,0,1,.523-2.378,3.819,3.819,0,0,1,1.469-1.627,4.14,4.14,0,0,1,2.175-.569,3.923,3.923,0,0,1,2.951,1.17,4.6,4.6,0,0,1,1.224,3.1l.008.473a5.343,5.343,0,0,1-.51,2.374,3.773,3.773,0,0,1-1.461,1.619,4.17,4.17,0,0,1-2.2.573,3.9,3.9,0,0,1-3.042-1.266,4.848,4.848,0,0,1-1.141-3.374Zm2.017.174a3.619,3.619,0,0,0,.573,2.171,1.862,1.862,0,0,0,1.594.784,1.842,1.842,0,0,0,1.59-.8,4,4,0,0,0,.569-2.333,3.572,3.572,0,0,0-.585-2.158,1.973,1.973,0,0,0-3.158-.012A3.922,3.922,0,0,0,140.389,11.6Zm2.706-8.351h2.3l-2.3,2.515-1.619,0ZM150.3,7.019l.058,1.038a3.229,3.229,0,0,1,2.615-1.2q2.806,0,2.855,3.212V16h-2.017V10.181a1.85,1.85,0,0,0-.369-1.266,1.554,1.554,0,0,0-1.208-.411,1.944,1.944,0,0,0-1.818,1.1V16H148.4V7.019ZM22.746,33.443a5.34,5.34,0,0,1,.963-3.333,3.085,3.085,0,0,1,2.582-1.258,2.931,2.931,0,0,1,2.308,1v-4.6h2.017V38H28.789l-.1-.93a2.973,2.973,0,0,1-2.416,1.1,3.068,3.068,0,0,1-2.552-1.27A5.535,5.535,0,0,1,22.746,33.443Zm2.017.174a3.739,3.739,0,0,0,.527,2.137,1.71,1.71,0,0,0,1.5.768,1.9,1.9,0,0,0,1.81-1.1V31.583A1.876,1.876,0,0,0,26.8,30.5a1.723,1.723,0,0,0-1.511.776A4.163,4.163,0,0,0,24.763,33.617Zm11.912,4.549a4.173,4.173,0,0,1-3.109-1.208,4.381,4.381,0,0,1-1.191-3.217v-.249a5.389,5.389,0,0,1,.519-2.4,3.949,3.949,0,0,1,1.457-1.648,3.851,3.851,0,0,1,2.092-.589,3.525,3.525,0,0,1,2.835,1.17,4.949,4.949,0,0,1,1,3.312v.813H34.408a2.7,2.7,0,0,0,.743,1.76,2.23,2.23,0,0,0,1.639.647,2.731,2.731,0,0,0,2.258-1.121l1.087,1.038a3.631,3.631,0,0,1-1.44,1.249A4.509,4.509,0,0,1,36.675,38.166Zm-.241-7.695a1.7,1.7,0,0,0-1.341.581,3.012,3.012,0,0,0-.652,1.619h3.843v-.149a2.452,2.452,0,0,0-.54-1.531A1.686,1.686,0,0,0,36.434,30.471ZM43.988,38H41.97V25.25h2.017Zm8.575,0H50.545V29.019h2.017ZM50.421,26.686a1.07,1.07,0,0,1,.295-.772,1.113,1.113,0,0,1,.843-.307,1.127,1.127,0,0,1,.847.307,1.062,1.062,0,0,1,.3.772,1.038,1.038,0,0,1-.3.76,1.136,1.136,0,0,1-.847.3,1.122,1.122,0,0,1-.843-.3A1.046,1.046,0,0,1,50.421,26.686Zm6.234,2.333.058.938a3.232,3.232,0,0,1,2.59-1.1,2.483,2.483,0,0,1,2.465,1.378,3.186,3.186,0,0,1,2.756-1.378,2.8,2.8,0,0,1,2.212.822,3.618,3.618,0,0,1,.743,2.424V38H65.462V32.156a1.786,1.786,0,0,0-.374-1.253,1.635,1.635,0,0,0-1.237-.4,1.679,1.679,0,0,0-1.125.369,1.948,1.948,0,0,0-.61.967L62.125,38H60.108V32.09A1.439,1.439,0,0,0,58.489,30.5a1.776,1.776,0,0,0-1.718.988V38H54.754V29.019ZM77.415,33.6a5.348,5.348,0,0,1-.946,3.324,3.287,3.287,0,0,1-4.906.27v4.258H69.546V29.019h1.859l.083.913A2.963,2.963,0,0,1,73.9,28.853a3.062,3.062,0,0,1,2.577,1.224,5.49,5.49,0,0,1,.934,3.4Zm-2.009-.174a3.746,3.746,0,0,0-.535-2.133,1.741,1.741,0,0,0-1.531-.789,1.856,1.856,0,0,0-1.776,1.021V35.51a1.873,1.873,0,0,0,1.793,1.046,1.739,1.739,0,0,0,1.507-.776A4.124,4.124,0,0,0,75.406,33.426ZM84.487,38a3.113,3.113,0,0,1-.232-.838,3.393,3.393,0,0,1-4.565.232,2.47,2.47,0,0,1-.855-1.909,2.55,2.55,0,0,1,1.067-2.2,5.169,5.169,0,0,1,3.051-.768h1.237v-.589a1.573,1.573,0,0,0-.39-1.116,1.547,1.547,0,0,0-1.187-.419,1.777,1.777,0,0,0-1.129.344,1.066,1.066,0,0,0-.44.876H79.025a2.239,2.239,0,0,1,.49-1.382,3.263,3.263,0,0,1,1.332-1.009,4.68,4.68,0,0,1,1.88-.365,3.769,3.769,0,0,1,2.515.793,2.827,2.827,0,0,1,.963,2.229v4.051a4.591,4.591,0,0,0,.34,1.934V38Zm-2.216-1.453a2.294,2.294,0,0,0,1.125-.291,1.941,1.941,0,0,0,.793-.78V33.783H83.1a2.973,2.973,0,0,0-1.685.39,1.264,1.264,0,0,0-.564,1.1,1.179,1.179,0,0,0,.386.926A1.5,1.5,0,0,0,82.271,36.547Zm9.737.008a1.824,1.824,0,0,0,1.253-.44,1.5,1.5,0,0,0,.531-1.087h1.9a2.963,2.963,0,0,1-.523,1.565,3.43,3.43,0,0,1-1.328,1.15,3.958,3.958,0,0,1-1.81.423,3.829,3.829,0,0,1-2.988-1.22,4.84,4.84,0,0,1-1.1-3.37v-.208a4.759,4.759,0,0,1,1.1-3.283,3.8,3.8,0,0,1,2.988-1.233,3.69,3.69,0,0,1,2.611.934,3.345,3.345,0,0,1,1.058,2.453h-1.9a1.847,1.847,0,0,0-.527-1.27,1.7,1.7,0,0,0-1.258-.5,1.775,1.775,0,0,0-1.511.71,3.621,3.621,0,0,0-.54,2.154v.324a3.681,3.681,0,0,0,.527,2.179A1.773,1.773,0,0,0,92.008,36.556Zm7.736-9.72v2.183h1.585v1.494H99.744v5.014a1.1,1.1,0,0,0,.2.743.943.943,0,0,0,.726.228,3.107,3.107,0,0,0,.706-.083v1.561a4.968,4.968,0,0,1-1.328.191q-2.324,0-2.324-2.565V30.513H96.249V29.019h1.478V26.835Zm2.5,6.591a5.3,5.3,0,0,1,.523-2.378,3.819,3.819,0,0,1,1.469-1.627,4.14,4.14,0,0,1,2.175-.569,3.923,3.923,0,0,1,2.951,1.17,4.6,4.6,0,0,1,1.224,3.1l.008.473a5.343,5.343,0,0,1-.51,2.374,3.773,3.773,0,0,1-1.461,1.619,4.17,4.17,0,0,1-2.2.573,3.9,3.9,0,0,1-3.042-1.266,4.848,4.848,0,0,1-1.141-3.374Zm2.017.174a3.619,3.619,0,0,0,.573,2.171,1.862,1.862,0,0,0,1.594.784,1.842,1.842,0,0,0,1.59-.8,4,4,0,0,0,.569-2.333A3.572,3.572,0,0,0,108,31.268a1.973,1.973,0,0,0-3.158-.012A3.922,3.922,0,0,0,104.26,33.6Zm15.415,1.511,1.826-6.093h2.15l-3.569,10.343a2.9,2.9,0,0,1-2.789,2.266,3.6,3.6,0,0,1-.971-.15V39.909l.382.025a1.964,1.964,0,0,0,1.15-.278,1.842,1.842,0,0,0,.61-.933l.291-.771L115.6,29.019h2.175ZM131.187,38H129.17V25.25h2.017Zm7.562,0a3.113,3.113,0,0,1-.232-.838,3.393,3.393,0,0,1-4.565.232,2.47,2.47,0,0,1-.855-1.909,2.55,2.55,0,0,1,1.067-2.2,5.169,5.169,0,0,1,3.051-.768h1.237v-.589a1.573,1.573,0,0,0-.39-1.116,1.547,1.547,0,0,0-1.187-.419,1.777,1.777,0,0,0-1.129.344,1.066,1.066,0,0,0-.44.876h-2.017a2.239,2.239,0,0,1,.49-1.382,3.263,3.263,0,0,1,1.332-1.009,4.68,4.68,0,0,1,1.88-.365,3.769,3.769,0,0,1,2.515.793,2.827,2.827,0,0,1,.963,2.229v4.051a4.591,4.591,0,0,0,.34,1.934V38Zm-2.216-1.453a2.294,2.294,0,0,0,1.125-.291,1.941,1.941,0,0,0,.793-.78V33.783h-1.087a2.973,2.973,0,0,0-1.685.39,1.264,1.264,0,0,0-.564,1.1,1.179,1.179,0,0,0,.386.926A1.5,1.5,0,0,0,136.533,36.547ZM43.377,55.6a5.348,5.348,0,0,1-.946,3.324,3.287,3.287,0,0,1-4.906.27v4.258H35.508V51.019h1.859l.083.913a2.963,2.963,0,0,1,2.416-1.079,3.062,3.062,0,0,1,2.577,1.224,5.49,5.49,0,0,1,.934,3.4Zm-2.009-.174a3.746,3.746,0,0,0-.535-2.133A1.741,1.741,0,0,0,39.3,52.5a1.856,1.856,0,0,0-1.776,1.021V57.51a1.873,1.873,0,0,0,1.793,1.046,1.739,1.739,0,0,0,1.507-.776A4.124,4.124,0,0,0,41.369,55.426Zm8.417-2.565a4.992,4.992,0,0,0-.822-.066A1.85,1.85,0,0,0,47.1,53.857V60H45.079V51.019H47l.05,1a2.273,2.273,0,0,1,2.025-1.17,1.888,1.888,0,0,1,.714.116Zm.6,2.565a5.3,5.3,0,0,1,.523-2.378,3.819,3.819,0,0,1,1.469-1.627,4.14,4.14,0,0,1,2.175-.569,3.923,3.923,0,0,1,2.951,1.17,4.6,4.6,0,0,1,1.224,3.1l.008.473a5.343,5.343,0,0,1-.51,2.374,3.773,3.773,0,0,1-1.461,1.619,4.17,4.17,0,0,1-2.2.573A3.9,3.9,0,0,1,51.525,58.9a4.848,4.848,0,0,1-1.141-3.374ZM52.4,55.6a3.619,3.619,0,0,0,.573,2.171,1.862,1.862,0,0,0,1.594.784,1.842,1.842,0,0,0,1.59-.8,4,4,0,0,0,.569-2.333,3.572,3.572,0,0,0-.585-2.158,1.973,1.973,0,0,0-3.158-.012A3.922,3.922,0,0,0,52.4,55.6Zm15.921,0a5.4,5.4,0,0,1-.934,3.329,3.042,3.042,0,0,1-2.569,1.237,2.93,2.93,0,0,1-2.457-1.137l-.1.971H60.436V47.25h2.017v4.632A2.92,2.92,0,0,1,64.8,50.853a3.077,3.077,0,0,1,2.582,1.22,5.484,5.484,0,0,1,.938,3.412ZM66.3,55.426a3.813,3.813,0,0,0-.515-2.191A1.714,1.714,0,0,0,64.3,52.5a1.873,1.873,0,0,0-1.843,1.146v3.7a1.892,1.892,0,0,0,1.859,1.17,1.7,1.7,0,0,0,1.461-.706,3.7,3.7,0,0,0,.531-2.133ZM75.377,60a3.113,3.113,0,0,1-.232-.838,3.393,3.393,0,0,1-4.565.232,2.47,2.47,0,0,1-.855-1.909,2.55,2.55,0,0,1,1.067-2.2,5.169,5.169,0,0,1,3.051-.768h1.237v-.589a1.573,1.573,0,0,0-.39-1.116,1.547,1.547,0,0,0-1.187-.419,1.777,1.777,0,0,0-1.129.344,1.066,1.066,0,0,0-.44.876H69.915a2.239,2.239,0,0,1,.49-1.382,3.263,3.263,0,0,1,1.332-1.009,4.68,4.68,0,0,1,1.88-.365,3.769,3.769,0,0,1,2.515.793,2.827,2.827,0,0,1,.963,2.229v4.051a4.591,4.591,0,0,0,.34,1.934V60Zm-2.216-1.453a2.294,2.294,0,0,0,1.125-.291,1.941,1.941,0,0,0,.793-.78V55.783H73.991a2.973,2.973,0,0,0-1.685.39,1.264,1.264,0,0,0-.564,1.1,1.179,1.179,0,0,0,.386.926A1.5,1.5,0,0,0,73.161,58.547ZM87.089,55.6a5.4,5.4,0,0,1-.934,3.329,3.042,3.042,0,0,1-2.569,1.237,2.93,2.93,0,0,1-2.457-1.137l-.1.971H79.2V47.25h2.017v4.632a2.92,2.92,0,0,1,2.349-1.029,3.077,3.077,0,0,1,2.582,1.22,5.484,5.484,0,0,1,.938,3.412Zm-2.017-.174a3.813,3.813,0,0,0-.515-2.191,1.714,1.714,0,0,0-1.494-.73,1.873,1.873,0,0,0-1.843,1.146v3.7a1.892,1.892,0,0,0,1.859,1.17,1.7,1.7,0,0,0,1.461-.706,3.7,3.7,0,0,0,.531-2.133ZM90.924,60H88.907V51.019h2.017ZM88.783,48.686a1.071,1.071,0,0,1,.295-.772,1.113,1.113,0,0,1,.843-.307,1.127,1.127,0,0,1,.847.307,1.062,1.062,0,0,1,.3.772,1.038,1.038,0,0,1-.3.76,1.136,1.136,0,0,1-.847.3,1.122,1.122,0,0,1-.843-.3A1.046,1.046,0,0,1,88.783,48.686ZM95.266,60H93.249V47.25h2.017Zm4.341,0H97.59V51.019h2.017ZM97.465,48.686a1.071,1.071,0,0,1,.295-.772,1.113,1.113,0,0,1,.843-.307,1.127,1.127,0,0,1,.847.307,1.062,1.062,0,0,1,.3.772,1.038,1.038,0,0,1-.3.76,1.136,1.136,0,0,1-.847.3,1.122,1.122,0,0,1-.843-.3A1.046,1.046,0,0,1,97.465,48.686Zm3.959,6.757a5.34,5.34,0,0,1,.963-3.333,3.085,3.085,0,0,1,2.582-1.258,2.931,2.931,0,0,1,2.308,1v-4.6h2.017V60h-1.826l-.1-.93a2.973,2.973,0,0,1-2.416,1.1A3.068,3.068,0,0,1,102.4,58.9,5.535,5.535,0,0,1,101.425,55.443Zm2.017.174a3.739,3.739,0,0,0,.527,2.137,1.71,1.71,0,0,0,1.5.768,1.9,1.9,0,0,0,1.81-1.1V53.583a1.876,1.876,0,0,0-1.793-1.079,1.723,1.723,0,0,0-1.511.776A4.163,4.163,0,0,0,103.442,55.617ZM116.765,60a3.113,3.113,0,0,1-.232-.838,3.393,3.393,0,0,1-4.565.232,2.47,2.47,0,0,1-.855-1.909,2.55,2.55,0,0,1,1.067-2.2,5.169,5.169,0,0,1,3.051-.768h1.237v-.589a1.573,1.573,0,0,0-.39-1.116,1.547,1.547,0,0,0-1.187-.419,1.777,1.777,0,0,0-1.129.344,1.066,1.066,0,0,0-.44.876H111.3a2.239,2.239,0,0,1,.49-1.382,3.263,3.263,0,0,1,1.332-1.009,4.68,4.68,0,0,1,1.88-.365,3.769,3.769,0,0,1,2.515.793,2.827,2.827,0,0,1,.963,2.229v4.051a4.591,4.591,0,0,0,.34,1.934V60Zm-2.216-1.453a2.294,2.294,0,0,0,1.125-.291,1.941,1.941,0,0,0,.793-.78V55.783h-1.087a2.973,2.973,0,0,0-1.685.39,1.264,1.264,0,0,0-.564,1.1,1.179,1.179,0,0,0,.386.926A1.5,1.5,0,0,0,114.548,58.547Zm5.669-3.1a5.34,5.34,0,0,1,.963-3.333,3.085,3.085,0,0,1,2.582-1.258,2.931,2.931,0,0,1,2.308,1v-4.6h2.017V60h-1.826l-.1-.93a2.973,2.973,0,0,1-2.416,1.1,3.068,3.068,0,0,1-2.552-1.27A5.535,5.535,0,0,1,120.218,55.443Zm2.017.174a3.739,3.739,0,0,0,.527,2.137,1.71,1.71,0,0,0,1.5.768,1.9,1.9,0,0,0,1.81-1.1V53.583a1.876,1.876,0,0,0-1.793-1.079,1.723,1.723,0,0,0-1.511.776A4.163,4.163,0,0,0,122.235,55.617Z" transform="translate(0 3.425)" fill="#fff"/>
          <rect id="Rectangle_375541" data-name="Rectangle 375541" width="19.959" height="1.522" transform="translate(71.853 69.558)" fill="#ffe126"/>
        </g>
        <g id="Group_1071751" data-name="Group 1071751" transform="translate(208.922 8503.309)">
          <path id="Path_610604" data-name="Path 610604" d="M10130.15-1964.5v8.125l4.148-4.349Z" transform="translate(-9723.684 2219.922)" fill="#7e19b8"/>
          <g id="Group_1071750" data-name="Group 1071750" transform="translate(0 0)">
            <path id="Path_610603" data-name="Path 610603" d="M9051-2624.261v255.639h403.042" transform="translate(-9047.575 2628.611)" fill="none" stroke="#7e19b8" stroke-width="3"/>
            <path id="Path_610605" data-name="Path 610605" d="M0,0V7.748L4.35,3.6Z" transform="translate(0 4.35) rotate(-90)" fill="#7e19b8"/>
          </g>
        </g>
        <text id="Probabilidad" transform="translate(536.925 8772.307)" fill="#12263f" font-size="18" font-family="Roboto-Black, Roboto" font-weight="800"><tspan x="6.08" y="17">Probabilidad</tspan></text>
        <text id="Impacto" transform="translate(167.459 8477.324)" fill="#12263f" font-size="18" font-family="Roboto-Black, Roboto" font-weight="800"><tspan x="11.889" y="17">Impacto</tspan></text>
      </g>
      <rect id="Rectangle_377572" data-name="Rectangle 377572" width="308" height="138" transform="translate(8389 -3056)" fill="#fdfde3"/>
      <text id="Zona_1_Franja_roja:_zona_de_riesgo_muy_probable_así_como_de_alto_impacto." data-name="Zona 1

Franja roja: zona de riesgo muy probable, así como de alto impacto." transform="translate(8415 -3036)" fill="#12263f" font-size="16" font-family="Roboto-Bold, Roboto" font-weight="700"><tspan x="0" y="15">Zona 1</tspan><tspan font-family="Roboto-Regular, Roboto" font-weight="400"><tspan x="0" y="39"></tspan><tspan x="0" y="63">Franja roja: zona de riesgo muy </tspan><tspan x="0" y="87">probable, así como de alto impacto.</tspan></tspan></text>
      <path id="Path_613310" data-name="Path 613310" d="M8645.217-2806.366v-108.666" fill="none" stroke="#304c8e" stroke-width="2" stroke-dasharray="2"/>
      <path id="Path_613311" data-name="Path 613311" d="M8645.217-2639.4v-275.634" transform="translate(-309 -166.968)" fill="none" stroke="#304c8e" stroke-width="2" stroke-dasharray="2"/>
      <path id="Path_613312" data-name="Path 613312" d="M8645.217-2600.032v-315" transform="translate(-309 326.032)" fill="none" stroke="#304c8e" stroke-width="2" stroke-dasharray="2"/>
      <path id="Path_613313" data-name="Path 613313" d="M8645.217-2757.532v-157.5" transform="translate(-148 230.532)" fill="none" stroke="#304c8e" stroke-width="2" stroke-dasharray="2"/>
    </g>
  </g>
</svg>
