<svg xmlns="http://www.w3.org/2000/svg" width="146" height="146" viewBox="0 0 146 146">
  <g id="Group_1072982" data-name="Group 1072982" transform="translate(-307.5 -5197)">
    <g id="Group_1072365" data-name="Group 1072365" transform="translate(38.5 4239)">
      <circle id="Ellipse_5614" data-name="Ellipse 5614" cx="73" cy="73" r="73" transform="translate(269 958)" fill="#304c8e"/>
    </g>
    <g id="Group_1072973" data-name="Group 1072973" transform="translate(3514.13 14138.094)">
      <g id="Page-1" transform="translate(-3176.13 -8917.157)">
        <g id="_019---Confidential-Documents" data-name="019---Confidential-Documents" transform="translate(0 0)">
          <path id="Shape" d="M4.543,90.869H47.979a1.514,1.514,0,1,0,0-3.029H4.543a1.515,1.515,0,0,1-1.514-1.514V13.63a1.514,1.514,0,0,1,1.514-1.514H42.406v13.63a4.543,4.543,0,0,0,4.543,4.543H60.58v3.559a1.514,1.514,0,0,0,3.029,0V28.775a1.655,1.655,0,0,0-.444-1.071L44.991,9.531a1.657,1.657,0,0,0-1.071-.444h-31.8V4.543A1.514,1.514,0,0,1,13.63,3.029H52.38L69.667,20.315V31.8a1.514,1.514,0,0,0,3.029,0V19.688a1.514,1.514,0,0,0-.444-1.071L54.078.444A1.515,1.515,0,0,0,53.007,0H13.63A4.543,4.543,0,0,0,9.087,4.543V9.087H4.543A4.543,4.543,0,0,0,0,13.63v72.7A4.544,4.544,0,0,0,4.543,90.869ZM58.438,27.261H46.949a1.514,1.514,0,0,1-1.514-1.514V14.257Z" transform="translate(0 0)" fill="#fff"/>
          <path id="Shape-2" data-name="Shape" d="M70.348,46.045V40.659a16.659,16.659,0,0,0-33.319,0v5.386A6.038,6.038,0,0,0,34,51.261v21.2a6.058,6.058,0,0,0,6.058,6.058H67.319a6.058,6.058,0,0,0,6.058-6.058v-21.2A6.038,6.038,0,0,0,70.348,46.045Zm-30.29-5.386a13.63,13.63,0,0,1,27.261,0V45.2H64.29V40.659a10.6,10.6,0,0,0-21.2,0V45.2H40.058ZM46.116,45.2V40.659a7.572,7.572,0,0,1,15.145,0V45.2ZM70.348,72.464a3.029,3.029,0,0,1-3.029,3.029H40.058a3.029,3.029,0,0,1-3.029-3.029v-21.2a3.029,3.029,0,0,1,3.029-3.029H67.319a3.029,3.029,0,0,1,3.029,3.029Z" transform="translate(17.493 12.348)" fill="#fff"/>
          <path id="Shape-3" data-name="Shape" d="M50.188,43.1a6.059,6.059,0,0,0-5.673,9.961v3.567a4.543,4.543,0,0,0,9.087,0V53.066A6.058,6.058,0,0,0,50.188,43.1Zm.909,8.19a1.515,1.515,0,0,0-.524,1.142v4.2a1.514,1.514,0,0,1-3.029,0v-4.2a1.514,1.514,0,0,0-.519-1.142,2.952,2.952,0,0,1-1-2.235,3.029,3.029,0,0,1,1.087-2.328,2.991,2.991,0,0,1,1.942-.7,3.3,3.3,0,0,1,.592.055,3.04,3.04,0,0,1,2.394,2.434,3,3,0,0,1-.953,2.776Z" transform="translate(22.123 22.122)" fill="#fff"/>
          <path id="Shape-4" data-name="Shape" d="M10.492,40.834c.036.036.083.059.124.092A16.541,16.541,0,0,0,30.8,40.859l.024-.018a16.66,16.66,0,1,0-20.331,0Zm2.655-1.807a7.572,7.572,0,0,1,4.274-6.058,7.315,7.315,0,0,0,6.482,0,7.572,7.572,0,0,1,4.272,6.058,13.574,13.574,0,0,1-15.028,0Zm7.515-8.33A4.543,4.543,0,1,1,25.2,26.154,4.543,4.543,0,0,1,20.661,30.7Zm0-16.659A13.608,13.608,0,0,1,30.809,36.743a10.653,10.653,0,0,0-4.336-5.788,7.575,7.575,0,1,0-11.618,0,10.653,10.653,0,0,0-4.341,5.788A13.608,13.608,0,0,1,20.661,14.038Z" transform="translate(2.056 5.651)" fill="#fff"/>
          <path id="Shape-5" data-name="Shape" d="M40.348,36H5.514a1.514,1.514,0,1,0,0,3.029H40.348a1.514,1.514,0,1,0,0-3.029Z" transform="translate(2.058 18.522)" fill="#fff"/>
          <path id="Shape-6" data-name="Shape" d="M40.348,41H5.514a1.514,1.514,0,1,0,0,3.029H40.348a1.514,1.514,0,1,0,0-3.029Z" transform="translate(2.058 21.094)" fill="#fff"/>
          <path id="Shape-7" data-name="Shape" d="M41.862,47.515A1.514,1.514,0,0,0,40.348,46H5.514a1.514,1.514,0,1,0,0,3.029H40.348A1.515,1.515,0,0,0,41.862,47.515Z" transform="translate(2.058 23.667)" fill="#fff"/>
          <path id="Shape-8" data-name="Shape" d="M5.514,51a1.514,1.514,0,1,0,0,3.029H22.174a1.514,1.514,0,1,0,0-3.029Z" transform="translate(2.058 26.239)" fill="#fff"/>
        </g>
      </g>
    </g>
  </g>
</svg>
