<svg xmlns="http://www.w3.org/2000/svg" width="146" height="146" viewBox="0 0 146 146">
  <g id="Group_1072981" data-name="Group 1072981" transform="translate(-727.5 -5197)">
    <g id="Group_1072366" data-name="Group 1072366" transform="translate(458.5 4239)">
      <circle id="Ellipse_5614" data-name="Ellipse 5614" cx="73" cy="73" r="73" transform="translate(269 958)" fill="#304c8e"/>
    </g>
    <g id="Group_1072979" data-name="Group 1072979" transform="translate(328.141 13127.361)">
      <g id="Account_x2C__mobile_x2C__profile_x2C__setting_x2C__ui_development_x2C__UX_x2C__UI_1_" transform="translate(428 -7908)">
        <g id="XMLID_1282_" transform="translate(0 0)">
          <g id="XMLID_1678_" transform="translate(37.135 6.752)">
            <g id="Group_1072932" data-name="Group 1072932">
              <g id="Group_1072931" data-name="Group 1072931">
                <path id="Path_613192" data-name="Path 613192" d="M24.816,6.376H14.688a1.688,1.688,0,0,1,0-3.376H24.816a1.688,1.688,0,0,1,0,3.376Z" transform="translate(-13 -3)" fill="#fff"/>
              </g>
            </g>
          </g>
          <g id="XMLID_1677_" transform="translate(16.88 33.759)">
            <g id="Group_1072934" data-name="Group 1072934">
              <g id="Group_1072933" data-name="Group 1072933">
                <path id="Path_613193" data-name="Path 613193" d="M52.575,78.518H15.44A8.449,8.449,0,0,1,7,70.079V46.447a1.688,1.688,0,1,1,3.376,0V70.079a5.07,5.07,0,0,0,5.064,5.064H52.575a5.07,5.07,0,0,0,5.064-5.064V12.688a1.688,1.688,0,1,1,3.376,0V70.079A8.449,8.449,0,0,1,52.575,78.518Z" transform="translate(-7 -11)" fill="#fff"/>
              </g>
            </g>
          </g>
          <g id="XMLID_1676_" transform="translate(16.88)">
            <g id="Group_1072936" data-name="Group 1072936">
              <g id="Group_1072935" data-name="Group 1072935">
                <path id="Path_613194" data-name="Path 613194" d="M59.327,14.5a1.689,1.689,0,0,1-1.688-1.688V9.44a5.07,5.07,0,0,0-5.064-5.064H15.44A5.07,5.07,0,0,0,10.376,9.44v3.376a1.688,1.688,0,1,1-3.376,0V9.44A8.449,8.449,0,0,1,15.44,1H52.575a8.449,8.449,0,0,1,8.44,8.44v3.376A1.689,1.689,0,0,1,59.327,14.5Z" transform="translate(-7 -1)" fill="#fff"/>
              </g>
            </g>
          </g>
          <g id="XMLID_1669_" transform="translate(27.007 77.646)">
            <g id="Group_1072938" data-name="Group 1072938">
              <g id="Group_1072937" data-name="Group 1072937">
                <path id="Path_613195" data-name="Path 613195" d="M25.192,27.376h-13.5a1.688,1.688,0,0,1,0-3.376h13.5a1.688,1.688,0,1,1,0,3.376Z" transform="translate(-10 -24)" fill="#fff"/>
              </g>
            </g>
          </g>
          <g id="XMLID_1294_" transform="translate(27.007 84.398)">
            <g id="Group_1072940" data-name="Group 1072940">
              <g id="Group_1072939" data-name="Group 1072939">
                <path id="Path_613196" data-name="Path 613196" d="M35.319,29.376H11.688a1.688,1.688,0,1,1,0-3.376H35.319a1.688,1.688,0,1,1,0,3.376Z" transform="translate(-10 -26)" fill="#fff"/>
              </g>
            </g>
          </g>
          <g id="XMLID_1663_" transform="translate(27.007 70.894)">
            <g id="Group_1072942" data-name="Group 1072942">
              <g id="Group_1072941" data-name="Group 1072941">
                <path id="Path_613197" data-name="Path 613197" d="M42.071,25.376H11.688a1.688,1.688,0,1,1,0-3.376H42.071a1.688,1.688,0,1,1,0,3.376Z" transform="translate(-10 -22)" fill="#fff"/>
              </g>
            </g>
          </g>
          <g id="XMLID_1647_" transform="translate(15.192 27.007)">
            <g id="Group_1072944" data-name="Group 1072944">
              <g id="Group_1072943" data-name="Group 1072943">
                <path id="Path_613198" data-name="Path 613198" d="M14.94,25.88a8.44,8.44,0,1,1,8.44-8.44A8.449,8.449,0,0,1,14.94,25.88Zm0-13.5A5.064,5.064,0,1,0,20,17.44,5.07,5.07,0,0,0,14.94,12.376Z" transform="translate(-6.5 -9)" fill="#fff"/>
              </g>
            </g>
          </g>
          <g id="XMLID_1646_" transform="translate(7.09 47.263)">
            <g id="Group_1072946" data-name="Group 1072946">
              <g id="Group_1072945" data-name="Group 1072945">
                <path id="Path_613199" data-name="Path 613199" d="M20.641,31.88a23.565,23.565,0,0,1-16-6.286A1.686,1.686,0,0,1,4.15,23.95,11.74,11.74,0,0,1,15.578,15H25.705a11.747,11.747,0,0,1,11.431,8.946,1.689,1.689,0,0,1-.493,1.644,23.567,23.567,0,0,1-16,6.289ZM7.722,23.8a20.582,20.582,0,0,0,25.839,0,8.373,8.373,0,0,0-7.856-5.425H15.578A8.373,8.373,0,0,0,7.722,23.8Z" transform="translate(-4.1 -15)" fill="#fff"/>
              </g>
            </g>
          </g>
          <g id="XMLID_1645_" transform="translate(0 16.88)">
            <g id="Group_1072948" data-name="Group 1072948">
              <g id="Group_1072947" data-name="Group 1072947">
                <path id="Path_613200" data-name="Path 613200" d="M25.631,53.263A23.631,23.631,0,1,1,49.263,29.631,23.66,23.66,0,0,1,25.631,53.263Zm0-43.887A20.255,20.255,0,1,0,45.887,29.631,20.276,20.276,0,0,0,25.631,9.376Z" transform="translate(-2 -6)" fill="#fff"/>
              </g>
            </g>
          </g>
          <g id="XMLID_1575_" transform="translate(6.752 70.557)">
            <g id="XMLID_1641_">
              <g id="Group_1072950" data-name="Group 1072950">
                <g id="Group_1072949" data-name="Group 1072949">
                  <path id="Path_613201" data-name="Path 613201" d="M5.688,25.445A1.553,1.553,0,0,1,4,23.926v-.338a1.688,1.688,0,0,1,3.376,0,1.841,1.841,0,0,1-1.688,1.857Z" transform="translate(-4 -21.9)" fill="#fff"/>
                </g>
              </g>
            </g>
            <g id="XMLID_1597_" transform="translate(0 6.752)">
              <g id="Group_1072952" data-name="Group 1072952">
                <g id="Group_1072951" data-name="Group 1072951">
                  <path id="Path_613202" data-name="Path 613202" d="M5.688,27.445A1.553,1.553,0,0,1,4,25.926v-.338a1.688,1.688,0,0,1,3.376,0A1.841,1.841,0,0,1,5.688,27.445Z" transform="translate(-4 -23.9)" fill="#fff"/>
                </g>
              </g>
            </g>
            <g id="XMLID_1578_" transform="translate(0 13.504)">
              <g id="Group_1072954" data-name="Group 1072954">
                <g id="Group_1072953" data-name="Group 1072953">
                  <path id="Path_613203" data-name="Path 613203" d="M5.688,29.445A1.553,1.553,0,0,1,4,27.926v-.338a1.688,1.688,0,0,1,3.376,0,1.841,1.841,0,0,1-1.688,1.857Z" transform="translate(-4 -25.9)" fill="#fff"/>
                </g>
              </g>
            </g>
          </g>
          <g id="XMLID_1295_" transform="translate(70.894 40.511)">
            <g id="Group_1072956" data-name="Group 1072956">
              <g id="Group_1072955" data-name="Group 1072955">
                <path id="Path_613204" data-name="Path 613204" d="M27.524,60.263H24.688a1.688,1.688,0,1,1,0-3.376h1.475l.827-3.832a1.682,1.682,0,0,1,1.252-1.283,16.175,16.175,0,0,0,4.615-1.928,1.687,1.687,0,0,1,1.786.017L37.986,52l2.069-2.086L37.918,46.6a1.692,1.692,0,0,1-.024-1.793,16.069,16.069,0,0,0,1.924-4.615,1.693,1.693,0,0,1,1.276-1.256l3.845-.854V35.187l-3.845-.854a1.693,1.693,0,0,1-1.276-1.256,16.165,16.165,0,0,0-1.924-4.615,1.679,1.679,0,0,1,.02-1.789l2.14-3.346-2.066-2.066L34.644,23.4a1.68,1.68,0,0,1-1.786.017,16.255,16.255,0,0,0-4.615-1.928,1.682,1.682,0,0,1-1.252-1.283l-.827-3.832H24.688a1.688,1.688,0,0,1,0-3.376h2.836a1.687,1.687,0,0,1,1.647,1.333l.9,4.163a19.535,19.535,0,0,1,3.616,1.512l3.626-2.319a1.691,1.691,0,0,1,2.1.23L43.4,21.9a1.686,1.686,0,0,1,.226,2.1l-2.319,3.626a19.6,19.6,0,0,1,1.512,3.622l4.169.925a1.69,1.69,0,0,1,1.323,1.647v5.6a1.687,1.687,0,0,1-1.323,1.647L42.823,42a19.469,19.469,0,0,1-1.512,3.619l2.316,3.592a1.681,1.681,0,0,1-.219,2.1L39.42,55.334a1.686,1.686,0,0,1-2.107.233l-3.626-2.319a19.631,19.631,0,0,1-3.616,1.512l-.9,4.162a1.686,1.686,0,0,1-1.647,1.34Z" transform="translate(-23 -13)" fill="#fff"/>
              </g>
            </g>
          </g>
          <g id="XMLID_1874_" transform="translate(67.613 54.015)">
            <g id="Group_1072958" data-name="Group 1072958">
              <g id="Group_1072957" data-name="Group 1072957">
                <path id="Path_613205" data-name="Path 613205" d="M30.552,36.472a1.688,1.688,0,0,1-.712-3.217A6.754,6.754,0,0,0,27,20.376a6.671,6.671,0,0,0-2.623.53A1.687,1.687,0,1,1,23.057,17.8,10,10,0,0,1,27,17a10.128,10.128,0,0,1,4.267,19.314,1.68,1.68,0,0,1-.712.159Z" transform="translate(-22.028 -17)" fill="#fff"/>
              </g>
            </g>
          </g>
          <g id="XMLID_1894_" transform="translate(54.015 16.88)">
            <g id="Group_1072960" data-name="Group 1072960">
              <g id="Group_1072959" data-name="Group 1072959">
                <path id="Path_613206" data-name="Path 613206" d="M45.007,19.5H24.752a6.752,6.752,0,0,1,0-13.5H45.007a6.752,6.752,0,0,1,0,13.5ZM24.752,9.376a3.376,3.376,0,1,0,0,6.752H45.007a3.376,3.376,0,0,0,0-6.752Z" transform="translate(-18 -6)" fill="#fff"/>
              </g>
            </g>
          </g>
        </g>
      </g>
    </g>
  </g>
</svg>
