<svg xmlns="http://www.w3.org/2000/svg" width="295" height="147" viewBox="0 0 295 147">
  <g id="Group_1072392" data-name="Group 1072392" transform="translate(-180 -1212)">
    <rect id="Rectangle_377489" data-name="Rectangle 377489" width="295" height="147" rx="22" transform="translate(180 1212)" fill="#fdfde3"/>
    <g id="_23991117_6895862_1" data-name="23991117_6895862 1" transform="translate(172.056 1098.846)">
      <path id="Path_612500" data-name="Path 612500" d="M102.052,256.575c-7.837,0-41.029-26.558-29.062-51.961,10.422-22.123,32.963,10.124,26.071-35.045-2.893-18.957,18.548-39.9,39.747-27.574,11.97,6.958,32.782,12.362,39.61-1.2,14.8-29.4,57.816-27.708,70.492,2.705,13.576,32.569-16.454,30.078-5.118,46.987,6.478,9.663,10.8,9.055,17.505,24.693,7.849,18.305-1.823,41.649-20.135,41.649Z" transform="translate(-7.685 -2.999)" fill="#e2e7fe"/>
      <path id="Path_612501" data-name="Path 612501" d="M177.511,242.512l-1.333-.474a1.611,1.611,0,0,1-1.083-1.581,12.878,12.878,0,0,0-.161-2.771,1.613,1.613,0,0,1,.911-1.713l1.4-.664a1.63,1.63,0,0,0,.773-2.171l-.83-1.748a1.63,1.63,0,0,0-2.171-.773l-1.48.7a1.648,1.648,0,0,1-1.911-.343,12.848,12.848,0,0,0-2.239-1.91,1.611,1.611,0,0,1-.6-1.879l.419-1.178a1.629,1.629,0,0,0-.989-2.082l-1.823-.649a1.629,1.629,0,0,0-2.082.989l-.54,1.517a1.65,1.65,0,0,1-1.574,1.083,12.832,12.832,0,0,0-2.372.217,1.649,1.649,0,0,1-1.733-.763l-1.105-1.86a1.63,1.63,0,0,0-2.233-.569l-1.663.988a1.629,1.629,0,0,0-.568,2.233l.86,1.447a1.619,1.619,0,0,1-.252,1.986,12.835,12.835,0,0,0-1.391,1.6,1.61,1.61,0,0,1-1.838.543l-1.333-.474a1.629,1.629,0,0,0-2.082.989l-.649,1.823a1.629,1.629,0,0,0,.989,2.082l1.324.471a1.623,1.623,0,0,1,1.091,1.591,12.855,12.855,0,0,0,.021,1.6,1.618,1.618,0,0,1-1.151,1.663l-1.1.332a1.63,1.63,0,0,0-1.087,2.032l.561,1.852a1.63,1.63,0,0,0,2.033,1.087l1.691-.513a1.65,1.65,0,0,1,1.776.582,12.9,12.9,0,0,0,2.024,2.06,1.647,1.647,0,0,1,.536,1.831l-.541,1.518a1.629,1.629,0,0,0,.989,2.082l1.823.649a1.629,1.629,0,0,0,2.082-.989l.419-1.178a1.611,1.611,0,0,1,1.65-1.079,12.846,12.846,0,0,0,2.926-.064,1.644,1.644,0,0,1,1.692.94l.715,1.5a1.63,1.63,0,0,0,2.171.773l1.748-.83a1.63,1.63,0,0,0,.773-2.171l-.67-1.411a1.613,1.613,0,0,1,.378-1.9,12.892,12.892,0,0,0,1.89-2.058,1.611,1.611,0,0,1,1.839-.542l1.332.474a1.629,1.629,0,0,0,2.082-.989l.649-1.823A1.63,1.63,0,0,0,177.511,242.512Zm-8.65-.432a7.084,7.084,0,1,1-4.3-9.049A7.084,7.084,0,0,1,168.861,242.08Z" transform="translate(-44.125 -53.067)" fill="#636363"/>
      <path id="Path_612502" data-name="Path 612502" d="M401.8,120.826a4.3,4.3,0,1,0-6.083,0A4.3,4.3,0,0,0,401.8,120.826Z" transform="translate(-164.438 0)" fill="#304c8e"/>
      <path id="Path_612504" data-name="Path 612504" d="M345.254,122.562l-28.6,9.267-32.808,20.794" transform="translate(-110.929 -4.391)" fill="none" stroke="#304c8e" stroke-miterlimit="10" stroke-width="5"/>
      <path id="Path_612505" data-name="Path 612505" d="M399.748,269.38H388.009a4.33,4.33,0,0,1-4.33-4.33V149.966a4.33,4.33,0,0,1,4.33-4.33h11.739a4.33,4.33,0,0,1,4.33,4.33V265.049A4.331,4.331,0,0,1,399.748,269.38Z" transform="translate(-159.223 -15.553)" fill="#636363"/>
      <path id="Path_612506" data-name="Path 612506" d="M345.575,287.428H333.836a4.33,4.33,0,0,1-4.33-4.33v-97.09a4.33,4.33,0,0,1,4.33-4.33h11.739a4.33,4.33,0,0,1,4.33,4.33V283.1A4.33,4.33,0,0,1,345.575,287.428Z" transform="translate(-133.017 -32.987)" fill="#636363"/>
      <path id="Path_612507" data-name="Path 612507" d="M292.857,302.86H281.118a4.33,4.33,0,0,1-4.33-4.33v-79.9a4.33,4.33,0,0,1,4.33-4.33h11.739a4.33,4.33,0,0,1,4.33,4.33v79.9A4.331,4.331,0,0,1,292.857,302.86Z" transform="translate(-107.515 -48.767)" fill="#636363"/>
      <path id="Path_612508" data-name="Path 612508" d="M194.668,234.513a75.3,75.3,0,0,0-50.391,21.758,2.133,2.133,0,0,0,.049,3.078L175.8,288.592a2.116,2.116,0,0,0,2.821.068,29.643,29.643,0,0,1,16.8-6.926,2.109,2.109,0,0,0,1.934-2.091V237.118A2.6,2.6,0,0,0,194.668,234.513Z" transform="translate(-43.108 -58.546)" fill="#e1f5d6"/>
      <path id="Path_612509" data-name="Path 612509" d="M99.722,337.414h43.39a2.137,2.137,0,0,0,2.126-2.021c.412-6.827,2.184-12.065,6.205-16.919a2.118,2.118,0,0,0-.21-2.9l-31.171-28.9a2.134,2.134,0,0,0-3.035.136,75.26,75.26,0,0,0-19.437,48.408A2.135,2.135,0,0,0,99.722,337.414Z" transform="translate(-20.829 -83.505)" fill="#60cb28"/>
      <path id="Path_612510" data-name="Path 612510" d="M252.9,236.616V279.61a2.141,2.141,0,0,0,1.953,2.122,30.058,30.058,0,0,1,16.791,6.988,2.13,2.13,0,0,0,2.813-.091l31.5-29.266a2.133,2.133,0,0,0,.05-3.078,75.3,75.3,0,0,0-50.908-21.8A2.137,2.137,0,0,0,252.9,236.616Z" transform="translate(-95.96 -58.531)" fill="#60cb28"/>
      <path id="Path_612511" data-name="Path 612511" d="M351.545,335.222a75.256,75.256,0,0,0-19.408-48.375,2.134,2.134,0,0,0-3.037-.135L297.942,315.66a2.126,2.126,0,0,0-.237,2.857c4.1,5.286,5.5,9.561,6.252,16.987a2.129,2.129,0,0,0,2.118,1.911h43.339A2.133,2.133,0,0,0,351.545,335.222Z" transform="translate(-117.419 -83.521)" fill="#e1f5d6"/>
      <path id="Path_612512" data-name="Path 612512" d="M223.274,330.418a28.433,28.433,0,0,0-28.338,26.12,2.136,2.136,0,0,0,2.126,2.31h52.424a2.137,2.137,0,0,0,2.126-2.31A28.433,28.433,0,0,0,223.274,330.418Z" transform="translate(-67.917 -104.939)" fill="#d5981d"/>
      <path id="Path_612513" data-name="Path 612513" d="M226.891,317.712a4.919,4.919,0,0,0-4.5-2.362l-14.3-25.182a2.139,2.139,0,0,0-.242-.342l-11.494-13.288a.268.268,0,0,0-.451.275l6.515,16.2a2.192,2.192,0,0,0,.181.352L218.315,318a4.92,4.92,0,1,0,8.576-.287Z" transform="translate(-68.378 -78.83)" fill="#315782"/>
      <path id="Path_612514" data-name="Path 612514" d="M391.1,372.251l.113,3.662,3.9-.645-.016-3.037Z" transform="translate(-162.815 -125.166)" fill="#e1b39d"/>
      <path id="Path_612515" data-name="Path 612515" d="M388.765,378.1c-4.028-.061-5.347-.067-10.4,2.471a.756.756,0,0,0,.377,1.415l9.286-.046C389.375,382.015,388.765,378.1,388.765,378.1Z" transform="translate(-156.465 -127.996)" fill="#304c8e"/>
      <path id="Path_612516" data-name="Path 612516" d="M426.033,371.789l.094,3.676,3.909.3L430.017,372Z" transform="translate(-179.711 -124.952)" fill="#e1b39d"/>
      <path id="Path_612517" data-name="Path 612517" d="M426.108,378.083a4.714,4.714,0,0,0-2.966.941c-1.083,1.075-.938,2.935-.5,2.937l6.888.023c.333.026.223-1.6-.547-2.642C428.292,378.408,427.715,378.075,426.108,378.083Z" transform="translate(-177.912 -127.996)" fill="#304c8e"/>
      <path id="Path_612518" data-name="Path 612518" d="M408.658,282.86c.415,2.828,2.212,15.721,2.012,25.814a.767.767,0,0,0,0,.091l2.347,20.115a.71.71,0,0,1-.705.792H407.74a.71.71,0,0,1-.692-.549c-.793-3.417-5.027-21.7-5.343-24.128-.349-2.677-.7-6.286-.7-6.286l-2.9,11.849c0,.016-.007.032-.01.049l-3.227,18.736a.71.71,0,0,1-.711.59l-4.8-.076a.71.71,0,0,1-.7-.76l1.52-21.28c0-.018,0-.037.006-.055l3.857-25.751a.71.71,0,0,1,.748-.6l13.211.852A.706.706,0,0,1,408.658,282.86Z" transform="translate(-161.631 -81.23)" fill="#315782"/>
      <path id="Path_612519" data-name="Path 612519" d="M410.9,301.465,409.092,287.1" transform="translate(-171.516 -83.986)" fill="none" stroke="#264154" stroke-linecap="round" stroke-miterlimit="10" stroke-width="0.5"/>
      <path id="Path_612520" data-name="Path 612520" d="M404.2,312.723l-3.9,12.776-2.642,17.946" transform="translate(-165.988 -96.379)" fill="none" stroke="#264154" stroke-linecap="round" stroke-miterlimit="10" stroke-width="0.5"/>
      <path id="Path_612521" data-name="Path 612521" d="M425.721,295.162l1.292,20.076,2.651,19.712" transform="translate(-179.56 -87.884)" fill="none" stroke="#264154" stroke-linecap="round" stroke-miterlimit="10" stroke-width="0.5"/>
      <path id="Path_612522" data-name="Path 612522" d="M405.281,289.139s.691,4.858,2.606,4.791" transform="translate(-169.672 -84.971)" fill="none" stroke="#264154" stroke-linecap="round" stroke-miterlimit="10" stroke-width="0.5"/>
      <path id="Path_612523" data-name="Path 612523" d="M418.779,287.1a15.746,15.746,0,0,0,2.987,5.844" transform="translate(-176.202 -83.986)" fill="none" stroke="#264154" stroke-linecap="round" stroke-miterlimit="10" stroke-width="0.5"/>
      <path id="Path_612524" data-name="Path 612524" d="M408.659,250.395c-.011-.251-.166-2.42.085-2.435l4,.556c.16-2.129-.546-12.279-5.681-12.8a47.626,47.626,0,0,0-8.355,0,6.731,6.731,0,0,0-5.216,2.816c-1.5,2.112-3.4,5.106-3.993,7.512-.886,3.578,3,5.169,4.142,5.555a.457.457,0,0,1,.311.433l.032,8.008a.71.71,0,0,0,.717.707l13.946-.138a.461.461,0,0,0,.432-.479Z" transform="translate(-161.975 -59.033)" fill="#60cb28"/>
      <path id="Path_612525" data-name="Path 612525" d="M403.547,222.328l-.011,1.625a2.948,2.948,0,0,0,2.946,2.352c2.561.067,2.775-2.729,2.775-2.729l-.759-2.493,0-2.758,1-4.221L399.02,210.5s-.649,6.194,0,8.361S401.305,223.2,403.547,222.328Z" transform="translate(-166.504 -46.928)" fill="#e1b39d"/>
      <path id="Path_612526" data-name="Path 612526" d="M396.988,208.564s3.9-1.088,4.981,1.515,1.036,2.011,1.484,1.513a1.117,1.117,0,0,1,1.836,1.015c-.226,1.74-.611,3.2,1.434,4.908a9.1,9.1,0,0,1,1.466-4.783,5.207,5.207,0,0,0-3.748-8.045c-5.052-.829-2.351-2.008-6.334-1.39S394.377,208.342,396.988,208.564Z" transform="translate(-164.73 -43.362)" fill="#315782"/>
      <path id="Path_612527" data-name="Path 612527" d="M401.488,247.047l-1.073,4.736" transform="translate(-167.318 -64.609)" fill="none" stroke="#e1f5d6" stroke-linecap="round" stroke-miterlimit="10" stroke-width="0.5"/>
      <path id="Path_612528" data-name="Path 612528" d="M378.394,247.736l10.437-.688a.5.5,0,0,1,.512.362l4.581,16.349a.5.5,0,0,1-.449.631l-10.454.629a.5.5,0,0,1-.509-.362l-4.564-16.291A.5.5,0,0,1,378.394,247.736Z" transform="translate(-156.441 -64.609)" fill="#315782"/>
      <path id="Path_612529" data-name="Path 612529" d="M410.671,256.38l.181,2.821-10.149.211a4.522,4.522,0,0,0-1.124-2.2c-.829-.706-1.2-.649-1.248-.373s.806,1.241.611,1.731c-.084,1.223-4.069-1.951-4.232-1.15-.359.285.348,1.033.348,1.033-.431.034-.839.763-.3,1.046-.447.139-.425,1.054.038,1.16-1.1,1.03,2.737,3.466,5.627,1.554,0,0,12.269,1.767,13.241.923s1.007-5.546,1.007-5.546Z" transform="translate(-164.427 -69.124)" fill="#e1b39d"/>
      <path id="Path_612530" data-name="Path 612530" d="M423.657,242.842l.591,8.486,5.083.73c.182.02-.455-1.471-.508-1.646l-.776-1.714Z" transform="translate(-178.562 -62.575)" fill="#60cb28"/>
      <path id="Path_612531" data-name="Path 612531" d="M379.852,262.329c-.188-.6-.212-1.483.372-1.822,1.146-.667,1.417-.947,1.82-.722s-.01.811-.01.811c.432-.019.925.658.423,1,.46.084.549,1,.1,1.156.648.476-.053,1.564-1.465,1.666C380.149,264.489,380.01,262.831,379.852,262.329Z" transform="translate(-157.314 -70.734)" fill="#e1b39d"/>
      <path id="Path_612532" data-name="Path 612532" d="M424.988,254.73l-1.331-7.369" transform="translate(-178.562 -64.761)" fill="none" stroke="#e1f5d6" stroke-linecap="round" stroke-miterlimit="10" stroke-width="0.5"/>
      <path id="Path_612533" data-name="Path 612533" d="M401.766,281.641l11.77-.236" transform="translate(-167.972 -81.23)" fill="none" stroke="#e1f5d6" stroke-linecap="round" stroke-miterlimit="10" stroke-width="0.5"/>
      <path id="Path_612534" data-name="Path 612534" d="M93.254,331.833l-1.625-.578a1.963,1.963,0,0,1-1.32-1.928,15.674,15.674,0,0,0-.2-3.378,1.967,1.967,0,0,1,1.111-2.089l1.7-.81a1.986,1.986,0,0,0,.942-2.647l-1.012-2.131a1.987,1.987,0,0,0-2.647-.942l-1.8.857a2.009,2.009,0,0,1-2.33-.418,15.66,15.66,0,0,0-2.729-2.328,1.963,1.963,0,0,1-.727-2.29l.511-1.435a1.987,1.987,0,0,0-1.205-2.538l-2.222-.791a1.987,1.987,0,0,0-2.538,1.205l-.658,1.849a2.011,2.011,0,0,1-1.918,1.32,15.636,15.636,0,0,0-2.891.264,2.011,2.011,0,0,1-2.113-.93l-1.347-2.267a1.987,1.987,0,0,0-2.723-.693l-2.028,1.2a1.987,1.987,0,0,0-.693,2.723l1.048,1.764a1.973,1.973,0,0,1-.308,2.42,15.69,15.69,0,0,0-1.7,1.947,1.963,1.963,0,0,1-2.241.662l-1.625-.578a1.987,1.987,0,0,0-2.538,1.205l-.791,2.222a1.987,1.987,0,0,0,1.205,2.538l1.614.575a1.978,1.978,0,0,1,1.33,1.939,15.684,15.684,0,0,0,.026,1.947,1.972,1.972,0,0,1-1.4,2.027l-1.335.4a1.987,1.987,0,0,0-1.325,2.478l.685,2.257a1.986,1.986,0,0,0,2.478,1.325l2.062-.625a2.012,2.012,0,0,1,2.166.71,15.683,15.683,0,0,0,2.468,2.512,2.009,2.009,0,0,1,.654,2.232l-.659,1.851a1.987,1.987,0,0,0,1.205,2.538l2.222.791A1.987,1.987,0,0,0,70.575,347l.511-1.436a1.964,1.964,0,0,1,2.011-1.315,15.67,15.67,0,0,0,3.567-.078,2,2,0,0,1,2.062,1.146l.871,1.834a1.986,1.986,0,0,0,2.647.942l2.131-1.012a1.986,1.986,0,0,0,.942-2.647l-.817-1.72a1.967,1.967,0,0,1,.461-2.323,15.67,15.67,0,0,0,2.3-2.509,1.964,1.964,0,0,1,2.242-.66l1.624.578a1.987,1.987,0,0,0,2.538-1.206l.791-2.222A1.989,1.989,0,0,0,93.254,331.833Zm-10.545-.526a8.636,8.636,0,1,1-5.241-11.032A8.636,8.636,0,0,1,82.709,331.307Z" transform="translate(0 -94.226)" fill="#315782"/>
      <path id="Path_612535" data-name="Path 612535" d="M156.321,355.166l-.911-.447a1.154,1.154,0,0,1-.642-1.214,9.217,9.217,0,0,0,.111-1.987,1.157,1.157,0,0,1,.788-1.146l1.05-.359a1.169,1.169,0,0,0,.727-1.483L157,347.218a1.169,1.169,0,0,0-1.483-.727l-1.111.38a1.181,1.181,0,0,1-1.333-.4,9.2,9.2,0,0,0-1.438-1.543,1.155,1.155,0,0,1-.272-1.386l.394-.8a1.168,1.168,0,0,0-.534-1.563l-1.245-.611a1.168,1.168,0,0,0-1.563.534l-.508,1.036a1.183,1.183,0,0,1-1.209.643,9.212,9.212,0,0,0-1.707-.039,1.183,1.183,0,0,1-1.172-.685l-.636-1.415a1.168,1.168,0,0,0-1.544-.587l-1.265.568a1.168,1.168,0,0,0-.587,1.544l.494,1.1a1.161,1.161,0,0,1-.341,1.393,9.243,9.243,0,0,0-1.121,1.024,1.155,1.155,0,0,1-1.354.237l-.911-.447a1.168,1.168,0,0,0-1.563.534l-.611,1.245a1.168,1.168,0,0,0,.534,1.563l.9.443a1.163,1.163,0,0,1,.647,1.221,9.254,9.254,0,0,0-.115,1.139,1.159,1.159,0,0,1-.956,1.09l-.807.147a1.168,1.168,0,0,0-.94,1.359l.249,1.365a1.168,1.168,0,0,0,1.359.94l1.246-.227a1.183,1.183,0,0,1,1.218.56,9.245,9.245,0,0,0,1.274,1.632,1.181,1.181,0,0,1,.233,1.348l-.509,1.037a1.168,1.168,0,0,0,.534,1.563l1.245.611a1.168,1.168,0,0,0,1.563-.534l.394-.8a1.155,1.155,0,0,1,1.263-.634,9.209,9.209,0,0,0,2.089.193,1.178,1.178,0,0,1,1.128.807l.387,1.13a1.168,1.168,0,0,0,1.483.727l1.312-.449a1.168,1.168,0,0,0,.727-1.483l-.362-1.059a1.155,1.155,0,0,1,.424-1.326,9.245,9.245,0,0,0,1.513-1.311,1.155,1.155,0,0,1,1.354-.236l.91.446a1.168,1.168,0,0,0,1.563-.534l.611-1.245A1.17,1.17,0,0,0,156.321,355.166Zm-6.125-1.012a5.078,5.078,0,1,1-2.324-6.795A5.078,5.078,0,0,1,150.2,354.153Z" transform="translate(-38.263 -109.55)" fill="#315782"/>
      <path id="Path_612536" data-name="Path 612536" d="M169.768,178.748a13.995,13.995,0,1,0-18.233-7.7A13.995,13.995,0,0,0,169.768,178.748Z" transform="translate(-46.426 -18.527)" fill="#60cb28"/>
      <path id="Path_612537" data-name="Path 612537" d="M169.486,178.488a15.5,15.5,0,1,0-20.509-7.734A15.5,15.5,0,0,0,169.486,178.488Z" transform="translate(-45.02 -17.115)" fill="none" stroke="#60cb28" stroke-miterlimit="10" stroke-width="0.5"/>
      <path id="Path_612538" data-name="Path 612538" d="M168.523,180.706l-2.546,6.487a.232.232,0,0,0,.328.287l1.934-1.075a.232.232,0,0,1,.333.133l.662,2.1a.232.232,0,0,0,.437.015l2.3-5.819a.232.232,0,0,0-.089-.279l-3.015-1.961A.232.232,0,0,0,168.523,180.706Z" transform="translate(-53.904 -32.446)" fill="none" stroke="#fff" stroke-miterlimit="10" stroke-width="1"/>
      <path id="Path_612539" data-name="Path 612539" d="M181.094,181.266l2.546,6.487a.232.232,0,0,1-.328.287l-1.934-1.075a.232.232,0,0,0-.333.133l-.662,2.1a.232.232,0,0,1-.437.015l-2.3-5.819a.232.232,0,0,1,.089-.279l3.015-1.961A.233.233,0,0,1,181.094,181.266Z" transform="translate(-59.549 -32.717)" fill="none" stroke="#fff" stroke-miterlimit="10" stroke-width="1"/>
      <path id="Path_612540" data-name="Path 612540" d="M171.189,174.467a6.876,6.876,0,1,0-6.876-6.876A6.876,6.876,0,0,0,171.189,174.467Z" transform="translate(-53.107 -22.848)" fill="#60cb28" stroke="#fff" stroke-miterlimit="10" stroke-width="1"/>
      <path id="Path_612541" data-name="Path 612541" d="M177.835,170.992a3.246,3.246,0,1,1-3.246-3.246A3.246,3.246,0,0,1,177.835,170.992Z" transform="translate(-56.507 -26.248)" fill="#fff" stroke="#60cb28" stroke-miterlimit="10" stroke-width="1"/>
      <path id="Path_612542" data-name="Path 612542" d="M175.571,174.144a.263.263,0,0,1-.411-.07l-.511-.965a.258.258,0,0,1,.456-.242l.357.675,1.834-1.7a.258.258,0,1,1,.351.378Z" transform="translate(-58.092 -28.197)" fill="#60cb28"/>
      <path id="Path_612543" data-name="Path 612543" d="M90.6,232.16a13.994,13.994,0,1,0-18.233-7.7A13.995,13.995,0,0,0,90.6,232.16Z" transform="translate(-8.127 -44.365)" fill="#60cb28"/>
      <path id="Path_612544" data-name="Path 612544" d="M88.716,232.525a15.5,15.5,0,1,0-19.527-9.955A15.5,15.5,0,0,0,88.716,232.525Z" transform="translate(-6.723 -42.954)" fill="none" stroke="#60cb28" stroke-miterlimit="10" stroke-width="0.5"/>
      <path id="Path_612545" data-name="Path 612545" d="M83.347,233.923a6.912,6.912,0,0,0,6.341,6.309.506.506,0,0,0,.546-.5v-5.853a.5.5,0,0,0-.5-.5H83.849A.5.5,0,0,0,83.347,233.923Z" transform="translate(-13.94 -57.996)" fill="none" stroke="#fff" stroke-miterlimit="10" stroke-width="1"/>
      <path id="Path_612546" data-name="Path 612546" d="M98.458,233.876v5.853a.506.506,0,0,0,.546.5,6.913,6.913,0,0,0,6.341-6.309.5.5,0,0,0-.5-.548H98.96A.5.5,0,0,0,98.458,233.876Z" transform="translate(-21.25 -57.996)" fill="none" stroke="#fff" stroke-miterlimit="10" stroke-width="1"/>
      <path id="Path_612547" data-name="Path 612547" d="M106.991,222.527a6.912,6.912,0,0,0-6.341-6.309.506.506,0,0,0-.546.5v5.853a.5.5,0,0,0,.5.5h5.883A.506.506,0,0,0,106.991,222.527Z" transform="translate(-22.047 -49.695)" fill="#fff"/>
      <path id="Path_612548" data-name="Path 612548" d="M90.234,224.8v-5.853a.506.506,0,0,0-.546-.5,6.913,6.913,0,0,0-6.341,6.309.5.5,0,0,0,.5.548h5.883A.5.5,0,0,0,90.234,224.8Z" transform="translate(-13.94 -50.77)" fill="none" stroke="#fff" stroke-miterlimit="10" stroke-width="1"/>
      <path id="Path_612549" data-name="Path 612549" d="M267.881,171.624a13.995,13.995,0,1,0-18.233-7.7A13.995,13.995,0,0,0,267.881,171.624Z" transform="translate(-93.887 -15.081)" fill="#60cb28"/>
      <path id="Path_612550" data-name="Path 612550" d="M267.048,171.6a15.5,15.5,0,1,0-20.188-8.538A15.5,15.5,0,0,0,267.048,171.6Z" transform="translate(-92.486 -13.665)" fill="none" stroke="#60cb28" stroke-miterlimit="10" stroke-width="0.5"/>
      <path id="Path_612551" data-name="Path 612551" d="M257.4,172.788h6.394a.082.082,0,0,1,.084.081,3.29,3.29,0,0,1-6.573.012A.092.092,0,0,1,257.4,172.788Z" transform="translate(-98.089 -28.687)" fill="#fff"/>
      <path id="Path_612552" data-name="Path 612552" d="M257.721,166.986l3-5.742a.048.048,0,0,1,.087,0l3,5.745a.136.136,0,0,1-.111.2h-5.856A.138.138,0,0,1,257.721,166.986Z" transform="translate(-98.284 -23.09)" fill="none" stroke="#fff" stroke-miterlimit="10" stroke-width="1"/>
      <path id="Path_612553" data-name="Path 612553" d="M275.729,185.049h-7.945a.239.239,0,0,1-.21-.352l.74-1.362a.617.617,0,0,1,.542-.323h5.718a.617.617,0,0,1,.531.3l.822,1.387A.23.23,0,0,1,275.729,185.049Z" transform="translate(-103.044 -33.633)" fill="#fff"/>
      <path id="Path_612554" data-name="Path 612554" d="M275.73,157.848H274.6v12.991h1.129Z" transform="translate(-106.457 -21.46)" fill="#fff"/>
      <path id="Path_612555" data-name="Path 612555" d="M275.777,157.915a1.324,1.324,0,1,1-1.324-1.324A1.324,1.324,0,0,1,275.777,157.915Z" transform="translate(-105.746 -20.852)" fill="#fff"/>
      <path id="Path_612556" data-name="Path 612556" d="M263.729,160.1s3.889.076,5.213-1.247" transform="translate(-101.198 -21.947)" fill="none" stroke="#fff" stroke-miterlimit="10" stroke-width="1"/>
      <path id="Path_612557" data-name="Path 612557" d="M287.92,172.788h-6.34a.113.113,0,0,0-.116.113,3.292,3.292,0,0,0,6.573,0A.114.114,0,0,0,287.92,172.788Z" transform="translate(-109.777 -28.687)" fill="#fff"/>
      <path id="Path_612558" data-name="Path 612558" d="M288.021,167.082l-2.9-5.6a.132.132,0,0,0-.238,0l-2.9,5.6a.136.136,0,0,0,.114.2h5.813A.136.136,0,0,0,288.021,167.082Z" transform="translate(-110.019 -23.183)" fill="none" stroke="#fff" stroke-miterlimit="10" stroke-width="1"/>
      <path id="Path_612559" data-name="Path 612559" d="M282.884,160.173s-3.954,0-5.278-1.319" transform="translate(-107.911 -21.947)" fill="none" stroke="#fff" stroke-miterlimit="10" stroke-width="1"/>
      <path id="Path_612560" data-name="Path 612560" d="M57.44,385.843H257.046" transform="translate(-1.408 -131.75)" fill="none" stroke="#315782" stroke-linecap="round" stroke-miterlimit="10" stroke-width="1"/>
      <path id="Path_612503" data-name="Path 612503" d="M346.011,138.715a4.3,4.3,0,1,0-5.171,3.2A4.3,4.3,0,0,0,346.011,138.715Z" transform="translate(-136.895 -9.648)" fill="#304c8e"/>
    </g>
  </g>
</svg>
