<svg xmlns="http://www.w3.org/2000/svg" width="141" height="141" viewBox="0 0 141 141">
  <g id="Group_1072999" data-name="Group 1072999" transform="translate(-730 -763.693)">
    <g id="Group_1071490" data-name="Group 1071490" transform="translate(461 -194.307)">
      <circle id="Ellipse_5614" data-name="Ellipse 5614" cx="70.5" cy="70.5" r="70.5" transform="translate(269 958)" fill="#304c8e"/>
    </g>
    <g id="Group_1072995" data-name="Group 1072995" transform="translate(3106.048 9707.028)">
      <g id="evaluation" transform="translate(-2345.048 -8923.028)">
        <path id="Path_613163" data-name="Path 613163" d="M67.465,43.79A7.778,7.778,0,0,0,62.292,40.2V14.834a7.425,7.425,0,0,0-7.416-7.416H42.6a2.956,2.956,0,0,0-2.554-1.483H38.056a8.9,8.9,0,0,0-16.786,0H19.281a2.956,2.956,0,0,0-2.554,1.483H7.416A7.425,7.425,0,0,0,0,14.834V77.126a7.425,7.425,0,0,0,7.416,7.416H33.458c.068.139.123.283.2.42a7.738,7.738,0,0,0,6.831,4.03H81.143a7.739,7.739,0,0,0,6.822-4.031,7.927,7.927,0,0,0-.171-8.117Zm-8.14-28.955V40.2a7.686,7.686,0,0,0-2.966,1.25V16.317a2.966,2.966,0,0,0-2.966-2.966H43.011V10.385H54.876A4.449,4.449,0,0,1,59.326,14.834ZM19.281,8.9H22.4a1.483,1.483,0,0,0,1.455-1.187,5.933,5.933,0,0,1,11.625,0A1.483,1.483,0,0,0,36.93,8.9h3.115v5.933H19.281Zm20.764,8.9A2.956,2.956,0,0,0,42.6,16.317H53.393V45.027L34.557,75.643H8.9V16.317h7.828A2.956,2.956,0,0,0,19.281,17.8ZM7.416,81.576a4.449,4.449,0,0,1-4.449-4.449V14.834a4.449,4.449,0,0,1,4.449-4.449h8.9v2.966H8.9a2.966,2.966,0,0,0-2.966,2.966V75.643A2.966,2.966,0,0,0,8.9,78.609h24.12a7.861,7.861,0,0,0-.363,2.966Zm77.956,1.938a4.81,4.81,0,0,1-4.236,2.511H40.49a4.807,4.807,0,0,1-4.234-2.509,5,5,0,0,1,.105-5.121L56.68,45.346a4.826,4.826,0,0,1,8.261,0L85.26,78.4a5,5,0,0,1,.111,5.117Z" transform="translate(0 0.006)" fill="#fff"/>
        <path id="Path_613164" data-name="Path 613164" d="M42.449,33A4.449,4.449,0,0,0,38,37.449V50.8a4.449,4.449,0,0,0,8.9,0V37.449A4.449,4.449,0,0,0,42.449,33Zm1.483,17.8a1.483,1.483,0,0,1-2.966,0V37.449a1.483,1.483,0,0,1,2.966,0Z" transform="translate(18.36 15.953)" fill="#fff"/>
        <path id="Path_613165" data-name="Path 613165" d="M42.449,50A4.449,4.449,0,1,0,46.9,54.449,4.449,4.449,0,0,0,42.449,50Zm0,5.933a1.483,1.483,0,1,1,1.483-1.483A1.483,1.483,0,0,1,42.449,55.933Z" transform="translate(18.36 24.166)" fill="#fff"/>
        <path id="Path_613166" data-name="Path 613166" d="M20.483,19.966H39.764a1.483,1.483,0,1,0,0-2.966H20.483a1.483,1.483,0,1,0,0,2.966Z" transform="translate(9.18 8.222)" fill="#fff"/>
        <path id="Path_613167" data-name="Path 613167" d="M20.483,23.966h8.9a1.483,1.483,0,1,0,0-2.966h-8.9a1.483,1.483,0,1,0,0,2.966Z" transform="translate(9.18 10.155)" fill="#fff"/>
        <path id="Path_613168" data-name="Path 613168" d="M20.483,30.966H39.764a1.483,1.483,0,1,0,0-2.966H20.483a1.483,1.483,0,1,0,0,2.966Z" transform="translate(9.18 13.537)" fill="#fff"/>
        <path id="Path_613169" data-name="Path 613169" d="M20.483,34.966h8.9a1.483,1.483,0,1,0,0-2.966h-8.9a1.483,1.483,0,1,0,0,2.966Z" transform="translate(9.18 15.47)" fill="#fff"/>
        <path id="Path_613170" data-name="Path 613170" d="M20.483,41.966H30.865a1.483,1.483,0,1,0,0-2.966H20.483a1.483,1.483,0,1,0,0,2.966Z" transform="translate(9.18 18.851)" fill="#fff"/>
        <path id="Path_613171" data-name="Path 613171" d="M20.483,45.966h5.933a1.483,1.483,0,1,0,0-2.966H20.483a1.483,1.483,0,1,0,0,2.966Z" transform="translate(9.18 20.784)" fill="#fff"/>
        <path id="Path_613172" data-name="Path 613172" d="M9.434,24.334a1.483,1.483,0,0,0,0,2.1L12.4,29.4a1.483,1.483,0,0,0,1.049.435,1.423,1.423,0,0,0,.237-.019,1.483,1.483,0,0,0,1.09-.8l5.933-11.865a1.484,1.484,0,0,0-2.655-1.326L13.043,25.845l-1.511-1.511a1.483,1.483,0,0,0-2.1,0Z" transform="translate(4.348 7.256)" fill="#fff"/>
        <path id="Path_613173" data-name="Path 613173" d="M20.045,26.156a1.483,1.483,0,0,0-1.99.664L13.043,36.845l-1.511-1.511a1.483,1.483,0,1,0-2.1,2.1L12.4,40.4a1.483,1.483,0,0,0,1.049.435,1.422,1.422,0,0,0,.237-.019,1.483,1.483,0,0,0,1.09-.8l5.933-11.865A1.483,1.483,0,0,0,20.045,26.156Z" transform="translate(4.348 12.57)" fill="#fff"/>
        <path id="Path_613174" data-name="Path 613174" d="M20.045,37.151a1.483,1.483,0,0,0-1.99.664L13.043,47.84l-1.511-1.511a1.483,1.483,0,1,0-2.1,2.1L12.4,51.392a1.483,1.483,0,0,0,1.049.442,1.422,1.422,0,0,0,.237-.019,1.483,1.483,0,0,0,1.09-.8l5.933-11.865a1.483,1.483,0,0,0-.664-2Z" transform="translate(4.348 17.882)" fill="#fff"/>
      </g>
    </g>
  </g>
</svg>
