<svg xmlns="http://www.w3.org/2000/svg" xmlns:xlink="http://www.w3.org/1999/xlink" width="620" height="339.398" viewBox="0 0 620 339.398">
  <defs>
    <clipPath id="clip-path">
      <rect id="BG" width="620" height="339.398" transform="translate(285 2886)" fill="#e2e7fe" opacity="0.949"/>
    </clipPath>
  </defs>
  <g id="Group_1073117" data-name="Group 1073117" transform="translate(-800 -7296)">
    <g id="Mask_Group_68" data-name="Mask Group 68" transform="translate(515 4410)" clip-path="url(#clip-path)">
      <rect id="dylan-shaw-UxyWwU6n_ts-unsplash" width="660.034" height="378.783" transform="translate(267.161 2866.308)" fill="#e2e7fe"/>
    </g>
    <g id="_18407468_5995355_1" data-name="18407468_5995355 1" transform="translate(999.21 7296.948)">
      <path id="Path_611025" data-name="Path 611025" d="M290.766,246.348H338.5V209.53H290.766Z" transform="translate(-49.531 -32.282)" fill="#e1f5d6"/>
      <path id="Path_611026" data-name="Path 611026" d="M294.95,249.265H300.7v-6.5H294.95Z" transform="translate(-50.303 -38.413)" fill="#fff"/>
      <path id="Path_611027" data-name="Path 611027" d="M330.216,209.646h-5.422V217.5h5.422Z" transform="translate(-55.808 -32.304)" fill="#fafafa"/>
      <path id="Path_611028" data-name="Path 611028" d="M330.216,244.909h-5.422v7.856h5.422Z" transform="translate(-55.808 -38.809)" fill="#fafafa"/>
      <path id="Path_611029" data-name="Path 611029" d="M305.342,246.805c-.084,0-.152-8.1-.152-18.084s.069-18.086.152-18.086.152,8.1.152,18.086S305.426,246.805,305.342,246.805Z" transform="translate(-52.192 -32.486)" fill="#e1f5d6"/>
      <path id="Path_611030" data-name="Path 611030" d="M266.892,318.054h82.363V254.528H266.892Z" transform="translate(-45.127 -40.583)" fill="#e1f5d6"/>
      <path id="Path_611031" data-name="Path 611031" d="M274.111,323.086h9.925V311.867h-9.925Z" transform="translate(-46.459 -51.16)" fill="#fff"/>
      <path id="Path_611032" data-name="Path 611032" d="M334.96,254.728H325.6v13.555h9.356Z" transform="translate(-55.958 -40.62)" fill="#fafafa"/>
      <path id="Path_611033" data-name="Path 611033" d="M334.96,315.57H325.6v13.556h9.356Z" transform="translate(-55.958 -51.844)" fill="#fafafa"/>
      <path id="Path_611034" data-name="Path 611034" d="M292.04,318.841c-.145,0-.263-13.972-.263-31.2s.118-31.206.263-31.206.262,13.968.262,31.206S292.185,318.841,292.04,318.841Z" transform="translate(-49.718 -40.934)" fill="#e1f5d6"/>
      <path id="Path_611035" data-name="Path 611035" d="M361.448,92.511l4.412,8.939,9.866,1.435-7.139,6.959,1.685,9.825-8.824-4.639-8.824,4.639,1.686-9.825-7.139-6.959,9.865-1.435Z" transform="translate(-59.936 -10.695)" fill="#e1f5d6"/>
      <path id="Path_611036" data-name="Path 611036" d="M40.5,234.063l2.781,5.634,6.217.9L45,244.986l1.062,6.192L40.5,248.255l-5.561,2.924L36,244.986,31.5,240.6l6.217-.9Z" transform="translate(-1.704 -36.808)" fill="#e1f5d6"/>
      <path id="Path_611037" data-name="Path 611037" d="M42.243,173.875l6.174,12.511,13.807,2.006-9.991,9.738,2.358,13.751-12.349-6.492-12.349,6.492,2.359-13.751-9.991-9.738,13.806-2.006Z" transform="translate(0 -25.705)" fill="#e1f5d6"/>
      <path id="Path_611038" data-name="Path 611038" d="M357.912,142.012l2.661,5.392,5.951.865-4.306,4.2,1.017,5.927-5.323-2.8-5.323,2.8,1.017-5.927-4.306-4.2,5.95-.865Z" transform="translate(-60.329 -19.827)" fill="#e1f5d6"/>
      <path id="Path_611039" data-name="Path 611039" d="M250.812,34.885l2.66,5.392,5.952.865-4.307,4.2,1.017,5.927-5.322-2.8-5.323,2.8,1.016-5.927-4.305-4.2,5.95-.865Z" transform="translate(-40.572 -0.065)" fill="#e1f5d6"/>
      <path id="Path_611040" data-name="Path 611040" d="M326.146,105.631l1.742,3.53,3.895.566-2.818,2.748.665,3.879-3.484-1.832-3.483,1.832.665-3.879-2.818-2.748,3.895-.566Z" transform="translate(-55.018 -13.116)" fill="#e1f5d6"/>
      <path id="Path_611041" data-name="Path 611041" d="M127.865,324.087l3.393,6.874,7.586,1.1-5.489,5.351,1.3,7.555-6.786-3.567-6.785,3.567,1.3-7.555-5.489-5.351,7.586-1.1Z" transform="translate(-17.455 -53.415)" fill="#e1f5d6"/>
      <path id="Path_611042" data-name="Path 611042" d="M140.3,315.708l1.4,2.84,3.135.456-2.268,2.211.535,3.122-2.8-1.474-2.8,1.474.536-3.122L135.768,319l3.134-.456Z" transform="translate(-20.938 -51.869)" fill="#e1f5d6"/>
      <path id="Path_611043" data-name="Path 611043" d="M292.766,283.435l2.983,6.045,6.67.969-4.826,4.7,1.139,6.643-5.966-3.137L286.8,301.8l1.14-6.643-4.826-4.7,6.669-.969Z" transform="translate(-48.12 -45.916)" fill="#60cb28"/>
      <path id="Path_611044" data-name="Path 611044" d="M311.37,276.867l1.406,2.848,3.143.457-2.275,2.217.537,3.13-2.812-1.478-2.81,1.478.536-3.13-2.274-2.217,3.143-.457Z" transform="translate(-52.493 -44.704)" fill="#60cb28"/>
      <path id="Path_611045" data-name="Path 611045" d="M289.518,74.882l2.332-7.305a22.773,22.773,0,1,1,18.341,12.532,21.4,21.4,0,0,1-13.1-5.682Z" transform="translate(-49.292 -0.036)" fill="#fafafa"/>
      <path id="Path_611046" data-name="Path 611046" d="M289.493,74.846s.175-.018.5-.042l1.456-.1,5.607-.384.032,0,.024.022a20.96,20.96,0,0,0,9.879,5.13,23.483,23.483,0,0,0,3.476.5l1.85.069c.626,0,1.262-.07,1.908-.1A22.681,22.681,0,0,0,329.22,72.28a22.382,22.382,0,0,0,4.673-8.469,23.022,23.022,0,0,0,.562-10.246,20.154,20.154,0,0,0-.6-2.6,10.541,10.541,0,0,0-.433-1.272c-.161-.42-.309-.846-.483-1.262a23.2,23.2,0,0,0-2.793-4.691,21.006,21.006,0,0,0-1.788-2.079,11.687,11.687,0,0,0-.989-.937c-.342-.3-.663-.618-1.019-.894l-1.085-.8-.542-.4-.575-.344L323,37.6c-.386-.219-.8-.386-1.194-.582A22.626,22.626,0,0,0,291.035,49.5q-.163.457-.324.906a5.928,5.928,0,0,0-.279.9q-.228.912-.447,1.795a31.7,31.7,0,0,0-.405,3.485,22.625,22.625,0,0,0,2.312,10.917l.014.028-.009.028c-.772,2.354-1.367,4.164-1.773,5.4l-.465,1.4c-.105.316-.166.484-.166.484s.04-.151.134-.461.241-.787.427-1.39l1.7-5.477,0,.056a22.631,22.631,0,0,1-2.407-10.992,31.74,31.74,0,0,1,.393-3.523q.219-.893.444-1.817a5.964,5.964,0,0,1,.278-.916q.161-.455.325-.918a22.854,22.854,0,0,1,31.156-12.695c.4.2.82.367,1.212.59l1.165.695.585.349.55.4,1.1.813c.361.28.688.605,1.035.907a11.942,11.942,0,0,1,1,.951,21.3,21.3,0,0,1,1.815,2.111A23.51,23.51,0,0,1,333.25,48.3c.176.423.326.856.49,1.282a10.678,10.678,0,0,1,.44,1.291,20.611,20.611,0,0,1,.612,2.636,23.32,23.32,0,0,1-.581,10.4,22.677,22.677,0,0,1-4.755,8.583,22.913,22.913,0,0,1-15.2,7.7c-.653.031-1.3.094-1.93.1l-1.87-.079a23.668,23.668,0,0,1-3.505-.518,20.99,20.99,0,0,1-9.932-5.244l.055.02-5.664.3-1.437.07C289.647,74.844,289.493,74.846,289.493,74.846Z" transform="translate(-49.268)" fill="#304c8e"/>
      <path id="Path_611047" data-name="Path 611047" d="M301.568,59.623l3.747-3.244,6.311,6.476,14.148-11.782,2.995,3.728L310.642,69.561Z" transform="translate(-51.524 -3.051)" fill="#60cb28"/>
      <path id="Path_611048" data-name="Path 611048" d="M201.946,238.814,75.272,267.045a5.7,5.7,0,0,1-6.808-4.326L27.354,78.253a5.7,5.7,0,0,1,4.327-6.808l126.675-28.23a5.7,5.7,0,0,1,6.808,4.327l41.109,184.466A5.7,5.7,0,0,1,201.946,238.814Z" transform="translate(-0.914 -1.576)" fill="#e1f5d6"/>
      <path id="Path_611049" data-name="Path 611049" d="M201.917,238.787s.14-.043.42-.123a6.168,6.168,0,0,0,1.187-.517,5.89,5.89,0,0,0,1.6-1.395,5.724,5.724,0,0,0,1.158-2.674,5.413,5.413,0,0,0-.014-1.764c-.1-.614-.272-1.256-.417-1.931q-.455-2.026-.993-4.428c-.717-3.2-1.544-6.893-2.475-11.048l-15.738-70.419c-3.318-14.866-6.954-31.15-10.855-48.631q-2.926-13.111-6.046-27.092-1.557-6.984-3.161-14.168l-1.62-7.225a5.558,5.558,0,0,0-5.376-4.193,7.846,7.846,0,0,0-1.838.265l-1.852.413-3.72.83-7.505,1.674-15.267,3.4L97.916,56.786,31.7,71.547a5.567,5.567,0,0,0-4.285,6.377c.6,2.811,1.246,5.627,1.863,8.427q1.873,8.4,3.72,16.692l7.271,32.634c4.765,21.4,9.362,42.035,13.741,61.695s8.536,38.344,12.429,55.828q.729,3.28,1.447,6.5c.244,1.071.466,2.151.725,3.2a5.543,5.543,0,0,0,1.636,2.689,5.65,5.65,0,0,0,2.8,1.374,6.029,6.029,0,0,0,1.565.049c.515-.069,1.033-.194,1.551-.309l6.148-1.368,23.339-5.192,70.435-15.652,19.152-4.242,4.982-1.1c1.124-.245,1.7-.365,1.7-.365s-.573.138-1.693.392-2.791.629-4.976,1.123l-19.141,4.291L105.691,260.33l-23.335,5.209-6.147,1.373c-.517.114-1.032.241-1.573.314a6.249,6.249,0,0,1-1.626-.05A5.878,5.878,0,0,1,70.1,265.75a5.759,5.759,0,0,1-1.7-2.794c-.264-1.068-.484-2.133-.729-3.208q-.719-3.221-1.451-6.5c-3.9-17.483-8.068-36.164-12.453-55.822L40.005,135.736Q36.428,119.689,32.73,103.1L29.01,86.409c-.619-2.805-1.263-5.6-1.866-8.439a5.839,5.839,0,0,1,4.495-6.69L97.86,56.525l31.492-7.015,15.268-3.4,7.506-1.672,3.72-.828L157.7,43.2a8.115,8.115,0,0,1,1.894-.27,5.806,5.806,0,0,1,5.616,4.382q.816,3.64,1.62,7.233,1.6,7.184,3.155,14.169l6.032,27.1c3.89,17.483,7.514,33.77,10.822,48.638,6.608,29.737,11.956,53.8,15.653,70.438.922,4.158,1.74,7.852,2.451,11.054q.531,2.4.98,4.43c.142.678.308,1.315.411,1.937a5.493,5.493,0,0,1,.007,1.782,5.764,5.764,0,0,1-1.18,2.693,5.873,5.873,0,0,1-1.62,1.392,5.959,5.959,0,0,1-1.2.506C202.06,238.752,201.917,238.787,201.917,238.787Z" transform="translate(-0.884 -1.549)" fill="#304c8e"/>
      <g id="Group_1071823" data-name="Group 1071823" transform="translate(75.597 197.255)" opacity="0.3">
        <path id="Path_611050" data-name="Path 611050" d="M92.846,295.746l115.417-26.384-3.652-22.623-6.541-12.677L87.661,277.431Z" transform="translate(-87.661 -234.063)" fill="#304c8e"/>
      </g>
      <g id="Group_1071824" data-name="Group 1071824" transform="translate(128.967 48.403)" opacity="0.3">
        <path id="Path_611051" data-name="Path 611051" d="M153.1,51.541l4.366,7.209.851,3.82-2.964.661Z" transform="translate(-153.103 -51.541)" fill="#304c8e"/>
      </g>
      <path id="Path_611052" data-name="Path 611052" d="M35.449,81.194,75.491,260.873,201.009,232.9l-7.16-32.128L160.965,53.222Z" transform="translate(-2.432 -3.448)" fill="#fff"/>
      <path id="Path_611053" data-name="Path 611053" d="M35.449,81.163,160.942,53.082l.108-.024.024.109c11.136,49.932,25.033,112.245,40.066,179.658l0,.015.03.135-.135.03L75.52,260.965l-.124.028-.027-.123C51.8,154.764,35.692,82.258,35.449,81.163l40.166,179.65-.151-.1,125.514-27.985-.105.166,0-.015c-15.014-67.417-28.892-129.733-40.013-179.669l.134.085Z" transform="translate(-2.432 -3.417)" fill="#304c8e"/>
      <path id="Path_611054" data-name="Path 611054" d="M141.585,63.68,78.077,77.833l-3.2-14.342A4.178,4.178,0,0,1,78.051,58.5L133.4,46.168a4.178,4.178,0,0,1,4.987,3.169Z" transform="translate(-9.688 -2.128)" fill="#304c8e"/>
      <path id="Path_611055" data-name="Path 611055" d="M117.087,43.052l-16.164,3.6L105.9,60.088l12.175-2.714Z" transform="translate(-14.511 -1.572)" fill="#304c8e"/>
      <path id="Path_611056" data-name="Path 611056" d="M134.14,46.192c.016.073-12.361,2.895-27.643,6.3S78.808,58.6,78.792,58.527s12.359-2.894,27.646-6.3S134.124,46.119,134.14,46.192Z" transform="translate(-10.428 -2.151)" fill="#455a64"/>
      <path id="Path_611057" data-name="Path 611057" d="M79.166,78.354c-.073.017-.714-2.576-1.43-5.789s-1.237-5.833-1.164-5.849S77.286,69.29,78,72.5,79.239,78.337,79.166,78.354Z" transform="translate(-10.017 -5.937)" fill="#455a64"/>
      <path id="Path_611058" data-name="Path 611058" d="M152.453,60.5a53.477,53.477,0,0,1-1.311-5.254,53.663,53.663,0,0,1-1.044-5.313,53.962,53.962,0,0,1,1.311,5.254A53.852,53.852,0,0,1,152.453,60.5Z" transform="translate(-23.581 -2.841)" fill="#455a64"/>
      <path id="Path_611059" data-name="Path 611059" d="M137.05,66.733c.016.074-12.69,2.968-28.376,6.464s-28.422,6.272-28.439,6.2,12.687-2.967,28.379-6.464S137.033,66.66,137.05,66.733Z" transform="translate(-10.694 -5.94)" fill="#455a64"/>
      <path id="Path_611060" data-name="Path 611060" d="M100.232,130.826c.017.074-8.553,2.048-19.138,4.406s-19.184,4.212-19.2,4.137,8.551-2.047,19.14-4.407S100.216,130.751,100.232,130.826Z" transform="translate(-7.311 -17.763)" fill="#304c8e"/>
      <path id="Path_611061" data-name="Path 611061" d="M164.6,122c.016.074-22.376,5.128-50.007,11.287s-50.057,11.091-50.073,11.018,22.371-5.128,50.013-11.288S164.588,121.93,164.6,122Z" transform="translate(-7.796 -16.136)" fill="#304c8e"/>
      <path id="Path_611062" data-name="Path 611062" d="M166.292,129.576c.016.075-22.376,5.129-50.007,11.287S66.228,151.955,66.211,151.88s22.371-5.127,50.013-11.287S166.275,129.5,166.292,129.576Z" transform="translate(-8.107 -17.533)" fill="#304c8e"/>
      <path id="Path_611063" data-name="Path 611063" d="M167.979,137.148c.017.074-22.376,5.128-50.007,11.286S67.915,159.526,67.9,159.451s22.371-5.127,50.013-11.287S167.963,137.073,167.979,137.148Z" transform="translate(-8.418 -18.93)" fill="#304c8e"/>
      <path id="Path_611064" data-name="Path 611064" d="M169.667,144.72c.016.074-22.376,5.129-50.008,11.286S69.6,167.1,69.586,167.024,91.957,161.9,119.6,155.736,169.65,144.645,169.667,144.72Z" transform="translate(-8.73 -20.326)" fill="#304c8e"/>
      <path id="Path_611065" data-name="Path 611065" d="M171.354,152.292c.016.074-22.376,5.128-50.008,11.286S71.29,174.67,71.273,174.595s22.371-5.127,50.013-11.287S171.337,152.217,171.354,152.292Z" transform="translate(-9.041 -21.723)" fill="#304c8e"/>
      <path id="Path_611066" data-name="Path 611066" d="M92.039,203.106a1.516,1.516,0,0,1-.06-.209c-.038-.154-.086-.347-.145-.589-.127-.536-.3-1.277-.524-2.208l-1.8-7.8.143.091-10.83,2.433c-.024.036.2-.312.1-.163v.008l0,.012.005.023.011.046.02.092.042.186.083.37q.082.368.163.734.162.732.322,1.449.318,1.434.621,2.8l1.126,5.114-.143-.091,7.831-1.682,2.221-.463.595-.118a1.269,1.269,0,0,1,.214-.033,1.009,1.009,0,0,1-.183.055l-.565.14-2.181.518-7.879,1.819-.116.027-.026-.117-1.153-5.108-.628-2.8-.324-1.448q-.081-.366-.164-.735l-.083-.369L78.7,194.9l-.02-.093-.011-.046-.005-.023,0-.012v-.008c-.094.146.127-.2.106-.167l10.838-2.4.118-.026.025.117c.7,3.251,1.284,5.97,1.7,7.9l.457,2.2c.046.233.084.422.113.572A.961.961,0,0,1,92.039,203.106Z" transform="translate(-10.398 -29.072)" fill="#304c8e"/>
      <path id="Path_611067" data-name="Path 611067" d="M176.724,172.842l-75.581,16.841,1.4,6.3,75.582-16.841Z" transform="translate(-14.551 -25.514)" fill="#e1f5d6"/>
      <path id="Path_611068" data-name="Path 611068" d="M97.175,226.152a1.409,1.409,0,0,1-.06-.209c-.038-.154-.086-.347-.145-.589-.127-.536-.3-1.277-.524-2.208-.441-1.91-1.06-4.594-1.8-7.8l.143.091-10.83,2.433c-.024.036.2-.312.1-.163v.008l0,.012.005.023.011.046.021.093.042.186.083.369q.082.369.164.735.163.732.322,1.448.318,1.435.621,2.8l1.126,5.114-.143-.091,7.831-1.682,2.221-.463.595-.118a1.428,1.428,0,0,1,.214-.034,1.034,1.034,0,0,1-.183.055l-.565.14-2.181.519-7.879,1.818-.116.028-.026-.118-1.153-5.108-.628-2.8q-.16-.716-.324-1.448l-.164-.735-.083-.369-.042-.186-.02-.093-.011-.046-.005-.023,0-.012v-.008c-.094.146.127-.2.106-.167l10.838-2.4.118-.027.025.117c.7,3.252,1.283,5.97,1.7,7.9l.457,2.2c.046.233.083.422.113.572A1.037,1.037,0,0,1,97.175,226.152Z" transform="translate(-11.346 -33.323)" fill="#304c8e"/>
      <path id="Path_611069" data-name="Path 611069" d="M181.86,195.889,106.278,212.73l1.405,6.306,75.582-16.841Z" transform="translate(-15.498 -29.766)" fill="#e1f5d6"/>
      <path id="Path_611070" data-name="Path 611070" d="M102.31,249.2a1.371,1.371,0,0,1-.06-.209c-.038-.154-.086-.347-.145-.589-.127-.535-.3-1.276-.524-2.208-.441-1.91-1.06-4.593-1.8-7.8l.143.091-10.83,2.433c-.024.036.2-.311.1-.163v.01l0,.011.005.023.011.046.02.093.042.186.083.37q.082.368.163.734.162.732.322,1.449.318,1.434.62,2.8c.4,1.819.778,3.537,1.126,5.114l-.143-.09,7.831-1.683,2.222-.463.595-.118a1.63,1.63,0,0,1,.214-.034.954.954,0,0,1-.183.055l-.566.141-2.181.518L91.5,251.73l-.116.027-.026-.117c-.355-1.576-.742-3.291-1.153-5.108-.2-.909-.414-1.845-.628-2.8l-.324-1.449q-.081-.366-.164-.734l-.083-.37-.042-.186-.02-.093-.011-.046-.005-.023,0-.012v-.008c-.094.147.127-.2.106-.167l10.838-2.4.117-.025.025.117c.7,3.252,1.284,5.97,1.7,7.9.193.926.347,1.663.458,2.2.046.234.083.422.113.572A.956.956,0,0,1,102.31,249.2Z" transform="translate(-12.293 -37.575)" fill="#304c8e"/>
      <path id="Path_611071" data-name="Path 611071" d="M187,218.937l-75.582,16.841,1.405,6.306L188.4,225.242Z" transform="translate(-16.446 -34.018)" fill="#e1f5d6"/>
      <path id="Path_611072" data-name="Path 611072" d="M82.308,199.365l1.135-1.785,3.375,1.875,4.343-6.551,1.681,1.158-5.6,8.256Z" transform="translate(-11.077 -29.215)" fill="#60cb28"/>
      <path id="Path_611073" data-name="Path 611073" d="M87.273,221.641l1.135-1.786,3.374,1.876,4.343-6.552,1.681,1.158L92.2,224.593Z" transform="translate(-11.992 -33.324)" fill="#60cb28"/>
      <path id="Path_611074" data-name="Path 611074" d="M92.363,244.479l1.135-1.785,3.374,1.875,4.343-6.551,1.682,1.158-5.606,8.256Z" transform="translate(-12.931 -37.537)" fill="#60cb28"/>
      <path id="Path_611075" data-name="Path 611075" d="M128.32,274.6c.016.074-6.365,1.56-14.251,3.317s-14.3,3.123-14.312,3.048,6.363-1.56,14.252-3.318S128.3,274.527,128.32,274.6Z" transform="translate(-14.295 -44.286)" fill="#304c8e"/>
      <path id="Path_611076" data-name="Path 611076" d="M149.846,270.428a52.593,52.593,0,0,1-5.243,1.31,52.769,52.769,0,0,1-5.3,1.041,52.647,52.647,0,0,1,5.244-1.311A53.136,53.136,0,0,1,149.846,270.428Z" transform="translate(-21.59 -43.515)" fill="#304c8e"/>
      <path id="Path_611077" data-name="Path 611077" d="M204.2,252.24c.016.075-5.726,1.418-12.823,3s-12.867,2.8-12.885,2.73,5.724-1.418,12.824-3S204.186,252.166,204.2,252.24Z" transform="translate(-28.821 -40.16)" fill="#304c8e"/>
      <path id="Path_611078" data-name="Path 611078" d="M197.613,270.832c-.016-.006.055-.181.126-.526a3.479,3.479,0,0,0-.08-1.526,13.912,13.912,0,0,0-.913-2.274,7.636,7.636,0,0,1-.9-3.15,4.854,4.854,0,0,1,1.674-3.556,4.6,4.6,0,0,1,4.39-.819,4.469,4.469,0,0,1,2.089,1.372,2.149,2.149,0,0,1,.5,1.237,1.153,1.153,0,0,1-.775,1.116,9.84,9.84,0,0,1-1.3.322l-1.312.27c-.883.175-1.784.336-2.7.457a19.816,19.816,0,0,1-5.4.031,3.3,3.3,0,0,0-2.372.387,8.281,8.281,0,0,0-1.43,1.93,2.3,2.3,0,0,1-.922.824,1.689,1.689,0,0,1-1.212.051,10.789,10.789,0,0,1-1.927-1.111,2.358,2.358,0,0,0-.93-.352,1.318,1.318,0,0,0-.885.223,5.141,5.141,0,0,0-1.119,1.467,3.493,3.493,0,0,1-2.789,1.609A3.284,3.284,0,0,1,177.1,268a3.38,3.38,0,0,1-.915-1.267,2.109,2.109,0,0,1-.15-.524c.015,0,.055.181.2.5a3.465,3.465,0,0,0,.933,1.207,3.19,3.19,0,0,0,2.235.747,3.332,3.332,0,0,0,2.634-1.561,5.224,5.224,0,0,1,1.161-1.535,1.542,1.542,0,0,1,1.029-.268,2.56,2.56,0,0,1,1.021.374,10.932,10.932,0,0,0,1.885,1.077,1.445,1.445,0,0,0,1.039-.046,2.072,2.072,0,0,0,.816-.743,8.263,8.263,0,0,1,1.479-1.995,2.485,2.485,0,0,1,1.238-.466,6.259,6.259,0,0,1,1.32.021,19.683,19.683,0,0,0,5.342-.036c.911-.119,1.806-.279,2.686-.452l1.309-.268a9.719,9.719,0,0,0,1.253-.306.875.875,0,0,0,.61-.861,1.9,1.9,0,0,0-.436-1.078,4.226,4.226,0,0,0-1.958-1.292,4.365,4.365,0,0,0-4.164.75,4.663,4.663,0,0,0-1.628,3.384,7.572,7.572,0,0,0,.85,3.083,13.292,13.292,0,0,1,.877,2.312,3.387,3.387,0,0,1,.029,1.563A2.441,2.441,0,0,1,197.613,270.832Z" transform="translate(-28.366 -41.362)" fill="#304c8e"/>
      <path id="Path_611079" data-name="Path 611079" d="M211.5,263.193a1.809,1.809,0,0,1-.345.1l-1,.241-3.684.855c-3.111.721-7.4,1.739-12.124,2.936s-8.981,2.35-12.059,3.2l-3.646,1-.994.264a1.8,1.8,0,0,1-.352.074,1.721,1.721,0,0,1,.337-.128l.979-.314c.852-.269,2.089-.642,3.623-1.09,3.066-.9,7.319-2.079,12.045-3.278s9.025-2.186,12.149-2.858c1.562-.337,2.827-.6,3.7-.769l1.01-.19A1.817,1.817,0,0,1,211.5,263.193Z" transform="translate(-28.6 -42.181)" fill="#304c8e"/>
      <path id="Path_611080" data-name="Path 611080" d="M141.207,85.462,89.9,96.894l2.148,9.64L143.355,95.1Z" transform="translate(-12.477 -9.395)" fill="#e1f5d6"/>
      <path id="Path_611081" data-name="Path 611081" d="M212.316,275.268l16.576,87.568,15.147-27.987,28.71,16.85-30.475-85.27Z" transform="translate(-35.059 -42.778)" fill="#60cb28"/>
      <g id="Group_1071825" data-name="Group 1071825" transform="translate(180.785 238.412)" opacity="0.3">
        <path id="Path_611082" data-name="Path 611082" d="M218.689,308.058a9.96,9.96,0,0,0,8.814-2.7c1.51-1.562,2.518-3.685,4.422-4.731a7.675,7.675,0,0,1,5.7-.285c1.881.519,3.65,1.391,5.538,1.88a14.473,14.473,0,0,0,11.045-1.64L249.424,287.3l-22.2-2.772-10.583,12.713Z" transform="translate(-216.643 -284.53)" fill="#304c8e"/>
      </g>
      <path id="Path_611083" data-name="Path 611083" d="M247.471,336.852c-.092.024-2.561-9.07-5.513-20.311s-5.272-20.377-5.18-20.4,2.56,9.069,5.514,20.313S247.563,336.828,247.471,336.852Z" transform="translate(-39.571 -48.259)" fill="#304c8e"/>
      <path id="Path_611084" data-name="Path 611084" d="M201.622,280.854l-16.576,87.567L169.9,340.434l-28.71,16.851,30.475-85.27Z" transform="translate(-21.938 -43.809)" fill="#60cb28"/>
      <g id="Group_1071826" data-name="Group 1071826" transform="translate(140.611 239.725)" opacity="0.3">
        <path id="Path_611085" data-name="Path 611085" d="M167.381,300.124s4.714,3.881,10.338,2.093,9.116-2.164,12.159,0,11.28,9.219,11.28,9.219l1.912-10.1L192.008,286.14l-11.553,2.332-8.227.822-3.059,5.789Z" transform="translate(-167.381 -286.14)" fill="#304c8e"/>
      </g>
      <path id="Path_611086" data-name="Path 611086" d="M290.2,163.8c0,6.283-8.03,11.695-9.2,17.633-1.21,6.118,4.116,14.184,1.781,19.813-2.374,5.727-11.867,7.653-15.276,12.744-3.434,5.13-1.6,14.632-5.953,18.981s-13.852,2.518-18.981,5.952c-5.091,3.409-7.017,12.9-12.744,15.276-5.63,2.334-13.694-2.992-19.813-1.782-5.938,1.174-11.35,9.2-17.633,9.2s-11.695-8.031-17.633-9.2c-6.119-1.21-14.184,4.115-19.813,1.782-5.727-2.375-7.653-11.868-12.744-15.276-5.13-3.434-14.632-1.6-18.981-5.953s-2.518-13.851-5.952-18.981c-3.408-5.091-12.9-7.017-15.276-12.744-2.334-5.63,2.992-13.694,1.782-19.813-1.174-5.938-9.205-11.35-9.205-17.633s8.031-11.695,9.205-17.633c1.21-6.118-4.116-14.184-1.782-19.813,2.375-5.727,11.868-7.653,15.276-12.744,3.434-5.13,1.6-14.632,5.952-18.981s13.852-2.518,18.982-5.952c5.091-3.409,7.017-12.9,12.744-15.276,5.63-2.334,13.694,2.992,19.812,1.782,5.939-1.175,11.351-9.205,17.633-9.205S204.069,74,210.007,75.179c6.118,1.21,14.184-4.115,19.812-1.782,5.728,2.375,7.654,11.867,12.745,15.276,5.13,3.434,14.632,1.6,18.981,5.952s2.518,13.852,5.952,18.981c3.408,5.091,12.9,7.017,15.276,12.744,2.335,5.63-2.991,13.7-1.781,19.813C282.166,152.1,290.2,157.514,290.2,163.8Z" transform="translate(-13.335 -5.8)" fill="#60cb28"/>
      <path id="Path_611087" data-name="Path 611087" d="M183.84,112.036a1.2,1.2,0,0,1-.178-.271l-.45-.8c-.387-.7-.922-1.731-1.558-3.013-1.276-2.565-2.926-6.167-4.518-10.241s-2.814-7.845-3.611-10.6c-.4-1.375-.7-2.494-.894-3.272-.085-.357-.156-.653-.214-.9a1.174,1.174,0,0,1-.052-.319,1.144,1.144,0,0,1,.119.3c.075.239.166.529.276.88.252.816.589,1.91,1,3.238.856,2.729,2.115,6.476,3.7,10.542s3.2,7.672,4.416,10.261l1.459,3.057c.156.333.285.608.392.834A1.134,1.134,0,0,1,183.84,112.036Z" transform="translate(-27.689 -8.871)" fill="#304c8e"/>
      <path id="Path_611088" data-name="Path 611088" d="M196.309,110.286a3.3,3.3,0,0,1-.252-.728c-.142-.475-.329-1.166-.547-2.023-.435-1.716-.976-4.1-1.465-6.757s-.831-5.081-1.032-6.839c-.1-.879-.171-1.592-.207-2.085a3.342,3.342,0,0,1-.023-.77,3.347,3.347,0,0,1,.156.754c.086.561.191,1.252.316,2.069.263,1.747.643,4.158,1.129,6.809s.989,5.038,1.364,6.764q.261,1.212.44,2.046A3.254,3.254,0,0,1,196.309,110.286Z" transform="translate(-31.454 -10.432)" fill="#304c8e"/>
      <path id="Path_611089" data-name="Path 611089" d="M215.765,105.271c-.1,0-.34-7.407-.546-16.548s-.3-16.555-.2-16.557.339,7.406.546,16.55S215.86,105.269,215.765,105.271Z" transform="translate(-35.551 -6.942)" fill="#304c8e"/>
      <path id="Path_611090" data-name="Path 611090" d="M233.739,94.09c.091.028-.975,3.734-2.381,8.274s-2.62,8.2-2.711,8.174.976-3.732,2.382-8.276S233.648,94.062,233.739,94.09Z" transform="translate(-38.071 -10.987)" fill="#304c8e"/>
      <path id="Path_611091" data-name="Path 611091" d="M242.627,110.964a1.178,1.178,0,0,1,.083-.312l.3-.872c.265-.755.676-1.838,1.19-3.175,1.032-2.67,2.518-6.334,4.207-10.361s3.26-7.657,4.418-10.274l1.391-3.091c.157-.332.288-.606.4-.832a1.106,1.106,0,0,1,.16-.281,1.136,1.136,0,0,1-.1.309c-.091.233-.2.517-.337.858-.325.79-.761,1.848-1.29,3.134l-4.324,10.311c-1.669,4.006-3.179,7.631-4.3,10.318-.528,1.285-.965,2.343-1.29,3.132-.144.338-.263.618-.361.848A1.2,1.2,0,0,1,242.627,110.964Z" transform="translate(-40.65 -8.713)" fill="#304c8e"/>
      <path id="Path_611092" data-name="Path 611092" d="M252.753,119.367a3.342,3.342,0,0,1,.377-.673c.26-.422.652-1.02,1.148-1.753.992-1.465,2.416-3.455,4.078-5.585s3.245-4,4.425-5.316c.59-.66,1.076-1.186,1.421-1.541a3.246,3.246,0,0,1,.561-.529,3.338,3.338,0,0,1-.461.617q-.542.656-1.336,1.611c-1.131,1.357-2.68,3.243-4.339,5.368s-3.108,4.087-4.15,5.514c-.488.666-.9,1.231-1.237,1.688A3.338,3.338,0,0,1,252.753,119.367Z" transform="translate(-42.518 -12.809)" fill="#304c8e"/>
      <path id="Path_611093" data-name="Path 611093" d="M267.479,129.96c-.064-.069,5.161-5.038,11.673-11.094s11.843-10.913,11.908-10.844-5.161,5.037-11.674,11.1S267.543,130.03,267.479,129.96Z" transform="translate(-45.235 -13.557)" fill="#304c8e"/>
      <path id="Path_611094" data-name="Path 611094" d="M290.1,137.437a18.094,18.094,0,0,1-1.991,1.085c-1.24.648-2.929,1.582-4.79,2.628s-3.58,1.951-4.852,2.544c-.635.3-1.155.527-1.52.671a2.112,2.112,0,0,1-.58.2,18.262,18.262,0,0,1,1.991-1.085c1.24-.648,2.929-1.582,4.792-2.628S286.73,138.9,288,138.3c.635-.3,1.155-.527,1.52-.671A2.132,2.132,0,0,1,290.1,137.437Z" transform="translate(-46.875 -18.982)" fill="#304c8e"/>
      <path id="Path_611095" data-name="Path 611095" d="M310.712,147.316c.032.09-6.19,2.362-13.894,5.074s-13.979,4.839-14.011,4.75,6.189-2.361,13.9-5.075S310.68,147.227,310.712,147.316Z" transform="translate(-48.063 -20.805)" fill="#304c8e"/>
      <path id="Path_611096" data-name="Path 611096" d="M317.781,189.973c-.009.095-6.771-.471-15.1-1.264S287.6,187.2,287.612,187.1s6.769.471,15.1,1.265S317.79,189.879,317.781,189.973Z" transform="translate(-48.949 -28.143)" fill="#304c8e"/>
      <path id="Path_611097" data-name="Path 611097" d="M312.154,226.468c-.04.086-6.362-2.815-14.118-6.479s-14.013-6.705-13.972-6.791,6.36,2.814,14.119,6.48S312.2,226.382,312.154,226.468Z" transform="translate(-48.295 -32.958)" fill="#304c8e"/>
      <path id="Path_611098" data-name="Path 611098" d="M288.462,261.035c-.073.061-4.631-5.228-10.183-11.81s-9.993-11.972-9.92-12.033,4.631,5.226,10.184,11.811S288.534,260.974,288.462,261.035Z" transform="translate(-45.398 -37.385)" fill="#304c8e"/>
      <path id="Path_611099" data-name="Path 611099" d="M269.074,266.713a4.71,4.71,0,0,1-.551-.742c-.337-.49-.81-1.209-1.384-2.1-1.148-1.788-2.688-4.29-4.308-7.1s-3.016-5.395-3.99-7.283c-.487-.945-.872-1.714-1.128-2.251a4.771,4.771,0,0,1-.367-.849,4.805,4.805,0,0,1,.485.787c.321.577.732,1.315,1.223,2.2,1.028,1.858,2.455,4.42,4.074,7.227s3.123,5.322,4.218,7.142l1.29,2.159A4.919,4.919,0,0,1,269.074,266.713Z" transform="translate(-43.366 -39.081)" fill="#304c8e"/>
      <path id="Path_611100" data-name="Path 611100" d="M256.077,283.241a1.093,1.093,0,0,1-.171-.271c-.118-.219-.26-.486-.432-.807-.371-.7-.882-1.735-1.49-3.019-1.218-2.569-2.782-6.178-4.27-10.255s-2.609-7.849-3.33-10.6c-.361-1.375-.633-2.493-.8-3.269l-.188-.9a1.156,1.156,0,0,1-.043-.317,1.119,1.119,0,0,1,.111.3l.25.88c.229.816.535,1.91.906,3.238.78,2.729,1.937,6.477,3.418,10.546s3.008,7.681,4.167,10.272c.57,1.255,1.039,2.29,1.39,3.061l.374.835A1.17,1.17,0,0,1,256.077,283.241Z" transform="translate(-41.153 -40.45)" fill="#304c8e"/>
      <path id="Path_611101" data-name="Path 611101" d="M231.133,273.346a19.241,19.241,0,0,1-.285-2.3c-.152-1.421-.392-3.38-.751-5.528s-.771-4.08-1.09-5.473a19.261,19.261,0,0,1-.479-2.268,2.172,2.172,0,0,1,.231.581c.128.38.294.936.484,1.628.379,1.382.83,3.315,1.192,5.475s.564,4.133.654,5.564c.046.715.07,1.3.073,1.7A2.221,2.221,0,0,1,231.133,273.346Z" transform="translate(-38.049 -41.182)" fill="#304c8e"/>
      <path id="Path_611102" data-name="Path 611102" d="M214.194,292.66a1.309,1.309,0,0,1-.029-.339c0-.262-.01-.581-.016-.971-.008-.843,0-2.063.024-3.57.051-3.016.188-7.18.43-11.775s.535-8.752.778-11.757c.122-1.5.232-2.717.318-3.557.044-.387.079-.705.108-.965a1.243,1.243,0,0,1,.062-.334,1.257,1.257,0,0,1,.007.34c-.012.261-.026.581-.044.97-.052.893-.124,2.1-.21,3.564-.176,3.056-.413,7.19-.676,11.758-.241,4.591-.418,8.751-.531,11.762-.055,1.467-.1,2.673-.134,3.567-.02.389-.035.709-.048.97A1.245,1.245,0,0,1,214.194,292.66Z" transform="translate(-35.397 -41.48)" fill="#304c8e"/>
      <path id="Path_611103" data-name="Path 611103" d="M199.367,259.389a7.851,7.851,0,0,1-.2,1.686c-.172,1.032-.45,2.453-.814,4.008s-.746,2.951-1.052,3.953a7.892,7.892,0,0,1-.571,1.6,8.783,8.783,0,0,1,.337-1.661c.272-1.134.595-2.48.951-3.968s.65-2.839.91-3.977A8.775,8.775,0,0,1,199.367,259.389Z" transform="translate(-32.183 -41.48)" fill="#304c8e"/>
      <path id="Path_611104" data-name="Path 611104" d="M172.846,247.018a36.425,36.425,0,0,1-2.889,4.1A36.664,36.664,0,0,1,166.792,255a73.178,73.178,0,0,1,6.054-7.983Z" transform="translate(-26.661 -39.197)" fill="#304c8e"/>
      <path id="Path_611105" data-name="Path 611105" d="M156.508,237.943c.071.063-4.028,4.876-9.155,10.75s-9.344,10.587-9.415,10.524,4.027-4.874,9.157-10.75S156.436,237.88,156.508,237.943Z" transform="translate(-21.339 -37.523)" fill="#304c8e"/>
      <path id="Path_611106" data-name="Path 611106" d="M151.595,227.9a66.221,66.221,0,0,1-5.093,4.421,66.325,66.325,0,0,1-5.313,4.155,66.173,66.173,0,0,1,5.094-4.421A66.068,66.068,0,0,1,151.595,227.9Z" transform="translate(-21.938 -35.67)" fill="#304c8e"/>
      <path id="Path_611107" data-name="Path 611107" d="M140.238,212.739c.042.086-5.668,2.922-12.751,6.335s-12.861,6.112-12.9,6.027,5.667-2.922,12.752-6.336S140.2,212.653,140.238,212.739Z" transform="translate(-17.031 -32.874)" fill="#304c8e"/>
      <path id="Path_611108" data-name="Path 611108" d="M139.345,205.176a2.151,2.151,0,0,1-.594.176c-.386.092-.948.208-1.645.337-1.395.259-3.334.553-5.489.769s-4.114.311-5.533.334c-.71.011-1.283.01-1.68,0a2.185,2.185,0,0,1-.617-.055,17.611,17.611,0,0,1,2.286-.184c1.412-.085,3.362-.219,5.508-.432s4.083-.471,5.484-.667A17.739,17.739,0,0,1,139.345,205.176Z" transform="translate(-18.729 -31.477)" fill="#304c8e"/>
      <path id="Path_611109" data-name="Path 611109" d="M133.664,187.555a7.494,7.494,0,0,1-1.156-.025l-3.142-.161c-2.652-.129-6.319-.25-10.369-.23s-7.717.184-10.369.341l-3.14.195a7.384,7.384,0,0,1-1.155.038,7.307,7.307,0,0,1,1.143-.171c.738-.09,1.809-.2,3.134-.305,2.65-.219,6.323-.418,10.383-.442s7.733.139,10.386.33c1.326.095,2.4.189,3.137.272A7.391,7.391,0,0,1,133.664,187.555Z" transform="translate(-15.14 -28.088)" fill="#304c8e"/>
      <path id="Path_611110" data-name="Path 611110" d="M137.589,171.2c-.025.092-4.3-1.022-9.552-2.487s-9.487-2.726-9.462-2.818,4.3,1.022,9.554,2.487S137.615,171.106,137.589,171.2Z" transform="translate(-17.767 -24.231)" fill="#304c8e"/>
      <path id="Path_611111" data-name="Path 611111" d="M138.947,156.429a1.118,1.118,0,0,1-.312-.069l-.874-.265c-.758-.234-1.844-.6-3.176-1.089a104.391,104.391,0,0,1-19.848-9.775c-1.2-.76-2.151-1.4-2.8-1.854l-.742-.531a1.108,1.108,0,0,1-.246-.2,1.119,1.119,0,0,1,.285.148l.777.477c.67.423,1.643,1.026,2.853,1.758,2.42,1.466,5.817,3.4,9.689,5.312s7.479,3.417,10.116,4.441c1.319.514,2.39.918,3.134,1.19l.852.326A1.148,1.148,0,0,1,138.947,156.429Z" transform="translate(-16.36 -19.943)" fill="#304c8e"/>
      <path id="Path_611112" data-name="Path 611112" d="M149.571,144.282c-.055.078-3.4-2.183-7.469-5.049s-7.326-5.253-7.271-5.33,3.4,2.182,7.469,5.049S149.625,144.205,149.571,144.282Z" transform="translate(-20.765 -18.331)" fill="#304c8e"/>
      <path id="Path_611113" data-name="Path 611113" d="M136.79,107.258a1.082,1.082,0,0,1,.25.183l.671.576,2.434,2.155c2.086,1.863,4.9,4.369,8,7.139l8.035,7.1,2.429,2.161.65.6c.146.139.219.218.211.227a1.052,1.052,0,0,1-.257-.175l-.692-.55c-.6-.484-1.452-1.193-2.5-2.079-2.1-1.771-4.971-4.249-8.1-7.031s-5.931-5.342-7.938-7.216c-1-.938-1.81-1.7-2.359-2.238l-.629-.623C136.852,107.347,136.782,107.266,136.79,107.258Z" transform="translate(-21.127 -13.416)" fill="#304c8e"/>
      <path id="Path_611114" data-name="Path 611114" d="M162.058,107.993c.018-.015.177.149.449.458s.653.765,1.112,1.338c.92,1.146,2.143,2.769,3.41,4.619s2.334,3.581,3.069,4.854c.368.636.656,1.156.843,1.522a2.373,2.373,0,0,1,.264.584,18.583,18.583,0,0,1-1.315-1.979c-.786-1.238-1.884-2.94-3.146-4.786s-2.45-3.484-3.318-4.666A18.688,18.688,0,0,1,162.058,107.993Z" transform="translate(-25.788 -13.551)" fill="#304c8e"/>
      <g id="Group_1071827" data-name="Group 1071827" transform="translate(109.868 82.718)" opacity="0.2">
        <path id="Path_611115" data-name="Path 611115" d="M129.684,99.726l28.738,25.162,7.143-5.716L148.889,93.618a15.825,15.825,0,0,1-4.6,1.889C141.074,96.426,131.6,96.672,129.684,99.726Z" transform="translate(-129.684 -93.618)" fill="#304c8e"/>
      </g>
      <g id="Group_1071828" data-name="Group 1071828" transform="translate(141.856 66.992)" opacity="0.2">
        <path id="Path_611116" data-name="Path 611116" d="M168.908,74.882l14.034,35.124,8.966-2.809L188.92,76.733a15.813,15.813,0,0,1-4.971-.074C180.631,76.237,172.575,73.088,168.908,74.882Z" transform="translate(-168.908 -74.334)" fill="#304c8e"/>
      </g>
      <g id="Group_1071829" data-name="Group 1071829" transform="translate(179.273 60.174)" opacity="0.3">
        <path id="Path_611117" data-name="Path 611117" d="M214.789,65.985l.941,38.143,8.406.4,8.51-29.275a13.821,13.821,0,0,1-4.948-2.05C224.787,71.348,218.86,65.682,214.789,65.985Z" transform="translate(-214.789 -65.974)" fill="#304c8e"/>
      </g>
      <g id="Group_1071830" data-name="Group 1071830" transform="translate(201.976 67.391)" opacity="0.2">
        <path id="Path_611118" data-name="Path 611118" d="M256.572,74.824l-13.945,35.164,7.593,3.63,19.19-23.689a17.038,17.038,0,0,1-3.645-4.285C263.937,82.713,260.821,76,256.572,74.824Z" transform="translate(-242.627 -74.824)" fill="#304c8e"/>
      </g>
      <g id="Group_1071831" data-name="Group 1071831" transform="translate(222.697 89.334)" opacity="0.2">
        <path id="Path_611119" data-name="Path 611119" d="M294.01,101.73,268.035,128.8l5.789,7.8L299.2,119.661a15.165,15.165,0,0,1-1.669-4.941C296.923,111.43,296.835,105.436,294.01,101.73Z" transform="translate(-268.035 -101.73)" fill="#304c8e"/>
      </g>
      <g id="Group_1071832" data-name="Group 1071832" transform="translate(234.198 119.892)" opacity="0.2">
        <path id="Path_611120" data-name="Path 611120" d="M317.115,139.2l-34.977,14.4,2.9,8.936,30.431-3.3a17.8,17.8,0,0,1,.21-4.371C316.068,151.536,319.558,144.114,317.115,139.2Z" transform="translate(-282.138 -139.2)" fill="#304c8e"/>
      </g>
      <g id="Group_1071833" data-name="Group 1071833" transform="translate(238.468 157.997)" opacity="0.2">
        <path id="Path_611121" data-name="Path 611121" d="M325.822,185.925,287.69,187.26l-.317,8.409,29.089,8.51a11.279,11.279,0,0,1,1.153-3.472C319.757,196.657,325.822,190.947,325.822,185.925Z" transform="translate(-287.373 -185.925)" fill="#304c8e"/>
      </g>
      <g id="Group_1071834" data-name="Group 1071834" transform="translate(231.232 180.369)" opacity="0.2">
        <path id="Path_611122" data-name="Path 611122" d="M317.161,227.042l-35.11-13.685-3.551,7.63,23.886,18.945a22.5,22.5,0,0,1,4.146-3.147C309.444,234.926,316.353,231.923,317.161,227.042Z" transform="translate(-278.5 -213.357)" fill="#304c8e"/>
      </g>
      <g id="Group_1071835" data-name="Group 1071835" transform="translate(81.216 107.12)" opacity="0.2">
        <path id="Path_611123" data-name="Path 611123" d="M260.617,229.47l-8.689,7.293c.658.688,12.24,20.373,19.376,32.542.1-.073.19-.157.29-.224,4.7-3.147,13.062-1.885,17.777-5Z" transform="translate(-123.583 -143.08)" fill="#304c8e"/>
        <path id="Path_611124" data-name="Path 611124" d="M240.067,246.386l-12.975,4.424,6.143,35.224a9.05,9.05,0,0,1,1.222-.338c6.118-1.21,14.184,4.116,19.812,1.781a8.159,8.159,0,0,0,2.127-1.328Z" transform="translate(-119.001 -146.201)" fill="#304c8e"/>
        <path id="Path_611125" data-name="Path 611125" d="M209.993,294.8l2.074-46.017-11.218-2.841-8.347,39.62c.1.016.207.03.309.051C198.606,286.76,203.9,294.434,209.993,294.8Z" transform="translate(-112.62 -146.119)" fill="#304c8e"/>
        <path id="Path_611126" data-name="Path 611126" d="M174.256,239.849S159.432,259.7,151.682,270.4a9.251,9.251,0,0,1,1.041.6c5.091,3.409,7.017,12.9,12.744,15.276a7.265,7.265,0,0,0,.806.274l20.708-39.2Z" transform="translate(-105.09 -144.995)" fill="#304c8e"/>
        <path id="Path_611127" data-name="Path 611127" d="M153.558,220.245l-31.616,21.73c.121.157.253.307.362.471,3.434,5.13,1.6,14.632,5.952,18.981a7.7,7.7,0,0,0,1.337,1.038c11.172-12.593,31.227-35.194,31.953-35.979Z" transform="translate(-99.604 -141.379)" fill="#304c8e"/>
        <path id="Path_611128" data-name="Path 611128" d="M142.8,201.222l-37.378,6.037c.595,5.995-4.131,13.569-1.907,18.932a7.514,7.514,0,0,0,.481.945c13.081-6.513,40.412-20.06,41.549-20.135Z" transform="translate(-96.095 -137.869)" fill="#304c8e"/>
        <path id="Path_611129" data-name="Path 611129" d="M139.22,173.385l-35.335-10.2c-.03.307-.069.612-.128.91-1.175,5.938-9.205,11.35-9.205,17.633a7.8,7.8,0,0,0,.106,1.253h43.131Z" transform="translate(-94.551 -130.853)" fill="#304c8e"/>
        <path id="Path_611130" data-name="Path 611130" d="M103.83,136.69c13.2,7.076,39.025,21.39,39.025,21.39l6.355-12.068-29.849-22.473c-.128.233-.252.47-.4.687C115.613,129.231,106.4,131.185,103.83,136.69Z" transform="translate(-96.263 -123.539)" fill="#304c8e"/>
      </g>
      <path id="Path_611131" data-name="Path 611131" d="M290.159,163.766s-.016-.141-.042-.418a6.3,6.3,0,0,0-.174-1.229,13.219,13.219,0,0,0-1.979-4.428c-1.134-1.825-2.854-3.862-4.647-6.447a15.51,15.51,0,0,1-2.268-4.528,12.9,12.9,0,0,1-.012-5.751c.365-2.014.966-4.088,1.491-6.289a16.857,16.857,0,0,0,.52-7.013,8.005,8.005,0,0,0-1.642-3.343,15.361,15.361,0,0,0-2.937-2.607c-2.192-1.556-4.711-2.8-7.124-4.424a16.3,16.3,0,0,1-3.371-2.882,10.885,10.885,0,0,1-2.065-4.086c-.849-3-1.037-6.219-1.682-9.43a14.941,14.941,0,0,0-1.627-4.662,7.921,7.921,0,0,0-3.763-3.255,20.8,20.8,0,0,0-5.051-1.35c-1.753-.288-3.545-.492-5.347-.812a16.967,16.967,0,0,1-5.3-1.667,12.509,12.509,0,0,1-4.072-3.944c-1.1-1.575-2.039-3.267-3.043-4.936a26.271,26.271,0,0,0-3.434-4.759,8.113,8.113,0,0,0-5.21-2.555,19.993,19.993,0,0,0-6.041.709c-2.008.482-4.018,1.069-6.1,1.46a12.919,12.919,0,0,1-6.379-.12,21.89,21.89,0,0,1-5.637-3.255c-1.758-1.294-3.477-2.673-5.36-3.817a10.276,10.276,0,0,0-6.239-1.78l-.413.032c-.135.023-.271.059-.406.087-.269.064-.543.114-.811.189a13,13,0,0,0-1.559.61,20.512,20.512,0,0,0-2.929,1.7c-1.881,1.283-3.654,2.756-5.581,4.065a20.783,20.783,0,0,1-3.04,1.758,10.281,10.281,0,0,1-3.44.869,24.137,24.137,0,0,1-7.047-1,47.791,47.791,0,0,0-7-1.47,10.892,10.892,0,0,0-3.547.238,7.755,7.755,0,0,0-3.106,1.707,23.65,23.65,0,0,0-4.362,5.832,40.052,40.052,0,0,1-4.14,6.219,10.37,10.37,0,0,1-2.972,2.358,16.99,16.99,0,0,1-3.6,1.231c-2.483.545-5.02.778-7.519,1.231-2.472.449-5.045,1.152-6.877,2.929a9.316,9.316,0,0,0-1.953,3.23,20.6,20.6,0,0,0-.963,3.733c-.463,2.549-.676,5.166-1.294,7.739a13.4,13.4,0,0,1-1.405,3.721,10.7,10.7,0,0,1-2.648,3,62.515,62.515,0,0,1-6.729,4.308A30.164,30.164,0,0,0,105,122.724a10.689,10.689,0,0,0-2.562,2.988,7.715,7.715,0,0,0-.92,3.807,19.73,19.73,0,0,0,.463,3.985c.559,2.641,1.4,5.241,1.845,7.956a13.813,13.813,0,0,1,.136,4.133,11.171,11.171,0,0,1-1.381,3.917c-1.376,2.414-3.172,4.53-4.765,6.779a22.428,22.428,0,0,0-2.13,3.525,8.3,8.3,0,0,0-.013,7.876,22.2,22.2,0,0,0,2.127,3.528c1.591,2.25,3.39,4.365,4.769,6.779a11.229,11.229,0,0,1,1.39,3.915,13.7,13.7,0,0,1-.13,4.136c-.444,2.716-1.284,5.318-1.843,7.959a19.871,19.871,0,0,0-.469,3.987,7.737,7.737,0,0,0,.913,3.81,10.63,10.63,0,0,0,2.557,2.993,30.478,30.478,0,0,0,3.274,2.27A62.9,62.9,0,0,1,115,211.375a10.76,10.76,0,0,1,2.651,2.993,13.359,13.359,0,0,1,1.409,3.721c.62,2.573.833,5.192,1.3,7.739a20.548,20.548,0,0,0,.962,3.735,9.3,9.3,0,0,0,1.951,3.233c1.831,1.78,4.4,2.483,6.876,2.933,2.5.453,5.038.686,7.522,1.231a17,17,0,0,1,3.605,1.23,10.405,10.405,0,0,1,2.973,2.358,40.046,40.046,0,0,1,4.141,6.22,23.68,23.68,0,0,0,4.362,5.833,7.773,7.773,0,0,0,3.108,1.708,10.881,10.881,0,0,0,3.547.238,47.849,47.849,0,0,0,7.005-1.471,24.146,24.146,0,0,1,7.048-1,10.284,10.284,0,0,1,3.44.871,20.78,20.78,0,0,1,3.04,1.758c1.926,1.309,3.7,2.782,5.582,4.065a20.448,20.448,0,0,0,2.929,1.7,12.81,12.81,0,0,0,1.561.61c.268.075.541.125.811.189.135.029.27.064.406.087l.413.032a10.291,10.291,0,0,0,6.239-1.783c1.885-1.146,3.6-2.524,5.361-3.818a21.8,21.8,0,0,1,5.638-3.253,12.912,12.912,0,0,1,6.38-.117c2.083.391,4.093.979,6.1,1.461a20.006,20.006,0,0,0,6.041.707,8.124,8.124,0,0,0,5.209-2.56,26.326,26.326,0,0,0,3.432-4.761c1-1.669,1.947-3.36,3.044-4.936a12.5,12.5,0,0,1,4.075-3.941,17,17,0,0,1,5.3-1.664c1.8-.32,3.594-.524,5.347-.812a20.753,20.753,0,0,0,5.051-1.352,7.919,7.919,0,0,0,3.76-3.259,14.96,14.96,0,0,0,1.625-4.663c.645-3.211.832-6.426,1.682-9.429a10.862,10.862,0,0,1,2.067-4.085,16.3,16.3,0,0,1,3.372-2.88c2.413-1.622,4.932-2.869,7.124-4.424a15.381,15.381,0,0,0,2.936-2.608,8,8,0,0,0,1.638-3.344,11.213,11.213,0,0,0,.1-3.6,28.936,28.936,0,0,0-.624-3.411c-.525-2.2-1.125-4.274-1.49-6.288a12.907,12.907,0,0,1,.014-5.751,15.557,15.557,0,0,1,2.269-4.527c1.793-2.584,3.512-4.62,4.646-6.445a13.216,13.216,0,0,0,1.979-4.427,6.355,6.355,0,0,0,.174-1.228c.024-.279.04-.419.04-.419s0,.14-.024.418a6.069,6.069,0,0,1-.157,1.235,13.1,13.1,0,0,1-1.954,4.458c-1.128,1.836-2.841,3.883-4.621,6.465a15.472,15.472,0,0,0-2.239,4.5,12.8,12.8,0,0,0,0,5.7c.369,2,.972,4.074,1.5,6.277a29.473,29.473,0,0,1,.634,3.429,11.373,11.373,0,0,1-.1,3.65,8.161,8.161,0,0,1-1.667,3.419,15.53,15.53,0,0,1-2.965,2.646c-2.2,1.569-4.724,2.821-7.12,4.438a16.168,16.168,0,0,0-3.327,2.848,10.657,10.657,0,0,0-2.021,4.014c-.839,2.972-1.023,6.183-1.666,9.416a15.2,15.2,0,0,1-1.646,4.734,8.154,8.154,0,0,1-3.859,3.356,20.954,20.954,0,0,1-5.106,1.375c-1.761.292-3.552.5-5.343.818a16.794,16.794,0,0,0-5.219,1.643,12.243,12.243,0,0,0-3.986,3.869c-1.085,1.562-2.025,3.248-3.03,4.923a26.492,26.492,0,0,1-3.466,4.812,8.392,8.392,0,0,1-5.373,2.645,20.235,20.235,0,0,1-6.129-.709c-2.017-.483-4.025-1.067-6.088-1.452a12.651,12.651,0,0,0-6.24.111,21.594,21.594,0,0,0-5.555,3.216c-1.753,1.292-3.474,2.676-5.381,3.837-.492.266-.961.573-1.479.794-.255.117-.506.245-.767.352l-.8.284a8.088,8.088,0,0,1-3.373.4l-.43-.033c-.141-.023-.28-.06-.42-.089-.279-.066-.562-.118-.838-.195a13.325,13.325,0,0,1-1.6-.625,20.808,20.808,0,0,1-2.973-1.722c-1.9-1.293-3.674-2.766-5.585-4.062a20.433,20.433,0,0,0-2.994-1.731,9.959,9.959,0,0,0-3.335-.842,23.869,23.869,0,0,0-6.951,1,48,48,0,0,1-7.054,1.482,11.218,11.218,0,0,1-3.657-.246,8.082,8.082,0,0,1-3.234-1.773,23.942,23.942,0,0,1-4.432-5.911A39.859,39.859,0,0,0,144,240.765a10.069,10.069,0,0,0-2.879-2.283,16.728,16.728,0,0,0-3.53-1.2c-2.454-.538-4.988-.771-7.509-1.227a20.778,20.778,0,0,1-3.735-.981A8.307,8.307,0,0,1,121,229.681a21.054,21.054,0,0,1-.979-3.793c-.466-2.569-.68-5.183-1.293-7.721a13.08,13.08,0,0,0-1.373-3.631,10.427,10.427,0,0,0-2.574-2.9,62.775,62.775,0,0,0-6.7-4.28,30.89,30.89,0,0,1-3.315-2.3,10.982,10.982,0,0,1-2.64-3.093,8.092,8.092,0,0,1-.954-3.968,20.2,20.2,0,0,1,.475-4.061c.565-2.664,1.4-5.263,1.84-7.943a13.373,13.373,0,0,0,.129-4.034,10.883,10.883,0,0,0-1.35-3.795c-1.353-2.372-3.146-4.483-4.749-6.748a22.536,22.536,0,0,1-2.158-3.582,8.638,8.638,0,0,1,.013-8.165,22.693,22.693,0,0,1,2.161-3.578c1.6-2.262,3.394-4.375,4.746-6.747a10.807,10.807,0,0,0,1.34-3.8,13.477,13.477,0,0,0-.135-4.033c-.44-2.677-1.277-5.276-1.84-7.94a19.961,19.961,0,0,1-.471-4.06,8.058,8.058,0,0,1,.961-3.966,11.028,11.028,0,0,1,2.646-3.087,30.447,30.447,0,0,1,3.315-2.3,62.477,62.477,0,0,0,6.693-4.281,10.349,10.349,0,0,0,2.57-2.9,13.108,13.108,0,0,0,1.37-3.631c.61-2.537.825-5.15,1.291-7.718a21.032,21.032,0,0,1,.98-3.792,8.3,8.3,0,0,1,5.35-5.386,20.807,20.807,0,0,1,3.734-.98c2.521-.455,5.052-.688,7.506-1.226a16.655,16.655,0,0,0,3.529-1.2A10.068,10.068,0,0,0,144,86.762a39.79,39.79,0,0,0,4.1-6.167,23.924,23.924,0,0,1,4.431-5.909,8.086,8.086,0,0,1,3.234-1.772,11.225,11.225,0,0,1,3.656-.246,48,48,0,0,1,7.053,1.482,23.9,23.9,0,0,0,6.951,1,9.978,9.978,0,0,0,3.334-.842,20.492,20.492,0,0,0,2.994-1.73c1.911-1.3,3.687-2.769,5.584-4.061a20.665,20.665,0,0,1,2.973-1.722,13.3,13.3,0,0,1,1.6-.625c.276-.078.559-.129.838-.2.14-.03.28-.066.42-.09l.43-.034a8.1,8.1,0,0,1,3.373.4l.8.283c.261.106.511.235.767.351.519.221.988.528,1.479.794,1.908,1.161,3.629,2.545,5.382,3.836a21.6,21.6,0,0,0,5.553,3.217,12.646,12.646,0,0,0,6.24.114c2.062-.386,4.071-.969,6.088-1.453a20.253,20.253,0,0,1,6.128-.711,8.39,8.39,0,0,1,5.375,2.638,26.518,26.518,0,0,1,3.468,4.812c1,1.675,1.944,3.362,3.029,4.923a12.242,12.242,0,0,0,3.984,3.872,16.761,16.761,0,0,0,5.217,1.645c1.791.32,3.583.526,5.343.817a21.052,21.052,0,0,1,5.108,1.373,8.164,8.164,0,0,1,3.862,3.352,15.155,15.155,0,0,1,1.647,4.733c.644,3.233.828,6.443,1.665,9.417a10.691,10.691,0,0,0,2.019,4.016,16.143,16.143,0,0,0,3.325,2.849c2.4,1.618,4.916,2.869,7.12,4.439a15.5,15.5,0,0,1,2.966,2.644,8.158,8.158,0,0,1,1.669,3.418,11.354,11.354,0,0,1,.1,3.651,28.923,28.923,0,0,1-.634,3.428c-.532,2.2-1.135,4.274-1.5,6.278a12.8,12.8,0,0,0-.006,5.7,15.481,15.481,0,0,0,2.239,4.5c1.779,2.583,3.494,4.631,4.621,6.466a13.11,13.11,0,0,1,1.956,4.459,6.131,6.131,0,0,1,.157,1.235C290.154,163.625,290.159,163.766,290.159,163.766Z" transform="translate(-13.297 -5.768)" fill="#304c8e"/>
      <path id="Path_611132" data-name="Path 611132" d="M189.464,297.235c.092.024-2.346,9.909-5.446,22.078s-5.687,22.018-5.779,21.995,2.345-9.907,5.445-22.08S189.372,297.212,189.464,297.235Z" transform="translate(-28.773 -48.461)" fill="#304c8e"/>
      <path id="Path_611133" data-name="Path 611133" d="M200.938,232.326a59.965,59.965,0,1,0-59.965-59.965A59.965,59.965,0,0,0,200.938,232.326Z" transform="translate(-21.899 -14.364)" fill="#fff"/>
      <path id="Path_611134" data-name="Path 611134" d="M167.895,155.339c-.827.827-5.374,9.095-5.788,15.916s.567,45.13.567,45.13l.177,2.538c10.8,12.624,50.031,31.41,85.374-.063l1.98-23.561-5.832-49.881-20.256-4.961-4.75-7.7-31.658,7.412-2.823,6.675Z" transform="translate(-25.778 -18.12)" fill="#455a64"/>
      <path id="Path_611135" data-name="Path 611135" d="M228.668,99.759a93.313,93.313,0,0,0,3.247-15.746,32.56,32.56,0,0,0-2.09-15.794c-.323-.747-3-5.731-3.8-5.61-.576.087,1.156,4.776.89,5.293-2.541,4.933-3,10.731-2.273,16.231A72.65,72.65,0,0,0,228.668,99.759Z" transform="translate(-37.275 -5.179)" fill="#304c8e"/>
      <path id="Path_611136" data-name="Path 611136" d="M218.935,77.648c-.256-13.456-8.3-24.523-21.744-23.894l-1.239.13A24.059,24.059,0,0,0,174.418,78.4c.285,11.661.752,24.542,1.483,30.738,1.512,12.826,14.568,13.468,14.568,13.468.029,0,.6,8.435.6,8.435l5.517,5.993,25.572-15.838Z" transform="translate(-28.067 -3.541)" fill="#ffbf9d"/>
      <path id="Path_611137" data-name="Path 611137" d="M194.1,136.788a31.2,31.2,0,0,0,16.2-6.706,16,16,0,0,1-15.635,11.827Z" transform="translate(-31.699 -17.626)" fill="#ff9a6c"/>
      <path id="Path_611138" data-name="Path 611138" d="M183.477,96.385a1.845,1.845,0,0,0,1.963,1.664,1.764,1.764,0,0,0,1.717-1.853,1.845,1.845,0,0,0-1.961-1.665A1.766,1.766,0,0,0,183.477,96.385Z" transform="translate(-29.739 -11.068)" fill="#304c8e"/>
      <path id="Path_611139" data-name="Path 611139" d="M178.466,89.632c.252.215,1.533-.96,3.508-1.163,1.969-.231,3.524.631,3.713.367.094-.118-.183-.525-.862-.918a5.063,5.063,0,0,0-3-.59,4.86,4.86,0,0,0-2.761,1.224C178.5,89.082,178.342,89.537,178.466,89.632Z" transform="translate(-28.808 -9.734)" fill="#304c8e"/>
      <path id="Path_611140" data-name="Path 611140" d="M204.855,94.57a1.845,1.845,0,0,0,1.964,1.664,1.764,1.764,0,0,0,1.717-1.853,1.846,1.846,0,0,0-1.962-1.665A1.767,1.767,0,0,0,204.855,94.57Z" transform="translate(-33.682 -10.733)" fill="#304c8e"/>
      <path id="Path_611141" data-name="Path 611141" d="M202.272,88.112c.254.215,1.536-.96,3.509-1.163,1.969-.231,3.524.631,3.713.367.093-.118-.181-.525-.863-.918a5.055,5.055,0,0,0-3-.591,4.864,4.864,0,0,0-2.761,1.224C202.311,87.563,202.15,88.017,202.272,88.112Z" transform="translate(-33.2 -9.453)" fill="#304c8e"/>
      <path id="Path_611142" data-name="Path 611142" d="M194.387,104.409a13.086,13.086,0,0,0-3.267-.241c-.509,0-1-.049-1.118-.383a2.584,2.584,0,0,1,.179-1.53q.519-1.9,1.085-3.994c1.495-5.681,2.519-10.332,2.29-10.39s-1.626,4.5-3.12,10.181c-.356,1.4-.7,2.734-1.02,4.012a2.932,2.932,0,0,0-.053,2.005,1.276,1.276,0,0,0,.906.65,3.479,3.479,0,0,0,.869.029A12.939,12.939,0,0,0,194.387,104.409Z" transform="translate(-30.795 -9.839)" fill="#304c8e"/>
      <path id="Path_611143" data-name="Path 611143" d="M201.562,109.073c-.323.015-.1,2.158-1.775,3.871s-3.978,1.718-3.963,2.019c-.015.138.552.363,1.519.288a5.376,5.376,0,0,0,3.322-1.565,4.669,4.669,0,0,0,1.35-3.232C202,109.55,201.706,109.045,201.562,109.073Z" transform="translate(-32.017 -13.75)" fill="#304c8e"/>
      <path id="Path_611144" data-name="Path 611144" d="M201.376,78.37c.251.517,2.195.054,4.539.089,2.345-.012,4.285.469,4.541-.044.113-.244-.266-.715-1.076-1.155a7.9,7.9,0,0,0-6.919-.034C201.648,77.657,201.266,78.124,201.376,78.37Z" transform="translate(-33.038 -7.732)" fill="#304c8e"/>
      <path id="Path_611145" data-name="Path 611145" d="M178.61,81.459c.395.412,1.705-.2,3.337-.391,1.625-.251,3.051-.017,3.32-.52.116-.242-.15-.668-.8-1.029a4.866,4.866,0,0,0-5.365.735C178.575,80.775,178.434,81.257,178.61,81.459Z" transform="translate(-28.828 -8.208)" fill="#304c8e"/>
      <path id="Path_611146" data-name="Path 611146" d="M228.949,94.685c.209-.118,8.549-3.54,9.194,5.269s-8.333,7.64-8.367,7.389S228.949,94.685,228.949,94.685Z" transform="translate(-38.128 -10.958)" fill="#ffbf9d"/>
      <path id="Path_611147" data-name="Path 611147" d="M232.962,104.438c.037-.031.162.1.43.195a1.533,1.533,0,0,0,1.148-.06c.906-.41,1.581-1.944,1.508-3.535a5.089,5.089,0,0,0-.591-2.166,1.78,1.78,0,0,0-1.24-1.094.783.783,0,0,0-.874.487c-.1.255-.031.427-.077.445-.023.024-.2-.133-.156-.5a.981.981,0,0,1,.307-.577,1.161,1.161,0,0,1,.832-.286,2.162,2.162,0,0,1,1.7,1.248,5.228,5.228,0,0,1,.712,2.417c.073,1.779-.714,3.507-1.961,3.968a1.648,1.648,0,0,1-1.421-.13C232.993,104.649,232.933,104.455,232.962,104.438Z" transform="translate(-38.867 -11.587)" fill="#ff9a6c"/>
      <path id="Path_611148" data-name="Path 611148" d="M180.188,63.049c-1.477-.695,2.507-5.59,5.91-7.407,5.144-2.745,13.14-4.746,18.115-3.675,5.988,1.289,11.063,3.9,14.361,9.064a34.745,34.745,0,0,1,5.031,17.452,10.55,10.55,0,0,1-.9,5.466c-1.106,2.028-3.389,3.408-3.112,6.089a3.7,3.7,0,0,1-.743,2.75c-1.5,1.82-3.579.334-4.59-1.223-2.16-3.328-2.641-7.436-3.066-11.38a25.808,25.808,0,0,1,.018-8.419c.336-1.5.94-2.93,1.193-4.443a5.307,5.307,0,0,0-.908-4.36,5.535,5.535,0,0,0-.762-.678,9.211,9.211,0,0,0-9.232-1.149c-4.851,2.076-13.159,5.244-15.481,3.7-3.341-2.218-4.2-3.749-4.2-3.749Z" transform="translate(-29.074 -3.162)" fill="#304c8e"/>
      <path id="Path_611149" data-name="Path 611149" d="M165.232,160.447c-.511.706-7.731,3.1-10.471,7.667s-5.449,25.055-5.449,25.055l-1.744,13.49c3.435,5.434,8.042,12.628,12.931,17.7Z" transform="translate(-23.115 -23.228)" fill="#455a64"/>
      <g id="Group_1071836" data-name="Group 1071836" transform="translate(196.366 157.004)" opacity="0.3">
        <path id="Path_611150" data-name="Path 611150" d="M235.748,184.707a34.8,34.8,0,0,0,1.56,8.128,11.7,11.7,0,0,0,5.024,6.379,14.285,14.285,0,0,1,3.006,1.719c.911.847,1.37,2.077,2.2,3.009a8.64,8.64,0,0,0,3.707,2.17,32.554,32.554,0,0,0,12.3,1.96c.13-1.414.139-6.607.268-8.021Z" transform="translate(-235.748 -184.707)" fill="#304c8e"/>
      </g>
      <path id="Path_611151" data-name="Path 611151" d="M260.577,148.281s9.1,2.692,11.771,6.571,7.394,18.91,8.363,21.7.121,9.252-1.7,13.9-4.973,8.647-10.426,9.253-14.065-2.546-16-4.606-2.747-6.686-2.747-6.686a51.319,51.319,0,0,0,7.146-1.793" transform="translate(-41.982 -20.983)" fill="#455a64"/>
      <path id="Path_611152" data-name="Path 611152" d="M256.964,186.615a.446.446,0,0,1-.113.05l-.344.124c-.3.1-.76.255-1.36.436a48.564,48.564,0,0,1-5.313,1.271l.073-.1a22.51,22.51,0,0,0,.929,3.341,13.351,13.351,0,0,0,.789,1.786,6.3,6.3,0,0,0,1.22,1.66,8.79,8.79,0,0,0,1.841,1.214,21.984,21.984,0,0,0,2.142.984,33.826,33.826,0,0,0,4.837,1.531,24.458,24.458,0,0,0,5.432.7c.473.02.945-.042,1.422-.066a12.7,12.7,0,0,0,1.42-.254,9.921,9.921,0,0,0,2.735-1.06,12.366,12.366,0,0,0,4.339-4.237,22.458,22.458,0,0,0,2.579-5.855,33.6,33.6,0,0,0,1.052-4.844,23.071,23.071,0,0,0,.237-4.79,8.438,8.438,0,0,0-.473-2.261q-.369-1.111-.73-2.2l-1.421-4.249c-.937-2.761-1.862-5.374-2.789-7.794a48.257,48.257,0,0,0-2.928-6.563,7.789,7.789,0,0,0-2.055-2.3,17.674,17.674,0,0,0-2.315-1.553,36.637,36.637,0,0,0-4.035-1.951c-1.138-.472-2.037-.8-2.65-1.018l-.7-.245a1.5,1.5,0,0,1-.236-.091,1.214,1.214,0,0,1,.246.057l.708.213c.62.2,1.528.5,2.677.959a34.974,34.974,0,0,1,4.079,1.908,17.537,17.537,0,0,1,2.357,1.548,7.979,7.979,0,0,1,2.128,2.345,47.575,47.575,0,0,1,2.987,6.586c.94,2.421,1.877,5.033,2.823,7.794q.7,2.075,1.432,4.248.362,1.086.733,2.194a8.762,8.762,0,0,1,.493,2.342,23.212,23.212,0,0,1-.235,4.865,33.752,33.752,0,0,1-1.06,4.894,22.715,22.715,0,0,1-2.621,5.942,12.669,12.669,0,0,1-4.464,4.341,10.213,10.213,0,0,1-2.823,1.088,12.741,12.741,0,0,1-1.461.257c-.489.024-.975.086-1.457.064a24.7,24.7,0,0,1-5.5-.725,33.894,33.894,0,0,1-4.872-1.567,22.045,22.045,0,0,1-2.162-1.008,9.051,9.051,0,0,1-1.887-1.264,6.509,6.509,0,0,1-1.256-1.732,13.472,13.472,0,0,1-.786-1.822,22.279,22.279,0,0,1-.9-3.383l-.016-.089.09-.015a54.378,54.378,0,0,0,5.318-1.186l1.373-.391.351-.1A.546.546,0,0,1,256.964,186.615Z" transform="translate(-41.958 -20.983)" fill="#304c8e"/>
      <path id="Path_611153" data-name="Path 611153" d="M275.837,186.582c-.068.015-.274-1.121-1.039-2.8a19.14,19.14,0,0,0-4.109-5.832,13.45,13.45,0,0,0-3.192-2.274l-.8-.36a7.449,7.449,0,0,0-.789-.256,7.357,7.357,0,0,0-1.458-.3l-.33-.051h-.9a4.236,4.236,0,0,0-.929.08,3.729,3.729,0,0,1-.8.082,3.619,3.619,0,0,1,.78-.214,3.845,3.845,0,0,1,.94-.14l.6-.027.326-.014.342.04a7.22,7.22,0,0,1,1.511.269,7.3,7.3,0,0,1,.82.248l.836.358a13.144,13.144,0,0,1,3.291,2.308,17.972,17.972,0,0,1,4.095,5.984,10.549,10.549,0,0,1,.434,1.182,7.706,7.706,0,0,1,.254.914A3.647,3.647,0,0,1,275.837,186.582Z" transform="translate(-44.13 -25.816)" fill="#304c8e"/>
      <path id="Path_611154" data-name="Path 611154" d="M281.176,177.478a16.683,16.683,0,0,0-1.373-2.773,10.837,10.837,0,0,0-5.8-4.392,18.678,18.678,0,0,0-7.4-.406l-2.264.271a3.986,3.986,0,0,1-.837.069,3.853,3.853,0,0,1,.816-.2c.529-.1,1.3-.246,2.255-.379a17.646,17.646,0,0,1,7.534.319,10.374,10.374,0,0,1,3.672,2.005,10.836,10.836,0,0,1,2.234,2.584,9.33,9.33,0,0,1,.971,2.084A3.1,3.1,0,0,1,281.176,177.478Z" transform="translate(-44.501 -24.881)" fill="#304c8e"/>
      <path id="Path_611155" data-name="Path 611155" d="M274.323,167.123a20.254,20.254,0,0,0-10.767.422,5.4,5.4,0,0,1,1.491-.625,15.014,15.014,0,0,1,7.739-.3A5.384,5.384,0,0,1,274.323,167.123Z" transform="translate(-44.512 -24.298)" fill="#304c8e"/>
      <path id="Path_611156" data-name="Path 611156" d="M258.56,151.067c.055.009-.077.929-.184,2.42a36.5,36.5,0,0,0,.979,11.394l-.238.077c-.27-.763-.483-1.383-.622-1.815a2.726,2.726,0,0,1-.183-.683,2.637,2.637,0,0,1,.313.634c.179.417.427,1.023.727,1.775l-.239.077a30.37,30.37,0,0,1-.979-11.48c.083-.748.181-1.351.263-1.763A2.473,2.473,0,0,1,258.56,151.067Z" transform="translate(-43.48 -21.497)" fill="#304c8e"/>
      <path id="Path_611157" data-name="Path 611157" d="M240.8,130.285s-4.726,0-5.319,5.679a78.37,78.37,0,0,0,0,10.5c0,1.909-.841,8.7-.841,8.7s-3.224,2.86-3.169,6.3a4.817,4.817,0,0,0,2.51,4.507,5.827,5.827,0,0,0,1.364,6.273s-1.373,3.167-.245,5.3a5.073,5.073,0,0,0,2.835,2.2,3.222,3.222,0,0,0,1.956,4.432,14.056,14.056,0,0,0,4.911.6l3.526-.068,3.108,1.715s5.318-2.319,5.455-5.455l.136-3.137a63.783,63.783,0,0,1-1.637-6.819c-.135-1.636,1.227-5.591.409-7.364s-3.682-2.814-3.41-5.294a5.878,5.878,0,0,0-1.5-5.207c-1.227-1.364-6.652-4.091-6.652-4.091a25.607,25.607,0,0,1-1.395-6.682C242.848,139.646,245.576,131.327,240.8,130.285Z" transform="translate(-38.593 -17.664)" fill="#ffbf9d"/>
      <path id="Path_611158" data-name="Path 611158" d="M244.7,154.569a7.054,7.054,0,0,1-1.308.849c-.83.486-1.989,1.137-3.279,1.837s-2.469,1.319-3.328,1.75a7.1,7.1,0,0,1-1.427.636,7.085,7.085,0,0,1,1.31-.85c.83-.486,1.988-1.137,3.278-1.837s2.466-1.317,3.327-1.749A7.061,7.061,0,0,1,244.7,154.569Z" transform="translate(-39.31 -22.143)" fill="#ff9a6c"/>
      <path id="Path_611159" data-name="Path 611159" d="M247.7,167.661c.014.02-.134.15-.413.369s-.7.519-1.23.865a24.39,24.39,0,0,1-9.219,3.529c-.627.1-1.138.158-1.492.178a1.7,1.7,0,0,1-.554,0,20.1,20.1,0,0,1,2-.418,30.138,30.138,0,0,0,9.136-3.5A20.03,20.03,0,0,1,247.7,167.661Z" transform="translate(-39.206 -24.558)" fill="#ff9a6c"/>
      <path id="Path_611160" data-name="Path 611160" d="M255.176,163.5c.086.03-.091.636-.652,1.143s-1.177.63-1.2.542.472-.34.966-.8S255.086,163.456,255.176,163.5Z" transform="translate(-42.624 -23.79)" fill="#ff9a6c"/>
      <path id="Path_611161" data-name="Path 611161" d="M250.021,179.13a10.3,10.3,0,0,1-1.977.723,38.691,38.691,0,0,1-10.015,1.611,10.3,10.3,0,0,1-2.1-.067,16.742,16.742,0,0,1,2.093-.176c1.291-.091,3.07-.261,5.018-.573s3.689-.711,4.943-1.031A16.819,16.819,0,0,1,250.021,179.13Z" transform="translate(-39.415 -26.673)" fill="#ff9a6c"/>
      <path id="Path_611162" data-name="Path 611162" d="M258.317,176.633a9.172,9.172,0,0,1,.363-1.011,5.726,5.726,0,0,0-.583-4.876,8.912,8.912,0,0,1-.59-.9c.027-.03.379.213.792.761a5.179,5.179,0,0,1,.609,5.1A2.154,2.154,0,0,1,258.317,176.633Z" transform="translate(-43.395 -24.961)" fill="#ff9a6c"/>
      <path id="Path_611163" data-name="Path 611163" d="M250.872,190.847a6.855,6.855,0,0,1-1.679.4,25.819,25.819,0,0,1-8.3-.023,6.889,6.889,0,0,1-1.677-.406,11.543,11.543,0,0,1,1.711.165,36.471,36.471,0,0,0,8.236.023A11.373,11.373,0,0,1,250.872,190.847Z" transform="translate(-40.021 -28.827)" fill="#ff9a6c"/>
      <path id="Path_611164" data-name="Path 611164" d="M242.154,145.075c.02.036-.214.214-.655.372a4.16,4.16,0,0,1-3.526-.42c-.392-.257-.577-.484-.55-.515a5.915,5.915,0,0,0,4.731.563Z" transform="translate(-39.691 -20.287)" fill="#ff9a6c"/>
      <path id="Path_611165" data-name="Path 611165" d="M259.3,178.658a1.3,1.3,0,0,1,.076.51,5.838,5.838,0,0,1-.164,1.393c-.127.578-.346,1.245-.554,1.983a5.617,5.617,0,0,0-.247,2.4c.114.836.74,1.514.838,2.363a3.147,3.147,0,0,1-.519,2.044,7.2,7.2,0,0,1-.853,1.112c-.225.241-.363.36-.38.345-.053-.04.454-.579,1.021-1.577a3.006,3.006,0,0,0,.418-1.877c-.08-.718-.713-1.394-.864-2.349a5.645,5.645,0,0,1,.281-2.553c.229-.745.468-1.4.622-1.954A12.337,12.337,0,0,0,259.3,178.658Z" transform="translate(-43.393 -26.587)" fill="#ff9a6c"/>
      <path id="Path_611166" data-name="Path 611166" d="M260.554,183.747a2.364,2.364,0,0,1,.221.62c.118.406.277,1,.427,1.741a15.744,15.744,0,0,1,.316,2.652,7.091,7.091,0,0,1-.6,3.236,9.265,9.265,0,0,1-2.031,2.586,18.485,18.485,0,0,1-2.1,1.647c-.627.426-1.152.742-1.521.949a2.347,2.347,0,0,1-.592.288c-.029-.047.763-.545,1.973-1.435a21.8,21.8,0,0,0,2.022-1.679,9.4,9.4,0,0,0,1.938-2.506,7.016,7.016,0,0,0,.59-3.082,17.809,17.809,0,0,0-.238-2.613C260.718,184.669,260.5,183.76,260.554,183.747Z" transform="translate(-42.874 -27.526)" fill="#304c8e"/>
      <path id="Path_611167" data-name="Path 611167" d="M198.185,155.572a5.114,5.114,0,0,1-.765-.573l-2-1.656-1.371-1.156a3.92,3.92,0,0,0-.779-.559.967.967,0,0,0-.885-.031c-.57.3-.951,1.03-1.438,1.638l-1.455,1.961c-.8,1.069-1.567,2.1-2.275,3.043l-.427.572.135-.7a34.526,34.526,0,0,1,1.644-5.763c.267-.69.5-1.229.671-1.594a2.619,2.619,0,0,1,.293-.549,2.8,2.8,0,0,1-.192.59c-.139.377-.342.925-.581,1.621a40.48,40.48,0,0,0-1.514,5.754l-.291-.128c.7-.95,1.467-1.98,2.261-3.053.5-.67.988-1.324,1.461-1.957l.7-.93a2.536,2.536,0,0,1,.873-.791,1.281,1.281,0,0,1,1.155.045,4.147,4.147,0,0,1,.832.616l1.343,1.188,1.93,1.74A5.045,5.045,0,0,1,198.185,155.572Z" transform="translate(-30.35 -21.338)" fill="#304c8e"/>
      <path id="Path_611168" data-name="Path 611168" d="M229.036,149.936a1.384,1.384,0,0,1-.259.23l-.78.608-2.911,2.19-9.719,7.153-.148.108-.1-.155-.241-.378-4.878-7.7.179.057a36.365,36.365,0,0,0-5.414,2.7c-.625.378-1.106.692-1.435.9a3.286,3.286,0,0,1-.515.312,2.883,2.883,0,0,1,.462-.385c.314-.236.781-.573,1.4-.975a32.594,32.594,0,0,1,5.395-2.827l.113-.046.066.1,4.921,7.672.24.378-.246-.046,9.78-7.07,2.974-2.1.817-.556A1.38,1.38,0,0,1,229.036,149.936Z" transform="translate(-33.307 -21.289)" fill="#304c8e"/>
      <path id="Path_611169" data-name="Path 611169" d="M162.253,182.148a2.455,2.455,0,0,1,.036.466c.009.34.021.785.037,1.337.022,1.2.053,2.87.091,4.917.079,4.151.245,9.883.46,16.215s.342,12.074.36,16.227c.007,2.077,0,3.757-.017,4.918-.012.553-.021,1-.029,1.337a2.369,2.369,0,0,1-.033.466,2.46,2.46,0,0,1-.036-.466c-.01-.34-.021-.785-.037-1.337-.022-1.2-.053-2.87-.091-4.916-.079-4.151-.245-9.884-.46-16.218s-.343-12.07-.359-16.224c-.007-2.077,0-3.758.017-4.919.012-.553.021-1,.029-1.338A2.337,2.337,0,0,1,162.253,182.148Z" transform="translate(-25.809 -27.231)" fill="#304c8e"/>
      <path id="Path_611170" data-name="Path 611170" d="M200.69,238.505a.823.823,0,0,1-.033-.19c-.017-.146-.038-.33-.064-.561-.051-.519-.122-1.241-.211-2.16-.184-1.876-.4-4.6-.605-7.96s-.392-7.375-.507-11.831c-.1-4.457-.121-9.358-.015-14.5s.356-10.042.646-14.491c.308-4.447.657-8.447,1.02-11.8s.686-6.06.95-7.926c.13-.914.232-1.633.306-2.149.036-.229.065-.413.087-.558a.85.85,0,0,1,.042-.188.786.786,0,0,1-.007.193c-.014.146-.032.331-.054.562-.058.517-.139,1.24-.241,2.156-.223,1.871-.515,4.582-.842,7.934s-.655,7.35-.946,11.795c-.272,4.445-.5,9.338-.618,14.476s-.09,10.034-.011,14.487c.1,4.452.247,8.46.432,11.824s.353,6.085.5,7.964c.063.921.112,1.646.148,2.166.012.232.022.417.03.564A.815.815,0,0,1,200.69,238.505Z" transform="translate(-32.637 -23.918)" fill="#304c8e"/>
      <path id="Path_611171" data-name="Path 611171" d="M170.239,121.522s-.233.163-.7.467l-2.065,1.342c-.907.59-1.956,1.427-3.237,2.355-.631.476-1.265,1.049-1.967,1.628l-1.08.908c-.365.319-.716.675-1.09,1.027a58.968,58.968,0,0,0-9.555,11.47l-1.175,1.89c-.414.632-.736,1.332-1.117,2.01-.36.691-.761,1.374-1.1,2.1s-.671,1.473-1.015,2.225c-.166.378-.355.75-.508,1.14l-.451,1.183c-.3.8-.617,1.6-.909,2.419-.489,1.676-1.106,3.364-1.474,5.164a60.758,60.758,0,0,0-.93,23.828,59.808,59.808,0,0,0,95.362,37.872,63.171,63.171,0,0,0,5.908-5.153l1.341-1.4c.451-.46.886-.933,1.3-1.425l1.258-1.45,1.181-1.5a59.348,59.348,0,0,0,11.619-26.332,60.489,60.489,0,0,0,.785-6.743c.071-1.112.069-2.219.108-3.315-.021-1.1-.081-2.183-.118-3.261q-.032-.809-.064-1.61c-.033-.533-.12-1.06-.176-1.587q-.191-1.578-.378-3.128c-.164-1.027-.4-2.032-.595-3.035a27.315,27.315,0,0,0-.689-2.952q-.415-1.445-.822-2.858a11.675,11.675,0,0,0-.466-1.386q-.256-.683-.51-1.356c-.351-.893-.639-1.8-1.033-2.655s-.792-1.691-1.18-2.522a59.4,59.4,0,0,0-11.4-16.1,62.044,62.044,0,0,0-11.776-9.176L229,120.156a11.727,11.727,0,0,0-1.174-.6l-1.112-.529-1.976-.942c-.6-.3-1.18-.475-1.679-.683l-2.3-.89c-.517-.2-.779-.315-.779-.315s.269.091.79.281l2.31.859c.5.2,1.089.371,1.688.669l1.985.929,1.118.524a11.63,11.63,0,0,1,1.18.6l2.535,1.439a61.765,61.765,0,0,1,11.844,9.156,59.4,59.4,0,0,1,11.479,16.128l1.19,2.531c.4.855.688,1.767,1.043,2.664l.514,1.361a11.933,11.933,0,0,1,.471,1.392l.831,2.869a27.577,27.577,0,0,1,.7,2.965c.2,1.007.436,2.017.6,3.048q.19,1.556.385,3.142c.058.529.146,1.058.179,1.594s.044,1.076.066,1.617c.04,1.083.1,2.176.123,3.277-.036,1.1-.033,2.213-.1,3.331a60.92,60.92,0,0,1-.78,6.776,59.6,59.6,0,0,1-11.657,26.483l-1.187,1.509-1.262,1.459c-.414.5-.851.97-1.306,1.434l-1.346,1.408a63.447,63.447,0,0,1-5.939,5.185,60.112,60.112,0,0,1-95.848-38.095,60.9,60.9,0,0,1,.974-23.931c.374-1.806,1-3.5,1.492-5.18.294-.825.617-1.629.919-2.427l.455-1.187c.155-.391.344-.764.513-1.143l1.024-2.23c.346-.728.75-1.413,1.113-2.1.385-.68.709-1.381,1.125-2.013s.8-1.273,1.186-1.893a58.789,58.789,0,0,1,9.625-11.463c.378-.35.731-.705,1.1-1.023l1.087-.9c.707-.576,1.346-1.146,1.98-1.619,1.289-.922,2.346-1.75,3.26-2.332l2.085-1.315C169.994,121.665,170.239,121.522,170.239,121.522Z" transform="translate(-21.869 -15.064)" fill="#304c8e"/>
    </g>
  </g>
</svg>
