<svg xmlns="http://www.w3.org/2000/svg" width="120" height="120" viewBox="0 0 120 120">
  <g id="Group_1073114" data-name="Group 1073114" transform="translate(-285 -3504.827)">
    <g id="Group_1073002" data-name="Group 1073002">
      <g id="Group_1072400" data-name="Group 1072400" transform="translate(16 2546.826)">
        <circle id="Ellipse_5614" data-name="Ellipse 5614" cx="60" cy="60" r="60" transform="translate(269 958)" fill="#304c8e"/>
      </g>
    </g>
    <path id="Rectángulo_377559" data-name="Rectángulo 377559" d="M3.246,2.272a.975.975,0,0,0-.974.974V30.184a.975.975,0,0,0,.974.974H36.351a.975.975,0,0,0,.974-.974V3.246a.975.975,0,0,0-.974-.974H3.246M3.246,0H36.351A3.246,3.246,0,0,1,39.6,3.246V30.184a3.246,3.246,0,0,1-3.246,3.246H3.246A3.246,3.246,0,0,1,0,30.184V3.246A3.246,3.246,0,0,1,3.246,0Z" transform="translate(309.15 3568.246)" fill="#fff"/>
    <path id="Rectángulo_377560" data-name="Rectángulo 377560" d="M1.623,1.623V7.14H7.79V1.623H1.623M1.3,0H8.114a1.3,1.3,0,0,1,1.3,1.3V7.465a1.3,1.3,0,0,1-1.3,1.3H1.3A1.3,1.3,0,0,1,0,7.465V1.3A1.3,1.3,0,0,1,1.3,0Z" transform="translate(357.186 3538.062)" fill="#fff"/>
    <path id="Rectángulo_377561" data-name="Rectángulo 377561" d="M1.623,1.623V11.36h9.412V1.623H1.623M1.3,0H11.36a1.3,1.3,0,0,1,1.3,1.3V11.684a1.3,1.3,0,0,1-1.3,1.3H1.3a1.3,1.3,0,0,1-1.3-1.3V1.3A1.3,1.3,0,0,1,1.3,0Z" transform="translate(370.168 3528.649)" fill="#fff"/>
    <path id="Rectángulo_377562" data-name="Rectángulo 377562" d="M1.623,1.623v8.439H9.737V1.623H1.623M1.3,0h8.763a1.3,1.3,0,0,1,1.3,1.3v9.088a1.3,1.3,0,0,1-1.3,1.3H1.3a1.3,1.3,0,0,1-1.3-1.3V1.3A1.3,1.3,0,0,1,1.3,0Z" transform="translate(364.65 3548.772)" fill="#fff"/>
    <path id="Rectángulo_377563" data-name="Rectángulo 377563" d="M1.623,1.623V5.518h3.57V1.623H1.623M1.3,0H5.518a1.3,1.3,0,0,1,1.3,1.3V5.842a1.3,1.3,0,0,1-1.3,1.3H1.3A1.3,1.3,0,0,1,0,5.842V1.3A1.3,1.3,0,0,1,1.3,0Z" transform="translate(349.071 3547.474)" fill="#fff"/>
    <path id="Rectángulo_377564" data-name="Rectángulo 377564" d="M1.623,1.623V5.518h3.57V1.623H1.623M1.3,0H5.518a1.3,1.3,0,0,1,1.3,1.3V5.842a1.3,1.3,0,0,1-1.3,1.3H1.3A1.3,1.3,0,0,1,0,5.842V1.3A1.3,1.3,0,0,1,1.3,0Z" transform="translate(355.238 3556.886)" fill="#fff"/>
    <path id="Rectángulo_377565" data-name="Rectángulo 377565" d="M1.623,1.623V5.518h3.57V1.623H1.623M1.3,0H5.518a1.3,1.3,0,0,1,1.3,1.3V5.842a1.3,1.3,0,0,1-1.3,1.3H1.3A1.3,1.3,0,0,1,0,5.842V1.3A1.3,1.3,0,0,1,1.3,0Z" transform="translate(344.528 3558.185)" fill="#fff"/>
    <path id="Rectángulo_377566" data-name="Rectángulo 377566" d="M1.623,1.623V5.518h3.57V1.623H1.623M1.3,0H5.518a1.3,1.3,0,0,1,1.3,1.3V5.842a1.3,1.3,0,0,1-1.3,1.3H1.3A1.3,1.3,0,0,1,0,5.842V1.3A1.3,1.3,0,0,1,1.3,0Z" transform="translate(348.098 3536.763)" fill="#fff"/>
    <path id="Rectángulo_377567" data-name="Rectángulo 377567" d="M1.623,1.623V5.518h3.57V1.623H1.623M1.3,0H5.518a1.3,1.3,0,0,1,1.3,1.3V5.842a1.3,1.3,0,0,1-1.3,1.3H1.3A1.3,1.3,0,0,1,0,5.842V1.3A1.3,1.3,0,0,1,1.3,0Z" transform="translate(357.186 3528)" fill="#fff"/>
    <path id="Trazado_613212" data-name="Trazado 613212" d="M10.9,1.623A9.281,9.281,0,0,0,7.29,19.451a9.281,9.281,0,0,0,7.222-17.1A9.219,9.219,0,0,0,10.9,1.623M10.9,0A10.9,10.9,0,1,1,0,10.9,10.9,10.9,0,0,1,10.9,0Z" transform="translate(318.076 3574.25)" fill="#fff"/>
    <path id="Trazado_613214" data-name="Trazado 613214" d="M3.266,1.623A1.643,1.643,0,1,0,4.908,3.266,1.645,1.645,0,0,0,3.266,1.623M3.266,0A3.266,3.266,0,1,1,0,3.266,3.266,3.266,0,0,1,3.266,0Z" transform="translate(325.711 3579.136)" fill="#fff"/>
    <path id="Trazado_613213" data-name="Trazado 613213" d="M-6078.765,1028.665h-6.81v-15.214l0-.03a17.234,17.234,0,0,1,2.1-6.556,12.877,12.877,0,0,1,4.219-4.556,13.9,13.9,0,0,1,7.663-2.072c.359,0,.729.01,1.1.031a19.421,19.421,0,0,1,6.05,1.282,16.389,16.389,0,0,1,4.5,2.651,14.789,14.789,0,0,1,2.978,3.348,11.536,11.536,0,0,1,1.515,3.406c.511,2.075.117,3.731-1.052,4.429a4.954,4.954,0,0,1-2.534.773h0a3.93,3.93,0,0,1-2.74-1.141,6.154,6.154,0,0,1-1.52-2.452c-1.278-3.687-3.65-5.5-7.251-5.542h-.115a8.048,8.048,0,0,0-8.164,6.6c-.625,3.585,0,14.078.011,14.184Zm-5.187-1.623h3.466c-.14-2.636-.5-10.516.059-13.7a9.377,9.377,0,0,1,1.05-2.947,9.665,9.665,0,0,1,2.034-2.539,9.881,9.881,0,0,1,6.679-2.457h.134a8.734,8.734,0,0,1,6.136,2.3,10.576,10.576,0,0,1,2.629,4.336c.419,1.209,1.356,2.5,2.727,2.5a3.369,3.369,0,0,0,1.7-.543,1.153,1.153,0,0,0,.432-.785,4.546,4.546,0,0,0-.123-1.863,11.879,11.879,0,0,0-3.956-5.895,16.223,16.223,0,0,0-9.6-3.559c-.34-.019-.681-.029-1.01-.029-4.745,0-8.258,1.937-10.443,5.757a15.775,15.775,0,0,0-1.587,4.055,13.6,13.6,0,0,0-.327,1.843Z" transform="translate(6399.731 2541.472)" fill="#fff"/>
    <path id="Trazado_613215" data-name="Trazado 613215" d="M-6046.522,1142.669h-1.623v-6.845h-7.638v6.845h-1.623v-7.657a.811.811,0,0,1,.811-.811h9.261a.811.811,0,0,1,.812.811Z" transform="translate(6380.912 2451.637)" fill="#fff"/>
  </g>
</svg>
