<svg xmlns="http://www.w3.org/2000/svg" width="190" height="124" viewBox="0 0 190 124">
  <g id="Group_1072773" data-name="Group 1072773" transform="translate(-390 -1947)">
    <rect id="Rectangle_377511" data-name="Rectangle 377511" width="190" height="124" transform="translate(390 1947)" fill="none"/>
    <g id="Group" transform="translate(433 1957)">
      <path id="Path_610282" data-name="Path 610282" d="M29.051,9.135a5.068,5.068,0,0,1-1.49-3.59,4.879,4.879,0,0,1,.1-1A28.433,28.433,0,0,0,17.4,2.158,28.433,28.433,0,0,0,7.137,4.546a4.878,4.878,0,0,1,.1,1,5.074,5.074,0,0,1-5.081,5.081A29.981,29.981,0,0,0,4.817,22.954,29.656,29.656,0,0,0,12.353,33.1l2.083,1.812a4.488,4.488,0,0,0,5.927,0L22.446,33.1a29.856,29.856,0,0,0,10.2-22.473A5.069,5.069,0,0,1,29.051,9.135Z" transform="translate(-0.464 -0.464)" fill="#60cb28"/>
      <path id="Path_610283" data-name="Path 610283" d="M41,118.677h6.774v10.162H41Z" transform="translate(-8.82 -25.532)" fill="#ef7385"/>
      <path id="Path_610284" data-name="Path 610284" d="M23.736,105.73H30.51v20.323H23.736Z" transform="translate(-5.106 -22.747)" fill="#ef7385"/>
      <path id="Path_610285" data-name="Path 610285" d="M6.473,114.361h6.774v13.548H6.473Z" transform="translate(-1.393 -24.604)" fill="#ef7385"/>
      <path id="Path_610286" data-name="Path 610286" d="M98.329,105.73h16.935a3.4,3.4,0,0,1,3.387,3.387v13.548a3.4,3.4,0,0,1-3.387,3.387H98.329a3.4,3.4,0,0,1-3.387-3.387V109.117A3.4,3.4,0,0,1,98.329,105.73Z" transform="translate(-20.426 -22.747)" fill="#60cb28"/>
      <path id="Path_610287" data-name="Path 610287" d="M109.118,118.978a3.387,3.387,0,1,0-3.387-3.387A3.387,3.387,0,0,0,109.118,118.978Z" transform="translate(-22.747 -24.14)" fill="#ffe126"/>
      <path id="Path_610288" data-name="Path 610288" d="M105.4,36.029A16.935,16.935,0,1,0,88.468,19.093,16.936,16.936,0,0,0,105.4,36.029Z" transform="translate(-19.033 -0.464)" fill="#ffe126"/>
      <path id="Path_610289" data-name="Path 610289" d="M74.241,73.069a5.55,5.55,0,0,0-.576-2.439l-.982-1.948a16.7,16.7,0,0,0,1.558-7.062,16.935,16.935,0,1,0-33.871,0,16.7,16.7,0,0,0,1.558,7.062l-.982,1.948a5.55,5.55,0,0,0-.576,2.439,5.493,5.493,0,0,0,5.487,5.487h22.9A5.486,5.486,0,0,0,74.241,73.069Zm3.76.119,2.066,4-7.2,7.181-4-2.049a24.6,24.6,0,0,1-5.114,2.1l-1.372,4.3H52.225l-1.372-4.3a24.6,24.6,0,0,1-5.115-2.1l-4,2.049-7.2-7.181,2.066-4a24.605,24.605,0,0,1-2.1-5.115l-4.3-1.372V56.54l4.3-1.372a24.6,24.6,0,0,1,2.1-5.114l-2.066-4,7.2-7.2,4,2.066a24.606,24.606,0,0,1,5.115-2.1l1.372-4.3H62.386l1.372,4.3a24.605,24.605,0,0,1,5.114,2.1l4-2.066,7.2,7.2-2.066,4a24.6,24.6,0,0,1,2.1,5.114l4.3,1.372V66.7l-4.3,1.372A24.6,24.6,0,0,1,78,73.188Z" transform="translate(-6.499 -7.428)" fill="#ffe126"/>
      <path id="Path_610290" data-name="Path 610290" d="M60.091,47.471A5.436,5.436,0,0,1,64.985,50.5L75.468,71.468l.982,1.948a5.55,5.55,0,0,1,.576,2.439,5.486,5.486,0,0,1-5.487,5.487h-22.9a5.493,5.493,0,0,1-5.487-5.487,5.55,5.55,0,0,1,.576-2.439l.982-1.948L55.2,50.5A5.436,5.436,0,0,1,60.091,47.471Z" transform="translate(-9.284 -10.213)" fill="#ef7385"/>
      <path id="Path_610291" data-name="Path 610291" d="M104.94,37.258A18.629,18.629,0,1,0,86.311,18.629,18.651,18.651,0,0,0,104.94,37.258Zm0-33.871A15.242,15.242,0,1,1,89.7,18.629,15.258,15.258,0,0,1,104.94,3.387Z" transform="translate(-18.569)"/>
      <path id="Path_610292" data-name="Path 610292" d="M109.883,25.566H106.5a1.694,1.694,0,0,1-1.693-1.693h-3.387a5.087,5.087,0,0,0,5.08,5.081V32.34h3.387V28.953a5.081,5.081,0,0,0,0-10.161H106.5a1.694,1.694,0,0,1,0-3.387h3.387a1.694,1.694,0,0,1,1.694,1.694h3.387a5.087,5.087,0,0,0-5.08-5.081V8.631H106.5v3.387a5.081,5.081,0,0,0,0,10.161h3.387a1.694,1.694,0,1,1,0,3.387Z" transform="translate(-21.819 -1.857)"/>
      <path id="Path_610293" data-name="Path 610293" d="M116.494,99.242V92.156a10.161,10.161,0,0,0-20.323,0v7.086a5.074,5.074,0,0,0-3.387,4.769v13.548a5.087,5.087,0,0,0,5.081,5.081H114.8a5.087,5.087,0,0,0,5.08-5.081V104.011A5.073,5.073,0,0,0,116.494,99.242Zm-10.162-13.86a6.781,6.781,0,0,1,6.774,6.774v6.774H99.558V92.156A6.781,6.781,0,0,1,106.332,85.382Zm10.162,32.177a1.7,1.7,0,0,1-1.694,1.694H97.865a1.694,1.694,0,0,1-1.693-1.694V104.011a1.694,1.694,0,0,1,1.693-1.694H114.8a1.7,1.7,0,0,1,1.694,1.694Z" transform="translate(-19.962 -17.641)"/>
      <path id="Path_610294" data-name="Path 610294" d="M108.653,110.046a5.068,5.068,0,0,0-1.693,9.849v3.7h3.387v-3.7a5.068,5.068,0,0,0-1.694-9.849Zm0,6.774a1.694,1.694,0,1,1,1.694-1.694A1.694,1.694,0,0,1,108.653,116.82Z" transform="translate(-22.283 -23.675)"/>
      <path id="Path_610295" data-name="Path 610295" d="M40.645,113.734H30.484V123.9H27.1V103.573H16.936V123.9H13.548V110.347H3.387V123.9H0v3.387H44.032V123.9H40.645Zm-6.774,3.387h3.387V123.9H33.871ZM20.323,106.96H23.71V123.9H20.323ZM6.774,113.734h3.387V123.9H6.774Z" transform="translate(0 -22.283)"/>
      <path id="Path_610296" data-name="Path 610296" d="M10.773,33.9l2.08,1.821a6.2,6.2,0,0,0,8.168,0L23.1,33.906A31.557,31.557,0,0,0,33.871,10.161V8.468H32.177A3.39,3.39,0,0,1,28.79,5.081a3.431,3.431,0,0,1,.068-.664l.262-1.309-1.214-.561A29.855,29.855,0,0,0,16.935,0,29.88,29.88,0,0,0,5.963,2.547L4.75,3.108l.263,1.309a3.434,3.434,0,0,1,.068.664A3.39,3.39,0,0,1,1.694,8.468H0v1.694A31.555,31.555,0,0,0,10.773,33.9ZM8.468,5.177a27.677,27.677,0,0,1,6.774-1.69v6.674h3.387V3.487A27.868,27.868,0,0,1,25.4,5.179a6.788,6.788,0,0,0,5.043,6.452,28.157,28.157,0,0,1-9.58,19.726L18.79,33.175c-.047.041-.11.056-.161.093V13.548H15.242v19.72c-.049-.037-.112-.051-.159-.091L13,31.356A28.154,28.154,0,0,1,3.424,11.631,6.788,6.788,0,0,0,8.468,5.177Z"/>
      <path id="Path_610297" data-name="Path 610297" d="M64.269,83.224a1.694,1.694,0,1,0-1.694-1.693A1.694,1.694,0,0,0,64.269,83.224Z" transform="translate(-13.463 -17.176)"/>
      <path id="Path_610298" data-name="Path 610298" d="M62.575,53.944h3.387V70.879H62.575Z" transform="translate(-13.463 -11.606)"/>
      <path id="Path_610299" data-name="Path 610299" d="M34.238,49.581a25.585,25.585,0,0,0-1.556,3.775l-4.63,1.485V67.473l4.63,1.484a25.358,25.358,0,0,0,1.556,3.775l-2.222,4.317,8.932,8.93,4.317-2.22a25.358,25.358,0,0,0,3.775,1.556l1.487,4.632H63.158l1.484-4.63a25.358,25.358,0,0,0,3.775-1.556l4.317,2.22,8.932-8.93-2.222-4.317A25.435,25.435,0,0,0,81,68.959l4.632-1.487V54.84L81,53.356a25.508,25.508,0,0,0-1.556-3.775l2.222-4.317-8.932-8.932-4.317,2.222A25.584,25.584,0,0,0,64.644,37l-1.487-4.632H50.524L49.041,37a25.507,25.507,0,0,0-3.775,1.556l-4.317-2.222-8.932,8.932Zm1.438,5.579a21.836,21.836,0,0,1,1.953-4.737l.444-.794-1.914-3.716,5.44-5.44,3.716,1.914.794-.444a21.828,21.828,0,0,1,4.737-1.953l.876-.247L53,35.753h7.69l1.277,3.99.876.247a21.828,21.828,0,0,1,4.737,1.953l.794.444,3.716-1.914,5.44,5.44-1.914,3.716.444.794a21.828,21.828,0,0,1,1.953,4.737l.247.876,3.99,1.275V65l-3.99,1.277-.247.876a21.973,21.973,0,0,1-1.951,4.737l-.445.793L77.525,76.4l-5.44,5.438-3.717-1.912-.793.445a21.975,21.975,0,0,1-4.737,1.951l-.876.247-1.275,3.99H53L51.72,82.57l-.876-.247a21.974,21.974,0,0,1-4.737-1.951l-.793-.445L41.6,81.838,36.158,76.4l1.914-3.717-.445-.793a21.973,21.973,0,0,1-1.951-4.737l-.247-.876L31.438,65v-7.69l3.99-1.277Z" transform="translate(-6.035 -6.963)"/>
      <path id="Path_610300" data-name="Path 610300" d="M41,75.4a7.181,7.181,0,0,0,7.174,7.174H71.08A7.175,7.175,0,0,0,77.5,72.188l-.637-1.274a18.4,18.4,0,0,0,1.394-6.972,18.629,18.629,0,0,0-37.258,0,18.4,18.4,0,0,0,1.394,6.972l-.637,1.274A7.2,7.2,0,0,0,41,75.4Zm30.084,3.787H48.172a3.787,3.787,0,0,1-3.387-5.48L56.24,50.793a3.787,3.787,0,0,1,6.774,0L74.469,73.7a3.788,3.788,0,0,1-3.387,5.482Zm3.787-15.242a15.061,15.061,0,0,1-.234,2.52L66.607,50.407A15.249,15.249,0,0,1,74.869,63.942Zm-30.484,0a15.245,15.245,0,0,1,8.261-13.533L44.618,66.464A15.1,15.1,0,0,1,44.385,63.942Z" transform="translate(-8.82 -9.749)"/>
      <path id="Path_610301" data-name="Path 610301" d="M107.888,51.786h3.387V72.109h-3.387Z" transform="translate(-23.211 -11.141)"/>
      <path id="Path_610302" data-name="Path 610302" d="M19.42,51.786h3.387V89.044H19.42Z" transform="translate(-4.178 -11.141)"/>
      <path id="Path_610303" data-name="Path 610303" d="M56.1,118.677h25.4v3.387H56.1Z" transform="translate(-12.07 -25.532)"/>
      <path id="Path_610304" data-name="Path 610304" d="M45.313,23.735H74.1v3.387H45.313Z" transform="translate(-9.749 -5.106)"/>
    </g>
  </g>
</svg>
