<svg xmlns="http://www.w3.org/2000/svg" width="505" height="1194.676" viewBox="0 0 505 1194.676">
  <g id="Group_1073121" data-name="Group 1073121" transform="translate(8548 9429.312)">
    <g id="Group_1073119" data-name="Group 1073119">
      <g id="Group_1073018" data-name="Group 1073018">
        <rect id="Rectangle_377542" data-name="Rectangle 377542" width="505" height="1194.676" transform="translate(-8548 -9429.312)" fill="#fff"/>
        <g id="Group_1072711" data-name="Group 1072711" transform="translate(338 2292.688)">
          <g id="Group_1072705" data-name="Group 1072705" transform="translate(-8751 -11704)">
            <rect id="Rectangle_347086" data-name="Rectangle 347086" width="235" height="37" rx="11" fill="#304c8e"/>
            <path id="Path_613434" data-name="Path 613434" d="M26.816,12.065a4.364,4.364,0,0,1-1.428,3.017,4.867,4.867,0,0,1-3.312,1.083,4.713,4.713,0,0,1-2.544-.685,4.5,4.5,0,0,1-1.7-1.947,7.024,7.024,0,0,1-.623-2.93V9.476a7.075,7.075,0,0,1,.606-3.013,4.567,4.567,0,0,1,1.739-2.009,4.851,4.851,0,0,1,2.619-.706A4.672,4.672,0,0,1,25.4,4.831,4.527,4.527,0,0,1,26.816,7.9H24.724a2.985,2.985,0,0,0-.76-1.88,2.51,2.51,0,0,0-1.789-.577,2.452,2.452,0,0,0-2.1,1A5,5,0,0,0,19.32,9.38v1.072a5.308,5.308,0,0,0,.7,2.991,2.328,2.328,0,0,0,2.054,1.03,2.715,2.715,0,0,0,1.859-.556,2.9,2.9,0,0,0,.789-1.851ZM33.863,16a3.113,3.113,0,0,1-.232-.838,3.393,3.393,0,0,1-4.565.232,2.47,2.47,0,0,1-.855-1.909,2.55,2.55,0,0,1,1.067-2.2,5.169,5.169,0,0,1,3.051-.768h1.237V9.924a1.573,1.573,0,0,0-.39-1.116,1.547,1.547,0,0,0-1.187-.419,1.777,1.777,0,0,0-1.129.344,1.066,1.066,0,0,0-.44.876H28.4a2.239,2.239,0,0,1,.49-1.382,3.263,3.263,0,0,1,1.332-1.009,4.68,4.68,0,0,1,1.88-.365,3.769,3.769,0,0,1,2.515.793,2.827,2.827,0,0,1,.963,2.229v4.051a4.591,4.591,0,0,0,.34,1.934V16Zm-2.216-1.453a2.294,2.294,0,0,0,1.125-.291,1.941,1.941,0,0,0,.793-.78V11.783H32.477a2.973,2.973,0,0,0-1.685.39,1.264,1.264,0,0,0-.564,1.1,1.179,1.179,0,0,0,.386.926A1.5,1.5,0,0,0,31.647,14.547Zm8.575-9.712V7.019h1.585V8.513H40.221v5.014a1.1,1.1,0,0,0,.2.743.943.943,0,0,0,.726.228,3.107,3.107,0,0,0,.706-.083v1.561a4.968,4.968,0,0,1-1.328.191q-2.324,0-2.324-2.565V8.513H36.727V7.019H38.2V4.835ZM47.3,16.166a4.173,4.173,0,0,1-3.109-1.208A4.381,4.381,0,0,1,43,11.742v-.249a5.389,5.389,0,0,1,.519-2.4,3.949,3.949,0,0,1,1.457-1.648,3.851,3.851,0,0,1,2.092-.589A3.525,3.525,0,0,1,49.9,8.023a4.949,4.949,0,0,1,1,3.312v.813H45.036a2.7,2.7,0,0,0,.743,1.76,2.23,2.23,0,0,0,1.639.647,2.731,2.731,0,0,0,2.258-1.121l1.087,1.038a3.631,3.631,0,0,1-1.44,1.249A4.509,4.509,0,0,1,47.3,16.166Zm-.241-7.695a1.7,1.7,0,0,0-1.341.581,3.012,3.012,0,0,0-.652,1.619h3.843v-.149a2.452,2.452,0,0,0-.54-1.531A1.686,1.686,0,0,0,47.061,8.471Zm5.055,2.972A5.253,5.253,0,0,1,53.1,8.1a3.157,3.157,0,0,1,2.611-1.249,2.958,2.958,0,0,1,2.416,1.071l.091-.9h1.818v8.708a3.619,3.619,0,0,1-1.1,2.789,4.189,4.189,0,0,1-2.968,1.021,4.783,4.783,0,0,1-1.93-.411,3.429,3.429,0,0,1-1.432-1.075l.955-1.212a2.883,2.883,0,0,0,2.291,1.1,2.228,2.228,0,0,0,1.585-.544,2.084,2.084,0,0,0,.581-1.6v-.606a2.97,2.97,0,0,1-2.324.971,3.15,3.15,0,0,1-2.577-1.253A5.423,5.423,0,0,1,52.116,11.443Zm2.009.174a3.616,3.616,0,0,0,.552,2.129,1.775,1.775,0,0,0,1.531.776,1.941,1.941,0,0,0,1.81-1.046V9.525A1.913,1.913,0,0,0,56.225,8.5a1.782,1.782,0,0,0-1.548.789A4.049,4.049,0,0,0,54.125,11.617Zm7.6-.191a5.3,5.3,0,0,1,.523-2.378,3.819,3.819,0,0,1,1.469-1.627A4.14,4.14,0,0,1,65.9,6.853a3.923,3.923,0,0,1,2.951,1.17,4.6,4.6,0,0,1,1.224,3.1l.008.473a5.343,5.343,0,0,1-.51,2.374,3.773,3.773,0,0,1-1.461,1.619,4.17,4.17,0,0,1-2.2.573A3.9,3.9,0,0,1,62.87,14.9a4.848,4.848,0,0,1-1.141-3.374Zm2.017.174a3.619,3.619,0,0,0,.573,2.171,1.862,1.862,0,0,0,1.594.784,1.842,1.842,0,0,0,1.59-.8,4,4,0,0,0,.569-2.333,3.572,3.572,0,0,0-.585-2.158,1.973,1.973,0,0,0-3.158-.012A3.922,3.922,0,0,0,63.746,11.6ZM76.488,8.861a4.991,4.991,0,0,0-.822-.066A1.85,1.85,0,0,0,73.8,9.857V16H71.781V7.019h1.926l.05,1a2.273,2.273,0,0,1,2.025-1.17,1.888,1.888,0,0,1,.714.116ZM79.932,16H77.915V7.019h2.017ZM79.551,3.308h2.3l-2.3,2.515-1.619,0ZM87.594,16a3.113,3.113,0,0,1-.232-.838,3.393,3.393,0,0,1-4.565.232,2.47,2.47,0,0,1-.855-1.909,2.55,2.55,0,0,1,1.067-2.2,5.169,5.169,0,0,1,3.051-.768H87.3V9.924a1.573,1.573,0,0,0-.39-1.116,1.547,1.547,0,0,0-1.187-.419,1.777,1.777,0,0,0-1.129.344,1.066,1.066,0,0,0-.44.876H82.132a2.239,2.239,0,0,1,.49-1.382,3.263,3.263,0,0,1,1.332-1.009,4.68,4.68,0,0,1,1.88-.365,3.769,3.769,0,0,1,2.515.793,2.827,2.827,0,0,1,.963,2.229v4.051a4.591,4.591,0,0,0,.34,1.934V16Zm-2.216-1.453a2.294,2.294,0,0,0,1.125-.291,1.941,1.941,0,0,0,.793-.78V11.783H86.208a2.973,2.973,0,0,0-1.685.39,1.264,1.264,0,0,0-.564,1.1,1.179,1.179,0,0,0,.386.926A1.5,1.5,0,0,0,85.378,14.547Zm11.082-.988a.914.914,0,0,0-.444-.822,4.723,4.723,0,0,0-1.473-.5,7.574,7.574,0,0,1-1.718-.548,2.293,2.293,0,0,1-1.511-2.117,2.391,2.391,0,0,1,.979-1.942,3.872,3.872,0,0,1,2.49-.78,4.029,4.029,0,0,1,2.6.8,2.529,2.529,0,0,1,.992,2.067H96.36a1.243,1.243,0,0,0-.432-.967,1.654,1.654,0,0,0-1.146-.386A1.787,1.787,0,0,0,93.7,8.67a.968.968,0,0,0-.419.822.818.818,0,0,0,.39.722,5.365,5.365,0,0,0,1.577.519,7.466,7.466,0,0,1,1.864.623,2.639,2.639,0,0,1,1,.867,2.212,2.212,0,0,1,.328,1.229,2.34,2.34,0,0,1-1,1.963,4.283,4.283,0,0,1-2.631.751,4.644,4.644,0,0,1-1.967-.4,3.238,3.238,0,0,1-1.345-1.1,2.594,2.594,0,0,1-.481-1.5h1.959a1.421,1.421,0,0,0,.54,1.1,2.1,2.1,0,0,0,1.32.386,2.04,2.04,0,0,0,1.212-.3A.938.938,0,0,0,96.459,13.56Zm7.6-2.117a5.34,5.34,0,0,1,.963-3.333A3.085,3.085,0,0,1,107.6,6.853a2.931,2.931,0,0,1,2.308,1V3.25h2.017V16H110.1l-.1-.93a2.973,2.973,0,0,1-2.416,1.1,3.068,3.068,0,0,1-2.552-1.27A5.535,5.535,0,0,1,104.054,11.443Zm2.017.174a3.739,3.739,0,0,0,.527,2.137,1.71,1.71,0,0,0,1.5.768,1.9,1.9,0,0,0,1.81-1.1V9.583A1.876,1.876,0,0,0,108.114,8.5a1.723,1.723,0,0,0-1.511.776A4.163,4.163,0,0,0,106.072,11.617Zm11.912,4.549a4.173,4.173,0,0,1-3.109-1.208,4.381,4.381,0,0,1-1.191-3.217v-.249a5.389,5.389,0,0,1,.519-2.4,3.949,3.949,0,0,1,1.457-1.648,3.851,3.851,0,0,1,2.092-.589,3.525,3.525,0,0,1,2.835,1.17,4.949,4.949,0,0,1,1,3.312v.813h-5.869a2.7,2.7,0,0,0,.743,1.76,2.23,2.23,0,0,0,1.639.647,2.731,2.731,0,0,0,2.258-1.121l1.087,1.038A3.631,3.631,0,0,1,120,15.722,4.509,4.509,0,0,1,117.983,16.166Zm-.241-7.695a1.7,1.7,0,0,0-1.341.581,3.012,3.012,0,0,0-.652,1.619h3.843v-.149a2.452,2.452,0,0,0-.54-1.531A1.686,1.686,0,0,0,117.742,8.471ZM132.75,16a3.113,3.113,0,0,1-.232-.838,3.393,3.393,0,0,1-4.565.232,2.47,2.47,0,0,1-.855-1.909,2.55,2.55,0,0,1,1.067-2.2,5.169,5.169,0,0,1,3.051-.768h1.237V9.924a1.573,1.573,0,0,0-.39-1.116,1.547,1.547,0,0,0-1.187-.419,1.777,1.777,0,0,0-1.129.344,1.066,1.066,0,0,0-.44.876h-2.017a2.239,2.239,0,0,1,.49-1.382,3.263,3.263,0,0,1,1.332-1.009,4.68,4.68,0,0,1,1.88-.365,3.769,3.769,0,0,1,2.515.793,2.827,2.827,0,0,1,.963,2.229v4.051a4.591,4.591,0,0,0,.34,1.934V16Zm-2.216-1.453a2.294,2.294,0,0,0,1.125-.291,1.941,1.941,0,0,0,.793-.78V11.783h-1.087a2.973,2.973,0,0,0-1.685.39,1.264,1.264,0,0,0-.564,1.1,1.179,1.179,0,0,0,.386.926A1.5,1.5,0,0,0,130.534,14.547Zm7.944-7.529.058.938a3.232,3.232,0,0,1,2.59-1.1,2.483,2.483,0,0,1,2.465,1.378,3.186,3.186,0,0,1,2.756-1.378,2.8,2.8,0,0,1,2.212.822A3.618,3.618,0,0,1,149.3,10.1V16h-2.017V10.156a1.786,1.786,0,0,0-.374-1.253,1.635,1.635,0,0,0-1.237-.4,1.679,1.679,0,0,0-1.125.369,1.948,1.948,0,0,0-.61.967L143.948,16h-2.017V10.09A1.439,1.439,0,0,0,140.312,8.5a1.776,1.776,0,0,0-1.718.988V16h-2.017V7.019Zm16.851,9.147a4.173,4.173,0,0,1-3.109-1.208,4.381,4.381,0,0,1-1.191-3.217v-.249a5.389,5.389,0,0,1,.519-2.4A3.949,3.949,0,0,1,153,7.442a3.851,3.851,0,0,1,2.092-.589,3.525,3.525,0,0,1,2.835,1.17,4.949,4.949,0,0,1,1,3.312v.813h-5.869a2.7,2.7,0,0,0,.743,1.76,2.23,2.23,0,0,0,1.639.647,2.731,2.731,0,0,0,2.258-1.121l1.087,1.038a3.631,3.631,0,0,1-1.44,1.249A4.509,4.509,0,0,1,155.328,16.166Zm-.241-7.695a1.7,1.7,0,0,0-1.341.581,3.012,3.012,0,0,0-.652,1.619h3.843v-.149a2.452,2.452,0,0,0-.54-1.531A1.686,1.686,0,0,0,155.088,8.471Zm7.28-1.453.058,1.038a3.229,3.229,0,0,1,2.615-1.2q2.806,0,2.855,3.212V16h-2.017V10.181a1.85,1.85,0,0,0-.369-1.266A1.554,1.554,0,0,0,164.3,8.5a1.944,1.944,0,0,0-1.818,1.1V16h-2.017V7.019ZM175.317,16a3.113,3.113,0,0,1-.232-.838,3.393,3.393,0,0,1-4.565.232,2.47,2.47,0,0,1-.855-1.909,2.55,2.55,0,0,1,1.067-2.2,5.169,5.169,0,0,1,3.051-.768h1.237V9.924a1.573,1.573,0,0,0-.39-1.116,1.547,1.547,0,0,0-1.187-.419,1.777,1.777,0,0,0-1.129.344,1.066,1.066,0,0,0-.44.876h-2.017a2.239,2.239,0,0,1,.49-1.382,3.263,3.263,0,0,1,1.332-1.009,4.68,4.68,0,0,1,1.88-.365,3.769,3.769,0,0,1,2.515.793,2.827,2.827,0,0,1,.963,2.229v4.051a4.591,4.591,0,0,0,.34,1.934V16ZM173.1,14.547a2.294,2.294,0,0,0,1.125-.291,1.941,1.941,0,0,0,.793-.78V11.783H173.93a2.973,2.973,0,0,0-1.685.39,1.264,1.264,0,0,0-.564,1.1,1.179,1.179,0,0,0,.386.926A1.5,1.5,0,0,0,173.1,14.547Zm8.2-.158h4.781V16h-7.288V14.68l4.557-6.035h-4.474V7.019h7.031V8.3ZM193.064,16a3.113,3.113,0,0,1-.232-.838,3.393,3.393,0,0,1-4.565.232,2.47,2.47,0,0,1-.855-1.909,2.55,2.55,0,0,1,1.067-2.2,5.169,5.169,0,0,1,3.051-.768h1.237V9.924a1.573,1.573,0,0,0-.39-1.116,1.547,1.547,0,0,0-1.187-.419,1.777,1.777,0,0,0-1.129.344,1.066,1.066,0,0,0-.44.876H187.6a2.239,2.239,0,0,1,.49-1.382,3.263,3.263,0,0,1,1.332-1.009,4.68,4.68,0,0,1,1.88-.365,3.769,3.769,0,0,1,2.515.793,2.827,2.827,0,0,1,.963,2.229v4.051a4.591,4.591,0,0,0,.34,1.934V16Zm-2.216-1.453a2.294,2.294,0,0,0,1.125-.291,1.941,1.941,0,0,0,.793-.78V11.783h-1.087a2.973,2.973,0,0,0-1.685.39,1.264,1.264,0,0,0-.564,1.1,1.179,1.179,0,0,0,.386.926A1.5,1.5,0,0,0,190.847,14.547Zm11.082-.988a.914.914,0,0,0-.444-.822,4.723,4.723,0,0,0-1.473-.5,7.574,7.574,0,0,1-1.718-.548,2.293,2.293,0,0,1-1.511-2.117,2.391,2.391,0,0,1,.979-1.942,3.872,3.872,0,0,1,2.49-.78,4.029,4.029,0,0,1,2.6.8,2.529,2.529,0,0,1,.992,2.067h-2.017a1.243,1.243,0,0,0-.432-.967,1.654,1.654,0,0,0-1.146-.386,1.787,1.787,0,0,0-1.083.307.968.968,0,0,0-.419.822.818.818,0,0,0,.39.722,5.365,5.365,0,0,0,1.577.519,7.466,7.466,0,0,1,1.864.623,2.639,2.639,0,0,1,1,.867,2.212,2.212,0,0,1,.328,1.229,2.34,2.34,0,0,1-1,1.963,4.283,4.283,0,0,1-2.631.751,4.644,4.644,0,0,1-1.967-.4,3.238,3.238,0,0,1-1.345-1.1,2.594,2.594,0,0,1-.481-1.5h1.959a1.421,1.421,0,0,0,.54,1.1,2.1,2.1,0,0,0,1.32.386,2.04,2.04,0,0,0,1.212-.3A.938.938,0,0,0,201.929,13.56Z" transform="translate(7 9)" fill="#fff"/>
          </g>
          <rect id="Rectangle_347087" data-name="Rectangle 347087" width="55" height="4" transform="translate(-8660 -11667)" fill="#304c8e"/>
        </g>
        <path id="Path_612676" data-name="Path 612676" d="M0,0H451.16V207.2H0Z" transform="translate(-8521 -9350.049)" fill="#e1f5d6" opacity="0.93"/>
        <path id="Path_612684" data-name="Path 612684" d="M0,0H451.16V207.2H0Z" transform="translate(-8521 -8918.049)" fill="#e1f5d6" opacity="0.93"/>
        <path id="Path_612687" data-name="Path 612687" d="M0,0H451.16V207.2H0Z" transform="translate(-8521 -9134.049)" fill="#fdfde3" opacity="0.93"/>
        <path id="Path_612685" data-name="Path 612685" d="M0,0H451.16V225.4H0Z" transform="translate(-8521 -8702.049)" fill="#fdfde3" opacity="0.93"/>
        <path id="Path_612686" data-name="Path 612686" d="M0,0H451.16V207.2H0Z" transform="translate(-8521 -8466.049)" fill="#e1f5d6" opacity="0.93"/>
        <text id="De_origen_natural_Comprende_todas_las_amenazas_que_son_causadas_a_partir_de_eventos_generados_por_la_naturaleza_y_causados_de_forma_natural_por_ejemplo:_sismos_huracanes_inundaciones_tormentas_entre_otros." data-name="De origen natural 

Comprende todas las amenazas que son causadas a partir de eventos generados por la naturaleza y causados de forma natural, por ejemplo: sismos, huracanes, inundaciones, tormentas, entre otros." transform="translate(-8496.76 -9329.812)" fill="#12263f" font-size="16" font-family="Roboto-Bold, Roboto" font-weight="700"><tspan x="0" y="15">De origen natural </tspan><tspan font-family="Roboto-Regular, Roboto" font-weight="400"><tspan x="0" y="39"></tspan><tspan x="0" y="63">Comprende todas las amenazas que son </tspan><tspan x="0" y="87">causadas a partir de eventos generados </tspan><tspan x="0" y="111">por la naturaleza y causados de forma </tspan><tspan x="0" y="135">natural, por ejemplo: sismos, huracanes, </tspan><tspan x="0" y="159">inundaciones, tormentas, entre otros.</tspan></tspan></text>
        <text id="Defectos_de_aplicaciones_Son_aquellas_amenazas_generadas_a_partir_de_la_debilidad_o_errores_en_programas_por_ejemplo:_bugs_desactualización_malas_prácticas_entre_otros." data-name="Defectos de aplicaciones 

Son aquellas amenazas generadas a partir de la debilidad o errores en programas, por ejemplo: bugs, desactualización, malas prácticas, entre otros." transform="translate(-8496.76 -8897.812)" fill="#12263f" font-size="16" font-family="Roboto-Bold, Roboto" font-weight="700"><tspan x="0" y="15">Defectos de aplicaciones </tspan><tspan font-family="Roboto-Regular, Roboto" font-weight="400"><tspan x="0" y="39"></tspan><tspan x="0" y="63">Son aquellas amenazas generadas a </tspan><tspan x="0" y="87">partir de la debilidad o errores en </tspan><tspan x="0" y="111">programas, por ejemplo: bugs, </tspan><tspan x="0" y="135">desactualización, malas prácticas, entre </tspan><tspan x="0" y="159">otros.</tspan></tspan></text>
        <text id="Del_entorno_Son_amenazas_generadas_a_partir_de_desastres_industriales_como_por_ejemplo_sobrecarga_eléctrica_infección_contaminación." data-name="Del entorno

Son amenazas generadas a partir de desastres industriales, como por ejemplo sobrecarga eléctrica, infección, contaminación." transform="translate(-8496.76 -9113.812)" fill="#12263f" font-size="16" font-family="Roboto-Bold, Roboto" font-weight="700"><tspan x="0" y="15">Del entorno</tspan><tspan font-family="Roboto-Regular, Roboto" font-weight="400"><tspan x="0" y="39"></tspan><tspan x="0" y="63">Son amenazas generadas a partir de </tspan><tspan x="0" y="87">desastres industriales, como por ejemplo </tspan><tspan x="0" y="111">sobrecarga eléctrica, infección, </tspan><tspan x="0" y="135">contaminación.</tspan></tspan></text>
        <text id="Causadas_por_personas_de_forma_accidental_Como_su_nombre_lo_indica_son_causadas_por_las_personas_pero_que_no_tenían_la_intención_de_generar_daño_y_se_entiende_que_fue_causada_por_desconocimiento_o_error." data-name="Causadas por personas de forma accidental 

Como su nombre lo indica, son causadas por las personas, pero que no tenían la intención de generar daño, y se entiende que fue causada por desconocimiento o error." transform="translate(-8496.76 -8681.812)" fill="#12263f" font-size="16" font-family="Roboto-Bold, Roboto" font-weight="700"><tspan x="0" y="15">Causadas por personas de forma </tspan><tspan x="0" y="39">accidental </tspan><tspan font-family="Roboto-Regular, Roboto" font-weight="400"><tspan x="0" y="63"></tspan><tspan x="0" y="87">Como su nombre lo indica, son causadas </tspan><tspan x="0" y="111">por las personas, pero que no tenían la </tspan><tspan x="0" y="135">intención de generar daño, y se entiende </tspan><tspan x="0" y="159">que fue causada por desconocimiento o </tspan><tspan x="0" y="183">error.</tspan></tspan></text>
        <text id="Causadas_por_personas_de_forma_deliberada_A_diferencia_de_la_anterior_estas_amenazas_son_causadas_con_intención_o_para_obtener_un_beneficio_bien_sea_causando_daños_o_no." data-name="Causadas por personas de forma deliberada 

A diferencia de la anterior, estas amenazas son causadas con intención o para obtener un beneficio, bien sea causando daños o no." transform="translate(-8496.76 -8445.812)" fill="#12263f" font-size="16" font-family="Roboto-Bold, Roboto" font-weight="700"><tspan x="0" y="15">Causadas por personas de forma </tspan><tspan x="0" y="39">deliberada </tspan><tspan font-family="Roboto-Regular, Roboto" font-weight="400"><tspan x="0" y="63"></tspan><tspan x="0" y="87">A diferencia de la anterior, estas </tspan><tspan x="0" y="111">amenazas son causadas con intención o </tspan><tspan x="0" y="135">para obtener un beneficio, bien sea </tspan><tspan x="0" y="159">causando daños o no.</tspan></tspan></text>
        <g id="Group_1072756" data-name="Group 1072756" transform="translate(646.24 1670.977)">
          <g id="Group_1071717" data-name="Group 1071717" transform="translate(-9909 -12924.158)">
            <circle id="Ellipse_5853" data-name="Ellipse 5853" cx="52.5" cy="52.5" r="52.5" transform="translate(1075 2861.133)" fill="#fff"/>
            <g id="wrestling" transform="translate(1089.264 2875.703)">
              <path id="Path_610463" data-name="Path 610463" d="M47.245,42.043l6.729,5.031a3.262,3.262,0,0,0,3.649.079l7.153-4.6a3.206,3.206,0,0,0,.955-4.454,3.258,3.258,0,0,0-4.487-.948l-5.3,3.409-5.506-5.365Z" transform="translate(-21.701 -20.506)" fill="#f3c9a6"/>
              <path id="Path_610464" data-name="Path 610464" d="M40.6,37.407l-4.3-4.192a9.34,9.34,0,0,0-5.66-2.607,12.21,12.21,0,0,0-12.759,8.377L15.01,47.9a19.085,19.085,0,0,0-.916,5.483H28.383l4.728-13.321,3.57,2.669Z" transform="translate(-7.566 -18.529)" fill="#ffe126"/>
              <path id="Path_610465" data-name="Path 610465" d="M83.785,47.247,86.554,40.5l-2.6,6.4a3.246,3.246,0,0,1-3.034,2.014l-9.134-.076a3.22,3.22,0,1,1,.054-6.44l6.927.057L80.5,35.565a7.743,7.743,0,0,1,14.781-.684L99.666,47.22A19.444,19.444,0,0,1,100.059,59L97.186,69.2l8.969,8.15a3.821,3.821,0,0,1,.242,5.427,3.888,3.888,0,0,1-5.466.24l-10.348-9.4a3.827,3.827,0,0,1-1.247-3.106l.209-9.519-7.084,6.732,1.743,14.1a3.866,3.866,0,0,1-4.085,4.524,3.86,3.86,0,0,1-3.543-3.227L74.259,68.706a8.484,8.484,0,0,1,3.186-8.049l9.8-7.609" transform="translate(-30.79 -18.19)" fill="#ffd0c7"/>
              <path id="Path_610466" data-name="Path 610466" d="M81.6,77.965a8.484,8.484,0,0,0-3.186,8.049l2.316,14.408a3.87,3.87,0,0,0,4.488,3.179,3.9,3.9,0,0,0,3.14-4.475l-1.743-14.1L93.7,78.3l-.209,9.519a3.827,3.827,0,0,0,1.247,3.106l10.348,9.4a3.888,3.888,0,0,0,5.466-.24,3.821,3.821,0,0,0-.242-5.427l-8.969-8.151,2.873-10.2a19.471,19.471,0,0,0,.716-5.951H91.4Z" transform="translate(-34.943 -35.498)" fill="#304c8e"/>
              <path id="Path_610467" data-name="Path 610467" d="M103.236,34.882a7.743,7.743,0,0,0-14.781.684l-1.241,4.911,6.022,2.533-.524,1.97,1.834,8.069h14.18a19.45,19.45,0,0,0-1.109-5.828Z" transform="translate(-38.742 -18.19)" fill="#60cb28"/>
              <path id="Path_610468" data-name="Path 610468" d="M9.242,70.356A19.082,19.082,0,0,0,9.953,75.9l2.988,10.608-8.969,8.15a3.822,3.822,0,0,0-.242,5.427,3.889,3.889,0,0,0,5.467.24l10.348-9.4a3.826,3.826,0,0,0,1.247-3.106L20.583,78.3,28.3,84.331,25.924,99.125a3.868,3.868,0,0,0,4.085,4.524,3.861,3.861,0,0,0,3.543-3.227l2.667-16.59a5.17,5.17,0,0,0-1.649-4.663L23.958,70.356H9.242Z" transform="translate(-2.715 -35.498)" fill="#304c8e"/>
              <path id="Path_610469" data-name="Path 610469" d="M23.531,53.387l4.728-13.321L34.988,45.1a3.262,3.262,0,0,0,3.649.079l7.153-4.6a3.206,3.206,0,0,0,.955-4.454,3.258,3.258,0,0,0-4.487-.948l-5.3,3.409-5.506-5.365a9.34,9.34,0,0,0-5.66-2.607,12.21,12.21,0,0,0-12.759,8.377L10.158,47.9a19.08,19.08,0,0,0-.205,11.026l2.988,10.609-8.969,8.15a3.822,3.822,0,0,0-.242,5.427,3.889,3.889,0,0,0,5.467.24l10.348-9.4a3.826,3.826,0,0,0,1.247-3.106l-.209-9.519L28.3,67.361,25.924,82.156a3.868,3.868,0,0,0,4.085,4.524,3.86,3.86,0,0,0,3.543-3.227l2.667-16.59A5.17,5.17,0,0,0,34.569,62.2L23.958,53.387" transform="translate(-2.715 -18.529)" fill="none" stroke="#000" stroke-linecap="round" stroke-linejoin="round" stroke-miterlimit="10" stroke-width="2"/>
              <path id="Path_610470" data-name="Path 610470" d="M29.35,70.356H15.363" transform="translate(-8.107 -35.498)" fill="none" stroke="#000" stroke-linecap="round" stroke-linejoin="round" stroke-miterlimit="10" stroke-width="2"/>
              <path id="Path_610471" data-name="Path 610471" d="M43.487,21.973a6.192,6.192,0,1,0-6.237-6.192A6.214,6.214,0,0,0,43.487,21.973Z" transform="translate(-17.439 -9.59)" fill="#f3c9a6"/>
              <path id="Path_610472" data-name="Path 610472" d="M43.487,21.973a6.192,6.192,0,1,0-6.237-6.192A6.214,6.214,0,0,0,43.487,21.973Z" transform="translate(-17.439 -9.59)" fill="none" stroke="#000" stroke-linecap="round" stroke-linejoin="round" stroke-miterlimit="10" stroke-width="2"/>
              <path id="Path_610473" data-name="Path 610473" d="M53.8,47.886l3.649-4.947" transform="translate(-24.496 -23.809)" fill="none" stroke="#000" stroke-linecap="round" stroke-linejoin="round" stroke-miterlimit="10" stroke-width="2"/>
              <path id="Path_610474" data-name="Path 610474" d="M103.512,58.691l.306.863a19.439,19.439,0,0,1,.393,11.779l-2.873,10.2,8.969,8.15a3.822,3.822,0,0,1,.242,5.427,3.889,3.889,0,0,1-5.467.24l-10.348-9.4a3.825,3.825,0,0,1-1.247-3.106l.208-9.519-7.084,6.732,1.743,14.1a3.868,3.868,0,0,1-4.085,4.524,3.86,3.86,0,0,1-3.543-3.227L78.411,81.04A8.484,8.484,0,0,1,81.6,72.992l9.8-7.609" transform="translate(-34.943 -30.525)" fill="none" stroke="#000" stroke-linecap="round" stroke-linejoin="round" stroke-miterlimit="10" stroke-width="2"/>
              <path id="Path_610475" data-name="Path 610475" d="M83.785,47.247,86.554,40.5l-2.6,6.4a3.246,3.246,0,0,1-3.034,2.014l-9.134-.076a3.22,3.22,0,1,1,.054-6.44l6.927.057L80.5,35.565a7.748,7.748,0,0,1,13.961-2.333" transform="translate(-30.79 -18.19)" fill="none" stroke="#000" stroke-linecap="round" stroke-linejoin="round" stroke-miterlimit="10" stroke-width="2"/>
              <path id="Path_610476" data-name="Path 610476" d="M101.127,70.356H114.04" transform="translate(-44.674 -35.498)" fill="none" stroke="#000" stroke-linecap="round" stroke-linejoin="round" stroke-miterlimit="10" stroke-width="2"/>
              <path id="Path_610477" data-name="Path 610477" d="M96.8,56.29l1.834,8.069" transform="translate(-42.829 -29.501)" fill="none" stroke="#000" stroke-linecap="round" stroke-linejoin="round" stroke-miterlimit="10" stroke-width="2"/>
              <path id="Path_610478" data-name="Path 610478" d="M77.891,29.856a6.192,6.192,0,1,0-6.237-6.192A6.214,6.214,0,0,0,77.891,29.856Z" transform="translate(-32.108 -12.951)" fill="#ffd0c7"/>
              <path id="Path_610479" data-name="Path 610479" d="M77.891,29.856a6.192,6.192,0,1,0-6.237-6.192A6.214,6.214,0,0,0,77.891,29.856Z" transform="translate(-32.108 -12.951)" fill="none" stroke="#000" stroke-linecap="round" stroke-linejoin="round" stroke-miterlimit="10" stroke-width="2"/>
              <path id="Path_610480" data-name="Path 610480" d="M93.514,51.089l-5.648-2.375" transform="translate(-39.02 -26.271)" fill="none" stroke="#000" stroke-linecap="round" stroke-linejoin="round" stroke-miterlimit="10" stroke-width="2"/>
              <ellipse id="Ellipse_5852" data-name="Ellipse 5852" cx="1.557" cy="1.546" rx="1.557" ry="1.546" transform="translate(64.682 20.057)" fill="#304c8e"/>
            </g>
          </g>
        </g>
        <g id="Group_1071727" data-name="Group 1071727" transform="translate(-8492.76 -11833.049)">
          <g id="Group_1071719" data-name="Group 1071719" transform="translate(-770 -304.133)">
            <circle id="Ellipse_5853-2" data-name="Ellipse 5853" cx="52.5" cy="52.5" r="52.5" transform="translate(1075 2861.133)" fill="#fff"/>
          </g>
          <g id="disaster" transform="translate(322.544 2574.043)">
            <path id="Path_610428" data-name="Path 610428" d="M67.506,108.317H4.313V86.2l5.266,4.213L20.111,86.2l3.16,4.213-2.106,3.16,6.319,4.213-2.106,2.106L35.909,104.1,31.7,96.732,33.8,93.573l-5.266-3.16,3.16-6.319,18.958,6.319L49.6,97.785l3.16,6.319,2.106-4.213h3.16l-3.16-5.266v-3.16l12.639-6.319Z" transform="translate(-1.103 -41.474)" fill="#dfb28b"/>
            <path id="Path_610429" data-name="Path 610429" d="M23.3,49.139h-.011c-.327-.084-.516-.126-.516-.126s-9.479-3.16-7.373-14.745S28.038,23.735,31.2,23.735s8.426,1.053,8.426,3.16-9.479,1.053-8.426,4.213,13.692-1.053,14.745,3.16-11.585,2.106-11.585,5.266,7.373,1.053,6.319,4.213-9.479,0-10.532,2.106,3.16,3.16,2.106,4.213C31.356,50.961,25.152,49.581,23.3,49.139Z" transform="translate(-6.618 -10.585)" fill="#60cb28"/>
            <path id="Path_610430" data-name="Path 610430" d="M101.938,71.3a4.5,4.5,0,0,1-2.1,4.023c-6.32,3.16-14.745,0-14.745,0A7.9,7.9,0,0,1,81.938,69s1.053,4.213,11.585,4.213C99.537,73.212,101.433,72.18,101.938,71.3Z" transform="translate(-40.812 -33.753)" fill="#ccd1d9"/>
            <path id="Path_610431" data-name="Path 610431" d="M101.949,67.759a1.194,1.194,0,0,1-.01,1.243c-.506.885-2.4,1.917-8.416,1.917-10.532,0-11.585-4.213-11.585-4.213V64.6l.053-.084A12.467,12.467,0,0,0,85.1,65.652c5.024,1.253,11.923,1.39,16,.4Z" transform="translate(-40.812 -31.458)" fill="#ccd1d9"/>
            <path id="Path_610432" data-name="Path 610432" d="M99.819,60.625c-4.076.99-10.975.853-16-.4a12.471,12.471,0,0,1-3.107-1.138c-3.36-1.948,1-4.129,1-4.129l3.044-.506,3.276-.548a46.306,46.306,0,0,1,9.479,1.053l5.266,2.106C104.053,58.761,102.578,59.951,99.819,60.625Z" transform="translate(-39.535 -26.031)" fill="#e2e7fe"/>
            <path id="Path_610433" data-name="Path 610433" d="M52.711,58.826v4.1l2.353,3.921h-1.95l-1.456,2.911-2.071-4.142L50.718,57.7,30.06,50.815l-4,8.009,5.156,3.093L29.357,64.7l3.037,5.316-6.246-2.5,1.886-1.885L21.523,61.29l1.936-2.9-4.091-5.455-2.932,1.173,1.042-4.79a31.843,31.843,0,0,0,6.553.979,3.419,3.419,0,0,0,2.348-.58,1.52,1.52,0,0,0,.477-1.178c-.042-.815-.708-1.359-1.352-1.884-1.068-.871-1.18-1.133-1.053-1.4.363-.341,2.377-.22,3.58-.146,2.9.176,6.193.377,7.028-2.125A2.281,2.281,0,0,0,34.918,41c-.652-1.068-2.114-1.292-3.528-1.509-1.759-.271-2.6-.5-2.6-1.06.265-.555,3.049-.908,4.545-1.1,2.88-.364,5.6-.709,6.67-2.275a2.589,2.589,0,0,0,.341-2.146c-.772-3.088-5.23-2.9-9.165-2.743-1.875.077-5.365.221-5.6-.495a.373.373,0,0,1-.027-.141c.191-.513,2.714-.938,3.792-1.12,2.425-.409,4.715-.8,4.715-2.618,0-3.439-7.02-4.213-9.479-4.213-.209,0-.451,0-.72-.011C20.035,21.5,9.87,21.3,7.746,32.982c-2,10.979,5.862,15,7.7,15.783l-1.366,6.285L8.655,57.217l-6.5-5.2V77.381h65.3V51.453ZM9.817,33.36c1.8-9.917,10.044-9.761,14-9.677.285.005.541.011.761.011,3.572,0,6.939,1.16,7.334,1.957a13.528,13.528,0,0,1-2.921.69c-2.277.383-4.427.746-5.244,2.105a2.21,2.21,0,0,0-.17,1.9c.74,2.219,3.958,2.086,7.687,1.933,2.819-.114,6.68-.275,7.036,1.149.072.288,0,.391-.036.446-.536.785-3.229,1.125-5.2,1.374-3.284.416-6.386.808-6.386,3.19,0,2.463,2.638,2.869,4.384,3.138a6.641,6.641,0,0,1,2.038.5.627.627,0,0,1-.048.247c-.323.968-2.969.807-4.9.689-2.57-.157-4.787-.292-5.574,1.28-.933,1.867.6,3.2,1.508,3.935a39.281,39.281,0,0,1-6.167-.971l.681-3.133,6.5-3.712-1.045-1.828-4.848,2.77,2.187-10.058-2.058-.448-1.6,7.363L14.869,34.62l-1.645,1.315,3.936,4.92-.413,1.9-.063.037.04.071-.829,3.815C13.966,45.791,8.183,42.347,9.817,33.36ZM65.349,75.275H4.263V56.4L8.3,59.63,18.65,55.488l2.229,2.971L18.6,61.875l6.127,4.084L22.4,68.287,37.22,74.215l-5.388-9.43,2.358-3.537-5.377-3.226,2.315-4.63,17.258,5.752-.975,6.828,4.247,8.5,2.757-5.515h4.369l-3.966-6.611V60.128l10.532-5.266Z" transform="translate(0 -9.485)"/>
            <path id="Path_610434" data-name="Path 610434" d="M4.744,4.282,6.429,3.018l6.319,8.426-1.685,1.264Z" transform="translate(-1.324)"/>
            <path id="Path_610435" data-name="Path 610435" d="M88.838,28l1.685-1.264,6.319,8.426-1.685,1.264Z" transform="translate(-44.342 -12.133)"/>
            <path id="Path_610436" data-name="Path 610436" d="M6.967,71.124l1.645-1.317,4.215,5.267-1.645,1.317Z" transform="translate(-2.461 -34.166)"/>
            <path id="Path_610437" data-name="Path 610437" d="M97.521,19.344l1.645-1.317,4.215,5.267-1.645,1.317Z" transform="translate(-48.784 -7.678)"/>
            <path id="Path_610438" data-name="Path 610438" d="M2.588,28l1.685-1.264,3.16,4.213L5.747,32.214Z" transform="translate(-0.221 -12.133)"/>
            <path id="Path_610439" data-name="Path 610439" d="M116.869,45.251l1.685-1.264,3.16,4.213-1.685,1.264Z" transform="translate(-58.681 -20.958)"/>
            <path id="Path_610440" data-name="Path 610440" d="M84.527,49.583l1.685-1.264,3.16,4.213L87.687,53.8Z" transform="translate(-42.137 -23.174)"/>
            <path id="Path_610441" data-name="Path 610441" d="M75.9,12.907l1.685-1.264,3.16,4.213L79.06,17.12Z" transform="translate(-37.724 -4.412)"/>
            <path id="Path_610442" data-name="Path 610442" d="M20.4,113.075l2.964-.988-.666-2-2.81.937-.166-.664-4.646-2.323-.942,1.885,3.78,1.89,1.034,4.138,3.5,2.332,1.169-1.753-2.822-1.881Z" transform="translate(-6.125 -53.723)"/>
            <path id="Path_610443" data-name="Path 610443" d="M101.024,58.521c-1.223,1.84-10.942,2.577-18.055.8-3.447-.862-3.582-1.715-3.583-1.724-.039-.345.8-1.128,1.694-1.58l-.472-.941-.471-.943c-.514.257-3.069,1.644-2.844,3.692.228,2.071,3.056,3.011,5.165,3.538a42.428,42.428,0,0,0,9.753,1.1c4.8,0,9.261-.808,10.567-2.773a2.557,2.557,0,0,0-.263-3.136l-1.685,1.264C101.181,58.282,101.075,58.443,101.024,58.521Z" transform="translate(-38.429 -26.147)"/>
            <path id="Path_610444" data-name="Path 610444" d="M101.832,71.448a2.249,2.249,0,0,0-.077-2.28L100,70.336a.238.238,0,0,1-.027.118c-.077.144-.941,1.4-7.522,1.4-9.361,0-10.561-3.411-10.572-3.446l-2.035.542c.127.512,1.571,5.01,12.607,5.01C97.933,73.966,100.913,73.166,101.832,71.448Z" transform="translate(-39.742 -33.453)"/>
            <path id="Path_610445" data-name="Path 610445" d="M102.293,79.961c-5.824,2.912-13.825-.015-13.9-.044l-.739,1.973a26.6,26.6,0,0,0,8.466,1.477,15.907,15.907,0,0,0,7.12-1.521Z" transform="translate(-43.734 -39.337)"/>
            <path id="Path_610446" data-name="Path 610446" d="M99.176,87.645l-.413,2.065a16.85,16.85,0,0,0,3.085.292c1.789,0,3.929-.322,5.239-1.634L105.6,86.879C104.211,88.269,100.4,87.888,99.176,87.645Z" transform="translate(-49.419 -42.899)"/>
            <path id="Path_610447" data-name="Path 610447" d="M106.766,52.835a46.869,46.869,0,0,0-9.735-1.085v2.106a45.441,45.441,0,0,1,9.223,1.022Z" transform="translate(-48.533 -24.929)"/>
          </g>
        </g>
        <g id="Group_1072757" data-name="Group 1072757" transform="translate(646.24 1232.977)">
          <g id="Group_1071716" data-name="Group 1071716" transform="translate(-9909 -12722.158)">
            <circle id="Ellipse_5853-3" data-name="Ellipse 5853" cx="52.5" cy="52.5" r="52.5" transform="translate(1075 2861.133)" fill="#fff"/>
          </g>
          <g id="Group" transform="translate(-8814 -9841.536)">
            <path id="Path_610376" data-name="Path 610376" d="M56.929,88.981a2.516,2.516,0,0,0-2.524-2.14H32.767a6.562,6.562,0,0,0-6.237,4.522l-4.076,12.464-6.008,2.955-8.881-3.809A3.281,3.281,0,0,0,4.979,109l10.268,4.4a3.282,3.282,0,0,0,2.741-.071l9.844-4.842.524,6.971L17.538,129.546a3.281,3.281,0,0,0,5.2,4L34.324,118.47a3.279,3.279,0,0,0,.67-2.245l-.521-6.927L40.21,91.762H54.489A2.462,2.462,0,0,0,56.929,88.981Z" transform="translate(-2.23 -64.738)" fill="#60cb28"/>
            <path id="Path_610377" data-name="Path 610377" d="M69.35,153a.7.7,0,0,1-.129-.985l.514-.669a.7.7,0,1,1,1.114.856l-.514.669A.7.7,0,0,1,69.35,153Zm2.226-2.9a.7.7,0,0,1-.129-.985l9.3-12.107-.557-7.393a.7.7,0,0,1,.033-.271l4.7-14.372a.7.7,0,0,1,1.335.437L81.6,129.654,82.156,137a1.178,1.178,0,0,1-.24.8L72.56,149.977A.7.7,0,0,1,71.575,150.106Z" transform="translate(-51.494 -85.352)" fill="#c4e4fd"/>
            <path id="Path_610378" data-name="Path 610378" d="M200.983,11.119l-6.5,13.461a.427.427,0,0,1-.57.2l-16.026-7.744a.427.427,0,0,1-.2-.57L184.188,3a.427.427,0,0,1,.571-.2l16.026,7.744A.427.427,0,0,1,200.983,11.119Z" transform="translate(-132.428 -2.059)" fill="#ffe126"/>
            <path id="Path_610379" data-name="Path 610379" d="M201.194,46.968l-8.446-4.081a.7.7,0,1,1,.612-1.265l7.813,3.776,4.125-8.537a.7.7,0,0,1,1.265.611l-4.431,9.17A.7.7,0,0,1,201.194,46.968Zm-10.976-5.3-.759-.367a.7.7,0,1,1,.612-1.265l.759.367a.7.7,0,1,1-.612,1.265Z" transform="translate(-140.942 -27.183)" fill="#f7e4b0"/>
            <path id="Path_610380" data-name="Path 610380" d="M225.357,15.809,223.044,20.6a.427.427,0,0,1-.773-.009L221.3,18.45a.427.427,0,0,0-.492-.238l-2.276.568a.427.427,0,0,1-.488-.6l2.313-4.786Z" transform="translate(-162.516 -9.985)" fill="#304c8e"/>
            <path id="Path_610381" data-name="Path 610381" d="M196.859,116.152l4.919,14.117a.427.427,0,0,1-.263.544l-16.808,5.856a.427.427,0,0,1-.544-.263l-4.919-14.118a.427.427,0,0,1,.263-.544l16.808-5.856A.427.427,0,0,1,196.859,116.152Z" transform="translate(-133.605 -86.375)" fill="#ffe126"/>
            <path id="Path_610382" data-name="Path 610382" d="M203.264,141.541a.7.7,0,0,1,.432-.894l.8-.277a.7.7,0,0,1,.462,1.327l-.8.277A.7.7,0,0,1,203.264,141.541Zm3.45-1.2a.7.7,0,0,1,.432-.894l8.195-2.855-3.12-8.954a.7.7,0,0,1,1.327-.462l3.351,9.617a.7.7,0,0,1-.432.895l-8.858,3.086A.7.7,0,0,1,206.713,140.339Z" transform="translate(-151.5 -94.454)" fill="#f7e4b0"/>
            <path id="Path_610383" data-name="Path 610383" d="M208.3,123.877l1.749,5.02a.427.427,0,0,1-.554.54l-2.2-.825s-.41,0-.516.18l-1.208,2.011a.427.427,0,0,1-.77-.079l-1.749-5.02Z" transform="translate(-151.374 -92.348)" fill="#304c8e"/>
            <path id="Path_610384" data-name="Path 610384" d="M127.848,48.138a4.84,4.84,0,1,0-4.84-4.84A4.84,4.84,0,0,0,127.848,48.138Z" transform="translate(-91.7 -28.67)" fill="#ffb69f"/>
            <path id="Path_610385" data-name="Path 610385" d="M12.021,3.493,14.694,6.3l3.876-.1-.1,3.876,2.808,2.673-2.808,2.673,4.365,8.146-8.145-4.365-2.673,2.808L9.348,19.208l-3.876.1.1-3.876L2.759,12.755l2.808-2.673-.1-3.876,3.876.1Z" transform="translate(-2.057 -2.604)" fill="#ffe126"/>
            <path id="Path_610386" data-name="Path 610386" d="M199.031,7.857,183.005.112h0A1.131,1.131,0,0,0,181.5.638l-2.262,4.687a.7.7,0,0,0,.326.939.721.721,0,0,0,.938-.329L182.643,1.5l4.631,2.237-2.007,4.154a1.13,1.13,0,0,0,1.291,1.588l2.053-.513.875,1.927a1.13,1.13,0,0,0,2.046.025l2.008-4.155L198.174,9l-6.266,12.966-15.531-7.5L178.051,11a.7.7,0,0,0-.326-.939.718.718,0,0,0-.938.329L174.994,14.1a1.132,1.132,0,0,0,.523,1.509l16.028,7.744a1.132,1.132,0,0,0,1.509-.525l6.5-13.46A1.13,1.13,0,0,0,199.031,7.857Zm-8.509,1.919-.726-1.6a1.129,1.129,0,0,0-1.3-.629l-1.706.426,1.751-3.624,3.735,1.8Z" transform="translate(-130.37 0)"/>
            <path id="Path_610387" data-name="Path 610387" d="M187.3,30.647a.7.7,0,1,0,.61-1.265.718.718,0,0,0-.939.326A.706.706,0,0,0,187.3,30.647Z" transform="translate(-139.33 -21.854)"/>
            <path id="Path_610388" data-name="Path 610388" d="M200.381,127.975l-4.918-14.117a1.131,1.131,0,0,0-1.442-.694l-16.807,5.856a1.129,1.129,0,0,0-.694,1.439l1.711,4.915a.715.715,0,0,0,.9.43.705.705,0,0,0,.433-.894l-1.624-4.653,4.858-1.693,1.518,4.356a1.13,1.13,0,0,0,2.035.21l1.09-1.815,1.981.745a1.13,1.13,0,0,0,1.464-1.429l-1.518-4.357,4.862-1.694,4.738,13.6-16.29,5.676-1.267-3.636a.712.712,0,0,0-.894-.433.7.7,0,0,0-.433.894l1.357,3.9a1.138,1.138,0,0,0,1.439.694l16.81-5.856A1.13,1.13,0,0,0,200.381,127.975Zm-12.664-8.056a1.13,1.13,0,0,0-1.365.476l-.905,1.508-1.324-3.8,3.917-1.364,1.324,3.8Z" transform="translate(-131.545 -84.313)"/>
            <path id="Path_610389" data-name="Path 610389" d="M187.846,169.448a.7.7,0,0,0,.43-.9.717.717,0,0,0-.894-.433.7.7,0,1,0,.464,1.329Z" transform="translate(-139.338 -125.302)"/>
            <path id="Path_610390" data-name="Path 610390" d="M86.047,125.083a.7.7,0,0,0,.438-1.338.715.715,0,0,0-.888.45A.706.706,0,0,0,86.047,125.083Z" transform="translate(-63.785 -92.225)"/>
            <path id="Path_610391" data-name="Path 610391" d="M2.64,107.6,12.908,112a4.024,4.024,0,0,0,3.324-.087l8.913-4.384.427,5.668L14.917,127.064a3.983,3.983,0,0,0,6.317,4.853l11.583-15.073a4.021,4.021,0,0,0,.815-2.726l-.511-6.789,5.536-16.919H52.425a3.169,3.169,0,0,0,3.139-3.572,3.225,3.225,0,0,0-3.223-2.754H30.7a7.253,7.253,0,0,0-6.9,5l-.947,2.894a.7.7,0,0,0,.45.885.713.713,0,0,0,.885-.45l.947-2.892a5.843,5.843,0,0,1,5.57-4.038h21.64a1.818,1.818,0,0,1,1.826,1.523A1.767,1.767,0,0,1,52.425,89H34.482a.7.7,0,1,0,0,1.4h2.7l-5.437,16.616a.67.67,0,0,0-.031.27l.52,6.927a2.594,2.594,0,0,1-.528,1.765L20.121,131.06a2.578,2.578,0,1,1-4.089-3.142l10.816-14.078a.69.69,0,0,0,.143-.481l-.523-6.972a.705.705,0,0,0-1.012-.579l-9.844,4.842a2.6,2.6,0,0,1-2.152.056L3.191,106.3a2.579,2.579,0,0,1,2.034-4.74l8.88,3.811a.714.714,0,0,0,.587-.014L20.7,102.4a.706.706,0,0,0,.36-.413l1.383-4.229a.7.7,0,0,0-.45-.885.712.712,0,0,0-.885.447,0,0,0,0,0,0,0l-1.29,3.948-5.451,2.681-8.585-3.681A3.984,3.984,0,0,0,2.64,107.6Z" transform="translate(-0.166 -62.683)"/>
            <path id="Path_610392" data-name="Path 610392" d="M125.791,35.7a5.543,5.543,0,1,0,5.543,5.543A5.549,5.549,0,0,0,125.791,35.7Zm0,9.68a4.138,4.138,0,1,1,4.137-4.138A4.142,4.142,0,0,1,125.791,45.377Z" transform="translate(-89.643 -26.612)"/>
            <path id="Path_610393" data-name="Path 610393" d="M115.758,233.048a.7.7,0,0,0-.936-.333l-1.7.81.151-1.882a.7.7,0,1,0-1.4-.112l-.151,1.881-1.554-1.071a.7.7,0,0,0-.8,1.157l1.554,1.071-9.893,4.7a.7.7,0,1,0,.6,1.269l9.893-4.7-.151,1.882a.7.7,0,1,0,1.4.112l.15-1.881,1.554,1.071a.7.7,0,1,0,.8-1.157l-1.554-1.071,1.7-.81A.7.7,0,0,0,115.758,233.048Z" transform="translate(-75.014 -172.12)"/>
            <path id="Path_610394" data-name="Path 610394" d="M.218,11.205,2.8,13.664l-.088,3.565a.7.7,0,0,0,.72.72L7,17.86l2.458,2.582a.724.724,0,0,0,1.018,0l2.3-2.42,7.674,4.112a.7.7,0,0,0,.951-.951l-4.113-7.674,2.421-2.3a.7.7,0,0,0,0-1.017L17.127,7.729l.088-3.565a.7.7,0,0,0-.72-.72l-3.565.088L10.473.95a.7.7,0,0,0-1.018,0L7,3.533,3.432,3.445a.7.7,0,0,0-.72.72L2.8,7.729.218,10.188A.7.7,0,0,0,.218,11.205ZM4,8.532a.7.7,0,0,0,.218-.526L4.136,4.868l3.138.077A.674.674,0,0,0,7.8,4.727L9.964,2.454l2.164,2.274a.678.678,0,0,0,.526.218l3.138-.077-.078,3.138a.7.7,0,0,0,.218.526L18.207,10.7,15.933,12.86a.7.7,0,0,0-.135.84l3.267,6.1-6.1-3.267a.7.7,0,0,0-.841.135L9.964,18.939,7.8,16.665a.7.7,0,0,0-.526-.218l-3.138.077.078-3.138A.7.7,0,0,0,4,12.86L1.722,10.7Z" transform="translate(0 -0.546)"/>
            <path id="Path_610395" data-name="Path 610395" d="M27.543,50.412a.7.7,0,0,0,.7-.7v-.7a.7.7,0,1,0-1.405,0v.7A.7.7,0,0,0,27.543,50.412Z" transform="translate(-20.009 -36.012)"/>
            <path id="Path_610396" data-name="Path 610396" d="M27.543,28.529a.7.7,0,0,0,.7-.7V23.885a.7.7,0,0,0-1.405,0v3.941A.7.7,0,0,0,27.543,28.529Z" transform="translate(-20.009 -17.282)"/>
            <path id="Path_610397" data-name="Path 610397" d="M37.09,50.412a.7.7,0,0,0,.7-.7v-.7a.7.7,0,1,0-1.405,0v.7A.7.7,0,0,0,37.09,50.412Z" transform="translate(-27.126 -36.012)"/>
            <path id="Path_610398" data-name="Path 610398" d="M37.09,28.529a.7.7,0,0,0,.7-.7V23.885a.7.7,0,1,0-1.405,0v3.941A.7.7,0,0,0,37.09,28.529Z" transform="translate(-27.126 -17.282)"/>
            <path id="Path_610399" data-name="Path 610399" d="M46.637,50.412a.7.7,0,0,0,.7-.7v-.7a.7.7,0,1,0-1.405,0v.7A.7.7,0,0,0,46.637,50.412Z" transform="translate(-34.243 -36.012)"/>
            <path id="Path_610400" data-name="Path 610400" d="M46.637,28.529a.7.7,0,0,0,.7-.7V23.885a.7.7,0,0,0-1.405,0v3.941A.7.7,0,0,0,46.637,28.529Z" transform="translate(-34.243 -17.282)"/>
          </g>
        </g>
        <g id="Group_1072759" data-name="Group 1072759" transform="translate(1226.859 450.975)">
          <g id="Group_1071725" data-name="Group 1071725" transform="translate(-9719.619 -12261.024)">
            <g id="Group_1071718" data-name="Group 1071718" transform="translate(-770 -111.133)">
              <circle id="Ellipse_5853-4" data-name="Ellipse 5853" cx="52.5" cy="52.5" r="52.5" transform="translate(1075 2861.133)" fill="#fff"/>
            </g>
            <g id="Group-2" transform="translate(324.7 2764)">
              <path id="Path_610340" data-name="Path 610340" d="M89.039,11.024a2.171,2.171,0,1,0-2.171-2.171A2.171,2.171,0,0,0,89.039,11.024Z" transform="translate(-44.534 -3.426)" fill="#e2e7fe"/>
              <path id="Path_610341" data-name="Path 610341" d="M106.858,19.934a2.171,2.171,0,1,0-2.171-2.171A2.171,2.171,0,0,0,106.858,19.934Z" transform="translate(-53.669 -7.993)" fill="#e2e7fe"/>
              <path id="Path_610342" data-name="Path 610342" d="M57.855,24.388a2.171,2.171,0,1,0-2.171-2.171A2.171,2.171,0,0,0,57.855,24.388Z" transform="translate(-28.547 -10.277)" fill="#e2e7fe"/>
              <path id="Path_610343" data-name="Path 610343" d="M48.946,6.569A2.171,2.171,0,1,0,46.775,4.4,2.171,2.171,0,0,0,48.946,6.569Z" transform="translate(-23.98 -1.142)" fill="#e2e7fe"/>
              <path id="Path_610344" data-name="Path 610344" d="M17.763,15.479a2.171,2.171,0,1,0-2.171-2.171A2.171,2.171,0,0,0,17.763,15.479Z" transform="translate(-7.993 -5.709)" fill="#e2e7fe"/>
              <path id="Path_610345" data-name="Path 610345" d="M55.128,68.936V79.791H47.881a24.719,24.719,0,0,0-3.1-1.151L43.814,76.7a36.871,36.871,0,0,1-1.92-4.594l.425-.567a9.765,9.765,0,0,0,1.954-5.862,1.084,1.084,0,0,1,1.085-1.085h7.6V67.85a1.085,1.085,0,0,0,1.085,1.085Z" transform="translate(-21.478 -33.115)" fill="#cf9e76"/>
              <path id="Path_610346" data-name="Path 610346" d="M24.05,47.86v2.171a1.085,1.085,0,0,1-1.085,1.085H7.768a1.085,1.085,0,0,1-1.085-1.085V47.86a1.085,1.085,0,0,1,1.085-1.085h15.2A1.085,1.085,0,0,1,24.05,47.86Z" transform="translate(-3.426 -23.98)" fill="#cf9e76"/>
              <path id="Path_610347" data-name="Path 610347" d="M24.62,72.135l.969,1.938a24.672,24.672,0,0,0-7.023-1.02V69.8A1.085,1.085,0,0,0,17.48,68.71H15.31A1.085,1.085,0,0,0,14.224,69.8v1.085H4.455l.263-.615A37,37,0,0,0,7.711,55.684H20.737a36.8,36.8,0,0,0,3.883,16.45Z" transform="translate(-2.284 -28.547)" fill="#dfb28b"/>
              <path id="Path_610348" data-name="Path 610348" d="M99.329,65.679V67.85a1.085,1.085,0,0,1-1.086,1.085H65.679a1.085,1.085,0,0,1-1.085-1.085V64.594h33.65A1.085,1.085,0,0,1,99.329,65.679Z" transform="translate(-33.115 -33.115)" fill="#e2e7fe"/>
              <path id="Path_610349" data-name="Path 610349" d="M43.124,100.006H44a7.414,7.414,0,0,0,5.242-2.171l.252.252a6.552,6.552,0,0,0,9.265,0l.252-.252.252.252a6.552,6.552,0,0,0,9.264,0l.252-.252a7.415,7.415,0,0,0,5.241,2.171h1.271v9.77l-1.085,1.085a7.414,7.414,0,0,1-5.242,2.171H48.605a3.7,3.7,0,0,1-2.62-1.086,3.708,3.708,0,0,0-2.62-1.085H18.848a3.256,3.256,0,1,1,0-6.513h11.94a2.168,2.168,0,0,0,2.171-2.171,7.855,7.855,0,0,0-7.026-4.342H24.276V91.322a24.677,24.677,0,0,1,18.19,8l.079.085Q42.827,99.717,43.124,100.006Z" transform="translate(-7.993 -46.818)" fill="#304c8e"/>
              <path id="Path_610350" data-name="Path 610350" d="M95.075,95.777v6.513H93.8a7.418,7.418,0,0,1-5.241-2.171l-.252.252a6.552,6.552,0,0,1-9.265,0l-.252-.252-.252.252a6.551,6.551,0,0,1-9.265,0l-.252-.252a7.414,7.414,0,0,1-5.242,2.171h-.877q-.3-.289-.579-.6l-.079-.086a24.665,24.665,0,0,0-8.069-5.83h40.9Z" transform="translate(-27.775 -49.101)" fill="#304c8e"/>
              <path id="Path_610351" data-name="Path 610351" d="M99.442,73.5V84.358H95.1V78.931a1.085,1.085,0,0,0-1.086-1.085H91.844a1.085,1.085,0,0,0-1.085,1.085v5.427H86.417V78.931a1.085,1.085,0,0,0-1.086-1.085H83.16a1.085,1.085,0,0,0-1.085,1.085v5.427H77.732V78.931a1.085,1.085,0,0,0-1.085-1.085H74.476a1.085,1.085,0,0,0-1.085,1.085v5.427H69.049V73.5Z" transform="translate(-35.399 -37.682)" fill="#e6e9ed"/>
              <path id="Path_610352" data-name="Path 610352" d="M117.938,83.5v5.427H113.6V83.5a1.085,1.085,0,0,1,1.086-1.085h2.171A1.085,1.085,0,0,1,117.938,83.5Z" transform="translate(-58.236 -42.25)" fill="#aab2bd"/>
              <path id="Path_610353" data-name="Path 610353" d="M100.119,83.5v5.427H95.777V83.5a1.085,1.085,0,0,1,1.085-1.085h2.171A1.085,1.085,0,0,1,100.119,83.5Z" transform="translate(-49.101 -42.25)" fill="#aab2bd"/>
              <path id="Path_610354" data-name="Path 610354" d="M82.3,83.5v5.427H77.958V83.5a1.085,1.085,0,0,1,1.085-1.085h2.171A1.085,1.085,0,0,1,82.3,83.5Z" transform="translate(-39.966 -42.25)" fill="#aab2bd"/>
              <path id="Path_610355" data-name="Path 610355" d="M28.843,93.267v1.086a1.085,1.085,0,0,1-1.085,1.085H25.587A1.085,1.085,0,0,1,24.5,94.353V83.5a1.085,1.085,0,0,1,1.085-1.085h2.171A1.085,1.085,0,0,1,28.843,83.5v9.769Z" transform="translate(-12.561 -42.25)" fill="#aab2bd"/>
              <path id="Path_610356" data-name="Path 610356" d="M11.94,86.868v8.684H0V86.868H11.94Z" transform="translate(0 -44.534)" fill="#e2e7fe"/>
              <path id="Path_610357" data-name="Path 610357" d="M67.825,124.507H47.464a2.6,2.6,0,0,1-1.853-.768,4.76,4.76,0,0,0-3.388-1.4H17.706a2.171,2.171,0,1,1,0-4.342H26.39v-2.171H17.706a4.342,4.342,0,1,0,0,8.684H42.223a2.6,2.6,0,0,1,1.853.768,4.76,4.76,0,0,0,3.388,1.4H67.825a8.442,8.442,0,0,0,6.008-2.489L72.3,122.654A6.285,6.285,0,0,1,67.825,124.507Z" transform="translate(-6.851 -59.378)"/>
              <path id="Path_610358" data-name="Path 610358" d="M55.288,113.571l-1.942-.971a6.732,6.732,0,0,1-6.054,3.742H44.548v2.171h2.744A8.89,8.89,0,0,0,55.288,113.571Z" transform="translate(-22.838 -57.726)"/>
              <path id="Path_610359" data-name="Path 610359" d="M114.717,116.476a9.965,9.965,0,0,1-7.094,2.939h-5.164v2.171h5.164a12.124,12.124,0,0,0,8.629-3.575Z" transform="translate(-52.527 -59.713)"/>
              <path id="Path_610360" data-name="Path 610360" d="M67.3,57.573V55.4a2.173,2.173,0,0,0-2.171-2.171H56.445V46.718H54.274v6.513H49.932V46.718H47.761v6.513H43.419V46.718H41.248v6.513H23.881A2.173,2.173,0,0,0,21.71,55.4a8.737,8.737,0,0,1-.926,3.894,35.857,35.857,0,0,1-1.227-8.237,2.173,2.173,0,0,0,2.153-2.17V46.718a2.173,2.173,0,0,0-2.171-2.171H4.342a2.173,2.173,0,0,0-2.171,2.171v2.171a2.173,2.173,0,0,0,2.153,2.17,35.708,35.708,0,0,1-2.87,13.027H0v2.171H10.855V72.77H0v2.171H10.855a2.174,2.174,0,0,0,2.171,2.171H15.2a2.174,2.174,0,0,0,2.171-2.171h.573A6.732,6.732,0,0,1,24,78.683l1.942-.971a8.892,8.892,0,0,0-8-4.942h-.573V68.455a23.651,23.651,0,0,1,16.3,7.624l.078.085a16.356,16.356,0,0,0,12.026,5.29,8.443,8.443,0,0,0,6.009-2.489L50.25,77.43a6.286,6.286,0,0,1-4.474,1.853A14.177,14.177,0,0,1,37.919,76.9a8.4,8.4,0,0,0,3.3-1.571,7.639,7.639,0,0,0,9.8.022,7.639,7.639,0,0,0,9.795-.022,8.434,8.434,0,0,0,5.215,1.788H67.3V74.941H66.028a6.286,6.286,0,0,1-4.474-1.853l-.768-.767-1.02,1.02a5.466,5.466,0,0,1-7.73,0l-1.02-1.019L50,73.34a5.465,5.465,0,0,1-7.73,0l-1.02-1.019-.768.767a6.286,6.286,0,0,1-4.474,1.853h-.426c-.078-.081-.155-.162-.231-.245l-.078-.085A25.662,25.662,0,0,0,30.585,70.6H67.3V68.428H65.129V59.744A2.173,2.173,0,0,0,67.3,57.573ZM32.564,55.4H65.129v2.171H32.564ZM4.342,46.718h15.2v2.171H4.342ZM15.2,74.941H13.026V64.086H15.2V74.941Zm0-13.026H13.026a2.174,2.174,0,0,0-2.171,2.171H3.8A37.839,37.839,0,0,0,6.5,51.06H17.384a38.082,38.082,0,0,0,3.9,15.693,25.664,25.664,0,0,0-3.921-.471v-2.2A2.174,2.174,0,0,0,15.2,61.915Zm8.875,5.554-.765-1.529a35.461,35.461,0,0,1-1.673-3.926l.074-.1A10.922,10.922,0,0,0,23.881,55.4h6.513v2.171a2.173,2.173,0,0,0,2.171,2.171v8.684H26.618A25.9,25.9,0,0,0,24.072,67.47Zm17.176.958H39.077V64.086h2.171Zm8.684,0H47.761V64.086h2.171Zm8.684,0H56.445V64.086h2.171Zm4.342,0H60.787V64.086a2.174,2.174,0,0,0-2.171-2.171H56.445a2.173,2.173,0,0,0-2.171,2.171v4.342H52.1V64.086a2.174,2.174,0,0,0-2.171-2.171H47.761a2.174,2.174,0,0,0-2.171,2.171v4.342H43.419V64.086a2.174,2.174,0,0,0-2.171-2.171H39.077a2.174,2.174,0,0,0-2.171,2.171v4.342H34.735V59.744H62.958Z" transform="translate(0 -22.838)"/>
              <path id="Path_610361" data-name="Path 610361" d="M74.85,28.635l.767.192a4.985,4.985,0,0,0,2.771,4.465l.971-1.942a2.826,2.826,0,0,1-1.571-2.542V27.132l-2.412-.6a2.548,2.548,0,0,1-1.184-4.274l.021-.021L72.679,20.7l-.021.021a4.719,4.719,0,0,0,2.192,7.915Z" transform="translate(-36.541 -10.612)"/>
              <path id="Path_610362" data-name="Path 610362" d="M114.171,28.808A2.826,2.826,0,0,1,112.6,31.35l.971,1.942a4.985,4.985,0,0,0,2.771-4.465l.768-.192A4.719,4.719,0,0,0,119.3,20.72l-.021-.021-1.535,1.535.021.021a2.548,2.548,0,0,1-1.184,4.274l-2.412.6Z" transform="translate(-57.726 -10.611)"/>
              <path id="Path_610363" data-name="Path 610363" d="M87.9,10.968A3.256,3.256,0,1,0,84.64,7.712,3.26,3.26,0,0,0,87.9,10.968Zm0-4.342a1.085,1.085,0,1,1-1.086,1.085A1.087,1.087,0,0,1,87.9,6.626Z" transform="translate(-43.392 -2.284)"/>
              <path id="Path_610364" data-name="Path 610364" d="M105.715,19.877a3.256,3.256,0,1,0-3.256-3.256A3.26,3.26,0,0,0,105.715,19.877Zm0-4.342a1.085,1.085,0,1,1-1.085,1.085A1.087,1.087,0,0,1,105.715,15.535Z" transform="translate(-52.527 -6.851)"/>
              <path id="Path_610365" data-name="Path 610365" d="M98,31.184h2.171v2.171H98Z" transform="translate(-50.243 -15.987)"/>
              <path id="Path_610366" data-name="Path 610366" d="M6.677,27.588a4.569,4.569,0,0,0,2.49,3.418l.229.115.971-1.942-.229-.115A2.414,2.414,0,0,1,8.8,26.894v-.671L7.77,25.709A2.069,2.069,0,0,1,7.232,22.4l.161-.161L5.858,20.7,5.7,20.86a4.24,4.24,0,0,0,.981,6.728Z" transform="translate(-2.284 -10.611)"/>
              <path id="Path_610367" data-name="Path 610367" d="M33.615,31.006a4.569,4.569,0,0,0,2.49-3.418,4.24,4.24,0,0,0,.981-6.728l-.161-.162-1.535,1.535.161.161a2.069,2.069,0,0,1-.538,3.314l-1.027.514v.671a2.414,2.414,0,0,1-1.342,2.171l-.229.115.971,1.942Z" transform="translate(-16.618 -10.611)"/>
              <path id="Path_610368" data-name="Path 610368" d="M62.279,40.215a2.069,2.069,0,0,1-.538,3.314l-1.027.514v.671a2.414,2.414,0,0,1-1.342,2.171L59.143,47l.971,1.942.229-.115a4.569,4.569,0,0,0,2.49-3.418,4.24,4.24,0,0,0,.981-6.728l-.161-.161-1.535,1.535Z" transform="translate(-30.32 -19.747)"/>
              <path id="Path_610369" data-name="Path 610369" d="M16.621,15.423a3.256,3.256,0,1,0-3.256-3.256A3.26,3.26,0,0,0,16.621,15.423Zm0-4.342a1.085,1.085,0,1,1-1.085,1.085A1.087,1.087,0,0,1,16.621,11.081Z" transform="translate(-6.851 -4.568)"/>
              <path id="Path_610370" data-name="Path 610370" d="M24.5,26.729h2.171V28.9H24.5Z" transform="translate(-12.561 -13.703)"/>
              <path id="Path_610371" data-name="Path 610371" d="M35.638,13.364h2.171v2.171H35.638Z" transform="translate(-18.27 -6.851)"/>
              <path id="Path_610372" data-name="Path 610372" d="M53.457,21.075a3.256,3.256,0,1,0,3.256-3.256A3.26,3.26,0,0,0,53.457,21.075Zm3.256-1.085a1.085,1.085,0,1,1-1.085,1.085A1.087,1.087,0,0,1,56.713,19.99Z" transform="translate(-27.405 -9.135)"/>
              <path id="Path_610373" data-name="Path 610373" d="M47.8,6.513a3.256,3.256,0,1,0-3.256-3.256A3.26,3.26,0,0,0,47.8,6.513Zm0-4.342a1.085,1.085,0,1,1-1.085,1.085A1.087,1.087,0,0,1,47.8,2.171Z" transform="translate(-22.838)"/>
              <path id="Path_610374" data-name="Path 610374" d="M51.941,37.826l-1.535-1.535-.469.47a3.189,3.189,0,0,0,.829,5.107l.409.2a4.76,4.76,0,0,0,1.4,3.353l1.535-1.535a2.6,2.6,0,0,1-.768-1.853V40.729l-1.608-.8a1.018,1.018,0,0,1-.264-1.63Z" transform="translate(-25.122 -18.605)"/>
              <path id="Path_610375" data-name="Path 610375" d="M0,111.369H6.513v2.171H0Z" transform="translate(0 -57.095)"/>
            </g>
          </g>
        </g>
        <g id="Group_1071723" data-name="Group 1071723" transform="translate(-8787.76 -11685.3)">
          <g id="Group_1071720" data-name="Group 1071720" transform="translate(-475 -19.883)">
            <circle id="Ellipse_5853-5" data-name="Ellipse 5853" cx="52.5" cy="52.5" r="52.5" transform="translate(1075 2861.133)" fill="#fff"/>
          </g>
          <g id="warning" transform="translate(615.75 2850.336)">
            <path id="Path_610448" data-name="Path 610448" d="M68.369,17.25H6.178a4.021,4.021,0,0,0-4.021,4.021V67.6a4.021,4.021,0,0,0,4.021,4.022H68.369A4.021,4.021,0,0,0,72.391,67.6V21.271A4.021,4.021,0,0,0,68.369,17.25Z" transform="translate(-1.023 -1.023)" fill="#ffe126"/>
            <path id="Path_610449" data-name="Path 610449" d="M72.391,34.5V75.791a4.023,4.023,0,0,1-4.022,4.022H6.178a4.023,4.023,0,0,1-4.021-4.022V34.5Z" transform="translate(-1.023 -9.211)" fill="#e1f5d6"/>
            <path id="Path_610450" data-name="Path 610450" d="M70.4,43.125H12.33a1.549,1.549,0,0,0-1.549,1.549V77.826a1.549,1.549,0,0,0,1.549,1.549H70.4a1.549,1.549,0,0,0,1.549-1.549V44.674A1.549,1.549,0,0,0,70.4,43.125Z" transform="translate(-5.117 -13.305)" fill="#fff"/>
            <path id="Path_610451" data-name="Path 610451" d="M8.625,23.719h2.266v2.266H8.625Z" transform="translate(-4.094 -4.094)"/>
            <path id="Path_610452" data-name="Path 610452" d="M17.25,23.719h2.266v2.266H17.25Z" transform="translate(-8.188 -4.094)"/>
            <path id="Path_610453" data-name="Path 610453" d="M25.875,23.719h2.266v2.266H25.875Z" transform="translate(-12.281 -4.094)"/>
            <path id="Path_610454" data-name="Path 610454" d="M60.375,53.906h9.063L67.172,69.766H62.641Z" transform="translate(-28.656 -18.422)" fill="#ffe126"/>
            <path id="Path_610455" data-name="Path 610455" d="M66.148,69.875H61.617A1.133,1.133,0,0,1,60.5,68.9L58.23,53.044a1.133,1.133,0,0,1,1.121-1.294h9.062a1.133,1.133,0,0,1,1.121,1.294L67.27,68.9a1.133,1.133,0,0,1-1.121.972ZM62.6,67.609h2.567l1.942-13.594h-6.45Z" transform="translate(-27.633 -17.398)"/>
            <path id="Path_610456" data-name="Path 610456" d="M62.531,92.719h6.8V97.25h-6.8Z" transform="translate(-29.68 -36.844)" fill="#ffe126"/>
            <path id="Path_610457" data-name="Path 610457" d="M68.3,97.359h-6.8a1.133,1.133,0,0,1-1.133-1.133V91.7a1.133,1.133,0,0,1,1.133-1.133h6.8A1.133,1.133,0,0,1,69.438,91.7v4.531A1.133,1.133,0,0,1,68.3,97.359Zm-5.664-2.266h4.531V92.828H62.641Z" transform="translate(-28.656 -35.82)"/>
            <path id="Path_610458" data-name="Path 610458" d="M41.34,80.268a14.654,14.654,0,0,1,0-18.407l1.774,1.415a12.4,12.4,0,0,0,0,15.577Z" transform="translate(-18.078 -22.197)"/>
            <path id="Path_610459" data-name="Path 610459" d="M26.246,80.268a14.654,14.654,0,0,1,0-18.407l1.774,1.415a12.4,12.4,0,0,0,0,15.577Z" transform="translate(-10.914 -22.197)"/>
            <path id="Path_610460" data-name="Path 610460" d="M92.121,80.268l-1.774-1.415a12.4,12.4,0,0,0,0-15.577l1.771-1.415a14.654,14.654,0,0,1,0,18.407Z" transform="translate(-42.882 -22.197)"/>
            <path id="Path_610461" data-name="Path 610461" d="M107.215,80.268l-1.774-1.415a12.4,12.4,0,0,0,0-15.577l1.77-1.415a14.653,14.653,0,0,1,0,18.407Z" transform="translate(-50.046 -22.197)"/>
            <path id="Path_610462" data-name="Path 610462" d="M67.343,15.094H5.158A5.163,5.163,0,0,0,0,20.251V66.577a5.163,5.163,0,0,0,5.158,5.157H67.343A5.163,5.163,0,0,0,72.5,66.577V20.251a5.164,5.164,0,0,0-5.157-5.158Zm0,54.375H5.158a2.9,2.9,0,0,1-2.892-2.892V26.422H58.906V24.156H2.266v-3.9a2.9,2.9,0,0,1,2.892-2.892H67.343a2.9,2.9,0,0,1,2.892,2.892v3.9h-6.8v2.266h6.8V66.577a2.9,2.9,0,0,1-2.892,2.892Z"/>
          </g>
        </g>
      </g>
    </g>
  </g>
</svg>
