<svg xmlns="http://www.w3.org/2000/svg" width="120" height="120" viewBox="0 0 120 120">
  <g id="Group_1073001" data-name="Group 1073001" transform="translate(-810 -3504.827)">
    <g id="Group_1072402" data-name="Group 1072402" transform="translate(541 2546.826)">
      <circle id="Ellipse_5614" data-name="Ellipse 5614" cx="60" cy="60" r="60" transform="translate(269 958)" fill="#304c8e"/>
    </g>
    <g id="Group_1072987" data-name="Group 1072987" transform="translate(2018.888 12034.842)">
      <g id="warranty" transform="translate(-1190 -8513)">
        <path id="Path_613207" data-name="Path 613207" d="M43.854,89.791a4.209,4.209,0,0,0,1.223.185,4.075,4.075,0,0,0,1.2-.18A54.222,54.222,0,0,0,71.338,74.358C88.85,55.132,86.465,28.843,85.315,21.243a4.361,4.361,0,0,0-3.591-3.675,80.021,80.021,0,0,1-15.579-4.375A79.818,79.818,0,0,1,47.7,2.878a4.346,4.346,0,0,0-5.224,0A79.8,79.8,0,0,1,24.009,13.2,79.834,79.834,0,0,1,8.434,17.567a4.362,4.362,0,0,0-3.6,3.676c-1.192,7.9-2.76,28.191,8.424,45.831A1.466,1.466,0,1,0,15.73,65.5C5.079,48.7,6.588,29.259,7.732,21.681a1.422,1.422,0,0,1,1.191-1.223,82.65,82.65,0,0,0,16.156-4.546,82.732,82.732,0,0,0,19.15-10.7,1.39,1.39,0,0,1,1.7,0,82.726,82.726,0,0,0,19.143,10.7,82.734,82.734,0,0,0,16.167,4.546,1.421,1.421,0,0,1,1.173,1.221c1.1,7.276,3.394,32.435-13.245,50.7a51.313,51.313,0,0,1-23.725,14.6,1.245,1.245,0,0,1-.749,0A51.467,51.467,0,0,1,24.92,76.262a1.466,1.466,0,1,0-1.933,2.2,54.352,54.352,0,0,0,20.867,11.33Z" transform="translate(-4 -2.005)" fill="#fff"/>
        <path id="Path_613208" data-name="Path 613208" d="M15.3,48.891a1.466,1.466,0,1,0-2.282,1.837c.44.547.911,1.094,1.4,1.639a1.466,1.466,0,1,0,2.191-1.95c-.455-.509-.894-1.019-1.305-1.526Z" transform="translate(0.033 19.578)" fill="#fff"/>
        <path id="Path_613209" data-name="Path 613209" d="M40.848,76.2a4.131,4.131,0,0,0,1.411.254A4.066,4.066,0,0,0,43.65,76.2a44.661,44.661,0,0,0,18.38-11.99C73.819,51.36,74.865,34.321,74.438,25.3a4.491,4.491,0,0,0-1.479-3.125A1.466,1.466,0,0,0,71,24.356a1.572,1.572,0,0,1,.513,1.091c.4,8.557-.569,24.713-11.64,36.782A41.775,41.775,0,0,1,42.665,73.441a1.12,1.12,0,0,1-.83,0A41.759,41.759,0,0,1,24.644,62.227C13.575,50.157,12.6,34,13,25.453a1.594,1.594,0,0,1,1.173-1.485,90.783,90.783,0,0,0,11.291-3.606,91.376,91.376,0,0,0,16.049-8.211,1.33,1.33,0,0,1,1.466,0,89.788,89.788,0,0,0,13.283,7.066,1.467,1.467,0,0,0,1.154-2.7A86.528,86.528,0,0,1,44.576,9.687a4.252,4.252,0,0,0-4.635,0,88.341,88.341,0,0,1-15.534,7.947,88.148,88.148,0,0,1-10.939,3.491,4.515,4.515,0,0,0-3.393,4.183c-.427,9.012.619,26.05,12.408,38.9A44.644,44.644,0,0,0,40.848,76.2Z" transform="translate(-1.203 1.257)" fill="#fff"/>
        <path id="Path_613210" data-name="Path 613210" d="M48.524,19.324a1.512,1.512,0,0,0,.424.062,1.466,1.466,0,0,0,.421-2.871c-.708-.211-1.418-.453-2.126-.708a1.467,1.467,0,1,0-.991,2.761C47.009,18.839,47.766,19.1,48.524,19.324Z" transform="translate(15.248 4.39)" fill="#fff"/>
        <path id="Path_613211" data-name="Path 613211" d="M51.831,22.385a4.985,4.985,0,0,0-6.892,0L37.127,30.2l-7.805-7.815a4.985,4.985,0,0,0-6.892,0,4.892,4.892,0,0,0,0,6.9L30.236,37.1l-7.805,7.817a4.893,4.893,0,0,0,0,6.9,4.985,4.985,0,0,0,6.892,0l7.805-7.817,7.805,7.815a4.878,4.878,0,0,0,6.892-6.9L44.019,37.1l7.805-7.815a4.893,4.893,0,0,0,.007-6.9Zm-2.075,4.827-7.805,7.817a2.933,2.933,0,0,0,0,4.153L49.757,47a1.95,1.95,0,0,1,0,2.752,1.985,1.985,0,0,1-2.749,0L39.2,41.935a3,3,0,0,0-4.147,0L27.247,49.75a1.985,1.985,0,0,1-2.749,0A1.95,1.95,0,0,1,24.5,47L32.3,39.181a2.933,2.933,0,0,0,0-4.153L24.5,27.212a1.947,1.947,0,0,1,0-2.751,1.985,1.985,0,0,1,2.749,0l7.807,7.815a3,3,0,0,0,4.147,0l7.807-7.815a1.985,1.985,0,0,1,2.749,0A1.947,1.947,0,0,1,49.757,27.212Z" transform="translate(3.929 6.854)" fill="#fff"/>
      </g>
    </g>
  </g>
</svg>
