<svg xmlns="http://www.w3.org/2000/svg" width="125.072" height="125.072" viewBox="0 0 125.072 125.072">
  <g id="Group_1072993" data-name="Group 1072993" transform="translate(-11019.16 9602.651)">
    <g id="Group_1072682" data-name="Group 1072682" transform="translate(9930.16 -11748.651)">
      <path id="Path_608387" data-name="Path 608387" d="M62.5,0A62.5,62.5,0,1,1,0,62.5,62.5,62.5,0,0,1,62.5,0Z" transform="translate(1089 2146)" fill="#304c8e"/>
      <g id="Group_43_" data-name="Group (43)" transform="translate(1182 2239)">
        <path id="Path_598926" data-name="Path 598926" d="M36.549,16.055,16.055,36.549a15.864,15.864,0,0,0,.655,1.582l21.422-21.42a15.863,15.863,0,0,0-1.582-.655Z" transform="translate(-15.17 -15.17)" fill="#4ca220"/>
        <path id="Path_598927" data-name="Path 598927" d="M18.367.8.8,18.367a16.022,16.022,0,0,0,.26,1.7L20.065,1.058A16.022,16.022,0,0,0,18.367.8Z" transform="translate(-0.754 -0.754)" fill="#4ca220"/>
        <path id="Path_598928" data-name="Path 598928" d="M299.7,283.668c0-.137-.008-.274-.01-.41l-16.454,16.453c.137,0,.273.01.41.01a16.091,16.091,0,0,0,1.678-.088l14.289-14.289a16.09,16.09,0,0,0,.088-1.678Z" transform="translate(-267.627 -267.648)" fill="#4ca220"/>
        <path id="Path_598929" data-name="Path 598929" d="M68.634,46.122q-.611-.481-1.267-.9L45.2,67.389q.42.656.9,1.267Z" transform="translate(-42.708 -42.73)" fill="#4ca220"/>
        <path id="Path_598930" data-name="Path 598930" d="M0,15.009,15.009,0c-.434.026-.863.07-1.287.131L.131,13.722C.07,14.145.026,14.575,0,15.009Z" fill="#4ca220"/>
        <path id="Path_598931" data-name="Path 598931" d="M106.76,84.058l-22.7,22.7a16.114,16.114,0,0,0,1.365,1.222l22.559-22.559A16.123,16.123,0,0,0,106.76,84.058Z" transform="translate(-79.426 -79.426)" fill="#4ca220"/>
        <path id="Path_598932" data-name="Path 598932" d="M159.927,138.548a16.093,16.093,0,0,0-.877-1.6l-22.108,22.108a15.959,15.959,0,0,0,1.6.877Z" transform="translate(-129.396 -129.396)" fill="#4ca220"/>
        <path id="Path_598933" data-name="Path 598933" d="M28.816,19.794a16.1,16.1,0,0,0-9.022,9.022Z" transform="translate(-18.704 -18.704)" fill="#4ca220"/>
        <path id="Path_598934" data-name="Path 598934" d="M382.436,392.617a16.085,16.085,0,0,0,10.18-10.18Z" transform="translate(-361.361 -361.361)" fill="#4ca220"/>
        <path id="Path_598935" data-name="Path 598935" d="M220.714,200.477l-20.237,20.237a15.962,15.962,0,0,0,2.154.537l18.619-18.619A16.154,16.154,0,0,0,220.714,200.477Z" transform="translate(-189.429 -189.429)" fill="#4ca220"/>
      </g>
    </g>
    <path id="Group" d="M30.859,0A30.75,30.75,0,0,0,10,8.12l1.669,1.819a28.4,28.4,0,1,1-1.729,1.729L8.121,10A30.86,30.86,0,0,0,49.412,55.521L52.486,58.6a3.713,3.713,0,0,0,.723,4.214h0l11.919,11.92,1.746-1.746-4.937-4.937,6.11-6.11L80.539,74.429a4.339,4.339,0,0,1,.213,5.881q-.1.117-.213.229a4.337,4.337,0,0,1-6.11,0l-5.81-5.81-1.746,1.746,5.81,5.81a6.805,6.805,0,0,0,9.6,0L80.752,80.31l1.533,1.974a6.8,6.8,0,0,0,0-9.6L62.81,53.209a3.713,3.713,0,0,0-4.214-.723l-3.074-3.074A30.861,30.861,0,0,0,30.859,0ZM66.3,60.191l-1.745-1.746-6.11,6.11L60.191,66.3ZM56.7,62.81l6.11-6.11-1.746-1.746a1.242,1.242,0,0,0-1.746,0l-4.364,4.364a1.241,1.241,0,0,0,0,1.746h0Zm0-8.728L54.081,56.7l-2.75-2.75a31.032,31.032,0,0,0,2.619-2.619ZM7.406,30.859A23.453,23.453,0,1,1,30.859,54.312,23.451,23.451,0,0,1,7.406,30.859ZM30.859,4.937A25.922,25.922,0,1,0,56.781,30.859,25.92,25.92,0,0,0,30.859,4.937Zm-2.543,34.18a8.642,8.642,0,0,1,2.314-16.9h.45A8.643,8.643,0,0,1,31.1,39.5H30.63A8.644,8.644,0,0,1,28.316,39.117ZM22.265,37.9a11.122,11.122,0,0,1,0-14.086q-.328.139-.654.293A20.981,20.981,0,0,0,13.7,30.859a20.983,20.983,0,0,0,7.916,6.751Q21.939,37.763,22.265,37.9Zm8.289,4.066a23.625,23.625,0,0,1-9.992-2.124,23.87,23.87,0,0,1-9.4-8.279l-.492-.706.492-.706a23.87,23.87,0,0,1,9.391-8.279,23.617,23.617,0,0,1,9.993-2.124q.3-.008.6,0a23.624,23.624,0,0,1,10.006,2.124,23.87,23.87,0,0,1,9.391,8.279l.492.706-.492.706a23.871,23.871,0,0,1-9.4,8.279,23.62,23.62,0,0,1-9.982,2.124Q30.865,41.976,30.554,41.967Zm8.9-4.067q.325-.138.648-.29a20.984,20.984,0,0,0,7.916-6.751,20.98,20.98,0,0,0-7.912-6.751q-.328-.155-.659-.295A11.123,11.123,0,0,1,39.456,37.9Zm-10.3-12.974a6.166,6.166,0,1,1-4.227,4.228l.44-1.535,1.375.812a1.239,1.239,0,0,0,1.691-1.691l-.812-1.374Zm1.924,2.236a3.783,3.783,0,0,1-3.914,3.928,3.7,3.7,0,1,0,3.914-3.928ZM39.5,11.819v2.469H37.031V11.819Zm4.938,2.469v2.469H41.969V14.288Z" transform="translate(11038 -9584)" fill="#fff" fill-rule="evenodd"/>
  </g>
</svg>
