<svg xmlns="http://www.w3.org/2000/svg" xmlns:xlink="http://www.w3.org/1999/xlink" width="117.952" height="117.952" viewBox="0 0 117.952 117.952">
  <defs>
    <clipPath id="clip-path">
      <rect id="Rectangle_377560" data-name="Rectangle 377560" width="85.45" height="59.485" fill="#fff"/>
    </clipPath>
  </defs>
  <g id="Group_1073022" data-name="Group 1073022" transform="translate(-484.355 -3192.023)">
    <g id="Group_1072348" data-name="Group 1072348" transform="translate(484.355 3192.023)">
      <circle id="Ellipse_5614" data-name="Ellipse 5614" cx="58.976" cy="58.976" r="58.976" transform="translate(0 0)" fill="#304c8e"/>
    </g>
    <g id="Group_1073021" data-name="Group 1073021" transform="translate(502 3216.952)">
      <g id="Group_1073020" data-name="Group 1073020" clip-path="url(#clip-path)">
        <path id="Path_613216" data-name="Path 613216" d="M9.411,15.946c-.351-.111-.643-.216-.942-.294-.725-.188-1.456-.355-2.181-.547a2.445,2.445,0,0,1-1.518-.951,1.831,1.831,0,0,1,.018-2.224,5.75,5.75,0,0,1,.594-.675C7.417,9.221,9.449,7.183,11.5,5.167a2.988,2.988,0,0,1,1.11-.727,1.835,1.835,0,0,1,2.27,1.111c.35.961.578,1.966.86,2.951.075.261.155.521.253.85.242-.171.428-.3.607-.431A43.836,43.836,0,0,1,25.04,3.839a1.248,1.248,0,0,1,1.751.805,1.28,1.28,0,0,1-.717,1.391c-.658.334-1.324.652-1.987.979-.061.03-.119.068-.214.122.058.127.1.253.17.368q2.437,4.21,4.874,8.42c.148.256.284.334.575.184a26.964,26.964,0,0,1,4.987-1.955,31.494,31.494,0,0,1,5.6-1.066,27.413,27.413,0,0,1,6.674.153A29.553,29.553,0,0,1,55.5,15.879c.825.4.82.414,1.278-.378q2.31-3.984,4.622-7.966c.224-.386.226-.4-.159-.594a36.209,36.209,0,0,0-6.4-2.6c-1.34-.384-2.682-.777-4.044-1.067-1.16-.247-2.347-.375-3.528-.513a30.306,30.306,0,0,0-3.245-.272c-1.5-.013-3,.04-4.5.157-1.471.115-2.942.3-4.4.54-1.134.189-2.243.53-3.369.775a2.934,2.934,0,0,1-1.022.05.969.969,0,0,1-.818-.875,1.054,1.054,0,0,1,.421-1.163,2.7,2.7,0,0,1,.743-.359A44.627,44.627,0,0,1,38.111.255,50.451,50.451,0,0,1,43.266,0,39.84,39.84,0,0,1,49.95.632,42.812,42.812,0,0,1,81.2,24.1a36.833,36.833,0,0,1,2.858,7.847c.415,1.8.831,3.6,1.078,5.422.226,1.666.251,3.36.313,5.044A1.3,1.3,0,0,1,83.982,43.8q-5.653.01-11.307.006c-.4,0-.809,0-1.214,0-1.151.02-1.5-.744-1.542-1.561a28.4,28.4,0,0,0-.187-3.075,38.772,38.772,0,0,0-.938-4.425,24.508,24.508,0,0,0-2.858-6.355,27.2,27.2,0,0,0-13.525-11.2,25.164,25.164,0,0,0-5.854-1.5,31.435,31.435,0,0,0-5.816-.16,26.658,26.658,0,0,0-12.334,3.955A27.274,27.274,0,0,0,16.123,36.772a27.8,27.8,0,0,0-.587,5.5A1.4,1.4,0,0,1,14.009,43.8q-6.278.009-12.555,0A1.335,1.335,0,0,1,0,42.319,42.865,42.865,0,0,1,.56,35.912,41.986,41.986,0,0,1,8.675,16.922c.231-.3.457-.607.736-.977m73.5,25.348a1.8,1.8,0,0,0,.023-.247c-.073-1.094-.093-2.2-.237-3.28a41.237,41.237,0,0,0-1.235-6.095,40.655,40.655,0,0,0-3.276-8.058A40.082,40.082,0,0,0,64,8.5c-.22-.138-.336-.079-.442.111-.135.242-.26.489-.4.728q-2.142,3.7-4.287,7.4c-.138.238-.4.509-.357.714s.4.324.627.475A29.787,29.787,0,0,1,72.217,39.048c.1.741.15,1.487.225,2.246Zm-69.919,0A30.061,30.061,0,0,1,27,17.452L21.729,8.358a38.208,38.208,0,0,0-4.889,3.5.411.411,0,0,0-.084.346c.232.975.515,1.939.717,2.919a1.955,1.955,0,0,1-2.438,2.287c-.927-.276-1.874-.488-2.817-.713a.4.4,0,0,0-.338.1,41.009,41.009,0,0,0-4.756,7.05,40.19,40.19,0,0,0-3.794,10.5,33.625,33.625,0,0,0-.705,5.31c-.026.538-.078,1.076-.12,1.639ZM12.9,7.348,7.42,12.866l7.513,2L12.9,7.348" transform="translate(0 0)" fill="#fff"/>
        <path id="Path_613217" data-name="Path 613217" d="M92.655,113.138c-4.994,0-9.988.012-14.982-.008a3,3,0,0,1-2.906-1.774,2.551,2.551,0,0,1,.021-2.432c1.448-2.562,2.929-5.1,4.4-7.651q5.065-8.75,10.135-17.5,2.248-3.879,4.5-7.756a2.947,2.947,0,0,1,3.127-1.64,2.911,2.911,0,0,1,2.1,1.45c.843,1.432,1.669,2.874,2.5,4.311q5.412,9.329,10.824,18.658,2.8,4.822,5.58,9.651a3.552,3.552,0,0,1,.537,1.513,2.96,2.96,0,0,1-2.545,3.088,12.271,12.271,0,0,1-2.212.065,1.184,1.184,0,0,1-1.134-1.578,1.073,1.073,0,0,1,.964-.821c.528-.046,1.061-.031,1.591-.043.3-.007.639.036.811-.268s-.027-.586-.187-.862c-1.093-1.875-2.171-3.757-3.26-5.634q-5.479-9.449-10.962-18.9-2.154-3.713-4.3-7.429a5.377,5.377,0,0,0-.476-.676.336.336,0,0,0-.563-.007,2.6,2.6,0,0,0-.357.463Q88.481,90.1,81.1,102.828q-2,3.445-4,6.886c-.313.539-.13.912.484.947.391.022.785,0,1.178,0q14.393,0,28.787,0a1.56,1.56,0,0,1,1.212.3,1.132,1.132,0,0,1,.387,1.185,1.326,1.326,0,0,1-1.206.992c-.493.045-.993.017-1.49.017h-13.8Z" transform="translate(-53.767 -53.672)" fill="#fff"/>
        <path id="Path_613218" data-name="Path 613218" d="M258.3,176.149a6.058,6.058,0,0,1,12.11.4,6.058,6.058,0,0,1-12.11-.4m2.515.365a3.486,3.486,0,0,0,3.677,3.442,3.6,3.6,0,0,0-.242-7.191,3.489,3.489,0,0,0-3.434,3.749" transform="translate(-186.486 -122.97)" fill="#fff"/>
        <path id="Path_613219" data-name="Path 613219" d="M147.934,116.017c-.133,2.2-.285,4.4-.392,6.606a3.247,3.247,0,0,1-1.62,2.841,3.122,3.122,0,0,1-4.166-.945,2.987,2.987,0,0,1-.55-1.543c-.147-2.675-.341-5.347-.449-8.024a3.675,3.675,0,0,1,3.573-3.6,3.725,3.725,0,0,1,3.631,3.655c-.009.334,0,.669,0,1h-.027m-2.551.522h.048c0-.553.026-1.109-.006-1.66-.039-.674-.551-1.05-1.3-1.01a1,1,0,0,0-.861,1.106q.19,3.889.409,7.777c.027.493.243.685.69.685s.647-.171.677-.678c.122-2.073.234-4.147.349-6.221" transform="translate(-101.625 -80.4)" fill="#fff"/>
        <path id="Path_613220" data-name="Path 613220" d="M17.6,176.446a6.052,6.052,0,0,1-5.11,5.86,6.128,6.128,0,0,1-6.922-5.179,9.9,9.9,0,0,1-.055-1.413,1.315,1.315,0,0,1,.584-1.087,1.073,1.073,0,0,1,1.138-.151,1.123,1.123,0,0,1,.753,1.024c.01.265-.007.531-.011.8A3.533,3.533,0,0,0,11.1,179.9a3.458,3.458,0,0,0,3.853-2.332,3.517,3.517,0,0,0-3.468-4.794,6.644,6.644,0,0,0-.688.062,1.319,1.319,0,0,1-1.456-1.051,1.236,1.236,0,0,1,.935-1.311,5.669,5.669,0,0,1,5.383,1.438,5.581,5.581,0,0,1,1.943,4.532" transform="translate(-3.977 -122.953)" fill="#fff"/>
        <path id="Path_613221" data-name="Path 613221" d="M147.813,174.4a3.621,3.621,0,0,1-4,3.318,3.655,3.655,0,0,1,.475-7.29,3.628,3.628,0,0,1,3.524,3.972m-3.653-1.527a1.125,1.125,0,0,0-1.15,1.238,1.1,1.1,0,0,0,1.2,1.172,1.079,1.079,0,0,0,1.134-1.166,1.145,1.145,0,0,0-1.188-1.243" transform="translate(-101.451 -123.044)" fill="#fff"/>
      </g>
    </g>
  </g>
</svg>
