<svg xmlns="http://www.w3.org/2000/svg" width="117.952" height="117.952" viewBox="0 0 117.952 117.952">
  <g id="Group_1073023" data-name="Group 1073023" transform="translate(-1002.677 -3192.023)">
    <g id="Group_1072349" data-name="Group 1072349" transform="translate(1002.677 3192.023)">
      <circle id="Ellipse_5614" data-name="Ellipse 5614" cx="58.976" cy="58.976" r="58.976" transform="translate(0 0)" fill="#304c8e"/>
    </g>
    <g id="Group_1072966" data-name="Group 1072966" transform="translate(2833.491 11134.226)">
      <path id="risk_1_" data-name="risk (1)" d="M54.087,66.988a5.127,5.127,0,0,0-3.915-.52L35.75,70.333a5.593,5.593,0,0,0-2.738-5.446l-13.3-7.75a1.179,1.179,0,0,0-.141-.07,8.128,8.128,0,0,0-6.427-.006L8.759,58.872v-.383A2.057,2.057,0,0,0,6.7,56.434H3.045A2.057,2.057,0,0,0,.991,58.488v19.8A2.057,2.057,0,0,0,3.045,80.34H6.7a2.057,2.057,0,0,0,2.054-2.054v-.642a6.982,6.982,0,0,1,6.306.253l7.713,4.086a8.9,8.9,0,0,0,4.2,1.1,8.237,8.237,0,0,0,2.138-.286l23.731-6.358a5.158,5.158,0,0,0,1.243-9.453Zm-50.743,11v-19.2H6.406v19.2Zm48.891-3.818L28.5,80.527a6.127,6.127,0,0,1-4.625-.625l-7.713-4.086a9.046,9.046,0,0,0-7.407-.67V61.417l5.282-2.182a5.768,5.768,0,0,1,4.557-.025l13.231,7.708a3.233,3.233,0,0,1-3.255,5.587l-7.105-4.14A1.176,1.176,0,0,0,20.283,70.4l7.105,4.14a5.585,5.585,0,0,0,7.283-1.482l16.11-4.316a2.81,2.81,0,0,1,1.455,5.428ZM33.161,23.452A11.558,11.558,0,1,0,44.718,35.009,11.571,11.571,0,0,0,33.161,23.452Zm0,20.762a9.2,9.2,0,1,1,9.2-9.2,9.215,9.215,0,0,1-9.2,9.2Zm3.65-6.98a3.407,3.407,0,0,1-2.473,3.272v.409a1.176,1.176,0,0,1-2.353,0v-.36a3.421,3.421,0,0,1-2.032-1.334,1.176,1.176,0,0,1,1.906-1.379,1.055,1.055,0,0,0,.85.439h.7a1.048,1.048,0,1,0,0-2.1h-.5a3.4,3.4,0,0,1-.928-6.673V29.1a1.176,1.176,0,1,1,2.353,0v.36A3.422,3.422,0,0,1,36.369,30.8a1.176,1.176,0,1,1-1.906,1.379,1.055,1.055,0,0,0-.85-.439h-.7a1.048,1.048,0,0,0,0,2.1h.5A3.4,3.4,0,0,1,36.81,37.234ZM75.553,59.287,56.988,28.306a2.58,2.58,0,0,0-4.424,0,20.308,20.308,0,0,0-1.8-3.857L52.8,22.415a1.176,1.176,0,0,0,0-1.664l-5.379-5.379a1.177,1.177,0,0,0-1.664,0l-2.034,2.034a20.288,20.288,0,0,0-5.581-2.313V12.218a1.176,1.176,0,0,0-1.176-1.176H29.357a1.176,1.176,0,0,0-1.176,1.176v2.875A20.291,20.291,0,0,0,22.6,17.406l-2.034-2.034a1.176,1.176,0,0,0-1.664,0l-5.379,5.378a1.177,1.177,0,0,0,0,1.664l2.034,2.034a20.289,20.289,0,0,0-2.313,5.581H10.37a1.176,1.176,0,0,0-1.176,1.176v7.606a1.176,1.176,0,0,0,1.176,1.176h2.875a20.294,20.294,0,0,0,2.313,5.581L13.524,47.6a1.176,1.176,0,0,0,0,1.664L18.9,54.646a1.177,1.177,0,0,0,1.664,0L22.6,52.612a20.287,20.287,0,0,0,5.581,2.313V57.8a1.176,1.176,0,0,0,1.176,1.176h4.828L34,59.287a3.028,3.028,0,0,0,2.6,4.589H72.953a3.028,3.028,0,0,0,2.6-4.589ZM30.534,56.623v-2.64a1.176,1.176,0,0,0-.946-1.154,17.99,17.99,0,0,1-6.5-2.694,1.176,1.176,0,0,0-1.485.147L19.734,52.15l-3.715-3.715,1.868-1.868a1.176,1.176,0,0,0,.147-1.485,17.989,17.989,0,0,1-2.694-6.5,1.176,1.176,0,0,0-1.154-.946h-2.64V32.382h2.64a1.176,1.176,0,0,0,1.154-.946,17.991,17.991,0,0,1,2.694-6.5,1.176,1.176,0,0,0-.147-1.485l-1.868-1.868,3.715-3.715L21.6,19.736a1.176,1.176,0,0,0,1.485.147,17.992,17.992,0,0,1,6.5-2.694,1.177,1.177,0,0,0,.946-1.154v-2.64h5.254v2.64a1.177,1.177,0,0,0,.946,1.154,17.992,17.992,0,0,1,6.5,2.694,1.176,1.176,0,0,0,1.485-.147l1.868-1.868L50.3,21.583l-1.868,1.868a1.176,1.176,0,0,0-.147,1.485A17.986,17.986,0,0,1,50.9,31.075l-2.331,3.89a15.421,15.421,0,1,0-8.181,13.652l-4.8,8.006Zm2.627-8.554A13.061,13.061,0,1,1,46.221,35.009,13.075,13.075,0,0,1,33.161,48.07ZM73.545,61.181a.666.666,0,0,1-.593.343H36.6a.676.676,0,0,1-.582-1.027L54.582,29.516a.228.228,0,0,1,.388,0L73.534,60.5A.666.666,0,0,1,73.545,61.181Zm-18.77-6.666a3.159,3.159,0,1,0,3.159,3.159A3.162,3.162,0,0,0,54.776,54.515Zm0,3.965a.806.806,0,1,1,.806-.806A.807.807,0,0,1,54.776,58.48Zm0-23.944a3.48,3.48,0,0,0-3.663,3.512c0,.027,0,.054,0,.081l.943,13.7a2.72,2.72,0,0,0,5.433,0l.943-13.7c0-.027,0-.054,0-.081A3.48,3.48,0,0,0,54.776,34.536ZM55.143,51.7c0,.027,0,.054,0,.081,0,.271-.264.271-.364.271s-.364,0-.364-.271c0-.027,0-.054,0-.081l-.942-13.686c.023-1.07,1.093-1.124,1.31-1.124s1.286.055,1.309,1.124Z" transform="translate(-1806.482 -7932.001)" fill="#fff"/>
    </g>
  </g>
</svg>
