<svg xmlns="http://www.w3.org/2000/svg" xmlns:xlink="http://www.w3.org/1999/xlink" width="505" height="1141.676" viewBox="0 0 505 1141.676">
  <defs>
    <linearGradient id="linear-gradient" x1="0.5" x2="0.5" y2="1" gradientUnits="objectBoundingBox">
      <stop offset="0" stop-color="#fdfde3"/>
      <stop offset="1" stop-color="#e1f5d6"/>
    </linearGradient>
  </defs>
  <g id="Group_1073119" data-name="Group 1073119" transform="translate(-1149 -3125.662)">
    <g id="Group_1073118" data-name="Group 1073118">
      <g id="Group_1072395" data-name="Group 1072395" transform="translate(215 487)">
        <path id="Path_612615" data-name="Path 612615" d="M0,0H505V1141.676H0Z" transform="translate(934 2638.662)" fill="url(#linear-gradient)"/>
        <g id="Group_1072125" data-name="Group 1072125" transform="translate(3 16)">
          <g id="Group_1072093" data-name="Group 1072093" transform="translate(1444.175 3484.3) rotate(180)">
            <path id="Path_612126" data-name="Path 612126" d="M0,0H155.85" transform="translate(167.175 734.031)" fill="none" stroke="#7e19b8" stroke-width="2"/>
            <path id="Polygon_4" data-name="Polygon 4" d="M6.531,0l6.531,8H0Z" transform="translate(331.025 727.5) rotate(90)" fill="#7e19b8"/>
          </g>
          <g id="Group_1072111" data-name="Group 1072111" transform="translate(1763.563 2464.975) rotate(90)">
            <path id="Path_612126-2" data-name="Path 612126" d="M0,0H22.854" transform="translate(300.171 734.031)" fill="none" stroke="#7e19b8" stroke-width="2"/>
            <path id="Polygon_4-2" data-name="Polygon 4" d="M6.531,0l6.531,8H0Z" transform="translate(331.025 727.5) rotate(90)" fill="#7e19b8"/>
          </g>
          <g id="Group_1072112" data-name="Group 1072112" transform="translate(1763.563 2640.829) rotate(90)">
            <path id="Path_612126-3" data-name="Path 612126" d="M0,0H22.854" transform="translate(300.171 734.031)" fill="none" stroke="#7e19b8" stroke-width="2"/>
            <path id="Polygon_4-3" data-name="Polygon 4" d="M6.531,0l6.531,8H0Z" transform="translate(331.025 727.5) rotate(90)" fill="#7e19b8"/>
          </g>
          <g id="Group_1072117" data-name="Group 1072117" transform="translate(1763.563 3012.975) rotate(90)">
            <path id="Path_612126-4" data-name="Path 612126" d="M0,0H22.854" transform="translate(300.171 734.031)" fill="none" stroke="#7e19b8" stroke-width="2"/>
            <path id="Polygon_4-4" data-name="Polygon 4" d="M6.531,0l6.531,8H0Z" transform="translate(331.025 727.5) rotate(90)" fill="#7e19b8"/>
          </g>
          <g id="Group_1072118" data-name="Group 1072118" transform="translate(1763.563 3140.975) rotate(90)">
            <path id="Path_612126-5" data-name="Path 612126" d="M0,0H22.854" transform="translate(300.171 734.031)" fill="none" stroke="#7e19b8" stroke-width="2"/>
            <path id="Polygon_4-5" data-name="Polygon 4" d="M6.531,0l6.531,8H0Z" transform="translate(331.025 727.5) rotate(90)" fill="#7e19b8"/>
          </g>
          <g id="Group_1072119" data-name="Group 1072119" transform="translate(1763.563 3265.829) rotate(90)">
            <path id="Path_612126-6" data-name="Path 612126" d="M0,0H22.854" transform="translate(300.171 734.031)" fill="none" stroke="#7e19b8" stroke-width="2"/>
            <path id="Polygon_4-6" data-name="Polygon 4" d="M6.531,0l6.531,8H0Z" transform="translate(331.025 727.5) rotate(90)" fill="#7e19b8"/>
          </g>
          <g id="Group_1072114" data-name="Group 1072114" transform="translate(876.438 2414.056)">
            <path id="Path_612126-7" data-name="Path 612126" d="M0,0H22.854" transform="translate(300.171 734.031)" fill="none" stroke="#7e19b8" stroke-width="2"/>
            <path id="Polygon_4-7" data-name="Polygon 4" d="M6.531,0l6.531,8H0Z" transform="translate(331.025 727.5) rotate(90)" fill="#7e19b8"/>
          </g>
          <g id="Group_1072120" data-name="Group 1072120" transform="translate(836.078 2919.937)">
            <path id="Path_612126-8" data-name="Path 612126" d="M-120.373,0h47.1" transform="translate(396.295 734.031)" fill="none" stroke="#7e19b8" stroke-width="2"/>
            <path id="Polygon_4-8" data-name="Polygon 4" d="M6.531,0l6.531,8H0Z" transform="translate(331.025 727.5) rotate(90)" fill="#7e19b8"/>
          </g>
          <g id="Group_1072115" data-name="Group 1072115" transform="translate(590.895 3155.025) rotate(-90)">
            <path id="Path_612126-9" data-name="Path 612126" d="M0,0H269.3" transform="translate(53.725 734.031)" fill="none" stroke="#7e19b8" stroke-width="2"/>
            <path id="Polygon_4-9" data-name="Polygon 4" d="M6.531,0l6.531,8H0Z" transform="translate(331.025 727.5) rotate(90)" fill="#7e19b8"/>
          </g>
          <g id="Group_1072121" data-name="Group 1072121" transform="translate(495.895 3524.025) rotate(-90)">
            <path id="Path_612126-10" data-name="Path 612126" d="M0,0H423.979" transform="translate(-100.954 734.031)" fill="none" stroke="#7e19b8" stroke-width="2"/>
            <path id="Polygon_4-10" data-name="Polygon 4" d="M6.531,0l6.531,8H0Z" transform="translate(331.025 727.5) rotate(90)" fill="#7e19b8"/>
          </g>
          <g id="Group_1072113" data-name="Group 1072113" transform="translate(1791.569 2769.063) rotate(90)">
            <path id="Path_612126-11" data-name="Path 612126" d="M0,0H50.287" transform="translate(272.737 734.031)" fill="none" stroke="#7e19b8" stroke-width="2"/>
            <path id="Polygon_4-11" data-name="Polygon 4" d="M6.531,0l6.531,8H0Z" transform="translate(331.025 727.5) rotate(90)" fill="#7e19b8"/>
          </g>
          <g id="Group_1072116" data-name="Group 1072116" transform="translate(1791.569 2933.975) rotate(90)">
            <path id="Path_612126-12" data-name="Path 612126" d="M0,0H50.287" transform="translate(272.737 734.031)" fill="none" stroke="#7e19b8" stroke-width="2"/>
            <path id="Polygon_4-12" data-name="Polygon 4" d="M6.531,0l6.531,8H0Z" transform="translate(331.025 727.5) rotate(90)" fill="#7e19b8"/>
          </g>
          <g id="Group_1072122" data-name="Group 1072122">
            <text id="Planear_" data-name="Planear
" transform="translate(982 2656)" fill="#12263f" font-size="16" font-family="Roboto-Bold, Roboto" font-weight="700"><tspan x="10.418" y="15">Planear</tspan></text>
            <text id="Hacer_" data-name="Hacer
" transform="translate(1095 2656)" fill="#12263f" font-size="16" font-family="Roboto-Bold, Roboto" font-weight="700"><tspan x="10.145" y="15">Hacer</tspan></text>
            <text id="Verificar_" data-name="Verificar
" transform="translate(1195 2656)" fill="#12263f" font-size="16" font-family="Roboto-Bold, Roboto" font-weight="700"><tspan x="4.332" y="15">Verificar</tspan></text>
            <text id="Actuar_" data-name="Actuar
" transform="translate(1302 2656)" fill="#12263f" font-size="16" font-family="Roboto-Bold, Roboto" font-weight="700"><tspan x="11.559" y="15">Actuar</tspan></text>
          </g>
          <g id="Group_1071842" data-name="Group 1071842" transform="translate(953 2704)">
            <rect id="Rectangle_377379" data-name="Rectangle 377379" width="159" height="65" rx="18" fill="#304c8e"/>
            <text id="_5.2_Establecer_los_objetivos_del_programa_" data-name="5.2 Establecer los objetivos del programa
" transform="translate(19 10)" fill="#fff" font-size="16" font-family="Roboto-Regular, Roboto"><tspan x="0" y="15">5.2 Establecer los </tspan><tspan x="0" y="39">objetivos del </tspan></text>
          </g>
          <g id="Group_1071959" data-name="Group 1071959" transform="translate(953 2975)">
            <rect id="Rectangle_377379-2" data-name="Rectangle 377379" width="159" height="65" rx="18" fill="#304c8e"/>
            <text id="_5.4_Establecer_el_programa_de_auditoria._" data-name="5.4 Establecer el programa de auditoria. 
" transform="translate(19 10)" fill="#fff" font-size="16" font-family="Roboto-Regular, Roboto"><tspan x="0" y="15">5.4 Establecer el </tspan><tspan x="0" y="39">programa de </tspan></text>
          </g>
          <g id="Group_1071964" data-name="Group 1071964" transform="translate(953 3347)">
            <rect id="Rectangle_377379-3" data-name="Rectangle 377379" width="159" height="91" rx="18" fill="#304c8e"/>
            <text id="_6.3_Preparar_actividades_de_auditoria_" data-name="6.3 Preparar actividades de auditoria
" transform="translate(19 10)" fill="#fff" font-size="16" font-family="Roboto-Regular, Roboto"><tspan x="0" y="15">6.3 Preparar </tspan><tspan x="0" y="39">actividades de </tspan><tspan x="0" y="63">auditoria</tspan></text>
          </g>
          <g id="Group_1071965" data-name="Group 1071965" transform="translate(954.262 3474)">
            <rect id="Rectangle_377379-4" data-name="Rectangle 377379" width="158" height="92" rx="18" transform="translate(-0.262)" fill="#304c8e"/>
            <text id="_6.4_Realizar_actividades_de_auditoria_" data-name="6.4 Realizar actividades de auditoria 
" transform="translate(18.738 10)" fill="#fff" font-size="16" font-family="Roboto-Regular, Roboto"><tspan x="0" y="15">6.4 Realizar </tspan><tspan x="0" y="39">actividades de </tspan><tspan x="0" y="63">auditoria </tspan></text>
          </g>
          <g id="Group_1071966" data-name="Group 1071966" transform="translate(953.262 3598)">
            <rect id="Rectangle_377379-5" data-name="Rectangle 377379" width="159" height="111" rx="18" transform="translate(-0.262)" fill="#304c8e"/>
            <text id="_6.5_Preparar_y_distribuir_el_informe_de_auditoria_" data-name="6.5 Preparar y distribuir el informe de auditoria
" transform="translate(18.738 10)" fill="#fff" font-size="16" font-family="Roboto-Regular, Roboto"><tspan x="0" y="15">6.5 Preparar y </tspan><tspan x="0" y="39">distribuir el </tspan><tspan x="0" y="63">informe de </tspan><tspan x="0" y="87">auditoria</tspan></text>
          </g>
          <g id="Group_1071963" data-name="Group 1071963" transform="translate(953 3266)">
            <rect id="Rectangle_377379-6" data-name="Rectangle 377379" width="159" height="44" rx="18" fill="#304c8e"/>
            <text id="_6.2_Iniciar_auditoria_" data-name="6.2 Iniciar auditoria
" transform="translate(19 10)" fill="#fff" font-size="16" font-family="Roboto-Regular, Roboto"><tspan x="0" y="15">6.2 Iniciar </tspan></text>
          </g>
          <g id="Group_1071967" data-name="Group 1071967" transform="translate(1164.686 3625)">
            <rect id="Rectangle_377379-7" data-name="Rectangle 377379" width="155" height="71" rx="18" transform="translate(0.314)" fill="#304c8e"/>
            <text id="_6.6_Completar_la_uditoria_" data-name="6.6 Completar la uditoria
" transform="translate(19.314 10)" fill="#fff" font-size="16" font-family="Roboto-Regular, Roboto"><tspan x="0" y="15">6.6 Completar la </tspan><tspan x="0" y="39">uditoria</tspan></text>
          </g>
          <g id="Group_1071960" data-name="Group 1071960" transform="translate(1021.799 3100.087)">
            <rect id="Rectangle_377379-8" data-name="Rectangle 377379" width="152" height="96" rx="18" transform="translate(-0.262)" fill="#304c8e"/>
            <text id="_5.5_Implementar_el_programa_de_auditoria_" data-name="5.5 Implementar el programa de auditoria
" transform="translate(18.738 10)" fill="#fff" font-size="16" font-family="Roboto-Regular, Roboto"><tspan x="0" y="15">5.5 Implementar </tspan><tspan x="0" y="39">el programa de </tspan><tspan x="0" y="63">auditoria</tspan></text>
          </g>
          <g id="Group_1071961" data-name="Group 1071961" transform="translate(1207.149 3104)">
            <rect id="Rectangle_377379-9" data-name="Rectangle 377379" width="144" height="89" rx="18" transform="translate(0.314)" fill="#304c8e"/>
            <text id="_5.6_Monitorear_el_programa_de_auditoria_" data-name="5.6 Monitorear  el programa de auditoria
" transform="translate(19.314 10)" fill="#fff" font-size="16" font-family="Roboto-Regular, Roboto"><tspan x="0" y="15" xml:space="preserve">5.6 Monitorear  </tspan><tspan x="0" y="39">el programa de </tspan><tspan x="0" y="63">auditoria</tspan></text>
          </g>
          <g id="Group_1071958" data-name="Group 1071958" transform="translate(953 2799)">
            <path id="Path_613390" data-name="Path 613390" d="M18,0H141a18,18,0,0,1,18,18V121a18,18,0,0,1-18,18H18A18,18,0,0,1,0,121V18A18,18,0,0,1,18,0Z" fill="#304c8e"/>
            <path id="Path_613391" data-name="Path 613391" d="M1.609,9.3l.578-5.672H8.016V4.961h-4.6l-.344,3.1a3.671,3.671,0,0,1,1.9-.492A3.138,3.138,0,0,1,7.438,8.6a4.026,4.026,0,0,1,.914,2.777,3.886,3.886,0,0,1-.949,2.77A3.46,3.46,0,0,1,4.75,15.156a3.6,3.6,0,0,1-2.461-.836A3.337,3.337,0,0,1,1.2,12.008H2.57a2.3,2.3,0,0,0,.7,1.473,2.162,2.162,0,0,0,1.484.5,1.95,1.95,0,0,0,1.582-.687,2.874,2.874,0,0,0,.574-1.9,2.638,2.638,0,0,0-.621-1.832,2.113,2.113,0,0,0-1.652-.691,2.383,2.383,0,0,0-1.484.414l-.383.313Zm8.5,4.945a.905.905,0,0,1,.223-.625.848.848,0,0,1,.668-.25.874.874,0,0,1,.676.25.887.887,0,0,1,.23.625.839.839,0,0,1-.23.6.89.89,0,0,1-.676.242.8.8,0,0,1-.891-.844Zm6.133-5.633h1.086a2.387,2.387,0,0,0,1.609-.539,1.8,1.8,0,0,0,.586-1.414,1.764,1.764,0,0,0-1.992-2,2.072,2.072,0,0,0-1.5.535,1.873,1.873,0,0,0-.559,1.418H14.031a2.9,2.9,0,0,1,.988-2.246,3.6,3.6,0,0,1,2.512-.895,3.558,3.558,0,0,1,2.523.852,3.076,3.076,0,0,1,.914,2.367,2.5,2.5,0,0,1-.48,1.438A2.9,2.9,0,0,1,19.18,9.164a2.8,2.8,0,0,1,1.449.984,2.734,2.734,0,0,1,.512,1.68,3.1,3.1,0,0,1-1,2.43,3.745,3.745,0,0,1-2.6.9,3.844,3.844,0,0,1-2.605-.867,2.877,2.877,0,0,1-1-2.289h1.453a1.859,1.859,0,0,0,.586,1.438,2.229,2.229,0,0,0,1.57.539,2.187,2.187,0,0,0,1.6-.547,2.108,2.108,0,0,0,.555-1.57,1.912,1.912,0,0,0-.609-1.523,2.655,2.655,0,0,0-1.758-.547H16.242ZM27.461,15V3.625h3.211a5.169,5.169,0,0,1,2.625.656,4.438,4.438,0,0,1,1.762,1.867,6.078,6.078,0,0,1,.629,2.781v.727a6.1,6.1,0,0,1-.621,2.82,4.369,4.369,0,0,1-1.773,1.859A5.5,5.5,0,0,1,30.609,15Zm1.5-10.148v8.922h1.578a3.434,3.434,0,0,0,2.7-1.079A4.458,4.458,0,0,0,34.2,9.621V8.957a4.529,4.529,0,0,0-.91-3.014,3.239,3.239,0,0,0-2.582-1.091Zm12.273,10.3a3.693,3.693,0,0,1-2.8-1.129,4.19,4.19,0,0,1-1.078-3.02v-.266A5.073,5.073,0,0,1,37.84,8.5a3.748,3.748,0,0,1,1.344-1.547,3.378,3.378,0,0,1,1.871-.559,3.166,3.166,0,0,1,2.563,1.086,4.7,4.7,0,0,1,.914,3.109v.6H38.8a3,3,0,0,0,.73,2.02,2.3,2.3,0,0,0,1.777.77,2.517,2.517,0,0,0,1.3-.312,3.259,3.259,0,0,0,.93-.828l.883.688A3.55,3.55,0,0,1,41.234,15.156Zm-.18-7.578a1.928,1.928,0,0,0-1.469.637A3.1,3.1,0,0,0,38.852,10h4.234V9.891a2.753,2.753,0,0,0-.594-1.707A1.815,1.815,0,0,0,41.055,7.578ZM48.164,4.5V6.547h1.578V7.664H48.164v5.249a1.173,1.173,0,0,0,.211.763.888.888,0,0,0,.719.254,3.5,3.5,0,0,0,.688-.094V15a4.215,4.215,0,0,1-1.109.155,1.8,1.8,0,0,1-1.461-.586,2.517,2.517,0,0,1-.492-1.664V7.664H45.18V6.547h1.539V4.5Zm6.773,10.656a3.693,3.693,0,0,1-2.8-1.129,4.19,4.19,0,0,1-1.078-3.02v-.266a5.073,5.073,0,0,1,.48-2.246,3.748,3.748,0,0,1,1.344-1.547,3.378,3.378,0,0,1,1.871-.559A3.166,3.166,0,0,1,57.32,7.477a4.7,4.7,0,0,1,.914,3.109v.6H52.508a3,3,0,0,0,.73,2.02,2.3,2.3,0,0,0,1.777.77,2.517,2.517,0,0,0,1.3-.312,3.259,3.259,0,0,0,.93-.828l.883.688A3.55,3.55,0,0,1,54.938,15.156Zm-.18-7.578a1.928,1.928,0,0,0-1.469.637A3.1,3.1,0,0,0,52.555,10h4.234V9.891A2.753,2.753,0,0,0,56.2,8.184,1.815,1.815,0,0,0,54.758,7.578Zm9.234.266a4.331,4.331,0,0,0-.711-.055A1.9,1.9,0,0,0,61.352,9v6H59.906V6.547h1.406l.023.977a2.251,2.251,0,0,1,2.016-1.133,1.477,1.477,0,0,1,.641.109Zm2.688-1.3.039.938a3.122,3.122,0,0,1,2.508-1.094A2.417,2.417,0,0,1,71.641,7.75a3.2,3.2,0,0,1,1.1-.984,3.242,3.242,0,0,1,1.6-.375q2.781,0,2.828,2.945V15H75.719V9.422A1.941,1.941,0,0,0,75.3,8.066a1.823,1.823,0,0,0-1.391-.449,1.916,1.916,0,0,0-1.336.48,1.949,1.949,0,0,0-.617,1.293V15H70.508V9.461a1.613,1.613,0,0,0-1.8-1.844,1.934,1.934,0,0,0-1.945,1.211V15H65.313V6.547ZM80.914,15H79.469V6.547h1.445ZM79.352,4.3a.863.863,0,0,1,.215-.594.807.807,0,0,1,.637-.242.819.819,0,0,1,.641.242.854.854,0,0,1,.219.594.826.826,0,0,1-.219.586.834.834,0,0,1-.641.234.821.821,0,0,1-.637-.234A.834.834,0,0,1,79.352,4.3Zm5.242,2.242.047,1.063a3.08,3.08,0,0,1,2.531-1.219q2.68,0,2.7,3.023V15H88.43V9.406a1.946,1.946,0,0,0-.418-1.352,1.675,1.675,0,0,0-1.277-.437,2.086,2.086,0,0,0-1.234.375,2.546,2.546,0,0,0-.828.984V15H83.227V6.547ZM97.273,15a3.036,3.036,0,0,1-.2-.891,3.225,3.225,0,0,1-2.406,1.047,2.984,2.984,0,0,1-2.051-.707,2.288,2.288,0,0,1-.8-1.793,2.39,2.39,0,0,1,1-2.051,4.733,4.733,0,0,1,2.824-.73h1.406V9.211A1.623,1.623,0,0,0,96.594,8a1.821,1.821,0,0,0-1.336-.449,2.108,2.108,0,0,0-1.3.391,1.151,1.151,0,0,0-.523.945H91.984a2,2,0,0,1,.449-1.223,3.066,3.066,0,0,1,1.219-.934,4.1,4.1,0,0,1,1.691-.344,3.342,3.342,0,0,1,2.289.73,2.635,2.635,0,0,1,.859,2.012v3.891a4.757,4.757,0,0,0,.3,1.852V15Zm-2.4-1.1a2.54,2.54,0,0,0,1.289-.352,2.127,2.127,0,0,0,.883-.914V10.9H95.914q-2.656,0-2.656,1.555a1.316,1.316,0,0,0,.453,1.063A1.742,1.742,0,0,0,94.875,13.9Zm9.969-6.055a4.331,4.331,0,0,0-.711-.055A1.9,1.9,0,0,0,102.2,9v6h-1.445V6.547h1.406l.023.977A2.251,2.251,0,0,1,104.2,6.391a1.477,1.477,0,0,1,.641.109Zm8.055,5.039,1.969-6.336h1.547l-3.4,9.758q-.789,2.109-2.508,2.109l-.273-.023-.539-.1V17.117l.391.031a1.923,1.923,0,0,0,1.145-.3,2.149,2.149,0,0,0,.676-1.086l.32-.859-3.016-8.359h1.578ZM4.6,39.156a3.693,3.693,0,0,1-2.8-1.129,4.19,4.19,0,0,1-1.078-3.02v-.266a5.073,5.073,0,0,1,.48-2.246,3.748,3.748,0,0,1,1.344-1.547,3.378,3.378,0,0,1,1.871-.559,3.166,3.166,0,0,1,2.563,1.086A4.7,4.7,0,0,1,7.9,34.586v.6H2.172a3,3,0,0,0,.73,2.02,2.3,2.3,0,0,0,1.777.77,2.517,2.517,0,0,0,1.3-.312,3.259,3.259,0,0,0,.93-.828l.883.688A3.55,3.55,0,0,1,4.6,39.156Zm-.18-7.578a1.928,1.928,0,0,0-1.469.637A3.1,3.1,0,0,0,2.219,34H6.453v-.109a2.753,2.753,0,0,0-.594-1.707A1.815,1.815,0,0,0,4.422,31.578Zm7.836,5.461,2.094-6.492h1.477L12.8,39H11.7L8.633,30.547h1.477ZM22.32,39a3.036,3.036,0,0,1-.2-.891,3.225,3.225,0,0,1-2.406,1.047,2.984,2.984,0,0,1-2.051-.707,2.287,2.287,0,0,1-.8-1.793,2.39,2.39,0,0,1,1-2.051,4.733,4.733,0,0,1,2.824-.73h1.406v-.664A1.623,1.623,0,0,0,21.641,32a1.821,1.821,0,0,0-1.336-.449,2.108,2.108,0,0,0-1.3.391,1.151,1.151,0,0,0-.523.945H17.031a2,2,0,0,1,.449-1.223,3.066,3.066,0,0,1,1.219-.934,4.1,4.1,0,0,1,1.691-.344,3.342,3.342,0,0,1,2.289.73,2.635,2.635,0,0,1,.859,2.012v3.891a4.757,4.757,0,0,0,.3,1.852V39Zm-2.4-1.1a2.54,2.54,0,0,0,1.289-.352,2.127,2.127,0,0,0,.883-.914V34.9H20.961q-2.656,0-2.656,1.555a1.316,1.316,0,0,0,.453,1.063A1.742,1.742,0,0,0,19.922,37.9ZM27.375,39H25.93V27h1.445Zm7.531-.836a3.07,3.07,0,0,1-2.477.992,2.628,2.628,0,0,1-2.059-.785,3.4,3.4,0,0,1-.715-2.324v-5.5H31.1v5.461q0,1.922,1.563,1.922a2.163,2.163,0,0,0,2.2-1.234V30.547h1.445V39H34.938Zm8.82.836a3.036,3.036,0,0,1-.2-.891,3.225,3.225,0,0,1-2.406,1.047,2.984,2.984,0,0,1-2.051-.707,2.287,2.287,0,0,1-.8-1.793,2.39,2.39,0,0,1,1-2.051,4.733,4.733,0,0,1,2.824-.73H43.5v-.664A1.623,1.623,0,0,0,43.047,32a1.821,1.821,0,0,0-1.336-.449,2.107,2.107,0,0,0-1.3.391,1.151,1.151,0,0,0-.523.945H38.438a2,2,0,0,1,.449-1.223,3.066,3.066,0,0,1,1.219-.934,4.1,4.1,0,0,1,1.691-.344,3.342,3.342,0,0,1,2.289.73,2.635,2.635,0,0,1,.859,2.012v3.891a4.757,4.757,0,0,0,.3,1.852V39Zm-2.4-1.1a2.54,2.54,0,0,0,1.289-.352,2.127,2.127,0,0,0,.883-.914V34.9H42.367q-2.656,0-2.656,1.555a1.316,1.316,0,0,0,.453,1.063A1.742,1.742,0,0,0,41.328,37.9ZM51.3,31.844a4.331,4.331,0,0,0-.711-.055A1.9,1.9,0,0,0,48.656,33v6H47.211V30.547h1.406l.023.977a2.251,2.251,0,0,1,2.016-1.133,1.477,1.477,0,0,1,.641.109ZM58.156,39H56.711V27h1.445Zm1.93-4.3a4.993,4.993,0,0,1,.488-2.234,3.643,3.643,0,0,1,1.359-1.531,3.7,3.7,0,0,1,1.988-.539,3.565,3.565,0,0,1,2.793,1.2,4.6,4.6,0,0,1,1.066,3.18v.1a5.036,5.036,0,0,1-.473,2.215,3.589,3.589,0,0,1-1.352,1.527,3.743,3.743,0,0,1-2.02.547,3.556,3.556,0,0,1-2.785-1.2A4.575,4.575,0,0,1,60.086,34.8Zm1.453.172a3.616,3.616,0,0,0,.652,2.258,2.211,2.211,0,0,0,3.5-.012,3.955,3.955,0,0,0,.648-2.418,3.61,3.61,0,0,0-.66-2.254,2.1,2.1,0,0,0-1.754-.863,2.075,2.075,0,0,0-1.727.852A3.925,3.925,0,0,0,61.539,34.867Zm12.977,1.891a1.064,1.064,0,0,0-.441-.91,4.249,4.249,0,0,0-1.539-.559,7.277,7.277,0,0,1-1.742-.562,2.479,2.479,0,0,1-.953-.781,1.869,1.869,0,0,1-.309-1.078,2.193,2.193,0,0,1,.879-1.758,3.432,3.432,0,0,1,2.246-.719,3.532,3.532,0,0,1,2.332.742,2.357,2.357,0,0,1,.895,1.9H74.43a1.3,1.3,0,0,0-.5-1.023,1.888,1.888,0,0,0-1.27-.43,1.976,1.976,0,0,0-1.234.344,1.082,1.082,0,0,0-.445.9.877.877,0,0,0,.414.789,5.1,5.1,0,0,0,1.5.508,7.8,7.8,0,0,1,1.754.578,2.558,2.558,0,0,1,1,.809,1.988,1.988,0,0,1,.324,1.152,2.163,2.163,0,0,1-.906,1.816,3.8,3.8,0,0,1-2.352.684,4.257,4.257,0,0,1-1.8-.359,2.922,2.922,0,0,1-1.223-1,2.42,2.42,0,0,1-.441-1.395h1.445a1.5,1.5,0,0,0,.582,1.152,2.258,2.258,0,0,0,1.434.426,2.331,2.331,0,0,0,1.316-.332A1.02,1.02,0,0,0,74.516,36.758Zm11.375-4.914a4.331,4.331,0,0,0-.711-.055A1.9,1.9,0,0,0,83.25,33v6H81.8V30.547h1.406l.023.977a2.251,2.251,0,0,1,2.016-1.133,1.477,1.477,0,0,1,.641.109ZM88.789,39H87.344V30.547h1.445ZM87.227,28.3a.863.863,0,0,1,.215-.594.807.807,0,0,1,.637-.242.819.819,0,0,1,.641.242.854.854,0,0,1,.219.594.826.826,0,0,1-.219.586.834.834,0,0,1-.641.234.821.821,0,0,1-.637-.234A.834.834,0,0,1,87.227,28.3Zm7.383,10.852a3.693,3.693,0,0,1-2.8-1.129,4.19,4.19,0,0,1-1.078-3.02v-.266a5.073,5.073,0,0,1,.48-2.246,3.748,3.748,0,0,1,1.344-1.547,3.378,3.378,0,0,1,1.871-.559,3.166,3.166,0,0,1,2.563,1.086,4.7,4.7,0,0,1,.914,3.109v.6H92.18a3,3,0,0,0,.73,2.02,2.3,2.3,0,0,0,1.777.77,2.517,2.517,0,0,0,1.3-.312,3.259,3.259,0,0,0,.93-.828l.883.688A3.55,3.55,0,0,1,94.609,39.156Zm-.18-7.578a1.928,1.928,0,0,0-1.469.637A3.1,3.1,0,0,0,92.227,34h4.234v-.109a2.753,2.753,0,0,0-.594-1.707A1.815,1.815,0,0,0,94.43,31.578Zm10.07,5.18a1.064,1.064,0,0,0-.441-.91,4.249,4.249,0,0,0-1.539-.559,7.277,7.277,0,0,1-1.742-.562,2.479,2.479,0,0,1-.953-.781,1.869,1.869,0,0,1-.309-1.078,2.193,2.193,0,0,1,.879-1.758,3.432,3.432,0,0,1,2.246-.719,3.532,3.532,0,0,1,2.332.742,2.357,2.357,0,0,1,.895,1.9h-1.453a1.3,1.3,0,0,0-.5-1.023,1.888,1.888,0,0,0-1.27-.43,1.976,1.976,0,0,0-1.234.344,1.082,1.082,0,0,0-.445.9.877.877,0,0,0,.414.789,5.1,5.1,0,0,0,1.5.508,7.8,7.8,0,0,1,1.754.578,2.558,2.558,0,0,1,1,.809,1.988,1.988,0,0,1,.324,1.152,2.163,2.163,0,0,1-.906,1.816,3.8,3.8,0,0,1-2.352.684,4.257,4.257,0,0,1-1.8-.359,2.922,2.922,0,0,1-1.223-1,2.42,2.42,0,0,1-.441-1.395h1.445a1.5,1.5,0,0,0,.582,1.152,2.258,2.258,0,0,0,1.434.426A2.331,2.331,0,0,0,104,37.645,1.02,1.02,0,0,0,104.5,36.758Zm2.984-2.055a4.968,4.968,0,0,1,.914-3.145,3.151,3.151,0,0,1,4.836-.074l.07-.937h1.32V38.8a3.439,3.439,0,0,1-.973,2.586,3.589,3.589,0,0,1-2.613.945,4.348,4.348,0,0,1-1.789-.391,3.08,3.08,0,0,1-1.336-1.07l.75-.867a2.826,2.826,0,0,0,2.273,1.148,2.214,2.214,0,0,0,1.645-.594,2.269,2.269,0,0,0,.59-1.672v-.727a2.971,2.971,0,0,1-2.367,1,2.887,2.887,0,0,1-2.4-1.2A5.224,5.224,0,0,1,107.484,34.7Zm1.453.164a3.79,3.79,0,0,0,.586,2.246,1.9,1.9,0,0,0,1.641.816,2.117,2.117,0,0,0,2.008-1.242V32.828a2.142,2.142,0,0,0-1.992-1.211,1.921,1.921,0,0,0-1.648.82A4.128,4.128,0,0,0,108.938,34.867Zm7.484-.172a4.993,4.993,0,0,1,.488-2.234,3.643,3.643,0,0,1,1.359-1.531,3.7,3.7,0,0,1,1.988-.539,3.565,3.565,0,0,1,2.793,1.2,4.6,4.6,0,0,1,1.066,3.18v.1a5.036,5.036,0,0,1-.473,2.215,3.589,3.589,0,0,1-1.352,1.527,3.743,3.743,0,0,1-2.02.547,3.556,3.556,0,0,1-2.785-1.2,4.575,4.575,0,0,1-1.066-3.164Zm1.453.172a3.616,3.616,0,0,0,.652,2.258,2.211,2.211,0,0,0,3.5-.012,3.955,3.955,0,0,0,.648-2.418,3.61,3.61,0,0,0-.66-2.254,2.1,2.1,0,0,0-1.754-.863,2.075,2.075,0,0,0-1.727.852A3.925,3.925,0,0,0,117.875,34.867Zm12.977,1.891a1.064,1.064,0,0,0-.441-.91,4.249,4.249,0,0,0-1.539-.559,7.277,7.277,0,0,1-1.742-.562,2.479,2.479,0,0,1-.953-.781,1.869,1.869,0,0,1-.309-1.078,2.193,2.193,0,0,1,.879-1.758,3.432,3.432,0,0,1,2.246-.719,3.532,3.532,0,0,1,2.332.742,2.357,2.357,0,0,1,.895,1.9h-1.453a1.3,1.3,0,0,0-.5-1.023,1.888,1.888,0,0,0-1.27-.43,1.976,1.976,0,0,0-1.234.344,1.082,1.082,0,0,0-.445.9.877.877,0,0,0,.414.789,5.1,5.1,0,0,0,1.5.508,7.8,7.8,0,0,1,1.754.578,2.558,2.558,0,0,1,1,.809,1.988,1.988,0,0,1,.324,1.152,2.163,2.163,0,0,1-.906,1.816,3.8,3.8,0,0,1-2.352.684,4.257,4.257,0,0,1-1.8-.359,2.922,2.922,0,0,1-1.223-1,2.42,2.42,0,0,1-.441-1.395h1.445a1.5,1.5,0,0,0,.582,1.152,2.258,2.258,0,0,0,1.434.426,2.331,2.331,0,0,0,1.316-.332A1.02,1.02,0,0,0,130.852,36.758ZM3.859,60.883l1.969-6.336H7.375L3.977,64.3q-.789,2.109-2.508,2.109L1.2,66.391l-.539-.1V65.117l.391.031a1.923,1.923,0,0,0,1.145-.3,2.148,2.148,0,0,0,.676-1.086l.32-.859L.172,54.547H1.75ZM12.242,58.7a4.993,4.993,0,0,1,.488-2.234A3.643,3.643,0,0,1,14.09,54.93a3.7,3.7,0,0,1,1.988-.539,3.565,3.565,0,0,1,2.793,1.2,4.6,4.6,0,0,1,1.066,3.18v.1a5.036,5.036,0,0,1-.473,2.215,3.589,3.589,0,0,1-1.352,1.527,3.743,3.743,0,0,1-2.02.547,3.556,3.556,0,0,1-2.785-1.2A4.575,4.575,0,0,1,12.242,58.8Zm1.453.172a3.616,3.616,0,0,0,.652,2.258,2.211,2.211,0,0,0,3.5-.012,3.955,3.955,0,0,0,.648-2.418,3.61,3.61,0,0,0-.66-2.254,2.1,2.1,0,0,0-1.754-.863,2.075,2.075,0,0,0-1.727.852A3.925,3.925,0,0,0,13.7,58.867Zm15.2,0a5.062,5.062,0,0,1-.883,3.109,2.829,2.829,0,0,1-2.391,1.18A3.1,3.1,0,0,1,23.2,62.18v4.07H21.75v-11.7h1.32l.07.938a2.977,2.977,0,0,1,2.453-1.094A2.882,2.882,0,0,1,28,55.539a5.117,5.117,0,0,1,.887,3.2ZM27.445,58.7a3.735,3.735,0,0,0-.609-2.258,1.963,1.963,0,0,0-1.672-.828A2.125,2.125,0,0,0,23.2,56.781V60.82a2.129,2.129,0,0,0,1.984,1.156,1.954,1.954,0,0,0,1.652-.824A4.077,4.077,0,0,0,27.445,58.7Zm2.9-.008a4.993,4.993,0,0,1,.488-2.234,3.643,3.643,0,0,1,1.359-1.531,3.7,3.7,0,0,1,1.988-.539,3.565,3.565,0,0,1,2.793,1.2,4.6,4.6,0,0,1,1.066,3.18v.1a5.036,5.036,0,0,1-.473,2.215,3.589,3.589,0,0,1-1.352,1.527,3.743,3.743,0,0,1-2.02.547,3.556,3.556,0,0,1-2.785-1.2A4.575,4.575,0,0,1,30.344,58.8Zm1.453.172a3.616,3.616,0,0,0,.652,2.258,2.211,2.211,0,0,0,3.5-.012,3.955,3.955,0,0,0,.648-2.418,3.61,3.61,0,0,0-.66-2.254,2.1,2.1,0,0,0-1.754-.863,2.075,2.075,0,0,0-1.727.852A3.925,3.925,0,0,0,31.8,58.867Zm12.141-3.023a4.331,4.331,0,0,0-.711-.055A1.9,1.9,0,0,0,41.3,57v6H39.852V54.547h1.406l.023.977A2.251,2.251,0,0,1,43.3,54.391a1.477,1.477,0,0,1,.641.109Zm3.68-3.344v2.047H49.2v1.117H47.617v5.249a1.173,1.173,0,0,0,.211.763.888.888,0,0,0,.719.254,3.5,3.5,0,0,0,.688-.094V63a4.215,4.215,0,0,1-1.109.155,1.8,1.8,0,0,1-1.461-.586,2.517,2.517,0,0,1-.492-1.664V55.664H44.633V54.547h1.539V52.5ZM56.1,62.164a3.07,3.07,0,0,1-2.477.992,2.628,2.628,0,0,1-2.059-.785,3.4,3.4,0,0,1-.715-2.324v-5.5H52.3v5.461q0,1.922,1.563,1.922a2.163,2.163,0,0,0,2.2-1.234V54.547h1.445V63H56.133Zm4.969-7.617.047,1.063a3.08,3.08,0,0,1,2.531-1.219q2.68,0,2.7,3.023V63H64.906V57.406a1.946,1.946,0,0,0-.418-1.352,1.675,1.675,0,0,0-1.277-.437,2.086,2.086,0,0,0-1.234.375,2.546,2.546,0,0,0-.828.984V63H59.7V54.547ZM70.1,63H68.656V54.547H70.1ZM68.539,52.3a.863.863,0,0,1,.215-.594.807.807,0,0,1,.637-.242.819.819,0,0,1,.641.242.854.854,0,0,1,.219.594.826.826,0,0,1-.219.586.834.834,0,0,1-.641.234.821.821,0,0,1-.637-.234A.834.834,0,0,1,68.539,52.3Zm3.523,6.4a4.952,4.952,0,0,1,.922-3.129,3.137,3.137,0,0,1,4.766-.168V51H79.2V63H77.867l-.07-.906a2.943,2.943,0,0,1-2.414,1.063,2.887,2.887,0,0,1-2.395-1.2,5.008,5.008,0,0,1-.926-3.141Zm1.445.164a3.749,3.749,0,0,0,.594,2.25,1.92,1.92,0,0,0,1.641.813A2.108,2.108,0,0,0,77.75,60.7V56.813a2.125,2.125,0,0,0-1.992-1.2,1.929,1.929,0,0,0-1.656.82A4.128,4.128,0,0,0,73.508,58.867ZM86.656,63a3.036,3.036,0,0,1-.2-.891,3.225,3.225,0,0,1-2.406,1.047A2.984,2.984,0,0,1,82,62.449a2.288,2.288,0,0,1-.8-1.793,2.39,2.39,0,0,1,1-2.051,4.733,4.733,0,0,1,2.824-.73H86.43v-.664A1.623,1.623,0,0,0,85.977,56a1.821,1.821,0,0,0-1.336-.449,2.107,2.107,0,0,0-1.3.391,1.151,1.151,0,0,0-.523.945H81.367a2,2,0,0,1,.449-1.223,3.066,3.066,0,0,1,1.219-.934,4.1,4.1,0,0,1,1.691-.344,3.342,3.342,0,0,1,2.289.73,2.635,2.635,0,0,1,.859,2.012v3.891a4.757,4.757,0,0,0,.3,1.852V63Zm-2.4-1.1a2.54,2.54,0,0,0,1.289-.352,2.127,2.127,0,0,0,.883-.914V58.9H85.3q-2.656,0-2.656,1.555a1.316,1.316,0,0,0,.453,1.063A1.742,1.742,0,0,0,84.258,61.9Zm5.531-3.2a4.952,4.952,0,0,1,.922-3.129,3.137,3.137,0,0,1,4.766-.168V51h1.445V63H95.594l-.07-.906a2.943,2.943,0,0,1-2.414,1.063,2.887,2.887,0,0,1-2.395-1.2,5.008,5.008,0,0,1-.926-3.141Zm1.445.164a3.749,3.749,0,0,0,.594,2.25,1.92,1.92,0,0,0,1.641.813A2.108,2.108,0,0,0,95.477,60.7V56.813a2.125,2.125,0,0,0-1.992-1.2,1.929,1.929,0,0,0-1.656.82A4.128,4.128,0,0,0,91.234,58.867Zm11.438,4.289a3.693,3.693,0,0,1-2.8-1.129,4.19,4.19,0,0,1-1.078-3.02v-.266a5.073,5.073,0,0,1,.48-2.246,3.748,3.748,0,0,1,1.344-1.547,3.378,3.378,0,0,1,1.871-.559,3.166,3.166,0,0,1,2.563,1.086,4.7,4.7,0,0,1,.914,3.109v.6h-5.727a3,3,0,0,0,.73,2.02,2.3,2.3,0,0,0,1.777.77,2.517,2.517,0,0,0,1.3-.312,3.259,3.259,0,0,0,.93-.828l.883.688A3.55,3.55,0,0,1,102.672,63.156Zm-.18-7.578a1.928,1.928,0,0,0-1.469.637A3.1,3.1,0,0,0,100.289,58h4.234v-.109a2.753,2.753,0,0,0-.594-1.707A1.815,1.815,0,0,0,102.492,55.578Zm10.07,5.18a1.064,1.064,0,0,0-.441-.91,4.249,4.249,0,0,0-1.539-.559,7.277,7.277,0,0,1-1.742-.562,2.479,2.479,0,0,1-.953-.781,1.869,1.869,0,0,1-.309-1.078,2.193,2.193,0,0,1,.879-1.758,3.432,3.432,0,0,1,2.246-.719,3.532,3.532,0,0,1,2.332.742,2.357,2.357,0,0,1,.895,1.9h-1.453a1.3,1.3,0,0,0-.5-1.023,1.888,1.888,0,0,0-1.27-.43,1.976,1.976,0,0,0-1.234.344,1.082,1.082,0,0,0-.445.9.877.877,0,0,0,.414.789,5.1,5.1,0,0,0,1.5.508,7.8,7.8,0,0,1,1.754.578,2.558,2.558,0,0,1,1,.809,1.988,1.988,0,0,1,.324,1.152,2.163,2.163,0,0,1-.906,1.816,3.8,3.8,0,0,1-2.352.684,4.257,4.257,0,0,1-1.8-.359,2.922,2.922,0,0,1-1.223-1,2.42,2.42,0,0,1-.441-1.395h1.445a1.5,1.5,0,0,0,.582,1.152,2.258,2.258,0,0,0,1.434.426,2.331,2.331,0,0,0,1.316-.332A1.02,1.02,0,0,0,112.563,60.758ZM.742,82.7a4.952,4.952,0,0,1,.922-3.129,2.915,2.915,0,0,1,2.414-1.184A2.932,2.932,0,0,1,6.43,79.406V75H7.875V87H6.547l-.07-.906a2.943,2.943,0,0,1-2.414,1.063,2.887,2.887,0,0,1-2.395-1.2,5.008,5.008,0,0,1-.926-3.141Zm1.445.164a3.749,3.749,0,0,0,.594,2.25,1.92,1.92,0,0,0,1.641.813A2.109,2.109,0,0,0,6.43,84.7V80.813a2.125,2.125,0,0,0-1.992-1.2,1.929,1.929,0,0,0-1.656.82A4.128,4.128,0,0,0,2.188,82.867Zm11.438,4.289a3.693,3.693,0,0,1-2.8-1.129,4.19,4.19,0,0,1-1.078-3.02v-.266a5.073,5.073,0,0,1,.48-2.246,3.748,3.748,0,0,1,1.344-1.547,3.378,3.378,0,0,1,1.871-.559,3.166,3.166,0,0,1,2.563,1.086,4.7,4.7,0,0,1,.914,3.109v.6H11.2a3,3,0,0,0,.73,2.02,2.3,2.3,0,0,0,1.777.77,2.517,2.517,0,0,0,1.3-.312,3.259,3.259,0,0,0,.93-.828l.883.688A3.55,3.55,0,0,1,13.625,87.156Zm-.18-7.578a1.928,1.928,0,0,0-1.469.637A3.1,3.1,0,0,0,11.242,82h4.234v-.109a2.753,2.753,0,0,0-.594-1.707A1.815,1.815,0,0,0,13.445,79.578ZM20.164,87H18.719V75h1.445Zm13.414-4.133a5.062,5.062,0,0,1-.883,3.109,2.829,2.829,0,0,1-2.391,1.18,3.1,3.1,0,0,1-2.422-.977v4.07H26.438v-11.7h1.32l.07.938a2.977,2.977,0,0,1,2.453-1.094,2.882,2.882,0,0,1,2.41,1.148,5.117,5.117,0,0,1,.887,3.2ZM32.133,82.7a3.735,3.735,0,0,0-.609-2.258,1.963,1.963,0,0,0-1.672-.828,2.125,2.125,0,0,0-1.969,1.164V84.82a2.129,2.129,0,0,0,1.984,1.156,1.954,1.954,0,0,0,1.652-.824A4.077,4.077,0,0,0,32.133,82.7ZM39.5,79.844a4.331,4.331,0,0,0-.711-.055A1.9,1.9,0,0,0,36.859,81v6H35.414V78.547H36.82l.023.977a2.251,2.251,0,0,1,2.016-1.133,1.477,1.477,0,0,1,.641.109Zm.789,2.852a4.993,4.993,0,0,1,.488-2.234,3.642,3.642,0,0,1,1.359-1.531,3.7,3.7,0,0,1,1.988-.539,3.565,3.565,0,0,1,2.793,1.2,4.6,4.6,0,0,1,1.066,3.18v.1a5.036,5.036,0,0,1-.473,2.215,3.589,3.589,0,0,1-1.352,1.527,3.743,3.743,0,0,1-2.02.547,3.556,3.556,0,0,1-2.785-1.2A4.575,4.575,0,0,1,40.289,82.8Zm1.453.172a3.616,3.616,0,0,0,.652,2.258,2.211,2.211,0,0,0,3.5-.012,3.955,3.955,0,0,0,.648-2.418,3.61,3.61,0,0,0-.66-2.254,2.1,2.1,0,0,0-1.754-.863,2.075,2.075,0,0,0-1.727.852A3.925,3.925,0,0,0,41.742,82.867Zm7.711-.164a4.968,4.968,0,0,1,.914-3.145,3.151,3.151,0,0,1,4.836-.074l.07-.937h1.32V86.8a3.439,3.439,0,0,1-.973,2.586,3.589,3.589,0,0,1-2.613.945,4.348,4.348,0,0,1-1.789-.391,3.08,3.08,0,0,1-1.336-1.07l.75-.867a2.826,2.826,0,0,0,2.273,1.148,2.214,2.214,0,0,0,1.645-.594,2.269,2.269,0,0,0,.59-1.672v-.727a2.971,2.971,0,0,1-2.367,1,2.887,2.887,0,0,1-2.4-1.2A5.224,5.224,0,0,1,49.453,82.7Zm1.453.164a3.79,3.79,0,0,0,.586,2.246,1.9,1.9,0,0,0,1.641.816,2.117,2.117,0,0,0,2.008-1.242V80.828a2.142,2.142,0,0,0-1.992-1.211,1.921,1.921,0,0,0-1.648.82A4.128,4.128,0,0,0,50.906,82.867Zm11.953-3.023a4.331,4.331,0,0,0-.711-.055A1.9,1.9,0,0,0,60.219,81v6H58.773V78.547H60.18l.023.977a2.251,2.251,0,0,1,2.016-1.133,1.477,1.477,0,0,1,.641.109ZM69.094,87a3.036,3.036,0,0,1-.2-.891,3.225,3.225,0,0,1-2.406,1.047,2.984,2.984,0,0,1-2.051-.707,2.287,2.287,0,0,1-.8-1.793,2.39,2.39,0,0,1,1-2.051,4.733,4.733,0,0,1,2.824-.73h1.406v-.664A1.623,1.623,0,0,0,68.414,80a1.821,1.821,0,0,0-1.336-.449,2.108,2.108,0,0,0-1.3.391,1.151,1.151,0,0,0-.523.945H63.8a2,2,0,0,1,.449-1.223,3.066,3.066,0,0,1,1.219-.934,4.1,4.1,0,0,1,1.691-.344,3.342,3.342,0,0,1,2.289.73,2.635,2.635,0,0,1,.859,2.012v3.891a4.757,4.757,0,0,0,.3,1.852V87Zm-2.4-1.1a2.54,2.54,0,0,0,1.289-.352,2.127,2.127,0,0,0,.883-.914V82.9H67.734q-2.656,0-2.656,1.555a1.316,1.316,0,0,0,.453,1.063A1.742,1.742,0,0,0,66.7,85.9Zm7.242-7.352.039.938a3.122,3.122,0,0,1,2.508-1.094A2.417,2.417,0,0,1,78.9,79.75a3.2,3.2,0,0,1,1.1-.984,3.242,3.242,0,0,1,1.6-.375q2.781,0,2.828,2.945V87H82.977V81.422a1.941,1.941,0,0,0-.414-1.355,1.823,1.823,0,0,0-1.391-.449,1.916,1.916,0,0,0-1.336.48,1.949,1.949,0,0,0-.617,1.293V87H77.766V81.461a1.613,1.613,0,0,0-1.8-1.844,1.934,1.934,0,0,0-1.945,1.211V87H72.57V78.547ZM91.82,87a3.036,3.036,0,0,1-.2-.891,3.225,3.225,0,0,1-2.406,1.047,2.984,2.984,0,0,1-2.051-.707,2.287,2.287,0,0,1-.8-1.793,2.39,2.39,0,0,1,1-2.051,4.733,4.733,0,0,1,2.824-.73h1.406v-.664A1.623,1.623,0,0,0,91.141,80a1.821,1.821,0,0,0-1.336-.449,2.108,2.108,0,0,0-1.3.391,1.151,1.151,0,0,0-.523.945H86.531a2,2,0,0,1,.449-1.223,3.066,3.066,0,0,1,1.219-.934,4.1,4.1,0,0,1,1.691-.344,3.342,3.342,0,0,1,2.289.73,2.635,2.635,0,0,1,.859,2.012v3.891a4.757,4.757,0,0,0,.3,1.852V87Zm-2.4-1.1a2.54,2.54,0,0,0,1.289-.352,2.127,2.127,0,0,0,.883-.914V82.9H90.461q-2.656,0-2.656,1.555a1.316,1.316,0,0,0,.453,1.063A1.742,1.742,0,0,0,89.422,85.9Zm9.492-3.2a4.952,4.952,0,0,1,.922-3.129,3.137,3.137,0,0,1,4.766-.168V75h1.445V87h-1.328l-.07-.906a2.943,2.943,0,0,1-2.414,1.063,2.887,2.887,0,0,1-2.395-1.2,5.008,5.008,0,0,1-.926-3.141Zm1.445.164a3.749,3.749,0,0,0,.594,2.25,1.92,1.92,0,0,0,1.641.813A2.109,2.109,0,0,0,104.6,84.7V80.813a2.125,2.125,0,0,0-1.992-1.2,1.929,1.929,0,0,0-1.656.82A4.128,4.128,0,0,0,100.359,82.867ZM111.8,87.156a3.693,3.693,0,0,1-2.8-1.129,4.19,4.19,0,0,1-1.078-3.02v-.266a5.073,5.073,0,0,1,.48-2.246,3.748,3.748,0,0,1,1.344-1.547,3.378,3.378,0,0,1,1.871-.559,3.166,3.166,0,0,1,2.563,1.086,4.7,4.7,0,0,1,.914,3.109v.6h-5.727a3,3,0,0,0,.73,2.02,2.3,2.3,0,0,0,1.777.77,2.517,2.517,0,0,0,1.3-.312,3.259,3.259,0,0,0,.93-.828l.883.688A3.55,3.55,0,0,1,111.8,87.156Zm-.18-7.578a1.928,1.928,0,0,0-1.469.637A3.1,3.1,0,0,0,109.414,82h4.234v-.109a2.753,2.753,0,0,0-.594-1.707A1.815,1.815,0,0,0,111.617,79.578ZM6.313,111a3.036,3.036,0,0,1-.2-.891A3.225,3.225,0,0,1,3.7,111.156a2.984,2.984,0,0,1-2.051-.707,2.287,2.287,0,0,1-.8-1.793,2.39,2.39,0,0,1,1-2.051,4.733,4.733,0,0,1,2.824-.73H6.086v-.664A1.623,1.623,0,0,0,5.633,104a1.821,1.821,0,0,0-1.336-.449,2.108,2.108,0,0,0-1.3.391,1.151,1.151,0,0,0-.523.945H1.023a2,2,0,0,1,.449-1.223,3.066,3.066,0,0,1,1.219-.934,4.1,4.1,0,0,1,1.691-.344,3.342,3.342,0,0,1,2.289.73,2.635,2.635,0,0,1,.859,2.012v3.891a4.757,4.757,0,0,0,.3,1.852V111Zm-2.4-1.1a2.54,2.54,0,0,0,1.289-.352,2.127,2.127,0,0,0,.883-.914V106.9H4.953q-2.656,0-2.656,1.555a1.316,1.316,0,0,0,.453,1.063A1.742,1.742,0,0,0,3.914,109.9Zm11.1.266a3.07,3.07,0,0,1-2.477.992,2.628,2.628,0,0,1-2.059-.785,3.4,3.4,0,0,1-.715-2.324v-5.5h1.445v5.461q0,1.922,1.563,1.922a2.163,2.163,0,0,0,2.2-1.234v-6.148h1.445V111H15.047Zm3.25-3.461a4.952,4.952,0,0,1,.922-3.129,3.137,3.137,0,0,1,4.766-.168V99H25.4v12H24.07l-.07-.906a2.943,2.943,0,0,1-2.414,1.063,2.887,2.887,0,0,1-2.395-1.2,5.008,5.008,0,0,1-.926-3.141Zm1.445.164a3.749,3.749,0,0,0,.594,2.25,1.92,1.92,0,0,0,1.641.813,2.109,2.109,0,0,0,2.008-1.234v-3.883a2.125,2.125,0,0,0-1.992-1.2,1.929,1.929,0,0,0-1.656.82A4.128,4.128,0,0,0,19.711,106.867Zm9.5,4.133H27.766v-8.453h1.445Zm-1.562-10.7a.863.863,0,0,1,.215-.594.807.807,0,0,1,.637-.242.819.819,0,0,1,.641.242.854.854,0,0,1,.219.594.826.826,0,0,1-.219.586.834.834,0,0,1-.641.234.821.821,0,0,1-.637-.234A.834.834,0,0,1,27.648,100.3Zm5.836.2v2.047h1.578v1.117H33.484v5.249a1.173,1.173,0,0,0,.211.763.888.888,0,0,0,.719.254,3.5,3.5,0,0,0,.688-.094V111a4.215,4.215,0,0,1-1.109.155,1.8,1.8,0,0,1-1.461-.586,2.517,2.517,0,0,1-.492-1.664v-5.242H30.5v-1.117h1.539V100.5Zm2.727,6.2a4.993,4.993,0,0,1,.488-2.234,3.642,3.642,0,0,1,1.359-1.531,3.7,3.7,0,0,1,1.988-.539,3.565,3.565,0,0,1,2.793,1.2,4.6,4.6,0,0,1,1.066,3.18v.1a5.036,5.036,0,0,1-.473,2.215,3.589,3.589,0,0,1-1.352,1.527,3.743,3.743,0,0,1-2.02.547,3.556,3.556,0,0,1-2.785-1.2,4.575,4.575,0,0,1-1.066-3.164Zm1.453.172a3.616,3.616,0,0,0,.652,2.258,2.211,2.211,0,0,0,3.5-.012,3.955,3.955,0,0,0,.648-2.418,3.61,3.61,0,0,0-.66-2.254,2.1,2.1,0,0,0-1.754-.863,2.075,2.075,0,0,0-1.727.852A3.925,3.925,0,0,0,37.664,106.867ZM49.8,103.844a4.331,4.331,0,0,0-.711-.055A1.9,1.9,0,0,0,47.164,105v6H45.719v-8.453h1.406l.023.977a2.251,2.251,0,0,1,2.016-1.133,1.477,1.477,0,0,1,.641.109ZM52.7,111H51.258v-8.453H52.7Zm-1.562-10.7a.863.863,0,0,1,.215-.594.807.807,0,0,1,.637-.242.819.819,0,0,1,.641.242.854.854,0,0,1,.219.594.826.826,0,0,1-.219.586.834.834,0,0,1-.641.234.821.821,0,0,1-.637-.234A.834.834,0,0,1,51.141,100.3ZM60.234,111a3.036,3.036,0,0,1-.2-.891,3.225,3.225,0,0,1-2.406,1.047,2.984,2.984,0,0,1-2.051-.707,2.287,2.287,0,0,1-.8-1.793,2.39,2.39,0,0,1,1-2.051,4.733,4.733,0,0,1,2.824-.73h1.406v-.664A1.623,1.623,0,0,0,59.555,104a1.821,1.821,0,0,0-1.336-.449,2.108,2.108,0,0,0-1.3.391,1.151,1.151,0,0,0-.523.945H54.945a2,2,0,0,1,.449-1.223,3.066,3.066,0,0,1,1.219-.934,4.1,4.1,0,0,1,1.691-.344,3.342,3.342,0,0,1,2.289.73,2.635,2.635,0,0,1,.859,2.012v3.891a4.757,4.757,0,0,0,.3,1.852V111Zm-2.4-1.1a2.54,2.54,0,0,0,1.289-.352,2.127,2.127,0,0,0,.883-.914V106.9H58.875q-2.656,0-2.656,1.555a1.316,1.316,0,0,0,.453,1.063A1.742,1.742,0,0,0,57.836,109.9Zm5.914.344a.905.905,0,0,1,.223-.625.848.848,0,0,1,.668-.25.874.874,0,0,1,.676.25.887.887,0,0,1,.23.625.839.839,0,0,1-.23.6.89.89,0,0,1-.676.242.8.8,0,0,1-.891-.844Z" transform="translate(19 10)" fill="#fff"/>
          </g>
          <g id="Group_1071962" data-name="Group 1071962" transform="translate(1277 2707)">
            <rect id="Rectangle_377379-10" data-name="Rectangle 377379" width="143" height="117" rx="18" fill="#304c8e"/>
            <text id="_5.7_Revisar_y_mejorar_el_programa_de_auditoria_" data-name="5.7 Revisar y mejorar el programa de auditoria
" transform="translate(19 10)" fill="#fff" font-size="16" font-family="Roboto-Regular, Roboto"><tspan x="0" y="15">5.7 Revisar y </tspan><tspan x="0" y="39">mejorar el </tspan><tspan x="0" y="63">programa de </tspan><tspan x="0" y="87">auditoria</tspan></text>
          </g>
          <g id="Group_1071968" data-name="Group 1071968" transform="translate(1261.927 3474.7)">
            <g id="Path_612082" data-name="Path 612082" fill="#fff">
              <path d="M 141.7142639160156 89.60010528564453 L 13.285719871521 89.60010528564453 C 11.72463989257812 89.60010528564453 10.19470024108887 89.01030731201172 8.738419532775879 87.84712982177734 C 7.264120101928711 86.66952514648438 5.93064022064209 84.96592712402344 4.775040149688721 82.78364562988281 C 2.340660095214844 78.18648529052734 1 72.05223083496094 1 65.51084899902344 L 1 25.08924865722656 C 1 18.5478687286377 2.340660095214844 12.41360855102539 4.775040149688721 7.81644868850708 C 5.93064022064209 5.63416862487793 7.264120101928711 3.930588722229004 8.738419532775879 2.752988815307617 C 10.19470024108887 1.589788794517517 11.72463989257812 1.000008821487427 13.285719871521 1.000008821487427 L 141.7142639160156 1.000008821487427 C 143.2753601074219 1.000008821487427 144.8052978515625 1.589788794517517 146.2615814208984 2.752988815307617 C 147.7359008789062 3.930588722229004 149.0693664550781 5.63416862487793 150.2249603271484 7.81644868850708 C 152.6593475341797 12.41360855102539 154 18.5478687286377 154 25.08924865722656 L 154 65.51084899902344 C 154 72.05223083496094 152.6593475341797 78.18650817871094 150.2249603271484 82.78364562988281 C 149.0693664550781 84.96592712402344 147.7359008789062 86.66952514648438 146.2615814208984 87.84712982177734 C 144.8052978515625 89.01030731201172 143.2753601074219 89.60010528564453 141.7142639160156 89.60010528564453 Z" stroke="none"/>
              <path d="M 13.28570556640625 2.000007629394531 C 11.95710754394531 2.000007629394531 10.63714599609375 2.5162353515625 9.362503051757812 3.534339904785156 C 8.015213012695312 4.610488891601562 6.734481811523438 6.2530517578125 5.658767700195312 8.284423828125 C 4.521942138671875 10.4312744140625 3.625961303710938 12.94659423828125 2.995712280273438 15.76050567626953 C 2.335006713867188 18.71038055419922 2 21.84902954101562 2 25.08925628662109 L 2 65.51084136962891 C 2 68.75106811523438 2.335006713867188 71.88971710205078 2.995712280273438 74.83959197998047 C 3.625961303710938 77.65350341796875 4.521942138671875 80.1688232421875 5.658767700195312 82.315673828125 C 6.734481811523438 84.3470458984375 8.015213012695312 85.98960876464844 9.362503051757812 87.06575775146484 C 10.63714599609375 88.0838623046875 11.95710754394531 88.60009002685547 13.28570556640625 88.60009002685547 L 141.7142639160156 88.60009002685547 C 143.0428924560547 88.60009002685547 144.3628540039062 88.0838623046875 145.6374969482422 87.06575775146484 C 146.9847869873047 85.98960876464844 148.2655181884766 84.3470458984375 149.3412322998047 82.315673828125 C 150.4780578613281 80.1688232421875 151.3740386962891 77.65350341796875 152.0042877197266 74.83959197998047 C 152.6649932861328 71.88971710205078 153 68.75106811523438 153 65.51084136962891 L 153 25.08925628662109 C 153 21.84902954101562 152.6649932861328 18.71038055419922 152.0042877197266 15.76050567626953 C 151.3740386962891 12.94659423828125 150.4780578613281 10.4312744140625 149.3412322998047 8.284423828125 C 148.2655181884766 6.2530517578125 146.9847869873047 4.610488891601562 145.6374969482422 3.534339904785156 C 144.3628540039062 2.5162353515625 143.0428924560547 2.000007629394531 141.7142639160156 2.000007629394531 L 13.28570556640625 2.000007629394531 M 13.28570556640625 7.62939453125e-06 L 141.7142639160156 7.62939453125e-06 C 149.0517883300781 7.62939453125e-06 155 11.23284149169922 155 25.08925628662109 L 155 65.51084136962891 C 155 79.36725616455078 149.0517883300781 90.60009002685547 141.7142639160156 90.60009002685547 L 13.28570556640625 90.60009002685547 C 5.948211669921875 90.60009002685547 0 79.36725616455078 0 65.51084136962891 L 0 25.08925628662109 C 0 11.23284149169922 5.948211669921875 7.62939453125e-06 13.28570556640625 7.62939453125e-06 Z" stroke="none" fill="#304c8e"/>
            </g>
            <text id="_6.7_Realizar_auditoria_de_seguimiento_" data-name="6.7 Realizar auditoria de seguimiento
" transform="translate(19.4 10)" fill="#304c8e" font-size="16" font-family="Roboto-Regular, Roboto"><tspan x="0" y="15">6.7 Realizar </tspan><tspan x="0" y="39">auditoria de </tspan><tspan x="0" y="63">seguimiento</tspan></text>
          </g>
          <g id="Group_1072124" data-name="Group 1072124">
            <g id="Group_1071986" data-name="Group 1071986" transform="translate(144 623.3)">
              <g id="Group_1071983" data-name="Group 1071983" transform="translate(1600 5426.699) rotate(180)">
                <line id="Line_918" data-name="Line 918" y2="87.3" transform="translate(370 2391.9)" fill="none" stroke="#304c8e" stroke-width="2"/>
              </g>
              <path id="Polygon_2" data-name="Polygon 2" d="M6,0l6,11H0Z" transform="translate(1224 2942)" fill="#304c8e"/>
            </g>
            <g id="Group_1071983-2" data-name="Group 1071983" transform="translate(-1071.9 4028.099) rotate(-90)">
              <line id="Line_918-2" data-name="Line 918" y2="54.5" transform="translate(370 2391.9)" fill="none" stroke="#304c8e" stroke-width="2"/>
            </g>
          </g>
          <g id="Group_1072123" data-name="Group 1072123" transform="translate(-1712.073 4748.05) rotate(-90)">
            <g id="Group_1071983-3" data-name="Group 1071983" transform="translate(1600 5366.64) rotate(180)">
              <line id="Line_918-3" data-name="Line 918" y2="27.24" transform="translate(370 2391.9)" fill="none" stroke="#304c8e" stroke-width="2"/>
            </g>
            <path id="Polygon_2-2" data-name="Polygon 2" d="M6,0l6,11H0Z" transform="translate(1224 2942)" fill="#304c8e"/>
          </g>
        </g>
      </g>
    </g>
  </g>
</svg>
