<svg xmlns="http://www.w3.org/2000/svg" width="400" height="255" viewBox="0 0 400 255">
  <g id="Group_1072776" data-name="Group 1072776" transform="translate(123 8485.354)">
    <g id="Group_8" data-name="Group 8" transform="translate(-47.897 -8485.354)">
      <path id="Path_609696" data-name="Path 609696" d="M250.452,80.345a49.962,49.962,0,0,1-.067,11.913q-.161,1.864-.474,3.7c-.094.549-.189,1.088-.283,1.629a40.9,40.9,0,0,1-8.363,18.781q-.207.256-.419.51A60.318,60.318,0,0,1,226.4,129.758a167.594,167.594,0,0,1-17.978,10.253q-1.214.62-2.379,1.315a55.882,55.882,0,0,0-6.9,4.6c-8.658,6.413-13.112,15.463-15.637,25.475a122.214,122.214,0,0,0-2.674,15.5c2.511,40.853-34.352,73.118-77.2,67.457a44.1,44.1,0,0,1-4.761-1.335,45.084,45.084,0,0,1-14.592-7.827c-7.481-6.128-12.052-13.752-15.569-21.971-1.173-2.739-2.228-5.545-3.235-8.382-2.945-8.471-5.5-17.556-12.662-23.918-10.746-9.542-24.1-13.523-36.687-21.056a32.3,32.3,0,0,1-7.354-50.128c2-2.248,4.037-4.192,6.112-6.32C25.689,103.232,41.192,101.4,55.8,97.3c8.635-2.619,16.179-7.566,19.11-16.145,6.376-17.568,10.2-35.323,21.268-49.8,1.519-2.177,3.126-4.288,4.821-6.312A67.109,67.109,0,0,1,118.736,9.786,53.478,53.478,0,0,1,127.283,5.8c32.173-13.045,75.695-4.218,99.858,27.707a150.15,150.15,0,0,1,12,17.988,133.333,133.333,0,0,1,7.536,15.874c.6,1.771,1.253,3.361,1.828,5.13A47.228,47.228,0,0,1,250.452,80.345Z" transform="translate(0 0)" fill="#e2e7fe"/>
      <path id="Path_609697" data-name="Path 609697" d="M96.364,78.9A24.488,24.488,0,0,1,85.185,89.153c-4.168,1.732-8.493,1.665-12.042-.583s-5.652-6.252-6.148-10.928a24.7,24.7,0,0,1,3.594-15A25.2,25.2,0,0,1,82.145,52.2c4.391-1.843,8.912-1.873,12.462.378s5.482,6.345,5.768,11.124A27.113,27.113,0,0,1,96.364,78.9Z" transform="translate(-24.184 -18.235)" fill="#e2e7fe"/>
      <path id="Path_609698" data-name="Path 609698" d="M336.214,257.661c4.48,7.679-.238,17.874-8.38,22.57a20.222,20.222,0,0,1-13.2,2.679,14.4,14.4,0,0,1-10.074-6.095,12.714,12.714,0,0,1-1.265-11.175c2.889-8.452,12.835-13.795,22.228-13.443C330.051,252.414,334.018,254.2,336.214,257.661Z" transform="translate(-109.4 -94.245)" fill="#e2e7fe"/>
      <g id="Group_1071553" data-name="Group 1071553" transform="translate(72.355 64.719)">
        <path id="Path_609699" data-name="Path 609699" d="M222.016,268.343l-97.39-13.67a13.151,13.151,0,0,1-11.162-14.857L130.03,120.682a13.111,13.111,0,0,1,14.788-11.214l97.39,13.67a13.153,13.153,0,0,1,11.163,14.857L236.8,257.129A13.111,13.111,0,0,1,222.016,268.343Z" transform="translate(-113.336 -109.339)" fill="#304c8e" opacity="0.19"/>
      </g>
      <path id="Path_609700" data-name="Path 609700" d="M209.084,251.575l-97.39-13.67a13.152,13.152,0,0,1-11.162-14.857L117.1,103.913A13.111,13.111,0,0,1,131.885,92.7l97.39,13.67a13.152,13.152,0,0,1,11.162,14.857L223.872,240.36A13.112,13.112,0,0,1,209.084,251.575Z" transform="translate(-36.305 -36.368)" fill="#e6e6f5"/>
      <path id="Path_609701" data-name="Path 609701" d="M154.9,145.472l5.515,7.34L173.3,141.489" transform="translate(-56.009 -52.709)" fill="none" stroke="#60cb28" stroke-linecap="round" stroke-miterlimit="10" stroke-width="39.987"/>
      <path id="Path_609702" data-name="Path 609702" d="M202.607,147.517l52.36,7.349" transform="translate(-73.26 -54.922)" fill="none" stroke="#ffe126" stroke-linecap="round" stroke-miterlimit="10" stroke-width="39.987"/>
      <path id="Path_609703" data-name="Path 609703" d="M200.71,161.092l35.595,5" transform="translate(-72.574 -59.956)" fill="none" stroke="#ffe126" stroke-linecap="round" stroke-miterlimit="10" stroke-width="39.987"/>
      <path id="Path_609704" data-name="Path 609704" d="M160.533,199.679,147.65,211" transform="translate(-53.389 -74.386)" fill="none" stroke="#7e19b8" stroke-linecap="round" stroke-miterlimit="10" stroke-width="39.987"/>
      <path id="Path_609705" data-name="Path 609705" d="M160.183,211.36l-11.27-12.944" transform="translate(-53.845 -73.934)" fill="none" stroke="#7e19b8" stroke-linecap="round" stroke-miterlimit="10" stroke-width="39.987"/>
      <path id="Path_609706" data-name="Path 609706" d="M194.328,206.771l52.361,7.349" transform="translate(-70.267 -76.983)" fill="none" stroke="#ffe126" stroke-linecap="round" stroke-miterlimit="10" stroke-width="39.987"/>
      <path id="Path_609707" data-name="Path 609707" d="M192.432,220.346l25.889,3.634" transform="translate(-69.581 -81.993)" fill="none" stroke="#ffe126" stroke-linecap="round" stroke-miterlimit="10" stroke-width="39.987"/>
      <path id="Path_609708" data-name="Path 609708" d="M138.342,263.979l5.514,7.34L156.739,260" transform="translate(-50.023 -96.856)" fill="none" stroke="#60cb28" stroke-linecap="round" stroke-miterlimit="10" stroke-width="39.987"/>
      <path id="Path_609709" data-name="Path 609709" d="M186.051,266.023l11.205,1.573" transform="translate(-67.274 -98.961)" fill="none" stroke="#ffe126" stroke-linecap="round" stroke-miterlimit="10" stroke-width="39.987"/>
      <path id="Path_609710" data-name="Path 609710" d="M184.154,279.6l42.229,5.927" transform="translate(-66.588 -104.076)" fill="none" stroke="#ffe126" stroke-linecap="round" stroke-miterlimit="10" stroke-width="39.987"/>
      <path id="Path_609711" data-name="Path 609711" d="M212.022,228.838H112.467A14.414,14.414,0,0,1,97.818,214.67V99.128a10.221,10.221,0,0,1,11.72-9.9l103.87,13.6a10.111,10.111,0,0,1,8.948,9.9V218.843A10.169,10.169,0,0,1,212.022,228.838Z" transform="translate(-35.37 -31.962)" fill="#304c8e" opacity="0.19"/>
      <path id="Path_609712" data-name="Path 609712" d="M196.894,215.49H93.024A10.358,10.358,0,0,1,82.69,205.108V73.7A10.358,10.358,0,0,1,93.024,63.321h103.87A10.358,10.358,0,0,1,207.228,73.7v131.4A10.358,10.358,0,0,1,196.894,215.49Z" transform="translate(-29.9 -24.737)" fill="#f5f5f5"/>
      <path id="Path_609713" data-name="Path 609713" d="M126.171,207.791l3.315,3.33,10.122-11.753" transform="translate(-45.622 -74.275)" fill="none" stroke="#60cb28" stroke-linecap="square" stroke-miterlimit="10" stroke-width="7"/>
      <path id="Path_609714" data-name="Path 609714" d="M164.881,202.4h47.781" transform="translate(-59.619 -75.277)" fill="none" stroke="#ffe126" stroke-linecap="square" stroke-miterlimit="10" stroke-width="7"/>
      <path id="Path_609715" data-name="Path 609715" d="M164.881,214.789h32.482" transform="translate(-59.619 -79.885)" fill="none" stroke="#ffe126" stroke-linecap="square" stroke-miterlimit="10" stroke-width="7"/>
      <path id="Path_609716" data-name="Path 609716" d="M131.8,134.118H120.79v20.029H131.8Z" transform="translate(-43.676 -50.03)" fill="#60cb28"/>
      <path id="Path_609717" data-name="Path 609717" d="M157.63,125.845H146.619V151.18H157.63Z" transform="translate(-53.016 -46.985)" fill="#60cb28"/>
      <path id="Path_609718" data-name="Path 609718" d="M183.459,116.487H172.448v31.337h11.011Z" transform="translate(-62.355 -43.536)" fill="#60cb28"/>
      <path id="Path_609719" data-name="Path 609719" d="M209.289,108.032H198.278v36.76h11.011Z" transform="translate(-71.695 -40.416)" fill="#60cb28"/>
      <path id="Path_609720" data-name="Path 609720" d="M235.118,95.106H224.107v45.052h11.011Z" transform="translate(-81.034 -35.637)" fill="#60cb28"/>
      <path id="Path_609721" data-name="Path 609721" d="M126.171,252.518l3.315,3.331L139.608,244.1" transform="translate(-45.622 -90.938)" fill="none" stroke="#60cb28" stroke-linecap="square" stroke-miterlimit="10" stroke-width="7"/>
      <path id="Path_609722" data-name="Path 609722" d="M164.881,247.128h47.781" transform="translate(-59.619 -91.912)" fill="none" stroke="#ffe126" stroke-linecap="square" stroke-miterlimit="10" stroke-width="7"/>
      <path id="Path_609723" data-name="Path 609723" d="M164.881,259.516h38.536" transform="translate(-59.619 -96.52)" fill="none" stroke="#ffe126" stroke-linecap="square" stroke-miterlimit="10" stroke-width="7"/>
      <path id="Path_609724" data-name="Path 609724" d="M381.145,176.835l-3.371-.547-.977,6.078,3.371.547Z" transform="translate(-136.245 -65.627)" fill="#fff"/>
      <path id="Path_609725" data-name="Path 609725" d="M372.042,215.878l7.031-43.715,1.561.253-6.779,42.146A1.582,1.582,0,0,1,372.042,215.878Z" transform="translate(-134.526 -64.494)" fill="#304c8e"/>
      <path id="Path_609726" data-name="Path 609726" d="M357.859,262.95l-5.788,8.52-2.823-9.919L364.955,163.9a4.362,4.362,0,1,1,8.612,1.4Z" transform="translate(-126.284 -61.181)" fill="#304c8e" opacity="0.19"/>
      <path id="Path_609727" data-name="Path 609727" d="M350.895,258.762l-8.612-1.4,15.707-97.652a4.362,4.362,0,1,1,8.612,1.4Z" transform="translate(-123.766 -59.386)" fill="#7e19b8"/>
      <path id="Path_609728" data-name="Path 609728" d="M353.334,258.795l-4.305-.7,16.4-101.978a4.379,4.379,0,0,1,3.61,5.025Z" transform="translate(-126.205 -59.418)" fill="#304c8e" opacity="0.17"/>
      <path id="Path_609729" data-name="Path 609729" d="M365.8,222.026l-8.612-1.4-.345,2.146,8.612,1.4Z" transform="translate(-129.031 -82.097)" fill="#fff"/>
      <path id="Path_609730" data-name="Path 609730" d="M345.821,324.029l-.925-.15-1.78-9.727,7.443,1.208Z" transform="translate(-124.067 -117.005)" fill="#fff"/>
      <path id="Path_609731" data-name="Path 609731" d="M345.964,329.606a.2.2,0,0,1-.162-.159l-.5-2.736,2.2.357-1.333,2.439A.2.2,0,0,1,345.964,329.606Z" transform="translate(-124.857 -122.568)" fill="#304c8e"/>
      <g id="Group_1071554" data-name="Group 1071554" transform="translate(124.544 114.314)" opacity="0.21">
        <path id="Path_609732" data-name="Path 609732" d="M223.437,240.631a28.486,28.486,0,1,0-28.353-28.486A28.2,28.2,0,0,0,223.437,240.631Z" transform="translate(-195.084 -183.659)" fill="#fff" stroke="#545454" stroke-miterlimit="10" stroke-width="0.928" opacity="0.59"/>
        <path id="Path_609733" data-name="Path 609733" d="M223.437,240.631a28.486,28.486,0,1,0-28.353-28.486A28.2,28.2,0,0,0,223.437,240.631Z" transform="translate(-195.084 -183.659)" fill="none" stroke="#545454" stroke-linecap="round" stroke-miterlimit="10" stroke-width="27"/>
        <path id="Path_609734" data-name="Path 609734" d="M300.058,288.416,270.9,259.474" transform="translate(-222.498 -210.846)" fill="none" stroke="#545454" stroke-linecap="square" stroke-miterlimit="10" stroke-width="24"/>
      </g>
      <path id="Path_609735" data-name="Path 609735" d="M227.353,228.972A28.486,28.486,0,1,0,199,200.486,28.2,28.2,0,0,0,227.353,228.972Z" transform="translate(-71.956 -64.613)" fill="#fff" opacity="0.59"/>
      <path id="Path_609736" data-name="Path 609736" d="M227.353,228.972A28.486,28.486,0,1,0,199,200.486,28.2,28.2,0,0,0,227.353,228.972Z" transform="translate(-71.956 -64.613)" fill="none" stroke="#7e19b8" stroke-linecap="round" stroke-miterlimit="10" stroke-width="23"/>
      <path id="Path_609737" data-name="Path 609737" d="M303.974,276.758l-29.159-28.943" transform="translate(-99.37 -92.581)" fill="none" stroke="#7e19b8" stroke-linecap="square" stroke-miterlimit="10" stroke-width="23"/>
    </g>
    <rect id="Rectangle_377514" data-name="Rectangle 377514" width="400" height="249.588" transform="translate(-123 -8483)" fill="none"/>
  </g>
</svg>
